<svg width="178" height="144" viewBox="0 0 178 144" fill="none" xmlns="http://www.w3.org/2000/svg">
<g clip-path="url(#clip0_131_36624)">
<path d="M87.4701 68.6512C106.428 68.6512 121.796 53.2831 121.796 34.3256C121.796 15.3681 106.428 0 87.4701 0C68.5126 0 53.1445 15.3681 53.1445 34.3256C53.1445 53.2831 68.5126 68.6512 87.4701 68.6512Z" fill="#FF492C"/>
<path d="M102.329 26.2931H96.4661C96.624 25.3732 97.1938 24.8583 98.3471 24.2748L99.425 23.7256C101.354 22.737 102.384 21.618 102.384 19.7919C102.384 18.6454 101.938 17.7392 101.052 17.087C100.166 16.4348 99.1229 16.1122 97.9009 16.1122C96.9556 16.101 96.0275 16.3659 95.2304 16.8742C94.4272 17.3685 93.8299 18.0069 93.4592 18.8033L95.1549 20.5058C95.8139 19.174 96.7682 18.5218 98.0245 18.5218C99.0886 18.5218 99.7408 19.071 99.7408 19.833C99.7408 20.4715 99.425 21.0001 98.203 21.618L97.5096 21.9544C96.0061 22.7164 94.9626 23.5883 94.3585 24.5768C93.7544 25.5654 93.4592 26.808 93.4592 28.3115V28.7234H102.329V26.2931Z" fill="white"/>
<path d="M101.545 31.5244H91.8377L86.984 39.9273H96.6913L101.545 48.3371L106.399 39.9273L101.545 31.5244Z" fill="white"/>
<path d="M87.8203 45.5365C81.6417 45.5365 76.6095 40.5044 76.6095 34.3258C76.6095 28.1472 81.6417 23.1151 87.8203 23.1151L91.6579 15.0897C90.3941 14.8384 89.1088 14.712 87.8203 14.7122C76.9871 14.7122 68.2066 23.4926 68.2066 34.3258C68.2066 45.1589 76.9871 53.9394 87.8203 53.9394C91.9718 53.9472 96.0173 52.6292 99.3674 50.1773L95.1248 42.8179C93.095 44.5713 90.5024 45.5362 87.8203 45.5365Z" fill="white"/>
</g>
<path d="M88.899 80.6743L92.7523 92.5335L105.222 92.5335L95.1338 99.8629L98.9871 111.722L88.899 104.393L78.811 111.722L82.6643 99.8629L72.5763 92.5335L85.0458 92.5335L88.899 80.6743Z" fill="#FF492C"/>
<path d="M53.1451 80.6743L56.9984 92.5335L69.4679 92.5335L59.3799 99.8629L63.2332 111.722L53.1451 104.393L43.0571 111.722L46.9104 99.8629L36.8224 92.5335L49.2918 92.5335L53.1451 80.6743Z" fill="#FF492C"/>
<path d="M17.3873 80.6743L21.2406 92.5335L33.7101 92.5335L23.6221 99.8629L27.4754 111.722L17.3873 104.393L7.29929 111.722L11.1526 99.8629L1.06454 92.5335L13.534 92.5335L17.3873 80.6743Z" fill="#FF492C"/>
<path d="M124.657 80.6743L128.51 92.5335L140.98 92.5335L130.892 99.8629L134.745 111.722L124.657 104.393L114.569 111.722L118.422 99.8629L108.334 92.5335L120.804 92.5335L124.657 80.6743Z" fill="#FF492C"/>
<mask id="mask0_131_36624" style="mask-type:alpha" maskUnits="userSpaceOnUse" x="143" y="80" width="26" height="33">
<rect x="143.252" y="80.6748" width="25.7442" height="31.4651" fill="#8B8B8B"/>
</mask>
<g mask="url(#mask0_131_36624)">
<path d="M160.415 80.6748L164.268 92.534L176.737 92.534L166.649 99.8634L170.503 111.723L160.415 104.393L150.327 111.723L154.18 99.8634L144.092 92.534L156.561 92.534L160.415 80.6748Z" fill="#FF492C"/>
</g>
<mask id="mask1_131_36624" style="mask-type:alpha" maskUnits="userSpaceOnUse" x="168" y="80" width="10" height="33">
<rect width="8.5814" height="31.4651" transform="matrix(-1 0 0 1 177.575 80.6748)" fill="#8B8B8B"/>
</mask>
<g mask="url(#mask1_131_36624)">
<path d="M160.413 80.6748L164.266 92.534L176.735 92.534L166.647 99.8634L170.501 111.723L160.413 104.393L150.325 111.723L154.178 99.8634L144.09 92.534L156.559 92.534L160.413 80.6748Z" fill="#EBECEE"/>
</g>
<path d="M100.708 143.238C98.7063 143.238 97.4463 142.104 97.2783 140.326H98.8183C98.9303 141.334 99.6023 142.006 100.68 142.006C101.828 142.006 102.514 141.082 102.514 139.836C102.514 138.576 101.842 137.778 100.68 137.778C100.022 137.778 99.4203 138.086 99.0423 138.576L97.6843 138.422L98.1463 133.06H103.55V134.292H99.4063L99.1543 137.372C99.5603 136.924 100.19 136.602 101.016 136.602C102.878 136.602 104.012 137.932 104.012 139.738C104.012 141.684 102.738 143.238 100.708 143.238Z" fill="#FF492C"/>
<path d="M90.8183 143L95.0323 133.06H96.4743L92.2603 143H90.8183Z" fill="#FF492C"/>
<path d="M86.5586 143.238C84.3186 143.238 83.0026 141.922 83.0026 140.256C83.0026 139.01 83.7026 138.1 84.8646 137.68C83.9966 137.288 83.4366 136.56 83.4366 135.524C83.4366 133.998 84.7386 132.836 86.5586 132.836C88.3926 132.836 89.6806 133.998 89.6806 135.524C89.6806 136.56 89.1206 137.288 88.2666 137.68C89.4006 138.114 90.1006 139.024 90.1006 140.256C90.1006 141.922 88.7986 143.238 86.5586 143.238ZM84.5426 140.172C84.5426 141.194 85.2986 142.006 86.5586 142.006C87.8046 142.006 88.5606 141.194 88.5606 140.172C88.5606 139.094 87.8186 138.268 86.5586 138.268C85.2986 138.268 84.5426 139.108 84.5426 140.172ZM84.8646 135.552C84.8646 136.462 85.5506 137.134 86.5586 137.134C87.5666 137.134 88.2526 136.462 88.2526 135.552C88.2526 134.684 87.5806 134.012 86.5586 134.012C85.5366 134.012 84.8646 134.684 84.8646 135.552Z" fill="#FF492C"/>
<path d="M80.1524 143V141.264H81.8184V143H80.1524Z" fill="#FF492C"/>
<path d="M76.3296 143V140.718H71.7236V139.514L75.5596 133.06H77.8136V139.5H79.1436V140.718H77.8136V143H76.3296ZM73.1936 139.5H76.3296V134.208L73.1936 139.5Z" fill="#FF492C"/>
<defs>
<clipPath id="clip0_131_36624">
<rect width="68.6512" height="68.6512" fill="white" transform="translate(53.1464)"/>
</clipPath>
</defs>
</svg>
