<svg width="75" height="14" viewBox="0 0 75 14" fill="none" xmlns="http://www.w3.org/2000/svg">
<path d="M7.5 0L9.0716 4.83688H14.1574L10.0429 7.82624L11.6145 12.6631L7.5 9.67376L3.3855 12.6631L4.9571 7.82624L0.842604 4.83688H5.9284L7.5 0Z" fill="#FF492C"/>
<path d="M22.5 0L24.0716 4.83688H29.1574L25.0429 7.82624L26.6145 12.6631L22.5 9.67376L18.3855 12.6631L19.9571 7.82624L15.8426 4.83688H20.9284L22.5 0Z" fill="#FF492C"/>
<path d="M37.5 0L39.0716 4.83688H44.1574L40.0429 7.82624L41.6145 12.6631L37.5 9.67376L33.3855 12.6631L34.9571 7.82624L30.8426 4.83688H35.9284L37.5 0Z" fill="#FF492C"/>
<path d="M52.5 0L54.0716 4.83688H59.1574L55.0429 7.82624L56.6145 12.6631L52.5 9.67376L48.3855 12.6631L49.9571 7.82624L45.8426 4.83688H50.9284L52.5 0Z" fill="#FF492C"/>
<path d="M67.5 0L69.0716 4.83688H74.1574L70.0429 7.82624L71.6145 12.6631L67.5 9.67376L63.3855 12.6631L64.9571 7.82624L60.8426 4.83688H65.9284L67.5 0Z" fill="#FF492C"/>
</svg>
