<svg width="48" height="48" viewBox="0 0 48 48" fill="none" xmlns="http://www.w3.org/2000/svg">
<g clip-path="url(#clip0_574_3049)">
<mask id="mask0_574_3049" style="mask-type:luminance" maskUnits="userSpaceOnUse" x="3" y="3" width="42" height="42">
<path d="M45 3H3V45H45V3Z" fill="white"/>
</mask>
<g mask="url(#mask0_574_3049)">
<path d="M33.1332 13.6739C33.1332 18.74 29.0444 22.8507 24.0016 22.8507C18.9557 22.8507 14.8669 18.7431 14.8669 13.6739C14.8669 8.60469 18.9557 4.49707 24.0016 4.49707C29.0444 4.49707 33.1332 8.60469 33.1332 13.6739ZM12.1347 25.1434C7.09203 25.1434 3 29.251 3 34.317C3 39.383 7.08878 43.494 12.1347 43.494C17.1807 43.494 21.2695 39.3864 21.2695 34.317C21.2695 29.251 17.1807 25.1434 12.1347 25.1434ZM35.8653 25.1434C30.8195 25.1434 26.7306 29.2511 26.7306 34.3202C26.7306 39.3893 30.8195 43.4972 35.8653 43.4972C40.9081 43.4972 45 39.3893 45 34.3202C45 29.2511 40.9113 25.1434 35.8653 25.1434Z" fill="#F06A6A"/>
</g>
</g>
<defs>
<clipPath id="clip0_574_3049">
<rect width="42" height="42" fill="white" transform="translate(3 3)"/>
</clipPath>
</defs>
</svg>
