<svg width="48" height="48" viewBox="0 0 48 48" fill="none" xmlns="http://www.w3.org/2000/svg">
<g clip-path="url(#clip0_574_3053)">
<path d="M1.89844 28.368L23.9984 40.806L43.8364 29.706V34.126L23.9984 45.324L3.03044 33.404L1.90044 34.02V35.56L23.9984 48L46.0984 35.564V26.93L45.0684 26.312L23.9984 38.236L4.26444 26.93V22.51L23.9984 33.61L46.0984 21.174V12.64L45.0684 12.024L23.9984 23.948L5.29244 13.362L23.9984 2.776L39.5184 11.512L40.8544 10.69V9.558L23.9984 0L1.89844 12.54V13.98L23.9984 26.414L43.8364 15.314V19.834L23.9984 31.04L3.03044 19.12L1.90044 19.736L1.89844 28.368Z" fill="black"/>
</g>
<defs>
<clipPath id="clip0_574_3053">
<rect width="48" height="48" fill="white"/>
</clipPath>
</defs>
</svg>
