<svg width="48" height="48" viewBox="0 0 48 48" fill="none" xmlns="http://www.w3.org/2000/svg">
<g clip-path="url(#clip0_712_4399)">
<path d="M2 27.856V20.144C2 18.6329 2.6414 17.1837 3.78307 16.1153L19.219 1.66878C21.5963 -0.55626 25.4509 -0.55626 27.8284 1.66878L43.5108 16.125C44.6524 17.1935 45.2738 18.7389 45.2738 20.25C45.2738 23.0447 45.2738 28.5 45.2738 28.5L24.5998 8.71919C24.0055 8.16293 23.0418 8.16293 22.4475 8.71919L2 27.856Z" fill="url(#paint0_linear_712_4399)"/>
<path d="M38.689 23.7266C38.6584 23.7614 38.6257 23.795 38.5911 23.8274L35.3625 26.849C34.7681 27.4052 33.8045 27.4052 33.2101 26.849L23.5244 17.7842L18.1436 22.8201L34.2863 37.9281L37.3797 35.0331C38.4999 33.9848 39.1291 32.5628 39.1291 31.0802V25.2023C39.1291 24.6705 38.9711 24.1628 38.689 23.7266Z" fill="url(#paint1_linear_712_4399)"/>
<path d="M28.3674 35.2745V41.1524C28.3674 42.635 27.7381 44.0569 26.618 45.1054L23.5245 48.0004L7.38184 32.8924L12.7628 27.8564L22.4485 36.9212C23.0427 37.4774 24.0065 37.4774 24.6008 36.9212L27.8293 33.8996C27.8639 33.8671 27.8966 33.8335 27.9272 33.7988C28.2095 34.2349 28.3674 34.7428 28.3674 35.2745Z" fill="url(#paint2_linear_712_4399)"/>
</g>
<defs>
<linearGradient id="paint0_linear_712_4399" x1="23.6369" y1="1.125e-06" x2="23.6369" y2="48" gradientUnits="userSpaceOnUse">
<stop stop-color="#7315D1"/>
<stop offset="1" stop-color="#E34185"/>
</linearGradient>
<linearGradient id="paint1_linear_712_4399" x1="23.6377" y1="0.000183977" x2="23.6377" y2="48.0002" gradientUnits="userSpaceOnUse">
<stop stop-color="#7315D1"/>
<stop offset="1" stop-color="#E34185"/>
</linearGradient>
<linearGradient id="paint2_linear_712_4399" x1="23.6378" y1="0.000399731" x2="23.6378" y2="48.0004" gradientUnits="userSpaceOnUse">
<stop stop-color="#7315D1"/>
<stop offset="1" stop-color="#E34185"/>
</linearGradient>
<clipPath id="clip0_712_4399">
<rect width="48" height="48" fill="white"/>
</clipPath>
</defs>
</svg>
