<svg width="48" height="48" viewBox="0 0 48 48" fill="none" xmlns="http://www.w3.org/2000/svg">
<g clip-path="url(#clip0_574_3059)">
<path d="M45.12 24.499C45.12 22.939 44.98 21.439 44.72 19.999H24V28.519H35.84C35.32 31.259 33.76 33.579 31.42 35.139V40.679H38.56C42.72 36.839 45.12 31.199 45.12 24.499Z" fill="#4285F4"/>
<path d="M23.9994 45.9992C29.9394 45.9992 34.9194 44.0392 38.5594 40.6792L31.4194 35.1392C29.4594 36.4592 26.9594 37.2592 23.9994 37.2592C18.2794 37.2592 13.4194 33.3992 11.6794 28.1992H4.35938V33.8792C7.97937 41.0592 15.3994 45.9992 23.9994 45.9992Z" fill="#34A853"/>
<path d="M11.678 28.1796C11.238 26.8596 10.978 25.4596 10.978 23.9996C10.978 22.5396 11.238 21.1396 11.678 19.8196V14.1396H4.35805C2.85805 17.0996 1.99805 20.4396 1.99805 23.9996C1.99805 27.5596 2.85805 30.8996 4.35805 33.8596L10.058 29.4196L11.678 28.1796Z" fill="#FBBC05"/>
<path d="M23.9994 10.759C27.2394 10.759 30.1194 11.879 32.4194 14.039L38.7194 7.73902C34.8994 4.17902 29.9394 1.99902 23.9994 1.99902C15.3994 1.99902 7.97938 6.93902 4.35938 14.139L11.6794 19.819C13.4194 14.619 18.2794 10.759 23.9994 10.759Z" fill="#EA4335"/>
</g>
<defs>
<clipPath id="clip0_574_3059">
<rect width="48" height="48" fill="white"/>
</clipPath>
</defs>
</svg>
