<svg width="48" height="48" viewBox="0 0 48 48" fill="none" xmlns="http://www.w3.org/2000/svg">
<g clip-path="url(#clip0_574_3040)">
<g clip-path="url(#clip1_574_3040)">
<mask id="mask0_574_3040" style="mask-type:luminance" maskUnits="userSpaceOnUse" x="0" y="0" width="48" height="48">
<path d="M48 0H0V48H48V0Z" fill="white"/>
</mask>
<g mask="url(#mask0_574_3040)">
<path d="M48.0001 21.331H33.964L46.12 14.3128L43.4503 9.68784L31.2946 16.7059L38.3113 4.55115L33.6862 1.88009L26.6696 14.0349V0H21.3303V14.0362L14.3111 1.88009L9.68756 4.5498L16.7055 16.7046L4.5497 9.68784L1.88004 14.3115L14.0358 21.3296H0V26.6691H14.0345L1.88004 33.6873L4.5497 38.3121L16.7041 31.2954L9.68624 43.4502L14.3111 46.1199L21.329 33.9639V48H26.6683V33.9651L33.685 46.1199L38.3098 43.4502L31.2919 31.2942L43.4476 38.3121L46.1173 33.6873L33.9628 26.6704H47.9971L48.0001 21.331ZM24 31.2618C19.974 31.2618 16.7108 27.9986 16.7108 23.9725C16.7108 19.9464 19.974 16.6831 24 16.6831C28.026 16.6831 31.2892 19.9464 31.2892 23.9725C31.2892 27.9986 28.026 31.2618 24 31.2618Z" fill="#625DF5"/>
</g>
</g>
</g>
<defs>
<clipPath id="clip0_574_3040">
<rect width="48" height="48" fill="white"/>
</clipPath>
<clipPath id="clip1_574_3040">
<rect width="48" height="48" fill="white"/>
</clipPath>
</defs>
</svg>
