<svg width="48" height="48" viewBox="0 0 48 48" fill="none" xmlns="http://www.w3.org/2000/svg">
<g clip-path="url(#clip0_574_3044)">
<g clip-path="url(#clip1_574_3044)">
<path d="M5.9711 38.1541C3.81083 38.1588 1.81514 37.0007 0.747329 35.1228C-0.305089 33.2565 -0.24198 30.9617 0.911426 29.1561L11.6689 12.2631C12.7899 10.4148 14.8186 9.31245 16.9793 9.37775C19.1385 9.42949 21.1024 10.6401 22.1188 12.5457C23.1216 14.442 22.9962 16.7234 21.7951 18.5034L11.0444 35.3963C9.93643 37.1229 8.02262 38.1632 5.9711 38.1541Z" fill="#F62B54"/>
<path d="M24.4231 38.1543C22.2534 38.1543 20.2569 36.9942 19.2085 35.1299C18.1584 33.2686 18.2215 30.9797 19.3726 29.1791L30.1096 12.3249C31.2143 10.45 33.2491 9.32182 35.4245 9.37798C37.6125 9.42584 39.5953 10.6497 40.5981 12.5642C41.5941 14.4787 41.4482 16.7738 40.2107 18.5492L29.476 35.4034C28.3715 37.1225 26.4665 38.1596 24.4231 38.1543Z" fill="#FFCC00"/>
<path d="M42.4641 38.2953C45.5228 38.2953 48.0024 35.8677 48.0024 32.8732C48.0024 29.8787 45.5228 27.4512 42.4641 27.4512C39.4054 27.4512 36.9258 29.8787 36.9258 32.8732C36.9258 35.8677 39.4054 38.2953 42.4641 38.2953Z" fill="#00CA72"/>
</g>
</g>
<defs>
<clipPath id="clip0_574_3044">
<rect width="48" height="48" fill="white"/>
</clipPath>
<clipPath id="clip1_574_3044">
<rect width="48" height="48" fill="white"/>
</clipPath>
</defs>
</svg>
