<svg width="48" height="48" viewBox="0 0 48 48" fill="none" xmlns="http://www.w3.org/2000/svg">
<path d="M37.8153 0C8.19831 2.24 -3.8868 25.28 0.879161 39.68C3.77278 35.52 9.04937 31.04 19.7728 29.44C19.2621 17.28 23.8579 8.8 37.8153 0Z" fill="#1D5080"/>
<path d="M22.6662 31.1999C15.1768 32.3199 10.0705 34.2399 6.83643 37.1199C6.83643 40.9599 8.02792 44.7999 10.2407 47.9999C12.7939 42.2399 20.9641 38.0799 33.5598 38.0799C30.496 24.1599 37.3045 11.5199 48.0279 2.87988C42.7513 3.67988 37.6449 4.95988 32.7088 6.71988C24.5386 14.0799 21.6449 23.5199 22.8364 31.0399L22.6662 31.1999Z" fill="#1D5080"/>
</svg>
