<svg width="45" height="41" viewBox="0 0 45 41" fill="none" xmlns="http://www.w3.org/2000/svg">
<path d="M14.9629 30.7306C14.9629 36.3878 23.4188 40.9741 29.9519 40.9741C33.4277 40.9741 36.5535 39.6761 38.7179 37.609L29.9519 30.7306H14.9629Z" fill="black"/>
<path d="M3.13281 30.7306C3.13281 36.3878 8.42925 40.9741 14.9625 40.9741V20.4871C8.42925 20.4871 3.13281 25.0733 3.13281 30.7306Z" fill="black"/>
<path d="M29.9515 10.2436V28.1777H41.7813V10.2692C41.769 4.57878 36.478 -0.0138885 29.9515 5.71146e-05H14.8476V0.00119665C8.36743 0.054987 3.13281 4.61976 3.13281 10.2436V20.4871H14.9625V10.2436H29.9515" fill="black"/>
<path d="M32.0098 30.0421L44.9095 39.8779V30.0421H32.0098Z" fill="black"/>
</svg>
