<svg width="48" height="48" viewBox="0 0 48 48" fill="none" xmlns="http://www.w3.org/2000/svg">
<g clip-path="url(#clip0_574_3051)">
<g clip-path="url(#clip1_574_3051)">
<path d="M7.39756 11.4741L17.1536 17.3241C17.6938 17.6488 18.3281 17.781 18.9531 17.6991C19.578 17.6173 20.1569 17.3262 20.5953 16.8733C20.8883 16.591 21.1209 16.2521 21.279 15.8772C21.4372 15.5023 21.5177 15.0992 21.5156 14.6923V2.96759C21.5351 2.45405 21.4157 1.94475 21.1701 1.49334C20.9244 1.04193 20.5616 0.665115 20.1198 0.402593C19.6781 0.140079 19.1738 0.00152773 18.6599 0.00152773C18.1461 0.00152773 17.6418 0.140079 17.2001 0.402593C16.7583 0.665115 16.3954 1.04193 16.1498 1.49334C15.9042 1.94475 15.7848 2.45405 15.8043 2.96759V9.63959L10.2641 6.31709C9.93736 6.12317 9.5751 5.99671 9.19869 5.94518C8.82228 5.89365 8.43936 5.91811 8.07256 6.01709C7.70582 6.11759 7.36356 6.29215 7.06688 6.53001C6.7702 6.76787 6.5254 7.06398 6.34756 7.40009C5.96554 8.08277 5.86149 8.88646 6.05707 9.64391C6.25265 10.4014 6.73279 11.0542 7.39756 11.4666M30.8501 17.3166L40.6061 11.4666C41.2706 11.0537 41.7506 10.4006 41.9461 9.64297C42.1417 8.88538 42.0378 8.08158 41.6561 7.39859C41.4766 7.06395 41.2313 6.76911 40.9348 6.53184C40.6384 6.29458 40.2969 6.1198 39.9311 6.01804C39.5653 5.91628 39.1827 5.88965 38.8063 5.93976C38.4299 5.98987 38.0675 6.11567 37.7411 6.30959L32.2661 9.58709V2.95709C32.28 2.57338 32.2164 2.1908 32.0792 1.8322C31.9419 1.4736 31.7338 1.14634 31.4673 0.869966C31.2007 0.593589 30.8812 0.373764 30.5278 0.22362C30.1744 0.0734764 29.7944 -0.00390625 29.4104 -0.00390625C29.0265 -0.00390625 28.6464 0.0734764 28.2931 0.22362C27.9397 0.373764 27.6202 0.593589 27.3536 0.869966C27.0871 1.14634 26.879 1.4736 26.7417 1.8322C26.6045 2.1908 26.5409 2.57338 26.5548 2.95709V14.4493C26.4961 15.0649 26.6253 15.6839 26.9253 16.2246C27.1043 16.5598 27.3495 16.8552 27.646 17.093C27.9425 17.3307 28.2842 17.5058 28.6503 17.6076C29.0167 17.7101 29.4002 17.7363 29.7772 17.6847C30.1541 17.6331 30.5164 17.5048 30.8418 17.3076M22.1666 23.9781C22.1763 23.7906 22.2476 23.6031 22.3706 23.4681L23.5106 22.2831C23.6456 22.1575 23.82 22.0827 24.0041 22.0716H24.0468C24.2305 22.0825 24.4046 22.1573 24.5388 22.2831L25.6788 23.4681C25.8022 23.6106 25.8741 23.7905 25.8828 23.9788V24.0238C25.8738 24.2126 25.802 24.3929 25.6788 24.5361L24.5388 25.7211C24.4051 25.848 24.2308 25.9235 24.0468 25.9341H24.0041C23.8196 25.9236 23.6447 25.8482 23.5106 25.7211L22.3706 24.5361C22.2474 24.3929 22.1756 24.2126 22.1666 24.0238V23.9781ZM18.7136 23.4906V24.5136C18.7262 24.7707 18.8244 25.0162 18.9926 25.2111L22.8626 29.2288C23.0451 29.4015 23.2829 29.5041 23.5338 29.5183H24.5178C24.7687 29.5041 25.0065 29.4015 25.1891 29.2288L29.0591 25.2111C29.2272 25.0162 29.3254 24.7707 29.3381 24.5136V23.4906C29.3254 23.2335 29.2272 22.988 29.0591 22.7931L25.1891 18.7753C25.0065 18.6027 24.7687 18.5001 24.5178 18.4858H23.5338C23.2829 18.5001 23.0451 18.6027 22.8626 18.7753L18.9926 22.8006C18.8249 22.9958 18.7268 23.2411 18.7136 23.4981M2.35006 20.7156L7.87381 24.0283L2.35006 27.3381C1.68617 27.7516 1.20687 28.4048 1.01153 29.1622C0.816182 29.9195 0.919766 30.723 1.30081 31.4061C1.47999 31.7412 1.72523 32.0365 2.02171 32.2742C2.31819 32.5119 2.65976 32.6871 3.02581 32.7891C3.39199 32.8909 3.77501 32.9173 4.1517 32.8667C4.52838 32.8162 4.8909 32.6898 5.21731 32.4951L14.9733 26.6451C15.4128 26.3646 15.774 25.9772 16.0232 25.5192C16.2724 25.0612 16.4015 24.5475 16.3983 24.0261C16.3982 23.5053 16.2678 22.9928 16.0189 22.5354C15.77 22.0779 15.4105 21.69 14.9733 21.4071L5.21731 15.5571C4.89061 15.3632 4.52835 15.2367 4.15194 15.1852C3.77553 15.1337 3.39261 15.1581 3.02581 15.2571C2.65907 15.3576 2.31681 15.5322 2.02013 15.77C1.72345 16.0079 1.47864 16.304 1.30081 16.6401C0.918977 17.3228 0.815035 18.1264 1.0106 18.8838C1.20616 19.6412 1.68618 20.2941 2.35081 20.7066M31.5971 24.0381C31.5884 24.5598 31.716 25.0747 31.9673 25.5321C32.2185 25.9894 32.5846 26.3733 33.0296 26.6458L42.7796 32.4958C43.1058 32.6903 43.4682 32.8166 43.8447 32.8671C44.2211 32.9175 44.6039 32.8911 44.9699 32.7893C45.3359 32.6876 45.6774 32.5127 45.9738 32.2752C46.2703 32.0377 46.5155 31.7426 46.6946 31.4076C47.0774 30.7249 47.1819 29.9207 46.9863 29.1628C46.7907 28.4049 46.31 27.7517 45.6446 27.3396L40.1276 24.0291L45.6513 20.7163C46.3158 20.3037 46.7957 19.6509 46.9912 18.8935C47.1868 18.1362 47.083 17.3326 46.7013 16.6498C46.5225 16.3145 46.2774 16.019 45.9808 15.7812C45.6843 15.5435 45.3425 15.3685 44.9763 15.2668C44.6102 15.1643 44.2269 15.138 43.8502 15.1896C43.4735 15.2412 43.1114 15.3696 42.7863 15.5668L33.0363 21.4168C32.588 21.6913 32.2198 22.0788 31.9683 22.5404C31.7169 23.002 31.5912 23.5216 31.6038 24.0471M19.1126 30.3816C18.4392 30.2517 17.7416 30.3756 17.1543 30.7296L7.39831 36.5796C6.73397 36.9924 6.25419 37.6452 6.05866 38.4025C5.86312 39.1598 5.96685 39.9633 6.34831 40.6461C6.52733 40.9812 6.77252 41.2766 7.06903 41.5142C7.36554 41.7517 7.7072 41.9267 8.07331 42.0283C8.43951 42.1299 8.8225 42.1563 9.19916 42.1057C9.57582 42.0552 9.93833 41.9289 10.2648 41.7343L15.8051 38.4118V45.0343C15.7898 45.4188 15.8523 45.8025 15.9889 46.1622C16.1256 46.5219 16.3334 46.8504 16.6001 47.1278C16.8667 47.4052 17.1866 47.6259 17.5407 47.7767C17.8947 47.9275 18.2755 48.0052 18.6603 48.0052C19.0451 48.0052 19.4259 47.9275 19.78 47.7767C20.134 47.6259 20.4539 47.4052 20.7206 47.1278C20.9872 46.8504 21.1951 46.5219 21.3317 46.1622C21.4683 45.8025 21.5308 45.4188 21.5156 45.0343V33.3006C21.5257 32.6072 21.2897 31.9327 20.8497 31.3968C20.4096 30.8609 19.7939 30.4983 19.1118 30.3733M40.6068 36.5803L30.8508 30.7303C30.5243 30.5358 30.1618 30.4095 29.7852 30.3589C29.4085 30.3084 29.0255 30.3347 28.6593 30.4363C28.2931 30.5379 27.9514 30.7128 27.6549 30.9504C27.3584 31.188 27.1132 31.4834 26.9343 31.8186C26.6343 32.3601 26.5051 32.9798 26.5638 33.5961V45.0336C26.5485 45.4181 26.6111 45.8017 26.7477 46.1614C26.8843 46.5212 27.0922 46.8496 27.3588 47.127C27.6254 47.4045 27.9454 47.6252 28.2994 47.776C28.6534 47.9268 29.0343 48.0045 29.4191 48.0045C29.8039 48.0045 30.1847 47.9268 30.5387 47.776C30.8927 47.6252 31.2127 47.4045 31.4793 47.127C31.746 46.8496 31.9538 46.5212 32.0904 46.1614C32.227 45.8017 32.2896 45.4181 32.2743 45.0336V38.4606L37.7396 41.7381C38.0663 41.932 38.4285 42.0585 38.8049 42.11C39.1813 42.1615 39.5643 42.1371 39.9311 42.0381C40.2978 41.9376 40.6401 41.763 40.9367 41.5252C41.2334 41.2873 41.4782 40.9912 41.6561 40.6551C42.4488 39.2301 41.9861 37.4451 40.6061 36.5886" fill="#29B5E8"/>
</g>
</g>
<defs>
<clipPath id="clip0_574_3051">
<rect width="48" height="48" fill="white"/>
</clipPath>
<clipPath id="clip1_574_3051">
<rect width="48" height="48" fill="white"/>
</clipPath>
</defs>
</svg>
