<svg width="48" height="48" viewBox="0 0 48 48" fill="none" xmlns="http://www.w3.org/2000/svg">
<g clip-path="url(#clip0_574_2989)">
<g clip-path="url(#clip1_574_2989)">
<path d="M33.4815 18.4189H45.88C47.0514 18.4189 48.001 19.3685 48.001 20.5399V31.8333C48.001 36.1383 44.511 39.6282 40.206 39.6282H40.1691C35.8641 39.6288 32.3737 36.1394 32.373 31.8344C32.373 31.834 32.373 31.8336 32.373 31.8332V19.5274C32.3731 18.9152 32.8693 18.4189 33.4815 18.4189Z" fill="#5059C9"/>
<path d="M41.8611 16.1862C44.6354 16.1862 46.8844 13.9372 46.8844 11.1629C46.8844 8.38864 44.6354 6.13965 41.8611 6.13965C39.0869 6.13965 36.8379 8.38864 36.8379 11.1629C36.8379 13.9372 39.0869 16.1862 41.8611 16.1862Z" fill="#5059C9"/>
<path d="M26.2324 16.1864C30.2397 16.1864 33.4882 12.9379 33.4882 8.93063C33.4882 4.92335 30.2397 1.6748 26.2324 1.6748C22.2251 1.6748 18.9766 4.92335 18.9766 8.93063C18.9766 12.9379 22.2251 16.1864 26.2324 16.1864Z" fill="#7B83EB"/>
<path d="M35.9081 18.4189H15.4422C14.2848 18.4476 13.3692 19.4081 13.3961 20.5656V33.4463C13.2344 40.3921 18.7296 46.156 25.6751 46.3259C32.6207 46.156 38.1158 40.3921 37.9542 33.4463V20.5656C37.981 19.4081 37.0655 18.4476 35.9081 18.4189Z" fill="#7B83EB"/>
<path opacity="0.1" d="M26.7905 18.4189V36.4692C26.7849 37.2969 26.2833 38.0405 25.5179 38.3557C25.2742 38.4588 25.0123 38.5119 24.7477 38.512H14.3774C14.2323 38.1436 14.0984 37.7752 13.9867 37.3957C13.596 36.1148 13.3966 34.7832 13.3951 33.4441V20.5622C13.3683 19.4066 14.2823 18.4476 15.4379 18.4189H26.7905Z" fill="black"/>
<path opacity="0.2" d="M25.6742 18.4189V37.5855C25.6742 37.8501 25.621 38.112 25.5179 38.3557C25.2028 39.1211 24.4592 39.6227 23.6314 39.6282H14.9021C14.7123 39.2599 14.5337 38.8915 14.3774 38.512C14.2212 38.1324 14.0984 37.7752 13.9867 37.3957C13.596 36.1148 13.3966 34.7832 13.3951 33.4441V20.5622C13.3683 19.4066 14.2823 18.4476 15.4379 18.4189H25.6742Z" fill="black"/>
<path opacity="0.2" d="M25.6742 18.4189V35.3529C25.6657 36.4776 24.7561 37.3872 23.6314 37.3957H13.9867C13.596 36.1148 13.3966 34.7832 13.3951 33.4441V20.5622C13.3683 19.4066 14.2823 18.4476 15.4379 18.4189H25.6742Z" fill="black"/>
<path opacity="0.2" d="M24.5579 18.4189V35.3529C24.5494 36.4776 23.6398 37.3872 22.5151 37.3957H13.9867C13.596 36.1148 13.3966 34.7832 13.3951 33.4441V20.5622C13.3683 19.4066 14.2823 18.4476 15.4379 18.4189H24.5579Z" fill="black"/>
<path opacity="0.1" d="M26.7908 12.6482V16.1645C26.601 16.1757 26.4224 16.1869 26.2326 16.1869C26.0429 16.1869 25.8643 16.1757 25.6745 16.1645C25.2977 16.1395 24.924 16.0797 24.5582 15.9859C22.2977 15.4506 20.4302 13.8653 19.535 11.7217C19.3809 11.3618 19.2613 10.988 19.1777 10.6055H24.748C25.8744 10.6097 26.7865 11.5218 26.7908 12.6482Z" fill="black"/>
<path opacity="0.2" d="M25.6747 13.7644V16.1645C25.2979 16.1395 24.9242 16.0797 24.5584 15.9859C22.2979 15.4505 20.4304 13.8652 19.5352 11.7217H23.6319C24.7583 11.7259 25.6704 12.638 25.6747 13.7644Z" fill="black"/>
<path opacity="0.2" d="M25.6747 13.7644V16.1645C25.2979 16.1395 24.9242 16.0797 24.5584 15.9859C22.2979 15.4505 20.4304 13.8652 19.5352 11.7217H23.6319C24.7583 11.7259 25.6704 12.638 25.6747 13.7644Z" fill="black"/>
<path opacity="0.2" d="M24.5584 13.7645V15.9859C22.2979 15.4505 20.4304 13.8652 19.5352 11.7217H22.5156C23.6421 11.726 24.5541 12.6381 24.5584 13.7645Z" fill="black"/>
<path d="M2.04613 11.7217H22.512C23.642 11.7217 24.5581 12.6378 24.5581 13.7678V34.2337C24.5581 35.3637 23.642 36.2798 22.512 36.2798H2.04613C0.916074 36.2798 0 35.3637 0 34.2337V13.7678C0 12.6378 0.916096 11.7217 2.04613 11.7217Z" fill="url(#paint0_linear_574_2989)"/>
<path d="M17.6644 19.5107H13.5732V30.6512H10.9667V19.5107H6.89453V17.3496H17.6644V19.5107Z" fill="white"/>
</g>
</g>
<defs>
<linearGradient id="paint0_linear_574_2989" x1="4.26625" y1="10.1229" x2="20.2919" y2="37.8786" gradientUnits="userSpaceOnUse">
<stop stop-color="#5A62C3"/>
<stop offset="0.5" stop-color="#4D55BD"/>
<stop offset="1" stop-color="#3940AB"/>
</linearGradient>
<clipPath id="clip0_574_2989">
<rect width="48" height="48" fill="white"/>
</clipPath>
<clipPath id="clip1_574_2989">
<rect width="48" height="44.6512" fill="white" transform="translate(0 1.6748)"/>
</clipPath>
</defs>
</svg>
