<svg width="48" height="48" viewBox="0 0 48 48" fill="none" xmlns="http://www.w3.org/2000/svg">
<g clip-path="url(#clip0_574_3057)">
<path fill-rule="evenodd" clip-rule="evenodd" d="M30.459 10.6207L22.9773 11.1438L22.4541 3.66211L29.9358 3.13894C36.9603 2.64774 43.053 7.94401 43.5442 14.9685L44.0673 22.4502C44.2118 24.5162 42.6541 26.3082 40.5881 26.4527C38.522 26.5971 36.7301 25.0394 36.5856 22.9734L36.0624 15.4917C35.8602 12.5992 33.3514 10.4184 30.459 10.6207Z" fill="#089949"/>
<path fill-rule="evenodd" clip-rule="evenodd" d="M3.1394 17.7951C2.6482 10.7706 7.94447 4.67798 14.9689 4.18678L22.4507 3.6636C24.5167 3.51913 26.3087 5.07686 26.4531 7.14288C26.5976 9.2089 25.0399 11.0009 22.9738 11.1453L15.4921 11.6685C12.5997 11.8708 10.4189 14.3795 10.6211 17.2719L11.1443 24.7537L3.66257 25.2768L3.1394 17.7951Z" fill="#E42527"/>
<path fill-rule="evenodd" clip-rule="evenodd" d="M7.1393 21.2736C9.20533 21.1291 10.9973 22.6868 11.1418 24.7528L11.6649 32.2346C11.8672 35.127 14.3759 37.3078 17.2684 37.1056L24.7501 36.5824L25.2733 44.0641L17.7915 44.5873C10.7671 45.0785 4.6744 39.7822 4.1832 32.7578L3.66002 25.276C3.51555 23.21 5.07328 21.418 7.1393 21.2736Z" fill="#F9B21D"/>
<path fill-rule="evenodd" clip-rule="evenodd" d="M37.1051 30.4557L36.5819 22.974L44.0636 22.4508L44.5868 29.9326C45.078 36.9571 39.7817 43.0497 32.7572 43.5409L25.2755 44.0641C23.2095 44.2086 21.4175 42.6508 21.2731 40.5848C21.1286 38.5188 22.6863 36.7268 24.7523 36.5824L32.2341 36.0592C35.1265 35.8569 37.3073 33.3482 37.1051 30.4557Z" fill="#226DB4"/>
<path fill-rule="evenodd" clip-rule="evenodd" d="M30.455 10.6219L28.7302 10.7425L28.207 3.26074L29.9318 3.14013C36.9563 2.64894 43.0489 7.9452 43.5401 14.9697L44.0633 22.4514C44.2078 24.5174 42.6501 26.3094 40.584 26.4539C38.518 26.5983 36.7261 25.0406 36.5816 22.9746L36.0584 15.4929C35.8561 12.6004 33.3474 10.4196 30.455 10.6219Z" fill="#089949"/>
</g>
<defs>
<clipPath id="clip0_574_3057">
<rect width="48" height="48" fill="white"/>
</clipPath>
</defs>
</svg>
