<svg width="127" height="40" viewBox="0 0 127 40" fill="none" xmlns="http://www.w3.org/2000/svg">
<path d="M21.1567 28.8884C20.5432 28.8884 20.0455 28.3906 20.0455 27.7771V22.2667C20.0455 17.3525 16.0483 13.3553 11.134 13.3553C10.3587 13.3553 9.60708 13.4549 8.88904 13.6415V27.7771C8.88904 28.3906 8.39126 28.8884 7.77775 28.8884H1.11129C0.497776 28.8884 0 28.3906 0 27.7771V22.2667C0 17.7158 2.74524 13.7934 6.66647 12.0686V2.22257H2.22257V12.249C2.22257 12.8625 1.72479 13.3603 1.11129 13.3603C0.497776 13.3603 0 12.8613 0 12.2478V1.11128C0 0.497776 0.497776 0 1.11129 0H7.77775C8.39126 0 8.88904 0.497776 8.88904 1.11128V11.3617C9.61455 11.2124 10.3649 11.134 11.134 11.134C17.2728 11.134 22.268 16.1292 22.268 22.268V27.7784C22.268 28.3919 21.7702 28.8884 21.1567 28.8884ZM2.22257 26.6671H6.66647V14.5599C4.01083 16.1043 2.22257 18.9814 2.22257 22.2692V26.6671Z" fill="black"/>
<path d="M46.6673 28.8884H42.2234C41.6099 28.8884 41.1121 28.3906 41.1121 27.7771V23.3332C41.1121 22.7197 41.6099 22.222 42.2234 22.222C42.8369 22.222 43.3347 22.7197 43.3347 23.3332V26.6671H45.5573V17.7781C45.5573 12.8762 41.5701 8.88907 36.6682 8.88907C31.7664 8.88907 27.7792 12.8762 27.7792 17.7781C27.7792 22.6799 31.7664 26.6671 36.6682 26.6671H37.7795C38.393 26.6671 38.8908 27.1649 38.8908 27.7784C38.8908 28.3919 38.393 28.8897 37.7795 28.8897H36.6682C30.5419 28.8897 25.5566 23.9057 25.5566 17.7781C25.5566 11.6517 30.5406 6.6665 36.6682 6.6665C42.7959 6.6665 47.7799 11.6505 47.7799 17.7781V27.7784C47.7786 28.3919 47.2808 28.8884 46.6673 28.8884Z" fill="black"/>
<path d="M60.0005 28.8884H53.334C52.7205 28.8884 52.2227 28.3906 52.2227 27.7771V11.1116C52.2227 10.4981 52.7205 10.0003 53.334 10.0003C53.9475 10.0003 54.4453 10.4981 54.4453 11.1116V26.6671H58.8892V11.1116C58.8892 9.88582 57.8924 8.88903 56.6666 8.88903C54.2163 8.88903 52.2227 6.89544 52.2227 4.44514C52.2227 1.99484 54.2163 0 56.6678 0C59.1194 0 61.1118 1.99359 61.1118 4.44389C61.1118 5.0574 60.614 5.55518 60.0005 5.55518C59.387 5.55518 58.8892 5.0574 58.8892 4.44389C58.8892 3.21812 57.8924 2.22132 56.6666 2.22132C55.4408 2.22132 54.444 3.21812 54.444 4.44389C54.444 5.66966 55.4408 6.66646 56.6666 6.66646C59.1169 6.66646 61.1105 8.66005 61.1105 11.1104V27.7771C61.1117 28.3919 60.614 28.8884 60.0005 28.8884Z" fill="black"/>
<path d="M73.3343 28.8884C69.046 28.8884 65.5566 25.399 65.5566 21.1107V1.11128C65.5566 0.497776 66.0544 0 66.6679 0H73.3343C73.9478 0 74.4456 0.497776 74.4456 1.11128V21.1107C74.4456 21.7242 73.9478 22.222 73.3343 22.222C72.7208 22.222 72.223 21.7242 72.223 21.1107V2.22257H67.7792V21.1119C67.7792 24.1757 70.2718 26.6671 73.3343 26.6671C73.9478 26.6671 74.4456 27.1649 74.4456 27.7784C74.4456 28.3919 73.9478 28.8884 73.3343 28.8884Z" fill="black"/>
<path d="M89.9983 28.8882C83.8719 28.8882 78.8867 23.9042 78.8867 17.7766C78.8867 11.6502 83.8707 6.66504 89.9983 6.66504C96.1259 6.66504 101.11 11.649 101.11 17.7766C101.11 18.3901 100.612 18.8879 99.9986 18.8879H84.4431C83.8296 18.8879 83.3318 18.3901 83.3318 17.7766C83.3318 14.1005 86.3222 11.1102 89.9983 11.1102C92.1151 11.1102 94.0589 12.0821 95.3307 13.7757C95.6991 14.2661 95.6008 14.9629 95.1092 15.3313C94.6189 15.6996 93.922 15.6013 93.5537 15.1098C92.705 13.9798 91.4083 13.3315 89.9971 13.3315C87.9301 13.3315 86.1878 14.7501 85.6938 16.6653H98.8177C98.2689 12.2862 94.5231 8.88761 89.9983 8.88761C85.0965 8.88761 81.1093 12.8748 81.1093 17.7766C81.1093 22.6785 85.0965 26.6656 89.9983 26.6656C93.3969 26.6656 96.4495 24.7729 97.964 21.7265C98.2365 21.1764 98.9035 20.9524 99.4536 21.2262C100.004 21.4987 100.228 22.1658 99.9538 22.7158C98.0623 26.5238 94.2468 28.8882 89.9983 28.8882Z" fill="black"/>
<path d="M111.111 40C110.498 40 110 39.5022 110 38.8887C110 38.2752 110.498 37.7775 111.111 37.7775C114.787 37.7775 117.778 34.787 117.778 31.111V28.6656C117.06 28.8125 116.317 28.8884 115.555 28.8884C109.429 28.8884 104.443 23.9044 104.443 17.7768V12.2216C104.443 11.6081 104.941 11.1103 105.555 11.1103H112.221C112.835 11.1103 113.332 11.6081 113.332 12.2216C113.332 12.8351 112.835 13.3329 112.221 13.3329H106.666V17.7768C106.666 22.6786 110.653 26.6658 115.555 26.6658C116.322 26.6658 117.067 26.5675 117.778 26.3846V12.1967C117.778 11.5832 118.275 11.0854 118.889 11.0854H125.555C126.169 11.0854 126.667 11.5832 126.667 12.1967V17.778C126.667 22.3252 123.921 26.244 120 27.9613V31.111C120 36.0128 116.012 40 111.111 40ZM120 13.3068V25.4737C122.655 23.9343 124.444 21.0609 124.444 17.778V13.308H120V13.3068Z" fill="black"/>
</svg>
