<svg width="262" height="366" viewBox="0 0 262 366" fill="none" xmlns="http://www.w3.org/2000/svg">
<rect width="262.001" height="365.197" rx="8" fill="#121212"/>
<path d="M49.1281 305.24C48.1217 305.24 47.5162 304.585 47.3853 303.816H48.1544C48.2362 304.241 48.5226 304.626 49.1199 304.626C49.8972 304.626 50.4454 303.865 50.4864 302.245C50.2409 302.76 49.7745 303.104 49.0872 303.104C47.9744 303.104 47.3035 302.212 47.3035 301.173C47.3035 300.158 47.9744 299.201 49.2263 299.201C50.4945 299.201 51.2555 300.207 51.2555 301.901C51.2555 303.759 50.6091 305.24 49.1281 305.24ZM49.2263 302.507C49.9381 302.507 50.4373 301.934 50.4373 301.165C50.4373 300.437 49.9545 299.823 49.2345 299.823C48.4981 299.823 48.0644 300.412 48.0644 301.165C48.0644 301.934 48.4981 302.507 49.2263 302.507ZM53.9905 305.231C52.8532 305.231 52.1414 304.601 52.0186 303.579H52.8123C52.9023 304.225 53.3196 304.61 53.9742 304.61C54.7188 304.61 55.1279 304.02 55.1279 303.243C55.1279 302.474 54.7269 301.967 53.9905 301.967C53.5732 301.967 53.205 302.163 52.9514 302.474L52.2723 302.392L52.5423 299.291H55.6352V299.921H53.1887L53.0169 301.836C53.2623 301.566 53.6305 301.369 54.146 301.369C55.2342 301.369 55.9052 302.122 55.9052 303.21C55.9052 304.307 55.1852 305.231 53.9905 305.231Z" fill="white"/>
<path d="M66.9639 305.24C65.9574 305.24 65.352 304.585 65.221 303.816H65.9902C66.072 304.241 66.3584 304.626 66.9557 304.626C67.733 304.626 68.2812 303.865 68.3221 302.245C68.0766 302.76 67.6103 303.104 66.9229 303.104C65.8102 303.104 65.1392 302.212 65.1392 301.173C65.1392 300.158 65.8102 299.201 67.062 299.201C68.3303 299.201 69.0912 300.207 69.0912 301.901C69.0912 303.759 68.4448 305.24 66.9639 305.24ZM67.062 302.507C67.7739 302.507 68.273 301.934 68.273 301.165C68.273 300.437 67.7903 299.823 67.0702 299.823C66.3338 299.823 65.9002 300.412 65.9002 301.165C65.9002 301.934 66.3338 302.507 67.062 302.507ZM71.9409 305.231C70.6726 305.231 69.9116 304.225 69.9116 302.531C69.9116 300.674 70.558 299.193 72.039 299.193C73.0455 299.193 73.6509 299.847 73.7819 300.617H73.0127C72.9309 300.191 72.6445 299.807 72.0472 299.807C71.2699 299.807 70.7135 300.576 70.6808 302.188C70.9263 301.672 71.3926 301.328 72.0718 301.328C73.1927 301.328 73.8637 302.22 73.8637 303.259C73.8637 304.274 73.1927 305.231 71.9409 305.231ZM71.9327 304.61C72.6691 304.61 73.1027 304.02 73.1027 303.268C73.1027 302.499 72.6691 301.926 71.9409 301.926C71.229 301.926 70.7299 302.499 70.7299 303.268C70.7299 303.996 71.2126 304.61 71.9327 304.61Z" fill="white"/>
<path d="M85.0913 305.24C84.0848 305.24 83.4794 304.585 83.3484 303.816H84.1176C84.1994 304.241 84.4858 304.626 85.0831 304.626C85.8604 304.626 86.4086 303.865 86.4495 302.245C86.2041 302.76 85.7377 303.104 85.0504 303.104C83.9376 303.104 83.2666 302.212 83.2666 301.173C83.2666 300.158 83.9376 299.201 85.1895 299.201C86.4577 299.201 87.2187 300.207 87.2187 301.901C87.2187 303.759 86.5723 305.24 85.0913 305.24ZM85.1895 302.507C85.9013 302.507 86.4004 301.934 86.4004 301.165C86.4004 300.437 85.9177 299.823 85.1976 299.823C84.4612 299.823 84.0276 300.412 84.0276 301.165C84.0276 301.934 84.4612 302.507 85.1895 302.507ZM88.6695 305.1C88.8822 303.251 89.8395 301.255 90.7969 299.921H87.8676V299.291H91.6478V299.856C90.6823 301.124 89.7577 303.145 89.5204 305.1H88.6695Z" fill="white"/>
<path d="M102.728 305.24C101.722 305.24 101.116 304.585 100.985 303.816H101.755C101.836 304.241 102.123 304.626 102.72 304.626C103.497 304.626 104.046 303.865 104.086 302.245C103.841 302.76 103.375 303.104 102.687 303.104C101.575 303.104 100.904 302.212 100.904 301.173C100.904 300.158 101.575 299.201 102.826 299.201C104.095 299.201 104.856 300.207 104.856 301.901C104.856 303.759 104.209 305.24 102.728 305.24ZM102.826 302.507C103.538 302.507 104.037 301.934 104.037 301.165C104.037 300.437 103.555 299.823 102.835 299.823C102.098 299.823 101.665 300.412 101.665 301.165C101.665 301.934 102.098 302.507 102.826 302.507ZM107.623 305.231C106.331 305.231 105.578 304.479 105.578 303.505C105.578 302.777 106.003 302.228 106.691 301.983C106.175 301.762 105.831 301.328 105.831 300.723C105.831 299.823 106.584 299.168 107.623 299.168C108.671 299.168 109.415 299.823 109.415 300.723C109.415 301.328 109.072 301.762 108.556 301.983C109.235 302.228 109.661 302.777 109.661 303.505C109.661 304.479 108.908 305.231 107.623 305.231ZM107.615 304.61C108.401 304.61 108.875 304.119 108.875 303.464C108.875 302.793 108.401 302.286 107.615 302.286C106.846 302.286 106.363 302.793 106.363 303.464C106.363 304.119 106.838 304.61 107.615 304.61ZM107.623 301.705C108.245 301.705 108.679 301.288 108.679 300.723C108.679 300.183 108.262 299.766 107.623 299.766C106.985 299.766 106.568 300.183 106.568 300.723C106.568 301.288 107.002 301.705 107.623 301.705Z" fill="white"/>
<path d="M120.628 305.24C119.622 305.24 119.016 304.585 118.885 303.816H119.654C119.736 304.241 120.022 304.626 120.62 304.626C121.397 304.626 121.945 303.865 121.986 302.245C121.741 302.76 121.274 303.104 120.587 303.104C119.474 303.104 118.803 302.212 118.803 301.173C118.803 300.158 119.474 299.201 120.726 299.201C121.994 299.201 122.755 300.207 122.755 301.901C122.755 303.759 122.109 305.24 120.628 305.24ZM120.726 302.507C121.438 302.507 121.937 301.934 121.937 301.165C121.937 300.437 121.454 299.823 120.734 299.823C119.998 299.823 119.564 300.412 119.564 301.165C119.564 301.934 119.998 302.507 120.726 302.507ZM125.31 305.24C124.304 305.24 123.698 304.585 123.568 303.816H124.337C124.418 304.241 124.705 304.626 125.302 304.626C126.079 304.626 126.628 303.865 126.669 302.245C126.423 302.76 125.957 303.104 125.269 303.104C124.157 303.104 123.486 302.212 123.486 301.173C123.486 300.158 124.157 299.201 125.409 299.201C126.677 299.201 127.438 300.207 127.438 301.901C127.438 303.759 126.791 305.24 125.31 305.24ZM125.409 302.507C126.12 302.507 126.62 301.934 126.62 301.165C126.62 300.437 126.137 299.823 125.417 299.823C124.68 299.823 124.247 300.412 124.247 301.165C124.247 301.934 124.68 302.507 125.409 302.507Z" fill="white"/>
<path d="M138.673 305.231C137.2 305.231 136.636 303.84 136.636 302.204C136.636 300.543 137.225 299.176 138.673 299.176C140.129 299.176 140.71 300.559 140.71 302.204C140.71 303.889 140.121 305.231 138.673 305.231ZM138.673 304.61C139.622 304.61 139.925 303.529 139.925 302.204C139.925 300.878 139.606 299.798 138.673 299.798C137.74 299.798 137.429 300.887 137.429 302.204C137.429 303.521 137.74 304.61 138.673 304.61ZM143.435 305.231C141.963 305.231 141.398 303.84 141.398 302.204C141.398 300.543 141.987 299.176 143.435 299.176C144.892 299.176 145.473 300.559 145.473 302.204C145.473 303.889 144.884 305.231 143.435 305.231ZM143.435 304.61C144.384 304.61 144.687 303.529 144.687 302.204C144.687 300.878 144.368 299.798 143.435 299.798C142.503 299.798 142.192 300.887 142.192 302.204C142.192 303.521 142.503 304.61 143.435 304.61Z" fill="white"/>
<path d="M157.308 305.231C155.835 305.231 155.27 303.84 155.27 302.204C155.27 300.543 155.86 299.176 157.308 299.176C158.764 299.176 159.345 300.559 159.345 302.204C159.345 303.889 158.756 305.231 157.308 305.231ZM157.308 304.61C158.257 304.61 158.56 303.529 158.56 302.204C158.56 300.878 158.241 299.798 157.308 299.798C156.375 299.798 156.064 300.887 156.064 302.204C156.064 303.521 156.375 304.61 157.308 304.61ZM161.203 305.1V300.232L160.115 301.042V300.281L161.391 299.291H161.98V305.1H161.203Z" fill="white"/>
<path d="M174.52 305.231C173.047 305.231 172.483 303.84 172.483 302.204C172.483 300.543 173.072 299.176 174.52 299.176C175.977 299.176 176.558 300.559 176.558 302.204C176.558 303.889 175.969 305.231 174.52 305.231ZM174.52 304.61C175.469 304.61 175.772 303.529 175.772 302.204C175.772 300.878 175.453 299.798 174.52 299.798C173.588 299.798 173.277 300.887 173.277 302.204C173.277 303.521 173.588 304.61 174.52 304.61ZM177.368 305.1V304.503L178.955 302.973C179.692 302.261 180.33 301.59 180.33 300.854C180.33 300.191 179.88 299.798 179.283 299.798C178.571 299.798 178.145 300.347 178.121 300.944H177.335C177.376 300.019 178.104 299.176 179.274 299.176C180.453 299.176 181.107 299.929 181.107 300.846C181.107 301.86 180.322 302.646 179.446 303.48L178.415 304.47H181.189V305.1H177.368Z" fill="white"/>
<path d="M192.449 305.231C190.976 305.231 190.412 303.84 190.412 302.204C190.412 300.543 191.001 299.176 192.449 299.176C193.905 299.176 194.486 300.559 194.486 302.204C194.486 303.889 193.897 305.231 192.449 305.231ZM192.449 304.61C193.398 304.61 193.701 303.529 193.701 302.204C193.701 300.878 193.382 299.798 192.449 299.798C191.516 299.798 191.205 300.887 191.205 302.204C191.205 303.521 191.516 304.61 192.449 304.61ZM197.138 305.231C196.017 305.231 195.272 304.593 195.174 303.579H195.976C196.033 304.176 196.467 304.61 197.138 304.61C197.833 304.61 198.291 304.061 198.291 303.349C198.291 302.629 197.858 302.155 197.154 302.155C196.835 302.155 196.614 302.278 196.475 302.392L196.082 301.909L197.939 299.921H195.428V299.291H198.799V299.921L197.244 301.59C198.275 301.517 199.069 302.196 199.069 303.309C199.069 304.241 198.43 305.231 197.138 305.231Z" fill="white"/>
<path d="M210.241 305.231C208.768 305.231 208.203 303.84 208.203 302.204C208.203 300.543 208.792 299.176 210.241 299.176C211.697 299.176 212.278 300.559 212.278 302.204C212.278 303.889 211.689 305.231 210.241 305.231ZM210.241 304.61C211.19 304.61 211.493 303.529 211.493 302.204C211.493 300.878 211.174 299.798 210.241 299.798C209.308 299.798 208.997 300.887 208.997 302.204C208.997 303.521 209.308 304.61 210.241 304.61ZM215.641 305.1V303.742H212.917V303.129L215.24 299.291H216.402V303.12H217.196V303.742H216.402V305.1H215.641ZM213.678 303.12H215.641V299.872L213.678 303.12Z" fill="white"/>
<path d="M228.204 305.231C226.732 305.231 226.167 303.84 226.167 302.204C226.167 300.543 226.756 299.176 228.204 299.176C229.661 299.176 230.242 300.559 230.242 302.204C230.242 303.889 229.653 305.231 228.204 305.231ZM228.204 304.61C229.153 304.61 229.456 303.529 229.456 302.204C229.456 300.878 229.137 299.798 228.204 299.798C227.272 299.798 226.961 300.887 226.961 302.204C226.961 303.521 227.272 304.61 228.204 304.61ZM232.909 305.231C231.772 305.231 231.06 304.601 230.937 303.579H231.731C231.821 304.225 232.238 304.61 232.893 304.61C233.638 304.61 234.047 304.02 234.047 303.243C234.047 302.474 233.646 301.967 232.909 301.967C232.492 301.967 232.124 302.163 231.87 302.474L231.191 302.392L231.461 299.291H234.554V299.921H232.108L231.936 301.836C232.181 301.566 232.549 301.369 233.065 301.369C234.153 301.369 234.824 302.122 234.824 303.21C234.824 304.307 234.104 305.231 232.909 305.231Z" fill="white"/>
<path d="M30.7315 166.395C30.7315 167.532 30.1015 168.244 29.0787 168.367L29.0787 167.573C29.7251 167.483 30.1096 167.066 30.1096 166.411C30.1096 165.666 29.5205 165.257 28.7432 165.257C27.9741 165.257 27.4668 165.658 27.4668 166.395C27.4668 166.812 27.6632 167.18 27.9741 167.434L27.8923 168.113L24.7912 167.843L24.7912 164.75L25.4212 164.75L25.4212 167.196L27.3359 167.368C27.0658 167.123 26.8695 166.755 26.8695 166.239C26.8695 165.151 27.6222 164.48 28.7105 164.48C29.8069 164.48 30.7315 165.2 30.7315 166.395ZM30.7315 161.759C30.7315 163.232 29.3405 163.796 27.7041 163.796C26.0431 163.796 24.6766 163.207 24.6766 161.759C24.6766 160.302 26.0594 159.721 27.7041 159.721C29.3896 159.721 30.7315 160.311 30.7315 161.759ZM30.1096 161.759C30.1096 160.81 29.0296 160.507 27.7041 160.507C26.3785 160.507 25.2985 160.826 25.2985 161.759C25.2985 162.692 26.3867 163.002 27.7041 163.002C29.0214 163.002 30.1096 162.692 30.1096 161.759ZM30.6006 158.412L24.7912 154.493L24.7912 153.83L30.6006 157.757L30.6006 158.412ZM30.707 154.607C30.707 155.335 30.1833 155.892 29.3978 155.892C28.6205 155.892 28.0968 155.335 28.0968 154.607C28.0968 153.887 28.6205 153.331 29.3978 153.331C30.1833 153.331 30.707 153.887 30.707 154.607ZM30.216 154.615C30.216 154.165 29.8724 153.895 29.3978 153.895C28.9314 153.895 28.5714 154.165 28.5714 154.615C28.5714 155.049 28.9314 155.327 29.3978 155.327C29.8724 155.327 30.216 155.049 30.216 154.615ZM27.3113 157.643C27.3113 158.371 26.7876 158.927 26.0021 158.927C25.2248 158.927 24.7012 158.371 24.7012 157.643C24.7012 156.923 25.2248 156.366 26.0021 156.366C26.7876 156.366 27.3113 156.923 27.3113 157.643ZM26.8204 157.651C26.8204 157.201 26.4767 156.931 26.0021 156.931C25.5358 156.931 25.1757 157.201 25.1757 157.651C25.1757 158.085 25.5358 158.363 26.0021 158.363C26.4767 158.363 26.8204 158.085 26.8204 157.651Z" fill="white"/>
<path d="M30.6006 103.323C28.7514 103.11 26.7549 102.153 25.4212 101.195L25.4212 104.124L24.7912 104.124L24.7912 100.344L25.3557 100.344C26.624 101.31 28.645 102.234 30.6006 102.472L30.6006 103.323ZM30.7315 97.8434C30.7315 98.9807 30.1015 99.6926 29.0787 99.8153L29.0787 99.0216C29.7251 98.9316 30.1096 98.5143 30.1096 97.8597C30.1096 97.1151 29.5205 96.706 28.7432 96.706C27.9741 96.706 27.4668 97.107 27.4668 97.8434C27.4668 98.2607 27.6632 98.6289 27.9741 98.8825L27.8923 99.5616L24.7912 99.2916L24.7912 96.1987L25.4212 96.1987L25.4212 98.6452L27.3359 98.8171C27.0658 98.5716 26.8695 98.2034 26.8695 97.6879C26.8695 96.5997 27.6222 95.9287 28.7105 95.9287C29.8069 95.9287 30.7315 96.6488 30.7315 97.8434ZM30.6006 94.6231L24.7912 90.7038L24.7912 90.041L30.6006 93.9685L30.6006 94.6231ZM30.707 90.8183C30.707 91.5465 30.1833 92.1029 29.3978 92.1029C28.6205 92.1029 28.0968 91.5465 28.0968 90.8183C28.0968 90.0983 28.6205 89.5419 29.3978 89.5419C30.1833 89.5419 30.707 90.0983 30.707 90.8183ZM30.216 90.8265C30.216 90.3765 29.8724 90.1065 29.3978 90.1065C28.9314 90.1065 28.5714 90.3765 28.5714 90.8265C28.5714 91.2602 28.9314 91.5384 29.3978 91.5384C29.8724 91.5384 30.216 91.2602 30.216 90.8265ZM27.3113 93.8539C27.3113 94.5822 26.7876 95.1386 26.0021 95.1386C25.2248 95.1386 24.7012 94.5822 24.7012 93.8539C24.7012 93.1339 25.2248 92.5775 26.0021 92.5775C26.7876 92.5775 27.3113 93.1339 27.3113 93.8539ZM26.8204 93.8621C26.8204 93.4121 26.4767 93.1421 26.0021 93.1421C25.5358 93.1421 25.1757 93.4121 25.1757 93.8621C25.1757 94.2958 25.5358 94.574 26.0021 94.574C26.4767 94.574 26.8204 94.2958 26.8204 93.8621Z" fill="white"/>
<line x1="43.042" y1="289.595" x2="239.999" y2="289.595" stroke="white" stroke-width="0.584448"/>
<line y1="-0.292224" x2="196.767" y2="-0.292224" transform="matrix(1 3.96088e-09 -1.92956e-06 1 43.1289 96.0063)" stroke="white" stroke-opacity="0.2" stroke-width="0.584448" stroke-dasharray="0.92 0.92"/>
<line y1="-0.292224" x2="196.767" y2="-0.292224" transform="matrix(1 3.96088e-09 -1.92956e-06 1 43.1289 225.141)" stroke="white" stroke-opacity="0.2" stroke-width="0.584448" stroke-dasharray="0.92 0.92"/>
<line y1="-0.292224" x2="196.767" y2="-0.292224" transform="matrix(1 3.96088e-09 -1.92956e-06 1 43.1289 160.62)" stroke="white" stroke-opacity="0.2" stroke-width="0.584448" stroke-dasharray="0.92 0.92"/>
<line x1="51.7586" y1="288.519" x2="51.7585" y2="32.9481" stroke="white" stroke-opacity="0.2" stroke-width="0.584448" stroke-dasharray="0.92 0.92"/>
<line x1="69.6062" y1="288.519" x2="69.6062" y2="32.9481" stroke="white" stroke-opacity="0.2" stroke-width="0.584448" stroke-dasharray="0.92 0.92"/>
<line x1="87.4529" y1="288.519" x2="87.4529" y2="32.9481" stroke="white" stroke-opacity="0.2" stroke-width="0.584448" stroke-dasharray="0.92 0.92"/>
<line x1="105.3" y1="288.519" x2="105.3" y2="32.9481" stroke="white" stroke-opacity="0.2" stroke-width="0.584448" stroke-dasharray="0.92 0.92"/>
<line x1="123.145" y1="288.519" x2="123.145" y2="32.9481" stroke="white" stroke-opacity="0.2" stroke-width="0.584448" stroke-dasharray="0.92 0.92"/>
<line x1="140.992" y1="288.519" x2="140.992" y2="32.9481" stroke="white" stroke-opacity="0.2" stroke-width="0.584448" stroke-dasharray="0.92 0.92"/>
<line x1="158.838" y1="288.519" x2="158.838" y2="32.9481" stroke="white" stroke-opacity="0.2" stroke-width="0.584448" stroke-dasharray="0.92 0.92"/>
<line x1="176.684" y1="288.519" x2="176.684" y2="32.9481" stroke="white" stroke-opacity="0.2" stroke-width="0.584448" stroke-dasharray="0.92 0.92"/>
<line x1="194.674" y1="288.519" x2="194.674" y2="32.9481" stroke="white" stroke-opacity="0.2" stroke-width="0.584448" stroke-dasharray="0.92 0.92"/>
<line x1="212.377" y1="288.519" x2="212.377" y2="32.9481" stroke="white" stroke-opacity="0.2" stroke-width="0.584448" stroke-dasharray="0.92 0.92"/>
<line x1="230.367" y1="288.519" x2="230.367" y2="32.9481" stroke="white" stroke-opacity="0.2" stroke-width="0.584448" stroke-dasharray="0.92 0.92"/>
<circle cx="51.8084" cy="225.598" r="3.50665" fill="#CDFE00"/>
<circle cx="51.2234" cy="219.754" r="3.50665" fill="#FF8CFD"/>
<circle cx="69.3406" cy="210.402" r="3.50665" fill="#FF8CFD"/>
<circle cx="88.0438" cy="198.714" r="3.50665" fill="#FF8CFD"/>
<circle cx="123.696" cy="181.765" r="3.50665" fill="#FF8CFD"/>
<circle cx="105.578" cy="189.947" r="3.50665" fill="#FF8CFD"/>
<circle cx="213.115" cy="129.164" r="3.50665" fill="#FF8CFD"/>
<circle cx="230.063" cy="121.566" r="3.50665" fill="#FF8CFD"/>
<circle cx="159.347" cy="160.724" r="3.50665" fill="#FF8CFD"/>
<circle cx="141.812" cy="170.66" r="3.50665" fill="#FF8CFD"/>
<circle cx="176.881" cy="148.451" r="3.50665" fill="#FF8CFD"/>
<circle cx="194.998" cy="137.346" r="3.50665" fill="#FF8CFD"/>
<circle cx="105.578" cy="187.024" r="3.50665" fill="#0057F3"/>
<circle cx="123.696" cy="172.413" r="3.50665" fill="#EF029F"/>
<circle cx="141.228" cy="158.386" r="3.50665" fill="#EF029F"/>
<circle cx="158.763" cy="144.944" r="3.50665" fill="#EF029F"/>
<circle cx="176.881" cy="137.931" r="3.50665" fill="#EF029F"/>
<circle cx="195.582" cy="130.917" r="3.50665" fill="#EF029F"/>
<circle cx="212.532" cy="123.904" r="3.50665" fill="#EF029F"/>
<circle cx="230.063" cy="117.475" r="3.50665" fill="#EF029F"/>
<circle cx="69.9266" cy="219.754" r="3.50665" fill="#CDFE00"/>
<circle cx="88.0438" cy="212.74" r="3.50665" fill="#CDFE00"/>
<circle cx="105.578" cy="187.024" r="3.50665" fill="#CDFE00"/>
<circle cx="123.696" cy="149.035" r="3.50665" fill="#CDFE00"/>
<circle cx="141.812" cy="130.917" r="3.50665" fill="#CDFE00"/>
<circle cx="159.347" cy="123.32" r="3.50665" fill="#CDFE00"/>
<circle cx="176.881" cy="115.137" r="3.50665" fill="#CDFE00"/>
<circle cx="194.998" cy="101.111" r="3.50665" fill="#CDFE00"/>
<circle cx="212.532" cy="97.6039" r="3.50665" fill="#CDFE00"/>
<circle cx="230.649" cy="87.0839" r="3.50665" fill="#CDFE00"/>
<circle cx="88.0438" cy="195.791" r="3.50665" fill="#EF029F"/>
<circle cx="69.3406" cy="208.649" r="3.50665" fill="#EF029F"/>
<circle cx="51.2234" cy="218.585" r="3.50665" fill="#EF029F"/>
<path d="M51.6811 225.875L70.1258 219.878L87.7433 212.785L105.475 186.702L123.321 148.722L141.511 130.991L159.243 123.097L176.632 115.089L194.821 101.132L212.782 97.4714L230.373 86.7656" stroke="#CDFE00" stroke-width="0.457602"/>
<line x1="87.5163" y1="289.206" x2="87.5163" y2="32.7307" stroke="white" stroke-width="0.457602"/>
<path d="M95.1413 38.5884C93.9712 38.5884 93.0466 38.0075 92.8911 36.9929H93.7094C93.8812 37.6229 94.5031 37.942 95.1576 37.942C95.9268 37.942 96.5077 37.5411 96.5077 36.8702C96.5077 36.1665 95.9677 35.9701 94.9858 35.7574C93.5294 35.4464 93.063 34.9882 93.063 34.1455C93.063 33.2127 93.8812 32.5172 95.0431 32.5172C96.0495 32.5172 96.925 33.0409 97.0805 33.9327H96.2704C96.1231 33.4582 95.6322 33.1554 95.0267 33.1554C94.2821 33.1554 93.8485 33.5727 93.8485 34.0882C93.8485 34.6773 94.3149 34.8819 95.3458 35.0946C96.7532 35.381 97.2932 35.8637 97.2932 36.8047C97.2932 37.8848 96.3932 38.5884 95.1413 38.5884ZM99.5156 38.4902C98.5828 38.4902 98.3455 38.0402 98.3455 37.3856V34.7755H97.6664V34.2273H98.3455V32.8199H99.1147V34.2273H99.9411V34.7755H99.1147V37.3775C99.1147 37.6802 99.221 37.8602 99.6629 37.8602C99.7611 37.8602 99.8511 37.852 99.9411 37.8357V38.4575C99.8429 38.4739 99.6956 38.4902 99.5156 38.4902ZM102.061 38.5803C101.275 38.5803 100.588 38.122 100.588 37.3284C100.588 36.4038 101.349 35.8883 103.362 35.831V35.6101C103.362 34.9719 102.994 34.6609 102.404 34.6609C101.873 34.6609 101.578 34.9473 101.48 35.2828H100.727C100.874 34.62 101.447 34.08 102.404 34.08C103.501 34.08 104.106 34.6773 104.106 35.6101V38.4575H103.403V37.9011C103.149 38.3266 102.674 38.5803 102.061 38.5803ZM102.216 38.0075C102.863 38.0075 103.362 37.6066 103.362 36.9029V36.371C101.905 36.4038 101.333 36.7229 101.333 37.2875C101.333 37.7129 101.717 38.0075 102.216 38.0075ZM105.227 38.4575V34.2273H105.947V34.9719C106.152 34.4728 106.537 34.17 107.109 34.17C107.191 34.17 107.281 34.1782 107.338 34.1946V34.8819C107.273 34.8655 107.208 34.8737 107.126 34.8737C106.406 34.8737 105.997 35.381 105.997 36.2156V38.4575H105.227ZM109.616 38.4902C108.683 38.4902 108.446 38.0402 108.446 37.3856V34.7755H107.766V34.2273H108.446V32.8199H109.215V34.2273H110.041V34.7755H109.215V37.3775C109.215 37.6802 109.321 37.8602 109.763 37.8602C109.861 37.8602 109.951 37.852 110.041 37.8357V38.4575C109.943 38.4739 109.796 38.4902 109.616 38.4902ZM114.65 38.5803C113.431 38.5803 112.588 37.6638 112.588 36.3465C112.588 35.0128 113.431 34.0882 114.65 34.0882C115.886 34.0882 116.745 35.021 116.745 36.3465C116.745 37.6557 115.894 38.5803 114.65 38.5803ZM114.65 37.9748C115.46 37.9748 115.96 37.3038 115.96 36.3465C115.96 35.381 115.46 34.6937 114.65 34.6937C113.865 34.6937 113.382 35.381 113.382 36.3465C113.382 37.2956 113.865 37.9748 114.65 37.9748ZM117.77 38.4575V34.7755H117.091V34.2273H117.77V33.7527C117.77 32.9918 118.155 32.5417 118.973 32.5417C119.104 32.5417 119.251 32.5581 119.35 32.5745V33.1881C119.268 33.1718 119.186 33.1636 119.088 33.1636C118.72 33.1636 118.54 33.3518 118.54 33.7691V34.2273H119.325V34.7755H118.54V38.4575H117.77ZM123.391 38.4902C122.458 38.4902 122.221 38.0402 122.221 37.3856V34.7755H121.542V34.2273H122.221V32.8199H122.99V34.2273H123.817V34.7755H122.99V37.3775C122.99 37.6802 123.097 37.8602 123.538 37.8602C123.637 37.8602 123.727 37.852 123.817 37.8357V38.4575C123.718 38.4739 123.571 38.4902 123.391 38.4902ZM124.708 38.4575V32.6481H125.477V34.7428C125.731 34.35 126.148 34.0882 126.746 34.0882C127.711 34.0882 128.235 34.7182 128.235 35.6592V38.4575H127.457V35.8228C127.457 35.0864 127.097 34.71 126.517 34.71C125.927 34.71 125.477 35.2173 125.477 35.831V38.4575H124.708ZM131.159 38.5803C129.874 38.5803 129.097 37.6884 129.097 36.371C129.097 35.0373 129.866 34.0882 131.102 34.0882C132.263 34.0882 133.024 34.931 133.024 36.1583L133.008 36.4774H129.858C129.899 37.312 130.308 37.9748 131.159 37.9748C131.601 37.9748 131.961 37.7702 132.149 37.3529H132.943C132.705 38.0893 132.059 38.5803 131.159 38.5803ZM132.255 35.9128C132.222 35.1846 131.797 34.6773 131.102 34.6773C130.422 34.6773 129.989 35.1437 129.882 35.9128H132.255ZM135.863 38.4575V32.6481H136.632V34.7428C136.886 34.35 137.303 34.0882 137.9 34.0882C138.866 34.0882 139.39 34.7182 139.39 35.6592V38.4575H138.612V35.8228C138.612 35.0864 138.252 34.71 137.671 34.71C137.082 34.71 136.632 35.2173 136.632 35.831V38.4575H135.863ZM142.314 38.5803C141.094 38.5803 140.252 37.6638 140.252 36.3465C140.252 35.0128 141.094 34.0882 142.314 34.0882C143.549 34.0882 144.408 35.021 144.408 36.3465C144.408 37.6557 143.557 38.5803 142.314 38.5803ZM142.314 37.9748C143.124 37.9748 143.623 37.3038 143.623 36.3465C143.623 35.381 143.124 34.6937 142.314 34.6937C141.528 34.6937 141.045 35.381 141.045 36.3465C141.045 37.2956 141.528 37.9748 142.314 37.9748ZM145.308 38.4575V34.2273H146.028V34.8164C146.232 34.4155 146.65 34.0882 147.231 34.0882C147.836 34.0882 148.253 34.3991 148.442 34.841C148.671 34.4237 149.104 34.0882 149.693 34.0882C150.61 34.0882 151.093 34.6773 151.093 35.5855V38.4575H150.323V35.7574C150.323 35.0946 150.053 34.7019 149.513 34.7019C148.941 34.7019 148.572 35.1764 148.572 35.7983V38.4575H147.803V35.7165C147.803 35.1273 147.566 34.7019 146.993 34.7019C146.453 34.7019 146.077 35.1519 146.077 35.8146V38.4575H145.308ZM154.012 38.5803C152.727 38.5803 151.95 37.6884 151.95 36.371C151.95 35.0373 152.719 34.0882 153.954 34.0882C155.116 34.0882 155.877 34.931 155.877 36.1583L155.861 36.4774H152.711C152.752 37.312 153.161 37.9748 154.012 37.9748C154.453 37.9748 154.813 37.7702 155.002 37.3529H155.795C155.558 38.0893 154.912 38.5803 154.012 38.5803ZM155.108 35.9128C155.075 35.1846 154.65 34.6773 153.954 34.6773C153.275 34.6773 152.842 35.1437 152.735 35.9128H155.108ZM158.789 38.4575V32.6481H161.089C162.234 32.6481 163.028 33.2945 163.028 34.3991C163.028 35.5037 162.234 36.1501 161.089 36.1501H159.599V38.4575H158.789ZM161.007 35.5037C161.735 35.5037 162.218 35.1192 162.218 34.3991C162.218 33.6709 161.735 33.2945 161.007 33.2945H159.591V35.5037H161.007ZM166.316 38.5803C164.647 38.5803 163.649 37.2547 163.649 35.5528C163.649 33.8427 164.647 32.5172 166.316 32.5172C167.437 32.5172 168.329 33.1718 168.575 34.1127H167.732C167.495 33.5318 167.012 33.18 166.292 33.18C165.187 33.18 164.467 34.1618 164.467 35.5528C164.467 36.9274 165.187 37.9175 166.292 37.9175C167.036 37.9175 167.519 37.5247 167.756 36.8947H168.607C168.37 37.8766 167.478 38.5803 166.316 38.5803ZM171.357 38.4575V34.2273H172.077V34.9719C172.281 34.4728 172.666 34.17 173.239 34.17C173.321 34.17 173.411 34.1782 173.468 34.1946V34.8819C173.402 34.8655 173.337 34.8737 173.255 34.8737C172.535 34.8737 172.126 35.381 172.126 36.2156V38.4575H171.357ZM175.818 38.5803C174.533 38.5803 173.756 37.6884 173.756 36.371C173.756 35.0373 174.525 34.0882 175.76 34.0882C176.922 34.0882 177.683 34.931 177.683 36.1583L177.667 36.4774H174.517C174.558 37.312 174.967 37.9748 175.818 37.9748C176.26 37.9748 176.62 37.7702 176.808 37.3529H177.601C177.364 38.0893 176.718 38.5803 175.818 38.5803ZM176.914 35.9128C176.881 35.1846 176.456 34.6773 175.76 34.6773C175.081 34.6773 174.648 35.1437 174.541 35.9128H176.914ZM178.802 38.4575V34.7755H178.123V34.2273H178.802V33.7527C178.802 32.9918 179.186 32.5417 180.005 32.5417C180.136 32.5417 180.283 32.5581 180.381 32.5745V33.1881C180.299 33.1718 180.217 33.1636 180.119 33.1636C179.751 33.1636 179.571 33.3518 179.571 33.7691V34.2273H180.356V34.7755H179.571V38.4575H178.802ZM182.825 38.5803C181.606 38.5803 180.763 37.6638 180.763 36.3465C180.763 35.0128 181.606 34.0882 182.825 34.0882C184.061 34.0882 184.92 35.021 184.92 36.3465C184.92 37.6557 184.069 38.5803 182.825 38.5803ZM182.825 37.9748C183.635 37.9748 184.135 37.3038 184.135 36.3465C184.135 35.381 183.635 34.6937 182.825 34.6937C182.04 34.6937 181.557 35.381 181.557 36.3465C181.557 37.2956 182.04 37.9748 182.825 37.9748ZM185.82 38.4575V34.2273H186.54V34.9719C186.744 34.4728 187.129 34.17 187.701 34.17C187.783 34.17 187.873 34.1782 187.931 34.1946V34.8819C187.865 34.8655 187.8 34.8737 187.718 34.8737C186.998 34.8737 186.589 35.381 186.589 36.2156V38.4575H185.82ZM188.664 38.4575V34.2273H189.384V34.8164C189.589 34.4155 190.006 34.0882 190.587 34.0882C191.192 34.0882 191.61 34.3991 191.798 34.841C192.027 34.4237 192.461 34.0882 193.05 34.0882C193.966 34.0882 194.449 34.6773 194.449 35.5855V38.4575H193.68V35.7574C193.68 35.0946 193.41 34.7019 192.87 34.7019C192.297 34.7019 191.929 35.1764 191.929 35.7983V38.4575H191.16V35.7165C191.16 35.1273 190.922 34.7019 190.35 34.7019C189.81 34.7019 189.433 35.1519 189.433 35.8146V38.4575H188.664Z" fill="white"/>
<circle cx="30.1834" cy="329.045" r="3.50665" fill="#CDFE00"/>
<path d="M42.0707 331.676C40.9006 331.676 39.976 331.095 39.8206 330.081H40.6388C40.8106 330.711 41.4325 331.03 42.087 331.03C42.8562 331.03 43.4371 330.629 43.4371 329.958C43.4371 329.254 42.8971 329.058 41.9152 328.845C40.4588 328.534 39.9924 328.076 39.9924 327.233C39.9924 326.3 40.8106 325.605 41.9725 325.605C42.9789 325.605 43.8544 326.129 44.0099 327.02H43.1998C43.0526 326.546 42.5616 326.243 41.9561 326.243C41.2115 326.243 40.7779 326.66 40.7779 327.176C40.7779 327.765 41.2443 327.97 42.2752 328.182C43.6826 328.469 44.2226 328.951 44.2226 329.892C44.2226 330.972 43.3226 331.676 42.0707 331.676ZM45.7351 331.545L44.565 327.315H45.375L46.2424 330.874L47.1751 327.315H47.9034L48.8198 330.899L49.6953 327.315H50.4808L49.3025 331.545H48.3861L47.5188 328.264L46.6678 331.545H45.7351ZM52.9901 331.668C51.7054 331.668 50.9281 330.776 50.9281 329.459C50.9281 328.125 51.6973 327.176 52.9328 327.176C54.0947 327.176 54.8556 328.019 54.8556 329.246L54.8392 329.565H51.6891C51.73 330.4 52.1391 331.062 52.9901 331.062C53.4319 331.062 53.7919 330.858 53.9801 330.441H54.7738C54.5365 331.177 53.8901 331.668 52.9901 331.668ZM54.0865 329C54.0537 328.272 53.6283 327.765 52.9328 327.765C52.2536 327.765 51.82 328.231 51.7136 329H54.0865ZM57.3557 331.66C56.292 331.66 55.5147 330.768 55.5147 329.434C55.5147 328.092 56.2756 327.2 57.3475 327.2C57.9775 327.2 58.4357 327.47 58.7221 327.953V325.736H59.4913V331.545H58.7794V330.833C58.5012 331.373 58.0266 331.66 57.3557 331.66ZM57.503 331.038C58.2148 331.038 58.7548 330.449 58.7548 329.434C58.7548 328.403 58.223 327.798 57.4948 327.798C56.7747 327.798 56.3083 328.469 56.3083 329.434C56.3083 330.383 56.7911 331.038 57.503 331.038ZM62.4508 331.668C61.1662 331.668 60.3889 330.776 60.3889 329.459C60.3889 328.125 61.158 327.176 62.3935 327.176C63.5554 327.176 64.3164 328.019 64.3164 329.246L64.3 329.565H61.1498C61.1907 330.4 61.5998 331.062 62.4508 331.062C62.8926 331.062 63.2527 330.858 63.4409 330.441H64.2345C63.9973 331.177 63.3509 331.668 62.4508 331.668ZM63.5472 329C63.5145 328.272 63.089 327.765 62.3935 327.765C61.7144 327.765 61.2807 328.231 61.1744 329H63.5472ZM65.2373 331.545V327.315H65.9573V327.929C66.2028 327.462 66.6773 327.176 67.2746 327.176C68.2401 327.176 68.7638 327.806 68.7638 328.747V331.545H67.9865V328.91C67.9865 328.174 67.6265 327.798 67.0455 327.798C66.4564 327.798 66.0064 328.305 66.0064 328.919V331.545H65.2373Z" fill="white"/>
<circle cx="90.575" cy="329.045" r="3.50665" fill="#EF029F"/>
<path d="M102.716 331.668C101.3 331.668 100.548 330.915 100.548 329.614V325.736H101.358V329.639C101.358 330.531 101.824 331.013 102.716 331.013C103.608 331.013 104.074 330.531 104.074 329.639V325.736H104.884V329.614C104.884 330.915 104.131 331.668 102.716 331.668ZM106.084 331.545V327.315H106.804V327.929C107.05 327.462 107.524 327.176 108.121 327.176C109.087 327.176 109.611 327.806 109.611 328.747V331.545H108.833V328.91C108.833 328.174 108.473 327.798 107.892 327.798C107.303 327.798 106.853 328.305 106.853 328.919V331.545H106.084ZM110.735 331.545V327.315H111.504V331.545H110.735ZM110.735 326.603V325.752H111.487V326.603H110.735ZM114.092 331.578C113.159 331.578 112.922 331.128 112.922 330.473V327.863H112.243V327.315H112.922V325.908H113.691V327.315H114.517V327.863H113.691V330.465C113.691 330.768 113.797 330.948 114.239 330.948C114.337 330.948 114.427 330.94 114.517 330.923V331.545C114.419 331.562 114.272 331.578 114.092 331.578ZM117.057 331.668C115.773 331.668 114.995 330.776 114.995 329.459C114.995 328.125 115.764 327.176 117 327.176C118.162 327.176 118.923 328.019 118.923 329.246L118.906 329.565H115.756C115.797 330.4 116.206 331.062 117.057 331.062C117.499 331.062 117.859 330.858 118.047 330.441H118.841C118.604 331.177 117.957 331.668 117.057 331.668ZM118.154 329C118.121 328.272 117.696 327.765 117 327.765C116.321 327.765 115.887 328.231 115.781 329H118.154ZM121.423 331.66C120.359 331.66 119.582 330.768 119.582 329.434C119.582 328.092 120.343 327.2 121.415 327.2C122.045 327.2 122.503 327.47 122.789 327.953V325.736H123.558V331.545H122.847V330.833C122.568 331.373 122.094 331.66 121.423 331.66ZM121.57 331.038C122.282 331.038 122.822 330.449 122.822 329.434C122.822 328.403 122.29 327.798 121.562 327.798C120.842 327.798 120.376 328.469 120.376 329.434C120.376 330.383 120.858 331.038 121.57 331.038ZM128.591 331.676C127.421 331.676 126.497 331.095 126.341 330.081H127.159C127.331 330.711 127.953 331.03 128.608 331.03C129.377 331.03 129.958 330.629 129.958 329.958C129.958 329.254 129.418 329.058 128.436 328.845C126.979 328.534 126.513 328.076 126.513 327.233C126.513 326.3 127.331 325.605 128.493 325.605C129.499 325.605 130.375 326.129 130.53 327.02H129.72C129.573 326.546 129.082 326.243 128.477 326.243C127.732 326.243 127.298 326.66 127.298 327.176C127.298 327.765 127.765 327.97 128.796 328.182C130.203 328.469 130.743 328.951 130.743 329.892C130.743 330.972 129.843 331.676 128.591 331.676ZM132.966 331.578C132.033 331.578 131.795 331.128 131.795 330.473V327.863H131.116V327.315H131.795V325.908H132.565V327.315H133.391V327.863H132.565V330.465C132.565 330.768 132.671 330.948 133.113 330.948C133.211 330.948 133.301 330.94 133.391 330.923V331.545C133.293 331.562 133.146 331.578 132.966 331.578ZM135.511 331.668C134.725 331.668 134.038 331.21 134.038 330.416C134.038 329.491 134.799 328.976 136.812 328.919V328.698C136.812 328.06 136.443 327.749 135.854 327.749C135.322 327.749 135.028 328.035 134.93 328.37H134.177C134.324 327.708 134.897 327.168 135.854 327.168C136.951 327.168 137.556 327.765 137.556 328.698V331.545H136.853V330.989C136.599 331.414 136.124 331.668 135.511 331.668ZM135.666 331.095C136.313 331.095 136.812 330.694 136.812 329.991V329.459C135.355 329.491 134.782 329.811 134.782 330.375C134.782 330.801 135.167 331.095 135.666 331.095ZM139.973 331.578C139.04 331.578 138.803 331.128 138.803 330.473V327.863H138.124V327.315H138.803V325.908H139.572V327.315H140.399V327.863H139.572V330.465C139.572 330.768 139.679 330.948 140.12 330.948C140.219 330.948 140.309 330.94 140.399 330.923V331.545C140.3 331.562 140.153 331.578 139.973 331.578ZM142.939 331.668C141.654 331.668 140.877 330.776 140.877 329.459C140.877 328.125 141.646 327.176 142.881 327.176C144.043 327.176 144.804 328.019 144.804 329.246L144.788 329.565H141.638C141.678 330.4 142.088 331.062 142.939 331.062C143.38 331.062 143.74 330.858 143.929 330.441H144.722C144.485 331.177 143.839 331.668 142.939 331.668ZM144.035 329C144.002 328.272 143.577 327.765 142.881 327.765C142.202 327.765 141.768 328.231 141.662 329H144.035ZM147.198 331.66C146.232 331.66 145.529 331.169 145.398 330.432H146.183C146.314 330.841 146.74 331.087 147.214 331.087C147.738 331.087 148.147 330.817 148.147 330.367C148.147 329.917 147.779 329.794 147.026 329.647C145.872 329.426 145.529 329.074 145.529 328.436C145.529 327.749 146.159 327.168 147.108 327.168C147.918 327.168 148.581 327.585 148.728 328.264H147.975C147.852 327.97 147.541 327.749 147.091 327.749C146.568 327.749 146.273 328.027 146.273 328.387C146.273 328.747 146.568 328.902 147.321 329.041C148.482 329.254 148.891 329.614 148.891 330.31C148.891 331.12 148.212 331.66 147.198 331.66Z" fill="white"/>
<circle cx="170.966" cy="329.045" r="3.50665" fill="#FF8CFD"/>
<path d="M183.107 331.668C181.691 331.668 180.938 330.915 180.938 329.614V325.736H181.748V329.639C181.748 330.531 182.215 331.013 183.107 331.013C183.998 331.013 184.465 330.531 184.465 329.639V325.736H185.275V329.614C185.275 330.915 184.522 331.668 183.107 331.668ZM186.475 331.545V327.315H187.195V327.929C187.44 327.462 187.915 327.176 188.512 327.176C189.478 327.176 190.001 327.806 190.001 328.747V331.545H189.224V328.911C189.224 328.174 188.864 327.798 188.283 327.798C187.694 327.798 187.244 328.305 187.244 328.919V331.545H186.475ZM191.125 331.545V327.315H191.894V331.545H191.125ZM191.125 326.603V325.752H191.878V326.603H191.125ZM194.483 331.578C193.55 331.578 193.313 331.128 193.313 330.473V327.863H192.633V327.315H193.313V325.908H194.082V327.315H194.908V327.863H194.082V330.465C194.082 330.768 194.188 330.948 194.63 330.948C194.728 330.948 194.818 330.94 194.908 330.923V331.545C194.81 331.562 194.663 331.578 194.483 331.578ZM197.448 331.668C196.163 331.668 195.386 330.776 195.386 329.459C195.386 328.125 196.155 327.176 197.391 327.176C198.553 327.176 199.313 328.019 199.313 329.246L199.297 329.565H196.147C196.188 330.4 196.597 331.063 197.448 331.063C197.89 331.063 198.25 330.858 198.438 330.441H199.232C198.994 331.177 198.348 331.668 197.448 331.668ZM198.544 329.001C198.512 328.272 198.086 327.765 197.391 327.765C196.712 327.765 196.278 328.231 196.171 329.001H198.544ZM201.814 331.66C200.75 331.66 199.973 330.768 199.973 329.434C199.973 328.092 200.733 327.201 201.805 327.201C202.435 327.201 202.894 327.471 203.18 327.953V325.736H203.949V331.545H203.237V330.833C202.959 331.373 202.484 331.66 201.814 331.66ZM201.961 331.038C202.673 331.038 203.213 330.449 203.213 329.434C203.213 328.403 202.681 327.798 201.953 327.798C201.233 327.798 200.766 328.469 200.766 329.434C200.766 330.383 201.249 331.038 201.961 331.038ZM207.1 331.545V325.736H207.91V328.428L210.422 325.736H211.379L208.785 328.485L211.404 331.545H210.414L207.91 328.624V331.545H207.1ZM212.108 331.545V327.315H212.877V331.545H212.108ZM212.108 326.603V325.752H212.861V326.603H212.108ZM214.042 331.545V327.315H214.762V327.929C215.007 327.462 215.482 327.176 216.079 327.176C217.045 327.176 217.568 327.806 217.568 328.747V331.545H216.791V328.911C216.791 328.174 216.431 327.798 215.85 327.798C215.261 327.798 214.811 328.305 214.811 328.919V331.545H214.042ZM220.443 333.092C219.486 333.092 218.84 332.634 218.619 331.963H219.437C219.568 332.249 219.871 332.503 220.443 332.503C221.114 332.503 221.589 332.167 221.589 331.308V330.76C221.303 331.243 220.853 331.488 220.247 331.488C219.2 331.488 218.439 330.621 218.439 329.336C218.439 328.06 219.224 327.192 220.263 327.192C220.91 327.192 221.368 327.471 221.622 327.953V327.315H222.342V331.283C222.342 332.437 221.573 333.092 220.443 333.092ZM220.378 330.883C221.09 330.883 221.613 330.293 221.613 329.336C221.613 328.354 221.09 327.798 220.394 327.798C219.707 327.798 219.216 328.42 219.216 329.336C219.216 330.252 219.699 330.883 220.378 330.883ZM225.082 331.66C224.018 331.66 223.241 330.768 223.241 329.434C223.241 328.092 224.002 327.201 225.074 327.201C225.704 327.201 226.162 327.471 226.448 327.953V325.736H227.217V331.545H226.506V330.833C226.227 331.373 225.753 331.66 225.082 331.66ZM225.229 331.038C225.941 331.038 226.481 330.449 226.481 329.434C226.481 328.403 225.949 327.798 225.221 327.798C224.501 327.798 224.035 328.469 224.035 329.434C224.035 330.383 224.517 331.038 225.229 331.038ZM230.177 331.668C228.958 331.668 228.115 330.752 228.115 329.434C228.115 328.101 228.958 327.176 230.177 327.176C231.413 327.176 232.272 328.109 232.272 329.434C232.272 330.743 231.421 331.668 230.177 331.668ZM230.177 331.063C230.987 331.063 231.486 330.392 231.486 329.434C231.486 328.469 230.987 327.781 230.177 327.781C229.391 327.781 228.909 328.469 228.909 329.434C228.909 330.383 229.391 331.063 230.177 331.063ZM233.171 331.545V327.315H233.891V327.904C234.096 327.503 234.513 327.176 235.094 327.176C235.7 327.176 236.117 327.487 236.305 327.929C236.534 327.511 236.968 327.176 237.557 327.176C238.473 327.176 238.956 327.765 238.956 328.673V331.545H238.187V328.845C238.187 328.182 237.917 327.79 237.377 327.79C236.804 327.79 236.436 328.264 236.436 328.886V331.545H235.667V328.804C235.667 328.215 235.429 327.79 234.857 327.79C234.317 327.79 233.94 328.24 233.94 328.902V331.545H233.171Z" fill="white"/>
<path d="M30.001 289.351L24.1916 287.281L24.1916 286.275L30.001 284.213L30.001 285.039L28.4136 285.596L28.4136 288.009L30.001 288.558L30.001 289.351ZM27.7672 287.788L27.7672 285.808L24.9198 286.798L27.7672 287.788ZM30.1237 281.796C30.1237 283.007 29.2237 283.826 27.8818 283.826C26.5317 283.826 25.6316 282.999 25.6316 281.796C25.6316 280.994 26.098 280.209 27.0063 280.062L27.0063 280.806C26.5399 280.937 26.2371 281.289 26.2371 281.813C26.2371 282.655 27.0554 283.032 27.8818 283.032C28.7245 283.032 29.5182 282.639 29.5182 281.821C29.5182 281.314 29.2318 280.929 28.6918 280.798L28.6918 280.029C29.6737 280.184 30.1237 280.994 30.1237 281.796ZM30.1237 277.473C30.1237 278.684 29.2237 279.503 27.8818 279.503C26.5317 279.503 25.6316 278.676 25.6316 277.473C25.6316 276.672 26.098 275.886 27.0063 275.739L27.0063 276.483C26.5399 276.614 26.2371 276.966 26.2371 277.49C26.2371 278.333 27.0554 278.709 27.8818 278.709C28.7245 278.709 29.5182 278.316 29.5182 277.498C29.5182 276.991 29.2318 276.606 28.6918 276.475L28.6918 275.706C29.6737 275.862 30.1237 276.672 30.1237 277.473ZM30.1237 273.118C30.1237 274.402 29.2318 275.18 27.9145 275.18C26.5808 275.18 25.6316 274.411 25.6316 273.175C25.6316 272.013 26.4744 271.252 27.7018 271.252L28.0209 271.269L28.0209 274.419C28.8555 274.378 29.5182 273.969 29.5182 273.118C29.5182 272.676 29.3137 272.316 28.8964 272.128L28.8964 271.334C29.6328 271.571 30.1237 272.218 30.1237 273.118ZM27.4563 272.021C26.7281 272.054 26.2208 272.48 26.2208 273.175C26.2208 273.854 26.6872 274.288 27.4563 274.394L27.4563 272.021ZM30.1155 268.859C30.1155 269.824 29.6246 270.528 28.8882 270.659L28.8882 269.873C29.2973 269.742 29.5428 269.317 29.5428 268.842C29.5428 268.319 29.2728 267.909 28.8227 267.909C28.3727 267.909 28.25 268.278 28.1027 269.03C27.8818 270.184 27.5299 270.528 26.8917 270.528C26.2044 270.528 25.6235 269.898 25.6235 268.949C25.6235 268.139 26.0408 267.476 26.7199 267.329L26.7199 268.081C26.4253 268.204 26.2044 268.515 26.2044 268.965C26.2044 269.489 26.4826 269.783 26.8426 269.783C27.2026 269.783 27.3581 269.489 27.4972 268.736C27.7099 267.574 28.07 267.165 28.7655 267.165C29.5755 267.165 30.1155 267.844 30.1155 268.859ZM30.1155 264.823C30.1155 265.789 29.6246 266.493 28.8882 266.624L28.8882 265.838C29.2973 265.707 29.5428 265.282 29.5428 264.807C29.5428 264.283 29.2728 263.874 28.8227 263.874C28.3727 263.874 28.25 264.242 28.1027 264.995C27.8818 266.149 27.5299 266.493 26.8917 266.493C26.2044 266.493 25.6235 265.863 25.6235 264.913C25.6235 264.103 26.0408 263.441 26.7199 263.293L26.7199 264.046C26.4253 264.169 26.2044 264.48 26.2044 264.93C26.2044 265.453 26.4826 265.748 26.8426 265.748C27.2026 265.748 27.3581 265.453 27.4972 264.701C27.7099 263.539 28.07 263.13 28.7655 263.13C29.5755 263.13 30.1155 263.809 30.1155 264.823ZM30.0337 258.952C30.0337 259.884 29.5837 260.122 28.9291 260.122L26.319 260.122L26.319 260.801L25.7707 260.801L25.7707 260.122L24.3634 260.122L24.3634 259.352L25.7707 259.352L25.7707 258.526L26.319 258.526L26.319 259.352L28.9209 259.352C29.2237 259.352 29.4037 259.246 29.4037 258.804C29.4037 258.706 29.3955 258.616 29.3791 258.526L30.001 258.526C30.0173 258.624 30.0337 258.772 30.0337 258.952ZM30.1237 255.986C30.1237 257.205 29.2073 258.048 27.8899 258.048C26.5562 258.048 25.6316 257.205 25.6316 255.986C25.6316 254.751 26.5644 253.892 27.8899 253.892C29.1991 253.892 30.1237 254.743 30.1237 255.986ZM29.5182 255.986C29.5182 255.176 28.8473 254.677 27.8899 254.677C26.9244 254.677 26.2371 255.176 26.2371 255.986C26.2371 256.772 26.9244 257.255 27.8899 257.255C28.8391 257.255 29.5182 256.772 29.5182 255.986ZM30.1237 249.307C30.1237 250.518 29.2237 251.336 27.8818 251.336C26.5317 251.336 25.6316 250.51 25.6316 249.307C25.6316 248.505 26.098 247.72 27.0063 247.572L27.0063 248.317C26.5399 248.448 26.2371 248.8 26.2371 249.323C26.2371 250.166 27.0554 250.542 27.8818 250.542C28.7245 250.542 29.5182 250.15 29.5182 249.332C29.5182 248.824 29.2318 248.44 28.6918 248.309L28.6918 247.54C29.6737 247.695 30.1237 248.505 30.1237 249.307ZM30.1237 244.951C30.1237 246.171 29.2073 247.013 27.8899 247.013C26.5562 247.013 25.6316 246.171 25.6316 244.951C25.6316 243.716 26.5644 242.857 27.8899 242.857C29.1991 242.857 30.1237 243.708 30.1237 244.951ZM29.5182 244.951C29.5182 244.141 28.8473 243.642 27.8899 243.642C26.9244 243.642 26.2371 244.141 26.2371 244.951C26.2371 245.737 26.9244 246.22 27.8899 246.22C28.8391 246.22 29.5182 245.737 29.5182 244.951ZM30.001 241.957L25.7707 241.957L25.7707 241.237L26.3599 241.237C25.9589 241.033 25.6316 240.615 25.6316 240.034C25.6316 239.429 25.9426 239.012 26.3844 238.823C25.9671 238.594 25.6316 238.161 25.6316 237.571C25.6316 236.655 26.2208 236.172 27.129 236.172L30.001 236.172L30.001 236.941L27.3008 236.941C26.6381 236.941 26.2453 237.211 26.2453 237.751C26.2453 238.324 26.7199 238.692 27.3417 238.692L30.001 238.692L30.001 239.462L27.2599 239.462C26.6708 239.462 26.2453 239.699 26.2453 240.272C26.2453 240.812 26.6953 241.188 27.3581 241.188L30.001 241.188L30.001 241.957ZM31.4165 235.053L25.7707 235.053L25.7707 234.333L26.5071 234.333C25.9426 234.055 25.6562 233.564 25.6562 232.901C25.6562 231.838 26.5399 231.077 27.8899 231.077C29.2237 231.077 30.1155 231.854 30.1155 232.91C30.1155 233.572 29.8373 234.014 29.3955 234.284L31.4165 234.284L31.4165 235.053ZM29.4937 233.065C29.4937 232.353 28.8473 231.862 27.8899 231.862C26.9163 231.862 26.2535 232.337 26.2535 233.057C26.2535 233.777 26.859 234.317 27.8899 234.317C28.9127 234.317 29.4937 233.777 29.4937 233.065ZM30.1237 228.739C30.1237 229.705 29.4937 230.22 28.5691 230.22L25.7707 230.22L25.7707 229.451L28.3972 229.451C29.1337 229.451 29.51 229.099 29.51 228.51C29.51 227.937 29.0109 227.471 28.3891 227.471L25.7707 227.471L25.7707 226.694L30.001 226.694L30.001 227.414L29.3791 227.414C29.8373 227.659 30.1237 228.117 30.1237 228.739ZM30.0337 224.105C30.0337 225.038 29.5837 225.275 28.9291 225.275L26.319 225.275L26.319 225.954L25.7707 225.954L25.7707 225.275L24.3634 225.275L24.3634 224.506L25.7707 224.506L25.7707 223.68L26.319 223.68L26.319 224.506L28.9209 224.506C29.2237 224.506 29.4037 224.4 29.4037 223.958C29.4037 223.86 29.3955 223.77 29.3791 223.68L30.001 223.68C30.0173 223.778 30.0337 223.925 30.0337 224.105ZM30.1237 221.14C30.1237 222.424 29.2318 223.202 27.9145 223.202C26.5808 223.202 25.6316 222.432 25.6316 221.197C25.6316 220.035 26.4744 219.274 27.7018 219.274L28.0209 219.29L28.0209 222.441C28.8555 222.4 29.5182 221.991 29.5182 221.14C29.5182 220.698 29.3137 220.338 28.8964 220.15L28.8964 219.356C29.6328 219.593 30.1237 220.24 30.1237 221.14ZM27.4563 220.043C26.7281 220.076 26.2208 220.501 26.2208 221.197C26.2208 221.876 26.6872 222.31 27.4563 222.416L27.4563 220.043ZM30.001 218.353L25.7707 218.353L25.7707 217.633L26.5153 217.633C26.0162 217.429 25.7135 217.044 25.7135 216.471C25.7135 216.389 25.7216 216.299 25.738 216.242L26.4253 216.242C26.409 216.308 26.4171 216.373 26.4171 216.455C26.4171 217.175 26.9244 217.584 27.759 217.584L30.001 217.584L30.001 218.353ZM30.1155 214.044C30.1155 215.009 29.6246 215.713 28.8882 215.844L28.8882 215.058C29.2973 214.927 29.5428 214.502 29.5428 214.027C29.5428 213.504 29.2728 213.095 28.8227 213.095C28.3727 213.095 28.25 213.463 28.1027 214.216C27.8818 215.369 27.5299 215.713 26.8917 215.713C26.2044 215.713 25.6235 215.083 25.6235 214.134C25.6235 213.324 26.0408 212.661 26.7199 212.514L26.7199 213.266C26.4253 213.389 26.2044 213.7 26.2044 214.15C26.2044 214.674 26.4826 214.968 26.8426 214.968C27.2026 214.968 27.3581 214.674 27.4972 213.921C27.7099 212.759 28.07 212.35 28.7655 212.35C29.5755 212.35 30.1155 213.029 30.1155 214.044ZM30.1237 208.336C30.1237 209.121 29.6655 209.808 28.8718 209.808C27.9472 209.808 27.4317 209.047 27.3745 207.035L27.1535 207.035C26.5153 207.035 26.2044 207.403 26.2044 207.992C26.2044 208.524 26.4908 208.818 26.8263 208.917L26.8263 209.669C26.1635 209.522 25.6235 208.949 25.6235 207.992C25.6235 206.895 26.2208 206.29 27.1535 206.29L30.001 206.29L30.001 206.994L29.4446 206.994C29.8701 207.247 30.1237 207.722 30.1237 208.336ZM29.5509 208.18C29.5509 207.534 29.15 207.035 28.4463 207.035L27.9145 207.035C27.9472 208.491 28.2663 209.064 28.8309 209.064C29.2564 209.064 29.5509 208.679 29.5509 208.18ZM30.0337 203.873C30.0337 204.806 29.5837 205.043 28.9291 205.043L26.319 205.043L26.319 205.722L25.7707 205.722L25.7707 205.043L24.3634 205.043L24.3634 204.274L25.7707 204.274L25.7707 203.448L26.319 203.448L26.319 204.274L28.9209 204.274C29.2237 204.274 29.4037 204.168 29.4037 203.726C29.4037 203.628 29.3955 203.538 29.3791 203.448L30.001 203.448C30.0173 203.546 30.0337 203.693 30.0337 203.873ZM30.001 200.638L24.1916 200.638L24.1916 199.869L26.2862 199.869C25.8935 199.616 25.6316 199.198 25.6316 198.601C25.6316 197.635 26.2617 197.112 27.2026 197.112L30.001 197.112L30.001 197.889L27.3663 197.889C26.6299 197.889 26.2535 198.249 26.2535 198.83C26.2535 199.419 26.7608 199.869 27.3745 199.869L30.001 199.869L30.001 200.638ZM30.1237 194.188C30.1237 195.407 29.2073 196.25 27.8899 196.25C26.5562 196.25 25.6316 195.407 25.6316 194.188C25.6316 192.952 26.5644 192.093 27.8899 192.093C29.1991 192.093 30.1237 192.944 30.1237 194.188ZM29.5182 194.188C29.5182 193.378 28.8473 192.879 27.8899 192.879C26.9244 192.879 26.2371 193.378 26.2371 194.188C26.2371 194.973 26.9244 195.456 27.8899 195.456C28.8391 195.456 29.5182 194.973 29.5182 194.188ZM30.001 191.194L25.7707 191.194L25.7707 190.473L26.3599 190.473C25.9589 190.269 25.6316 189.852 25.6316 189.271C25.6316 188.665 25.9426 188.248 26.3844 188.06C25.9671 187.831 25.6316 187.397 25.6316 186.808C25.6316 185.891 26.2208 185.409 27.129 185.409L30.001 185.409L30.001 186.178L27.3008 186.178C26.6381 186.178 26.2453 186.448 26.2453 186.988C26.2453 187.561 26.7199 187.929 27.3417 187.929L30.001 187.929L30.001 188.698L27.2599 188.698C26.6708 188.698 26.2453 188.935 26.2453 189.508C26.2453 190.048 26.6953 190.424 27.3581 190.424L30.001 190.424L30.001 191.194ZM30.1237 182.49C30.1237 183.774 29.2318 184.552 27.9145 184.552C26.5808 184.552 25.6316 183.782 25.6316 182.547C25.6316 181.385 26.4744 180.624 27.7018 180.624L28.0209 180.64L28.0209 183.791C28.8555 183.75 29.5182 183.341 29.5182 182.49C29.5182 182.048 29.3137 181.688 28.8964 181.5L28.8964 180.706C29.6328 180.943 30.1237 181.59 30.1237 182.49ZM27.4563 181.393C26.7281 181.426 26.2208 181.851 26.2208 182.547C26.2208 183.226 26.6872 183.66 27.4563 183.766L27.4563 181.393Z" fill="white"/>
</svg>
