<svg width="545" height="354" viewBox="0 0 545 354" fill="none" xmlns="http://www.w3.org/2000/svg">
<g clip-path="url(#clip0_5_1560)">
<path d="M192 22.5974C192 20.6106 193.611 19 195.597 19H207.403C209.389 19 211 20.6106 211 22.5974V35.4026C211 37.3894 209.389 39 207.403 39H195.597C193.611 39 192 37.3894 192 35.4026V22.5974Z" fill="#14AAFF" fill-opacity="0.05"/>
<path d="M192.45 22.5974C192.45 20.859 193.859 19.4497 195.597 19.4497H207.403C209.141 19.4497 210.55 20.859 210.55 22.5974V35.4026C210.55 37.141 209.141 38.5503 207.403 38.5503H195.597C193.859 38.5503 192.45 37.141 192.45 35.4026V22.5974Z" stroke="#14AAFF" stroke-opacity="0.1" stroke-width="0.899357"/>
<path opacity="0.25" d="M53.9328 23.7833H55.2422L52.9255 34H51.1556L49.141 25.3086L47.1265 34H45.299L42.9822 23.7833H44.3636L46.2775 32.7337L48.4071 23.7833H49.9468L52.019 32.7481L53.9328 23.7833ZM59.4798 26.8195C59.6525 26.8195 59.782 26.8339 59.8539 26.8483V27.9851C59.7676 27.9707 59.6381 27.9707 59.4942 27.9707C58.3142 27.9707 57.6379 28.8053 57.6379 30.2299V34H56.3716V26.9059H57.5516V28.1578C57.8681 27.3951 58.4869 26.8195 59.4798 26.8195ZM62.2893 24.0423V25.5245H61.023V24.0423H62.2893ZM62.2893 26.9059V34H61.023V26.9059H62.2893ZM67.2073 27.8124H65.8403V32.2013C65.8403 32.7049 65.9986 33.0215 66.7468 33.0215C66.9051 33.0215 67.0634 33.0071 67.2073 32.9783V34C67.049 34.0288 66.8188 34.0576 66.5166 34.0576C64.9481 34.0576 64.574 33.2949 64.574 32.2157V27.8124H63.4516V26.9059H64.574V24.546H65.8403V26.9059H67.2073V27.8124ZM74.4449 30.1436L74.4161 30.676H69.1926C69.2646 32.0862 69.9409 33.2086 71.3655 33.2086C72.1569 33.2086 72.8332 32.8057 73.1066 31.8847H74.3873C74.042 33.2805 72.9339 34.2015 71.3655 34.2015C69.2358 34.2015 67.9551 32.7193 67.9551 30.5033C67.9551 28.2729 69.2214 26.69 71.2647 26.69C73.193 26.69 74.4449 28.0858 74.4449 30.1436ZM71.2503 27.6541C70.1423 27.6541 69.4085 28.4456 69.2358 29.755H73.1786C73.121 28.5031 72.4159 27.6541 71.2503 27.6541ZM81.9111 26.6756C83.7098 26.6756 84.7171 27.6685 84.7171 29.2226V34H83.5515V33.0503C83.1342 33.7842 82.3572 34.2158 81.3355 34.2158C80.0404 34.2158 78.918 33.4532 78.918 32.1006C78.918 30.5752 80.1699 29.6975 83.494 29.6111V29.2226C83.494 28.1578 82.8896 27.6254 81.9111 27.6254C80.9038 27.6254 80.4002 28.2585 80.3282 28.9348H79.0907C79.2346 27.7117 80.2275 26.6756 81.9111 26.6756ZM81.5945 33.2661C82.6738 33.2661 83.494 32.5754 83.494 31.4099V30.4889C81.0333 30.5465 80.1412 31.1077 80.1412 32.0574C80.1412 32.7625 80.7455 33.2661 81.5945 33.2661ZM94.8378 26.9059H96.0177V36.5901H94.7514V32.9496C94.3054 33.741 93.5571 34.1871 92.4779 34.1871C90.7223 34.1871 89.4416 32.7049 89.4416 30.4601C89.4416 28.2009 90.6935 26.7188 92.4635 26.7188C93.6147 26.7188 94.3917 27.2656 94.8378 28.1722V26.9059ZM92.7081 33.1654C93.9024 33.1654 94.7946 32.2013 94.7946 30.4601C94.7946 28.719 93.9024 27.7117 92.6937 27.7117C91.4994 27.7117 90.7223 28.8197 90.7223 30.4601C90.7223 32.0862 91.5281 33.1654 92.7081 33.1654ZM102.372 26.9059H103.638V34H102.458V32.9496C102.056 33.7122 101.293 34.2015 100.271 34.2015C98.674 34.2015 97.825 33.1654 97.825 31.5969V26.9059H99.0913V31.3235C99.0913 32.5754 99.6669 33.1942 100.645 33.1942C101.609 33.1942 102.372 32.3596 102.372 31.3091V26.9059ZM111.585 30.1436L111.557 30.676H106.333C106.405 32.0862 107.082 33.2086 108.506 33.2086C109.298 33.2086 109.974 32.8057 110.247 31.8847H111.528C111.183 33.2805 110.075 34.2015 108.506 34.2015C106.376 34.2015 105.096 32.7193 105.096 30.5033C105.096 28.2729 106.362 26.69 108.405 26.69C110.334 26.69 111.585 28.0858 111.585 30.1436ZM108.391 27.6541C107.283 27.6541 106.549 28.4456 106.376 29.755H110.319C110.262 28.5031 109.557 27.6541 108.391 27.6541ZM115.52 34.2015C113.836 34.2015 112.613 33.2805 112.512 31.8703H113.764C113.865 32.7481 114.685 33.2517 115.534 33.2517C116.426 33.2517 117.088 32.7913 117.088 32.0286C117.088 31.266 116.469 31.0501 115.217 30.8055C113.347 30.4457 112.757 29.8414 112.757 28.7909C112.757 27.6397 113.793 26.6756 115.376 26.6756C116.786 26.6756 117.98 27.4671 118.095 28.7621H116.887C116.771 28.1146 116.196 27.6254 115.347 27.6254C114.455 27.6254 113.98 28.1002 113.98 28.7046C113.98 29.3233 114.498 29.5824 115.721 29.8126C117.606 30.1579 118.311 30.7623 118.311 31.9423C118.311 33.2949 117.189 34.2015 115.52 34.2015ZM122.7 27.8124H121.333V32.2013C121.333 32.7049 121.492 33.0215 122.24 33.0215C122.398 33.0215 122.557 33.0071 122.7 32.9783V34C122.542 34.0288 122.312 34.0576 122.01 34.0576C120.441 34.0576 120.067 33.2949 120.067 32.2157V27.8124H118.945V26.9059H120.067V24.546H121.333V26.9059H122.7V27.8124ZM125.385 24.0423V25.5245H124.118V24.0423H125.385ZM125.385 26.9059V34H124.118V26.9059H125.385ZM130.26 34.2015C128.231 34.2015 126.835 32.6761 126.835 30.4601C126.835 28.2297 128.231 26.69 130.26 26.69C132.289 26.69 133.699 28.2297 133.699 30.4601C133.699 32.6761 132.289 34.2015 130.26 34.2015ZM130.26 33.2086C131.583 33.2086 132.404 32.1006 132.404 30.4601C132.404 28.8197 131.583 27.6829 130.26 27.6829C128.936 27.6829 128.13 28.8197 128.13 30.4601C128.13 32.1006 128.936 33.2086 130.26 33.2086ZM138.517 26.69C140.114 26.69 140.963 27.7405 140.963 29.309V34H139.697V29.5824C139.697 28.3305 139.121 27.7117 138.143 27.7117C137.164 27.7117 136.416 28.5463 136.416 29.5967V34H135.15V26.9059H136.33V27.9419C136.733 27.1793 137.495 26.69 138.517 26.69ZM149.104 34.2015C147.075 34.2015 145.679 32.6761 145.679 30.4601C145.679 28.2297 147.075 26.69 149.104 26.69C151.133 26.69 152.543 28.2297 152.543 30.4601C152.543 32.6761 151.133 34.2015 149.104 34.2015ZM149.104 33.2086C150.428 33.2086 151.248 32.1006 151.248 30.4601C151.248 28.8197 150.428 27.6829 149.104 27.6829C147.78 27.6829 146.974 28.8197 146.974 30.4601C146.974 32.1006 147.78 33.2086 149.104 33.2086ZM157.102 26.8195C157.275 26.8195 157.404 26.8339 157.476 26.8483V27.9851C157.39 27.9707 157.26 27.9707 157.117 27.9707C155.937 27.9707 155.26 28.8053 155.26 30.2299V34H153.994V26.9059H155.174V28.1578C155.491 27.3951 156.109 26.8195 157.102 26.8195ZM165.012 27.8124H163.645V32.2013C163.645 32.7049 163.804 33.0215 164.552 33.0215C164.71 33.0215 164.868 33.0071 165.012 32.9783V34C164.854 34.0288 164.624 34.0576 164.322 34.0576C162.753 34.0576 162.379 33.2949 162.379 32.2157V27.8124H161.257V26.9059H162.379V24.546H163.645V26.9059H165.012V27.8124ZM167.491 36.6477C167.261 36.6477 167.03 36.6189 166.843 36.5614V35.5541C166.973 35.5973 167.174 35.626 167.347 35.626C167.966 35.626 168.254 35.4102 168.498 34.6188L168.556 34.4461L165.966 26.9059H167.289L169.189 32.8344L171.06 26.9059H172.326L169.592 34.9209C169.174 36.1728 168.599 36.6477 167.491 36.6477ZM177.095 26.7188C178.865 26.7188 180.117 28.2009 180.117 30.4601C180.117 32.7049 178.836 34.1871 177.081 34.1871C176.016 34.1871 175.268 33.741 174.807 32.9639V36.5901H173.541V26.9059H174.721V28.1578C175.167 27.2512 175.958 26.7188 177.095 26.7188ZM176.836 33.1654C178.016 33.1654 178.822 32.0862 178.822 30.4601C178.822 28.8197 178.045 27.7117 176.851 27.7117C175.642 27.7117 174.75 28.719 174.75 30.4601C174.75 32.2013 175.656 33.1654 176.836 33.1654ZM187.708 30.1436L187.679 30.676H182.455C182.527 32.0862 183.204 33.2086 184.628 33.2086C185.42 33.2086 186.096 32.8057 186.369 31.8847H187.65C187.305 33.2805 186.197 34.2015 184.628 34.2015C182.499 34.2015 181.218 32.7193 181.218 30.5033C181.218 28.2729 182.484 26.69 184.527 26.69C186.456 26.69 187.708 28.0858 187.708 30.1436ZM184.513 27.6541C183.405 27.6541 182.671 28.4456 182.499 29.755H186.441C186.384 28.5031 185.679 27.6541 184.513 27.6541ZM204.095 23.7833L199.763 34H198.511L202.843 23.7833H204.095ZM218.313 27.8124H216.946V32.2013C216.946 32.7049 217.105 33.0215 217.853 33.0215C218.011 33.0215 218.169 33.0071 218.313 32.9783V34C218.155 34.0288 217.925 34.0576 217.623 34.0576C216.054 34.0576 215.68 33.2949 215.68 32.2157V27.8124H214.558V26.9059H215.68V24.546H216.946V26.9059H218.313V27.8124ZM222.486 34.2015C220.457 34.2015 219.061 32.6761 219.061 30.4601C219.061 28.2297 220.457 26.69 222.486 26.69C224.515 26.69 225.925 28.2297 225.925 30.4601C225.925 32.6761 224.515 34.2015 222.486 34.2015ZM222.486 33.2086C223.81 33.2086 224.63 32.1006 224.63 30.4601C224.63 28.8197 223.81 27.6829 222.486 27.6829C221.162 27.6829 220.356 28.8197 220.356 30.4601C220.356 32.1006 221.162 33.2086 222.486 33.2086ZM234.247 26.7188C236.016 26.7188 237.268 28.2009 237.268 30.4601C237.268 32.7049 235.988 34.1871 234.232 34.1871C233.095 34.1871 232.318 33.6834 231.872 32.8057V34H230.692V23.7833H231.959V27.9851C232.419 27.1937 233.182 26.7188 234.247 26.7188ZM233.988 33.1654C235.167 33.1654 235.973 32.0862 235.973 30.4601C235.973 28.8197 235.196 27.7117 234.002 27.7117C232.793 27.7117 231.901 28.719 231.901 30.4601C231.901 32.2013 232.808 33.1654 233.988 33.1654ZM241.824 26.8195C241.997 26.8195 242.127 26.8339 242.199 26.8483V27.9851C242.112 27.9707 241.983 27.9707 241.839 27.9707C240.659 27.9707 239.983 28.8053 239.983 30.2299V34H238.716V26.9059H239.896V28.1578C240.213 27.3951 240.832 26.8195 241.824 26.8195ZM246.22 34.2015C244.191 34.2015 242.796 32.6761 242.796 30.4601C242.796 28.2297 244.191 26.69 246.22 26.69C248.249 26.69 249.66 28.2297 249.66 30.4601C249.66 32.6761 248.249 34.2015 246.22 34.2015ZM246.22 33.2086C247.544 33.2086 248.365 32.1006 248.365 30.4601C248.365 28.8197 247.544 27.6829 246.22 27.6829C244.897 27.6829 244.091 28.8197 244.091 30.4601C244.091 32.1006 244.897 33.2086 246.22 33.2086ZM258.855 26.8915H260.15L258.208 34H256.682L255.243 28.46L253.833 34H252.308L250.365 26.8915H251.689L253.128 32.9064L254.668 26.8915H255.877L257.402 32.9208L258.855 26.8915ZM263.843 34.2015C262.16 34.2015 260.936 33.2805 260.836 31.8703H262.088C262.188 32.7481 263.009 33.2517 263.858 33.2517C264.75 33.2517 265.412 32.7913 265.412 32.0286C265.412 31.266 264.793 31.0501 263.541 30.8055C261.67 30.4457 261.08 29.8414 261.08 28.7909C261.08 27.6397 262.116 26.6756 263.699 26.6756C265.109 26.6756 266.304 27.4671 266.419 28.7621H265.21C265.095 28.1146 264.519 27.6254 263.67 27.6254C262.778 27.6254 262.303 28.1002 262.303 28.7046C262.303 29.3233 262.821 29.5824 264.045 29.8126C265.93 30.1579 266.635 30.7623 266.635 31.9423C266.635 33.2949 265.512 34.2015 263.843 34.2015ZM274.018 30.1436L273.989 30.676H268.766C268.837 32.0862 269.514 33.2086 270.938 33.2086C271.73 33.2086 272.406 32.8057 272.68 31.8847H273.96C273.615 33.2805 272.507 34.2015 270.938 34.2015C268.809 34.2015 267.528 32.7193 267.528 30.5033C267.528 28.2729 268.794 26.69 270.838 26.69C272.766 26.69 274.018 28.0858 274.018 30.1436ZM270.823 27.6541C269.715 27.6541 268.981 28.4456 268.809 29.755H272.751C272.694 28.5031 271.989 27.6541 270.823 27.6541ZM281.829 34.2015C279.8 34.2015 278.405 32.6761 278.405 30.4601C278.405 28.2297 279.8 26.69 281.829 26.69C283.858 26.69 285.269 28.2297 285.269 30.4601C285.269 32.6761 283.858 34.2015 281.829 34.2015ZM281.829 33.2086C283.153 33.2086 283.973 32.1006 283.973 30.4601C283.973 28.8197 283.153 27.6829 281.829 27.6829C280.506 27.6829 279.7 28.8197 279.7 30.4601C279.7 32.1006 280.506 33.2086 281.829 33.2086ZM290.274 26.7188C292.044 26.7188 293.295 28.2009 293.295 30.4601C293.295 32.7049 292.015 34.1871 290.259 34.1871C289.194 34.1871 288.446 33.741 287.986 32.9639V36.5901H286.719V26.9059H287.899V28.1578C288.345 27.2512 289.137 26.7188 290.274 26.7188ZM290.015 33.1654C291.195 33.1654 292 32.0862 292 30.4601C292 28.8197 291.223 27.7117 290.029 27.7117C288.82 27.7117 287.928 28.719 287.928 30.4601C287.928 32.2013 288.835 33.1654 290.015 33.1654ZM297.611 27.8124H296.244V32.2013C296.244 32.7049 296.403 33.0215 297.151 33.0215C297.309 33.0215 297.467 33.0071 297.611 32.9783V34C297.453 34.0288 297.223 34.0576 296.921 34.0576C295.352 34.0576 294.978 33.2949 294.978 32.2157V27.8124H293.856V26.9059H294.978V24.546H296.244V26.9059H297.611V27.8124ZM300.296 24.0423V25.5245H299.029V24.0423H300.296ZM300.296 26.9059V34H299.029V26.9059H300.296ZM305.17 34.2015C303.142 34.2015 301.746 32.6761 301.746 30.4601C301.746 28.2297 303.142 26.69 305.17 26.69C307.199 26.69 308.61 28.2297 308.61 30.4601C308.61 32.6761 307.199 34.2015 305.17 34.2015ZM305.17 33.2086C306.494 33.2086 307.315 32.1006 307.315 30.4601C307.315 28.8197 306.494 27.6829 305.17 27.6829C303.847 27.6829 303.041 28.8197 303.041 30.4601C303.041 32.1006 303.847 33.2086 305.17 33.2086ZM313.428 26.69C315.025 26.69 315.874 27.7405 315.874 29.309V34H314.608V29.5824C314.608 28.3305 314.032 27.7117 313.054 27.7117C312.075 27.7117 311.327 28.5463 311.327 29.5967V34H310.061V26.9059H311.24V27.9419C311.643 27.1793 312.406 26.69 313.428 26.69ZM320.137 34.2015C318.454 34.2015 317.231 33.2805 317.13 31.8703H318.382C318.482 32.7481 319.303 33.2517 320.152 33.2517C321.044 33.2517 321.706 32.7913 321.706 32.0286C321.706 31.266 321.087 31.0501 319.835 30.8055C317.964 30.4457 317.374 29.8414 317.374 28.7909C317.374 27.6397 318.41 26.6756 319.993 26.6756C321.404 26.6756 322.598 27.4671 322.713 28.7621H321.504C321.389 28.1146 320.814 27.6254 319.965 27.6254C319.072 27.6254 318.598 28.1002 318.598 28.7046C318.598 29.3233 319.116 29.5824 320.339 29.8126C322.224 30.1579 322.929 30.7623 322.929 31.9423C322.929 33.2949 321.806 34.2015 320.137 34.2015Z" fill="#14AAFF"/>
<rect x="42.5361" y="67.7793" width="174.169" height="35.9743" rx="8" fill="#14AAFF" fill-opacity="0.1"/>
<path d="M78.2873 80.8267C80.0752 80.8267 81.2713 81.897 81.2713 83.5968C81.2713 85.2966 80.0752 86.3668 78.2873 86.3668H76.1216V89.7664H74.5351V80.8267H78.2873ZM76.109 82.0984V85.0951H78.111C79.0679 85.0951 79.71 84.5663 79.71 83.5968C79.71 82.6147 79.0679 82.0984 78.111 82.0984H76.109ZM83.7998 80.9527V82.3754H82.3392V80.9527H83.7998ZM83.7998 83.4079V89.7664H82.3392V83.4079H83.7998ZM88.0359 89.9552C86.2228 89.9552 84.9386 88.6583 84.9386 86.5808C84.9386 84.5033 86.2228 83.2064 88.0485 83.2064C89.2321 83.2064 90.529 83.8738 90.743 85.3721H89.3454C89.1691 84.7551 88.7159 84.3522 88.0108 84.3522C86.9405 84.3522 86.4243 85.3973 86.4243 86.5808C86.4243 87.777 86.9531 88.8094 87.9856 88.8094C88.7033 88.8094 89.1817 88.4065 89.358 87.6511H90.7808C90.5667 89.2879 89.2321 89.9552 88.0359 89.9552ZM97.4469 89.7664H95.7597L93.3045 86.4675V89.7664H91.8439V80.8267H93.3045V86.1527L95.6464 83.4079H97.321L94.7902 86.2535L97.4469 89.7664ZM104.137 84.453H103.004V87.9281C103.004 88.3436 103.13 88.6206 103.722 88.6206C103.86 88.6206 104.024 88.608 104.137 88.5828V89.7664C103.986 89.8041 103.785 89.8167 103.457 89.8167C101.972 89.8167 101.543 89.1242 101.543 87.9407V84.453H100.574V83.4079H101.543V81.4059H103.004V83.4079H104.137V84.453ZM108.556 83.2064C109.979 83.2064 110.76 84.113 110.76 85.5358V89.7664H109.299V85.8631C109.299 84.8936 108.871 84.39 108.091 84.39C107.322 84.39 106.768 85.0196 106.768 85.8883V89.7664H105.308V80.8267H106.768V84.0878C107.146 83.5464 107.751 83.2064 108.556 83.2064ZM117.885 86.3668L117.86 86.9334H113.302C113.403 88.0288 113.944 88.8094 115.002 88.8094C115.606 88.8094 116.16 88.5198 116.387 87.7896H117.835C117.507 89.2375 116.349 89.9552 115.039 89.9552C113.063 89.9552 111.867 88.6332 111.867 86.6186C111.867 84.6544 113.025 83.2064 114.939 83.2064C116.714 83.2064 117.885 84.453 117.885 86.3668ZM114.914 84.3019C114.02 84.3019 113.491 84.944 113.34 85.9009H116.425C116.374 84.9314 115.82 84.3019 114.914 84.3019ZM125.319 83.219C126.905 83.219 128.051 84.5411 128.051 86.5808C128.051 88.6332 126.88 89.9426 125.306 89.9426C124.324 89.9426 123.67 89.5145 123.279 88.7843V89.7664H121.932V80.8267H123.393V84.2263C123.795 83.5968 124.425 83.219 125.319 83.219ZM124.966 88.7591C125.911 88.7591 126.565 87.9155 126.565 86.5808C126.565 85.2462 125.949 84.39 124.979 84.39C124.035 84.39 123.33 85.1958 123.33 86.5808C123.33 87.991 124.047 88.7591 124.966 88.7591ZM134.952 86.3668L134.927 86.9334H130.369C130.469 88.0288 131.011 88.8094 132.068 88.8094C132.673 88.8094 133.227 88.5198 133.453 87.7896H134.901C134.574 89.2375 133.416 89.9552 132.106 89.9552C130.129 89.9552 128.933 88.6332 128.933 86.6186C128.933 84.6544 130.092 83.2064 132.005 83.2064C133.781 83.2064 134.952 84.453 134.952 86.3668ZM131.98 84.3019C131.086 84.3019 130.558 84.944 130.406 85.9009H133.491C133.441 84.9314 132.887 84.3019 131.98 84.3019ZM138.514 89.9552C136.815 89.9552 135.757 89.0487 135.681 87.777H137.104C137.18 88.4821 137.822 88.8598 138.527 88.8598C139.232 88.8598 139.71 88.545 139.71 87.991C139.71 87.4244 139.232 87.2607 138.149 87.0719C136.412 86.7571 135.883 86.1653 135.883 85.2084C135.883 84.1634 136.815 83.1939 138.388 83.1939C139.66 83.1939 140.844 83.899 140.944 85.1832H139.559C139.471 84.6922 139.043 84.2767 138.338 84.2767C137.646 84.2767 137.293 84.6418 137.293 85.0825C137.293 85.5232 137.671 85.7498 138.716 85.9261C140.428 86.2157 141.121 86.7697 141.121 87.8777C141.121 89.099 140.126 89.9552 138.514 89.9552ZM145.205 84.453H144.072V87.9281C144.072 88.3436 144.198 88.6206 144.79 88.6206C144.928 88.6206 145.092 88.608 145.205 88.5828V89.7664C145.054 89.8041 144.853 89.8167 144.526 89.8167C143.04 89.8167 142.612 89.1242 142.612 87.9407V84.453H141.642V83.4079H142.612V81.4059H144.072V83.4079H145.205V84.453ZM152.136 89.9552C150.26 89.9552 148.963 88.5954 148.963 86.5808C148.963 84.5789 150.26 83.2064 152.136 83.2064C154.012 83.2064 155.309 84.5789 155.309 86.5808C155.309 88.5954 154.012 89.9552 152.136 89.9552ZM152.136 88.8094C153.181 88.8094 153.823 87.9407 153.823 86.5808C153.823 85.2462 153.181 84.3522 152.136 84.3522C151.091 84.3522 150.449 85.2462 150.449 86.5808C150.449 87.9407 151.091 88.8094 152.136 88.8094ZM159.846 83.219C161.432 83.219 162.578 84.5411 162.578 86.5808C162.578 88.6332 161.407 89.9426 159.833 89.9426C158.939 89.9426 158.322 89.5901 157.919 88.9731V92.0327H156.459V83.4079H157.806V84.4152C158.196 83.6723 158.864 83.219 159.846 83.219ZM159.493 88.7591C160.438 88.7591 161.092 87.9155 161.092 86.5808C161.092 85.2462 160.475 84.39 159.506 84.39C158.562 84.39 157.856 85.1958 157.856 86.5808C157.856 87.991 158.574 88.7591 159.493 88.7591ZM166.588 84.453H165.455V87.9281C165.455 88.3436 165.581 88.6206 166.173 88.6206C166.311 88.6206 166.475 88.608 166.588 88.5828V89.7664C166.437 89.8041 166.235 89.8167 165.908 89.8167C164.422 89.8167 163.994 89.1242 163.994 87.9407V84.453H163.025V83.4079H163.994V81.4059H165.455V83.4079H166.588V84.453ZM169.219 80.9527V82.3754H167.759V80.9527H169.219ZM169.219 83.4079V89.7664H167.759V83.4079H169.219ZM173.531 89.9552C171.655 89.9552 170.358 88.5954 170.358 86.5808C170.358 84.5789 171.655 83.2064 173.531 83.2064C175.407 83.2064 176.704 84.5789 176.704 86.5808C176.704 88.5954 175.407 89.9552 173.531 89.9552ZM173.531 88.8094C174.576 88.8094 175.218 87.9407 175.218 86.5808C175.218 85.2462 174.576 84.3522 173.531 84.3522C172.486 84.3522 171.844 85.2462 171.844 86.5808C171.844 87.9407 172.486 88.8094 173.531 88.8094ZM181.102 83.2064C182.525 83.2064 183.306 84.113 183.306 85.5358V89.7664H181.845V85.8631C181.845 84.8936 181.417 84.39 180.636 84.39C179.868 84.39 179.314 85.0196 179.314 85.8883V89.7664H177.854V83.4079H179.201V84.2641C179.553 83.6345 180.208 83.2064 181.102 83.2064Z" fill="#14AAFF"/>
<path opacity="0.7" d="M198.718 88.4645L194.221 83.9677L194.851 83.3381L198.718 87.2054L202.585 83.3381L203.215 83.9677L198.718 88.4645Z" fill="#14AAFF"/>
<g clip-path="url(#clip1_5_1560)">
<path d="M60.5244 79.4714C59.2793 79.4714 58.0621 79.8407 57.0268 80.5324C55.9915 81.2242 55.1846 82.2074 54.7081 83.3578C54.2316 84.5081 54.1069 85.7739 54.3499 86.9951C54.5928 88.2163 55.1924 89.3381 56.0728 90.2185C56.9532 91.099 58.075 91.6986 59.2962 91.9415C60.5174 92.1844 61.7832 92.0597 62.9336 91.5832C64.0839 91.1067 65.0671 90.2998 65.7589 89.2645C66.4507 88.2292 66.8199 87.0121 66.8199 85.7669C66.8199 84.0973 66.1566 82.496 64.976 81.3153C63.7953 80.1347 62.1941 79.4714 60.5244 79.4714V79.4714ZM60.5244 91.1631C59.4571 91.1631 58.4138 90.8466 57.5264 90.2537C56.6391 89.6607 55.9474 88.818 55.539 87.8319C55.1306 86.8459 55.0237 85.7609 55.2319 84.7142C55.4401 83.6674 55.9541 82.7059 56.7087 81.9513C57.4634 81.1966 58.4249 80.6827 59.4716 80.4745C60.5184 80.2663 61.6034 80.3731 62.5894 80.7815C63.5754 81.19 64.4182 81.8816 65.0111 82.769C65.604 83.6564 65.9205 84.6997 65.9205 85.7669C65.9205 87.1981 65.352 88.5706 64.34 89.5826C63.3281 90.5946 61.9555 91.1631 60.5244 91.1631Z" fill="#14AAFF"/>
<path d="M60.5244 83.0688C59.9907 83.0688 59.4691 83.2271 59.0254 83.5236C58.5817 83.82 58.2359 84.2414 58.0317 84.7344C57.8275 85.2274 57.774 85.7699 57.8781 86.2933C57.9822 86.8167 58.2392 87.2974 58.6165 87.6747C58.9939 88.0521 59.4746 88.309 59.998 88.4131C60.5214 88.5173 61.0639 88.4638 61.5569 88.2596C62.0499 88.0554 62.4713 87.7096 62.7677 87.2659C63.0642 86.8222 63.2224 86.3005 63.2224 85.7669C63.2224 85.0513 62.9382 84.3651 62.4322 83.8591C61.9262 83.3531 61.2399 83.0688 60.5244 83.0688Z" fill="#14AAFF"/>
</g>
<rect x="42.5361" y="114.546" width="459.928" height="64.7666" rx="12" fill="white"/>
<rect x="64.5703" y="140.184" width="13.4904" height="13.4904" rx="6.74518" stroke="#E6E6E6" stroke-width="0.899357"/>
<rect x="93.3497" y="129.385" width="177.661" height="35.0878" rx="8.20778" fill="white"/>
<rect x="93.3497" y="129.385" width="177.661" height="35.0878" rx="8.20778" stroke="#E6E6E6" stroke-width="0.899357"/>
<path d="M107.381 141.788C108.993 141.788 110.391 142.695 110.504 144.193H109.333C109.22 143.286 108.389 142.732 107.356 142.732C106.21 142.732 105.531 143.387 105.531 144.193C105.531 145.125 106.261 145.44 107.835 145.767C109.95 146.208 110.781 146.95 110.781 148.398C110.781 150.06 109.421 151.131 107.533 151.131C105.669 151.131 104.196 150.174 104.083 148.436H105.266C105.405 149.595 106.425 150.174 107.545 150.174C108.729 150.174 109.623 149.544 109.623 148.487C109.623 147.379 108.792 147.076 107.293 146.749C105.102 146.271 104.385 145.565 104.385 144.281C104.385 142.846 105.631 141.788 107.381 141.788ZM114.57 145.515H113.374V149.355C113.374 149.796 113.512 150.073 114.167 150.073C114.305 150.073 114.444 150.06 114.57 150.035V150.929C114.431 150.954 114.23 150.98 113.965 150.98C112.593 150.98 112.266 150.312 112.266 149.368V145.515H111.284V144.722H112.266V142.657H113.374V144.722H114.57V145.515ZM118.221 151.105C116.445 151.105 115.224 149.771 115.224 147.832C115.224 145.88 116.445 144.533 118.221 144.533C119.996 144.533 121.23 145.88 121.23 147.832C121.23 149.771 119.996 151.105 118.221 151.105ZM118.221 150.237C119.379 150.237 120.097 149.267 120.097 147.832C120.097 146.396 119.379 145.402 118.221 145.402C117.062 145.402 116.357 146.396 116.357 147.832C116.357 149.267 117.062 150.237 118.221 150.237ZM125.117 151.105C123.379 151.105 122.196 149.796 122.196 147.819C122.196 145.842 123.392 144.533 125.13 144.533C126.288 144.533 127.434 145.225 127.648 146.522H126.565C126.364 145.83 125.835 145.402 125.092 145.402C123.883 145.402 123.329 146.598 123.329 147.819C123.329 149.066 123.896 150.237 125.079 150.237C125.822 150.237 126.376 149.834 126.578 149.015H127.686C127.459 150.438 126.275 151.105 125.117 151.105ZM133.88 150.929H132.571L129.977 147.681V150.929H128.869V141.99H129.977V147.416L132.394 144.722H133.679L131.11 147.504L133.88 150.929ZM137.693 144.533C139.09 144.533 139.833 145.452 139.833 146.825V150.929H138.725V147.064C138.725 145.968 138.221 145.427 137.365 145.427C136.509 145.427 135.854 146.157 135.854 147.076V150.929H134.746V141.99H135.854V145.49C136.219 144.911 136.849 144.533 137.693 144.533ZM144.054 151.105C142.279 151.105 141.058 149.771 141.058 147.832C141.058 145.88 142.279 144.533 144.054 144.533C145.83 144.533 147.064 145.88 147.064 147.832C147.064 149.771 145.83 151.105 144.054 151.105ZM144.054 150.237C145.213 150.237 145.931 149.267 145.931 147.832C145.931 146.396 145.213 145.402 144.054 145.402C142.896 145.402 142.191 146.396 142.191 147.832C142.191 149.267 142.896 150.237 144.054 150.237ZM149.441 141.99V150.929H148.333V141.99H149.441ZM157.434 144.533C158.743 144.533 159.448 145.389 159.448 146.724V150.929H158.34V146.963C158.34 145.981 157.95 145.414 157.157 145.414C156.326 145.414 155.797 146.094 155.797 147.026V150.929H154.689V146.913C154.689 146.019 154.336 145.414 153.505 145.414C152.737 145.414 152.183 146.056 152.183 147.051V150.929H151.075V144.722H152.108V145.591C152.422 144.974 153.039 144.533 153.845 144.533C154.727 144.533 155.331 144.974 155.608 145.628C155.935 145.024 156.565 144.533 157.434 144.533Z" fill="black"/>
<rect x="286.3" y="129.392" width="130.407" height="35.0749" rx="8.20778" fill="white"/>
<rect x="286.3" y="129.392" width="130.407" height="35.0749" rx="8.20778" stroke="#E6E6E6" stroke-width="0.899357"/>
<path d="M299.198 141.99V150.929H297.624V141.99H299.198ZM304.174 144.369C305.597 144.369 306.378 145.276 306.378 146.699V150.929H304.917V147.026C304.917 146.056 304.489 145.553 303.708 145.553C302.94 145.553 302.386 146.182 302.386 147.051V150.929H300.926V144.571H302.273V145.427C302.626 144.797 303.28 144.369 304.174 144.369ZM310.582 151.118C308.769 151.118 307.485 149.821 307.485 147.744C307.485 145.666 308.769 144.369 310.594 144.369C311.778 144.369 313.075 145.037 313.289 146.535H311.891C311.715 145.918 311.262 145.515 310.557 145.515C309.486 145.515 308.97 146.56 308.97 147.744C308.97 148.94 309.499 149.972 310.532 149.972C311.249 149.972 311.728 149.569 311.904 148.814H313.327C313.113 150.451 311.778 151.118 310.582 151.118ZM317.187 151.118C315.311 151.118 314.014 149.758 314.014 147.744C314.014 145.742 315.311 144.369 317.187 144.369C319.063 144.369 320.359 145.742 320.359 147.744C320.359 149.758 319.063 151.118 317.187 151.118ZM317.187 149.972C318.232 149.972 318.874 149.104 318.874 147.744C318.874 146.409 318.232 145.515 317.187 145.515C316.142 145.515 315.499 146.409 315.499 147.744C315.499 149.104 316.142 149.972 317.187 149.972ZM324.594 144.483C324.745 144.483 324.858 144.495 324.934 144.508V145.855C324.846 145.842 324.72 145.842 324.569 145.842C323.524 145.842 322.97 146.548 322.97 147.731V150.929H321.509V144.571H322.856V145.704C323.121 145.011 323.65 144.483 324.594 144.483ZM328.971 144.483C329.122 144.483 329.236 144.495 329.311 144.508V145.855C329.223 145.842 329.097 145.842 328.946 145.842C327.901 145.842 327.347 146.548 327.347 147.731V150.929H325.887V144.571H327.234V145.704C327.498 145.011 328.027 144.483 328.971 144.483ZM335.869 147.53L335.844 148.096H331.286C331.387 149.192 331.928 149.972 332.986 149.972C333.59 149.972 334.144 149.683 334.371 148.952H335.819C335.492 150.4 334.333 151.118 333.024 151.118C331.047 151.118 329.851 149.796 329.851 147.781C329.851 145.817 331.009 144.369 332.923 144.369C334.698 144.369 335.869 145.616 335.869 147.53ZM332.898 145.465C332.004 145.465 331.475 146.107 331.324 147.064H334.409C334.358 146.094 333.804 145.465 332.898 145.465ZM339.797 151.118C337.984 151.118 336.7 149.821 336.7 147.744C336.7 145.666 337.984 144.369 339.81 144.369C340.993 144.369 342.29 145.037 342.504 146.535H341.106C340.93 145.918 340.477 145.515 339.772 145.515C338.702 145.515 338.185 146.56 338.185 147.744C338.185 148.94 338.714 149.972 339.747 149.972C340.464 149.972 340.943 149.569 341.119 148.814H342.542C342.328 150.451 340.993 151.118 339.797 151.118ZM346.689 145.616H345.555V149.091C345.555 149.506 345.681 149.783 346.273 149.783C346.412 149.783 346.575 149.771 346.689 149.746V150.929C346.537 150.967 346.336 150.98 346.009 150.98C344.523 150.98 344.095 150.287 344.095 149.104V145.616H343.125V144.571H344.095V142.569H345.555V144.571H346.689V145.616Z" fill="#FF5A50"/>
<path d="M399.169 149.627L394.672 145.131L395.302 144.501L399.169 148.368L403.036 144.501L403.666 145.131L399.169 149.627Z" fill="#4D4D4D"/>
<path d="M441.757 146.03C442.024 146.03 442.285 145.951 442.507 145.803C442.728 145.654 442.901 145.444 443.003 145.197C443.106 144.951 443.132 144.679 443.08 144.418C443.028 144.156 442.9 143.916 442.711 143.727C442.522 143.538 442.282 143.41 442.02 143.358C441.759 143.306 441.487 143.332 441.241 143.434C440.994 143.537 440.784 143.709 440.635 143.931C440.487 144.153 440.408 144.414 440.408 144.681C440.408 145.039 440.55 145.382 440.803 145.635C441.056 145.888 441.399 146.03 441.757 146.03V146.03ZM441.757 144.231C441.846 144.231 441.933 144.258 442.007 144.307C442.081 144.356 442.139 144.427 442.173 144.509C442.207 144.591 442.216 144.681 442.198 144.769C442.181 144.856 442.138 144.936 442.075 144.999C442.012 145.062 441.932 145.105 441.845 145.122C441.758 145.139 441.667 145.13 441.585 145.096C441.503 145.062 441.433 145.005 441.383 144.931C441.334 144.857 441.307 144.77 441.307 144.681C441.307 144.562 441.355 144.447 441.439 144.363C441.523 144.279 441.638 144.231 441.757 144.231Z" fill="#999999"/>
<path d="M444.905 141.533H435.911C435.673 141.533 435.444 141.628 435.275 141.797C435.107 141.965 435.012 142.194 435.012 142.433V151.426C435.012 151.665 435.107 151.893 435.275 152.062C435.444 152.231 435.673 152.325 435.911 152.325H444.905C445.143 152.325 445.372 152.231 445.541 152.062C445.709 151.893 445.804 151.665 445.804 151.426V142.433C445.804 142.194 445.709 141.965 445.541 141.797C445.372 141.628 445.143 141.533 444.905 141.533V141.533ZM444.905 151.426H435.911V148.728L438.16 146.48L440.673 148.993C440.842 149.161 441.07 149.255 441.307 149.255C441.545 149.255 441.773 149.161 441.942 148.993L442.656 148.278L444.905 150.527V151.426ZM444.905 149.254L443.291 147.64C443.122 147.472 442.894 147.378 442.656 147.378C442.419 147.378 442.191 147.472 442.022 147.64L441.307 148.355L438.794 145.841C438.625 145.674 438.397 145.58 438.16 145.58C437.922 145.58 437.694 145.674 437.526 145.841L435.911 147.455V142.433H444.905V149.254Z" fill="#999999"/>
<path fill-rule="evenodd" clip-rule="evenodd" d="M458.395 154.124V139.734H459.295V154.124H458.395Z" fill="#F2F2F2"/>
<g clip-path="url(#clip2_5_1560)">
<path d="M476.382 145.131H475.483V150.527H476.382V145.131Z" fill="#999999"/>
<path d="M479.081 145.131H478.181V150.527H479.081V145.131Z" fill="#999999"/>
<path d="M471.886 142.432V143.332H472.785V152.325C472.785 152.564 472.88 152.793 473.048 152.961C473.217 153.13 473.446 153.225 473.684 153.225H480.879C481.118 153.225 481.346 153.13 481.515 152.961C481.684 152.793 481.779 152.564 481.779 152.325V143.332H482.678V142.432H471.886ZM473.684 152.325V143.332H480.879V152.325H473.684Z" fill="#999999"/>
<path d="M479.08 140.634H475.483V141.533H479.08V140.634Z" fill="#999999"/>
</g>
<rect x="42.5361" y="186.507" width="459.928" height="64.7666" rx="12" fill="white"/>
<rect x="64.5703" y="212.146" width="13.4904" height="13.4904" rx="6.74518" stroke="#E6E6E6" stroke-width="0.899357"/>
<rect x="93.3497" y="201.347" width="177.661" height="35.0878" rx="8.20778" fill="white"/>
<rect x="93.3497" y="201.347" width="177.661" height="35.0878" rx="8.20778" stroke="#E6E6E6" stroke-width="0.899357"/>
<path d="M110.542 213.951H111.7V222.891H110.151L105.833 215.248V222.891H104.674V213.951H106.236L110.542 221.581V213.951ZM118.812 219.516L118.787 219.982H114.217C114.28 221.216 114.871 222.198 116.118 222.198C116.81 222.198 117.402 221.846 117.641 221.04H118.762C118.46 222.261 117.49 223.067 116.118 223.067C114.254 223.067 113.134 221.77 113.134 219.831C113.134 217.879 114.242 216.494 116.03 216.494C117.717 216.494 118.812 217.716 118.812 219.516ZM116.017 217.338C115.048 217.338 114.406 218.031 114.254 219.176H117.704C117.654 218.081 117.037 217.338 116.017 217.338ZM126.952 216.671H128.085L126.386 222.891H125.051L123.792 218.043L122.558 222.891H121.223L119.524 216.671H120.682L121.941 221.934L123.288 216.671H124.346L125.681 221.946L126.952 216.671ZM137.332 213.951H138.591L135.532 219.076V222.891H134.335V219.063L131.276 213.951H132.598L134.952 218.031L137.332 213.951ZM140.956 223.067C139.181 223.067 137.959 221.732 137.959 219.793C137.959 217.842 139.181 216.494 140.956 216.494C142.731 216.494 143.965 217.842 143.965 219.793C143.965 221.732 142.731 223.067 140.956 223.067ZM140.956 222.198C142.114 222.198 142.832 221.229 142.832 219.793C142.832 218.358 142.114 217.363 140.956 217.363C139.798 217.363 139.092 218.358 139.092 219.793C139.092 221.229 139.798 222.198 140.956 222.198ZM147.954 216.608C148.105 216.608 148.219 216.62 148.282 216.633V217.628C148.206 217.615 148.093 217.615 147.967 217.615C146.934 217.615 146.343 218.345 146.343 219.592V222.891H145.235V216.683H146.267V217.779C146.544 217.111 147.086 216.608 147.954 216.608ZM154.316 222.891H153.006L150.413 219.642V222.891H149.305V213.951H150.413V219.378L152.83 216.683H154.114L151.546 219.466L154.316 222.891ZM161.849 223.079C159.33 223.079 157.807 221.052 157.807 218.421C157.807 215.777 159.33 213.75 161.849 213.75C163.662 213.75 165.059 214.87 165.349 216.431H164.128C163.8 215.361 163.032 214.719 161.823 214.719C160.124 214.719 159.003 216.243 159.003 218.421C159.003 220.574 160.124 222.11 161.823 222.11C163.057 222.11 163.838 221.405 164.165 220.259H165.374C165.11 221.896 163.699 223.079 161.849 223.079ZM167.627 214.178V215.475H166.519V214.178H167.627ZM167.627 216.683V222.891H166.519V216.683H167.627ZM171.93 217.476H170.734V221.317C170.734 221.757 170.872 222.034 171.527 222.034C171.666 222.034 171.804 222.022 171.93 221.997V222.891C171.792 222.916 171.59 222.941 171.326 222.941C169.953 222.941 169.626 222.274 169.626 221.329V217.476H168.644V216.683H169.626V214.618H170.734V216.683H171.93V217.476ZM174.099 225.207C173.897 225.207 173.696 225.182 173.532 225.132V224.25C173.646 224.288 173.822 224.313 173.973 224.313C174.514 224.313 174.766 224.125 174.98 223.432L175.031 223.281L172.764 216.683H173.923L175.585 221.871L177.221 216.683H178.329L175.937 223.696C175.572 224.792 175.068 225.207 174.099 225.207Z" fill="black"/>
<rect x="286.3" y="201.353" width="130.407" height="35.0749" rx="8.20778" fill="white"/>
<rect x="286.3" y="201.353" width="130.407" height="35.0749" rx="8.20778" stroke="#E6E6E6" stroke-width="0.899357"/>
<path d="M301.276 223.079C298.657 223.079 297.133 221.027 297.133 218.408C297.133 215.789 298.657 213.737 301.276 213.737C303.177 213.737 304.675 214.958 304.914 216.595H303.315C303.013 215.588 302.295 215.034 301.238 215.034C299.702 215.034 298.732 216.394 298.732 218.408C298.732 220.423 299.702 221.795 301.238 221.795C302.308 221.795 303.038 221.191 303.353 220.095H304.94C304.738 221.808 303.215 223.079 301.276 223.079ZM308.899 223.079C307.023 223.079 305.726 221.72 305.726 219.705C305.726 217.703 307.023 216.331 308.899 216.331C310.775 216.331 312.072 217.703 312.072 219.705C312.072 221.72 310.775 223.079 308.899 223.079ZM308.899 221.934C309.944 221.934 310.586 221.065 310.586 219.705C310.586 218.37 309.944 217.476 308.899 217.476C307.854 217.476 307.212 218.37 307.212 219.705C307.212 221.065 307.854 221.934 308.899 221.934ZM316.307 216.444C316.458 216.444 316.571 216.457 316.647 216.469V217.816C316.558 217.804 316.432 217.804 316.281 217.804C315.236 217.804 314.682 218.509 314.682 219.693V222.891H313.222V216.532H314.569V217.665C314.833 216.973 315.362 216.444 316.307 216.444ZM320.684 216.444C320.835 216.444 320.948 216.457 321.024 216.469V217.816C320.936 217.804 320.81 217.804 320.659 217.804C319.614 217.804 319.06 218.509 319.06 219.693V222.891H317.599V216.532H318.946V217.665C319.211 216.973 319.74 216.444 320.684 216.444ZM327.582 219.491L327.557 220.058H322.999C323.099 221.153 323.641 221.934 324.698 221.934C325.303 221.934 325.857 221.644 326.083 220.914H327.531C327.204 222.362 326.046 223.079 324.736 223.079C322.759 223.079 321.563 221.757 321.563 219.743C321.563 217.779 322.722 216.331 324.636 216.331C326.411 216.331 327.582 217.577 327.582 219.491ZM324.61 217.426C323.716 217.426 323.188 218.068 323.036 219.025H326.121C326.071 218.056 325.517 217.426 324.61 217.426ZM331.51 223.079C329.696 223.079 328.412 221.783 328.412 219.705C328.412 217.628 329.696 216.331 331.522 216.331C332.706 216.331 334.003 216.998 334.217 218.496H332.819C332.643 217.879 332.189 217.476 331.484 217.476C330.414 217.476 329.898 218.522 329.898 219.705C329.898 220.901 330.427 221.934 331.459 221.934C332.177 221.934 332.655 221.531 332.832 220.775H334.254C334.04 222.412 332.706 223.079 331.51 223.079ZM338.401 217.577H337.268V221.052C337.268 221.468 337.394 221.745 337.986 221.745C338.124 221.745 338.288 221.732 338.401 221.707V222.891C338.25 222.928 338.049 222.941 337.721 222.941C336.235 222.941 335.807 222.248 335.807 221.065V217.577H334.838V216.532H335.807V214.53H337.268V216.532H338.401V217.577Z" fill="#22AC00"/>
<path d="M399.169 221.589L394.672 217.092L395.302 216.462L399.169 220.33L403.036 216.462L403.666 217.092L399.169 221.589Z" fill="#4D4D4D"/>
<path d="M441.757 217.991C442.024 217.991 442.285 217.912 442.507 217.764C442.728 217.616 442.901 217.405 443.003 217.159C443.106 216.912 443.132 216.641 443.08 216.379C443.028 216.117 442.9 215.877 442.711 215.688C442.522 215.5 442.282 215.371 442.02 215.319C441.759 215.267 441.487 215.294 441.241 215.396C440.994 215.498 440.784 215.671 440.635 215.893C440.487 216.115 440.408 216.375 440.408 216.642C440.408 217 440.55 217.343 440.803 217.596C441.056 217.849 441.399 217.991 441.757 217.991V217.991ZM441.757 216.193C441.846 216.193 441.933 216.219 442.007 216.268C442.081 216.318 442.139 216.388 442.173 216.47C442.207 216.552 442.216 216.643 442.198 216.73C442.181 216.817 442.138 216.897 442.075 216.96C442.012 217.023 441.932 217.066 441.845 217.083C441.758 217.101 441.667 217.092 441.585 217.058C441.503 217.024 441.433 216.966 441.383 216.892C441.334 216.818 441.307 216.731 441.307 216.642C441.307 216.523 441.355 216.409 441.439 216.324C441.523 216.24 441.638 216.193 441.757 216.193Z" fill="#999999"/>
<path d="M444.905 213.495H435.911C435.673 213.495 435.444 213.589 435.275 213.758C435.107 213.927 435.012 214.155 435.012 214.394V223.388C435.012 223.626 435.107 223.855 435.275 224.023C435.444 224.192 435.673 224.287 435.911 224.287H444.905C445.143 224.287 445.372 224.192 445.541 224.023C445.709 223.855 445.804 223.626 445.804 223.388V214.394C445.804 214.155 445.709 213.927 445.541 213.758C445.372 213.589 445.143 213.495 444.905 213.495V213.495ZM444.905 223.388H435.911V220.689L438.16 218.441L440.673 220.955C440.842 221.122 441.07 221.216 441.307 221.216C441.545 221.216 441.773 221.122 441.942 220.955L442.656 220.24L444.905 222.488V223.388ZM444.905 221.216L443.291 219.601C443.122 219.434 442.894 219.34 442.656 219.34C442.419 219.34 442.191 219.434 442.022 219.601L441.307 220.316L438.794 217.803C438.625 217.635 438.397 217.541 438.16 217.541C437.922 217.541 437.694 217.635 437.526 217.803L435.911 219.417V214.394H444.905V221.216Z" fill="#999999"/>
<path fill-rule="evenodd" clip-rule="evenodd" d="M458.395 226.086V211.696H459.295V226.086H458.395Z" fill="#F2F2F2"/>
<g clip-path="url(#clip3_5_1560)">
<path d="M476.382 217.092H475.483V222.488H476.382V217.092Z" fill="#999999"/>
<path d="M479.081 217.092H478.181V222.488H479.081V217.092Z" fill="#999999"/>
<path d="M471.886 214.394V215.293H472.785V224.287C472.785 224.525 472.88 224.754 473.048 224.923C473.217 225.091 473.446 225.186 473.684 225.186H480.879C481.118 225.186 481.346 225.091 481.515 224.923C481.684 224.754 481.779 224.525 481.779 224.287V215.293H482.678V214.394H471.886ZM473.684 224.287V215.293H480.879V224.287H473.684Z" fill="#999999"/>
<path d="M479.08 212.595H475.483V213.495H479.08V212.595Z" fill="#999999"/>
</g>
<rect x="42.5361" y="280.053" width="107.169" height="28.7923" rx="14.3961" fill="#14AAFF" fill-opacity="0.1"/>
<path d="M58.7245 291.302H64.2039L62.5907 289.689L63.2213 289.053L65.9194 291.752L63.2213 294.45L62.5907 293.813L64.2025 292.201H58.7245C58.0089 292.201 57.3227 292.485 56.8167 292.991C56.3107 293.497 56.0264 294.184 56.0264 294.899C56.0264 295.615 56.3107 296.301 56.8167 296.807C57.3227 297.313 58.0089 297.597 58.7245 297.597H62.3219V298.497H58.7245C57.7704 298.497 56.8554 298.118 56.1807 297.443C55.5061 296.768 55.1271 295.853 55.1271 294.899C55.1271 293.945 55.5061 293.03 56.1807 292.356C56.8554 291.681 57.7704 291.302 58.7245 291.302V291.302Z" fill="#14AAFF"/>
<path d="M80.9333 298H79.1705L77.2063 294.499H75.5821V298H74.0082V289.06H77.8107C79.4979 289.06 80.757 290.143 80.757 291.792C80.757 293.102 79.9512 294.046 78.7802 294.374L80.9333 298ZM77.5967 293.228C78.541 293.228 79.1957 292.712 79.1957 291.792C79.1957 290.861 78.541 290.344 77.5967 290.344H75.5695V293.228H77.5967ZM87.5283 294.6L87.5031 295.167H82.9452C83.0459 296.262 83.5873 297.043 84.645 297.043C85.2493 297.043 85.8033 296.753 86.03 296.023H87.4779C87.1506 297.471 85.9922 298.189 84.6827 298.189C82.7059 298.189 81.5098 296.867 81.5098 294.852C81.5098 292.888 82.6682 291.44 84.582 291.44C86.3573 291.44 87.5283 292.686 87.5283 294.6ZM84.5568 292.535C83.6629 292.535 83.134 293.177 82.9829 294.134H86.0677C86.0174 293.165 85.4634 292.535 84.5568 292.535ZM92.9795 291.641H94.3267V297.672C94.3267 299.498 93.0928 300.442 91.4056 300.442C89.794 300.442 88.7363 299.637 88.5097 298.403H90.008C90.1213 298.919 90.5494 299.334 91.393 299.334C92.2996 299.334 92.8914 298.881 92.8914 297.71V296.942C92.5136 297.521 91.9093 297.874 91.0279 297.874C89.4918 297.874 88.3334 296.59 88.3334 294.651C88.3334 292.724 89.517 291.44 91.0531 291.44C91.9974 291.44 92.6144 291.843 92.9795 292.485V291.641ZM91.3553 296.703C92.2618 296.703 92.9543 295.922 92.9543 294.651C92.9543 293.379 92.2618 292.611 91.3679 292.611C90.4487 292.611 89.8066 293.429 89.8066 294.651C89.8066 295.884 90.4487 296.703 91.3553 296.703ZM101.496 294.6L101.471 295.167H96.9133C97.014 296.262 97.5554 297.043 98.6131 297.043C99.2175 297.043 99.7715 296.753 99.9981 296.023H101.446C101.119 297.471 99.9603 298.189 98.6509 298.189C96.6741 298.189 95.4779 296.867 95.4779 294.852C95.4779 292.888 96.6363 291.44 98.5501 291.44C100.325 291.44 101.496 292.686 101.496 294.6ZM98.525 292.535C97.631 292.535 97.1022 293.177 96.9511 294.134H100.036C99.9855 293.165 99.4315 292.535 98.525 292.535ZM105.89 291.44C107.313 291.44 108.093 292.346 108.093 293.769V298H106.633V294.097C106.633 293.127 106.205 292.623 105.424 292.623C104.656 292.623 104.102 293.253 104.102 294.122V298H102.642V291.641H103.989V292.497C104.341 291.868 104.996 291.44 105.89 291.44ZM115.219 294.6L115.193 295.167H110.636C110.736 296.262 111.278 297.043 112.335 297.043C112.94 297.043 113.494 296.753 113.72 296.023H115.168C114.841 297.471 113.683 298.189 112.373 298.189C110.396 298.189 109.2 296.867 109.2 294.852C109.2 292.888 110.359 291.44 112.272 291.44C114.048 291.44 115.219 292.686 115.219 294.6ZM112.247 292.535C111.353 292.535 110.824 293.177 110.673 294.134H113.758C113.708 293.165 113.154 292.535 112.247 292.535ZM119.449 291.553C119.6 291.553 119.713 291.566 119.788 291.578V292.926C119.7 292.913 119.574 292.913 119.423 292.913C118.378 292.913 117.824 293.618 117.824 294.802V298H116.364V291.641H117.711V292.774C117.975 292.082 118.504 291.553 119.449 291.553ZM123.075 291.427C124.763 291.427 125.694 292.346 125.694 293.769V298H124.372V297.207C124.032 297.798 123.39 298.201 122.446 298.201C121.288 298.201 120.28 297.496 120.28 296.275C120.28 294.852 121.426 294.122 124.309 294.021V293.782C124.309 292.938 123.843 292.51 123.063 292.51C122.282 292.51 121.879 293.014 121.829 293.53H120.431C120.532 292.435 121.413 291.427 123.075 291.427ZM122.761 297.106C123.604 297.106 124.309 296.602 124.309 295.545V294.978C122.421 295.053 121.678 295.469 121.678 296.212C121.678 296.728 122.119 297.106 122.761 297.106ZM130.01 292.686H128.876V296.161C128.876 296.577 129.002 296.854 129.594 296.854C129.733 296.854 129.896 296.841 130.01 296.816V298C129.858 298.038 129.657 298.05 129.33 298.05C127.844 298.05 127.416 297.358 127.416 296.174V292.686H126.446V291.641H127.416V289.639H128.876V291.641H130.01V292.686ZM136.675 294.6L136.65 295.167H132.092C132.193 296.262 132.734 297.043 133.792 297.043C134.396 297.043 134.95 296.753 135.177 296.023H136.625C136.297 297.471 135.139 298.189 133.829 298.189C131.853 298.189 130.656 296.867 130.656 294.852C130.656 292.888 131.815 291.44 133.729 291.44C135.504 291.44 136.675 292.686 136.675 294.6ZM133.704 292.535C132.81 292.535 132.281 293.177 132.13 294.134H135.214C135.164 293.165 134.61 292.535 133.704 292.535Z" fill="#14AAFF"/>
<rect x="292.717" y="280.053" width="105.169" height="28.7923" rx="14.3961" fill="#14AAFF" fill-opacity="0.1"/>
<g clip-path="url(#clip4_5_1560)">
<path d="M311.153 293.55V290.402H310.254V293.55H307.106V294.449H310.254V297.597H311.153V294.449H314.301V293.55H311.153Z" fill="#14AAFF"/>
</g>
<path d="M330.043 298L329.288 295.771H325.725L324.982 298H323.446L326.568 289.06H328.545L331.668 298H330.043ZM326.153 294.499H328.86L327.513 290.47L326.153 294.499ZM336.755 289.06H338.215V298H336.855V297.03C336.465 297.748 335.81 298.176 334.828 298.176C333.254 298.176 332.096 296.867 332.096 294.814C332.096 292.774 333.229 291.452 334.816 291.452C335.722 291.452 336.352 291.83 336.755 292.46V289.06ZM335.168 296.992C336.087 296.992 336.805 296.224 336.805 294.814C336.805 293.429 336.113 292.623 335.156 292.623C334.186 292.623 333.569 293.48 333.569 294.814C333.569 296.149 334.224 296.992 335.168 296.992ZM344.022 289.06H345.482V298H344.122V297.03C343.732 297.748 343.077 298.176 342.095 298.176C340.521 298.176 339.363 296.867 339.363 294.814C339.363 292.774 340.496 291.452 342.083 291.452C342.989 291.452 343.619 291.83 344.022 292.46V289.06ZM342.435 296.992C343.354 296.992 344.072 296.224 344.072 294.814C344.072 293.429 343.379 292.623 342.422 292.623C341.453 292.623 340.836 293.48 340.836 294.814C340.836 296.149 341.491 296.992 342.435 296.992ZM352.704 298.189C350.828 298.189 349.532 296.829 349.532 294.814C349.532 292.812 350.828 291.44 352.704 291.44C354.581 291.44 355.877 292.812 355.877 294.814C355.877 296.829 354.581 298.189 352.704 298.189ZM352.704 297.043C353.75 297.043 354.392 296.174 354.392 294.814C354.392 293.48 353.75 292.586 352.704 292.586C351.659 292.586 351.017 293.48 351.017 294.814C351.017 296.174 351.659 297.043 352.704 297.043ZM360.414 291.452C362.001 291.452 363.146 292.774 363.146 294.814C363.146 296.867 361.975 298.176 360.402 298.176C359.508 298.176 358.891 297.823 358.488 297.207V300.266H357.027V291.641H358.374V292.649C358.765 291.906 359.432 291.452 360.414 291.452ZM360.062 296.992C361.006 296.992 361.661 296.149 361.661 294.814C361.661 293.48 361.044 292.623 360.074 292.623C359.13 292.623 358.425 293.429 358.425 294.814C358.425 296.224 359.142 296.992 360.062 296.992ZM367.156 292.686H366.023V296.161C366.023 296.577 366.149 296.854 366.741 296.854C366.879 296.854 367.043 296.841 367.156 296.816V298C367.005 298.038 366.804 298.05 366.476 298.05C364.991 298.05 364.563 297.358 364.563 296.174V292.686H363.593V291.641H364.563V289.639H366.023V291.641H367.156V292.686ZM369.788 289.186V290.609H368.327V289.186H369.788ZM369.788 291.641V298H368.327V291.641H369.788ZM374.099 298.189C372.223 298.189 370.926 296.829 370.926 294.814C370.926 292.812 372.223 291.44 374.099 291.44C375.975 291.44 377.272 292.812 377.272 294.814C377.272 296.829 375.975 298.189 374.099 298.189ZM374.099 297.043C375.144 297.043 375.787 296.174 375.787 294.814C375.787 293.48 375.144 292.586 374.099 292.586C373.054 292.586 372.412 293.48 372.412 294.814C372.412 296.174 373.054 297.043 374.099 297.043ZM381.67 291.44C383.093 291.44 383.874 292.346 383.874 293.769V298H382.413V294.097C382.413 293.127 381.985 292.623 381.205 292.623C380.437 292.623 379.883 293.253 379.883 294.122V298H378.422V291.641H379.769V292.497C380.122 291.868 380.777 291.44 381.67 291.44Z" fill="#14AAFF"/>
<rect x="405.53" y="280.503" width="96.4839" height="27.8929" rx="13.9465" stroke="#14AAFF" stroke-opacity="0.1" stroke-width="0.899357"/>
<path d="M422.622 298L421.866 295.771H418.303L417.56 298H416.024L419.146 289.06H421.123L424.246 298H422.622ZM418.731 294.499H421.438L420.091 290.47L418.731 294.499ZM429.333 289.06H430.793V298H429.434V297.03C429.043 297.748 428.388 298.176 427.406 298.176C425.832 298.176 424.674 296.867 424.674 294.814C424.674 292.774 425.807 291.452 427.394 291.452C428.3 291.452 428.93 291.83 429.333 292.46V289.06ZM427.746 296.992C428.665 296.992 429.383 296.224 429.383 294.814C429.383 293.429 428.691 292.623 427.734 292.623C426.764 292.623 426.147 293.48 426.147 294.814C426.147 296.149 426.802 296.992 427.746 296.992ZM436.6 289.06H438.06V298H436.7V297.03C436.31 297.748 435.655 298.176 434.673 298.176C433.099 298.176 431.941 296.867 431.941 294.814C431.941 292.774 433.074 291.452 434.661 291.452C435.567 291.452 436.197 291.83 436.6 292.46V289.06ZM435.013 296.992C435.932 296.992 436.65 296.224 436.65 294.814C436.65 293.429 435.958 292.623 435.001 292.623C434.031 292.623 433.414 293.48 433.414 294.814C433.414 296.149 434.069 296.992 435.013 296.992ZM446.391 291.641H447.902L445.799 298H443.973L441.896 291.641H443.432L444.917 296.552L446.391 291.641ZM451.337 291.427C453.024 291.427 453.956 292.346 453.956 293.769V298H452.634V297.207C452.294 297.798 451.652 298.201 450.708 298.201C449.549 298.201 448.542 297.496 448.542 296.275C448.542 294.852 449.688 294.122 452.571 294.021V293.782C452.571 292.938 452.105 292.51 451.325 292.51C450.544 292.51 450.141 293.014 450.091 293.53H448.693C448.794 292.435 449.675 291.427 451.337 291.427ZM451.022 297.106C451.866 297.106 452.571 296.602 452.571 295.545V294.978C450.682 295.053 449.94 295.469 449.94 296.212C449.94 296.728 450.38 297.106 451.022 297.106ZM458.469 291.553C458.62 291.553 458.734 291.566 458.809 291.578V292.926C458.721 292.913 458.595 292.913 458.444 292.913C457.399 292.913 456.845 293.618 456.845 294.802V298H455.384V291.641H456.732V292.774C456.996 292.082 457.525 291.553 458.469 291.553ZM461.222 289.186V290.609H459.762V289.186H461.222ZM461.222 291.641V298H459.762V291.641H461.222ZM465.219 291.427C466.906 291.427 467.838 292.346 467.838 293.769V298H466.516V297.207C466.176 297.798 465.534 298.201 464.59 298.201C463.431 298.201 462.424 297.496 462.424 296.275C462.424 294.852 463.57 294.122 466.453 294.021V293.782C466.453 292.938 465.987 292.51 465.207 292.51C464.426 292.51 464.023 293.014 463.973 293.53H462.575C462.676 292.435 463.557 291.427 465.219 291.427ZM464.904 297.106C465.748 297.106 466.453 296.602 466.453 295.545V294.978C464.564 295.053 463.822 295.469 463.822 296.212C463.822 296.728 464.262 297.106 464.904 297.106ZM472.153 292.686H471.02V296.161C471.02 296.577 471.146 296.854 471.738 296.854C471.876 296.854 472.04 296.841 472.153 296.816V298C472.002 298.038 471.801 298.05 471.473 298.05C469.988 298.05 469.56 297.358 469.56 296.174V292.686H468.59V291.641H469.56V289.639H471.02V291.641H472.153V292.686ZM474.785 289.186V290.609H473.324V289.186H474.785ZM474.785 291.641V298H473.324V291.641H474.785ZM479.096 298.189C477.22 298.189 475.923 296.829 475.923 294.814C475.923 292.812 477.22 291.44 479.096 291.44C480.972 291.44 482.269 292.812 482.269 294.814C482.269 296.829 480.972 298.189 479.096 298.189ZM479.096 297.043C480.141 297.043 480.784 296.174 480.784 294.814C480.784 293.48 480.141 292.586 479.096 292.586C478.051 292.586 477.409 293.48 477.409 294.814C477.409 296.174 478.051 297.043 479.096 297.043ZM486.667 291.44C488.09 291.44 488.871 292.346 488.871 293.769V298H487.41V294.097C487.41 293.127 486.982 292.623 486.202 292.623C485.434 292.623 484.88 293.253 484.88 294.122V298H483.419V291.641H484.766V292.497C485.119 291.868 485.773 291.44 486.667 291.44Z" fill="#14AAFF"/>
</g>
<defs>
<clipPath id="clip0_5_1560">
<rect width="545" height="354" fill="white"/>
</clipPath>
<clipPath id="clip1_5_1560">
<rect width="14.3897" height="14.3897" fill="white" transform="translate(53.3295 78.572)"/>
</clipPath>
<clipPath id="clip2_5_1560">
<rect width="14.3897" height="14.3897" fill="white" transform="translate(470.087 139.734)"/>
</clipPath>
<clipPath id="clip3_5_1560">
<rect width="14.3897" height="14.3897" fill="white" transform="translate(470.087 211.696)"/>
</clipPath>
<clipPath id="clip4_5_1560">
<rect width="14.3897" height="14.3897" fill="white" transform="translate(303.509 286.805)"/>
</clipPath>
</defs>
</svg>
