<svg width="545" height="354" viewBox="0 0 545 354" fill="none" xmlns="http://www.w3.org/2000/svg">
<g clip-path="url(#clip0_7_3794)">
<mask id="mask0_7_3794" style="mask-type:alpha" maskUnits="userSpaceOnUse" x="0" y="-112" width="545" height="466">
<rect y="-112" width="545" height="466" fill="black"/>
</mask>
<g mask="url(#mask0_7_3794)">
<path d="M119.177 105.099H122.677L116.377 124.979H111.757L105.485 105.099H109.097L114.137 121.955L119.177 105.099ZM135.499 117.419L135.443 118.679H125.307C125.531 121.115 126.735 122.851 129.087 122.851C130.431 122.851 131.663 122.207 132.167 120.583H135.387C134.659 123.803 132.083 125.399 129.171 125.399C124.775 125.399 122.115 122.459 122.115 117.979C122.115 113.611 124.691 110.391 128.947 110.391C132.895 110.391 135.499 113.163 135.499 117.419ZM128.891 112.827C126.903 112.827 125.727 114.255 125.391 116.383H132.251C132.139 114.227 130.907 112.827 128.891 112.827ZM144.626 110.643C144.962 110.643 145.214 110.671 145.382 110.699V113.695C145.186 113.667 144.906 113.667 144.57 113.667C142.246 113.667 141.014 115.235 141.014 117.867V124.979H137.766V110.839H140.762V113.359C141.35 111.819 142.526 110.643 144.626 110.643ZM150.035 130.159C149.503 130.159 148.943 130.075 148.523 129.935V127.387C148.803 127.471 149.251 127.555 149.671 127.555C150.791 127.555 151.351 127.219 151.715 126.099L151.771 125.931L146.563 110.839H149.979L153.395 121.731L156.643 110.839H159.919L154.627 126.547C153.703 129.291 152.415 130.159 150.035 130.159ZM177.154 110.839H180.15V124.251C180.15 128.311 177.406 130.411 173.654 130.411C170.07 130.411 167.718 128.619 167.214 125.875H170.546C170.798 127.023 171.75 127.947 173.626 127.947C175.642 127.947 176.958 126.939 176.958 124.335V122.627C176.118 123.915 174.774 124.699 172.814 124.699C169.398 124.699 166.822 121.843 166.822 117.531C166.822 113.247 169.454 110.391 172.87 110.391C174.97 110.391 176.342 111.287 177.154 112.715V110.839ZM173.542 122.095C175.558 122.095 177.098 120.359 177.098 117.531C177.098 114.703 175.558 112.995 173.57 112.995C171.526 112.995 170.098 114.815 170.098 117.531C170.098 120.275 171.526 122.095 173.542 122.095ZM189.486 125.399C185.314 125.399 182.43 122.375 182.43 117.895C182.43 113.443 185.314 110.391 189.486 110.391C193.658 110.391 196.542 113.443 196.542 117.895C196.542 122.375 193.658 125.399 189.486 125.399ZM189.486 122.851C191.81 122.851 193.238 120.919 193.238 117.895C193.238 114.927 191.81 112.939 189.486 112.939C187.162 112.939 185.734 114.927 185.734 117.895C185.734 120.919 187.162 122.851 189.486 122.851ZM205.312 125.399C201.14 125.399 198.256 122.375 198.256 117.895C198.256 113.443 201.14 110.391 205.312 110.391C209.484 110.391 212.368 113.443 212.368 117.895C212.368 122.375 209.484 125.399 205.312 125.399ZM205.312 122.851C207.636 122.851 209.064 120.919 209.064 117.895C209.064 114.927 207.636 112.939 205.312 112.939C202.988 112.939 201.56 114.927 201.56 117.895C201.56 120.919 202.988 122.851 205.312 122.851ZM224.441 105.099H227.689V124.979H224.665V122.823C223.797 124.419 222.341 125.371 220.157 125.371C216.657 125.371 214.081 122.459 214.081 117.895C214.081 113.359 216.601 110.419 220.129 110.419C222.145 110.419 223.545 111.259 224.441 112.659V105.099ZM220.913 122.739C222.957 122.739 224.553 121.031 224.553 117.895C224.553 114.815 223.013 113.023 220.885 113.023C218.729 113.023 217.357 114.927 217.357 117.895C217.357 120.863 218.813 122.739 220.913 122.739ZM232.117 118.875L231.333 111.091V105.099H234.889V111.091L234.105 118.875H232.117ZM231.305 124.979V121.227H234.917V124.979H231.305ZM254.398 114.367C256.638 115.235 257.982 117.027 257.982 119.463C257.982 122.823 255.35 125.455 250.814 125.455C246.278 125.455 243.618 122.823 243.618 119.463C243.618 116.999 244.99 115.207 247.258 114.339C245.578 113.555 244.486 112.099 244.486 110.083C244.486 107.003 247.09 104.651 250.814 104.651C254.566 104.651 257.17 107.003 257.17 110.083C257.17 112.099 256.106 113.555 254.398 114.367ZM250.814 107.227C248.882 107.227 247.65 108.515 247.65 110.139C247.65 111.847 248.91 113.135 250.814 113.135C252.718 113.135 253.978 111.847 253.978 110.139C253.978 108.515 252.746 107.227 250.814 107.227ZM250.814 122.739C253.166 122.739 254.594 121.199 254.594 119.267C254.594 117.251 253.194 115.655 250.814 115.655C248.434 115.655 247.034 117.279 247.034 119.267C247.034 121.199 248.462 122.739 250.814 122.739ZM266.277 104.791C270.617 104.791 273.389 108.151 273.389 114.087C273.389 120.555 271.093 125.483 265.941 125.483C261.993 125.483 260.033 122.739 259.697 120.247H263.001C263.253 121.591 264.121 122.767 265.941 122.767C268.293 122.767 269.889 120.471 270.001 115.655C269.161 117.251 267.705 118.231 265.605 118.231C261.881 118.231 259.501 115.179 259.501 111.623C259.501 108.151 261.825 104.791 266.277 104.791ZM266.277 115.655C268.405 115.655 269.917 113.975 269.917 111.567C269.917 109.271 268.405 107.479 266.277 107.479C264.149 107.479 262.777 109.215 262.777 111.567C262.777 113.975 264.149 115.655 266.277 115.655ZM280.228 104.735C282.832 104.735 284.792 106.611 284.792 109.327C284.792 112.099 282.832 113.947 280.228 113.947C277.652 113.947 275.692 112.099 275.692 109.327C275.692 106.611 277.652 104.735 280.228 104.735ZM291.036 105.099H293.78L280.368 124.979H277.652L291.036 105.099ZM280.228 106.723C278.828 106.723 277.96 107.871 277.96 109.327C277.96 110.839 278.828 111.931 280.228 111.931C281.656 111.931 282.524 110.839 282.524 109.327C282.524 107.871 281.656 106.723 280.228 106.723ZM291.12 116.159C293.724 116.159 295.684 118.035 295.684 120.751C295.684 123.523 293.724 125.371 291.12 125.371C288.544 125.371 286.584 123.523 286.584 120.751C286.584 118.035 288.544 116.159 291.12 116.159ZM291.12 118.147C289.72 118.147 288.852 119.295 288.852 120.751C288.852 122.263 289.72 123.355 291.12 123.355C292.548 123.355 293.416 122.263 293.416 120.751C293.416 119.295 292.548 118.147 291.12 118.147ZM310.802 125.399C306.77 125.399 303.914 122.515 303.914 117.895C303.914 113.275 306.77 110.391 310.83 110.391C313.462 110.391 316.346 111.875 316.822 115.207H313.714C313.322 113.835 312.314 112.939 310.746 112.939C308.366 112.939 307.218 115.263 307.218 117.895C307.218 120.555 308.394 122.851 310.69 122.851C312.286 122.851 313.35 121.955 313.742 120.275H316.906C316.43 123.915 313.462 125.399 310.802 125.399ZM325.21 125.399C321.038 125.399 318.154 122.375 318.154 117.895C318.154 113.443 321.038 110.391 325.21 110.391C329.382 110.391 332.266 113.443 332.266 117.895C332.266 122.375 329.382 125.399 325.21 125.399ZM325.21 122.851C327.534 122.851 328.962 120.919 328.962 117.895C328.962 114.927 327.534 112.939 325.21 112.939C322.886 112.939 321.458 114.927 321.458 117.895C321.458 120.919 322.886 122.851 325.21 122.851ZM341.767 110.391C344.931 110.391 346.667 112.407 346.667 115.571V124.979H343.419V116.299C343.419 114.143 342.467 113.023 340.731 113.023C339.023 113.023 337.791 114.423 337.791 116.355V124.979H334.543V110.839H337.539V112.743C338.323 111.343 339.779 110.391 341.767 110.391ZM358.012 110.839H361.372L356.696 124.979H352.636L348.016 110.839H351.432L354.736 121.759L358.012 110.839ZM366.379 105.379V108.543H363.131V105.379H366.379ZM366.379 110.839V124.979H363.131V110.839H366.379ZM376.555 110.391C379.719 110.391 381.455 112.407 381.455 115.571V124.979H378.207V116.299C378.207 114.143 377.255 113.023 375.519 113.023C373.811 113.023 372.579 114.423 372.579 116.355V124.979H369.331V110.839H372.327V112.743C373.111 111.343 374.567 110.391 376.555 110.391ZM390.525 125.399C386.493 125.399 383.637 122.515 383.637 117.895C383.637 113.275 386.493 110.391 390.553 110.391C393.185 110.391 396.069 111.875 396.545 115.207H393.437C393.045 113.835 392.037 112.939 390.469 112.939C388.089 112.939 386.941 115.263 386.941 117.895C386.941 120.555 388.117 122.851 390.413 122.851C392.009 122.851 393.073 121.955 393.465 120.275H396.629C396.153 123.915 393.185 125.399 390.525 125.399ZM401.961 105.379V108.543H398.713V105.379H401.961ZM401.961 110.839V124.979H398.713V110.839H401.961ZM412.137 110.391C415.301 110.391 417.037 112.407 417.037 115.571V124.979H413.789V116.299C413.789 114.143 412.837 113.023 411.101 113.023C409.393 113.023 408.161 114.423 408.161 116.355V124.979H404.913V110.839H407.909V112.743C408.693 111.343 410.149 110.391 412.137 110.391ZM429.494 110.839H432.49V124.251C432.49 128.311 429.746 130.411 425.994 130.411C422.41 130.411 420.058 128.619 419.554 125.875H422.886C423.138 127.023 424.09 127.947 425.966 127.947C427.982 127.947 429.298 126.939 429.298 124.335V122.627C428.458 123.915 427.114 124.699 425.154 124.699C421.738 124.699 419.162 121.843 419.162 117.531C419.162 113.247 421.794 110.391 425.21 110.391C427.31 110.391 428.682 111.287 429.494 112.715V110.839ZM425.882 122.095C427.898 122.095 429.438 120.359 429.438 117.531C429.438 114.703 427.898 112.995 425.91 112.995C423.866 112.995 422.438 114.815 422.438 117.531C422.438 120.275 423.866 122.095 425.882 122.095ZM438.914 121.227V124.979H435.302V121.227H438.914Z" fill="white" fill-opacity="0.9"/>
<path d="M130.745 162.702L129.521 159.156H124.229L123.023 162.702H121.349L125.867 149.922H127.973L132.491 162.702H130.745ZM124.697 157.806H129.071L126.875 151.452L124.697 157.806ZM138.866 153.828H140.486L137.48 162.702H135.518L132.548 153.828H134.204L136.544 161.19L138.866 153.828ZM145.646 162.954C143.108 162.954 141.362 161.046 141.362 158.274C141.362 155.484 143.108 153.558 145.646 153.558C148.184 153.558 149.948 155.484 149.948 158.274C149.948 161.046 148.184 162.954 145.646 162.954ZM145.646 161.712C147.302 161.712 148.328 160.326 148.328 158.274C148.328 156.222 147.302 154.8 145.646 154.8C143.99 154.8 142.982 156.222 142.982 158.274C142.982 160.326 143.99 161.712 145.646 161.712ZM153.346 150.246V152.1H151.762V150.246H153.346ZM153.346 153.828V162.702H151.762V153.828H153.346ZM161.82 149.922H163.404V162.702H161.928V161.19C161.37 162.288 160.416 162.936 158.976 162.936C156.78 162.936 155.178 161.082 155.178 158.274C155.178 155.448 156.744 153.594 158.958 153.594C160.308 153.594 161.244 154.188 161.82 155.196V149.922ZM159.264 161.658C160.758 161.658 161.874 160.452 161.874 158.274C161.874 156.096 160.758 154.836 159.246 154.836C157.752 154.836 156.78 156.222 156.78 158.274C156.78 160.308 157.788 161.658 159.264 161.658ZM167.321 150.246V152.1H165.737V150.246H167.321ZM167.321 153.828V162.702H165.737V153.828H167.321ZM173.869 153.558C175.867 153.558 176.929 154.872 176.929 156.834V162.702H175.345V157.176C175.345 155.61 174.625 154.836 173.401 154.836C172.177 154.836 171.241 155.88 171.241 157.194V162.702H169.657V153.828H171.133V155.124C171.637 154.17 172.591 153.558 173.869 153.558ZM185.286 153.828H186.762V162.396C186.762 164.808 185.196 166.176 182.838 166.176C180.714 166.176 179.31 165.078 178.986 163.476H180.624C180.822 164.268 181.47 164.97 182.838 164.97C184.242 164.97 185.214 164.25 185.214 162.45V161.028C184.656 162 183.756 162.594 182.424 162.594C180.264 162.594 178.698 160.794 178.698 158.076C178.698 155.394 180.318 153.576 182.478 153.576C183.846 153.576 184.764 154.188 185.286 155.196V153.828ZM182.712 161.352C184.17 161.352 185.268 160.128 185.268 158.076C185.268 156.024 184.188 154.836 182.748 154.836C181.29 154.836 180.3 156.15 180.3 158.076C180.3 160.02 181.272 161.352 182.712 161.352ZM194.831 149.922V162.702H193.247V149.922H194.831ZM200.929 162.954C198.391 162.954 196.645 161.046 196.645 158.274C196.645 155.484 198.391 153.558 200.929 153.558C203.467 153.558 205.231 155.484 205.231 158.274C205.231 161.046 203.467 162.954 200.929 162.954ZM200.929 161.712C202.585 161.712 203.611 160.326 203.611 158.274C203.611 156.222 202.585 154.8 200.929 154.8C199.273 154.8 198.265 156.222 198.265 158.274C198.265 160.326 199.273 161.712 200.929 161.712ZM211.258 153.558C213.256 153.558 214.318 154.872 214.318 156.834V162.702H212.734V157.176C212.734 155.61 212.014 154.836 210.79 154.836C209.566 154.836 208.63 155.88 208.63 157.194V162.702H207.046V153.828H208.522V155.124C209.026 154.17 209.98 153.558 211.258 153.558ZM222.675 153.828H224.151V162.396C224.151 164.808 222.585 166.176 220.227 166.176C218.103 166.176 216.699 165.078 216.375 163.476H218.013C218.211 164.268 218.859 164.97 220.227 164.97C221.631 164.97 222.603 164.25 222.603 162.45V161.028C222.045 162 221.145 162.594 219.813 162.594C217.653 162.594 216.087 160.794 216.087 158.076C216.087 155.394 217.707 153.576 219.867 153.576C221.235 153.576 222.153 154.188 222.675 155.196V153.828ZM220.101 161.352C221.559 161.352 222.657 160.128 222.657 158.076C222.657 156.024 221.577 154.836 220.137 154.836C218.679 154.836 217.689 156.15 217.689 158.076C217.689 160.02 218.661 161.352 220.101 161.352ZM234.083 157.878L234.047 158.544H227.513C227.603 160.308 228.449 161.712 230.231 161.712C231.221 161.712 232.067 161.208 232.409 160.056H234.011C233.579 161.802 232.193 162.954 230.231 162.954C227.567 162.954 225.965 161.1 225.965 158.328C225.965 155.538 227.549 153.558 230.105 153.558C232.517 153.558 234.083 155.304 234.083 157.878ZM230.087 154.764C228.701 154.764 227.783 155.754 227.567 157.392H232.499C232.427 155.826 231.545 154.764 230.087 154.764ZM239.832 153.72C240.048 153.72 240.21 153.738 240.3 153.756V155.178C240.192 155.16 240.03 155.16 239.85 155.16C238.374 155.16 237.528 156.204 237.528 157.986V162.702H235.944V153.828H237.42V155.394C237.816 154.44 238.59 153.72 239.832 153.72ZM250.357 153.594C252.571 153.594 254.137 155.448 254.137 158.274C254.137 161.082 252.535 162.936 250.339 162.936C248.917 162.936 247.945 162.306 247.387 161.208V162.702H245.911V149.922H247.495V155.178C248.071 154.188 249.025 153.594 250.357 153.594ZM250.033 161.658C251.509 161.658 252.517 160.308 252.517 158.274C252.517 156.222 251.545 154.836 250.051 154.836C248.539 154.836 247.423 156.096 247.423 158.274C247.423 160.452 248.557 161.658 250.033 161.658ZM259.836 153.72C260.052 153.72 260.214 153.738 260.304 153.756V155.178C260.196 155.16 260.034 155.16 259.854 155.16C258.378 155.16 257.532 156.204 257.532 157.986V162.702H255.948V153.828H257.424V155.394C257.82 154.44 258.594 153.72 259.836 153.72ZM269.169 157.878L269.133 158.544H262.599C262.689 160.308 263.535 161.712 265.317 161.712C266.307 161.712 267.153 161.208 267.495 160.056H269.097C268.665 161.802 267.279 162.954 265.317 162.954C262.653 162.954 261.051 161.1 261.051 158.328C261.051 155.538 262.635 153.558 265.191 153.558C267.603 153.558 269.169 155.304 269.169 157.878ZM265.173 154.764C263.787 154.764 262.869 155.754 262.653 157.392H267.585C267.513 155.826 266.631 154.764 265.173 154.764ZM274.237 153.54C276.487 153.54 277.747 154.782 277.747 156.726V162.702H276.289V161.514C275.767 162.432 274.795 162.972 273.517 162.972C271.897 162.972 270.493 162.018 270.493 160.326C270.493 158.418 272.059 157.32 276.217 157.212V156.726C276.217 155.394 275.461 154.728 274.237 154.728C272.977 154.728 272.347 155.52 272.257 156.366H270.709C270.889 154.836 272.131 153.54 274.237 153.54ZM273.841 161.784C275.191 161.784 276.217 160.92 276.217 159.462V158.31C273.139 158.382 272.023 159.084 272.023 160.272C272.023 161.154 272.779 161.784 273.841 161.784ZM287.176 162.702H285.304L281.596 158.058V162.702H280.012V149.922H281.596V157.68L285.052 153.828H286.888L283.216 157.806L287.176 162.702ZM291.387 162.954C289.281 162.954 287.751 161.802 287.625 160.038H289.191C289.317 161.136 290.343 161.766 291.405 161.766C292.521 161.766 293.349 161.19 293.349 160.236C293.349 159.282 292.575 159.012 291.009 158.706C288.669 158.256 287.931 157.5 287.931 156.186C287.931 154.746 289.227 153.54 291.207 153.54C292.971 153.54 294.465 154.53 294.609 156.15H293.097C292.953 155.34 292.233 154.728 291.171 154.728C290.055 154.728 289.461 155.322 289.461 156.078C289.461 156.852 290.109 157.176 291.639 157.464C293.997 157.896 294.879 158.652 294.879 160.128C294.879 161.82 293.475 162.954 291.387 162.954ZM304.032 153.54C306.282 153.54 307.542 154.782 307.542 156.726V162.702H306.084V161.514C305.562 162.432 304.59 162.972 303.312 162.972C301.692 162.972 300.288 162.018 300.288 160.326C300.288 158.418 301.854 157.32 306.012 157.212V156.726C306.012 155.394 305.256 154.728 304.032 154.728C302.772 154.728 302.142 155.52 302.052 156.366H300.504C300.684 154.836 301.926 153.54 304.032 153.54ZM303.636 161.784C304.986 161.784 306.012 160.92 306.012 159.462V158.31C302.934 158.382 301.818 159.084 301.818 160.272C301.818 161.154 302.574 161.784 303.636 161.784ZM314.019 153.558C316.017 153.558 317.079 154.872 317.079 156.834V162.702H315.495V157.176C315.495 155.61 314.775 154.836 313.551 154.836C312.327 154.836 311.391 155.88 311.391 157.194V162.702H309.807V153.828H311.283V155.124C311.787 154.17 312.741 153.558 314.019 153.558ZM325.49 149.922H327.074V162.702H325.598V161.19C325.04 162.288 324.086 162.936 322.646 162.936C320.45 162.936 318.848 161.082 318.848 158.274C318.848 155.448 320.414 153.594 322.628 153.594C323.978 153.594 324.914 154.188 325.49 155.196V149.922ZM322.934 161.658C324.428 161.658 325.544 160.452 325.544 158.274C325.544 156.096 324.428 154.836 322.916 154.836C321.422 154.836 320.45 156.222 320.45 158.274C320.45 160.308 321.458 161.658 322.934 161.658ZM337.443 153.72C337.659 153.72 337.821 153.738 337.911 153.756V155.178C337.803 155.16 337.641 155.16 337.461 155.16C335.985 155.16 335.139 156.204 335.139 157.986V162.702H333.555V153.828H335.031V155.394C335.427 154.44 336.201 153.72 337.443 153.72ZM346.776 157.878L346.74 158.544H340.206C340.296 160.308 341.142 161.712 342.924 161.712C343.914 161.712 344.76 161.208 345.102 160.056H346.704C346.272 161.802 344.886 162.954 342.924 162.954C340.26 162.954 338.658 161.1 338.658 158.328C338.658 155.538 340.242 153.558 342.798 153.558C345.21 153.558 346.776 155.304 346.776 157.878ZM342.78 154.764C341.394 154.764 340.476 155.754 340.26 157.392H345.192C345.12 155.826 344.238 154.764 342.78 154.764ZM353.083 153.594C355.297 153.594 356.863 155.448 356.863 158.274C356.863 161.082 355.261 162.936 353.065 162.936C351.733 162.936 350.797 162.378 350.221 161.406V165.942H348.637V153.828H350.113V155.394C350.671 154.26 351.661 153.594 353.083 153.594ZM352.759 161.658C354.235 161.658 355.243 160.308 355.243 158.274C355.243 156.222 354.271 154.836 352.777 154.836C351.265 154.836 350.149 156.096 350.149 158.274C350.149 160.452 351.283 161.658 352.759 161.658ZM366.358 157.878L366.322 158.544H359.788C359.878 160.308 360.724 161.712 362.506 161.712C363.496 161.712 364.342 161.208 364.684 160.056H366.286C365.854 161.802 364.468 162.954 362.506 162.954C359.842 162.954 358.24 161.1 358.24 158.328C358.24 155.538 359.824 153.558 362.38 153.558C364.792 153.558 366.358 155.304 366.358 157.878ZM362.362 154.764C360.976 154.764 360.058 155.754 359.842 157.392H364.774C364.702 155.826 363.82 154.764 362.362 154.764ZM371.983 154.962H370.273V160.452C370.273 161.082 370.471 161.478 371.407 161.478C371.605 161.478 371.803 161.46 371.983 161.424V162.702C371.785 162.738 371.497 162.774 371.119 162.774C369.157 162.774 368.689 161.82 368.689 160.47V154.962H367.285V153.828H368.689V150.876H370.273V153.828H371.983V154.962ZM375.341 150.246V152.1H373.757V150.246H375.341ZM375.341 153.828V162.702H373.757V153.828H375.341ZM381.493 154.962H379.783V160.452C379.783 161.082 379.981 161.478 380.917 161.478C381.115 161.478 381.313 161.46 381.493 161.424V162.702C381.295 162.738 381.007 162.774 380.629 162.774C378.667 162.774 378.199 161.82 378.199 160.47V154.962H376.795V153.828H378.199V150.876H379.783V153.828H381.493V154.962ZM384.85 150.246V152.1H383.266V150.246H384.85ZM384.85 153.828V162.702H383.266V153.828H384.85ZM390.948 162.954C388.41 162.954 386.664 161.046 386.664 158.274C386.664 155.484 388.41 153.558 390.948 153.558C393.486 153.558 395.25 155.484 395.25 158.274C395.25 161.046 393.486 162.954 390.948 162.954ZM390.948 161.712C392.604 161.712 393.63 160.326 393.63 158.274C393.63 156.222 392.604 154.8 390.948 154.8C389.292 154.8 388.284 156.222 388.284 158.274C388.284 160.326 389.292 161.712 390.948 161.712ZM401.277 153.558C403.275 153.558 404.337 154.872 404.337 156.834V162.702H402.753V157.176C402.753 155.61 402.033 154.836 400.809 154.836C399.585 154.836 398.649 155.88 398.649 157.194V162.702H397.065V153.828H398.541V155.124C399.045 154.17 399.999 153.558 401.277 153.558ZM414.521 162.954C411.983 162.954 410.237 161.046 410.237 158.274C410.237 155.484 411.983 153.558 414.521 153.558C417.059 153.558 418.823 155.484 418.823 158.274C418.823 161.046 417.059 162.954 414.521 162.954ZM414.521 161.712C416.177 161.712 417.203 160.326 417.203 158.274C417.203 156.222 416.177 154.8 414.521 154.8C412.865 154.8 411.857 156.222 411.857 158.274C411.857 160.326 412.865 161.712 414.521 161.712ZM423.631 151.146C422.875 151.146 422.497 151.524 422.497 152.424V153.828H424.117V154.962H422.497V162.702H420.913V154.962H419.509V153.828H420.913V152.388C420.913 150.786 421.705 149.85 423.397 149.85C423.667 149.85 423.973 149.886 424.171 149.922V151.2C424.009 151.164 423.829 151.146 423.631 151.146ZM108.106 177.54C110.356 177.54 111.616 178.782 111.616 180.726V186.702H110.158V185.514C109.636 186.432 108.664 186.972 107.386 186.972C105.766 186.972 104.362 186.018 104.362 184.326C104.362 182.418 105.928 181.32 110.086 181.212V180.726C110.086 179.394 109.33 178.728 108.106 178.728C106.846 178.728 106.216 179.52 106.126 180.366H104.578C104.758 178.836 106 177.54 108.106 177.54ZM107.71 185.784C109.06 185.784 110.086 184.92 110.086 183.462V182.31C107.008 182.382 105.892 183.084 105.892 184.272C105.892 185.154 106.648 185.784 107.71 185.784ZM117.77 177.72C117.986 177.72 118.148 177.738 118.238 177.756V179.178C118.13 179.16 117.968 179.16 117.788 179.16C116.312 179.16 115.466 180.204 115.466 181.986V186.702H113.882V177.828H115.358V179.394C115.754 178.44 116.528 177.72 117.77 177.72ZM125.591 177.828H127.067V186.396C127.067 188.808 125.501 190.176 123.143 190.176C121.019 190.176 119.615 189.078 119.291 187.476H120.929C121.127 188.268 121.775 188.97 123.143 188.97C124.547 188.97 125.519 188.25 125.519 186.45V185.028C124.961 186 124.061 186.594 122.729 186.594C120.569 186.594 119.003 184.794 119.003 182.076C119.003 179.394 120.623 177.576 122.783 177.576C124.151 177.576 125.069 178.188 125.591 179.196V177.828ZM123.017 185.352C124.475 185.352 125.573 184.128 125.573 182.076C125.573 180.024 124.493 178.836 123.053 178.836C121.595 178.836 120.605 180.15 120.605 182.076C120.605 184.02 121.577 185.352 123.017 185.352ZM135.019 177.828H136.603V186.702H135.127V185.388C134.623 186.342 133.669 186.954 132.391 186.954C130.393 186.954 129.331 185.658 129.331 183.696V177.828H130.915V183.354C130.915 184.92 131.635 185.694 132.859 185.694C134.065 185.694 135.019 184.65 135.019 183.336V177.828ZM148.038 177.558C149.91 177.558 150.918 178.782 150.918 180.69V186.702H149.334V181.032C149.334 179.628 148.776 178.818 147.642 178.818C146.454 178.818 145.698 179.79 145.698 181.122V186.702H144.114V180.96C144.114 179.682 143.61 178.818 142.422 178.818C141.324 178.818 140.532 179.736 140.532 181.158V186.702H138.948V177.828H140.424V179.07C140.874 178.188 141.756 177.558 142.908 177.558C144.168 177.558 145.032 178.188 145.428 179.124C145.896 178.26 146.796 177.558 148.038 177.558ZM160.782 181.878L160.746 182.544H154.212C154.302 184.308 155.148 185.712 156.93 185.712C157.92 185.712 158.766 185.208 159.108 184.056H160.71C160.278 185.802 158.892 186.954 156.93 186.954C154.266 186.954 152.664 185.1 152.664 182.328C152.664 179.538 154.248 177.558 156.804 177.558C159.216 177.558 160.782 179.304 160.782 181.878ZM156.786 178.764C155.4 178.764 154.482 179.754 154.266 181.392H159.198C159.126 179.826 158.244 178.764 156.786 178.764ZM166.855 177.558C168.853 177.558 169.915 178.872 169.915 180.834V186.702H168.331V181.176C168.331 179.61 167.611 178.836 166.387 178.836C165.163 178.836 164.227 179.88 164.227 181.194V186.702H162.643V177.828H164.119V179.124C164.623 178.17 165.577 177.558 166.855 177.558ZM175.758 178.962H174.048V184.452C174.048 185.082 174.246 185.478 175.182 185.478C175.38 185.478 175.578 185.46 175.758 185.424V186.702C175.56 186.738 175.272 186.774 174.894 186.774C172.932 186.774 172.464 185.82 172.464 184.47V178.962H171.06V177.828H172.464V174.876H174.048V177.828H175.758V178.962ZM180.627 186.954C178.521 186.954 176.991 185.802 176.865 184.038H178.431C178.557 185.136 179.583 185.766 180.645 185.766C181.761 185.766 182.589 185.19 182.589 184.236C182.589 183.282 181.815 183.012 180.249 182.706C177.909 182.256 177.171 181.5 177.171 180.186C177.171 178.746 178.467 177.54 180.447 177.54C182.211 177.54 183.705 178.53 183.849 180.15H182.337C182.193 179.34 181.473 178.728 180.411 178.728C179.295 178.728 178.701 179.322 178.701 180.078C178.701 180.852 179.349 181.176 180.879 181.464C183.237 181.896 184.119 182.652 184.119 184.128C184.119 185.82 182.715 186.954 180.627 186.954ZM199.788 177.81H201.408L198.978 186.702H197.07L195.27 179.772L193.506 186.702H191.598L189.168 177.81H190.824L192.624 185.334L194.55 177.81H196.062L197.97 185.352L199.788 177.81ZM206.571 186.954C204.033 186.954 202.287 185.046 202.287 182.274C202.287 179.484 204.033 177.558 206.571 177.558C209.109 177.558 210.873 179.484 210.873 182.274C210.873 185.046 209.109 186.954 206.571 186.954ZM206.571 185.712C208.227 185.712 209.253 184.326 209.253 182.274C209.253 180.222 208.227 178.8 206.571 178.8C204.915 178.8 203.907 180.222 203.907 182.274C203.907 184.326 204.915 185.712 206.571 185.712ZM218.304 177.828H219.888V186.702H218.412V185.388C217.908 186.342 216.954 186.954 215.676 186.954C213.678 186.954 212.616 185.658 212.616 183.696V177.828H214.2V183.354C214.2 184.92 214.92 185.694 216.144 185.694C217.35 185.694 218.304 184.65 218.304 183.336V177.828ZM223.817 173.922V186.702H222.233V173.922H223.817ZM232.291 173.922H233.875V186.702H232.399V185.19C231.841 186.288 230.887 186.936 229.447 186.936C227.251 186.936 225.649 185.082 225.649 182.274C225.649 179.448 227.215 177.594 229.429 177.594C230.779 177.594 231.715 178.188 232.291 179.196V173.922ZM229.735 185.658C231.229 185.658 232.345 184.452 232.345 182.274C232.345 180.096 231.229 178.836 229.717 178.836C228.223 178.836 227.251 180.222 227.251 182.274C227.251 184.308 228.259 185.658 229.735 185.658ZM244.568 177.558C246.566 177.558 247.628 178.872 247.628 180.834V186.702H246.044V181.176C246.044 179.61 245.324 178.836 244.1 178.836C242.876 178.836 241.94 179.88 241.94 181.194V186.702H240.356V173.922H241.94V178.926C242.462 178.098 243.362 177.558 244.568 177.558ZM253.231 177.54C255.481 177.54 256.741 178.782 256.741 180.726V186.702H255.283V185.514C254.761 186.432 253.789 186.972 252.511 186.972C250.891 186.972 249.487 186.018 249.487 184.326C249.487 182.418 251.053 181.32 255.211 181.212V180.726C255.211 179.394 254.455 178.728 253.231 178.728C251.971 178.728 251.341 179.52 251.251 180.366H249.703C249.883 178.836 251.125 177.54 253.231 177.54ZM252.835 185.784C254.185 185.784 255.211 184.92 255.211 183.462V182.31C252.133 182.382 251.017 183.084 251.017 184.272C251.017 185.154 251.773 185.784 252.835 185.784ZM264.304 177.828H265.924L262.918 186.702H260.956L257.986 177.828H259.642L261.982 185.19L264.304 177.828ZM274.917 181.878L274.881 182.544H268.347C268.437 184.308 269.283 185.712 271.065 185.712C272.055 185.712 272.901 185.208 273.243 184.056H274.845C274.413 185.802 273.027 186.954 271.065 186.954C268.401 186.954 266.799 185.1 266.799 182.328C266.799 179.538 268.383 177.558 270.939 177.558C273.351 177.558 274.917 179.304 274.917 181.878ZM270.921 178.764C269.535 178.764 268.617 179.754 268.401 181.392H273.333C273.261 179.826 272.379 178.764 270.921 178.764ZM282.511 174.246V176.1H280.927V174.246H282.511ZM282.511 177.828V186.702H280.927V177.828H282.511ZM289.058 177.558C291.056 177.558 292.118 178.872 292.118 180.834V186.702H290.534V181.176C290.534 179.61 289.814 178.836 288.59 178.836C287.366 178.836 286.43 179.88 286.43 181.194V186.702H284.846V177.828H286.322V179.124C286.826 178.17 287.78 177.558 289.058 177.558ZM298.045 186.954C295.561 186.954 293.869 185.082 293.869 182.256C293.869 179.43 295.579 177.558 298.063 177.558C299.719 177.558 301.357 178.548 301.663 180.402H300.115C299.827 179.412 299.071 178.8 298.009 178.8C296.281 178.8 295.489 180.51 295.489 182.256C295.489 184.038 296.299 185.712 297.991 185.712C299.053 185.712 299.845 185.136 300.133 183.966H301.717C301.393 186 299.701 186.954 298.045 186.954ZM307.297 177.72C307.513 177.72 307.675 177.738 307.765 177.756V179.178C307.657 179.16 307.495 179.16 307.315 179.16C305.839 179.16 304.993 180.204 304.993 181.986V186.702H303.409V177.828H304.885V179.394C305.281 178.44 306.055 177.72 307.297 177.72ZM316.63 181.878L316.594 182.544H310.06C310.15 184.308 310.996 185.712 312.778 185.712C313.768 185.712 314.614 185.208 314.956 184.056H316.558C316.126 185.802 314.74 186.954 312.778 186.954C310.114 186.954 308.512 185.1 308.512 182.328C308.512 179.538 310.096 177.558 312.652 177.558C315.064 177.558 316.63 179.304 316.63 181.878ZM312.634 178.764C311.248 178.764 310.33 179.754 310.114 181.392H315.046C314.974 179.826 314.092 178.764 312.634 178.764ZM321.698 177.54C323.948 177.54 325.208 178.782 325.208 180.726V186.702H323.75V185.514C323.228 186.432 322.256 186.972 320.978 186.972C319.358 186.972 317.954 186.018 317.954 184.326C317.954 182.418 319.52 181.32 323.678 181.212V180.726C323.678 179.394 322.922 178.728 321.698 178.728C320.438 178.728 319.808 179.52 319.718 180.366H318.17C318.35 178.836 319.592 177.54 321.698 177.54ZM321.302 185.784C322.652 185.784 323.678 184.92 323.678 183.462V182.31C320.6 182.382 319.484 183.084 319.484 184.272C319.484 185.154 320.24 185.784 321.302 185.784ZM330.533 186.954C328.427 186.954 326.897 185.802 326.771 184.038H328.337C328.463 185.136 329.489 185.766 330.551 185.766C331.667 185.766 332.495 185.19 332.495 184.236C332.495 183.282 331.721 183.012 330.155 182.706C327.815 182.256 327.077 181.5 327.077 180.186C327.077 178.746 328.373 177.54 330.353 177.54C332.117 177.54 333.611 178.53 333.755 180.15H332.243C332.099 179.34 331.379 178.728 330.317 178.728C329.201 178.728 328.607 179.322 328.607 180.078C328.607 180.852 329.255 181.176 330.785 181.464C333.143 181.896 334.025 182.652 334.025 184.128C334.025 185.82 332.621 186.954 330.533 186.954ZM343.261 181.878L343.225 182.544H336.691C336.781 184.308 337.627 185.712 339.409 185.712C340.399 185.712 341.245 185.208 341.587 184.056H343.189C342.757 185.802 341.371 186.954 339.409 186.954C336.745 186.954 335.143 185.1 335.143 182.328C335.143 179.538 336.727 177.558 339.283 177.558C341.695 177.558 343.261 179.304 343.261 181.878ZM339.265 178.764C337.879 178.764 336.961 179.754 336.745 181.392H341.677C341.605 179.826 340.723 178.764 339.265 178.764ZM351.26 173.922H352.844V186.702H351.368V185.19C350.81 186.288 349.856 186.936 348.416 186.936C346.22 186.936 344.618 185.082 344.618 182.274C344.618 179.448 346.184 177.594 348.398 177.594C349.748 177.594 350.684 178.188 351.26 179.196V173.922ZM348.704 185.658C350.198 185.658 351.314 184.452 351.314 182.274C351.314 180.096 350.198 178.836 348.686 178.836C347.192 178.836 346.22 180.222 346.22 182.274C346.22 184.308 347.228 185.658 348.704 185.658ZM360.247 190.014C359.959 190.014 359.671 189.978 359.437 189.906V188.646C359.599 188.7 359.851 188.736 360.067 188.736C360.841 188.736 361.201 188.466 361.507 187.476L361.579 187.26L358.339 177.828H359.995L362.371 185.244L364.711 177.828H366.295L362.875 187.854C362.353 189.42 361.633 190.014 360.247 190.014ZM371.419 186.954C368.881 186.954 367.135 185.046 367.135 182.274C367.135 179.484 368.881 177.558 371.419 177.558C373.957 177.558 375.721 179.484 375.721 182.274C375.721 185.046 373.957 186.954 371.419 186.954ZM371.419 185.712C373.075 185.712 374.101 184.326 374.101 182.274C374.101 180.222 373.075 178.8 371.419 178.8C369.763 178.8 368.755 180.222 368.755 182.274C368.755 184.326 369.763 185.712 371.419 185.712ZM383.152 177.828H384.736V186.702H383.26V185.388C382.756 186.342 381.802 186.954 380.524 186.954C378.526 186.954 377.464 185.658 377.464 183.696V177.828H379.048V183.354C379.048 184.92 379.768 185.694 380.992 185.694C382.198 185.694 383.152 184.65 383.152 183.336V177.828ZM390.969 177.72C391.185 177.72 391.347 177.738 391.437 177.756V179.178C391.329 179.16 391.167 179.16 390.987 179.16C389.511 179.16 388.665 180.204 388.665 181.986V186.702H387.081V177.828H388.557V179.394C388.953 178.44 389.727 177.72 390.969 177.72ZM400.108 186.954C398.002 186.954 396.472 185.802 396.346 184.038H397.912C398.038 185.136 399.064 185.766 400.126 185.766C401.242 185.766 402.07 185.19 402.07 184.236C402.07 183.282 401.296 183.012 399.73 182.706C397.39 182.256 396.652 181.5 396.652 180.186C396.652 178.746 397.948 177.54 399.928 177.54C401.692 177.54 403.186 178.53 403.33 180.15H401.818C401.674 179.34 400.954 178.728 399.892 178.728C398.776 178.728 398.182 179.322 398.182 180.078C398.182 180.852 398.83 181.176 400.36 181.464C402.718 181.896 403.6 182.652 403.6 184.128C403.6 185.82 402.196 186.954 400.108 186.954ZM408.893 186.954C406.409 186.954 404.717 185.082 404.717 182.256C404.717 179.43 406.427 177.558 408.911 177.558C410.567 177.558 412.205 178.548 412.511 180.402H410.963C410.675 179.412 409.919 178.8 408.857 178.8C407.129 178.8 406.337 180.51 406.337 182.256C406.337 184.038 407.147 185.712 408.839 185.712C409.901 185.712 410.693 185.136 410.981 183.966H412.565C412.241 186 410.549 186.954 408.893 186.954ZM417.896 186.954C415.358 186.954 413.612 185.046 413.612 182.274C413.612 179.484 415.358 177.558 417.896 177.558C420.434 177.558 422.198 179.484 422.198 182.274C422.198 185.046 420.434 186.954 417.896 186.954ZM417.896 185.712C419.552 185.712 420.578 184.326 420.578 182.274C420.578 180.222 419.552 178.8 417.896 178.8C416.24 178.8 415.232 180.222 415.232 182.274C415.232 184.326 416.24 185.712 417.896 185.712ZM427.9 177.72C428.116 177.72 428.278 177.738 428.368 177.756V179.178C428.26 179.16 428.098 179.16 427.918 179.16C426.442 179.16 425.596 180.204 425.596 181.986V186.702H424.012V177.828H425.488V179.394C425.884 178.44 426.658 177.72 427.9 177.72ZM437.233 181.878L437.197 182.544H430.663C430.753 184.308 431.599 185.712 433.381 185.712C434.371 185.712 435.217 185.208 435.559 184.056H437.161C436.729 185.802 435.343 186.954 433.381 186.954C430.717 186.954 429.115 185.1 429.115 182.328C429.115 179.538 430.699 177.558 433.255 177.558C435.667 177.558 437.233 179.304 437.233 181.878ZM433.237 178.764C431.851 178.764 430.933 179.754 430.717 181.392H435.649C435.577 179.826 434.695 178.764 433.237 178.764ZM440.822 184.722V186.702H438.95V184.722H440.822Z" fill="white" fill-opacity="0.6"/>
<path d="M285.06 63.0826C282.045 66.0971 278.061 67.9468 273.813 68.3038C269.565 68.6608 265.327 67.5021 261.852 65.033C258.377 62.564 255.888 58.9441 254.827 54.8152C253.766 50.6863 254.201 46.315 256.056 42.4764C257.91 38.6377 261.064 35.5797 264.958 33.8444C268.851 32.1092 273.234 31.8087 277.328 32.9964C281.423 34.1841 284.964 36.7832 287.325 40.3329C289.686 43.8825 290.714 48.1535 290.226 52.3886" stroke="white" stroke-opacity="0.15" stroke-width="4.51064" stroke-linecap="round"/>
<path d="M272.302 32.2816C276.565 32.2816 280.69 33.7911 283.947 36.5425C287.203 39.2939 289.38 43.1095 290.091 47.3128C290.803 51.5161 290.003 55.8355 287.834 59.5054C285.664 63.1752 282.266 65.9584 278.24 67.3615C274.215 68.7646 269.822 68.6969 265.842 67.1705C261.861 65.6441 258.55 62.7576 256.495 59.0227C254.439 55.2878 253.773 50.9457 254.614 46.7663C255.228 43.7114 256.619 40.8876 258.627 38.5544" stroke="#00DD00" stroke-width="5" stroke-linecap="round"/>
<rect x="207.319" y="230.702" width="130.809" height="48" rx="16" fill="white"/>
<path d="M233.703 260.957C230.167 260.957 228.11 258.186 228.11 254.65C228.11 251.114 230.167 248.343 233.703 248.343C236.27 248.343 238.293 249.992 238.616 252.202H236.457C236.049 250.842 235.08 250.094 233.652 250.094C231.578 250.094 230.269 251.93 230.269 254.65C230.269 257.37 231.578 259.223 233.652 259.223C235.097 259.223 236.083 258.407 236.508 256.928H238.65C238.378 259.24 236.321 260.957 233.703 260.957ZM243.996 260.957C241.463 260.957 239.712 259.121 239.712 256.401C239.712 253.698 241.463 251.845 243.996 251.845C246.529 251.845 248.28 253.698 248.28 256.401C248.28 259.121 246.529 260.957 243.996 260.957ZM243.996 259.41C245.407 259.41 246.274 258.237 246.274 256.401C246.274 254.599 245.407 253.392 243.996 253.392C242.585 253.392 241.718 254.599 241.718 256.401C241.718 258.237 242.585 259.41 243.996 259.41ZM254.218 251.845C256.139 251.845 257.193 253.069 257.193 254.99V260.702H255.221V255.432C255.221 254.123 254.643 253.443 253.589 253.443C252.552 253.443 251.804 254.293 251.804 255.466V260.702H249.832V252.117H251.651V253.273C252.127 252.423 253.011 251.845 254.218 251.845ZM263.01 253.528H261.48V258.22C261.48 258.781 261.65 259.155 262.449 259.155C262.636 259.155 262.857 259.138 263.01 259.104V260.702C262.806 260.753 262.534 260.77 262.092 260.77C260.086 260.77 259.508 259.835 259.508 258.237V253.528H258.199V252.117H259.508V249.414H261.48V252.117H263.01V253.528ZM266.563 248.802V250.723H264.591V248.802H266.563ZM266.563 252.117V260.702H264.591V252.117H266.563ZM272.912 251.845C274.833 251.845 275.887 253.069 275.887 254.99V260.702H273.915V255.432C273.915 254.123 273.337 253.443 272.283 253.443C271.246 253.443 270.498 254.293 270.498 255.466V260.702H268.526V252.117H270.345V253.273C270.821 252.423 271.705 251.845 272.912 251.845ZM283.111 252.117H285.083V260.702H283.247V259.563C282.754 260.413 281.887 260.974 280.697 260.974C278.776 260.974 277.722 259.733 277.722 257.829V252.117H279.694V257.387C279.694 258.679 280.272 259.376 281.326 259.376C282.346 259.376 283.111 258.526 283.111 257.353V252.117ZM294.754 256.112L294.72 256.877H288.566C288.702 258.356 289.433 259.41 290.861 259.41C291.677 259.41 292.425 259.019 292.731 258.033H294.686C294.244 259.988 292.68 260.957 290.912 260.957C288.243 260.957 286.628 259.172 286.628 256.452C286.628 253.8 288.192 251.845 290.776 251.845C293.173 251.845 294.754 253.528 294.754 256.112ZM290.742 253.324C289.535 253.324 288.821 254.191 288.617 255.483H292.782C292.714 254.174 291.966 253.324 290.742 253.324Z" fill="#191821"/>
<g opacity="0.95">
<path d="M313.438 262.353C317.652 262.353 321.14 258.857 321.14 254.651C321.14 250.437 317.644 246.948 313.43 246.948C309.224 246.948 305.736 250.437 305.736 254.651C305.736 258.857 309.232 262.353 313.438 262.353Z" fill="#191821"/>
<path d="M317.44 254.643C317.44 254.817 317.372 254.953 317.221 255.096L314.593 257.732C314.488 257.837 314.352 257.898 314.186 257.898C313.861 257.898 313.619 257.649 313.619 257.324C313.619 257.158 313.687 257.014 313.793 256.909L314.759 255.95L315.703 255.164L314.057 255.225H310.01C309.67 255.225 309.421 254.983 309.421 254.643C309.421 254.296 309.67 254.054 310.01 254.054H314.057L315.703 254.122L314.759 253.337L313.793 252.378C313.695 252.265 313.619 252.121 313.619 251.955C313.619 251.63 313.861 251.389 314.186 251.389C314.352 251.389 314.488 251.442 314.593 251.547L317.221 254.19C317.38 254.349 317.44 254.47 317.44 254.643Z" fill="white"/>
</g>
</g>
</g>
<defs>
<clipPath id="clip0_7_3794">
<rect width="545" height="354" fill="white"/>
</clipPath>
</defs>
</svg>
