<svg width="318" height="241" viewBox="0 0 318 241" fill="none" xmlns="http://www.w3.org/2000/svg">
<g clip-path="url(#clip0_7_3811)">
<mask id="mask0_7_3811" style="mask-type:alpha" maskUnits="userSpaceOnUse" x="0" y="-113" width="318" height="354">
<rect y="-113" width="318" height="354" fill="url(#paint0_linear_7_3811)"/>
</mask>
<g mask="url(#mask0_7_3811)">
<rect x="40.7773" y="69" width="236.445" height="87.7866" rx="28" stroke="black" stroke-opacity="0.02" stroke-width="12"/>
<rect x="46.7773" y="75" width="224.445" height="75.7866" rx="23.319" fill="white"/>
<rect x="47.7773" y="76" width="222.445" height="73.7866" rx="22.319" stroke="black" stroke-opacity="0.04" stroke-width="2"/>
<g clip-path="url(#clip1_7_3811)">
<path d="M90.8773 125.714C97.6847 125.714 103.321 120.065 103.321 113.27C103.321 106.463 97.6725 100.827 90.8651 100.827C84.07 100.827 78.4338 106.463 78.4338 113.27C78.4338 120.065 84.0822 125.714 90.8773 125.714ZM90.8773 123.64C85.1192 123.64 80.52 119.028 80.52 113.27C80.52 107.512 85.107 102.901 90.8651 102.901C96.6234 102.901 101.247 107.512 101.247 113.27C101.247 119.028 96.6355 123.64 90.8773 123.64Z" fill="#131313" fill-opacity="0.7"/>
<path d="M87.9495 107.89C85.8756 107.89 84.3872 109.452 84.3872 111.611C84.3872 114.819 87.7665 117.772 90.2674 119.358C90.4869 119.48 90.7431 119.65 90.9018 119.65C91.0603 119.65 91.3043 119.492 91.4874 119.358C93.9639 117.735 97.3675 114.819 97.3675 111.611C97.3675 109.452 95.8791 107.89 93.8052 107.89C92.512 107.89 91.4874 108.634 90.8773 109.744C90.2674 108.634 89.2548 107.89 87.9495 107.89Z" fill="#131313" fill-opacity="0.7"/>
</g>
<path opacity="0.9" d="M130.586 119.393L129.362 115.782H123.587L122.383 119.393H119.894L124.954 104.906H128.158L133.218 119.393H130.586ZM124.281 113.721H128.668L126.485 107.192L124.281 113.721ZM138.579 119.699C135.824 119.699 134.11 118.23 133.988 116.169H136.293C136.416 117.312 137.457 117.924 138.599 117.924C139.742 117.924 140.517 117.414 140.517 116.516C140.517 115.598 139.742 115.333 137.987 115.027C135.171 114.517 134.314 113.558 134.314 112.007C134.314 110.313 135.824 108.742 138.375 108.742C140.436 108.742 142.353 109.885 142.517 111.966H140.272C140.129 111.17 139.436 110.497 138.293 110.497C137.171 110.497 136.6 111.089 136.6 111.803C136.6 112.517 137.212 112.884 138.905 113.17C141.68 113.639 142.802 114.537 142.802 116.333C142.802 118.312 141.19 119.699 138.579 119.699ZM153.644 119.393H150.91L146.931 114.047V119.393H144.564V104.906H146.931V113.537L150.726 109.089H153.44L149.339 113.701L153.644 119.393ZM163.69 108.742C166.424 108.742 167.934 110.232 167.934 112.538V119.393H165.792V118.108C165.241 119.067 164.2 119.72 162.67 119.72C160.793 119.72 159.16 118.577 159.16 116.598C159.16 114.292 161.017 113.109 165.69 112.946V112.558C165.69 111.191 164.935 110.497 163.67 110.497C162.405 110.497 161.752 111.313 161.67 112.15H159.405C159.568 110.375 160.997 108.742 163.69 108.742ZM163.18 117.945C164.547 117.945 165.69 117.128 165.69 115.415V114.496C162.629 114.619 161.425 115.292 161.425 116.496C161.425 117.332 162.139 117.945 163.18 117.945ZM175.513 108.763C177.819 108.763 179.084 110.232 179.084 112.538V119.393H176.717V113.068C176.717 111.497 176.023 110.681 174.758 110.681C173.513 110.681 172.616 111.701 172.616 113.109V119.393H170.249V109.089H172.432V110.477C173.003 109.457 174.064 108.763 175.513 108.763ZM182.781 123.168C182.393 123.168 181.985 123.107 181.679 123.005V121.148C181.883 121.209 182.21 121.27 182.516 121.27C183.332 121.27 183.74 121.026 184.005 120.209L184.046 120.087L180.251 109.089H182.74L185.229 117.026L187.596 109.089H189.984L186.127 120.536C185.454 122.536 184.515 123.168 182.781 123.168ZM196.826 110.783H194.989V116.414C194.989 117.088 195.193 117.537 196.152 117.537C196.377 117.537 196.642 117.516 196.826 117.475V119.393C196.581 119.455 196.254 119.475 195.724 119.475C193.316 119.475 192.622 118.353 192.622 116.435V110.783H191.051V109.089H192.622V105.845H194.989V109.089H196.826V110.783ZM203.987 108.763C206.293 108.763 207.558 110.232 207.558 112.538V119.393H205.191V113.068C205.191 111.497 204.497 110.681 203.232 110.681C201.987 110.681 201.09 111.701 201.09 113.109V119.393H198.723V104.906H201.09V110.191C201.702 109.314 202.681 108.763 203.987 108.763ZM212.228 105.11V107.416H209.861V105.11H212.228ZM212.228 109.089V119.393H209.861V109.089H212.228ZM219.848 108.763C222.154 108.763 223.419 110.232 223.419 112.538V119.393H221.052V113.068C221.052 111.497 220.358 110.681 219.093 110.681C217.848 110.681 216.951 111.701 216.951 113.109V119.393H214.584V109.089H216.767V110.477C217.338 109.457 218.399 108.763 219.848 108.763ZM232.701 109.089H234.884V118.863C234.884 121.821 232.884 123.352 230.15 123.352C227.538 123.352 225.824 122.046 225.457 120.046H227.885C228.069 120.883 228.763 121.556 230.13 121.556C231.599 121.556 232.558 120.822 232.558 118.924V117.679C231.946 118.618 230.966 119.189 229.538 119.189C227.049 119.189 225.171 117.108 225.171 113.966C225.171 110.844 227.089 108.763 229.579 108.763C231.109 108.763 232.109 109.416 232.701 110.456V109.089ZM230.068 117.292C231.538 117.292 232.66 116.027 232.66 113.966C232.66 111.905 231.538 110.66 230.089 110.66C228.599 110.66 227.559 111.987 227.559 113.966C227.559 115.965 228.599 117.292 230.068 117.292Z" fill="#111111"/>
<path fill-rule="evenodd" clip-rule="evenodd" d="M217.941 157.454C217.429 156.807 216.807 155.485 215.701 153.879C215.073 152.971 213.518 151.261 213.055 150.392C212.653 149.624 212.696 149.28 212.792 148.644C212.961 147.512 214.122 146.631 215.36 146.75C216.295 146.838 217.088 147.456 217.802 148.04C218.232 148.392 218.762 149.075 219.081 149.46C219.375 149.814 219.447 149.96 219.761 150.378C220.175 150.931 220.305 151.205 220.146 150.596C220.018 149.702 219.809 148.176 219.507 146.826C219.276 145.802 219.22 145.642 219 144.856C218.768 144.02 218.649 143.434 218.431 142.548C218.279 141.92 218.007 140.639 217.933 139.918C217.831 138.933 217.777 137.325 218.409 136.586C218.905 136.008 220.042 135.833 220.746 136.19C221.669 136.657 222.193 137.997 222.433 138.533C222.864 139.495 223.13 140.607 223.363 142.066C223.659 143.924 224.203 146.503 224.221 147.046C224.264 146.381 224.098 144.98 224.214 144.342C224.318 143.764 224.805 143.092 225.414 142.91C225.929 142.757 226.533 142.701 227.064 142.811C227.628 142.926 228.223 143.33 228.445 143.71C229.097 144.834 229.11 147.132 229.137 147.01C229.292 146.332 229.265 144.795 229.649 144.155C229.901 143.733 230.544 143.353 230.887 143.292C231.416 143.198 232.067 143.169 232.624 143.277C233.073 143.366 233.68 143.899 233.844 144.155C234.237 144.775 234.46 146.528 234.527 147.143C234.554 147.397 234.66 146.437 235.055 145.817C235.786 144.665 238.376 144.442 238.475 146.968C238.52 148.147 238.511 148.093 238.511 148.886C238.511 149.817 238.49 150.378 238.439 151.052C238.383 151.772 238.228 153.402 238.003 154.191C237.848 154.733 237.334 155.953 236.828 156.685C236.828 156.685 234.893 158.938 234.682 159.952C234.469 160.965 234.539 160.972 234.498 161.691C234.457 162.408 234.716 163.353 234.716 163.353C234.716 163.353 233.271 163.54 232.492 163.416C231.788 163.302 230.915 161.9 230.69 161.471C230.38 160.88 229.719 160.994 229.461 161.43C229.056 162.12 228.184 163.358 227.567 163.435C226.363 163.587 223.866 163.491 221.91 163.472C221.91 163.472 222.244 161.65 221.501 161.024C220.952 160.558 220.006 159.611 219.44 159.114L217.941 157.454Z" fill="white"/>
<path fill-rule="evenodd" clip-rule="evenodd" d="M217.941 157.454C217.429 156.807 216.807 155.485 215.701 153.879C215.073 152.971 213.518 151.261 213.055 150.392C212.653 149.624 212.696 149.28 212.792 148.644C212.961 147.512 214.122 146.631 215.36 146.75C216.295 146.838 217.088 147.456 217.802 148.04C218.232 148.392 218.762 149.075 219.081 149.46C219.375 149.814 219.447 149.96 219.761 150.378C220.175 150.931 220.305 151.205 220.146 150.596C220.018 149.702 219.809 148.176 219.507 146.826C219.276 145.802 219.22 145.642 219 144.856C218.768 144.02 218.649 143.434 218.431 142.548C218.279 141.92 218.007 140.639 217.933 139.918C217.831 138.933 217.777 137.325 218.409 136.586C218.905 136.008 220.042 135.833 220.746 136.19C221.669 136.657 222.193 137.997 222.433 138.533C222.864 139.495 223.13 140.607 223.363 142.066C223.659 143.924 224.203 146.503 224.221 147.046C224.264 146.381 224.098 144.98 224.214 144.342C224.318 143.764 224.805 143.092 225.414 142.91C225.929 142.757 226.533 142.701 227.064 142.811C227.628 142.926 228.223 143.33 228.445 143.71C229.097 144.834 229.11 147.132 229.137 147.01C229.292 146.332 229.265 144.795 229.649 144.155C229.901 143.733 230.544 143.353 230.887 143.292C231.416 143.198 232.067 143.169 232.624 143.277C233.073 143.366 233.68 143.899 233.844 144.155C234.237 144.775 234.46 146.528 234.527 147.143C234.554 147.397 234.66 146.437 235.055 145.817C235.786 144.665 238.376 144.442 238.475 146.968C238.52 148.147 238.511 148.093 238.511 148.886C238.511 149.817 238.49 150.378 238.439 151.052C238.383 151.772 238.228 153.402 238.003 154.191C237.848 154.733 237.334 155.953 236.828 156.685C236.828 156.685 234.893 158.938 234.682 159.952C234.469 160.965 234.539 160.972 234.498 161.691C234.457 162.408 234.716 163.353 234.716 163.353C234.716 163.353 233.271 163.54 232.492 163.416C231.788 163.302 230.915 161.9 230.69 161.471C230.38 160.88 229.719 160.994 229.461 161.43C229.056 162.12 228.184 163.358 227.567 163.435C226.363 163.587 223.866 163.491 221.91 163.472C221.91 163.472 222.244 161.65 221.501 161.024C220.952 160.558 220.006 159.611 219.44 159.114L217.941 157.454Z" stroke="black" stroke-width="1.35156" stroke-linecap="round" stroke-linejoin="round"/>
<path d="M232.78 158.093V151.86" stroke="black" stroke-width="1.35156" stroke-linecap="round"/>
<path d="M229.148 158.114L229.119 151.855" stroke="black" stroke-width="1.35156" stroke-linecap="round"/>
<path d="M225.551 151.913L225.589 158.087" stroke="black" stroke-width="1.35156" stroke-linecap="round"/>
</g>
</g>
<defs>
<linearGradient id="paint0_linear_7_3811" x1="159" y1="241" x2="159" y2="-113" gradientUnits="userSpaceOnUse">
<stop offset="0.117151" stop-color="#F9F9F9"/>
<stop offset="0.575932" stop-color="#00C6EE"/>
<stop offset="1" stop-color="#0058F4"/>
</linearGradient>
<clipPath id="clip0_7_3811">
<rect width="318" height="241" fill="white"/>
</clipPath>
<clipPath id="clip1_7_3811">
<rect width="24.8869" height="24.8992" fill="white" transform="translate(78.4338 100.827)"/>
</clipPath>
</defs>
</svg>
