<svg width="124" height="118" viewBox="0 0 124 118" fill="none" xmlns="http://www.w3.org/2000/svg">
<rect width="124" height="118" rx="20" fill="#F9F9FB"/>
<path d="M48.2782 49L47.4372 46.4333H43.4784L42.6374 49H40.7523L44.305 38.7044H46.9587L50.5259 49H48.2782ZM43.957 45.0123H46.9587L45.4651 40.43L43.957 45.0123ZM53.8579 38.7044V49H51.7553V38.7044H53.8579ZM60.3027 49.2175C57.214 49.2175 55.4594 46.8539 55.4594 43.8522C55.4594 40.8215 57.214 38.4723 60.3172 38.4723C62.5648 38.4723 64.3629 39.8354 64.6094 41.706H62.4778C62.1443 40.5315 61.3612 39.8789 60.2592 39.8789C58.6206 39.8789 57.591 41.4885 57.591 43.8522C57.591 46.1868 58.6206 47.8109 60.2592 47.8109C61.3612 47.8109 62.1878 47.0859 62.5213 45.8243H64.6239C64.4499 47.7674 62.6083 49.2175 60.3027 49.2175ZM70.4373 38.7044C72.5545 38.7044 73.9175 39.9224 73.9175 41.8801C73.9175 43.8377 72.5545 45.0413 70.4373 45.0413H68.0302V49H65.9275V38.7044H70.4373ZM68.0157 40.0964V43.6492H70.1908C71.1769 43.6492 71.8439 43.0401 71.8439 41.8801C71.8439 40.7055 71.1769 40.0964 70.1908 40.0964H68.0157ZM81.0033 49L80.1622 46.4333H76.2035L75.3624 49H73.4773L77.03 38.7044H79.6837L83.2509 49H81.0033ZM76.682 45.0123H79.6837L78.1901 40.43L76.682 45.0123ZM45.5408 53.4723C47.4985 53.4723 49.3546 54.5164 49.4271 56.4015H47.3825C47.3535 55.4735 46.5849 54.8354 45.4393 54.8354C44.3228 54.8354 43.7427 55.546 43.7427 56.3C43.7427 57.2281 44.5693 57.5326 46.2369 57.8806C48.644 58.3881 49.7171 59.3017 49.7171 61.0418C49.7171 62.9559 48.209 64.232 45.7294 64.232C43.1482 64.232 41.5386 63.0284 41.4226 61.0128H43.5397C43.6557 62.2599 44.7433 62.8544 45.8164 62.8544C46.9329 62.8544 47.7305 62.1874 47.7305 61.1868C47.7305 60.0848 46.7734 59.8092 45.1783 59.4612C42.4957 58.8812 41.7706 57.9676 41.7706 56.445C41.7706 54.7774 43.1627 53.4723 45.5408 53.4723ZM55.7529 53.4723C58.8416 53.4723 60.6977 55.7925 60.6977 58.8522C60.6977 61.9119 58.8416 64.232 55.7529 64.232C52.6787 64.232 50.7936 61.9119 50.7936 58.8522C50.7936 55.7925 52.6787 53.4723 55.7529 53.4723ZM55.7529 54.8789C54.0708 54.8789 52.9542 56.445 52.9542 58.8522C52.9542 61.2593 54.0708 62.8254 55.7529 62.8254C57.464 62.8254 58.5371 61.2883 58.5371 58.8522C58.5371 56.416 57.464 54.8789 55.7529 54.8789ZM66.5902 64.2175C63.5015 64.2175 61.7469 61.8539 61.7469 58.8522C61.7469 55.8215 63.5015 53.4723 66.6047 53.4723C68.8523 53.4723 70.6504 54.8354 70.8969 56.706H68.7653C68.4318 55.5315 67.6487 54.8789 66.5467 54.8789C64.9081 54.8789 63.8785 56.4885 63.8785 58.8522C63.8785 61.1868 64.9081 62.8109 66.5467 62.8109C67.6487 62.8109 68.4753 62.0859 68.8088 60.8243H70.9114C70.7374 62.7674 68.8958 64.2175 66.5902 64.2175ZM78.1308 62.5064H82.4231V64H75.3032V62.7239L77.9713 60.1283C79.2039 58.9392 80.335 57.7646 80.335 56.503C80.335 55.459 79.7549 54.8354 78.8849 54.8354C77.9423 54.8354 77.2608 55.691 77.2028 56.764H75.1727C75.2162 54.9804 76.8113 53.5013 78.8849 53.5013C81.234 53.5013 82.3506 54.8934 82.3506 56.503C82.3506 58.3591 80.9875 59.7367 79.3924 61.2883L78.1308 62.5064ZM47.6286 68.7044V70.1254H44.6269V79H42.5243V70.1254H39.5226V68.7044H47.6286ZM55.2488 68.7044H57.3514L53.8422 74.6497V79H51.7395V74.6352L48.2158 68.7044H50.5795L52.9286 72.8806L55.2488 68.7044ZM62.8935 68.7044C65.0106 68.7044 66.3737 69.9224 66.3737 71.8801C66.3737 73.8377 65.0106 75.0413 62.8935 75.0413H60.4863V79H58.3837V68.7044H62.8935ZM60.4718 70.0964V73.6492H62.6469C63.633 73.6492 64.3 73.0401 64.3 71.8801C64.3 70.7055 63.633 70.0964 62.6469 70.0964H60.4718ZM74.799 68.7044V70.1254H69.8252V72.9531H74.4945V74.3742H69.8252V77.5789H74.9585V79H67.7226V68.7044H74.799ZM81.8585 68.7044H83.4246V79H81.409V70.7345L79.6108 72.0686V70.43L81.8585 68.7044Z" fill="#68677E"/>
</svg>
