<svg width="124" height="118" viewBox="0 0 124 118" fill="none" xmlns="http://www.w3.org/2000/svg">
<rect width="124" height="118" rx="20" fill="#F9F9FB"/>
<path d="M31.958 54.1276H33.824V63.2645H31.958V54.1276Z" fill="#68677E"/>
<path d="M39.0776 53.9221C40.815 53.9221 42.4622 54.8487 42.5266 56.5216H40.712C40.6863 55.6981 40.0042 55.1318 38.9875 55.1318C37.9966 55.1318 37.4818 55.7624 37.4818 56.4315C37.4818 57.2552 38.2154 57.5254 39.6953 57.8342C41.8316 58.2846 42.7839 59.0954 42.7839 60.6397C42.7839 62.3384 41.4455 63.4709 39.2449 63.4709C36.9542 63.4709 35.5257 62.4027 35.4228 60.6139H37.3016C37.4047 61.7207 38.3698 62.2483 39.3221 62.2483C40.313 62.2483 41.0208 61.6563 41.0208 60.7684C41.0208 59.7904 40.1715 59.5458 38.7558 59.237C36.3751 58.7222 35.7317 57.9115 35.7317 56.5602C35.7317 55.0804 36.9671 53.9221 39.0776 53.9221Z" fill="#68677E"/>
<path d="M48.4626 53.9224C51.2036 53.9224 52.8509 55.9813 52.8509 58.6967C52.8509 61.412 51.2036 63.4711 48.4626 63.4711C45.7344 63.4711 44.0613 61.412 44.0613 58.6967C44.0613 55.9813 45.7344 53.9224 48.4626 53.9224ZM48.4626 55.1706C46.9698 55.1706 45.9788 56.5605 45.9788 58.6967C45.9788 60.833 46.9698 62.2227 48.4626 62.2227C49.9811 62.2227 50.9334 60.8586 50.9334 58.6967C50.9334 56.5347 49.9811 55.1706 48.4626 55.1706Z" fill="#68677E"/>
<path d="M54.4898 56.7916H56.3687V58.4517H54.4898V56.7916ZM54.4898 61.6046H56.3687V63.2647H54.4898V61.6046Z" fill="#68677E"/>
<path d="M61.86 60.8586L60.7403 61.9397H64.5496V63.2651H58.2309V62.1327L60.5988 59.8292C61.6927 58.7739 62.6965 57.7315 62.6965 56.612C62.6965 55.6854 62.1817 55.132 61.4096 55.132C60.573 55.132 59.9682 55.8913 59.9167 56.8436H58.115C58.1536 55.2607 59.5692 53.9481 61.4096 53.9481C63.4943 53.9481 64.4853 55.1835 64.4853 56.612C64.4853 58.2591 63.2756 59.4817 61.86 60.8586Z" fill="#68677E"/>
<path d="M65.6767 55.4528V54.1273H71.8023V55.2212C70.3225 57.0872 68.8939 60.4074 68.7009 63.2642H66.7062C67.015 60.4202 68.6623 57.4218 70.2194 55.4528H65.6767Z" fill="#68677E"/>
<path d="M76.1218 63.471C73.7281 63.471 72.7887 61.2961 72.7887 58.7094C72.7887 56.0843 73.7667 53.948 76.1218 53.948C78.5025 53.948 79.4547 56.1099 79.4547 58.7094C79.4547 61.3605 78.4767 63.471 76.1218 63.471ZM76.1218 62.287C77.3185 62.287 77.6532 60.717 77.6532 58.7094C77.6532 56.702 77.2928 55.1319 76.1218 55.1319C74.9506 55.1319 74.616 56.7148 74.616 58.7094C74.616 60.7042 74.9506 62.287 76.1218 62.287Z" fill="#68677E"/>
<path d="M83.9051 63.4711C81.5115 63.4711 80.572 61.2962 80.572 58.7095C80.572 56.0844 81.5501 53.9481 83.9051 53.9481C86.2859 53.9481 87.2382 56.11 87.2382 58.7095C87.2382 61.3606 86.2601 63.4711 83.9051 63.4711ZM83.9051 62.2871C85.102 62.2871 85.4365 60.7171 85.4365 58.7095C85.4365 56.7021 85.0762 55.132 83.9051 55.132C82.7341 55.132 82.3994 56.7149 82.3994 58.7095C82.3994 60.7043 82.7341 62.2871 83.9051 62.2871Z" fill="#68677E"/>
<path d="M88.5735 55.6591L90.5681 54.1276H91.958V63.2645H90.1692V55.9293L88.5735 57.1132V55.6591Z" fill="#68677E"/>
<mask id="mask0_12_2953" style="mask-type:luminance" maskUnits="userSpaceOnUse" x="41" y="34" width="43" height="49">
<path d="M83.6373 34.3973H41.1417V82.6348H83.6373V34.3973Z" fill="white"/>
</mask>
<g mask="url(#mask0_12_2953)">
<path d="M77.2586 75.2432C75.5901 73.9338 73.7526 72.8568 71.8094 72.012L72.443 69.689L70.7745 69.2877L70.2042 71.3996C65.1351 69.6679 59.6437 69.6679 54.5746 71.3996L54.0044 69.2877L52.3358 69.689L52.9694 72.012C51.0263 72.8356 49.1888 73.9338 47.5202 75.2432C45.5559 73.4903 43.9085 71.3996 42.6623 69.0765L41.1415 69.9001C47.4146 81.6421 62.0304 86.0561 73.7737 79.7838C77.9557 77.5241 81.3984 74.0817 83.6373 69.879L82.1165 69.0765C80.8703 71.3996 79.2229 73.4903 77.2586 75.2432ZM50.8995 77.7352C50.2025 77.3128 49.5267 76.8482 48.872 76.3414C50.287 75.2644 51.85 74.3562 53.4974 73.6382C54.2789 75.75 55.2294 77.5662 56.3065 78.9813C56.6656 79.4669 57.0669 79.9316 57.4893 80.354C55.166 79.8471 52.9483 78.9601 50.8995 77.7352ZM62.3894 80.882C60.7208 80.882 59.1156 79.8048 57.7217 77.9465C56.7501 76.6582 55.8841 74.9897 55.1449 73.0258C57.4682 72.2232 59.9182 71.822 62.3894 71.822C64.8606 71.822 67.3106 72.2232 69.6551 73.0258C68.937 74.9686 68.0499 76.6582 67.0784 77.9465C65.6843 79.8048 64.058 80.882 62.3894 80.882ZM73.8582 77.7352C71.8306 78.9601 69.5917 79.8259 67.2684 80.3751C67.6908 79.9527 68.0921 79.488 68.4512 79.0024C69.5283 77.5662 70.4788 75.7711 71.2603 73.6593C72.9077 74.3773 74.4495 75.2855 75.8858 76.3625C75.231 76.8482 74.5552 77.3128 73.8582 77.7352Z" fill="#68677E"/>
<path d="M47.5204 41.7693C49.189 43.0786 51.0053 44.1557 52.9696 45.0004L52.336 47.3235L54.0046 47.7248L54.5748 45.6129C57.0882 46.4788 59.7283 46.9223 62.3896 46.9223C65.0508 46.9223 67.691 46.4788 70.2043 45.6129L70.7747 47.7248L72.4432 47.3235L71.8096 45.0004C73.7528 44.1768 75.5903 43.0786 77.2588 41.7693C79.2231 43.5221 80.8705 45.6129 82.1167 47.936L83.6374 47.1334C77.3645 35.3914 62.7698 30.9776 51.0265 37.2499C46.8233 39.4885 43.3806 42.9308 41.1417 47.1334L42.6625 47.936C43.9087 45.6129 45.556 43.5221 47.5204 41.7693ZM73.8584 39.2983C74.5765 39.7207 75.2523 40.1642 75.8859 40.6711C74.4709 41.7482 72.9079 42.6562 71.2605 43.3743C70.479 41.2835 69.5285 39.4673 68.4514 38.0524C68.0923 37.5666 67.691 37.102 67.2686 36.6796C69.5919 37.1865 71.8095 38.0735 73.8584 39.2983ZM62.3896 36.1306C64.0793 36.1306 65.6845 37.2076 67.0785 39.0661C68.0501 40.3544 68.916 42.0227 69.6553 43.9868C67.3108 44.7893 64.8608 45.1906 62.3896 45.1906C59.9184 45.2116 57.4684 44.7893 55.124 43.9868C55.8421 42.0227 56.7292 40.3544 57.7008 39.0661C59.0947 37.2076 60.6999 36.1306 62.3896 36.1306ZM50.8997 39.2983C52.9696 38.0735 55.1873 37.1865 57.4895 36.6796C57.0671 37.102 56.6658 37.5666 56.3067 38.0524C55.2296 39.4673 54.2791 41.2624 53.4976 43.3743C51.8502 42.6774 50.3084 41.7693 48.8721 40.6711C49.5269 40.1854 50.2027 39.7207 50.8997 39.2983Z" fill="#68677E"/>
</g>
</svg>
