<svg width="124" height="118" viewBox="0 0 124 118" fill="none" xmlns="http://www.w3.org/2000/svg">
<rect width="124" height="118" rx="20" fill="#F9F9FB"/>
<path d="M61.9167 63.5865C63.0685 63.5999 64.2069 63.3052 65.6266 62.6624L78.8184 56.6356C79.6891 56.2338 80.131 55.457 80.131 54.6535C80.131 53.8633 79.6891 53.0865 78.8184 52.6847L65.6266 46.6579C64.2069 46.0151 63.0685 45.7204 61.9167 45.7338C60.7783 45.7204 59.6399 46.0151 58.2069 46.6579L45.0283 52.6847C44.1578 53.0865 43.7158 53.8633 43.7158 54.6535C43.7158 55.457 44.1578 56.2338 45.0283 56.6356L58.2069 62.6624C59.6399 63.3052 60.7783 63.5999 61.9167 63.5865ZM61.9167 61.4704C61.0327 61.4704 60.1622 61.2427 59.0238 60.7204L46.689 55.1088C46.448 55.0017 46.3408 54.841 46.3408 54.6535C46.3408 54.4793 46.448 54.3186 46.689 54.2115L59.0238 48.5999C60.1622 48.0776 61.0327 47.8499 61.9167 47.8499C62.814 47.8499 63.6711 48.0776 64.823 48.5999L77.1578 54.2115C77.3854 54.3186 77.506 54.4793 77.506 54.6535C77.506 54.841 77.3854 55.0017 77.1578 55.1088L64.823 60.7204C63.6711 61.2427 62.814 61.4704 61.9167 61.4704ZM48.939 64.7249C48.939 68.7294 54.0283 72.1177 61.9167 72.1177C69.8184 72.1177 74.9078 68.7294 74.9078 64.7249V57.6535H72.7515V64.7249C72.7515 67.524 68.5194 70.0954 61.9167 70.0954C55.3275 70.0954 51.0953 67.524 51.0953 64.7249V57.6535H48.939V64.7249ZM61.9703 56.1802C63.4167 56.1802 64.8095 55.524 64.8095 54.6535C64.8095 53.8097 63.4167 53.1669 61.9703 53.1669C60.5373 53.1669 59.1176 53.8097 59.1176 54.6535C59.1176 55.524 60.5373 56.1802 61.9703 56.1802ZM53.8274 59.716L61.7694 55.5106L61.0327 54.1312L52.0864 58.7919L53.8274 59.716ZM52.0864 72.8544H53.8274V59.716L52.0864 58.8588V72.8544ZM51.0283 73.1223V76.6446C51.0283 77.7026 51.7114 78.3856 52.7694 78.3856H53.131C54.189 78.3856 54.8721 77.7026 54.8721 76.6446V73.1223C54.8721 72.0642 54.189 71.3811 53.131 71.3811H52.7694C51.7114 71.3811 51.0283 72.0642 51.0283 73.1223Z" fill="#68677E"/>
</svg>
