<svg width="124" height="118" viewBox="0 0 124 118" fill="none" xmlns="http://www.w3.org/2000/svg">
<rect width="124" height="118" rx="20" fill="#F9F9FB"/>
<path d="M49.0625 66.2188H67.3571C70.1429 66.2188 71.5625 64.826 71.5625 62.067V49.4375C71.5625 46.6786 70.1429 45.2858 67.3571 45.2858H49.0625C46.25 45.2858 44.8571 46.6786 44.8571 49.4375V62.067C44.8571 64.8394 46.25 66.2188 49.0625 66.2188ZM49.0893 64.0626C47.75 64.0626 47.0134 63.3527 47.0134 61.9598V49.5581C47.0134 48.1652 47.75 47.442 49.0893 47.442H67.3169C68.6429 47.442 69.4063 48.1652 69.4063 49.5581V61.9598C69.4063 63.3527 68.6429 64.0626 67.3169 64.0626H49.0893Z" fill="#68677E"/>
<path d="M55.6786 72.4196H73.9733C76.759 72.4196 78.1785 71.0267 78.1785 68.2679V55.6384C78.1785 52.8794 76.759 51.4866 73.9733 51.4866H55.6786C52.8661 51.4866 51.4732 52.8794 51.4732 55.6384V68.2679C51.4732 71.0402 52.8661 72.4196 55.6786 72.4196Z" fill="white"/>
<path d="M55.6786 72.4196H73.9733C76.759 72.4196 78.1785 71.0267 78.1785 68.2679V55.6384C78.1785 52.8794 76.759 51.4866 73.9733 51.4866H55.6786C52.8661 51.4866 51.4732 52.8794 51.4732 55.6384V68.2679C51.4732 71.0402 52.8661 72.4196 55.6786 72.4196ZM55.7054 70.2634C54.3661 70.2634 53.6295 69.5536 53.6295 68.1607V55.7589C53.6295 54.366 54.3661 53.6428 55.7054 53.6428H73.933C75.259 53.6428 76.0223 54.366 76.0223 55.7589V68.1607C76.0223 69.5536 75.259 70.2634 73.933 70.2634H55.7054Z" fill="#68677E"/>
<path d="M59.9911 67.2366C59.9911 68.2411 60.433 68.7099 61.3571 68.7099H68.2946C69.2321 68.7099 69.6741 68.2411 69.6741 67.2366V61.9063C69.6741 60.9688 69.2857 60.5 68.4822 60.4464V58.8661C68.4822 56.4018 67.0089 54.7545 64.8259 54.7545C62.6562 54.7545 61.1696 56.4018 61.1696 58.8661V60.4464C60.3794 60.5 59.9911 60.9688 59.9911 61.9063V67.2366ZM62.5625 60.4331V58.7188C62.5625 57.1384 63.4733 56.1072 64.8259 56.1072C66.192 56.1072 67.0893 57.1384 67.0893 58.7188V60.4331H62.5625Z" fill="#68677E"/>
</svg>
