<svg width="124" height="118" viewBox="0 0 124 118" fill="none" xmlns="http://www.w3.org/2000/svg">
<rect width="124" height="118" rx="20" fill="#F9F9FB"/>
<path fill-rule="evenodd" clip-rule="evenodd" d="M65.9717 49.0702H57.6949C56.9181 49.0702 56.4494 48.5746 56.4494 47.7443V46.338C56.4494 45.5077 56.9181 45.0121 57.6949 45.0121H58.927C59.0208 43.4987 60.2797 42.2666 61.8333 42.2666C63.3868 42.2666 64.6458 43.4987 64.7395 45.0121H65.9717C66.7484 45.0121 67.2172 45.5077 67.2172 46.338V47.7443C67.2172 48.5746 66.7484 49.0702 65.9717 49.0702ZM60.6681 45.1193C60.6681 45.7487 61.1904 46.2845 61.8333 46.2845C62.4762 46.2845 62.9985 45.7487 62.9985 45.1193C62.9985 44.463 62.4762 43.9407 61.8333 43.9407C61.1904 43.9407 60.6681 44.463 60.6681 45.1193Z" fill="#68677E"/>
<path d="M68.8382 48.1591H68.76C68.7763 48.0245 68.7846 47.8861 68.7846 47.7441V46.3378C68.7846 46.2238 68.7793 46.1121 68.7689 46.0029H68.9453C71.7176 46.0029 73.0971 47.3957 73.0971 50.2082V61.4241C72.411 61.1982 71.6881 61.0565 70.9408 61.0116V50.235C70.9408 48.9091 70.231 48.1591 68.8382 48.1591Z" fill="#68677E"/>
<path d="M62.3111 72.5609H54.8292C53.4364 72.5609 52.7266 71.8243 52.7266 70.485V50.235C52.7266 48.9091 53.4364 48.1591 54.8292 48.1591H54.9074C54.8912 48.0245 54.8828 47.8861 54.8828 47.7441V46.3378C54.8828 46.2238 54.8881 46.1121 54.8985 46.0029H54.7221C51.9498 46.0029 50.5703 47.3957 50.5703 50.2082V70.5118C50.5703 73.3243 51.9498 74.7171 54.7221 74.7171H63.4607C62.9816 74.0617 62.5922 73.3368 62.3111 72.5609Z" fill="#68677E"/>
<path fill-rule="evenodd" clip-rule="evenodd" d="M77.2282 69.6356C77.2282 73.3588 74.1211 76.4391 70.4246 76.4391C66.7014 76.4391 63.6211 73.3855 63.6211 69.6356C63.6211 65.9124 66.7014 62.832 70.4246 62.832C74.1612 62.832 77.2282 65.899 77.2282 69.6356ZM68.9367 73.0229C69.1109 73.2104 69.3921 73.3042 69.6063 73.3042C69.901 73.3042 70.1688 73.1837 70.3161 72.9828L74.2001 67.5854C74.3341 67.4114 74.3876 67.2238 74.3876 67.0765C74.3876 66.6077 73.9992 66.2461 73.5439 66.2461C73.2493 66.2461 72.9948 66.3935 72.8474 66.6212L69.5796 71.1479L67.9322 69.3667C67.7849 69.2194 67.5706 69.0854 67.2894 69.0854C66.8207 69.0854 66.459 69.447 66.459 69.9292C66.459 70.1167 66.5126 70.3577 66.6733 70.5318L68.9367 73.0229Z" fill="#68677E"/>
</svg>
