<svg width="769" height="458" viewBox="0 0 769 458" fill="none" xmlns="http://www.w3.org/2000/svg">
<g clip-path="url(#clip0_7_5291)">
<path d="M71.1691 110V83.4547V50.736V24.1907H99.9368C120.185 24.1907 128.951 33.3272 128.951 45.4269C128.951 54.8104 122.655 62.2184 111.419 65.0581V65.4285C126.482 67.7744 133.396 76.7875 133.396 86.1709C133.396 99.0115 123.025 110 102.9 110H71.1691ZM83.0219 60.7368H98.4552C110.431 60.7368 116.852 56.292 116.852 46.9085C116.852 38.8832 110.308 34.3149 98.5787 34.3149H83.0219V60.7368ZM98.5787 70.8611H83.0219V99.8757H99.3195C112.53 99.8757 121.173 95.5544 121.173 85.1832C121.173 75.5528 113.148 70.8611 98.5787 70.8611ZM147.56 40.6117C142.992 40.6117 139.288 37.0312 139.288 32.4629C139.288 28.1416 142.992 24.5611 147.56 24.5611C151.882 24.5611 155.462 28.1416 155.462 32.4629C155.462 37.0312 151.882 40.6117 147.56 40.6117ZM153.24 89.9984V110H141.881V89.9984V71.3549V51.3533H153.24V89.9984ZM190.911 111.482C174.367 111.482 161.526 98.6411 161.526 80.6149C161.526 62.5888 174.367 49.8717 190.911 49.8717C207.579 49.8717 220.42 62.5888 220.42 80.6149C220.42 98.6411 207.579 111.482 190.911 111.482ZM190.911 101.728C201.53 101.728 208.567 93.332 208.567 80.6149C208.567 67.8979 201.53 59.6256 190.911 59.6256C180.417 59.6256 173.379 67.8979 173.379 80.6149C173.379 93.332 180.417 101.728 190.911 101.728ZM255.558 111.482C236.544 111.482 224.321 98.1472 224.321 80.4915C224.321 62.8357 236.791 49.8717 255.187 49.8717C261.237 49.8717 267.04 51.3533 271.115 53.6992V62.9592C266.546 60.6133 262.225 59.3787 257.163 59.3787C244.569 59.3787 236.174 67.5275 236.174 80.4915C236.174 93.4555 244.569 101.975 257.41 101.975C262.349 101.975 267.164 100.617 272.349 97.9003V107.037C267.534 110 261.484 111.482 255.558 111.482ZM298.987 111.482C288.246 111.482 279.603 103.827 279.603 89.2576V71.4784V51.3533H290.962V89.1341C290.962 97.7768 295.283 101.975 301.827 101.975C309.358 101.975 316.026 96.1717 316.026 84.1955V71.4784V51.3533H327.385V88.8872V110H316.026V101.728H315.779C311.828 108.395 305.778 111.482 298.987 111.482ZM340.003 89.9984V72.5896V51.3533H351.362V64.0704H351.609C354.819 54.8104 360.746 49.8717 369.265 49.8717C371.117 49.8717 372.475 50.1187 373.833 50.3656V61.3541C372.228 60.9837 370.87 60.8603 369.388 60.8603C360.005 60.8603 351.362 67.1571 351.362 84.6893V89.9984V110H340.003V89.9984ZM384.848 40.6117C380.279 40.6117 376.575 37.0312 376.575 32.4629C376.575 28.1416 380.279 24.5611 384.848 24.5611C389.169 24.5611 392.75 28.1416 392.75 32.4629C392.75 37.0312 389.169 40.6117 384.848 40.6117ZM390.527 89.9984V110H379.168V89.9984V71.3549V51.3533H390.527V89.9984ZM425.236 111.482C414.618 111.482 407.95 105.308 407.95 92.9616V60.8603H395.851V51.6003C407.58 51.6003 408.691 50.2421 408.691 37.5251H419.062V51.3533H435.113V60.8603H419.062V92.4677C419.062 98.7645 421.902 101.975 427.705 101.975C430.545 101.975 432.767 101.481 435.113 100.74V109.506C432.767 110.617 429.063 111.482 425.236 111.482ZM488.6 102.592C489.835 102.592 490.946 102.345 492.057 101.851V110.123C490.205 110.864 488.23 111.482 485.02 111.482C478.599 111.482 473.661 107.16 472.92 101.11H472.673C468.352 108.642 461.808 111.482 455.141 111.482C445.881 111.482 438.349 105.432 438.349 95.9248C438.349 85.4301 447.486 80.7384 460.944 77.5283L472.92 74.5651V71.9723C472.92 62.4653 466.376 59.3787 458.598 59.3787C452.795 59.3787 446.745 61.2307 440.819 64.9347V55.6747C445.881 52.3411 452.918 49.8717 460.573 49.8717C473.908 49.8717 484.032 56.6624 484.032 72.4661V97.6533C484.032 100.987 485.761 102.592 488.6 102.592ZM458.104 102.592C464.524 102.592 472.92 97.036 472.92 84.5659V82.0965L463.66 84.8128C454.4 87.4056 450.202 89.9984 450.202 94.9371C450.202 99.9992 453.659 102.592 458.104 102.592ZM511.083 111.482C504.786 111.482 498.242 109.383 493.427 105.802V96.2952C499.477 100.37 504.909 101.975 510.095 101.975C515.898 101.975 522.071 99.7523 522.071 94.1963C522.071 90.4923 519.479 89.1341 514.416 86.9117L506.268 83.3312C498.119 79.9976 494.538 74.6885 494.538 67.8979C494.538 57.7736 503.798 49.8717 515.898 49.8717C521.331 49.8717 527.133 51.4768 531.331 53.9461V63.2061C526.763 60.7368 521.824 59.3787 517.133 59.3787C510.712 59.3787 505.403 62.0949 505.403 67.1571C505.403 70.7376 507.626 72.7131 512.811 74.812L521.824 78.516C528.985 81.4792 533.06 86.1709 533.06 93.332C533.06 104.197 523.306 111.482 511.083 111.482Z" fill="#8D5FFF"/>
<path d="M90.5533 237.153C81.7872 237.153 72.2803 234.066 65.7365 228.881V217.522C74.7496 224.066 82.528 226.535 89.5656 226.535C99.3195 226.535 107.592 221.967 107.592 212.954C107.592 206.904 103.641 203.817 96.7267 200.73L85.7381 195.792C73.8853 190.483 67.9589 182.704 67.9589 173.197C67.9589 159.863 79.8117 148.38 96.8501 148.38C105.246 148.38 112.777 151.097 117.099 154.43V165.048C110.678 161.098 104.258 158.999 97.7144 158.999C87.5901 158.999 80.0587 163.937 80.0587 172.333C80.0587 177.889 83.1453 181.963 90.6768 185.174L101.789 190.112C113.395 195.298 119.815 201.842 119.815 212.213C119.815 226.905 106.727 237.153 90.5533 237.153ZM175.038 228.263C176.273 228.263 177.384 228.016 178.495 227.523V235.795C176.643 236.536 174.668 237.153 171.458 237.153C165.038 237.153 160.099 232.832 159.358 226.782H159.111C154.79 234.313 148.246 237.153 141.579 237.153C132.319 237.153 124.787 231.103 124.787 221.596C124.787 211.102 133.924 206.41 147.382 203.2L159.358 200.236V197.644C159.358 188.137 152.814 185.05 145.036 185.05C139.233 185.05 133.183 186.902 127.257 190.606V181.346C132.319 178.012 139.356 175.543 147.011 175.543C160.346 175.543 170.47 182.334 170.47 198.138V223.325C170.47 226.658 172.199 228.263 175.038 228.263ZM144.542 228.263C150.962 228.263 159.358 222.707 159.358 210.237V207.768L150.098 210.484C140.838 213.077 136.64 215.67 136.64 220.608C136.64 225.671 140.097 228.263 144.542 228.263ZM183.446 215.67V198.261V177.025H194.805V185.544H195.175C199.373 178.753 205.67 175.543 212.46 175.543C223.819 175.543 232.462 183.445 232.462 198.878V215.67V235.671H221.103V215.67V199.125C221.103 189.989 216.782 185.05 209.621 185.05C202.213 185.05 194.805 190.976 194.805 203.57V215.67V235.671H183.446V215.67ZM258.024 237.153C251.727 237.153 245.184 235.054 240.369 231.474V221.967C246.418 226.041 251.851 227.646 257.037 227.646C262.839 227.646 269.013 225.424 269.013 219.868C269.013 216.164 266.42 214.806 261.358 212.583L253.209 209.003C245.06 205.669 241.48 200.36 241.48 193.569C241.48 183.445 250.74 175.543 262.839 175.543C268.272 175.543 274.075 177.148 278.273 179.618V188.878C273.705 186.408 268.766 185.05 264.074 185.05C257.654 185.05 252.345 187.766 252.345 192.828C252.345 196.409 254.567 198.384 259.753 200.483L268.766 204.187C275.927 207.151 280.001 211.842 280.001 219.003C280.001 229.868 270.247 237.153 258.024 237.153Z" fill="#8D5FFF"/>
<path d="M355.1 235.671V209.003V176.407V149.862H363.866V176.407V227.893H386.213H407.203V235.671H355.1ZM417.467 164.802C413.639 164.802 410.676 161.838 410.676 158.011C410.676 154.307 413.639 151.344 417.467 151.344C421.171 151.344 424.134 154.307 424.134 158.011C424.134 161.838 421.171 164.802 417.467 164.802ZM421.788 215.67V235.671H413.392V215.67V197.026V177.025H421.788V215.67ZM455.291 261.229C447.636 261.229 440.475 259.007 435.289 255.303V247.771C441.092 251.599 447.76 253.821 454.55 253.821C467.638 253.821 477.145 246.907 477.145 230.856V223.201H477.021C472.947 231.227 465.168 235.178 457.513 235.178C443.315 235.178 431.832 223.695 431.832 205.546C431.832 187.396 443.932 175.79 458.254 175.79C465.415 175.79 472.947 179.494 477.021 187.766H477.145V177.025H485.54V230.733C485.54 251.228 472.329 261.229 455.291 261.229ZM458.995 228.14C469.984 228.14 477.515 218.88 477.515 205.669V205.422C477.515 191.717 469.984 182.704 458.995 182.704C448.006 182.704 440.598 192.088 440.598 205.669C440.598 218.88 448.006 228.14 458.995 228.14ZM499.792 215.67V169.246V148.01H508.188V187.026H508.435C512.633 179.988 519.053 175.79 526.831 175.79C537.449 175.79 546.956 183.075 546.956 199.002V215.67V235.671H538.561V215.67V199.125C538.561 189.495 534.116 183.075 524.979 183.075C515.843 183.075 508.188 190.73 508.188 201.965V215.67V235.671H499.792V215.67ZM579.444 236.906C570.431 236.906 563.764 231.844 563.764 220.115V184.186H551.664V177.272C563.147 177.272 564.258 175.914 564.258 163.814H571.913V177.025H587.964V184.186H571.913V219.744C571.913 226.658 575.494 229.622 581.05 229.622C583.642 229.622 585.741 229.251 587.964 228.51V235.301C585.865 236.289 582.778 236.906 579.444 236.906Z" fill="white"/>
<path d="M390.041 320.722L422.883 361.343H407.573L376.583 322.08H365.841V334.797V361.343H354.235V334.797V302.079V275.533H381.398C400.165 275.533 410.166 285.287 410.166 298.745C410.166 309.363 403.128 318.129 390.041 320.722ZM365.841 285.658V311.956H379.67C392.14 311.956 397.943 306.524 397.943 298.745C397.943 290.226 392.14 285.658 379.67 285.658H365.841ZM470.05 326.896V332.699H430.541C431.528 346.156 439.554 353.317 451.53 353.317C457.457 353.317 463.013 351.465 469.062 347.885V357.145C463.877 360.849 457.086 362.824 449.555 362.824C431.899 362.824 418.935 350.478 418.935 331.34C418.935 313.932 430.541 301.215 446.221 301.215C460.173 301.215 470.05 310.598 470.05 326.896ZM445.727 310.104C437.208 310.104 432.269 315.413 430.911 323.932H458.691C458.197 314.919 453.012 310.104 445.727 310.104ZM499.306 387.024C491.157 387.024 483.873 384.801 478.687 381.221V371.344C484.613 375.048 491.404 377.27 498.195 377.27C510.048 377.27 519.554 371.467 519.554 355.663V350.107H519.308C515.357 356.898 508.319 360.602 500.664 360.602C486.218 360.602 474.983 349.12 474.983 331.093C474.983 313.067 487.206 301.215 501.405 301.215C508.319 301.215 515.233 304.548 519.308 311.462H519.554V302.696H530.913V355.54C530.913 377.147 516.715 387.024 499.306 387.024ZM503.504 351.342C513.258 351.342 520.048 342.946 520.048 331.217V330.97C520.048 318.747 513.258 310.351 503.504 310.351C493.873 310.351 486.836 318.994 486.836 331.093C486.836 343.07 493.873 351.342 503.504 351.342ZM562.063 362.824C551.321 362.824 542.678 355.169 542.678 340.6V322.821V302.696H554.037V340.477C554.037 349.12 558.359 353.317 564.902 353.317C572.434 353.317 579.101 347.515 579.101 335.538V322.821V302.696H590.46V340.23V361.343H579.101V353.071H578.854C574.903 359.738 568.853 362.824 562.063 362.824ZM603.079 361.343V341.341V293.066V273.681H614.438V341.341V361.343H603.079ZM673.472 353.935C674.707 353.935 675.818 353.688 676.929 353.194V361.466C675.077 362.207 673.102 362.824 669.892 362.824C663.471 362.824 658.533 358.503 657.792 352.453H657.545C653.224 359.985 646.68 362.824 640.013 362.824C630.753 362.824 623.221 356.775 623.221 347.268C623.221 336.773 632.358 332.081 645.816 328.871L657.792 325.908V323.315C657.792 313.808 651.248 310.721 643.47 310.721C637.667 310.721 631.617 312.573 625.69 316.277V307.017C630.753 303.684 637.79 301.215 645.445 301.215C658.78 301.215 668.904 308.005 668.904 323.809V348.996C668.904 352.33 670.632 353.935 673.472 353.935ZM642.976 353.935C649.396 353.935 657.792 348.379 657.792 335.909V333.439L648.532 336.156C639.272 338.748 635.074 341.341 635.074 346.28C635.074 351.342 638.531 353.935 642.976 353.935ZM682.126 341.341V323.932V302.696H693.485V315.413H693.732C696.942 306.153 702.869 301.215 711.388 301.215C713.24 301.215 714.598 301.461 715.956 301.708V312.697C714.351 312.327 712.993 312.203 711.511 312.203C702.128 312.203 693.485 318.5 693.485 336.032V341.341V361.343H682.126V341.341Z" fill="white"/>
<path d="M352.877 487.014V460.469V427.75V401.205H384.732C405.104 401.205 414.611 410.712 414.611 423.058C414.611 431.948 409.055 439.233 397.696 442.196V442.69C412.512 445.282 418.809 453.555 418.809 463.062C418.809 475.655 407.943 487.014 387.695 487.014H352.877ZM369.175 436.64H381.892C390.782 436.64 398.066 433.923 398.066 425.404C398.066 417.009 390.782 414.539 381.892 414.539H369.175V436.64ZM382.756 449.974H369.175V473.68H382.756C393.868 473.68 401.77 470.963 401.77 461.827C401.77 452.197 393.868 449.974 382.756 449.974ZM451.825 488.743C434.17 488.743 421.206 475.779 421.206 457.629C421.206 439.479 434.17 426.639 451.825 426.639C469.481 426.639 482.445 439.479 482.445 457.629C482.445 475.779 469.481 488.743 451.825 488.743ZM451.825 476.396C460.715 476.396 466.147 468.865 466.147 457.629C466.147 446.394 460.715 438.986 451.825 438.986C442.936 438.986 437.503 446.394 437.503 457.629C437.503 468.865 442.936 476.396 451.825 476.396ZM488.551 487.014V467.013V418.737V399.353H504.355V467.013V487.014H488.551ZM536.68 488.743C521.987 488.743 510.505 475.655 510.505 457.753C510.505 439.726 522.234 426.639 537.174 426.639C544.211 426.639 551.372 430.096 554.829 436.763H555.2V420.589V399.353H571.003V465.778V487.014H555.2V478.618H554.829C551.249 484.792 544.211 488.743 536.68 488.743ZM541.248 476.766C549.644 476.766 555.94 468.988 555.94 457.629V457.382C555.94 446.27 549.767 438.615 541.371 438.615C533.099 438.615 526.802 446.147 526.802 457.629C526.802 469.111 532.852 476.766 541.248 476.766Z" fill="white"/>
<path d="M614.84 487.014L621.383 460.469L629.532 427.627L636.199 401.205H652.744C650.892 408.489 648.299 418.737 646.077 427.75L637.928 460.469C635.582 469.729 633.236 479.359 631.384 487.014H614.84ZM670.014 488.743C659.025 488.743 650.63 479.853 654.334 464.914L660.384 440.714H648.037L651 428.738C663.347 428.738 664.828 426.639 668.038 413.305H682.608L678.78 428.367H694.831L691.744 440.714H675.693L669.15 466.889C667.298 474.05 670.878 476.396 675.693 476.396C678.657 476.396 680.632 476.026 683.101 475.285L680.262 486.397C677.422 487.755 673.594 488.743 670.014 488.743ZM709.365 488.743C698.006 488.743 688.376 478.618 688.376 462.691C688.376 443.183 701.463 426.639 718.378 426.639C728.009 426.639 734.429 431.948 736.775 439.479H737.145L739.861 428.367H755.665L746.282 465.778L741.096 487.014H725.292L726.897 480.347H726.527C723.564 484.421 717.267 488.743 709.365 488.743ZM715.785 476.766C726.65 476.766 733.811 464.667 733.811 452.69V452.443C733.811 443.924 728.996 438.615 721.959 438.615C710.847 438.615 704.179 451.209 704.179 462.074C704.179 470.963 708.995 476.766 715.785 476.766ZM750.966 487.014C752.447 480.841 754.176 473.68 755.904 467.013L768.004 418.737L772.819 399.353H788.623L771.708 467.013C769.979 473.803 768.251 480.841 766.769 487.014H750.966ZM802.675 419.478C797.366 419.478 793.785 415.527 793.785 410.588C793.785 404.415 798.477 399.847 804.897 399.847C810.206 399.847 813.787 403.798 813.787 408.736C813.787 414.91 809.095 419.478 802.675 419.478ZM807.12 428.367L797.489 467.013C795.761 473.803 794.032 480.841 792.551 487.014H776.747C778.352 480.841 780.081 473.803 781.686 467.136L786.377 448.369C788.106 441.578 789.834 434.664 791.316 428.367H807.12ZM833.886 488.743C816.601 488.743 805.983 476.519 805.983 461.21C805.983 440.591 822.033 426.639 842.652 426.639C850.06 426.639 856.974 428.861 861.049 431.701L858.332 442.566C854.381 440.344 849.69 438.986 844.751 438.986C831.664 438.986 821.786 447.134 821.786 460.222C821.786 470.963 828.577 476.396 838.578 476.396C842.899 476.396 847.714 475.285 852.159 472.939L849.196 484.792C844.998 487.385 839.689 488.743 833.886 488.743Z" fill="white"/>
<path d="M624.939 235.671C626.914 228.14 629.507 218.139 631.729 209.126L639.878 176.284C642.101 167.271 644.57 157.394 646.545 149.862H655.311C653.459 157.394 650.99 167.394 648.768 176.16L640.495 209.25C638.397 218.016 635.804 228.14 633.828 235.671H624.939ZM670.184 236.906C661.665 236.906 654.504 230.856 657.714 217.892L666.11 184.186H654.504L656.356 177.272C667.839 177.272 669.197 175.173 672.036 163.814H679.691L676.481 177.025H692.532L690.68 184.186H674.506L665.616 219.621C663.764 227.029 667.962 229.622 672.777 229.622C675.247 229.622 677.469 229.251 679.691 228.387L677.963 235.424C675.617 236.412 673.024 236.906 670.184 236.906ZM708.228 236.906C697.116 236.906 687.238 228.14 687.238 211.595C687.238 194.557 699.832 175.79 717.981 175.79C727.365 175.79 734.402 182.334 736.378 190.73H736.625L739.958 177.025H748.354L739.094 214.435L733.785 235.671H725.266L727.612 226.535H727.365C722.673 233.079 715.882 236.906 708.228 236.906ZM710.08 229.992C724.155 229.992 733.291 213.571 733.291 200.607V200.236C733.291 189.001 727.241 182.704 718.846 182.704C705.141 182.704 695.757 198.508 695.757 211.472C695.757 223.448 701.684 229.992 710.08 229.992ZM748.41 235.671C749.892 229.498 751.744 222.46 753.472 215.793L765.572 167.394L770.387 148.01H778.783L761.868 215.793C760.139 222.584 758.287 229.498 756.806 235.671H748.41ZM794.254 164.678C790.673 164.678 788.081 161.962 788.081 158.628C788.081 154.43 791.414 151.097 795.859 151.097C799.193 151.097 801.785 153.69 801.785 157.023C801.785 161.344 798.452 164.678 794.254 164.678ZM794.624 177.025L784.994 215.67C783.265 222.584 781.537 229.498 779.932 235.671H771.536C773.018 229.375 774.746 222.831 776.475 215.546L781.166 196.903L786.229 177.025H794.624ZM824.044 236.906C808.364 236.906 797.375 225.794 797.375 209.99C797.375 192.088 810.586 175.79 832.81 175.79C839.848 175.79 845.898 177.642 850.096 180.358L848.614 186.779C843.922 184.309 839.107 183.075 833.551 183.075C817.253 183.075 805.895 194.927 805.895 209.743C805.895 221.72 813.549 229.622 825.155 229.622C830.711 229.622 835.65 228.14 840.959 224.806L838.984 232.461C834.786 235.301 829.477 236.906 824.044 236.906Z" fill="white"/>
<path opacity="0.35" d="M30 24H831.982" stroke="#8D5FFF" stroke-width="1.10238"/>
<path opacity="0.35" d="M29.9998 109.986H831.982" stroke="#8D5FFF" stroke-width="1.10238"/>
<path opacity="0.35" d="M29.9995 149.671H831.982" stroke="#8D5FFF" stroke-width="1.10238"/>
<path opacity="0.35" d="M29.9998 235.657H831.982" stroke="#8D5FFF" stroke-width="1.10238"/>
<path opacity="0.35" d="M29.9995 275.343H831.982" stroke="#8D5FFF" stroke-width="1.10238"/>
<path opacity="0.35" d="M29.9998 361.329H831.982" stroke="#8D5FFF" stroke-width="1.10238"/>
<path opacity="0.35" d="M29.9995 401.014H831.982" stroke="#8D5FFF" stroke-width="1.10238"/>
</g>
<defs>
<clipPath id="clip0_7_5291">
<rect width="769" height="458" fill="white"/>
</clipPath>
</defs>
</svg>
