<svg width="124" height="118" viewBox="0 0 124 118" fill="none" xmlns="http://www.w3.org/2000/svg">
<rect y="-0.000976562" width="124" height="118" rx="20" fill="#F9F9FB"/>
<g clip-path="url(#clip0_11_123)">
<path d="M68.123 63.9235L69.5605 68.8799L73.3276 72.9368C73.8371 72.6432 74.2708 72.2171 74.5757 71.6887L78.0757 65.628C78.3806 65.1015 78.5321 64.5125 78.5321 63.9235L73.1571 62.8818L68.123 63.9235Z" fill="#EA4335"/>
<path d="M67.2057 44.3043C66.6963 44.0108 66.111 43.8479 65.5012 43.8479H58.5031C57.897 43.8479 57.3061 44.0146 56.7985 44.3043L58.3061 49.382L61.9879 53.2911L62.0012 53.3176L65.7095 49.3612L67.2057 44.3043Z" fill="#188038"/>
<path d="M55.8776 63.9236L50.5121 62.6925L45.4704 63.9236C45.4704 64.5107 45.6219 65.0978 45.9249 65.6262L49.4249 71.6887C49.7299 72.2152 50.1636 72.6414 50.673 72.9368L54.3833 69.1149L55.8776 63.9236Z" fill="#1967D2"/>
<path d="M73.2633 53.8858L68.4527 45.5524C68.1477 45.024 67.714 44.5979 67.2045 44.3043L62 53.3176L68.1231 63.9236H78.5303C78.5303 63.3346 78.3788 62.7475 78.0739 62.2191L73.2633 53.8858Z" fill="#FBBC04"/>
<path d="M68.1247 63.923H55.8785L50.6739 72.9362C51.1834 73.2298 51.7686 73.3927 52.3785 73.3927H71.6228C72.2326 73.3927 72.8179 73.2298 73.3273 72.9362L68.1247 63.923Z" fill="#4285F4"/>
<path d="M62.0007 53.3176L56.798 44.3043C56.2886 44.5979 55.8568 45.0221 55.5518 45.5486L45.9249 62.2248C45.6219 62.7513 45.4704 63.3384 45.4704 63.9236H55.8776L62.0007 53.3176Z" fill="#34A853"/>
</g>
<defs>
<clipPath id="clip0_11_123">
<rect width="40" height="40" fill="white" transform="translate(42 38.999)"/>
</clipPath>
</defs>
</svg>
