<svg width="124" height="118" viewBox="0 0 124 118" fill="none" xmlns="http://www.w3.org/2000/svg">
<rect width="124" height="118" rx="20" fill="#F9F9FB"/>
<path fill-rule="evenodd" clip-rule="evenodd" d="M59.3155 50.4397C60.3479 49.3649 61.7848 48.6994 63.3722 48.6994C65.4888 48.6994 67.3232 49.8753 68.3108 51.6273C69.1876 51.2354 70.1372 51.033 71.0976 51.0335C74.9074 51.0335 78 54.1495 78 57.9946C78 61.8397 74.9074 64.9558 71.0976 64.9558C70.632 64.9558 70.1782 64.909 69.7336 64.8206C68.8694 66.361 67.2174 67.4074 65.3359 67.4074C64.57 67.409 63.8138 67.2352 63.1253 66.8994C62.2493 68.9572 60.2092 70.4036 57.8339 70.4036C55.3528 70.4036 53.248 68.8396 52.4367 66.6408C52.0756 66.717 51.7075 66.7552 51.3384 66.755C48.387 66.755 46 64.3328 46 61.3578C46 59.3589 47.0747 57.6186 48.6692 56.6779C48.3309 55.8986 48.1568 55.0581 48.1577 54.2086C48.1577 50.775 50.9445 48 54.378 48C56.3888 48 58.1878 48.9583 59.3167 50.4458" fill="#00A1E0"/>
</svg>
