<svg width="124" height="118" viewBox="0 0 124 118" fill="none" xmlns="http://www.w3.org/2000/svg">
<rect width="124" height="118" rx="20" fill="#F9F9FB"/>
<g clip-path="url(#clip0_11_128)">
<path d="M43.3449 53.6382C43.0002 53.6382 42.6542 53.5059 42.3922 53.2411C41.8683 52.7145 41.871 51.8624 42.3977 51.3399C45.7522 48.0047 50.1931 46.0041 54.8988 45.7036C55.6336 45.6553 56.2789 46.2192 56.3257 46.961C56.374 47.7027 55.8115 48.3411 55.0697 48.3893C51.0121 48.6472 47.1861 50.3734 44.2935 53.248C44.0315 53.5086 43.6882 53.6382 43.3449 53.6382Z" fill="#FA4616"/>
<path d="M46.9262 57.1816C46.5802 57.1816 46.2313 57.0478 45.9694 56.7817C45.4468 56.2537 45.4523 55.4016 45.9818 54.8805C48.3739 52.5187 51.5298 51.0545 54.865 50.7594C55.6081 50.6863 56.2575 51.2406 56.3237 51.981C56.3885 52.72 55.8425 53.3735 55.1021 53.4383C52.3874 53.6782 49.8188 54.8708 47.8707 56.7941C47.6087 57.0534 47.2668 57.1816 46.9262 57.1816Z" fill="#FA4616"/>
<path d="M81.6025 52.3556C81.073 51.8248 80.1851 51.8248 79.6557 52.3556C79.391 52.6203 79.2558 52.9485 79.2558 53.329V59.2631C78.6795 58.742 78.0288 58.2718 77.3118 57.8596C76.2847 57.2681 75.1293 56.9441 73.8677 56.9C72.7978 56.9 71.7624 57.1206 70.7931 57.5549C69.8308 57.9864 68.9718 58.5765 68.2397 59.3086C67.5062 60.0407 66.9175 60.9052 66.486 61.88C66.0517 62.8616 65.8311 63.9233 65.8311 65.0331C65.8311 66.143 66.0461 67.1674 66.4694 68.1367C66.8899 69.1004 67.469 69.9608 68.1901 70.6915C68.9125 71.425 69.7743 72.0109 70.7518 72.4328C72.6696 73.2615 75.0479 73.2835 77.0443 72.4673C77.8633 72.1323 78.6051 71.6814 79.2572 71.1244V71.7283C79.2572 72.1088 79.391 72.4356 79.6571 72.7017C79.9232 72.9664 80.2499 73.1015 80.6304 73.1015C81.011 73.1015 81.3391 72.9664 81.6038 72.7017C81.8686 72.4356 82.0037 72.1088 82.0037 71.7283V53.329C82.0037 52.9485 81.8699 52.6203 81.6038 52.3556M79.2558 65.0318C79.2558 65.7625 79.1152 66.456 78.8408 67.0957C78.5637 67.7382 78.1777 68.309 77.6937 68.7943C77.2084 69.2783 76.639 69.6643 75.9951 69.9415C74.717 70.4916 73.1466 70.4902 71.8493 69.9401C71.1957 69.6643 70.6208 69.2783 70.1382 68.7943C69.6543 68.3104 69.2683 67.7396 68.9925 67.0957C68.7168 66.4574 68.5775 65.7625 68.5775 65.0318C68.5775 64.301 68.7168 63.5993 68.9925 62.9499C69.2696 62.2977 69.6543 61.7214 70.1382 61.2389C70.6208 60.7563 71.1971 60.3702 71.8493 60.0931C72.5014 59.8174 73.2018 59.6781 73.9312 59.6781C74.6605 59.6781 75.3209 59.8119 75.951 60.078C76.5825 60.3441 77.1409 60.7191 77.6138 61.192C78.0881 61.6649 78.4741 62.2371 78.7623 62.892C79.0504 63.5469 79.2159 64.2735 79.2558 65.0345" fill="black"/>
<path d="M63.5814 61.8584C63.1375 60.8946 62.5432 60.0371 61.8139 59.3077C61.0818 58.5756 60.2201 57.9896 59.2563 57.5691C58.2871 57.1458 57.2654 56.9321 56.2038 56.9321H56.201C55.0525 56.9762 53.9702 57.2175 52.9858 57.6491C52 58.0806 51.1342 58.6666 50.4131 59.3877C49.6906 60.1115 49.1143 60.9677 48.7048 61.9328C48.2926 62.9007 48.083 63.9554 48.083 65.0653C48.083 66.1752 48.2981 67.3003 48.7214 68.2792C49.1433 69.2553 49.7292 70.1129 50.4641 70.8257C51.1962 71.5371 52.0579 72.0996 53.0244 72.4995C53.9923 72.8993 55.0443 73.1034 56.1528 73.1034C57.3426 73.1034 58.4125 72.9283 59.3335 72.585C60.2711 72.2361 61.1218 71.6364 61.847 70.8229C62.1103 70.5568 62.2454 70.2301 62.2454 69.8495C62.2454 69.469 62.1117 69.1423 61.847 68.8762C61.3217 68.3495 60.42 68.355 59.9057 68.8693C59.4107 69.3449 58.8372 69.7213 58.2043 69.9888C57.0131 70.4907 55.5365 70.5293 54.2818 70.0481C53.6876 69.822 53.1513 69.5049 52.688 69.1092C52.2234 68.7135 51.8277 68.2378 51.5106 67.6946C51.4706 67.6256 51.443 67.5526 51.4072 67.4836H51.3782C51.0142 66.7639 50.8088 65.9491 50.8088 65.0846C50.8088 64.4104 50.9467 63.7721 51.1755 63.1778H51.1824C51.2886 62.8952 51.4085 62.6181 51.5588 62.3561C51.8649 61.8239 52.2523 61.3606 52.7142 60.9774C53.1802 60.5913 53.7138 60.2797 54.2997 60.0508C55.4579 59.5986 56.8449 59.5986 58.0058 60.0508C58.5918 60.2783 59.1253 60.5913 59.5914 60.9774C60.0546 61.3634 60.4489 61.828 60.7647 62.3602C61.0004 62.7587 61.1838 63.1833 61.3106 63.6287H54.5093C53.7524 63.63 53.1375 64.245 53.1375 65.0019C53.1375 65.7588 53.7524 66.3737 54.5093 66.3737H62.881C63.2036 66.3737 63.5111 66.2593 63.791 66.0346C64.0019 65.8664 64.2542 65.5493 64.2542 65.0005C64.2542 63.8865 64.0268 62.829 63.5814 61.8584Z" fill="black"/>
</g>
<defs>
<clipPath id="clip0_11_128">
<rect width="40" height="40" fill="white" transform="translate(42 39)"/>
</clipPath>
</defs>
</svg>
