<svg width="124" height="118" viewBox="0 0 124 118" fill="none" xmlns="http://www.w3.org/2000/svg">
<rect width="124" height="118" rx="20" fill="#F9F9FB"/>
<path d="M52.8535 63.1573C52.8535 64.9967 51.3669 66.4833 49.5276 66.4833C47.6882 66.4833 46.2016 64.9967 46.2016 63.1573C46.2016 61.3179 47.6882 59.8313 49.5276 59.8313H52.8535V63.1573ZM54.5165 63.1573C54.5165 61.3179 56.0031 59.8313 57.8425 59.8313C59.6819 59.8313 61.1685 61.3179 61.1685 63.1573V71.4722C61.1685 73.3116 59.6819 74.7982 57.8425 74.7982C56.0031 74.7982 54.5165 73.3116 54.5165 71.4722V63.1573Z" fill="#E01E5A"/>
<path d="M57.8419 49.8028C56.0026 49.8028 54.5159 48.3162 54.5159 46.4769C54.5159 44.6375 56.0026 43.1509 57.8419 43.1509C59.6813 43.1509 61.1679 44.6375 61.1679 46.4769V49.8028H57.8419ZM57.8419 51.491C59.6813 51.491 61.1679 52.9777 61.1679 54.817C61.1679 56.6564 59.6813 58.143 57.8419 58.143H49.5018C47.6624 58.143 46.1758 56.6564 46.1758 54.817C46.1758 52.9777 47.6624 51.491 49.5018 51.491H57.8419Z" fill="#36C5F0"/>
<path d="M71.1724 54.817C71.1724 52.9777 72.659 51.491 74.4984 51.491C76.3377 51.491 77.8244 52.9777 77.8244 54.817C77.8244 56.6564 76.3377 58.143 74.4984 58.143H71.1724V54.817ZM69.5094 54.817C69.5094 56.6564 68.0228 58.143 66.1834 58.143C64.344 58.143 62.8574 56.6564 62.8574 54.817V46.4769C62.8574 44.6375 64.344 43.1509 66.1834 43.1509C68.0228 43.1509 69.5094 44.6375 69.5094 46.4769V54.817Z" fill="#2EB67D"/>
<path d="M66.1834 68.146C68.0228 68.146 69.5094 69.6326 69.5094 71.472C69.5094 73.3114 68.0228 74.798 66.1834 74.798C64.344 74.798 62.8574 73.3114 62.8574 71.472V68.146H66.1834ZM66.1834 66.483C64.344 66.483 62.8574 64.9964 62.8574 63.157C62.8574 61.3177 64.344 59.8311 66.1834 59.8311H74.5236C76.3629 59.8311 77.8495 61.3177 77.8495 63.157C77.8495 64.9964 76.3629 66.483 74.5236 66.483H66.1834Z" fill="#ECB22E"/>
</svg>
