<svg width="124" height="118" viewBox="0 0 124 118" fill="none" xmlns="http://www.w3.org/2000/svg">
<rect width="124" height="118" rx="20" fill="#F9F9FB"/>
<g clip-path="url(#clip0_11_127)">
<path d="M35.8748 58.9905C35.8748 56.2286 38.1534 54 41.0062 54C43.8782 54 46.1566 56.2286 46.1566 58.9905C46.1566 61.7333 43.8782 64 41.0062 64C38.1534 64 35.8748 61.7143 35.8748 58.9905ZM43.7059 58.9905C43.7059 57.6192 42.4996 56.3999 41.0062 56.3999C39.5319 56.3999 38.3449 57.6192 38.3449 58.9905C38.3449 60.381 39.551 61.6001 41.0062 61.6001C42.4996 61.6001 43.7059 60.381 43.7059 58.9905Z" fill="#0056D2"/>
<path d="M87.4231 59.0665C87.4231 56.038 89.9024 54 92.1505 54C93.6883 54 94.5723 54.4571 95.1678 55.3526L95.3985 54.1716H97.7047V63.8097H95.3985L95.1102 62.819C94.4375 63.5429 93.5919 64 92.1701 64C89.9216 64 87.4231 62.0571 87.4231 59.0665ZM95.2641 59.0475C95.2641 57.5812 94.0531 56.3999 92.5544 56.3999C91.0747 56.3999 89.8831 57.6002 89.8831 59.086C89.8831 60.4191 91.0938 61.6191 92.5544 61.6191C94.0723 61.6001 95.2641 60.4001 95.2641 59.0475Z" fill="#0056D2"/>
<path d="M84.6599 55.3484V54.2436H82.2127V63.7182H84.6599V58.6062C84.6599 57.0709 85.407 56.2657 86.7329 56.2657C86.8262 56.2657 86.9012 56.2657 86.9758 56.2844L87.4241 54C86.1541 54.0187 85.2387 54.4493 84.6599 55.3484Z" fill="#0056D2"/>
<path d="M59.6635 55.3484V54.2436H57.1417L57.161 63.7182H59.6831L59.6635 58.6062C59.6635 57.0709 60.4336 56.2657 61.7815 56.2657C61.8776 56.2657 61.9545 56.2657 62.0319 56.2844L62.4938 54C61.1845 54.0187 60.2413 54.4493 59.6635 55.3484Z" fill="#0056D2"/>
<path d="M47.1418 60.0411V54.1407H49.6044V59.7365C49.6044 60.9735 50.2812 61.6968 51.4655 61.6968C52.7814 61.6968 53.5523 60.8785 53.5523 59.3179V54.1407H56.0149V63.7712H53.5523V62.6486C52.9694 63.562 52.0296 63.9998 50.7324 63.9998C48.5141 64.0188 47.1418 62.4011 47.1418 60.0411Z" fill="#0056D2"/>
<path d="M71.3666 58.9812C71.3666 56.2814 73.3158 53.9811 76.3729 54.0001C79.2196 54.0001 81.2258 56.2814 81.2258 58.9429C81.2258 59.2092 81.2066 59.4944 81.1684 59.7416L73.8125 59.7226C74.0992 60.8823 75.0543 61.6996 76.4874 61.7187C77.3662 61.7187 78.3026 61.3954 78.8757 60.6729L80.5764 62.0419C79.6972 63.2774 78.1496 64 76.5066 64C73.6021 63.962 71.3666 61.7947 71.3666 58.9812ZM78.723 57.9926C78.5889 57.0228 77.5575 56.2624 76.3729 56.2624C75.2074 56.2624 74.2709 56.9468 73.9079 57.9735L78.723 57.9926Z" fill="#0056D2"/>
<path d="M62.4932 61.7273L64.7144 60.5721C65.0781 61.3674 65.8248 61.8219 66.8586 61.8219C67.816 61.8219 68.1799 61.5188 68.1799 61.1022C68.1799 59.5681 62.8953 60.4964 62.8953 56.9734C62.8953 55.0229 64.6187 54 66.7438 54C68.3521 54 69.7881 54.7008 70.5731 56.0267L68.3711 57.1819C68.046 56.538 67.4331 56.1781 66.6481 56.1781C65.8822 56.1781 65.5185 56.4434 65.5185 56.8788C65.5185 58.3751 70.8031 57.4279 70.8031 61.0077C70.8031 62.8636 69.2713 64 66.8012 64C64.6952 63.9811 63.2209 63.2992 62.4932 61.7273Z" fill="#0056D2"/>
<path d="M26.1552 58.939C26.1552 56.1971 28.4147 54 31.2438 54C33.0665 54 34.6425 54.9017 35.5539 56.2534L33.4273 57.4743C32.9336 56.7983 32.1551 56.3477 31.2438 56.3477C29.7817 56.3477 28.6045 57.5494 28.6045 58.9203C28.6045 60.2909 29.8007 61.4926 31.2438 61.4926C32.1931 61.4926 33.0285 61.0045 33.4843 60.2721L35.5918 61.5114C34.6995 62.9199 33.0855 63.859 31.2438 63.859C28.4147 63.8778 26.1552 61.6244 26.1552 58.939Z" fill="#0056D2"/>
</g>
<defs>
<clipPath id="clip0_11_127">
<rect width="71.549" height="10" fill="white" transform="translate(26.1549 54)"/>
</clipPath>
</defs>
</svg>
