<svg width="262" height="366" viewBox="0 0 262 366" fill="none" xmlns="http://www.w3.org/2000/svg">
<rect width="262.001" height="365.197" rx="8" fill="#121212"/>
<path d="M27.7771 338.111L29.4865 336.455C29.974 335.979 30.3441 335.568 30.5967 335.221C30.8493 334.869 30.9756 334.511 30.9756 334.146C30.9756 333.788 30.8669 333.506 30.6496 333.301C30.4322 333.095 30.1561 332.992 29.8213 332.992C29.4454 332.992 29.1429 333.113 28.9138 333.353C28.6847 333.594 28.5642 333.888 28.5525 334.235H27.7419C27.7595 333.906 27.8535 333.597 28.0238 333.309C28.1942 333.022 28.4321 332.79 28.7375 332.613C29.0489 332.437 29.4072 332.349 29.8125 332.349C30.2178 332.349 30.5673 332.428 30.861 332.587C31.1606 332.745 31.3868 332.96 31.5395 333.23C31.6981 333.5 31.7774 333.803 31.7774 334.138C31.7774 334.478 31.6981 334.807 31.5395 335.124C31.3809 335.436 31.1812 335.73 30.9403 336.006C30.7054 336.276 30.3911 336.599 29.9975 336.975L28.8433 338.076H31.8655V338.728H27.7771V338.111ZM34.6553 338.869C33.9093 338.869 33.3571 338.567 32.9988 337.962C32.6463 337.351 32.4701 336.567 32.4701 335.609C32.4701 334.646 32.6493 333.862 33.0076 333.257C33.3718 332.651 33.921 332.349 34.6553 332.349C35.3895 332.349 35.9358 332.654 36.2942 333.265C36.6584 333.87 36.8405 334.652 36.8405 335.609C36.8405 336.578 36.6584 337.365 36.2942 337.971C35.9358 338.57 35.3895 338.869 34.6553 338.869ZM34.6553 338.226C35.1428 338.226 35.4923 337.988 35.7038 337.512C35.9212 337.037 36.0298 336.402 36.0298 335.609C36.0298 334.822 35.9212 334.191 35.7038 333.715C35.4865 333.233 35.137 332.992 34.6553 332.992C34.1736 332.992 33.8241 333.233 33.6068 333.715C33.3953 334.191 33.2895 334.822 33.2895 335.609C33.2895 336.396 33.3953 337.031 33.6068 337.512C33.8241 337.988 34.1736 338.226 34.6553 338.226ZM37.6081 338.111L39.3175 336.455C39.8051 335.979 40.1751 335.568 40.4277 335.221C40.6803 334.869 40.8066 334.511 40.8066 334.146C40.8066 333.788 40.6979 333.506 40.4806 333.301C40.2632 333.095 39.9872 332.992 39.6523 332.992C39.2764 332.992 38.9739 333.113 38.7448 333.353C38.5157 333.594 38.3953 333.888 38.3835 334.235H37.5729C37.5905 333.906 37.6845 333.597 37.8548 333.309C38.0252 333.022 38.2631 332.79 38.5686 332.613C38.8799 332.437 39.2382 332.349 39.6435 332.349C40.0488 332.349 40.3983 332.428 40.692 332.587C40.9916 332.745 41.2178 332.96 41.3705 333.23C41.5291 333.5 41.6084 333.803 41.6084 334.138C41.6084 334.478 41.5291 334.807 41.3705 335.124C41.2119 335.436 41.0122 335.73 40.7713 336.006C40.5364 336.276 40.2221 336.599 39.8286 336.975L38.6743 338.076H41.6965V338.728H37.6081V338.111ZM44.4863 338.869C43.7403 338.869 43.1881 338.567 42.8298 337.962C42.4773 337.351 42.3011 336.567 42.3011 335.609C42.3011 334.646 42.4803 333.862 42.8386 333.257C43.2028 332.651 43.752 332.349 44.4863 332.349C45.2206 332.349 45.7669 332.654 46.1252 333.265C46.4894 333.87 46.6715 334.652 46.6715 335.609C46.6715 336.578 46.4894 337.365 46.1252 337.971C45.7669 338.57 45.2206 338.869 44.4863 338.869ZM44.4863 338.226C44.9738 338.226 45.3234 337.988 45.5348 337.512C45.7522 337.037 45.8608 336.402 45.8608 335.609C45.8608 334.822 45.7522 334.191 45.5348 333.715C45.3175 333.233 44.968 332.992 44.4863 332.992C44.0046 332.992 43.6551 333.233 43.4378 333.715C43.2263 334.191 43.1206 334.822 43.1206 335.609C43.1206 336.396 43.2263 337.031 43.4378 337.512C43.6551 337.988 44.0046 338.226 44.4863 338.226Z" fill="white"/>
<path d="M75.4491 338.111L77.1584 336.455C77.646 335.979 78.016 335.568 78.2686 335.221C78.5212 334.869 78.6475 334.511 78.6475 334.146C78.6475 333.788 78.5388 333.506 78.3215 333.301C78.1042 333.095 77.8281 332.992 77.4932 332.992C77.1173 332.992 76.8148 333.113 76.5857 333.353C76.3566 333.594 76.2362 333.888 76.2244 334.235H75.4138C75.4314 333.906 75.5254 333.597 75.6958 333.309C75.8661 333.022 76.104 332.79 76.4095 332.613C76.7208 332.437 77.0791 332.349 77.4844 332.349C77.8898 332.349 78.2393 332.428 78.533 332.587C78.8325 332.745 79.0587 332.96 79.2114 333.23C79.37 333.5 79.4493 333.803 79.4493 334.138C79.4493 334.478 79.37 334.807 79.2114 335.124C79.0528 335.436 78.8531 335.73 78.6123 336.006C78.3773 336.276 78.063 336.599 77.6695 336.975L76.5152 338.076H79.5374V338.728H75.4491V338.111ZM82.3272 338.869C81.5812 338.869 81.029 338.567 80.6707 337.962C80.3183 337.351 80.142 336.567 80.142 335.609C80.142 334.646 80.3212 333.862 80.6795 333.257C81.0437 332.651 81.593 332.349 82.3272 332.349C83.0615 332.349 83.6078 332.654 83.9661 333.265C84.3303 333.87 84.5124 334.652 84.5124 335.609C84.5124 336.578 84.3303 337.365 83.9661 337.971C83.6078 338.57 83.0615 338.869 82.3272 338.869ZM82.3272 338.226C82.8148 338.226 83.1643 337.988 83.3757 337.512C83.5931 337.037 83.7018 336.402 83.7018 335.609C83.7018 334.822 83.5931 334.191 83.3757 333.715C83.1584 333.233 82.8089 332.992 82.3272 332.992C81.8455 332.992 81.496 333.233 81.2787 333.715C81.0672 334.191 80.9615 334.822 80.9615 335.609C80.9615 336.396 81.0672 337.031 81.2787 337.512C81.496 337.988 81.8455 338.226 82.3272 338.226ZM85.2801 338.111L86.9894 336.455C87.477 335.979 87.8471 335.568 88.0996 335.221C88.3522 334.869 88.4785 334.511 88.4785 334.146C88.4785 333.788 88.3699 333.506 88.1525 333.301C87.9352 333.095 87.6591 332.992 87.3243 332.992C86.9483 332.992 86.6458 333.113 86.4167 333.353C86.1876 333.594 86.0672 333.888 86.0555 334.235H85.2448C85.2624 333.906 85.3564 333.597 85.5268 333.309C85.6971 333.022 85.935 332.79 86.2405 332.613C86.5518 332.437 86.9101 332.349 87.3155 332.349C87.7208 332.349 88.0703 332.428 88.364 332.587C88.6636 332.745 88.8897 332.96 89.0424 333.23C89.201 333.5 89.2803 333.803 89.2803 334.138C89.2803 334.478 89.201 334.807 89.0424 335.124C88.8838 335.436 88.6841 335.73 88.4433 336.006C88.2083 336.276 87.8941 336.599 87.5005 336.975L86.3462 338.076H89.3685V338.728H85.2801V338.111ZM91.2331 333.442L90.0524 334.323V333.538L91.4269 332.472H92.0349V338.728H91.2331V333.442Z" fill="white"/>
<path d="M121.576 338.111L123.286 336.455C123.773 335.979 124.143 335.568 124.396 335.221C124.649 334.869 124.775 334.511 124.775 334.146C124.775 333.788 124.666 333.506 124.449 333.301C124.232 333.095 123.955 332.992 123.621 332.992C123.245 332.992 122.942 333.113 122.713 333.353C122.484 333.594 122.364 333.888 122.352 334.235H121.541C121.559 333.906 121.653 333.597 121.823 333.309C121.994 333.022 122.231 332.79 122.537 332.613C122.848 332.437 123.207 332.349 123.612 332.349C124.017 332.349 124.367 332.428 124.66 332.587C124.96 332.745 125.186 332.96 125.339 333.23C125.497 333.5 125.577 333.803 125.577 334.138C125.577 334.478 125.497 334.807 125.339 335.124C125.18 335.436 124.981 335.73 124.74 336.006C124.505 336.276 124.19 336.599 123.797 336.975L122.643 338.076H125.665V338.728H121.576V338.111ZM128.455 338.869C127.709 338.869 127.156 338.567 126.798 337.962C126.446 337.351 126.269 336.567 126.269 335.609C126.269 334.646 126.449 333.862 126.807 333.257C127.171 332.651 127.72 332.349 128.455 332.349C129.189 332.349 129.735 332.654 130.093 333.265C130.458 333.87 130.64 334.652 130.64 335.609C130.64 336.578 130.458 337.365 130.093 337.971C129.735 338.57 129.189 338.869 128.455 338.869ZM128.455 338.226C128.942 338.226 129.292 337.988 129.503 337.512C129.72 337.037 129.829 336.402 129.829 335.609C129.829 334.822 129.72 334.191 129.503 333.715C129.286 333.233 128.936 332.992 128.455 332.992C127.973 332.992 127.623 333.233 127.406 333.715C127.195 334.191 127.089 334.822 127.089 335.609C127.089 336.396 127.195 337.031 127.406 337.512C127.623 337.988 127.973 338.226 128.455 338.226ZM131.407 338.111L133.117 336.455C133.604 335.979 133.974 335.568 134.227 335.221C134.48 334.869 134.606 334.511 134.606 334.146C134.606 333.788 134.497 333.506 134.28 333.301C134.063 333.095 133.786 332.992 133.452 332.992C133.076 332.992 132.773 333.113 132.544 333.353C132.315 333.594 132.195 333.888 132.183 334.235H131.372C131.39 333.906 131.484 333.597 131.654 333.309C131.825 333.022 132.062 332.79 132.368 332.613C132.679 332.437 133.038 332.349 133.443 332.349C133.848 332.349 134.198 332.428 134.491 332.587C134.791 332.745 135.017 332.96 135.17 333.23C135.328 333.5 135.408 333.803 135.408 334.138C135.408 334.478 135.328 334.807 135.17 335.124C135.011 335.436 134.812 335.73 134.571 336.006C134.336 336.276 134.021 336.599 133.628 336.975L132.474 338.076H135.496V338.728H131.407V338.111ZM136.233 338.111L137.942 336.455C138.43 335.979 138.8 335.568 139.052 335.221C139.305 334.869 139.431 334.511 139.431 334.146C139.431 333.788 139.322 333.506 139.105 333.301C138.888 333.095 138.612 332.992 138.277 332.992C137.901 332.992 137.598 333.113 137.369 333.353C137.14 333.594 137.02 333.888 137.008 334.235H136.197C136.215 333.906 136.309 333.597 136.479 333.309C136.65 333.022 136.888 332.79 137.193 332.613C137.504 332.437 137.863 332.349 138.268 332.349C138.673 332.349 139.023 332.428 139.317 332.587C139.616 332.745 139.842 332.96 139.995 333.23C140.154 333.5 140.233 333.803 140.233 334.138C140.233 334.478 140.154 334.807 139.995 335.124C139.836 335.436 139.637 335.73 139.396 336.006C139.161 336.276 138.847 336.599 138.453 336.975L137.299 338.076H140.321V338.728H136.233V338.111Z" fill="white"/>
<path d="M168.465 338.111L170.175 336.455C170.662 335.979 171.032 335.568 171.285 335.221C171.538 334.869 171.664 334.511 171.664 334.146C171.664 333.788 171.555 333.506 171.338 333.301C171.12 333.095 170.844 332.992 170.51 332.992C170.134 332.992 169.831 333.113 169.602 333.353C169.373 333.594 169.252 333.888 169.241 334.235H168.43C168.448 333.906 168.542 333.597 168.712 333.309C168.882 333.022 169.12 332.79 169.426 332.613C169.737 332.437 170.095 332.349 170.501 332.349C170.906 332.349 171.256 332.428 171.549 332.587C171.849 332.745 172.075 332.96 172.228 333.23C172.386 333.5 172.466 333.803 172.466 334.138C172.466 334.478 172.386 334.807 172.228 335.124C172.069 335.436 171.869 335.73 171.629 336.006C171.394 336.276 171.079 336.599 170.686 336.975L169.532 338.076H172.554V338.728H168.465V338.111ZM175.344 338.869C174.598 338.869 174.045 338.567 173.687 337.962C173.335 337.351 173.158 336.567 173.158 335.609C173.158 334.646 173.338 333.862 173.696 333.257C174.06 332.651 174.609 332.349 175.344 332.349C176.078 332.349 176.624 332.654 176.982 333.265C177.347 333.87 177.529 334.652 177.529 335.609C177.529 336.578 177.347 337.365 176.982 337.971C176.624 338.57 176.078 338.869 175.344 338.869ZM175.344 338.226C175.831 338.226 176.181 337.988 176.392 337.512C176.609 337.037 176.718 336.402 176.718 335.609C176.718 334.822 176.609 334.191 176.392 333.715C176.175 333.233 175.825 332.992 175.344 332.992C174.862 332.992 174.512 333.233 174.295 333.715C174.084 334.191 173.978 334.822 173.978 335.609C173.978 336.396 174.084 337.031 174.295 337.512C174.512 337.988 174.862 338.226 175.344 338.226ZM178.296 338.111L180.006 336.455C180.493 335.979 180.863 335.568 181.116 335.221C181.369 334.869 181.495 334.511 181.495 334.146C181.495 333.788 181.386 333.506 181.169 333.301C180.951 333.095 180.675 332.992 180.341 332.992C179.965 332.992 179.662 333.113 179.433 333.353C179.204 333.594 179.084 333.888 179.072 334.235H178.261C178.279 333.906 178.373 333.597 178.543 333.309C178.713 333.022 178.951 332.79 179.257 332.613C179.568 332.437 179.926 332.349 180.332 332.349C180.737 332.349 181.087 332.428 181.38 332.587C181.68 332.745 181.906 332.96 182.059 333.23C182.217 333.5 182.297 333.803 182.297 334.138C182.297 334.478 182.217 334.807 182.059 335.124C181.9 335.436 181.7 335.73 181.46 336.006C181.225 336.276 180.91 336.599 180.517 336.975L179.363 338.076H182.385V338.728H178.296V338.111ZM185.086 338.869C184.493 338.869 184.009 338.714 183.633 338.402C183.257 338.085 183.039 337.653 182.981 337.107H183.809C183.844 337.442 183.976 337.712 184.205 337.918C184.434 338.123 184.728 338.226 185.086 338.226C185.462 338.226 185.768 338.097 186.003 337.838C186.238 337.574 186.355 337.242 186.355 336.843C186.355 336.449 186.244 336.135 186.02 335.9C185.797 335.659 185.492 335.539 185.104 335.539C184.822 335.539 184.578 335.624 184.373 335.794L183.967 335.292L185.985 333.124H183.254V332.472H186.866V333.124L185.166 334.957C185.207 334.951 185.269 334.948 185.351 334.948C185.691 334.948 185.997 335.025 186.267 335.177C186.543 335.33 186.761 335.547 186.919 335.829C187.078 336.105 187.157 336.431 187.157 336.807C187.157 337.154 187.078 337.486 186.919 337.803C186.766 338.114 186.531 338.37 186.214 338.57C185.903 338.769 185.527 338.869 185.086 338.869Z" fill="white"/>
<path d="M215.222 338.111L216.931 336.455C217.419 335.979 217.789 335.568 218.041 335.221C218.294 334.869 218.42 334.511 218.42 334.146C218.42 333.788 218.312 333.506 218.094 333.301C217.877 333.095 217.601 332.992 217.266 332.992C216.89 332.992 216.588 333.113 216.359 333.353C216.129 333.594 216.009 333.888 215.997 334.235H215.187C215.204 333.906 215.298 333.597 215.469 333.309C215.639 333.022 215.877 332.79 216.182 332.613C216.494 332.437 216.852 332.349 217.257 332.349C217.663 332.349 218.012 332.428 218.306 332.587C218.605 332.745 218.832 332.96 218.984 333.23C219.143 333.5 219.222 333.803 219.222 334.138C219.222 334.478 219.143 334.807 218.984 335.124C218.826 335.436 218.626 335.73 218.385 336.006C218.15 336.276 217.836 336.599 217.442 336.975L216.288 338.076H219.31V338.728H215.222V338.111ZM222.1 338.869C221.354 338.869 220.802 338.567 220.444 337.962C220.091 337.351 219.915 336.567 219.915 335.609C219.915 334.646 220.094 333.862 220.452 333.257C220.817 332.651 221.366 332.349 222.1 332.349C222.834 332.349 223.381 332.654 223.739 333.265C224.103 333.87 224.285 334.652 224.285 335.609C224.285 336.578 224.103 337.365 223.739 337.971C223.381 338.57 222.834 338.869 222.1 338.869ZM222.1 338.226C222.588 338.226 222.937 337.988 223.149 337.512C223.366 337.037 223.475 336.402 223.475 335.609C223.475 334.822 223.366 334.191 223.149 333.715C222.931 333.233 222.582 332.992 222.1 332.992C221.618 332.992 221.269 333.233 221.052 333.715C220.84 334.191 220.734 334.822 220.734 335.609C220.734 336.396 220.84 337.031 221.052 337.512C221.269 337.988 221.618 338.226 222.1 338.226ZM225.053 338.111L226.762 336.455C227.25 335.979 227.62 335.568 227.872 335.221C228.125 334.869 228.251 334.511 228.251 334.146C228.251 333.788 228.143 333.506 227.925 333.301C227.708 333.095 227.432 332.992 227.097 332.992C226.721 332.992 226.419 333.113 226.19 333.353C225.96 333.594 225.84 333.888 225.828 334.235H225.018C225.035 333.906 225.129 333.597 225.3 333.309C225.47 333.022 225.708 332.79 226.013 332.613C226.325 332.437 226.683 332.349 227.088 332.349C227.494 332.349 227.843 332.428 228.137 332.587C228.436 332.745 228.663 332.96 228.815 333.23C228.974 333.5 229.053 333.803 229.053 334.138C229.053 334.478 228.974 334.807 228.815 335.124C228.657 335.436 228.457 335.73 228.216 336.006C227.981 336.276 227.667 336.599 227.273 336.975L226.119 338.076H229.141V338.728H225.053V338.111ZM232.627 337.257H229.684V336.622L232.213 332.472H233.411V336.614H234.275V337.257H233.411V338.728H232.627V337.257ZM232.627 336.614V333.071L230.477 336.614H232.627Z" fill="white"/>
<line x1="28.0752" y1="325.318" x2="233.662" y2="325.318" stroke="white" stroke-width="0.478108"/>
<line x1="28.0752" y1="81.0041" x2="233.662" y2="81.0041" stroke="white" stroke-opacity="0.3" stroke-width="0.478108" stroke-dasharray="0.96 0.96"/>
<line x1="28.0752" y1="56.8593" x2="233.662" y2="56.8593" stroke="white" stroke-opacity="0.3" stroke-width="0.478108" stroke-dasharray="0.96 0.96"/>
<line x1="28.0752" y1="105.388" x2="233.662" y2="105.388" stroke="white" stroke-opacity="0.3" stroke-width="0.478108" stroke-dasharray="0.96 0.96"/>
<line x1="28.0752" y1="130.249" x2="233.662" y2="130.249" stroke="white" stroke-opacity="0.3" stroke-width="0.478108" stroke-dasharray="0.96 0.96"/>
<line x1="28.0752" y1="154.633" x2="233.662" y2="154.633" stroke="white" stroke-opacity="0.3" stroke-width="0.478108" stroke-dasharray="0.96 0.96"/>
<line x1="28.0752" y1="178.538" x2="233.662" y2="178.538" stroke="white" stroke-opacity="0.3" stroke-width="0.478108" stroke-dasharray="0.96 0.96"/>
<line x1="28.0752" y1="202.922" x2="233.662" y2="202.922" stroke="white" stroke-opacity="0.3" stroke-width="0.478108" stroke-dasharray="0.96 0.96"/>
<line x1="28.0752" y1="227.305" x2="233.662" y2="227.305" stroke="white" stroke-opacity="0.3" stroke-width="0.478108" stroke-dasharray="0.96 0.96"/>
<line x1="28.0752" y1="251.689" x2="233.662" y2="251.689" stroke="white" stroke-opacity="0.3" stroke-width="0.478108" stroke-dasharray="0.96 0.96"/>
<line x1="28.0752" y1="275.833" x2="233.662" y2="275.833" stroke="white" stroke-opacity="0.3" stroke-width="0.478108" stroke-dasharray="0.96 0.96"/>
<line x1="28.0752" y1="300.217" x2="233.662" y2="300.217" stroke="white" stroke-opacity="0.3" stroke-width="0.478108" stroke-dasharray="0.96 0.96"/>
<line x1="37.1594" y1="324.122" x2="37.1594" y2="30.8025" stroke="white" stroke-opacity="0.3" stroke-width="0.478108" stroke-dasharray="0.96 0.96"/>
<line x1="83.7746" y1="324.122" x2="83.7746" y2="30.8025" stroke="white" stroke-opacity="0.3" stroke-width="0.478108" stroke-dasharray="0.96 0.96"/>
<line x1="130.629" y1="324.122" x2="130.629" y2="30.8025" stroke="white" stroke-opacity="0.3" stroke-width="0.478108" stroke-dasharray="0.96 0.96"/>
<line x1="177.246" y1="324.122" x2="177.246" y2="30.8025" stroke="white" stroke-opacity="0.3" stroke-width="0.478108" stroke-dasharray="0.96 0.96"/>
<line x1="223.86" y1="324.122" x2="223.86" y2="30.8025" stroke="white" stroke-opacity="0.3" stroke-width="0.478108" stroke-dasharray="0.96 0.96"/>
<circle cx="37.1591" cy="57.099" r="3.46629" fill="#FF5102" stroke="#FF5102" stroke-width="0.239054"/>
<circle cx="84.0145" cy="154.872" r="3.46629" fill="#FF5102" stroke="#FF5102" stroke-width="0.239054"/>
<circle cx="130.869" cy="130.488" r="3.46629" fill="#FF5102" stroke="#FF5102" stroke-width="0.239054"/>
<circle cx="177.485" cy="105.626" r="3.46629" fill="#FF5102" stroke="#FF5102" stroke-width="0.239054"/>
<circle cx="224.1" cy="300.456" r="3.46629" fill="#FF5102" stroke="#FF5102" stroke-width="0.239054"/>
<path d="M37.3478 56.9534L83.8934 155.111L130.748 130.249L177.364 105.627L224.099 300.456" stroke="#FF5102" stroke-width="0.478108"/>
<path d="M48.2645 54.9433L47.0838 55.8244V55.0402L48.4584 53.974H49.0663V60.23H48.2645V54.9433ZM52.499 60.371C51.8998 60.371 51.4152 60.2153 51.0451 59.904C50.6751 59.5926 50.4548 59.1609 50.3843 58.6087H51.2037C51.2507 58.9612 51.3858 59.2373 51.609 59.437C51.8381 59.6308 52.1289 59.7277 52.4813 59.7277C52.8808 59.7277 53.1921 59.5897 53.4153 59.3136C53.6386 59.0317 53.7502 58.6704 53.7502 58.2298C53.7502 57.801 53.6415 57.4603 53.4241 57.2077C53.2068 56.9552 52.8984 56.8289 52.499 56.8289C52.2758 56.8289 52.0643 56.8788 51.8646 56.9787C51.6648 57.0726 51.4945 57.2077 51.3535 57.384L50.6574 57.3047L50.9482 53.974H54.2612V54.6261H51.609L51.424 56.7231C51.565 56.5645 51.7383 56.4412 51.9439 56.3531C52.1495 56.2591 52.3844 56.2121 52.6488 56.2121C53.0365 56.2121 53.3713 56.2943 53.6532 56.4588C53.9411 56.6233 54.1613 56.8582 54.3141 57.1637C54.4727 57.4633 54.552 57.8098 54.552 58.2034C54.552 58.597 54.4697 58.9582 54.3053 59.2872C54.1408 59.6161 53.9029 59.8805 53.5916 60.0802C53.2802 60.274 52.916 60.371 52.499 60.371Z" fill="white"/>
<path d="M96.0181 152.238L94.8374 153.12V152.335L96.212 151.269H96.82V157.525H96.0181V152.238ZM100.05 157.675C99.5389 157.675 99.1189 157.534 98.79 157.252C98.4669 156.964 98.2672 156.6 98.1908 156.159H98.9838C99.0308 156.412 99.1424 156.623 99.3186 156.794C99.4948 156.958 99.7357 157.041 100.041 157.041C100.482 157.041 100.837 156.82 101.107 156.38C101.378 155.939 101.524 155.287 101.548 154.424C101.413 154.717 101.216 154.949 100.958 155.12C100.699 155.29 100.388 155.375 100.024 155.375C99.6358 155.375 99.2951 155.281 99.0014 155.093C98.7077 154.905 98.4816 154.653 98.323 154.335C98.1702 154.018 98.0939 153.672 98.0939 153.296C98.0939 152.92 98.1732 152.57 98.3318 152.247C98.4962 151.924 98.7342 151.666 99.0455 151.472C99.3568 151.272 99.7269 151.172 100.156 151.172C100.837 151.172 101.369 151.431 101.751 151.948C102.138 152.459 102.332 153.169 102.332 154.08C102.332 155.143 102.141 156.01 101.759 156.679C101.378 157.343 100.808 157.675 100.05 157.675ZM100.156 154.758C100.414 154.758 100.643 154.694 100.843 154.565C101.049 154.435 101.207 154.259 101.319 154.036C101.43 153.813 101.486 153.563 101.486 153.287C101.486 153.023 101.43 152.779 101.319 152.556C101.207 152.327 101.051 152.147 100.852 152.018C100.652 151.883 100.423 151.815 100.165 151.815C99.7709 151.815 99.4567 151.954 99.2217 152.23C98.9926 152.506 98.8781 152.858 98.8781 153.287C98.8781 153.716 98.9926 154.068 99.2217 154.344C99.4508 154.62 99.7621 154.758 100.156 154.758Z" fill="white"/>
<path d="M143.812 128.094L142.632 128.975V128.191L144.006 127.125H144.614V133.381H143.812V128.094ZM148.082 133.522C147.63 133.522 147.239 133.442 146.91 133.284C146.581 133.119 146.329 132.896 146.153 132.614C145.976 132.332 145.888 132.015 145.888 131.662C145.888 131.275 145.994 130.94 146.205 130.658C146.423 130.37 146.719 130.159 147.095 130.024C146.802 129.9 146.573 129.724 146.408 129.495C146.244 129.26 146.161 128.981 146.161 128.658C146.161 128.341 146.244 128.056 146.408 127.803C146.573 127.551 146.802 127.354 147.095 127.213C147.389 127.066 147.718 126.993 148.082 126.993C148.452 126.993 148.781 127.066 149.069 127.213C149.363 127.354 149.592 127.551 149.756 127.803C149.921 128.056 150.003 128.341 150.003 128.658C150.003 128.981 149.921 129.26 149.756 129.495C149.592 129.724 149.363 129.9 149.069 130.024C149.445 130.159 149.739 130.37 149.95 130.658C150.162 130.94 150.267 131.275 150.267 131.662C150.267 132.015 150.179 132.332 150.003 132.614C149.827 132.896 149.574 133.119 149.245 133.284C148.916 133.442 148.529 133.522 148.082 133.522ZM148.073 132.878C148.496 132.878 148.831 132.761 149.078 132.526C149.33 132.291 149.457 131.991 149.457 131.627C149.457 131.251 149.33 130.943 149.078 130.702C148.831 130.455 148.496 130.332 148.073 130.332C147.656 130.332 147.321 130.455 147.069 130.702C146.822 130.943 146.699 131.251 146.699 131.627C146.699 131.991 146.822 132.291 147.069 132.526C147.321 132.761 147.656 132.878 148.073 132.878ZM148.082 129.733C148.423 129.733 148.702 129.633 148.919 129.433C149.137 129.228 149.245 128.969 149.245 128.658C149.245 128.358 149.137 128.109 148.919 127.909C148.708 127.709 148.429 127.609 148.082 127.609C147.736 127.609 147.454 127.709 147.236 127.909C147.025 128.109 146.919 128.358 146.919 128.658C146.919 128.969 147.028 129.228 147.245 129.433C147.462 129.633 147.741 129.733 148.082 129.733Z" fill="white"/>
<path d="M189.011 103.471L187.831 104.352V103.568L189.205 102.502H189.813V108.758H189.011V103.471ZM193.043 108.908C192.532 108.908 192.112 108.767 191.783 108.485C191.46 108.197 191.26 107.833 191.184 107.392H191.977C192.024 107.645 192.136 107.856 192.312 108.027C192.488 108.191 192.729 108.273 193.034 108.273C193.475 108.273 193.83 108.053 194.1 107.613C194.371 107.172 194.518 106.52 194.541 105.657C194.406 105.95 194.209 106.182 193.951 106.353C193.692 106.523 193.381 106.608 193.017 106.608C192.629 106.608 192.288 106.514 191.995 106.326C191.701 106.138 191.475 105.886 191.316 105.568C191.163 105.251 191.087 104.905 191.087 104.529C191.087 104.153 191.166 103.803 191.325 103.48C191.489 103.157 191.727 102.899 192.039 102.705C192.35 102.505 192.72 102.405 193.149 102.405C193.83 102.405 194.362 102.664 194.744 103.181C195.131 103.692 195.325 104.402 195.325 105.313C195.325 106.376 195.134 107.243 194.752 107.912C194.371 108.576 193.801 108.908 193.043 108.908ZM193.149 105.991C193.407 105.991 193.636 105.927 193.836 105.797C194.042 105.668 194.2 105.492 194.312 105.269C194.424 105.046 194.479 104.796 194.479 104.52C194.479 104.256 194.424 104.012 194.312 103.789C194.2 103.559 194.045 103.38 193.845 103.251C193.645 103.116 193.416 103.048 193.158 103.048C192.764 103.048 192.45 103.186 192.215 103.463C191.986 103.739 191.871 104.091 191.871 104.52C191.871 104.949 191.986 105.301 192.215 105.577C192.444 105.853 192.755 105.991 193.149 105.991Z" fill="white"/>
<path d="M233.822 302.731L235.531 301.075C236.019 300.599 236.389 300.188 236.641 299.841C236.894 299.489 237.02 299.131 237.02 298.766C237.02 298.408 236.911 298.126 236.694 297.92C236.477 297.715 236.201 297.612 235.866 297.612C235.49 297.612 235.187 297.732 234.958 297.973C234.729 298.214 234.609 298.508 234.597 298.854H233.786C233.804 298.525 233.898 298.217 234.068 297.929C234.239 297.641 234.477 297.409 234.782 297.233C235.093 297.057 235.452 296.969 235.857 296.969C236.262 296.969 236.612 297.048 236.906 297.207C237.205 297.365 237.431 297.58 237.584 297.85C237.743 298.12 237.822 298.423 237.822 298.758C237.822 299.098 237.743 299.427 237.584 299.744C237.425 300.056 237.226 300.349 236.985 300.625C236.75 300.896 236.436 301.219 236.042 301.595L234.888 302.696H237.91V303.348H233.822V302.731ZM240.638 303.489C240.039 303.489 239.554 303.333 239.184 303.022C238.814 302.711 238.594 302.279 238.523 301.727H239.343C239.39 302.079 239.525 302.355 239.748 302.555C239.977 302.749 240.268 302.846 240.621 302.846C241.02 302.846 241.331 302.708 241.555 302.432C241.778 302.15 241.889 301.789 241.889 301.348C241.889 300.919 241.781 300.578 241.563 300.326C241.346 300.073 241.038 299.947 240.638 299.947C240.415 299.947 240.203 299.997 240.004 300.097C239.804 300.191 239.634 300.326 239.493 300.502L238.797 300.423L239.087 297.092H242.4V297.744H239.748L239.563 299.841C239.704 299.683 239.877 299.559 240.083 299.471C240.289 299.377 240.524 299.33 240.788 299.33C241.176 299.33 241.51 299.412 241.792 299.577C242.08 299.741 242.301 299.976 242.453 300.282C242.612 300.581 242.691 300.928 242.691 301.322C242.691 301.715 242.609 302.076 242.444 302.405C242.28 302.734 242.042 302.999 241.731 303.198C241.419 303.392 241.055 303.489 240.638 303.489Z" fill="white"/>
</svg>
