<svg width="206" height="258" viewBox="0 0 206 258" fill="none" xmlns="http://www.w3.org/2000/svg">
<ellipse cx="169.765" cy="203.611" rx="15.3765" ry="21.0715" fill="white"/>
<ellipse cx="169.765" cy="203.611" rx="15.3765" ry="21.0715" fill="white"/>
<ellipse cx="169.765" cy="203.611" rx="15.3765" ry="21.0715" fill="white"/>
<ellipse cx="65.5467" cy="203.611" rx="13.0985" ry="18.7935" fill="white"/>
<path d="M201.298 217.653C199.882 212.805 196.567 208.671 192.203 206.308C190.963 205.636 189.533 205.597 188.283 206.207C187.038 206.813 186.178 207.959 185.921 209.35C184.668 216.182 180.941 222.116 175.952 225.221C171.863 227.766 167.076 228.329 162.177 226.861C160.745 226.383 159.341 225.691 158.004 224.812L154.978 222.821V226.483C154.978 228.141 155.182 229.605 155.58 230.896C156.574 234.533 159.046 237.108 161.436 239.597L161.613 239.782C161.663 239.832 161.753 239.927 161.605 240.151C161.449 240.385 161.32 240.328 161.31 240.328C155.461 237.726 151.689 230.786 152.344 223.822L152.608 220.999L149.904 221.705C137.6 224.916 125.392 224.126 114.61 219.867C110.698 218.316 107.3 216.393 104.51 214.149L103.628 213.438L102.58 213.855C90.5389 218.64 84.6839 225.93 86.094 234.381L86.1777 234.713C90.1511 246.128 104.107 250.118 117.293 252.525C124.315 253.591 131.334 254.117 138.227 254.117C156.937 254.117 174.696 250.245 188.95 242.823C194.372 239.355 197.915 235.762 199.781 231.834C202.149 227.45 202.689 222.414 201.298 217.653Z" fill="#FFCC02"/>
<path d="M63.531 212.562C62.0213 210.638 60.4603 208.652 59.3184 206.618C56.906 202.439 55.8018 196.958 56.2147 191.13C56.4909 184.978 58.5416 178.726 60.5229 172.681C63.789 162.716 67.1661 152.414 63.0754 141.89C60.5059 134.748 55.2414 129.129 48.2474 126.068C47.1875 125.61 45.9853 125.907 45.2548 126.814C44.5254 127.721 44.4782 128.981 45.1434 129.955C48.15 134.325 49.0395 139.239 49.4661 141.593C50.6683 148.37 50.2663 155.481 48.277 162.711C47.4102 165.765 46.3834 168.815 45.387 171.772C44.1338 175.469 42.9329 179.086 42.028 182.704C40.0493 190.622 40.027 197.193 41.9559 202.778C43.3127 206.787 45.6858 210.336 48.1973 214.091L48.326 214.283C51.8011 219.457 55.3974 224.807 55.869 231.216C56.2278 235.959 54.529 240.913 51.2082 244.812L47.81 248.798L52.9537 248.088C59.7871 247.146 65.0932 243.575 67.8917 238.034C70.9237 232.163 70.9983 224.742 68.0819 219.119C66.903 216.856 65.1888 214.672 63.531 212.562Z" fill="#FFCC02"/>
<path d="M53.9183 231.35C53.49 225.566 50.2319 220.677 46.7813 215.502L46.6133 215.249C44.1293 211.539 41.5585 207.705 40.0984 203.458C39.3218 201.144 38.8543 198.754 38.6723 196.197C38.6003 194.737 37.8551 193.403 36.6804 192.633C32.0485 189.596 26.5509 188.007 21.2118 188.153C17.0592 188.238 12.8895 189.296 9.14547 191.22C6.78171 192.448 5.48 195.156 5.98025 197.815C6.95979 202.875 8.30865 207.764 9.98229 212.331C15.4484 227.539 23.3228 238.228 33.3764 244.092C36.2339 245.784 39.6584 247.058 43.2807 247.772L43.9328 247.901L44.5274 247.598C50.5423 244.553 54.4041 237.872 53.9183 231.35Z" fill="#FFCC02"/>
<path d="M8.2787 189.43C12.2873 187.365 16.7424 186.235 21.1674 186.162C25.2428 186.078 29.4334 186.93 33.3006 188.591C34.5486 189.133 35.9551 189.073 37.152 188.432C38.3411 187.797 39.174 186.662 39.4438 185.296C39.6323 184.281 39.8589 183.265 40.1221 182.211C40.9995 178.705 42.1585 175.233 43.2808 171.875L43.7064 170.604C44.6349 167.852 45.5935 165.01 46.382 162.171V162.168C48.3069 155.218 48.6891 148.418 47.521 141.961C46.763 137.7 45.1941 131.579 40.3526 127.621C36.3899 124.383 30.8164 123.737 25.8138 125.928C21.6795 127.712 18.1633 130.437 15.3687 134.021C11.7687 138.586 8.92428 144.677 6.89447 152.2C4.30154 163.595 3.48043 175.747 4.51891 187.326C4.59358 188.211 5.09775 188.99 5.86777 189.411C6.258 189.624 6.68626 189.728 7.10792 189.728C7.51915 189.728 7.92509 189.628 8.2787 189.43Z" fill="#FFCC02"/>
<path d="M185.967 89.4688C185.967 89.7473 185.948 90.0463 185.948 90.3254H185.967L185.909 92.3761C185.909 92.5145 185.889 92.6746 185.889 92.8135C185.85 93.6108 185.81 94.3876 185.772 95.1638C185.712 95.8803 185.673 96.5768 185.615 97.2738C185.556 97.8707 185.498 98.4481 185.438 99.0256C185.34 99.9425 185.223 100.838 185.105 101.734C185.047 102.153 184.988 102.571 184.929 102.989C184.752 104.144 184.556 105.259 184.341 106.394C184.302 106.593 184.262 106.792 184.223 106.991C183.675 109.74 182.988 112.448 182.165 115.135C182.145 115.195 182.127 115.254 182.107 115.314C181.734 116.549 181.323 117.783 180.892 118.998C180.813 119.197 180.735 119.396 180.656 119.615C180.264 120.69 179.852 121.765 179.421 122.82C179.323 123.06 179.225 123.279 179.128 123.518C178.695 124.553 178.226 125.589 177.755 126.604C177.657 126.824 177.559 127.023 177.461 127.242C176.951 128.297 176.422 129.353 175.874 130.387C175.795 130.527 175.716 130.686 175.639 130.826C175.051 131.96 174.404 133.076 173.757 134.171C173.737 134.21 173.698 134.27 173.679 134.311C170.935 138.93 167.759 143.291 164.153 147.353L163.055 148.607L163.016 148.567C162.743 148.865 162.487 149.144 162.232 149.424L162.271 149.443L160.467 151.256C160.312 151.394 160.155 151.534 159.998 151.673C158.998 152.669 157.979 153.624 156.92 154.561C156.843 154.641 156.764 154.699 156.666 154.78C142.377 167.423 123.895 175.23 103.629 175.807L103.609 175.827H102.767C102.257 175.827 101.766 175.866 101.257 175.866H101.218H101.198C101.082 175.866 100.964 175.847 100.846 175.847C96.9461 175.827 93.123 175.548 89.3609 175.009L89.9674 175.508L81.8333 173.556C81.7746 173.556 81.7353 173.536 81.6778 173.517C74.9543 171.883 68.5451 169.455 62.5477 166.289C64.8798 158.324 66.311 150.18 63.0768 141.897C60.51 134.748 55.2376 129.133 48.2407 126.067C47.1809 125.609 45.9855 125.907 45.2612 126.824C44.5357 127.72 44.4768 128.974 45.1434 129.95C48.1422 134.331 49.0432 139.228 49.4743 141.599C50.3963 146.815 50.357 152.231 49.3968 157.747C48.7892 157.288 48.2015 156.81 47.6331 156.313C48.005 153.983 48.1815 151.673 48.1815 149.404C48.1815 146.875 47.9657 144.385 47.5152 141.956C46.7697 137.695 45.2023 131.582 40.3608 127.62C36.3823 124.374 30.8154 123.737 25.8181 125.927C25.4449 126.087 25.0729 126.266 24.701 126.446C24.4064 125.847 24.1326 125.231 23.8576 124.614L23.7201 124.672L22.9763 122.842C18.9769 113.125 16.782 102.889 16.469 92.3761L16.4102 90.3254H16.566C16.5476 90.0463 16.5476 89.7473 16.5476 89.4688V89.1294H16.4102L16.469 87.0787C16.6642 80.6883 17.5665 74.3953 19.1144 68.2629C28.3848 30.8079 61.6468 3.07129 101.257 3.07129C147.337 3.07129 184.791 40.6048 185.909 87.3184L185.967 89.1294V89.4688Z" fill="#0057F3"/>
<path d="M198.043 230.917C196.014 235.207 191.917 238.566 187.912 241.142C166.928 252.052 140.672 254.07 117.583 250.565C107.111 248.649 91.9093 245.206 88.0213 234.055C86.4916 224.896 94.9305 219.034 103.287 215.708C106.208 218.068 109.772 220.096 113.903 221.726C120.594 224.367 127.776 225.661 134.978 225.661C140.167 225.661 145.359 224.958 150.393 223.629C149.688 231.149 153.627 239.095 160.528 242.144C162.717 243.066 164.698 240.134 163.018 238.388C160.711 235.982 158.349 233.595 157.47 230.364C157.077 229.097 156.936 227.783 156.942 226.478C158.393 227.434 159.95 228.208 161.574 228.75C175.327 232.883 185.563 222.218 187.845 209.721C188.139 208.114 189.856 207.293 191.276 208.06C199.046 212.257 202.682 222.384 198.043 230.917ZM101.192 173.868C100.089 173.868 98.9967 173.828 97.9044 173.783C85.6459 171.852 74.8533 159.237 67.8314 140.541C78.0055 138.218 89.4633 136.98 101.197 136.98C112.914 136.98 124.366 138.219 134.549 140.548C130.252 151.987 124.538 161.131 117.946 166.962C114.632 166.579 109.634 166.885 107.298 169.008L107.283 169.022C105.778 170.466 104.222 172.059 102.716 173.829C102.208 173.844 101.704 173.868 101.192 173.868ZM68.3553 182.242C66.1212 181.668 63.9463 181.862 61.8995 182.61C62.85 178.999 64.0875 175.338 65.2869 171.651C68.1144 172.936 71.0166 174.072 73.9905 175.054C72.2775 177.577 70.3958 179.989 68.3553 182.242ZM73.1391 210.141C72.7137 212.475 72.0445 214.748 71.2 216.947C69.7198 213.992 67.7385 211.172 65.3632 208.527C60.3237 202.199 59.5867 195.45 60.6511 188.461C63.3449 186.73 66.3285 186.318 69.3821 188.654C74.3624 193.981 74.1449 203.174 73.1391 210.141ZM66.1593 237.106C64.2316 240.923 61.1813 243.414 57.6077 244.838C56.0023 245.478 54.5563 243.697 55.3787 242.157C57.1926 238.758 58.1083 234.897 57.8253 231.053C57.3156 224.16 53.5654 218.565 49.9388 213.154C47.4547 209.448 45.1079 205.948 43.8023 202.138C42.0121 196.923 42.0514 190.727 43.9241 183.193C44.8186 179.59 46.0497 175.949 47.2388 172.429C48.2457 169.453 49.2856 166.375 50.1513 163.257C52.2436 155.721 52.6576 148.31 51.3848 141.231C50.9383 138.747 49.977 133.508 46.7411 128.807C46.3926 128.301 46.9205 127.658 47.478 127.903C53.5597 130.562 58.7023 135.539 61.2366 142.566C67.5199 158.768 55.0006 174.501 54.2568 191.033C53.8598 196.574 54.7671 202.671 57.6328 207.617C60.1027 212.021 64.2185 215.947 66.3427 220.058C69.0102 225.184 68.8479 231.883 66.1593 237.106ZM51.0249 237.586C48.7497 243.496 41.745 246.069 36.1191 243.314C35.5154 243.018 34.93 242.703 34.3669 242.371C23.1295 235.815 16.2464 223.974 11.8135 211.645C10.136 207.053 8.84607 202.291 7.9097 197.437C7.56658 195.652 8.44008 193.821 10.0351 192.996C13.4963 191.208 17.3465 190.216 21.2437 190.145C26.3157 190.005 31.3588 191.515 35.6175 194.302C36.2815 194.736 36.6652 195.494 36.7215 196.296C36.9114 199.057 37.4104 201.658 38.2497 204.104C39.8121 208.658 42.4888 212.653 45.0779 216.516C48.4171 221.497 51.5705 226.201 51.9623 231.5C52.1143 233.573 51.7709 235.65 51.0249 237.586ZM6.46921 187.149C5.42942 175.567 6.27928 163.753 8.8094 152.654C10.5131 146.342 13.0393 140.165 16.8933 135.272C19.5937 131.813 22.933 129.329 26.571 127.754C30.7224 125.956 35.607 126.313 39.1285 129.18C43.2484 132.532 44.774 137.703 45.6004 142.305C46.7109 148.479 46.339 154.983 44.4912 161.636C43.6727 164.593 42.6591 167.591 41.6782 170.49C40.4485 174.125 39.1783 177.886 38.2222 181.731C37.9525 182.814 37.7181 183.876 37.5177 184.917C37.21 186.523 35.5455 187.402 34.0631 186.761C29.9877 185 25.5627 184.093 21.1376 184.171C16.3616 184.257 11.6433 185.474 7.39897 187.66C6.99434 187.868 6.50981 187.607 6.46921 187.149ZM18.4268 92.3102H54.2984C54.4897 105.004 56.082 117.025 58.7718 127.874C49.5789 119.547 36.0576 117.258 24.7691 122.058C20.9831 112.848 18.7424 102.824 18.4268 92.3102ZM39.689 33.428C45.5008 37.1904 53.0728 40.3648 61.8573 42.7325C57.3959 55.5399 54.5734 70.6328 54.3035 87.1335H18.4268C19.045 66.5222 26.9744 47.7509 39.689 33.428ZM84.0194 7.40691C76.2497 13.8722 69.0547 24.4116 63.6843 37.8661C55.6185 35.7354 48.6632 32.9277 43.3008 29.6198C54.3365 18.6469 68.3661 10.7738 84.0194 7.40691ZM98.4203 5.64813C99.3424 5.61669 100.263 5.57614 101.192 5.57614C102.122 5.57614 103.041 5.61669 103.964 5.64813C114.705 7.53129 126.023 20.1045 133.696 39.088C123.71 41.3011 112.551 42.4771 101.197 42.4771C89.8465 42.4771 78.6866 41.2985 68.6896 39.0814C76.3619 20.1018 87.6796 7.53129 98.4203 5.64813ZM159.086 29.6224C153.744 32.9107 146.791 35.7184 138.7 37.8687C133.328 24.4129 126.135 13.8722 118.364 7.40691C134.02 10.7738 148.049 18.6482 159.086 29.6224ZM183.955 87.1335H148.079C147.81 70.634 144.987 55.5411 140.526 42.7338C149.342 40.3451 156.913 37.172 162.698 33.4319C175.411 47.7549 183.338 66.5244 183.955 87.1335ZM162.7 146.01C157.003 142.336 149.61 139.212 141.064 136.857C145.306 123.845 147.84 108.617 148.085 92.3102H183.955C183.338 112.919 175.413 131.687 162.7 146.01ZM59.3982 87.1335C59.6374 73.2337 61.7918 60.3067 65.2071 49.0209C66.0688 46.174 68.8975 44.4506 71.7797 44.9941C81.0125 46.7358 91.0374 47.6541 101.197 47.6541C113.195 47.6541 125.002 46.3757 135.528 43.9752C139.891 56.3885 142.709 71.1135 142.985 87.1335H59.3982ZM66.1252 135.629C62.072 123.086 59.6323 108.25 59.3925 92.3102H142.991C142.751 108.253 140.309 123.091 136.255 135.637C125.564 133.136 113.512 131.803 101.197 131.803C88.867 131.803 76.8101 133.134 66.1252 135.629ZM66.9726 166.242C68.041 162.588 68.9043 158.918 69.2762 155.258C73.0805 162.007 77.4702 167.57 82.2853 171.631C76.9525 170.361 71.8492 168.513 66.9726 166.242ZM126.042 169.959C125.283 169.414 124.419 168.924 123.42 168.492C129.734 161.982 135.187 152.816 139.346 141.746C147.129 143.86 153.861 146.61 159.087 149.819C149.891 158.967 138.606 165.936 126.042 169.959ZM158.413 194.46C159.03 192.754 159.813 191.185 160.853 189.869C163.913 185.458 169.744 184.551 174.104 187.49C178.658 190.437 180.982 196.231 181.524 201.618C182.094 208.535 179.526 217.349 173.349 220.74C170.053 222.782 165.695 222.734 162.211 221.073C161.41 220.692 161.445 219.528 162.237 219.127C163.937 218.265 165.599 217.324 167.206 216.287C169.979 214.495 171.64 211.374 171.539 208.143C171.403 203.775 169.598 199.391 166.595 196.125C165.74 195.195 164.454 194.822 163.236 195.117C162.014 195.415 160.807 195.68 159.61 195.919C158.791 196.083 158.125 195.255 158.413 194.46ZM199.081 206.043C195.99 203.065 192.065 201.101 187.97 200.168C186.893 193.025 183.529 186.007 177.246 182.174C170.406 177.771 160.841 179.589 156.48 186.634C154.313 189.886 153.326 193.506 152.947 197.035C147.516 197.721 142.367 197.823 137.562 197.328C133.925 196.952 129.403 196.13 126.703 193.063C124.585 190.66 123.727 186.994 124.35 183.007C124.759 180.385 125.734 177.872 126.753 175.6C163.024 164.436 189.507 130.168 189.507 89.7225C189.507 40.2495 149.891 0 101.192 0C52.4942 0 12.8756 40.2495 12.8756 89.7225C12.8756 102.123 15.4096 113.919 19.9106 124.671C17.15 126.498 14.6068 128.812 12.4133 131.664C-2.72132 151.977 -1.66456 190.772 6.70231 213.634C11.3761 226.827 19.0646 240.015 31.5828 247.325C43.9922 254.822 64.0169 254.37 71.2626 239.811C73.421 235.548 74.2616 231.363 74.0583 227.327C77.9155 221.031 80.3404 211.892 80.1007 203.279C80.0642 201.937 80.5227 200.649 81.4054 199.649C86.0269 194.414 89.6335 187.898 91.8922 180.605C92.0625 180.051 92.0767 179.482 91.9776 178.94C94.2009 179.175 96.451 179.31 98.7205 179.374C97.4972 181.408 96.3969 183.627 95.5381 186.123C92.9309 193.693 93.3131 201.588 96.5871 207.785C97.0911 208.738 97.6988 209.654 98.3526 210.55C97.7261 210.864 97.0963 211.165 96.4812 211.505C81.2334 219.524 75.3129 236.411 91.354 247.287C113.467 261.293 151.019 259.846 175.338 252.661C181.711 250.635 188.269 248.269 193.761 244.298C206.489 235.921 210.945 217.345 199.081 206.043Z" fill="#252525"/>
<path d="M126.893 77.9196C126.246 80.8463 125.404 83.7342 124.384 86.4815C124.384 86.5219 124.364 86.5419 124.344 86.5612C118.464 102.272 106.704 113.921 93.064 113.921C85.1645 113.921 80.5982 109.739 78.4415 103.387C78.4034 103.268 78.3442 103.129 78.3049 102.969C78.1283 102.471 77.9125 101.794 77.7171 100.958C77.7957 101.375 77.1681 101.734 76.5018 101.874C76.4825 101.894 76.4432 101.894 76.4039 101.894C76.3446 101.913 76.2661 101.933 76.1875 101.933C75.9921 101.974 75.7962 101.994 75.6191 101.974C73.1691 101.933 70.681 102.79 69.9748 105.338C69.7589 106.095 69.739 106.852 69.8375 107.588C69.9748 108.624 70.3666 109.619 70.935 110.555C70.4646 110.914 69.9947 111.252 69.505 111.57C68.9759 111.948 68.4269 112.288 67.8585 112.586C64.5065 114.557 60.8799 115.752 57.0192 116.05C42.9861 117.086 37.6548 94.606 42.1624 76.0483C46.1817 59.4416 58.98 44.8254 70.386 44.8254C78.3248 44.8254 84.087 49.6645 86.8109 58.027C92.9854 47.9526 101.354 41.8789 111.076 41.8789C119.955 41.8789 125.815 48.6889 127.638 58.9035C128.598 64.439 128.421 70.9302 126.893 77.9196Z" fill="white"/>
<path d="M127.633 58.9072C126.083 53.9361 123.001 50.8887 118.793 50.8887C110.637 50.8887 103.127 57.189 98.1936 67.7442C98.9584 70.6503 100.268 73.4528 102 75.9068C102.482 76.5617 102.1 77.5031 101.314 77.6865C99.7836 78.0754 98.2739 78.6489 96.8643 79.4257C95.6963 80.0596 94.7498 80.9201 93.8044 81.7578C91.3265 95.444 94.4485 107.309 102.322 107.309C109.771 107.309 119.014 98.6959 124.351 86.5655C124.371 86.5445 124.391 86.5245 124.391 86.483C125.397 83.742 126.244 80.8586 126.888 77.912C128.419 70.9356 128.599 64.4314 127.633 58.9072Z" fill="#252525"/>
<path d="M78.4027 52.1138C70.3277 52.6116 61.3308 60.9155 57.0578 71.4876C57.9799 74.2753 61.644 77.2823 63.5063 79.5728C64.0154 80.1896 63.7028 81.1259 62.9379 81.3445C61.4487 81.8224 60.1161 81.922 58.2931 82.4995C57.0578 82.8782 56.0783 83.1766 55.1956 84.0531C53.6084 96.9562 58.4896 107.768 65.7797 108.226C66.1334 109.778 66.839 111.292 67.8578 112.586C68.7787 113.801 69.9741 114.837 71.3665 115.553C72.8751 116.468 74.4242 114.299 73.1103 113.124C72.2675 112.387 71.5231 111.51 70.9354 110.555C70.367 109.62 69.9741 108.624 69.838 107.588C69.74 106.851 69.7594 106.096 69.9741 105.339C70.6803 102.79 73.1616 102.181 75.6121 102.222C76.2916 102.27 78.1903 102.635 78.0519 102.202C77.7768 101.339 77.3326 99.1665 77.246 98.2695C76.3257 91.6394 77.2853 83.614 79.4409 75.69C81.2445 69.1379 83.6552 63.2846 86.5949 58.3658C84.7332 54.623 81.97 51.8951 78.4027 52.1138Z" fill="#252525"/>
<path d="M124.325 124.613C123.482 127.958 121.326 131.185 117.7 133.932C111.429 138.671 103.373 141.657 93.5134 142.175C92.8482 142.195 92.1819 142.215 91.5349 142.215C88.1441 142.215 85.1651 141.737 82.6951 140.802C78.892 139.368 76.2074 136.74 75.1493 133.434C74.5809 131.682 74.1885 129.113 75.4232 126.664C76.6385 124.275 78.658 123.04 80.8921 122.303C82.5579 121.766 84.3609 121.507 86.066 121.247C87.2027 121.069 88.2216 120.949 89.2615 120.829C92.5538 120.412 95.944 119.993 99.0216 118.779C100.825 118.082 102.471 117.126 104.235 116.111C105.745 115.255 107.312 114.338 108.978 113.622C110.095 113.124 112.154 112.387 114.467 112.248C116.485 112.108 118.719 112.407 120.699 113.741C123.914 115.911 125.403 120.372 124.325 124.613Z" fill="#252525"/>
<path d="M113.977 124.036C112.292 125.668 109.664 126.026 107.47 125.29C106.097 124.832 104.882 124.174 103.843 123.298C103.196 122.742 102.158 123.04 101.923 123.876C101.531 125.47 100.571 126.923 99.2375 127.838C97.2197 129.253 94.4155 129.411 92.26 128.236C90.6927 127.401 89.3789 125.787 88.8105 124.016C88.4386 122.9 87.4386 122.143 86.3018 122.243C84.4982 122.402 82.6952 122.422 80.8916 122.303C82.5591 121.766 84.361 121.506 86.0672 121.247C87.2039 121.068 88.2228 120.949 89.261 120.829C92.555 120.412 95.9452 119.993 99.0216 118.778C100.825 118.082 102.472 117.126 104.236 116.11C105.745 115.255 107.312 114.338 108.979 113.622C110.097 113.124 112.154 112.387 114.466 112.248C115.015 113.84 115.349 115.593 115.682 117.206C116.152 119.595 115.74 122.344 113.977 124.036Z" fill="white"/>
</svg>
