<svg width="20" height="15" viewBox="0 0 20 15" fill="none" xmlns="http://www.w3.org/2000/svg">
<path d="M2.14648 11.7852C1.43555 11.7852 0.900065 11.6074 0.540039 11.252C0.180013 10.8965 0 10.3678 0 9.66602V2.11914C0 1.41276 0.170898 0.884115 0.512695 0.533203C0.854492 0.177734 1.33073 0 1.94141 0H14.3486C15.0596 0 15.5951 0.177734 15.9551 0.533203C16.3151 0.884115 16.4951 1.41276 16.4951 2.11914V6.21387C16.4085 6.20475 16.3219 6.19792 16.2354 6.19336C16.1488 6.18424 16.0599 6.17969 15.9688 6.17969C15.8822 6.17969 15.7933 6.18424 15.7021 6.19336C15.6156 6.19792 15.5312 6.20475 15.4492 6.21387V2.11914C15.4492 1.76823 15.3558 1.50163 15.1689 1.31934C14.9867 1.13704 14.7246 1.0459 14.3828 1.0459H2.10547C1.76823 1.0459 1.50618 1.13704 1.31934 1.31934C1.13704 1.50163 1.0459 1.76595 1.0459 2.1123V9.65918C1.0459 10.0146 1.13704 10.2835 1.31934 10.4658C1.50618 10.6481 1.76823 10.7393 2.10547 10.7393H11.5664C11.571 10.917 11.5869 11.0924 11.6143 11.2656C11.6462 11.4434 11.6872 11.6165 11.7373 11.7852H2.14648ZM8.24414 7.69043C8.02539 7.69043 7.8112 7.64941 7.60156 7.56738C7.39193 7.48079 7.18913 7.34863 6.99316 7.1709L0.560547 1.38086L1.27148 0.663086L7.58789 6.35742C7.79753 6.54427 8.01628 6.6377 8.24414 6.6377C8.47656 6.6377 8.69531 6.54427 8.90039 6.35742L15.2168 0.663086L15.9277 1.38086L9.49512 7.1709C9.29915 7.34863 9.09635 7.48079 8.88672 7.56738C8.67708 7.64941 8.46289 7.69043 8.24414 7.69043ZM1.37402 10.9102L0.663086 10.1924L5.5166 5.33887L6.22754 6.0498L1.37402 10.9102ZM12.9951 7.35547C12.8675 7.46484 12.749 7.58561 12.6396 7.71777C12.5303 7.84538 12.4277 7.97982 12.332 8.12109L10.2607 6.0498L10.9785 5.33887L12.9951 7.35547ZM15.9756 14.0615C15.5016 14.0615 15.055 13.9704 14.6357 13.7881C14.2165 13.6104 13.8473 13.362 13.5283 13.043C13.2093 12.724 12.9587 12.3548 12.7764 11.9355C12.5941 11.5163 12.5029 11.0674 12.5029 10.5889C12.5029 10.1104 12.5941 9.66374 12.7764 9.24902C12.9587 8.82975 13.2093 8.46061 13.5283 8.1416C13.8473 7.81803 14.2165 7.56738 14.6357 7.38965C15.055 7.20736 15.5016 7.11621 15.9756 7.11621C16.4541 7.11621 16.903 7.20736 17.3223 7.38965C17.7415 7.56738 18.1107 7.81576 18.4297 8.13477C18.7487 8.45378 18.9971 8.82292 19.1748 9.24219C19.3571 9.66146 19.4482 10.1104 19.4482 10.5889C19.4482 11.0628 19.3571 11.5094 19.1748 11.9287C18.9925 12.348 18.7396 12.7171 18.416 13.0361C18.097 13.3551 17.7279 13.6058 17.3086 13.7881C16.8893 13.9704 16.445 14.0615 15.9756 14.0615ZM15.9756 13.2617C16.3083 13.2617 16.6113 13.2116 16.8848 13.1113C17.1582 13.0156 17.3883 12.8903 17.5752 12.7354C17.7666 12.585 17.901 12.4323 17.9785 12.2773V12.2432C17.9056 12.1019 17.7803 11.9606 17.6025 11.8193C17.4248 11.6826 17.1992 11.5687 16.9258 11.4775C16.6523 11.3864 16.3333 11.3408 15.9688 11.3408C15.6087 11.3408 15.292 11.3864 15.0186 11.4775C14.7451 11.5687 14.5195 11.6826 14.3418 11.8193C14.1641 11.9561 14.0387 12.0973 13.9658 12.2432V12.2773C14.0387 12.4323 14.1686 12.585 14.3555 12.7354C14.5469 12.8857 14.7816 13.0111 15.0596 13.1113C15.3376 13.2116 15.6429 13.2617 15.9756 13.2617ZM15.9688 10.7939C16.2832 10.7939 16.5475 10.6777 16.7617 10.4453C16.9759 10.2129 17.083 9.91895 17.083 9.56348C17.083 9.24447 16.9759 8.96875 16.7617 8.73633C16.5475 8.49935 16.2832 8.38086 15.9688 8.38086C15.6589 8.38086 15.3945 8.49935 15.1758 8.73633C14.9616 8.96875 14.8545 9.24447 14.8545 9.56348C14.8545 9.91895 14.9616 10.2129 15.1758 10.4453C15.39 10.6777 15.6543 10.7939 15.9688 10.7939Z" fill="#0A0A0A"/>
</svg>
