<svg width="20" height="20" viewBox="0 0 20 20" fill="none" xmlns="http://www.w3.org/2000/svg">
<path d="M9.66421 10.5612C8.99959 12.9298 8.45061 14.9195 8.41021 15.1898C8.30153 15.9171 7.22727 15.8001 7.28857 15.0616C7.31365 14.8401 7.75813 13.2015 8.30292 11.2537C7.5338 11.6117 6.90123 11.843 6.51109 11.8918C5.98163 11.9782 5.53576 11.6758 5.58035 11.216C5.59048 11.1263 5.62188 11.0403 5.67196 10.9652C5.72203 10.89 5.78932 10.8279 5.86823 10.7841C5.94714 10.7402 6.03539 10.7158 6.12564 10.7129C6.21589 10.71 6.30552 10.7287 6.38709 10.7674C6.72149 10.72 7.57978 10.3675 8.70699 9.7823C9.27129 7.7745 9.85649 5.72073 10.1491 4.70081C10.3818 4.0125 11.4031 4.30371 11.2331 5.01013C10.8862 6.22233 10.4835 7.63517 10.0934 9.01875C10.5796 8.74008 11.0952 8.42519 11.6121 8.0894C14.4294 6.26831 16.3494 4.52664 16.7368 3.41616C16.8761 2.99816 16.7758 2.81006 16.5696 2.64982C16.0763 2.26666 14.5576 2.21928 11.7779 3.23502C7.61183 4.75515 3.20889 7.70762 2.7895 9.24726C2.98039 9.26398 3.18939 9.24726 3.33847 9.39774C3.40833 9.46108 3.46132 9.54081 3.49269 9.62974C3.52406 9.71867 3.53281 9.81401 3.51816 9.90716C3.50351 10.0003 3.46592 10.0884 3.40877 10.1634C3.35162 10.2384 3.2767 10.298 3.19078 10.3368C2.5596 10.5612 1.43379 10.0833 1.67623 9.06334C1.95489 7.74942 3.7509 6.31011 5.20554 5.32642C7.13932 4.03924 9.21636 2.98155 11.3947 2.1747C13.383 1.44598 16.015 0.788329 17.2648 1.7567C17.8486 2.21232 18.0604 2.87136 17.8612 3.60286C17.6048 4.5559 16.4762 6.23626 12.5554 8.8209C11.5773 9.46601 10.5754 10.0624 9.66421 10.5612Z" fill="black"/>
<path d="M17.7353 17.5361H2.85449V18.5742H17.7353V17.5361Z" fill="black"/>
<path d="M13.563 15.1763C13.6722 14.7658 13.4612 14.3534 13.0916 14.255C12.722 14.1567 12.3338 14.4097 12.2246 14.8202C12.1154 15.2307 12.3265 15.6432 12.6961 15.7415C13.0656 15.8399 13.4538 15.5868 13.563 15.1763Z" fill="black"/>
</svg>
