<svg width="20" height="20" viewBox="0 0 20 20" fill="none" xmlns="http://www.w3.org/2000/svg">
<path fill-rule="evenodd" clip-rule="evenodd" d="M9.15775 5.71984C9.67395 5.18247 10.3924 4.8497 11.1861 4.8497C12.2444 4.8497 13.1616 5.43764 13.6554 6.31365C14.0938 6.11768 14.5686 6.01651 15.0488 6.01675C16.9537 6.01675 18.5 7.57477 18.5 9.49731C18.5 11.4199 16.9537 12.9779 15.0488 12.9779C14.816 12.9779 14.5891 12.9545 14.3668 12.9103C13.9347 13.6805 13.1087 14.2037 12.168 14.2037C11.785 14.2045 11.4069 14.1176 11.0626 13.9497C10.6246 14.9786 9.60458 15.7018 8.41695 15.7018C7.17642 15.7018 6.12402 14.9198 5.71834 13.8204C5.53779 13.8585 5.35375 13.8776 5.16921 13.8775C3.6935 13.8775 2.5 12.6664 2.5 11.1789C2.5 10.1794 3.03737 9.30929 3.83461 8.83894C3.66547 8.44932 3.57841 8.02903 3.57886 7.60428C3.57886 5.88752 4.97226 4.5 6.68902 4.5C7.69439 4.5 8.59392 4.97917 9.15834 5.7229" fill="#00A1E0"/>
</svg>
