<svg width="48" height="48" viewBox="0 0 48 48" fill="none" xmlns="http://www.w3.org/2000/svg">
<rect width="48" height="48" rx="12" fill="#0E0E0E"/>
<g clip-path="url(#clip0_2339_49994)">
<path d="M16.8674 32.9199H30.5884C32.6877 32.9199 33.7324 31.8753 33.7324 29.8061V17.5416C33.7324 15.4724 32.6877 14.4277 30.5884 14.4277H16.8674C14.7681 14.4277 13.7134 15.4623 13.7134 17.5416V29.8061C13.7134 31.8853 14.7681 32.9199 16.8674 32.9199ZM16.7167 31.3027C15.8228 31.3027 15.3306 30.8307 15.3306 29.8965V20.4244C15.3306 19.5003 15.8228 19.0181 16.7167 19.0181H30.7189C31.6129 19.0181 32.1152 19.5003 32.1152 20.4244V29.8965C32.1152 30.8307 31.6129 31.3027 30.7189 31.3027H16.7167Z" fill="white"/>
<path d="M21.7693 22.6248H22.3619C22.7135 22.6248 22.824 22.5244 22.824 22.1729V21.5803C22.824 21.2287 22.7135 21.1182 22.3619 21.1182H21.7693C21.4178 21.1182 21.2972 21.2287 21.2972 21.5803V22.1729C21.2972 22.5244 21.4178 22.6248 21.7693 22.6248ZM25.1042 22.6248H25.6968C26.0483 22.6248 26.1688 22.5244 26.1688 22.1729V21.5803C26.1688 21.2287 26.0483 21.1182 25.6968 21.1182H25.1042C24.7526 21.1182 24.6321 21.2287 24.6321 21.5803V22.1729C24.6321 22.5244 24.7526 22.6248 25.1042 22.6248ZM28.439 22.6248H29.0316C29.3831 22.6248 29.5037 22.5244 29.5037 22.1729V21.5803C29.5037 21.2287 29.3831 21.1182 29.0316 21.1182H28.439C28.0874 21.1182 27.9769 21.2287 27.9769 21.5803V22.1729C27.9769 22.5244 28.0874 22.6248 28.439 22.6248ZM18.4345 25.9095H19.0171C19.3787 25.9095 19.4892 25.809 19.4892 25.4574V24.8648C19.4892 24.5133 19.3787 24.4129 19.0171 24.4129H18.4345C18.0729 24.4129 17.9624 24.5133 17.9624 24.8648V25.4574C17.9624 25.809 18.0729 25.9095 18.4345 25.9095ZM21.7693 25.9095H22.3619C22.7135 25.9095 22.824 25.809 22.824 25.4574V24.8648C22.824 24.5133 22.7135 24.4129 22.3619 24.4129H21.7693C21.4178 24.4129 21.2972 24.5133 21.2972 24.8648V25.4574C21.2972 25.809 21.4178 25.9095 21.7693 25.9095ZM25.1042 25.9095H25.6968C26.0483 25.9095 26.1688 25.809 26.1688 25.4574V24.8648C26.1688 24.5133 26.0483 24.4129 25.6968 24.4129H25.1042C24.7526 24.4129 24.6321 24.5133 24.6321 24.8648V25.4574C24.6321 25.809 24.7526 25.9095 25.1042 25.9095ZM18.4345 29.2041H19.0171C19.3787 29.2041 19.4892 29.0936 19.4892 28.742V28.1494C19.4892 27.7979 19.3787 27.6974 19.0171 27.6974H18.4345C18.0729 27.6974 17.9624 27.7979 17.9624 28.1494V28.742C17.9624 29.0936 18.0729 29.2041 18.4345 29.2041ZM21.7693 29.2041H22.3619C22.7135 29.2041 22.824 29.0936 22.824 28.742V28.1494C22.824 27.7979 22.7135 27.6974 22.3619 27.6974H21.7693C21.4178 27.6974 21.2972 27.7979 21.2972 28.1494V28.742C21.2972 29.0936 21.4178 29.2041 21.7693 29.2041ZM25.1042 29.2041H25.6968C26.0483 29.2041 26.1688 29.0936 26.1688 28.742V28.1494C26.1688 27.7979 26.0483 27.6974 25.6968 27.6974H25.1042C24.7526 27.6974 24.6321 27.7979 24.6321 28.1494V28.742C24.6321 29.0936 24.7526 29.2041 25.1042 29.2041Z" fill="white"/>
<path d="M32.9388 36.1851C36.4644 36.1851 39.4075 33.242 39.4075 29.7063C39.4075 26.1505 36.4945 23.2275 32.9388 23.2275C29.3829 23.2275 26.46 26.1605 26.46 29.7063C26.46 33.2721 29.3729 36.1851 32.9388 36.1851Z" fill="#0E0E0E"/>
<path d="M32.9386 34.8089C35.7008 34.8089 38.0412 32.4987 38.0412 29.7062C38.0412 26.9037 35.731 24.6035 32.9386 24.6035C30.1362 24.6035 27.8359 26.9138 27.8359 29.7062C27.8359 32.5187 30.1362 34.8089 32.9386 34.8089Z" fill="white"/>
<path d="M32.3261 32.4586C32.1553 32.4586 31.9544 32.3883 31.8239 32.2476L30.1263 30.3793C30.0058 30.2488 29.9556 30.0679 29.9556 29.9274C29.9556 29.5657 30.2368 29.2945 30.5884 29.2945C30.7993 29.2945 30.9601 29.395 31.0605 29.5055L32.296 30.8414L34.7469 27.4463C34.8674 27.2856 35.0482 27.165 35.2793 27.165C35.6107 27.165 35.912 27.4362 35.912 27.7878C35.912 27.8983 35.8618 28.0389 35.7715 28.1695L32.8585 32.2175C32.748 32.3682 32.5471 32.4586 32.3261 32.4586Z" fill="#0E0E0E"/>
</g>
<defs>
<clipPath id="clip0_2339_49994">
<rect width="25.6942" height="25.0413" fill="white" transform="translate(13.7144 11.1426)"/>
</clipPath>
</defs>
</svg>
