<svg width="48" height="48" viewBox="0 0 48 48" fill="none" xmlns="http://www.w3.org/2000/svg">
<rect width="48" height="48" rx="12" fill="#242424"/>
<g clip-path="url(#clip0_2339_50149)">
<path d="M16.2424 32.3877H27.0303C29.0493 32.3877 30.2547 31.2225 30.2547 29.2035V19.2493C30.2547 17.2404 29.1498 16.0752 27.1308 16.0752H16.2424C14.3138 16.0752 13.0181 17.2404 13.0181 19.2493V29.2035C13.0181 31.2225 14.2234 32.3877 16.2424 32.3877ZM31.6207 27.1946L35.277 30.3587C35.6185 30.66 36.0203 30.8509 36.3819 30.8509C37.1654 30.8509 37.6776 30.2783 37.6776 29.4547V19.0082C37.6776 18.1846 37.1654 17.612 36.3819 17.612C36.0203 17.612 35.6185 17.8029 35.277 18.1042L31.6207 21.2582V27.1946Z" fill="white"/>
<path d="M13.7613 37.3297C14.5648 37.3297 15.2479 36.8877 15.5894 36.2549C15.7601 36.2951 15.9209 36.3252 16.1016 36.3252C17.1865 36.3252 18.1006 35.5618 18.2713 34.5373L18.2813 34.3866C18.3316 34.4167 18.4019 34.4368 18.4722 34.4368C19.6977 34.4368 20.662 33.4625 20.662 32.237V29.6556C20.662 28.4502 19.6977 27.4658 18.4722 27.4658C18.4019 27.4658 18.3316 27.4859 18.2813 27.5161L18.2713 27.3654C18.1006 26.3509 17.1865 25.5774 16.1016 25.5774C15.9209 25.5774 15.7601 25.6076 15.5894 25.6578C15.2479 25.025 14.5648 24.583 13.7613 24.583C12.7468 24.583 11.913 25.2861 11.6519 26.2102L11.6418 26.3609C11.5715 26.3308 11.4912 26.3107 11.4008 26.3107C10.4164 26.3107 9.50234 26.9636 9.31149 27.8978L9.30145 28.0484C9.22109 28.0183 9.13069 27.9982 9.04028 27.9982C7.83493 27.9982 6.8606 28.9725 6.8606 30.188V31.7147C6.8606 32.92 7.83493 33.9044 9.04028 33.9044C9.13069 33.9044 9.21104 33.8843 9.2914 33.8542L9.30145 33.9949C9.5626 34.919 10.4064 35.5919 11.4008 35.5919C11.4811 35.5919 11.5715 35.5718 11.6318 35.5417L11.6418 35.7024C11.903 36.6266 12.7267 37.3297 13.7613 37.3297Z" fill="#242424"/>
<path d="M18.4722 32.8002C18.7936 32.8002 19.0347 32.5692 19.0347 32.2377V29.6563C19.0347 29.3449 18.7936 29.0938 18.4722 29.0938C18.1508 29.0938 17.9097 29.3549 17.9097 29.6563V32.2377C17.9097 32.5592 18.1508 32.8002 18.4722 32.8002Z" fill="white"/>
<path d="M16.1017 34.6984C16.4333 34.6984 16.6843 34.4472 16.6843 34.1358V27.7675C16.6843 27.4561 16.4333 27.2051 16.1017 27.2051C15.8005 27.2051 15.5493 27.4561 15.5493 27.7675V34.1358C15.5493 34.4472 15.8005 34.6984 16.1017 34.6984Z" fill="white"/>
<path d="M13.7612 35.7031C14.0726 35.7031 14.3237 35.4521 14.3237 35.1407V26.7835C14.3237 26.4621 14.0726 26.2109 13.7612 26.2109C13.4398 26.2109 13.1987 26.4621 13.1987 26.7835V35.1407C13.1987 35.4621 13.4298 35.7031 13.7612 35.7031Z" fill="white"/>
<path d="M11.4009 33.9652C11.7223 33.9652 11.9734 33.7141 11.9734 33.3926V28.511C11.9734 28.1895 11.7223 27.9385 11.4009 27.9385C11.0895 27.9385 10.8384 28.1895 10.8384 28.511V33.3926C10.8384 33.7141 11.0895 33.9652 11.4009 33.9652Z" fill="white"/>
<path d="M9.04025 32.2777C9.37172 32.2777 9.61279 32.0267 9.61279 31.7153V30.1885C9.61279 29.8771 9.37172 29.626 9.04025 29.626C8.72886 29.626 8.48779 29.8771 8.48779 30.1885V31.7153C8.48779 32.0267 8.72886 32.2777 9.04025 32.2777Z" fill="white"/>
</g>
<defs>
<clipPath id="clip0_2339_50149">
<rect width="30.8169" height="26.1864" fill="white" transform="translate(6.85718 11.1426)"/>
</clipPath>
</defs>
</svg>
