<svg width="48" height="48" viewBox="0 0 48 48" fill="none" xmlns="http://www.w3.org/2000/svg">
<rect width="48" height="48" rx="12" fill="#0E0E0E"/>
<g clip-path="url(#clip0_2339_50123)">
<path d="M21.5498 31.3333C24.6838 34.4572 28.5911 34.2563 31.4036 31.4538C33.6636 29.1838 34.1157 26.8333 33.1614 24.0007C32.6491 22.4136 31.8053 20.7362 30.7808 18.8177C30.3791 18.0342 29.8768 17.0096 29.5353 16.6782C29.1536 16.2965 28.6313 16.3165 28.2195 16.7183C27.7674 17.1703 27.7875 17.7128 28.1291 18.7273L29.2239 21.7808C29.3445 22.1023 29.3243 22.3032 29.2038 22.4237C29.0632 22.5643 28.8724 22.5844 28.6212 22.3333L21.1782 14.8802C20.7563 14.4683 20.0632 14.4683 19.6514 14.8802C19.2295 15.302 19.2295 15.9851 19.6514 16.4069L24.975 21.7306C24.7139 21.8511 24.4427 22.0119 24.1715 22.1927L17.994 16.0152C17.5822 15.5933 16.8891 15.5933 16.4672 16.0152C16.0554 16.4371 16.0554 17.1201 16.4672 17.542L22.5643 23.6391C22.3634 23.8802 22.1726 24.1413 21.9918 24.4025L16.4069 18.8076C15.9851 18.3857 15.302 18.3857 14.8802 18.8076C14.4683 19.2295 14.4683 19.9125 14.8802 20.3344L20.9572 26.4014C20.8266 26.7429 20.7462 27.0844 20.6759 27.4058L16.4572 23.1871C16.0453 22.7652 15.3523 22.7652 14.9304 23.1871C14.5186 23.6089 14.5186 24.292 14.9304 24.7139L21.5498 31.3333Z" fill="white"/>
</g>
<defs>
<clipPath id="clip0_2339_50123">
<rect width="19.0611" height="19.0697" fill="white" transform="translate(14.5713 14.5713)"/>
</clipPath>
</defs>
</svg>
