<svg width="48" height="48" viewBox="0 0 48 48" fill="none" xmlns="http://www.w3.org/2000/svg">
<rect width="48" height="48" rx="12" fill="#0E0E0E"/>
<path d="M16.8672 30.1282H26.952C29.0413 30.1282 30.096 29.0836 30.096 27.0143V16.8492C30.096 14.78 29.0413 13.7354 26.952 13.7354H16.8672C14.7578 13.7354 13.7131 14.78 13.7131 16.8492V27.0143C13.7131 29.0836 14.7578 30.1282 16.8672 30.1282ZM16.8872 28.511C15.8828 28.511 15.3303 27.9686 15.3303 26.924V16.9396C15.3303 15.895 15.8828 15.3525 16.8872 15.3525H26.9219C27.9163 15.3525 28.4788 15.895 28.4788 16.9396V26.924C28.4788 27.9686 27.9163 28.511 26.9219 28.511H16.8872Z" fill="white"/>
<path d="M21.7387 34.7786H31.8236C33.9128 34.7786 34.9676 33.734 34.9676 31.6648V21.4996C34.9676 19.4304 33.9128 18.3857 31.8236 18.3857H21.7387C19.6294 18.3857 18.5847 19.4203 18.5847 21.4996V31.6648C18.5847 33.734 19.6294 34.7786 21.7387 34.7786Z" fill="white"/>
<path d="M21.7387 34.7786H31.8236C33.9128 34.7786 34.9676 33.734 34.9676 31.6648V21.4996C34.9676 19.4304 33.9128 18.3857 31.8236 18.3857H21.7387C19.6294 18.3857 18.5847 19.4203 18.5847 21.4996V31.6648C18.5847 33.734 19.6294 34.7786 21.7387 34.7786ZM21.7588 33.1614C20.7644 33.1614 20.2019 32.619 20.2019 31.5743V21.59C20.2019 20.5453 20.7644 20.0029 21.7588 20.0029H31.7935C32.7878 20.0029 33.3504 20.5453 33.3504 21.59V31.5743C33.3504 32.619 32.7878 33.1614 31.7935 33.1614H21.7588Z" fill="white"/>
<path d="M22.3515 29.9666H23.8884V28.6408H22.3515C22.0101 28.6408 21.7188 28.932 21.7188 29.2937C21.7188 29.6754 22.0101 29.9666 22.3515 29.9666ZM25.2042 31.3327C26.3393 31.3327 27.2534 30.4187 27.2534 29.2937C27.2534 28.1787 26.3393 27.2646 25.2042 27.2646C24.0893 27.2646 23.1753 28.1787 23.1753 29.2937C23.1753 30.4187 24.0893 31.3327 25.2042 31.3327ZM26.6105 29.9666H31.1708C31.5525 29.9666 31.8437 29.6754 31.8437 29.2937C31.8437 28.932 31.5525 28.6408 31.1708 28.6408H26.6105V29.9666Z" fill="#0E0E0E"/>
<path d="M22.3917 24.5936H26.952V23.2677H22.3917C22.0101 23.2677 21.7188 23.559 21.7188 23.9206C21.7188 24.2922 22.0101 24.5936 22.3917 24.5936ZM28.3582 25.9597C29.4732 25.9597 30.3873 25.0457 30.3873 23.9206C30.3873 22.8057 29.4732 21.8916 28.3582 21.8916C27.2332 21.8916 26.3192 22.8057 26.3192 23.9206C26.3192 25.0457 27.2332 25.9597 28.3582 25.9597ZM29.6741 24.5936H31.211C31.5525 24.5936 31.8437 24.2922 31.8437 23.9206C31.8437 23.559 31.5525 23.2677 31.211 23.2677H29.6741V24.5936Z" fill="#0E0E0E"/>
</svg>
