<svg width="48" height="48" viewBox="0 0 48 48" fill="none" xmlns="http://www.w3.org/2000/svg">
<rect width="48" height="48" rx="12" fill="#0E0E0E"/>
<path d="M14.044 20.9436H11.9341C11.6777 20.9436 11.4579 20.8522 11.2747 20.6692C11.0916 20.4789 11 20.2556 11 19.9994C11 19.7432 11.0916 19.52 11.2747 19.3297C11.4579 19.1394 11.6777 19.0442 11.9341 19.0442H14.044C14.3004 19.0442 14.5238 19.1394 14.7143 19.3297C14.9121 19.5127 15.011 19.7359 15.011 19.9994C15.011 20.2556 14.9121 20.4789 14.7143 20.6692C14.5238 20.8522 14.3004 20.9436 14.044 20.9436ZM16.2967 13.6424L14.8022 12.1383C14.619 11.9553 14.5275 11.7357 14.5275 11.4795C14.5275 11.2234 14.619 11.0001 14.8022 10.8098C14.9927 10.6268 15.2198 10.5353 15.4835 10.5353C15.7473 10.5353 15.967 10.6268 16.1429 10.8098L17.6264 12.314C17.8095 12.4969 17.9011 12.7165 17.9011 12.9727C17.9084 13.2289 17.8168 13.4521 17.6264 13.6424C17.4432 13.8254 17.2198 13.9169 16.956 13.9169C16.6996 13.9096 16.4799 13.8181 16.2967 13.6424ZM23.0549 10.0632V7.95519C23.0549 7.69901 23.1465 7.47577 23.3297 7.28546C23.5201 7.09515 23.7436 7 24 7C24.2564 7 24.4799 7.09515 24.6703 7.28546C24.8608 7.47577 24.956 7.69901 24.956 7.95519V10.0632C24.956 10.3194 24.8608 10.5426 24.6703 10.7329C24.4872 10.9159 24.2637 11.0074 24 11.0074C23.7436 11.0074 23.5201 10.9159 23.3297 10.7329C23.1465 10.5426 23.0549 10.3194 23.0549 10.0632ZM30.3626 12.314L31.8681 10.8098C32.0513 10.6268 32.2711 10.5353 32.5275 10.5353C32.7839 10.5353 33.0073 10.6268 33.1978 10.8098C33.381 11.0001 33.4725 11.2234 33.4725 11.4795C33.4725 11.7357 33.381 11.9553 33.1978 12.1383L31.6923 13.6424C31.5165 13.8254 31.2967 13.9169 31.033 13.9169C30.7766 13.9169 30.5531 13.8254 30.3626 13.6424C30.1795 13.4521 30.0879 13.2289 30.0879 12.9727C30.0879 12.7165 30.1795 12.4969 30.3626 12.314ZM36.044 20.9436H33.9341C33.6777 20.9436 33.4542 20.8522 33.2637 20.6692C33.0806 20.4789 32.989 20.2556 32.989 19.9994C32.989 19.7359 33.0806 19.5127 33.2637 19.3297C33.4542 19.1394 33.6777 19.0442 33.9341 19.0442H36.044C36.3004 19.0442 36.5238 19.1394 36.7143 19.3297C36.9048 19.52 37 19.7432 37 19.9994C37 20.2556 36.9048 20.4789 36.7143 20.6692C36.5238 20.8522 36.3004 20.9436 36.044 20.9436ZM24 13.0496C24.967 13.0496 25.8718 13.2143 26.7143 13.5436C27.5568 13.873 28.293 14.3305 28.9231 14.916C29.5604 15.4943 30.0549 16.1713 30.4066 16.9472C30.7656 17.7231 30.9451 18.5612 30.9451 19.4614C30.9451 20.252 30.8608 20.9546 30.6923 21.5695C30.5311 22.1843 30.3223 22.7845 30.0659 23.3701C29.8095 23.9556 29.5385 24.5997 29.2527 25.3024C28.967 25.9978 28.7033 26.8249 28.4615 27.7837C28.2198 28.7426 28.0293 29.91 27.8901 31.2861C27.8755 31.4764 27.8132 31.6301 27.7033 31.7472C27.6007 31.857 27.4469 31.9119 27.2418 31.9119H20.7582C20.5531 31.9119 20.3956 31.857 20.2857 31.7472C20.1832 31.6301 20.1209 31.4764 20.0989 31.2861C19.967 29.91 19.7802 28.7426 19.5385 27.7837C19.2967 26.8249 19.033 25.9978 18.7473 25.3024C18.4615 24.5997 18.1905 23.9556 17.9341 23.3701C17.6777 22.7845 17.4689 22.1843 17.3077 21.5695C17.1465 20.9546 17.0659 20.252 17.0659 19.4614C17.0659 18.5612 17.2418 17.7231 17.5934 16.9472C17.9451 16.1713 18.4359 15.4943 19.0659 14.916C19.7033 14.3305 20.4396 13.873 21.2747 13.5436C22.1172 13.2143 23.0256 13.0496 24 13.0496ZM20.7253 34.1517C20.5495 34.1517 20.3993 34.0931 20.2747 33.976C20.1575 33.8516 20.0989 33.7015 20.0989 33.5259C20.0989 33.3429 20.1575 33.1928 20.2747 33.0757C20.3993 32.9586 20.5495 32.9001 20.7253 32.9001H27.2747C27.4579 32.9001 27.6081 32.9586 27.7253 33.0757C27.8498 33.1928 27.9121 33.3429 27.9121 33.5259C27.9121 33.7015 27.8498 33.8516 27.7253 33.976C27.6081 34.0931 27.4579 34.1517 27.2747 34.1517H20.7253ZM24 37.16C23.1868 37.16 22.4799 36.9734 21.8791 36.6001C21.2857 36.2268 20.9707 35.74 20.9341 35.1398H27.0659C27.0293 35.74 26.7106 36.2268 26.1099 36.6001C25.5092 36.9734 24.8059 37.16 24 37.16Z" fill="white"/>
</svg>
