<svg width="48" height="48" viewBox="0 0 48 48" fill="none" xmlns="http://www.w3.org/2000/svg">
<rect width="48" height="48" rx="12" fill="#0E0E0E"/>
<g clip-path="url(#clip0_2339_49967)">
<path d="M16.8672 32.9199H30.5881C32.6874 32.9199 33.7321 31.8753 33.7321 29.8061V17.5416C33.7321 15.4724 32.6874 14.4277 30.5881 14.4277H16.8672C14.7678 14.4277 13.7131 15.4623 13.7131 17.5416V29.8061C13.7131 31.8853 14.7678 32.9199 16.8672 32.9199ZM16.7165 31.3027C15.8225 31.3027 15.3303 30.8307 15.3303 29.8965V20.4244C15.3303 19.5003 15.8225 19.0181 16.7165 19.0181H30.7187C31.6127 19.0181 32.115 19.5003 32.115 20.4244V29.8965C32.115 30.8307 31.6127 31.3027 30.7187 31.3027H16.7165Z" fill="white"/>
<path d="M21.7688 22.6248H22.3614C22.713 22.6248 22.8235 22.5244 22.8235 22.1729V21.5803C22.8235 21.2287 22.713 21.1182 22.3614 21.1182H21.7688C21.4173 21.1182 21.2967 21.2287 21.2967 21.5803V22.1729C21.2967 22.5244 21.4173 22.6248 21.7688 22.6248ZM25.1037 22.6248H25.6963C26.0478 22.6248 26.1683 22.5244 26.1683 22.1729V21.5803C26.1683 21.2287 26.0478 21.1182 25.6963 21.1182H25.1037C24.7521 21.1182 24.6316 21.2287 24.6316 21.5803V22.1729C24.6316 22.5244 24.7521 22.6248 25.1037 22.6248ZM28.4385 22.6248H29.0311C29.3826 22.6248 29.5032 22.5244 29.5032 22.1729V21.5803C29.5032 21.2287 29.3826 21.1182 29.0311 21.1182H28.4385C28.0869 21.1182 27.9764 21.2287 27.9764 21.5803V22.1729C27.9764 22.5244 28.0869 22.6248 28.4385 22.6248ZM18.434 25.9095H19.0166C19.3782 25.9095 19.4887 25.809 19.4887 25.4574V24.8648C19.4887 24.5133 19.3782 24.4129 19.0166 24.4129H18.434C18.0724 24.4129 17.9619 24.5133 17.9619 24.8648V25.4574C17.9619 25.809 18.0724 25.9095 18.434 25.9095ZM21.7688 25.9095H22.3614C22.713 25.9095 22.8235 25.809 22.8235 25.4574V24.8648C22.8235 24.5133 22.713 24.4129 22.3614 24.4129H21.7688C21.4173 24.4129 21.2967 24.5133 21.2967 24.8648V25.4574C21.2967 25.809 21.4173 25.9095 21.7688 25.9095ZM25.1037 25.9095H25.6963C26.0478 25.9095 26.1683 25.809 26.1683 25.4574V24.8648C26.1683 24.5133 26.0478 24.4129 25.6963 24.4129H25.1037C24.7521 24.4129 24.6316 24.5133 24.6316 24.8648V25.4574C24.6316 25.809 24.7521 25.9095 25.1037 25.9095ZM18.434 29.2041H19.0166C19.3782 29.2041 19.4887 29.0936 19.4887 28.742V28.1494C19.4887 27.7979 19.3782 27.6974 19.0166 27.6974H18.434C18.0724 27.6974 17.9619 27.7979 17.9619 28.1494V28.742C17.9619 29.0936 18.0724 29.2041 18.434 29.2041ZM21.7688 29.2041H22.3614C22.713 29.2041 22.8235 29.0936 22.8235 28.742V28.1494C22.8235 27.7979 22.713 27.6974 22.3614 27.6974H21.7688C21.4173 27.6974 21.2967 27.7979 21.2967 28.1494V28.742C21.2967 29.0936 21.4173 29.2041 21.7688 29.2041ZM25.1037 29.2041H25.6963C26.0478 29.2041 26.1683 29.0936 26.1683 28.742V28.1494C26.1683 27.7979 26.0478 27.6974 25.6963 27.6974H25.1037C24.7521 27.6974 24.6316 27.7979 24.6316 28.1494V28.742C24.6316 29.0936 24.7521 29.2041 25.1037 29.2041Z" fill="white"/>
<path d="M32.9385 36.1851C36.4642 36.1851 39.4073 33.242 39.4073 29.7063C39.4073 26.1505 36.4943 23.2275 32.9385 23.2275C29.3827 23.2275 26.4597 26.1605 26.4597 29.7063C26.4597 33.2721 29.3726 36.1851 32.9385 36.1851Z" fill="#0E0E0E"/>
<path d="M32.9386 34.8089C35.7008 34.8089 38.0412 32.4987 38.0412 29.7062C38.0412 26.9037 35.731 24.6035 32.9386 24.6035C30.1362 24.6035 27.8359 26.9138 27.8359 29.7062C27.8359 32.5187 30.1362 34.8089 32.9386 34.8089Z" fill="white"/>
<path d="M32.3258 32.4586C32.1551 32.4586 31.9542 32.3883 31.8236 32.2476L30.1261 30.3793C30.0056 30.2488 29.9553 30.0679 29.9553 29.9274C29.9553 29.5657 30.2366 29.2945 30.5882 29.2945C30.7991 29.2945 30.9598 29.395 31.0603 29.5055L32.2958 30.8414L34.7467 27.4463C34.8672 27.2856 35.048 27.165 35.279 27.165C35.6105 27.165 35.9118 27.4362 35.9118 27.7878C35.9118 27.8983 35.8616 28.0389 35.7712 28.1695L32.8582 32.2175C32.7477 32.3682 32.5469 32.4586 32.3258 32.4586Z" fill="#0E0E0E"/>
</g>
<defs>
<clipPath id="clip0_2339_49967">
<rect width="25.6942" height="25.0413" fill="white" transform="translate(13.7144 11.1426)"/>
</clipPath>
</defs>
</svg>
