<svg width="48" height="48" viewBox="0 0 48 48" fill="none" xmlns="http://www.w3.org/2000/svg">
<rect width="48" height="48" rx="12" fill="#242424"/>
<path d="M12 21.8545C12 20.4961 12.2552 19.2242 12.7656 18.0387C13.2761 16.8449 13.9841 15.7953 14.8897 14.8897C15.7953 13.9841 16.8408 13.2761 18.0263 12.7656C19.2201 12.2552 20.4961 12 21.8545 12C23.2129 12 24.4849 12.2552 25.6704 12.7656C26.8641 13.2761 27.9138 13.9841 28.8194 14.8897C29.725 15.7953 30.433 16.8449 30.9434 18.0387C31.4538 19.2242 31.709 20.4961 31.709 21.8545C31.709 22.9824 31.5279 24.0527 31.1657 25.0653C30.8117 26.0779 30.3177 26.9958 29.6838 27.8191L35.7225 33.8948C35.8542 34.0265 35.953 34.1789 36.0189 34.3517C36.093 34.5246 36.13 34.7099 36.13 34.9074C36.13 35.1791 36.0683 35.4261 35.9448 35.6484C35.8295 35.8707 35.6649 36.0436 35.4508 36.167C35.2368 36.2988 34.9898 36.3646 34.7099 36.3646C34.5123 36.3646 34.3229 36.3276 34.1418 36.2535C33.9689 36.1876 33.8084 36.0847 33.6602 35.9448L27.5845 29.8567C26.7777 30.433 25.8885 30.8858 24.9171 31.2151C23.9456 31.5444 22.9248 31.709 21.8545 31.709C20.4961 31.709 19.2201 31.4538 18.0263 30.9434C16.8408 30.433 15.7953 29.725 14.8897 28.8194C13.9841 27.9138 13.2761 26.8682 12.7656 25.6827C12.2552 24.489 12 23.2129 12 21.8545ZM14.1117 21.8545C14.1117 22.9248 14.3093 23.9292 14.7044 24.8677C15.1078 25.798 15.6635 26.6171 16.3716 27.3251C17.0878 28.0332 17.9111 28.5889 18.8414 28.9923C19.7799 29.3957 20.7843 29.5974 21.8545 29.5974C22.9248 29.5974 23.925 29.3957 24.8553 28.9923C25.7939 28.5889 26.6171 28.0332 27.3251 27.3251C28.0332 26.6171 28.5889 25.798 28.9923 24.8677C29.3957 23.9292 29.5974 22.9248 29.5974 21.8545C29.5974 20.7843 29.3957 19.784 28.9923 18.8537C28.5889 17.9152 28.0332 17.0919 27.3251 16.3839C26.6171 15.6677 25.7939 15.112 24.8553 14.7168C23.925 14.3134 22.9248 14.1117 21.8545 14.1117C20.7843 14.1117 19.7799 14.3134 18.8414 14.7168C17.9111 15.112 17.0878 15.6677 16.3716 16.3839C15.6635 17.0919 15.1078 17.9152 14.7044 18.8537C14.3093 19.784 14.1117 20.7843 14.1117 21.8545ZM21.8792 27.0411C21.764 27.0411 21.6693 27.0082 21.5952 26.9423C21.5211 26.8682 21.4758 26.7777 21.4594 26.6706C21.3359 25.8391 21.1959 25.1558 21.0395 24.6207C20.8913 24.0773 20.669 23.6492 20.3726 23.3364C20.0845 23.0236 19.677 22.7889 19.1501 22.6325C18.6232 22.4679 17.9275 22.3403 17.0631 22.2497C16.8079 22.2085 16.6803 22.0768 16.6803 21.8545C16.6803 21.624 16.8079 21.4841 17.0631 21.4347C17.7546 21.3441 18.3309 21.2412 18.792 21.1259C19.253 21.0024 19.6276 20.846 19.9157 20.6567C20.2121 20.4591 20.4509 20.208 20.632 19.9034C20.8131 19.5905 20.9613 19.2036 21.0765 18.7426C21.2 18.2733 21.3276 17.7011 21.4594 17.0261C21.517 16.7873 21.6569 16.6679 21.8792 16.6679C22.1015 16.6679 22.2332 16.7914 22.2744 17.0384C22.3732 17.697 22.4802 18.2568 22.5955 18.7179C22.7107 19.1789 22.8589 19.5658 23.04 19.8787C23.2294 20.1833 23.4722 20.4344 23.7686 20.632C24.0732 20.8296 24.4602 20.9901 24.9294 21.1136C25.4069 21.2371 25.9914 21.3441 26.683 21.4347C26.93 21.4841 27.0535 21.624 27.0535 21.8545C27.0535 22.085 26.93 22.2168 26.683 22.2497C25.9832 22.3485 25.4028 22.4596 24.9418 22.5831C24.4807 22.6984 24.102 22.8548 23.8057 23.0524C23.5175 23.25 23.2829 23.5052 23.1018 23.818C22.9207 24.1226 22.7684 24.5096 22.6449 24.9788C22.5214 25.4481 22.3979 26.0161 22.2744 26.683C22.2168 26.9217 22.085 27.0411 21.8792 27.0411Z" fill="white"/>
</svg>
