<svg width="48" height="48" viewBox="0 0 48 48" fill="none" xmlns="http://www.w3.org/2000/svg">
<rect width="48" height="48" rx="12" fill="#242424"/>
<path d="M25.0099 29.8514L22.8761 30.6678C22.7586 30.7111 22.6535 30.6832 22.5607 30.5843C22.4741 30.4915 22.4555 30.3895 22.505 30.2781L23.3864 28.2186L33.2575 18.3567L34.881 19.9896L25.0099 29.8514ZM35.6974 19.1917L34.046 17.5589L34.9923 16.6312C35.2273 16.4023 35.4655 16.2786 35.7067 16.2601C35.9541 16.2415 36.1829 16.3374 36.3932 16.5477L36.7086 16.8631C36.9251 17.0796 37.0241 17.3084 37.0055 17.5496C36.9931 17.7908 36.8694 18.032 36.6344 18.2733L35.6974 19.1917ZM11.8546 30.4637C11.6505 29.7833 11.5979 29.1649 11.6969 28.6082C11.8021 28.0454 12.0154 27.5351 12.337 27.0775C12.6587 26.6136 13.0514 26.193 13.5153 25.8157C13.9791 25.4323 14.4739 25.0828 14.9996 24.7674C15.5254 24.4458 16.0387 24.1458 16.5397 23.8675C17.3932 23.3913 18.0488 22.9954 18.5065 22.68C18.9642 22.3646 19.2672 22.0862 19.4157 21.845C19.5641 21.5976 19.5981 21.3441 19.5177 21.0843C19.4559 20.874 19.261 20.7317 18.9332 20.6575C18.6054 20.5771 18.191 20.5555 17.6901 20.5926C17.1953 20.6235 16.6572 20.7101 16.0758 20.8524C15.5006 20.9946 14.9254 21.1832 14.3502 21.4183C13.775 21.6533 13.2493 21.9285 12.7731 22.244C12.6123 22.3553 12.4576 22.3924 12.3092 22.3553C12.167 22.312 12.0525 22.2285 11.9659 22.1048C11.8855 21.9811 11.8546 21.845 11.8732 21.6966C11.8917 21.5482 11.9845 21.4214 12.1515 21.3162C12.8071 20.8771 13.4967 20.5153 14.2203 20.2308C14.9502 19.9401 15.6645 19.7329 16.3634 19.6092C17.0685 19.4793 17.7179 19.436 18.3117 19.4793C18.9116 19.5164 19.4126 19.6432 19.8146 19.8597C20.2166 20.07 20.4795 20.373 20.6032 20.7689C20.7701 21.3441 20.7299 21.8574 20.4826 22.3089C20.2413 22.7604 19.8641 23.1748 19.3507 23.5521C18.8374 23.9293 18.2591 24.2942 17.6159 24.6468C16.9788 24.9931 16.3418 25.3488 15.7047 25.7137C15.0739 26.0724 14.511 26.4651 14.0162 26.8919C13.5215 27.3125 13.1658 27.7887 12.9493 28.3206C12.7329 28.8463 12.7298 29.4525 12.9401 30.139C13.0823 30.6152 13.3916 30.9863 13.8678 31.2523C14.344 31.5182 14.9378 31.6697 15.6491 31.7068C16.3665 31.7501 17.1582 31.6759 18.0241 31.4842C18.8961 31.2925 19.7991 30.9801 20.733 30.5472L21.2155 31.5677C20.1084 32.081 19.0384 32.4367 18.0055 32.6346C16.9726 32.8387 16.0294 32.8913 15.1759 32.7923C14.3286 32.6995 13.6142 32.4583 13.0328 32.0687C12.4515 31.679 12.0587 31.144 11.8546 30.4637Z" fill="white"/>
</svg>
