<svg width="48" height="48" viewBox="0 0 48 48" fill="none" xmlns="http://www.w3.org/2000/svg">
<rect width="48" height="48" rx="12" fill="#242424"/>
<path d="M23.965 35.93C22.3306 35.93 20.79 35.6172 19.3432 34.9916C17.9043 34.3659 16.6335 33.5018 15.5308 32.3992C14.4282 31.2965 13.5641 30.0257 12.9384 28.5868C12.3128 27.14 12 25.5994 12 23.965C12 22.3306 12.3128 20.7939 12.9384 19.355C13.5641 17.9082 14.4243 16.6335 15.5191 15.5308C16.6218 14.4282 17.8926 13.5641 19.3315 12.9384C20.7782 12.3128 22.3188 12 23.9533 12C25.5877 12 27.1283 12.3128 28.575 12.9384C30.0218 13.5641 31.2965 14.4282 32.3992 15.5308C33.5018 16.6335 34.3659 17.9082 34.9916 19.355C35.6172 20.7939 35.93 22.3306 35.93 23.965C35.93 25.5994 35.6172 27.14 34.9916 28.5868C34.3659 30.0257 33.5018 31.2965 32.3992 32.3992C31.2965 33.5018 30.0218 34.3659 28.575 34.9916C27.1361 35.6172 25.5994 35.93 23.965 35.93ZM23.965 33.9358C25.3492 33.9358 26.6434 33.6778 27.8478 33.1616C29.0599 32.6455 30.1195 31.9338 31.0267 31.0267C31.9417 30.1117 32.6533 29.0521 33.1616 27.8478C33.6778 26.6434 33.9358 25.3492 33.9358 23.965C33.9358 22.5808 33.6778 21.2866 33.1616 20.0822C32.6455 18.8779 31.9299 17.8183 31.015 16.9033C30.1 15.9883 29.0403 15.2767 27.836 14.7684C26.6317 14.2522 25.3375 13.9942 23.9533 13.9942C22.5691 13.9942 21.2748 14.2522 20.0705 14.7684C18.8662 15.2767 17.8105 15.9883 16.9033 16.9033C15.9962 17.8183 15.2845 18.8779 14.7684 20.0822C14.2601 21.2866 14.0059 22.5808 14.0059 23.965C14.0059 25.3492 14.2601 26.6434 14.7684 27.8478C15.2845 29.0521 15.9962 30.1117 16.9033 31.0267C17.8183 31.9338 18.8779 32.6455 20.0822 33.1616C21.2866 33.6778 22.5808 33.9358 23.965 33.9358ZM23.965 31.4021C22.9484 31.4021 21.9904 31.2066 21.0911 30.8155C20.1995 30.4245 19.4097 29.8888 18.7215 29.2085C18.0412 28.5203 17.5055 27.7305 17.1145 26.8389C16.7234 25.9396 16.5279 24.9816 16.5279 23.965C16.5279 22.9484 16.7195 21.9904 17.1027 21.0911C17.4937 20.1917 18.0294 19.4019 18.7098 18.7215C19.398 18.0333 20.1917 17.4937 21.0911 17.1027C21.9904 16.7117 22.9484 16.5162 23.965 16.5162C24.9816 16.5162 25.9357 16.7117 26.8272 17.1027C27.7265 17.4937 28.5164 18.0333 29.1968 18.7215C29.8849 19.4019 30.4245 20.1917 30.8155 21.0911C31.2066 21.9904 31.4021 22.9484 31.4021 23.965C31.4021 24.9816 31.2066 25.9396 30.8155 26.8389C30.4324 27.7305 29.8967 28.5203 29.2085 29.2085C28.5281 29.8888 27.7383 30.4245 26.8389 30.8155C25.9396 31.2066 24.9816 31.4021 23.965 31.4021ZM23.965 29.5135C24.7236 29.5135 25.4352 29.3688 26.0999 29.0795C26.7725 28.7901 27.3629 28.3913 27.8712 27.883C28.3874 27.3668 28.7901 26.7764 29.0795 26.1117C29.3688 25.4391 29.5135 24.7236 29.5135 23.965C29.5135 23.2064 29.3649 22.4948 29.0677 21.8301C28.7784 21.1575 28.3756 20.5671 27.8595 20.0588C27.3512 19.5426 26.7607 19.1399 26.0882 18.8505C25.4235 18.5534 24.7157 18.4048 23.965 18.4048C23.2064 18.4048 22.4909 18.5495 21.8183 18.8388C21.1536 19.1282 20.5632 19.5309 20.047 20.047C19.5387 20.5554 19.1399 21.1458 18.8505 21.8183C18.5612 22.4909 18.4165 23.2064 18.4165 23.965C18.4165 24.7157 18.5612 25.4274 18.8505 26.0999C19.1477 26.7647 19.5505 27.3551 20.0588 27.8712C20.5749 28.3795 21.1653 28.7823 21.8301 29.0795C22.5026 29.3688 23.2143 29.5135 23.965 29.5135ZM23.9767 27.0032C23.4215 27.0032 22.9093 26.8663 22.44 26.5926C21.9787 26.3189 21.6111 25.9513 21.3374 25.49C21.0637 25.0286 20.9268 24.5163 20.9268 23.9533C20.9268 23.398 21.0637 22.8936 21.3374 22.44C21.6111 21.9787 21.9787 21.6111 22.44 21.3374C22.9014 21.0637 23.4137 20.9268 23.9767 20.9268C24.532 20.9268 25.0403 21.0637 25.5017 21.3374C25.9631 21.6111 26.3306 21.9787 26.6043 22.44C26.878 22.8936 27.0149 23.398 27.0149 23.9533C27.0149 24.5163 26.878 25.0286 26.6043 25.49C26.3306 25.9513 25.9631 26.3189 25.5017 26.5926C25.0403 26.8663 24.532 27.0032 23.9767 27.0032Z" fill="white"/>
</svg>
