<svg width="48" height="48" viewBox="0 0 48 48" fill="none" xmlns="http://www.w3.org/2000/svg">
<rect width="48" height="48" rx="12" fill="#242424"/>
<g clip-path="url(#clip0_2339_50188)">
<path d="M16.2439 32.3877H27.0318C29.0508 32.3877 30.2562 31.2225 30.2562 29.2035V19.2493C30.2562 17.2404 29.1512 16.0752 27.1322 16.0752H16.2439C14.3153 16.0752 13.0195 17.2404 13.0195 19.2493V29.2035C13.0195 31.2225 14.2249 32.3877 16.2439 32.3877ZM31.6222 27.1946L35.2784 30.3587C35.62 30.66 36.0217 30.8509 36.3834 30.8509C37.1669 30.8509 37.6791 30.2783 37.6791 29.4547V19.0082C37.6791 18.1846 37.1669 17.612 36.3834 17.612C36.0217 17.612 35.62 17.8029 35.2784 18.1042L31.6222 21.2582V27.1946Z" fill="white"/>
<path d="M13.762 37.3297C14.5656 37.3297 15.2486 36.8877 15.5901 36.2549C15.7609 36.2951 15.9216 36.3252 16.1024 36.3252C17.1872 36.3252 18.1013 35.5618 18.272 34.5373L18.2821 34.3866C18.3323 34.4167 18.4026 34.4368 18.473 34.4368C19.6984 34.4368 20.6627 33.4625 20.6627 32.237V29.6556C20.6627 28.4502 19.6984 27.4658 18.473 27.4658C18.4026 27.4658 18.3323 27.4859 18.2821 27.5161L18.272 27.3654C18.1013 26.3509 17.1872 25.5774 16.1024 25.5774C15.9216 25.5774 15.7609 25.6076 15.5901 25.6578C15.2486 25.025 14.5656 24.583 13.762 24.583C12.7475 24.583 11.9138 25.2861 11.6526 26.2102L11.6426 26.3609C11.5723 26.3308 11.4919 26.3107 11.4015 26.3107C10.4171 26.3107 9.50307 26.9636 9.31223 27.8978L9.30218 28.0484C9.22182 28.0183 9.13142 27.9982 9.04102 27.9982C7.83566 27.9982 6.86133 28.9725 6.86133 30.188V31.7147C6.86133 32.92 7.83566 33.9044 9.04102 33.9044C9.13142 33.9044 9.21178 33.8843 9.29213 33.8542L9.30218 33.9949C9.56333 34.919 10.4071 35.5919 11.4015 35.5919C11.4819 35.5919 11.5723 35.5718 11.6325 35.5417L11.6426 35.7024C11.9037 36.6266 12.7274 37.3297 13.762 37.3297Z" fill="#242424"/>
<path d="M18.4727 32.8002C18.7941 32.8002 19.0352 32.5692 19.0352 32.2377V29.6563C19.0352 29.3449 18.7941 29.0938 18.4727 29.0938C18.1513 29.0938 17.9102 29.3549 17.9102 29.6563V32.2377C17.9102 32.5592 18.1513 32.8002 18.4727 32.8002Z" fill="white"/>
<path d="M16.1032 34.6984C16.4348 34.6984 16.6858 34.4472 16.6858 34.1358V27.7675C16.6858 27.4561 16.4348 27.2051 16.1032 27.2051C15.8019 27.2051 15.5508 27.4561 15.5508 27.7675V34.1358C15.5508 34.4472 15.8019 34.6984 16.1032 34.6984Z" fill="white"/>
<path d="M13.7617 35.7031C14.0731 35.7031 14.3242 35.4521 14.3242 35.1407V26.7835C14.3242 26.4621 14.0731 26.2109 13.7617 26.2109C13.4403 26.2109 13.1992 26.4621 13.1992 26.7835V35.1407C13.1992 35.4621 13.4302 35.7031 13.7617 35.7031Z" fill="white"/>
<path d="M11.4024 33.9652C11.7238 33.9652 11.9749 33.7141 11.9749 33.3926V28.511C11.9749 28.1895 11.7238 27.9385 11.4024 27.9385C11.091 27.9385 10.8398 28.1895 10.8398 28.511V33.3926C10.8398 33.7141 11.091 33.9652 11.4024 33.9652Z" fill="white"/>
<path d="M9.04074 32.2777C9.37221 32.2777 9.61328 32.0267 9.61328 31.7153V30.1885C9.61328 29.8771 9.37221 29.626 9.04074 29.626C8.72935 29.626 8.48828 29.8771 8.48828 30.1885V31.7153C8.48828 32.0267 8.72935 32.2777 9.04074 32.2777Z" fill="white"/>
</g>
<defs>
<clipPath id="clip0_2339_50188">
<rect width="30.8169" height="26.1864" fill="white" transform="translate(6.85742 11.1426)"/>
</clipPath>
</defs>
</svg>
