<svg width="48" height="48" viewBox="0 0 48 48" fill="none" xmlns="http://www.w3.org/2000/svg">
<rect width="48" height="48" rx="12" fill="#0E0E0E"/>
<path d="M13.7367 23.5371C13.1578 23.5371 12.7236 23.3895 12.4342 23.0942C12.1447 22.799 12 22.3533 12 21.757V17.7714C12 17.1751 12.1447 16.7323 12.4342 16.4428C12.7236 16.1476 13.1578 16 13.7367 16H22.0465C22.6254 16 23.0596 16.1476 23.349 16.4428C23.6385 16.7323 23.7832 17.1751 23.7832 17.7714V21.757C23.7832 22.3533 23.6385 22.799 23.349 23.0942C23.0596 23.3895 22.6254 23.5371 22.0465 23.5371H13.7367ZM15.838 31.7688C15.2591 31.7688 14.8221 31.6212 14.5268 31.326C14.2374 31.0365 14.0927 30.5937 14.0927 29.9974V27.1233C14.0927 26.5212 14.2374 26.0755 14.5268 25.786C14.8221 25.4908 15.2591 25.3432 15.838 25.3432H23.1059C23.6906 25.3432 24.1276 25.4908 24.4171 25.786C24.7065 26.0755 24.8512 26.5212 24.8512 27.1233V29.9974C24.8512 30.5937 24.7065 31.0365 24.4171 31.326C24.1276 31.6212 23.6906 31.7688 23.1059 31.7688H15.838ZM28.2985 30.6313C27.7138 30.6313 27.2768 30.4837 26.9873 30.1884C26.6979 29.8932 26.5531 29.4475 26.5531 28.8512V19.0131C26.5531 18.4168 26.6979 17.9711 26.9873 17.6759C27.2768 17.3806 27.7138 17.233 28.2985 17.233H34.3247C34.9035 17.233 35.3377 17.3806 35.6272 17.6759C35.9224 17.9711 36.07 18.4168 36.07 19.0131V28.8512C36.07 29.4475 35.9224 29.8932 35.6272 30.1884C35.3377 30.4837 34.9035 30.6313 34.3247 30.6313H28.2985Z" fill="white"/>
</svg>
