<svg width="48" height="48" viewBox="0 0 48 48" fill="none" xmlns="http://www.w3.org/2000/svg">
<rect width="48" height="48" rx="12" fill="#0E0E0E"/>
<g clip-path="url(#clip0_2339_50024)">
<path d="M16.8669 32.9199H30.5879C32.6872 32.9199 33.7319 31.8753 33.7319 29.8061V17.5416C33.7319 15.4724 32.6872 14.4277 30.5879 14.4277H16.8669C14.7676 14.4277 13.7129 15.4623 13.7129 17.5416V29.8061C13.7129 31.8853 14.7676 32.9199 16.8669 32.9199ZM16.7162 31.3027C15.8223 31.3027 15.3301 30.8307 15.3301 29.8965V20.4244C15.3301 19.5003 15.8223 19.0181 16.7162 19.0181H30.7184C31.6124 19.0181 32.1147 19.5003 32.1147 20.4244V29.8965C32.1147 30.8307 31.6124 31.3027 30.7184 31.3027H16.7162Z" fill="white"/>
<path d="M21.7688 22.6248H22.3614C22.713 22.6248 22.8235 22.5244 22.8235 22.1729V21.5803C22.8235 21.2287 22.713 21.1182 22.3614 21.1182H21.7688C21.4173 21.1182 21.2967 21.2287 21.2967 21.5803V22.1729C21.2967 22.5244 21.4173 22.6248 21.7688 22.6248ZM25.1037 22.6248H25.6963C26.0478 22.6248 26.1683 22.5244 26.1683 22.1729V21.5803C26.1683 21.2287 26.0478 21.1182 25.6963 21.1182H25.1037C24.7521 21.1182 24.6316 21.2287 24.6316 21.5803V22.1729C24.6316 22.5244 24.7521 22.6248 25.1037 22.6248ZM28.4385 22.6248H29.0311C29.3826 22.6248 29.5032 22.5244 29.5032 22.1729V21.5803C29.5032 21.2287 29.3826 21.1182 29.0311 21.1182H28.4385C28.0869 21.1182 27.9764 21.2287 27.9764 21.5803V22.1729C27.9764 22.5244 28.0869 22.6248 28.4385 22.6248ZM18.434 25.9095H19.0166C19.3782 25.9095 19.4887 25.809 19.4887 25.4574V24.8648C19.4887 24.5133 19.3782 24.4129 19.0166 24.4129H18.434C18.0724 24.4129 17.9619 24.5133 17.9619 24.8648V25.4574C17.9619 25.809 18.0724 25.9095 18.434 25.9095ZM21.7688 25.9095H22.3614C22.713 25.9095 22.8235 25.809 22.8235 25.4574V24.8648C22.8235 24.5133 22.713 24.4129 22.3614 24.4129H21.7688C21.4173 24.4129 21.2967 24.5133 21.2967 24.8648V25.4574C21.2967 25.809 21.4173 25.9095 21.7688 25.9095ZM25.1037 25.9095H25.6963C26.0478 25.9095 26.1683 25.809 26.1683 25.4574V24.8648C26.1683 24.5133 26.0478 24.4129 25.6963 24.4129H25.1037C24.7521 24.4129 24.6316 24.5133 24.6316 24.8648V25.4574C24.6316 25.809 24.7521 25.9095 25.1037 25.9095ZM18.434 29.2041H19.0166C19.3782 29.2041 19.4887 29.0936 19.4887 28.742V28.1494C19.4887 27.7979 19.3782 27.6974 19.0166 27.6974H18.434C18.0724 27.6974 17.9619 27.7979 17.9619 28.1494V28.742C17.9619 29.0936 18.0724 29.2041 18.434 29.2041ZM21.7688 29.2041H22.3614C22.713 29.2041 22.8235 29.0936 22.8235 28.742V28.1494C22.8235 27.7979 22.713 27.6974 22.3614 27.6974H21.7688C21.4173 27.6974 21.2967 27.7979 21.2967 28.1494V28.742C21.2967 29.0936 21.4173 29.2041 21.7688 29.2041ZM25.1037 29.2041H25.6963C26.0478 29.2041 26.1683 29.0936 26.1683 28.742V28.1494C26.1683 27.7979 26.0478 27.6974 25.6963 27.6974H25.1037C24.7521 27.6974 24.6316 27.7979 24.6316 28.1494V28.742C24.6316 29.0936 24.7521 29.2041 25.1037 29.2041Z" fill="white"/>
<path d="M32.9388 36.1851C36.4644 36.1851 39.4075 33.242 39.4075 29.7063C39.4075 26.1505 36.4945 23.2275 32.9388 23.2275C29.3829 23.2275 26.46 26.1605 26.46 29.7063C26.46 33.2721 29.3729 36.1851 32.9388 36.1851Z" fill="#0E0E0E"/>
<path d="M32.9386 34.8089C35.7008 34.8089 38.0412 32.4987 38.0412 29.7062C38.0412 26.9037 35.731 24.6035 32.9386 24.6035C30.1362 24.6035 27.8359 26.9138 27.8359 29.7062C27.8359 32.5187 30.1362 34.8089 32.9386 34.8089Z" fill="white"/>
<path d="M32.3256 32.4586C32.1548 32.4586 31.9539 32.3883 31.8234 32.2476L30.1258 30.3793C30.0053 30.2488 29.9551 30.0679 29.9551 29.9274C29.9551 29.5657 30.2363 29.2945 30.5879 29.2945C30.7988 29.2945 30.9596 29.395 31.06 29.5055L32.2955 30.8414L34.7464 27.4463C34.8669 27.2856 35.0477 27.165 35.2788 27.165C35.6102 27.165 35.9115 27.4362 35.9115 27.7878C35.9115 27.8983 35.8613 28.0389 35.771 28.1695L32.858 32.2175C32.7475 32.3682 32.5466 32.4586 32.3256 32.4586Z" fill="#0E0E0E"/>
</g>
<defs>
<clipPath id="clip0_2339_50024">
<rect width="25.6942" height="25.0413" fill="white" transform="translate(13.7139 11.1426)"/>
</clipPath>
</defs>
</svg>
