<svg width="48" height="48" viewBox="0 0 48 48" fill="none" xmlns="http://www.w3.org/2000/svg">
<rect width="48" height="48" rx="12" fill="#242424"/>
<path d="M22.5436 33.6068C21.1936 33.6068 19.921 33.3484 18.7259 32.8317C17.5373 32.3149 16.4876 31.6011 15.5768 30.6902C14.6659 29.7794 13.9521 28.7297 13.4353 27.5411C12.9185 26.346 12.6602 25.0734 12.6602 23.7233C12.6602 22.3732 12.9153 21.1039 13.4256 19.9153C13.9424 18.7202 14.6562 17.6673 15.5671 16.7564C16.4779 15.8456 17.5276 15.1318 18.7162 14.615C19.9113 14.0982 21.1839 13.8398 22.534 13.8398C23.7936 13.8398 24.9855 14.0659 26.1095 14.5181C27.2335 14.9703 28.2412 15.6001 29.1326 16.4076C30.0241 17.2151 30.7508 18.1518 31.3128 19.2176C31.8748 20.2835 32.2237 21.4333 32.3593 22.6672C31.9782 22.5832 31.5777 22.5412 31.1578 22.5412C30.2986 22.5412 29.4912 22.7059 28.7354 23.0354C27.986 23.3584 27.3239 23.8073 26.749 24.3822C26.1741 24.9572 25.7219 25.6225 25.3924 26.3783C25.0694 27.1277 24.9079 27.9319 24.9079 28.791C24.9079 29.5533 25.0404 30.2736 25.3052 30.9519C25.5701 31.6366 25.935 32.2535 26.4001 32.8026C25.8058 33.061 25.1857 33.258 24.5397 33.3937C23.8937 33.5358 23.2284 33.6068 22.5436 33.6068ZM17.4662 24.7698H22.534C22.7213 24.7698 22.8796 24.7052 23.0088 24.576C23.1444 24.4468 23.2122 24.2853 23.2122 24.0915V17.5607C23.2122 17.3734 23.1444 17.2151 23.0088 17.0859C22.8796 16.9567 22.7213 16.8921 22.534 16.8921C22.3466 16.8921 22.1884 16.9567 22.0592 17.0859C21.93 17.2151 21.8654 17.3734 21.8654 17.5607V23.423H17.4662C17.2789 23.423 17.1206 23.4876 16.9915 23.6167C16.8623 23.7459 16.7977 23.9042 16.7977 24.0915C16.7977 24.2853 16.8623 24.4468 16.9915 24.576C17.1206 24.7052 17.2789 24.7698 17.4662 24.7698ZM31.1578 33.7134C30.486 33.7134 29.8529 33.5842 29.2586 33.3258C28.6643 33.0739 28.1411 32.7218 27.6889 32.2697C27.2367 31.8175 26.8814 31.2942 26.623 30.6999C26.3646 30.1056 26.2354 29.4693 26.2354 28.791C26.2354 28.1128 26.3646 27.4797 26.623 26.8919C26.8814 26.2976 27.2367 25.7743 27.6889 25.3221C28.1411 24.8635 28.6643 24.5082 29.2586 24.2563C29.8529 23.9979 30.486 23.8687 31.1578 23.8687C31.8361 23.8687 32.4724 23.9979 33.0667 24.2563C33.661 24.5082 34.1842 24.8603 34.6364 25.3124C35.0886 25.7646 35.4406 26.2879 35.6926 26.8822C35.951 27.4765 36.0802 28.1128 36.0802 28.791C36.0802 29.4629 35.951 30.0959 35.6926 30.6902C35.4342 31.2845 35.0757 31.8078 34.617 32.26C34.1648 32.7121 33.6416 33.0674 33.0473 33.3258C32.453 33.5842 31.8231 33.7134 31.1578 33.7134ZM30.5764 31.446C30.8025 31.446 30.9705 31.3685 31.0803 31.2135L33.9 27.3085C33.9452 27.2439 33.9775 27.1793 33.9969 27.1147C34.0227 27.0501 34.0356 26.992 34.0356 26.9403C34.0356 26.7659 33.9743 26.6238 33.8515 26.514C33.7288 26.3977 33.5867 26.3396 33.4252 26.3396C33.212 26.3396 33.0408 26.43 32.9116 26.6109L30.5473 29.886L29.3555 28.5973C29.3038 28.5391 29.2392 28.4907 29.1617 28.4519C29.0842 28.4132 28.9938 28.3938 28.8904 28.3938C28.7224 28.3938 28.5803 28.4519 28.4641 28.5682C28.3478 28.6845 28.2896 28.8298 28.2896 29.0042C28.2896 29.0688 28.3026 29.1431 28.3284 29.2271C28.3542 29.3046 28.393 29.3757 28.4447 29.4403L30.0919 31.2329C30.1501 31.3039 30.2243 31.3556 30.3148 31.3879C30.4052 31.4266 30.4924 31.446 30.5764 31.446Z" fill="white"/>
</svg>
