<svg width="656" height="314" viewBox="0 0 656 314" fill="none" xmlns="http://www.w3.org/2000/svg">
<mask id="mask0_127_1060" style="mask-type:alpha" maskUnits="userSpaceOnUse" x="0" y="0" width="656" height="314">
<rect width="656" height="314" rx="18" fill="#111111"/>
</mask>
<g mask="url(#mask0_127_1060)">
<rect x="258" y="111" width="139.889" height="91" rx="45.5" fill="#CDFE00"/>
<path d="M301.137 142.579H312.436C314.23 142.579 315.798 142.92 317.137 143.603C318.502 144.285 319.551 145.259 320.284 146.523C321.043 147.761 321.422 149.227 321.422 150.921C321.422 152.614 321.043 154.093 320.284 155.357C319.551 156.596 318.502 157.556 317.137 158.239C315.798 158.921 314.23 159.263 312.436 159.263H305.914V169.5H301.137V142.579ZM311.905 155.433C313.371 155.433 314.534 155.041 315.393 154.258C316.278 153.474 316.72 152.362 316.72 150.921C316.72 149.48 316.278 148.368 315.393 147.584C314.534 146.801 313.371 146.409 311.905 146.409H305.876V155.433H311.905ZM324.827 150.352H328.884V153.765C329.845 151.313 331.589 150.087 334.117 150.087C334.547 150.087 334.888 150.112 335.141 150.162V154.22C334.964 154.194 334.597 154.182 334.041 154.182C332.474 154.182 331.273 154.687 330.439 155.698C329.63 156.684 329.226 158.074 329.226 159.869V169.5H324.827V150.352ZM346.214 170.069C344.343 170.069 342.687 169.652 341.246 168.818C339.806 167.958 338.681 166.757 337.872 165.215C337.088 163.673 336.696 161.904 336.696 159.907C336.696 157.91 337.088 156.141 337.872 154.599C338.681 153.057 339.806 151.869 341.246 151.035C342.687 150.175 344.343 149.745 346.214 149.745C348.059 149.745 349.702 150.175 351.143 151.035C352.609 151.869 353.746 153.057 354.555 154.599C355.364 156.141 355.769 157.91 355.769 159.907C355.769 161.904 355.364 163.673 354.555 165.215C353.746 166.757 352.609 167.958 351.143 168.818C349.702 169.652 348.059 170.069 346.214 170.069ZM346.214 166.618C347.781 166.618 349.019 166.012 349.929 164.798C350.839 163.585 351.294 161.955 351.294 159.907C351.294 157.885 350.839 156.267 349.929 155.054C349.019 153.815 347.781 153.196 346.214 153.196C344.646 153.196 343.408 153.815 342.498 155.054C341.613 156.267 341.171 157.885 341.171 159.907C341.171 161.955 341.613 163.585 342.498 164.798C343.408 166.012 344.646 166.618 346.214 166.618Z" fill="black"/>
</g>
<rect x="78.704" y="73.704" width="146.886" height="33.6947" rx="16.8474" fill="black" fill-opacity="0.12"/>
<rect x="78.704" y="73.704" width="146.886" height="33.6947" rx="16.8474" stroke="url(#paint0_radial_127_1060)" stroke-width="2.5919"/>
<path opacity="0.4" d="M97.6336 94.757C96.9643 94.757 96.3716 94.6482 95.8555 94.4305C95.3395 94.2127 94.9322 93.8983 94.6339 93.487C94.3436 93.0758 94.1823 92.5919 94.1501 92.0355H95.662C95.7184 92.5194 95.9362 92.8903 96.3152 93.1483C96.6942 93.4064 97.1457 93.5354 97.6699 93.5354C98.1859 93.5354 98.6012 93.4185 98.9157 93.1846C99.2383 92.9427 99.3995 92.6121 99.3995 92.1928C99.3995 91.9025 99.3229 91.6686 99.1697 91.4912C99.0165 91.3138 98.7907 91.1727 98.4924 91.0679C98.2021 90.955 97.7989 90.8421 97.2828 90.7292C96.5571 90.576 95.9845 90.3905 95.5652 90.1728C95.154 89.9551 94.8597 89.6971 94.6823 89.3987C94.5129 89.0923 94.4283 88.7214 94.4283 88.2859C94.4283 87.8182 94.5532 87.3909 94.8032 87.0038C95.0532 86.6167 95.408 86.3143 95.8676 86.0966C96.3273 85.8708 96.8635 85.758 97.4763 85.758C98.0166 85.758 98.5206 85.8587 98.9883 86.0603C99.456 86.2539 99.835 86.5401 100.125 86.9191C100.424 87.2901 100.589 87.7295 100.621 88.2375H99.1334C99.0931 87.8585 98.9157 87.5521 98.6012 87.3183C98.2867 87.0844 97.8956 86.9675 97.428 86.9675C96.9441 86.9675 96.5651 87.0804 96.291 87.3062C96.0249 87.532 95.8918 87.8142 95.8918 88.1529C95.8918 88.4028 95.9644 88.6125 96.1095 88.7818C96.2547 88.9431 96.4724 89.0762 96.7627 89.181C97.0611 89.2858 97.4683 89.3906 97.9843 89.4955C99.0004 89.6971 99.7342 89.9954 100.186 90.3905C100.645 90.7857 100.875 91.3461 100.875 92.0718C100.875 92.604 100.742 93.0717 100.476 93.4749C100.21 93.8781 99.8309 94.1926 99.339 94.4184C98.8472 94.6441 98.2787 94.757 97.6336 94.757ZM104.76 94.7328C104.139 94.7328 103.598 94.6038 103.139 94.3458C102.679 94.0797 102.328 93.7047 102.086 93.2209C101.845 92.7371 101.724 92.1726 101.724 91.5275C101.724 90.8905 101.84 90.326 102.074 89.8342C102.316 89.3342 102.659 88.9471 103.102 88.673C103.546 88.3907 104.07 88.2496 104.675 88.2496C105.231 88.2496 105.723 88.3746 106.151 88.6246C106.578 88.8746 106.909 89.2294 107.142 89.689C107.376 90.1406 107.493 90.6728 107.493 91.2856L107.469 91.8299H103.09C103.131 92.3782 103.288 92.8177 103.562 93.1483C103.844 93.4709 104.235 93.6322 104.735 93.6322C105.042 93.6322 105.312 93.5515 105.546 93.3902C105.78 93.229 105.949 92.983 106.054 92.6524H107.445C107.292 93.3217 106.969 93.8378 106.477 94.2006C105.985 94.5554 105.413 94.7328 104.76 94.7328ZM106.09 90.8381C106.066 90.3623 105.925 89.9874 105.667 89.7132C105.417 89.439 105.074 89.3019 104.639 89.3019C104.227 89.3019 103.889 89.439 103.623 89.7132C103.365 89.9874 103.199 90.3623 103.127 90.8381H106.09ZM110.361 94.7449C109.99 94.7449 109.647 94.6724 109.332 94.5272C109.018 94.374 108.764 94.1603 108.57 93.8862C108.385 93.6039 108.292 93.2733 108.292 92.8943C108.292 92.2008 108.595 91.6807 109.199 91.334C109.812 90.9792 110.8 90.7736 112.163 90.7171V90.4994C112.163 90.1043 112.058 89.8019 111.848 89.5922C111.639 89.3826 111.348 89.2778 110.977 89.2778C110.615 89.2778 110.328 89.3745 110.119 89.568C109.917 89.7535 109.804 89.9833 109.78 90.2575H108.437C108.478 89.8946 108.599 89.56 108.8 89.2536C109.002 88.9471 109.288 88.7012 109.659 88.5157C110.03 88.3303 110.469 88.2375 110.977 88.2375C111.776 88.2375 112.397 88.4391 112.84 88.8423C113.284 89.2455 113.505 89.7938 113.505 90.4873V94.5514H112.223V93.7773C112.054 94.0757 111.812 94.3135 111.498 94.4909C111.183 94.6603 110.804 94.7449 110.361 94.7449ZM110.675 93.6926C111.102 93.6926 111.457 93.5636 111.739 93.3056C112.022 93.0475 112.163 92.6766 112.163 92.1928V91.6485C111.276 91.6807 110.631 91.7977 110.227 91.9993C109.832 92.1928 109.635 92.471 109.635 92.8338C109.635 93.0838 109.732 93.2894 109.925 93.4507C110.119 93.612 110.369 93.6926 110.675 93.6926ZM114.865 88.4432H116.16V89.5318C116.466 88.7496 117.022 88.3585 117.829 88.3585C117.966 88.3585 118.075 88.3666 118.155 88.3827V89.6769C118.099 89.6688 117.982 89.6648 117.805 89.6648C117.305 89.6648 116.922 89.8261 116.656 90.1486C116.397 90.4631 116.268 90.9066 116.268 91.4791V94.5514H114.865V88.4432ZM121.567 94.7328C120.978 94.7328 120.458 94.6038 120.006 94.3458C119.563 94.0797 119.216 93.7007 118.966 93.2088C118.716 92.7169 118.591 92.1444 118.591 91.4912C118.591 90.8381 118.716 90.2656 118.966 89.7737C119.216 89.2818 119.567 88.9068 120.018 88.6488C120.47 88.3827 120.986 88.2496 121.567 88.2496C121.962 88.2496 122.345 88.3262 122.716 88.4795C123.087 88.6327 123.401 88.8665 123.659 89.181C123.925 89.4874 124.095 89.8704 124.167 90.3301H122.813C122.724 90.0236 122.571 89.7858 122.353 89.6164C122.135 89.439 121.861 89.3503 121.53 89.3503C121.047 89.3503 120.672 89.556 120.406 89.9672C120.147 90.3785 120.018 90.8865 120.018 91.4912C120.018 92.1041 120.147 92.6161 120.406 93.0274C120.664 93.4306 121.03 93.6322 121.506 93.6322C121.853 93.6322 122.135 93.5394 122.353 93.354C122.579 93.1604 122.732 92.8822 122.813 92.5194H124.191C124.127 93.0193 123.962 93.4346 123.696 93.7652C123.429 94.0958 123.107 94.3418 122.728 94.503C122.357 94.6562 121.97 94.7328 121.567 94.7328ZM125.213 85.9636H126.616V89.0963C126.793 88.8302 127.027 88.6246 127.317 88.4795C127.608 88.3262 127.946 88.2496 128.333 88.2496C129.003 88.2496 129.523 88.4512 129.894 88.8544C130.265 89.2576 130.45 89.8019 130.45 90.4873V94.5514H129.047V90.8018C129.047 90.3422 128.946 89.9914 128.745 89.7495C128.543 89.5076 128.257 89.3866 127.886 89.3866C127.515 89.3866 127.209 89.5237 126.967 89.7979C126.733 90.064 126.616 90.4067 126.616 90.826V94.5514H125.213V85.9636ZM131.816 88.4432H133.219V94.5514H131.816V88.4432ZM131.791 86.0845H133.195V87.4513H131.791V86.0845ZM134.615 88.4432H135.909V89.2657C136.087 88.9512 136.333 88.7052 136.647 88.5278C136.962 88.3424 137.325 88.2496 137.736 88.2496C138.405 88.2496 138.925 88.4512 139.296 88.8544C139.667 89.2576 139.853 89.8019 139.853 90.4873V94.5514H138.449V90.8018C138.449 90.3422 138.349 89.9914 138.147 89.7495C137.945 89.5076 137.659 89.3866 137.288 89.3866C136.917 89.3866 136.611 89.5237 136.369 89.7979C136.135 90.064 136.018 90.4067 136.018 90.826V94.5514H134.615V88.4432ZM143.843 96.898C143.077 96.898 142.448 96.7205 141.956 96.3657C141.472 96.019 141.174 95.5432 141.061 94.9385H142.5C142.557 95.2126 142.694 95.4304 142.911 95.5916C143.137 95.7529 143.444 95.8335 143.831 95.8335C144.798 95.8335 145.282 95.3134 145.282 94.2732V93.5112C144.879 94.124 144.278 94.4305 143.48 94.4305C142.988 94.4305 142.545 94.3014 142.149 94.0434C141.762 93.7854 141.456 93.4225 141.23 92.9548C141.004 92.4871 140.891 91.9468 140.891 91.334C140.891 90.7292 141.004 90.193 141.23 89.7253C141.464 89.2576 141.779 88.8947 142.174 88.6367C142.569 88.3787 143.012 88.2496 143.504 88.2496C144.359 88.2496 144.976 88.5843 145.355 89.2536V88.4432H146.649V94.2248C146.649 95.0796 146.391 95.7368 145.875 96.1964C145.359 96.6641 144.681 96.898 143.843 96.898ZM143.794 93.3177C144.238 93.3177 144.605 93.1362 144.895 92.7734C145.185 92.4105 145.331 91.9307 145.331 91.334C145.331 90.7373 145.185 90.2615 144.895 89.9067C144.613 89.5519 144.25 89.3745 143.807 89.3745C143.363 89.3745 143 89.556 142.718 89.9188C142.444 90.2817 142.307 90.7534 142.307 91.334C142.307 91.9226 142.444 92.4024 142.718 92.7734C142.992 93.1362 143.351 93.3177 143.794 93.3177Z" fill="white"/>
<g clip-path="url(#clip0_127_1060)">
<g clip-path="url(#clip1_127_1060)">
<mask id="mask1_127_1060" style="mask-type:luminance" maskUnits="userSpaceOnUse" x="154" y="83" width="15" height="15">
<path d="M168.559 83.6397H154.735V97.4632H168.559V83.6397Z" fill="white"/>
</mask>
<g mask="url(#mask1_127_1060)">
<path d="M168.559 89.7828H164.516L168.017 87.7616L167.248 86.4297L163.748 88.4508L165.768 84.9504L164.436 84.1811L162.416 87.6816V83.6397H160.878V87.6819L158.857 84.1811L157.525 84.95L159.546 88.4504L156.045 86.4297L155.277 87.7612L158.777 89.7824H154.735V91.3201H158.777L155.277 93.3412L156.045 94.6731L159.546 92.6524L157.525 96.1529L158.857 96.9217L160.878 93.4209V97.4632H162.415V93.4213L164.436 96.9217L165.768 96.1529L163.747 92.6521L167.248 94.6731L168.016 93.3412L164.516 91.3204H168.558L168.559 89.7828ZM161.647 92.6427C160.488 92.6427 159.548 91.703 159.548 90.5435C159.548 89.384 160.488 88.4442 161.647 88.4442C162.806 88.4442 163.746 89.384 163.746 90.5435C163.746 91.703 162.806 92.6427 161.647 92.6427Z" fill="#625DF5"/>
</g>
</g>
</g>
<path d="M176.414 85.9636H177.938V94.5514H176.414V85.9636ZM181.908 94.7328C181.102 94.7328 180.457 94.5393 179.973 94.1523C179.489 93.7652 179.227 93.2612 179.187 92.6403H180.553C180.586 92.9629 180.731 93.2209 180.989 93.4144C181.255 93.5999 181.565 93.6926 181.92 93.6926C182.267 93.6926 182.541 93.6201 182.743 93.4749C182.952 93.3217 183.057 93.112 183.057 92.8459C183.057 92.5879 182.944 92.4024 182.718 92.2895C182.501 92.1686 182.114 92.0597 181.557 91.963C180.751 91.8178 180.186 91.6041 179.864 91.3219C179.541 91.0316 179.38 90.6446 179.38 90.1607C179.38 89.8221 179.477 89.5076 179.67 89.2173C179.864 88.9189 180.142 88.681 180.505 88.5036C180.876 88.3262 181.303 88.2375 181.787 88.2375C182.206 88.2375 182.593 88.3141 182.948 88.4674C183.311 88.6125 183.609 88.8302 183.843 89.1205C184.077 89.4108 184.21 89.7535 184.242 90.1486H182.912C182.864 89.8987 182.735 89.693 182.525 89.5318C182.323 89.3624 182.061 89.2778 181.739 89.2778C181.416 89.2778 181.166 89.3503 180.989 89.4955C180.819 89.6406 180.735 89.8261 180.735 90.0519C180.735 90.2615 180.836 90.4309 181.037 90.5599C181.239 90.6808 181.589 90.7857 182.089 90.8744C182.92 91.0115 183.517 91.2251 183.88 91.5154C184.242 91.7977 184.424 92.2049 184.424 92.7371C184.424 93.1241 184.319 93.4709 184.109 93.7773C183.908 94.0757 183.618 94.3095 183.239 94.4788C182.86 94.6482 182.416 94.7328 181.908 94.7328ZM187.814 94.7328C187.008 94.7328 186.363 94.5393 185.879 94.1523C185.395 93.7652 185.133 93.2612 185.093 92.6403H186.459C186.492 92.9629 186.637 93.2209 186.895 93.4144C187.161 93.5999 187.471 93.6926 187.826 93.6926C188.173 93.6926 188.447 93.6201 188.649 93.4749C188.858 93.3217 188.963 93.112 188.963 92.8459C188.963 92.5879 188.85 92.4024 188.624 92.2895C188.407 92.1686 188.02 92.0597 187.463 91.963C186.657 91.8178 186.092 91.6041 185.77 91.3219C185.447 91.0316 185.286 90.6446 185.286 90.1607C185.286 89.8221 185.383 89.5076 185.576 89.2173C185.77 88.9189 186.048 88.681 186.411 88.5036C186.782 88.3262 187.209 88.2375 187.693 88.2375C188.112 88.2375 188.499 88.3141 188.854 88.4674C189.217 88.6125 189.515 88.8302 189.749 89.1205C189.983 89.4108 190.116 89.7535 190.148 90.1486H188.818C188.77 89.8987 188.641 89.693 188.431 89.5318C188.229 89.3624 187.967 89.2778 187.645 89.2778C187.322 89.2778 187.072 89.3503 186.895 89.4955C186.725 89.6406 186.641 89.8261 186.641 90.0519C186.641 90.2615 186.742 90.4309 186.943 90.5599C187.145 90.6808 187.496 90.7857 187.995 90.8744C188.826 91.0115 189.423 91.2251 189.786 91.5154C190.148 91.7977 190.33 92.2049 190.33 92.7371C190.33 93.1241 190.225 93.4709 190.015 93.7773C189.814 94.0757 189.524 94.3095 189.145 94.4788C188.766 94.6482 188.322 94.7328 187.814 94.7328ZM193.455 94.7449C192.785 94.7449 192.265 94.5434 191.894 94.1402C191.523 93.737 191.338 93.1927 191.338 92.5073V88.4432H192.741V92.1928C192.741 92.6524 192.838 93.0032 193.031 93.2451C193.233 93.487 193.523 93.608 193.902 93.608C194.265 93.608 194.567 93.4749 194.809 93.2088C195.051 92.9346 195.172 92.5879 195.172 92.1686V88.4432H196.575V94.5514H195.281V93.7168C195.104 94.0313 194.858 94.2813 194.543 94.4667C194.229 94.6522 193.866 94.7449 193.455 94.7449ZM200.723 94.7328C200.102 94.7328 199.562 94.6038 199.102 94.3458C198.642 94.0797 198.292 93.7047 198.05 93.2209C197.808 92.7371 197.687 92.1726 197.687 91.5275C197.687 90.8905 197.804 90.326 198.038 89.8342C198.279 89.3342 198.622 88.9471 199.066 88.673C199.509 88.3907 200.033 88.2496 200.638 88.2496C201.194 88.2496 201.686 88.3746 202.114 88.6246C202.541 88.8746 202.872 89.2294 203.106 89.689C203.339 90.1406 203.456 90.6728 203.456 91.2856L203.432 91.8299H199.054C199.094 92.3782 199.251 92.8177 199.525 93.1483C199.807 93.4709 200.199 93.6322 200.699 93.6322C201.005 93.6322 201.275 93.5515 201.509 93.3902C201.743 93.229 201.912 92.983 202.017 92.6524H203.408C203.255 93.3217 202.932 93.8378 202.44 94.2006C201.948 94.5554 201.376 94.7328 200.723 94.7328ZM202.053 90.8381C202.029 90.3623 201.888 89.9874 201.63 89.7132C201.38 89.439 201.037 89.3019 200.602 89.3019C200.191 89.3019 199.852 89.439 199.586 89.7132C199.328 89.9874 199.162 90.3623 199.09 90.8381H202.053ZM206.879 94.7328C206.072 94.7328 205.427 94.5393 204.943 94.1523C204.46 93.7652 204.198 93.2612 204.157 92.6403H205.524C205.556 92.9629 205.701 93.2209 205.959 93.4144C206.226 93.5999 206.536 93.6926 206.891 93.6926C207.238 93.6926 207.512 93.6201 207.713 93.4749C207.923 93.3217 208.028 93.112 208.028 92.8459C208.028 92.5879 207.915 92.4024 207.689 92.2895C207.471 92.1686 207.084 92.0597 206.528 91.963C205.722 91.8178 205.157 91.6041 204.835 91.3219C204.512 91.0316 204.351 90.6446 204.351 90.1607C204.351 89.8221 204.447 89.5076 204.641 89.2173C204.835 88.9189 205.113 88.681 205.476 88.5036C205.847 88.3262 206.274 88.2375 206.758 88.2375C207.177 88.2375 207.564 88.3141 207.919 88.4674C208.282 88.6125 208.58 88.8302 208.814 89.1205C209.048 89.4108 209.181 89.7535 209.213 90.1486H207.883C207.834 89.8987 207.705 89.693 207.496 89.5318C207.294 89.3624 207.032 89.2778 206.709 89.2778C206.387 89.2778 206.137 89.3503 205.959 89.4955C205.79 89.6406 205.705 89.8261 205.705 90.0519C205.705 90.2615 205.806 90.4309 206.008 90.5599C206.209 90.6808 206.56 90.7857 207.06 90.8744C207.891 91.0115 208.487 91.2251 208.85 91.5154C209.213 91.7977 209.395 92.2049 209.395 92.7371C209.395 93.1241 209.29 93.4709 209.08 93.7773C208.878 94.0757 208.588 94.3095 208.209 94.4788C207.83 94.6482 207.387 94.7328 206.879 94.7328Z" fill="white"/>
<rect x="132.704" y="231.704" width="147.954" height="33.6947" rx="16.8474" fill="black" fill-opacity="0.12"/>
<rect x="132.704" y="231.704" width="147.954" height="33.6947" rx="16.8474" stroke="url(#paint1_radial_127_1060)" stroke-width="2.5919"/>
<path opacity="0.4" d="M148.682 243.964H154.585V245.185H150.206V247.689H154.149V248.923H150.206V252.551H148.682V243.964ZM158.134 252.733C157.513 252.733 156.972 252.604 156.513 252.346C156.053 252.08 155.702 251.705 155.46 251.221C155.218 250.737 155.098 250.173 155.098 249.528C155.098 248.891 155.214 248.326 155.448 247.834C155.69 247.334 156.033 246.947 156.476 246.673C156.92 246.391 157.444 246.25 158.049 246.25C158.605 246.25 159.097 246.375 159.525 246.625C159.952 246.875 160.282 247.229 160.516 247.689C160.75 248.141 160.867 248.673 160.867 249.286L160.843 249.83H156.464C156.505 250.378 156.662 250.818 156.936 251.148C157.218 251.471 157.609 251.632 158.109 251.632C158.416 251.632 158.686 251.552 158.92 251.39C159.154 251.229 159.323 250.983 159.428 250.652H160.819C160.666 251.322 160.343 251.838 159.851 252.201C159.359 252.555 158.787 252.733 158.134 252.733ZM159.464 248.838C159.44 248.362 159.299 247.987 159.041 247.713C158.791 247.439 158.448 247.302 158.013 247.302C157.601 247.302 157.263 247.439 156.997 247.713C156.739 247.987 156.573 248.362 156.501 248.838H159.464ZM164.182 252.612C163.504 252.612 163.029 252.463 162.754 252.164C162.48 251.858 162.343 251.402 162.343 250.798V247.447H161.4V246.443H162.343V244.52H163.746V246.443H164.847V247.447H163.746V250.785C163.746 251.003 163.795 251.168 163.891 251.281C163.988 251.386 164.17 251.439 164.436 251.439C164.589 251.439 164.726 251.427 164.847 251.402V252.551C164.67 252.592 164.448 252.612 164.182 252.612ZM168.456 252.733C167.867 252.733 167.347 252.604 166.896 252.346C166.452 252.08 166.105 251.701 165.855 251.209C165.605 250.717 165.48 250.144 165.48 249.491C165.48 248.838 165.605 248.266 165.855 247.774C166.105 247.282 166.456 246.907 166.908 246.649C167.359 246.383 167.875 246.25 168.456 246.25C168.851 246.25 169.234 246.326 169.605 246.479C169.976 246.633 170.29 246.867 170.548 247.181C170.814 247.487 170.984 247.87 171.056 248.33H169.702C169.613 248.024 169.46 247.786 169.242 247.616C169.024 247.439 168.75 247.35 168.42 247.35C167.936 247.35 167.561 247.556 167.295 247.967C167.037 248.378 166.908 248.886 166.908 249.491C166.908 250.104 167.037 250.616 167.295 251.027C167.553 251.431 167.92 251.632 168.395 251.632C168.742 251.632 169.024 251.539 169.242 251.354C169.468 251.16 169.621 250.882 169.702 250.519H171.081C171.016 251.019 170.851 251.435 170.585 251.765C170.319 252.096 169.996 252.342 169.617 252.503C169.246 252.656 168.859 252.733 168.456 252.733ZM172.102 243.964H173.505V247.096C173.682 246.83 173.916 246.625 174.207 246.479C174.497 246.326 174.835 246.25 175.223 246.25C175.892 246.25 176.412 246.451 176.783 246.854C177.154 247.258 177.339 247.802 177.339 248.487V252.551H175.936V248.802C175.936 248.342 175.835 247.991 175.634 247.749C175.432 247.508 175.146 247.387 174.775 247.387C174.404 247.387 174.098 247.524 173.856 247.798C173.622 248.064 173.505 248.407 173.505 248.826V252.551H172.102V243.964ZM178.705 246.443H180.108V252.551H178.705V246.443ZM178.681 244.085H180.084V245.451H178.681V244.085ZM181.504 246.443H182.799V247.266C182.976 246.951 183.222 246.705 183.536 246.528C183.851 246.342 184.214 246.25 184.625 246.25C185.294 246.25 185.814 246.451 186.185 246.854C186.556 247.258 186.742 247.802 186.742 248.487V252.551H185.339V248.802C185.339 248.342 185.238 247.991 185.036 247.749C184.835 247.508 184.548 247.387 184.177 247.387C183.806 247.387 183.5 247.524 183.258 247.798C183.024 248.064 182.907 248.407 182.907 248.826V252.551H181.504V246.443ZM190.732 254.898C189.966 254.898 189.337 254.721 188.845 254.366C188.361 254.019 188.063 253.543 187.95 252.938H189.389C189.446 253.213 189.583 253.43 189.801 253.592C190.026 253.753 190.333 253.834 190.72 253.834C191.688 253.834 192.171 253.313 192.171 252.273V251.511C191.768 252.124 191.167 252.43 190.369 252.43C189.877 252.43 189.434 252.301 189.039 252.043C188.652 251.785 188.345 251.423 188.119 250.955C187.894 250.487 187.781 249.947 187.781 249.334C187.781 248.729 187.894 248.193 188.119 247.725C188.353 247.258 188.668 246.895 189.063 246.637C189.458 246.379 189.901 246.25 190.393 246.25C191.248 246.25 191.865 246.584 192.244 247.254V246.443H193.538V252.225C193.538 253.08 193.28 253.737 192.764 254.196C192.248 254.664 191.571 254.898 190.732 254.898ZM190.684 251.318C191.127 251.318 191.494 251.136 191.784 250.773C192.075 250.411 192.22 249.931 192.22 249.334C192.22 248.737 192.075 248.262 191.784 247.907C191.502 247.552 191.139 247.375 190.696 247.375C190.252 247.375 189.889 247.556 189.607 247.919C189.333 248.282 189.196 248.753 189.196 249.334C189.196 249.923 189.333 250.402 189.607 250.773C189.881 251.136 190.24 251.318 190.684 251.318Z" fill="white"/>
<g clip-path="url(#clip2_127_1060)">
<path fill-rule="evenodd" clip-rule="evenodd" d="M213.003 242.995H204.359C203.68 242.995 203.124 243.55 203.124 244.23V252.873C203.124 253.552 203.68 254.108 204.359 254.108H213.003C213.682 254.108 214.238 253.552 214.238 252.873V244.23C214.238 243.55 213.682 242.995 213.003 242.995ZM211.774 246.699H205.594V245.465H211.774V246.699ZM211.774 249.169H205.594V247.933H211.774V249.17V249.169ZM209.922 251.638H205.594V250.404H209.922L209.922 251.638Z" fill="#4285F4"/>
</g>
<path d="M226.99 252.745C226.175 252.745 225.466 252.547 224.861 252.152C224.264 251.757 223.804 251.221 223.482 250.544C223.167 249.858 223.01 249.092 223.01 248.245C223.01 247.399 223.167 246.637 223.482 245.959C223.804 245.274 224.264 244.738 224.861 244.351C225.466 243.956 226.175 243.758 226.99 243.758C227.586 243.758 228.135 243.879 228.635 244.121C229.143 244.355 229.558 244.681 229.88 245.101C230.211 245.52 230.413 245.988 230.485 246.504H228.949C228.804 246.02 228.562 245.649 228.223 245.391C227.885 245.133 227.461 245.004 226.953 245.004C226.47 245.004 226.042 245.141 225.671 245.415C225.308 245.681 225.026 246.06 224.825 246.552C224.631 247.044 224.534 247.608 224.534 248.245C224.534 248.882 224.631 249.447 224.825 249.939C225.026 250.431 225.308 250.814 225.671 251.088C226.042 251.354 226.47 251.487 226.953 251.487C227.469 251.487 227.901 251.35 228.248 251.076C228.594 250.794 228.84 250.39 228.985 249.866H230.509C230.445 250.406 230.251 250.898 229.929 251.342C229.606 251.777 229.187 252.12 228.671 252.37C228.163 252.62 227.602 252.745 226.99 252.745ZM234.313 252.733C233.716 252.733 233.188 252.6 232.729 252.334C232.269 252.06 231.91 251.677 231.652 251.185C231.402 250.693 231.277 250.128 231.277 249.491C231.277 248.854 231.402 248.29 231.652 247.798C231.91 247.306 232.269 246.927 232.729 246.661C233.188 246.387 233.716 246.25 234.313 246.25C234.902 246.25 235.426 246.387 235.886 246.661C236.353 246.927 236.716 247.306 236.974 247.798C237.232 248.29 237.361 248.854 237.361 249.491C237.361 250.128 237.232 250.693 236.974 251.185C236.716 251.677 236.353 252.06 235.886 252.334C235.426 252.6 234.902 252.733 234.313 252.733ZM234.313 251.632C234.813 251.632 235.208 251.439 235.499 251.052C235.789 250.665 235.934 250.144 235.934 249.491C235.934 248.846 235.789 248.33 235.499 247.943C235.208 247.548 234.813 247.35 234.313 247.35C233.813 247.35 233.418 247.548 233.128 247.943C232.846 248.33 232.705 248.846 232.705 249.491C232.705 250.144 232.846 250.665 233.128 251.052C233.418 251.439 233.813 251.632 234.313 251.632ZM238.466 246.443H239.76V247.266C239.937 246.951 240.183 246.705 240.498 246.528C240.812 246.342 241.175 246.25 241.586 246.25C242.256 246.25 242.776 246.451 243.147 246.854C243.518 247.258 243.703 247.802 243.703 248.487V252.551H242.3V248.802C242.3 248.342 242.199 247.991 241.998 247.749C241.796 247.508 241.51 247.387 241.139 247.387C240.768 247.387 240.462 247.524 240.22 247.798C239.986 248.064 239.869 248.407 239.869 248.826V252.551H238.466V246.443ZM247.189 252.612C246.511 252.612 246.036 252.463 245.762 252.164C245.487 251.858 245.35 251.402 245.35 250.798V247.447H244.407V246.443H245.35V244.52H246.753V246.443H247.854V247.447H246.753V250.785C246.753 251.003 246.802 251.168 246.899 251.281C246.995 251.386 247.177 251.439 247.443 251.439C247.596 251.439 247.733 251.427 247.854 251.402V252.551C247.677 252.592 247.455 252.612 247.189 252.612ZM251.523 252.733C250.902 252.733 250.362 252.604 249.903 252.346C249.443 252.08 249.092 251.705 248.85 251.221C248.608 250.737 248.487 250.173 248.487 249.528C248.487 248.891 248.604 248.326 248.838 247.834C249.08 247.334 249.423 246.947 249.866 246.673C250.31 246.391 250.834 246.25 251.439 246.25C251.995 246.25 252.487 246.375 252.914 246.625C253.342 246.875 253.672 247.229 253.906 247.689C254.14 248.141 254.257 248.673 254.257 249.286L254.233 249.83H249.854C249.895 250.378 250.052 250.818 250.326 251.148C250.608 251.471 250.999 251.632 251.499 251.632C251.806 251.632 252.076 251.552 252.31 251.39C252.543 251.229 252.713 250.983 252.818 250.652H254.209C254.055 251.322 253.733 251.838 253.241 252.201C252.749 252.555 252.177 252.733 251.523 252.733ZM252.854 248.838C252.83 248.362 252.689 247.987 252.431 247.713C252.181 247.439 251.838 247.302 251.402 247.302C250.991 247.302 250.652 247.439 250.386 247.713C250.128 247.987 249.963 248.362 249.89 248.838H252.854ZM256.62 249.334L254.721 246.443H256.257L257.515 248.403L258.7 246.443H260.188L258.313 249.31L260.394 252.551H258.858L257.443 250.241L256.027 252.551H254.54L256.62 249.334ZM263.478 252.612C262.8 252.612 262.325 252.463 262.05 252.164C261.776 251.858 261.639 251.402 261.639 250.798V247.447H260.696V246.443H261.639V244.52H263.042V246.443H264.143V247.447H263.042V250.785C263.042 251.003 263.091 251.168 263.187 251.281C263.284 251.386 263.466 251.439 263.732 251.439C263.885 251.439 264.022 251.427 264.143 251.402V252.551C263.966 252.592 263.744 252.612 263.478 252.612Z" fill="white"/>
<rect x="422.704" y="98.704" width="143.954" height="33.6947" rx="16.8474" fill="black" fill-opacity="0.12"/>
<rect x="422.704" y="98.704" width="143.954" height="33.6947" rx="16.8474" stroke="url(#paint2_radial_127_1060)" stroke-width="2.5919"/>
<path opacity="0.4" d="M438.682 110.964H442.335C442.875 110.964 443.359 111.072 443.787 111.29C444.214 111.508 444.549 111.818 444.791 112.222C445.04 112.617 445.165 113.072 445.165 113.588C445.165 114.201 444.992 114.725 444.645 115.161C444.299 115.596 443.839 115.899 443.266 116.068L445.335 119.551H443.641L441.755 116.189H440.206V119.551H438.682V110.964ZM442.13 114.967C442.597 114.967 442.968 114.846 443.242 114.604C443.525 114.362 443.666 114.024 443.666 113.588C443.666 113.153 443.525 112.814 443.242 112.572C442.96 112.322 442.589 112.197 442.13 112.197H440.194V114.967H442.13ZM448.96 119.733C448.339 119.733 447.799 119.604 447.34 119.346C446.88 119.08 446.529 118.705 446.287 118.221C446.045 117.737 445.924 117.173 445.924 116.528C445.924 115.89 446.041 115.326 446.275 114.834C446.517 114.334 446.86 113.947 447.303 113.673C447.747 113.391 448.271 113.25 448.876 113.25C449.432 113.25 449.924 113.375 450.351 113.625C450.779 113.875 451.109 114.229 451.343 114.689C451.577 115.141 451.694 115.673 451.694 116.286L451.67 116.83H447.291C447.331 117.378 447.489 117.818 447.763 118.148C448.045 118.471 448.436 118.632 448.936 118.632C449.243 118.632 449.513 118.552 449.747 118.39C449.98 118.229 450.15 117.983 450.255 117.652H451.646C451.492 118.322 451.17 118.838 450.678 119.201C450.186 119.555 449.614 119.733 448.96 119.733ZM450.291 115.838C450.267 115.362 450.126 114.987 449.868 114.713C449.618 114.439 449.275 114.302 448.839 114.302C448.428 114.302 448.089 114.439 447.823 114.713C447.565 114.987 447.4 115.362 447.327 115.838H450.291ZM454.561 119.745C454.19 119.745 453.848 119.672 453.533 119.527C453.219 119.374 452.965 119.16 452.771 118.886C452.586 118.604 452.493 118.273 452.493 117.894C452.493 117.201 452.795 116.681 453.4 116.334C454.013 115.979 455.001 115.774 456.364 115.717V115.499C456.364 115.104 456.259 114.802 456.049 114.592C455.839 114.383 455.549 114.278 455.178 114.278C454.815 114.278 454.529 114.375 454.319 114.568C454.118 114.754 454.005 114.983 453.981 115.257H452.638C452.678 114.895 452.799 114.56 453.001 114.254C453.203 113.947 453.489 113.701 453.86 113.516C454.231 113.33 454.67 113.238 455.178 113.238C455.977 113.238 456.597 113.439 457.041 113.842C457.484 114.246 457.706 114.794 457.706 115.487V119.551H456.424V118.777C456.255 119.076 456.013 119.314 455.698 119.491C455.384 119.66 455.005 119.745 454.561 119.745ZM454.876 118.693C455.303 118.693 455.658 118.564 455.94 118.306C456.222 118.048 456.364 117.677 456.364 117.193V116.648C455.477 116.681 454.831 116.798 454.428 116.999C454.033 117.193 453.836 117.471 453.836 117.834C453.836 118.084 453.932 118.289 454.126 118.451C454.319 118.612 454.569 118.693 454.876 118.693ZM461.401 119.721C460.901 119.721 460.449 119.588 460.046 119.322C459.651 119.055 459.34 118.681 459.115 118.197C458.889 117.705 458.776 117.136 458.776 116.491C458.776 115.846 458.885 115.282 459.102 114.798C459.328 114.314 459.639 113.939 460.034 113.673C460.429 113.407 460.881 113.274 461.389 113.274C462.211 113.274 462.832 113.592 463.251 114.229V110.964H464.654V119.551H463.348V118.62C462.953 119.354 462.304 119.721 461.401 119.721ZM461.739 118.584C462.191 118.584 462.562 118.398 462.852 118.027C463.15 117.656 463.3 117.144 463.3 116.491C463.3 115.838 463.154 115.326 462.864 114.955C462.574 114.576 462.195 114.387 461.727 114.387C461.26 114.387 460.889 114.576 460.614 114.955C460.34 115.334 460.203 115.846 460.203 116.491C460.203 117.128 460.344 117.636 460.627 118.015C460.909 118.394 461.28 118.584 461.739 118.584ZM466.047 113.443H467.45V119.551H466.047V113.443ZM466.023 111.085H467.426V112.451H466.023V111.085ZM468.847 113.443H470.141V114.266C470.318 113.951 470.564 113.705 470.879 113.528C471.193 113.342 471.556 113.25 471.967 113.25C472.637 113.25 473.157 113.451 473.528 113.854C473.898 114.258 474.084 114.802 474.084 115.487V119.551H472.681V115.802C472.681 115.342 472.58 114.991 472.378 114.749C472.177 114.508 471.891 114.387 471.52 114.387C471.149 114.387 470.842 114.524 470.6 114.798C470.367 115.064 470.25 115.407 470.25 115.826V119.551H468.847V113.443ZM478.074 121.898C477.308 121.898 476.679 121.721 476.187 121.366C475.704 121.019 475.405 120.543 475.292 119.938H476.732C476.788 120.213 476.925 120.43 477.143 120.592C477.369 120.753 477.675 120.834 478.062 120.834C479.03 120.834 479.514 120.313 479.514 119.273V118.511C479.11 119.124 478.51 119.43 477.711 119.43C477.219 119.43 476.776 119.301 476.381 119.043C475.994 118.785 475.687 118.422 475.462 117.955C475.236 117.487 475.123 116.947 475.123 116.334C475.123 115.729 475.236 115.193 475.462 114.725C475.695 114.258 476.01 113.895 476.405 113.637C476.8 113.379 477.244 113.25 477.736 113.25C478.59 113.25 479.207 113.584 479.586 114.254V113.443H480.88V119.225C480.88 120.08 480.622 120.737 480.106 121.196C479.59 121.664 478.913 121.898 478.074 121.898ZM478.026 118.318C478.469 118.318 478.836 118.136 479.127 117.773C479.417 117.411 479.562 116.931 479.562 116.334C479.562 115.737 479.417 115.262 479.127 114.907C478.844 114.552 478.481 114.375 478.038 114.375C477.594 114.375 477.232 114.556 476.949 114.919C476.675 115.282 476.538 115.753 476.538 116.334C476.538 116.923 476.675 117.402 476.949 117.773C477.224 118.136 477.582 118.318 478.026 118.318Z" fill="white"/>
<g clip-path="url(#clip3_127_1060)">
<path d="M492.504 116.995C492.504 117.634 491.987 118.15 491.349 118.15C490.71 118.15 490.194 117.634 490.194 116.995C490.194 116.356 490.71 115.84 491.349 115.84H492.504V116.995ZM493.081 116.995C493.081 116.356 493.598 115.84 494.236 115.84C494.875 115.84 495.391 116.356 495.391 116.995V119.883C495.391 120.522 494.875 121.038 494.236 121.038C493.598 121.038 493.081 120.522 493.081 119.883V116.995Z" fill="#E01E5A"/>
<path d="M494.237 112.357C493.598 112.357 493.082 111.841 493.082 111.202C493.082 110.564 493.598 110.047 494.237 110.047C494.876 110.047 495.392 110.564 495.392 111.202V112.357H494.237ZM494.237 112.944C494.876 112.944 495.392 113.46 495.392 114.099C495.392 114.738 494.876 115.254 494.237 115.254H491.34C490.702 115.254 490.185 114.738 490.185 114.099C490.185 113.46 490.702 112.944 491.34 112.944H494.237Z" fill="#36C5F0"/>
<path d="M498.865 114.099C498.865 113.46 499.382 112.944 500.021 112.944C500.659 112.944 501.176 113.46 501.176 114.099C501.176 114.738 500.659 115.254 500.021 115.254H498.865V114.099ZM498.288 114.099C498.288 114.738 497.772 115.254 497.133 115.254C496.494 115.254 495.978 114.738 495.978 114.099V111.202C495.978 110.564 496.494 110.047 497.133 110.047C497.772 110.047 498.288 110.564 498.288 111.202V114.099Z" fill="#2EB67D"/>
<path d="M497.133 118.728C497.772 118.728 498.288 119.244 498.288 119.883C498.288 120.522 497.772 121.038 497.133 121.038C496.494 121.038 495.978 120.522 495.978 119.883V118.728H497.133ZM497.133 118.15C496.494 118.15 495.978 117.634 495.978 116.995C495.978 116.356 496.494 115.84 497.133 115.84H500.029C500.668 115.84 501.184 116.356 501.184 116.995C501.184 117.634 500.668 118.15 500.029 118.15H497.133Z" fill="#ECB22E"/>
</g>
<path d="M513.349 119.757C512.679 119.757 512.087 119.648 511.571 119.43C511.054 119.213 510.647 118.898 510.349 118.487C510.059 118.076 509.897 117.592 509.865 117.036H511.377C511.433 117.519 511.651 117.89 512.03 118.148C512.409 118.406 512.861 118.535 513.385 118.535C513.901 118.535 514.316 118.418 514.631 118.185C514.953 117.943 515.115 117.612 515.115 117.193C515.115 116.902 515.038 116.669 514.885 116.491C514.732 116.314 514.506 116.173 514.207 116.068C513.917 115.955 513.514 115.842 512.998 115.729C512.272 115.576 511.7 115.391 511.28 115.173C510.869 114.955 510.575 114.697 510.397 114.399C510.228 114.092 510.143 113.721 510.143 113.286C510.143 112.818 510.268 112.391 510.518 112.004C510.768 111.617 511.123 111.314 511.583 111.097C512.042 110.871 512.578 110.758 513.191 110.758C513.732 110.758 514.236 110.859 514.703 111.06C515.171 111.254 515.55 111.54 515.84 111.919C516.139 112.29 516.304 112.73 516.336 113.238H514.848C514.808 112.859 514.631 112.552 514.316 112.318C514.002 112.084 513.611 111.968 513.143 111.968C512.659 111.968 512.28 112.08 512.006 112.306C511.74 112.532 511.607 112.814 511.607 113.153C511.607 113.403 511.679 113.613 511.825 113.782C511.97 113.943 512.187 114.076 512.478 114.181C512.776 114.286 513.183 114.391 513.699 114.495C514.715 114.697 515.449 114.995 515.901 115.391C516.36 115.786 516.59 116.346 516.59 117.072C516.59 117.604 516.457 118.072 516.191 118.475C515.925 118.878 515.546 119.193 515.054 119.418C514.562 119.644 513.994 119.757 513.349 119.757ZM519.774 119.745C519.105 119.745 518.584 119.543 518.214 119.14C517.843 118.737 517.657 118.193 517.657 117.507V113.443H519.06V117.193C519.06 117.652 519.157 118.003 519.351 118.245C519.552 118.487 519.842 118.608 520.221 118.608C520.584 118.608 520.887 118.475 521.129 118.209C521.37 117.935 521.491 117.588 521.491 117.169V113.443H522.895V119.551H521.6V118.717C521.423 119.031 521.177 119.281 520.862 119.467C520.548 119.652 520.185 119.745 519.774 119.745ZM527.538 119.721C526.635 119.721 525.986 119.354 525.591 118.62V119.551H524.296V110.964H525.699V114.229C526.119 113.592 526.736 113.274 527.55 113.274C528.058 113.274 528.51 113.407 528.905 113.673C529.3 113.939 529.61 114.314 529.836 114.798C530.062 115.282 530.175 115.846 530.175 116.491C530.175 117.136 530.062 117.705 529.836 118.197C529.61 118.681 529.296 119.055 528.893 119.322C528.489 119.588 528.038 119.721 527.538 119.721ZM527.211 118.584C527.671 118.584 528.042 118.394 528.324 118.015C528.606 117.636 528.748 117.128 528.748 116.491C528.748 115.846 528.61 115.334 528.336 114.955C528.062 114.576 527.691 114.387 527.223 114.387C526.756 114.387 526.373 114.576 526.074 114.955C525.784 115.326 525.639 115.838 525.639 116.491C525.639 117.144 525.788 117.656 526.087 118.027C526.385 118.398 526.76 118.584 527.211 118.584ZM533.397 119.612C532.72 119.612 532.244 119.463 531.97 119.164C531.696 118.858 531.559 118.402 531.559 117.798V114.447H530.615V113.443H531.559V111.52H532.962V113.443H534.063V114.447H532.962V117.785C532.962 118.003 533.01 118.168 533.107 118.281C533.204 118.386 533.385 118.439 533.651 118.439C533.805 118.439 533.942 118.427 534.063 118.402V119.551C533.885 119.592 533.664 119.612 533.397 119.612ZM537.732 119.733C537.111 119.733 536.571 119.604 536.111 119.346C535.652 119.08 535.301 118.705 535.059 118.221C534.817 117.737 534.696 117.173 534.696 116.528C534.696 115.89 534.813 115.326 535.047 114.834C535.289 114.334 535.631 113.947 536.075 113.673C536.518 113.391 537.043 113.25 537.647 113.25C538.204 113.25 538.696 113.375 539.123 113.625C539.55 113.875 539.881 114.229 540.115 114.689C540.349 115.141 540.466 115.673 540.466 116.286L540.441 116.83H536.063C536.103 117.378 536.26 117.818 536.535 118.148C536.817 118.471 537.208 118.632 537.708 118.632C538.014 118.632 538.284 118.552 538.518 118.39C538.752 118.229 538.921 117.983 539.026 117.652H540.417C540.264 118.322 539.941 118.838 539.45 119.201C538.958 119.555 538.385 119.733 537.732 119.733ZM539.062 115.838C539.038 115.362 538.897 114.987 538.639 114.713C538.389 114.439 538.046 114.302 537.611 114.302C537.2 114.302 536.861 114.439 536.595 114.713C536.337 114.987 536.172 115.362 536.099 115.838H539.062ZM542.829 116.334L540.93 113.443H542.466L543.724 115.403L544.909 113.443H546.397L544.522 116.31L546.602 119.551H545.066L543.651 117.241L542.236 119.551H540.748L542.829 116.334ZM549.686 119.612C549.009 119.612 548.533 119.463 548.259 119.164C547.985 118.858 547.848 118.402 547.848 117.798V114.447H546.904V113.443H547.848V111.52H549.251V113.443H550.351V114.447H549.251V117.785C549.251 118.003 549.299 118.168 549.396 118.281C549.493 118.386 549.674 118.439 549.94 118.439C550.093 118.439 550.231 118.427 550.351 118.402V119.551C550.174 119.592 549.952 119.612 549.686 119.612Z" fill="white"/>
<rect x="388.704" y="200.704" width="141.954" height="33.6947" rx="16.8474" fill="black" fill-opacity="0.12"/>
<rect x="388.704" y="200.704" width="141.954" height="33.6947" rx="16.8474" stroke="url(#paint3_radial_127_1060)" stroke-width="2.5919"/>
<path opacity="0.4" d="M404.682 212.964H407.888C408.686 212.964 409.375 213.145 409.956 213.508C410.545 213.871 410.992 214.379 411.299 215.032C411.605 215.677 411.758 216.419 411.758 217.258C411.758 218.096 411.605 218.842 411.299 219.495C410.992 220.14 410.545 220.644 409.956 221.007C409.375 221.37 408.686 221.551 407.888 221.551H404.682V212.964ZM407.755 220.293C408.504 220.293 409.097 220.031 409.533 219.507C409.968 218.983 410.186 218.233 410.186 217.258C410.186 216.274 409.968 215.516 409.533 214.984C409.097 214.451 408.504 214.185 407.755 214.185H406.194V220.293H407.755ZM412.935 215.443H414.229V216.532C414.536 215.75 415.092 215.359 415.899 215.359C416.036 215.359 416.145 215.367 416.225 215.383V216.677C416.169 216.669 416.052 216.665 415.874 216.665C415.374 216.665 414.991 216.826 414.725 217.149C414.467 217.463 414.338 217.907 414.338 218.479V221.551H412.935V215.443ZM418.766 221.745C418.395 221.745 418.052 221.672 417.738 221.527C417.423 221.374 417.169 221.16 416.976 220.886C416.79 220.604 416.698 220.273 416.698 219.894C416.698 219.201 417 218.681 417.605 218.334C418.218 217.979 419.205 217.774 420.568 217.717V217.499C420.568 217.104 420.463 216.802 420.254 216.592C420.044 216.383 419.754 216.278 419.383 216.278C419.02 216.278 418.734 216.375 418.524 216.568C418.322 216.754 418.21 216.983 418.185 217.258H416.843C416.883 216.895 417.004 216.56 417.206 216.254C417.407 215.947 417.693 215.701 418.064 215.516C418.435 215.33 418.875 215.238 419.383 215.238C420.181 215.238 420.802 215.439 421.246 215.842C421.689 216.246 421.911 216.794 421.911 217.487V221.551H420.629V220.777C420.459 221.076 420.217 221.314 419.903 221.491C419.588 221.66 419.209 221.745 418.766 221.745ZM419.08 220.693C419.508 220.693 419.863 220.564 420.145 220.306C420.427 220.048 420.568 219.677 420.568 219.193V218.648C419.681 218.681 419.036 218.798 418.633 218.999C418.238 219.193 418.04 219.471 418.04 219.834C418.04 220.084 418.137 220.289 418.33 220.451C418.524 220.612 418.774 220.693 419.08 220.693ZM423.588 216.447H422.644V215.443H423.588V214.802C423.588 214.181 423.741 213.709 424.047 213.387C424.354 213.064 424.813 212.903 425.426 212.903C425.676 212.903 425.882 212.923 426.043 212.964V214.101C425.938 214.076 425.817 214.064 425.68 214.064C425.446 214.064 425.273 214.129 425.16 214.258C425.047 214.379 424.991 214.572 424.991 214.838V215.443H426.031V216.447H424.991V221.551H423.588V216.447ZM429.253 221.612C428.576 221.612 428.1 221.463 427.826 221.164C427.552 220.858 427.415 220.402 427.415 219.798V216.447H426.471V215.443H427.415V213.52H428.818V215.443H429.919V216.447H428.818V219.785C428.818 220.003 428.866 220.168 428.963 220.281C429.06 220.386 429.241 220.439 429.507 220.439C429.661 220.439 429.798 220.427 429.919 220.402V221.551C429.741 221.592 429.52 221.612 429.253 221.612ZM431.043 215.443H432.446V221.551H431.043V215.443ZM431.019 213.085H432.422V214.451H431.019V213.085ZM433.843 215.443H435.137V216.266C435.314 215.951 435.56 215.705 435.875 215.528C436.189 215.342 436.552 215.25 436.963 215.25C437.632 215.25 438.153 215.451 438.524 215.854C438.894 216.258 439.08 216.802 439.08 217.487V221.551H437.677V217.802C437.677 217.342 437.576 216.991 437.374 216.749C437.173 216.508 436.887 216.387 436.516 216.387C436.145 216.387 435.838 216.524 435.596 216.798C435.363 217.064 435.246 217.407 435.246 217.826V221.551H433.843V215.443ZM443.07 223.898C442.304 223.898 441.675 223.721 441.183 223.366C440.699 223.019 440.401 222.543 440.288 221.938H441.728C441.784 222.213 441.921 222.43 442.139 222.592C442.365 222.753 442.671 222.834 443.058 222.834C444.026 222.834 444.51 222.313 444.51 221.273V220.511C444.106 221.124 443.506 221.43 442.707 221.43C442.215 221.43 441.772 221.301 441.377 221.043C440.99 220.785 440.683 220.423 440.458 219.955C440.232 219.487 440.119 218.947 440.119 218.334C440.119 217.729 440.232 217.193 440.458 216.725C440.691 216.258 441.006 215.895 441.401 215.637C441.796 215.379 442.24 215.25 442.732 215.25C443.586 215.25 444.203 215.584 444.582 216.254V215.443H445.876V221.225C445.876 222.08 445.618 222.737 445.102 223.196C444.586 223.664 443.909 223.898 443.07 223.898ZM443.022 220.318C443.465 220.318 443.832 220.136 444.123 219.773C444.413 219.411 444.558 218.931 444.558 218.334C444.558 217.737 444.413 217.262 444.123 216.907C443.84 216.552 443.477 216.375 443.034 216.375C442.59 216.375 442.228 216.556 441.945 216.919C441.671 217.282 441.534 217.753 441.534 218.334C441.534 218.923 441.671 219.402 441.945 219.773C442.22 220.136 442.578 220.318 443.022 220.318Z" fill="white"/>
<path d="M460.682 215.807C461.878 215.807 462.848 214.837 462.848 213.641C462.848 212.444 461.878 211.475 460.682 211.475C459.486 211.475 458.516 212.444 458.516 213.641C458.516 214.837 459.486 215.807 460.682 215.807Z" fill="white"/>
<path d="M458.936 217.554C458.936 216.357 457.966 215.388 456.77 215.388C455.573 215.388 454.603 216.357 454.603 217.554C454.603 218.75 455.573 219.72 456.77 219.72C457.966 219.72 458.936 218.75 458.936 217.554Z" fill="white"/>
<path d="M462.848 221.463C462.848 222.66 461.878 223.629 460.682 223.629C459.486 223.629 458.516 222.66 458.516 221.463C458.516 220.267 459.486 219.297 460.682 219.297C461.878 219.297 462.848 220.267 462.848 221.463Z" fill="white"/>
<path d="M466.759 217.554C466.759 216.357 465.789 215.388 464.592 215.388C463.396 215.388 462.426 216.357 462.426 217.554C462.426 218.75 463.396 219.72 464.592 219.72C465.789 219.72 466.759 218.75 466.759 217.554Z" fill="white"/>
<path d="M477.683 212.964H479.582L482.582 221.551H481.022L480.296 219.398H476.873L476.159 221.551H474.696L477.683 212.964ZM479.885 218.189L478.59 214.318L477.284 218.189H479.885ZM483.438 215.443H484.732V216.266C484.909 215.951 485.155 215.705 485.47 215.528C485.784 215.342 486.147 215.25 486.558 215.25C487.228 215.25 487.748 215.451 488.119 215.854C488.489 216.258 488.675 216.802 488.675 217.487V221.551H487.272V217.802C487.272 217.342 487.171 216.991 486.969 216.749C486.768 216.508 486.482 216.387 486.111 216.387C485.74 216.387 485.433 216.524 485.191 216.798C484.958 217.064 484.841 217.407 484.841 217.826V221.551H483.438V215.443ZM492.363 221.733C491.557 221.733 490.911 221.539 490.428 221.152C489.944 220.765 489.682 220.261 489.641 219.64H491.008C491.04 219.963 491.186 220.221 491.444 220.414C491.71 220.6 492.02 220.693 492.375 220.693C492.722 220.693 492.996 220.62 493.197 220.475C493.407 220.322 493.512 220.112 493.512 219.846C493.512 219.588 493.399 219.402 493.173 219.29C492.956 219.169 492.568 219.06 492.012 218.963C491.206 218.818 490.641 218.604 490.319 218.322C489.996 218.032 489.835 217.645 489.835 217.161C489.835 216.822 489.932 216.508 490.125 216.217C490.319 215.919 490.597 215.681 490.96 215.504C491.331 215.326 491.758 215.238 492.242 215.238C492.661 215.238 493.048 215.314 493.403 215.467C493.766 215.613 494.064 215.83 494.298 216.121C494.532 216.411 494.665 216.754 494.697 217.149H493.367C493.318 216.899 493.189 216.693 492.98 216.532C492.778 216.362 492.516 216.278 492.194 216.278C491.871 216.278 491.621 216.35 491.444 216.495C491.274 216.641 491.19 216.826 491.19 217.052C491.19 217.262 491.29 217.431 491.492 217.56C491.694 217.681 492.044 217.786 492.544 217.874C493.375 218.011 493.972 218.225 494.334 218.515C494.697 218.798 494.879 219.205 494.879 219.737C494.879 220.124 494.774 220.471 494.564 220.777C494.363 221.076 494.072 221.31 493.693 221.479C493.314 221.648 492.871 221.733 492.363 221.733ZM495.403 215.443H496.891L497.98 220.281L499.153 215.443H500.459L501.633 220.306L502.733 215.443H504.185L502.528 221.551H500.846L499.782 217.282L498.742 221.551H497.073L495.403 215.443ZM507.728 221.733C507.108 221.733 506.567 221.604 506.108 221.346C505.648 221.08 505.297 220.705 505.055 220.221C504.813 219.737 504.692 219.173 504.692 218.528C504.692 217.891 504.809 217.326 505.043 216.834C505.285 216.334 505.628 215.947 506.071 215.673C506.515 215.391 507.039 215.25 507.644 215.25C508.2 215.25 508.692 215.375 509.119 215.625C509.547 215.875 509.877 216.229 510.111 216.689C510.345 217.141 510.462 217.673 510.462 218.286L510.438 218.83H506.059C506.1 219.378 506.257 219.818 506.531 220.148C506.813 220.471 507.204 220.632 507.704 220.632C508.011 220.632 508.281 220.552 508.515 220.39C508.749 220.229 508.918 219.983 509.023 219.652H510.414C510.26 220.322 509.938 220.838 509.446 221.201C508.954 221.555 508.382 221.733 507.728 221.733ZM509.059 217.838C509.035 217.362 508.894 216.987 508.636 216.713C508.386 216.439 508.043 216.302 507.608 216.302C507.196 216.302 506.858 216.439 506.591 216.713C506.333 216.987 506.168 217.362 506.096 217.838H509.059ZM511.562 215.443H512.856V216.532C513.163 215.75 513.719 215.359 514.526 215.359C514.663 215.359 514.771 215.367 514.852 215.383V216.677C514.796 216.669 514.679 216.665 514.501 216.665C514.001 216.665 513.618 216.826 513.352 217.149C513.094 217.463 512.965 217.907 512.965 218.479V221.551H511.562V215.443Z" fill="white"/>
<defs>
<radialGradient id="paint0_radial_127_1060" cx="0" cy="0" r="1" gradientUnits="userSpaceOnUse" gradientTransform="translate(152.147 90.5514) scale(72.147 15.5514)">
<stop stop-color="white"/>
<stop offset="1" stop-color="white" stop-opacity="0"/>
</radialGradient>
<radialGradient id="paint1_radial_127_1060" cx="0" cy="0" r="1" gradientUnits="userSpaceOnUse" gradientTransform="translate(206.681 248.551) scale(72.681 15.5514)">
<stop stop-color="white"/>
<stop offset="1" stop-color="white" stop-opacity="0"/>
</radialGradient>
<radialGradient id="paint2_radial_127_1060" cx="0" cy="0" r="1" gradientUnits="userSpaceOnUse" gradientTransform="translate(494.681 115.551) scale(70.681 15.5514)">
<stop stop-color="white"/>
<stop offset="1" stop-color="white" stop-opacity="0"/>
</radialGradient>
<radialGradient id="paint3_radial_127_1060" cx="0" cy="0" r="1" gradientUnits="userSpaceOnUse" gradientTransform="translate(459.681 217.551) scale(69.681 15.5514)">
<stop stop-color="white"/>
<stop offset="1" stop-color="white" stop-opacity="0"/>
</radialGradient>
<clipPath id="clip0_127_1060">
<rect width="13.8235" height="13.8235" fill="white" transform="translate(154.735 83.6397)"/>
</clipPath>
<clipPath id="clip1_127_1060">
<rect width="13.8235" height="13.8235" fill="white" transform="translate(154.735 83.6397)"/>
</clipPath>
<clipPath id="clip2_127_1060">
<rect width="11.1132" height="11.1132" fill="white" transform="translate(203.124 242.995)"/>
</clipPath>
<clipPath id="clip3_127_1060">
<rect width="11.1132" height="11.1132" fill="white" transform="translate(490.124 109.995)"/>
</clipPath>
</defs>
</svg>
