<svg width="318" height="314" viewBox="0 0 318 314" fill="none" xmlns="http://www.w3.org/2000/svg">
<mask id="mask0_127_1068" style="mask-type:alpha" maskUnits="userSpaceOnUse" x="0" y="0" width="318" height="314">
<rect width="318" height="314" rx="18" fill="#111111"/>
</mask>
<g mask="url(#mask0_127_1068)">
<rect x="115" y="123.057" width="17.954" height="44.8851" rx="8.97701" fill="white"/>
<rect x="138.668" y="110" width="17.954" height="71" rx="8.97701" fill="white"/>
<rect x="161.518" y="132.034" width="17.954" height="26.931" rx="8.97701" fill="white"/>
<rect x="185.184" y="126.322" width="17.954" height="38.3563" rx="8.97701" fill="white"/>
<rect x="61.0234" y="234.65" width="49.3494" height="49.3494" rx="24.6747" fill="#FA0019"/>
<rect x="78.7578" y="252.385" width="13.8795" height="13.8795" rx="3.08434" fill="white"/>
<rect x="134.324" y="234.65" width="49.3494" height="49.3494" rx="24.6747" fill="#F2F2F2" fill-opacity="0.05"/>
<path d="M151.95 258.78C151.95 262.829 154.625 265.669 158.56 265.999V268.405H154.728C154.295 268.405 153.943 268.756 153.943 269.19C153.943 269.624 154.295 269.965 154.728 269.965H163.95C164.384 269.965 164.735 269.624 164.735 269.19C164.735 268.756 164.384 268.405 163.95 268.405H160.119V265.999C164.064 265.669 166.728 262.829 166.728 258.78V256.684C166.728 256.25 166.387 255.91 165.954 255.91C165.52 255.91 165.169 256.25 165.169 256.684V258.718C165.169 262.24 162.876 264.574 159.344 264.574C155.802 264.574 153.51 262.24 153.51 258.718V256.684C153.51 256.25 153.169 255.91 152.725 255.91C152.291 255.91 151.95 256.25 151.95 256.684V258.78ZM155.585 258.409C155.585 260.784 157.114 262.457 159.344 262.457C161.565 262.457 163.093 260.784 163.093 258.409V251.913C163.093 249.527 161.565 247.865 159.344 247.865C157.114 247.865 155.585 249.527 155.585 251.913V258.409ZM157.145 258.409V251.913C157.145 250.385 158.023 249.403 159.344 249.403C160.666 249.403 161.534 250.385 161.534 251.913V258.409C161.534 259.937 160.666 260.918 159.344 260.918C158.023 260.918 157.145 259.937 157.145 258.409Z" fill="white"/>
<rect x="207.625" y="234.65" width="49.3494" height="49.3494" rx="24.6747" fill="#F2F2F2" fill-opacity="0.05"/>
<path d="M227.285 265.204C226.81 265.204 226.438 264.822 226.438 264.347C226.438 264.119 226.521 263.903 226.686 263.748L231.089 259.335L226.686 254.932C226.521 254.767 226.438 254.56 226.438 254.333C226.438 253.847 226.81 253.486 227.285 253.486C227.523 253.486 227.709 253.569 227.874 253.724L232.297 258.137L236.741 253.713C236.917 253.538 237.103 253.465 237.33 253.465C237.805 253.465 238.187 253.837 238.187 254.312C238.187 254.55 238.115 254.736 237.929 254.921L233.516 259.335L237.919 263.737C238.094 263.892 238.177 264.109 238.177 264.347C238.177 264.822 237.795 265.204 237.309 265.204C237.072 265.204 236.855 265.121 236.7 264.956L232.297 260.543L227.905 264.956C227.74 265.121 227.523 265.204 227.285 265.204Z" fill="white"/>
</g>
</svg>
