<svg width="60" height="60" viewBox="0 0 60 60" fill="none" xmlns="http://www.w3.org/2000/svg">
  <path d="M16.1979 0.866072H43.8021C52.2687 0.866072 59.1338 7.73765 59.1338 16.2162V43.7836C59.1338 52.2622 52.2687 59.1337 43.8021 59.1337H16.1979C7.73135 59.1337 0.866163 52.2622 0.866163 43.7836V16.2162C0.866163 7.73765 7.73135 0.866072 16.1979 0.866072Z" stroke="black" stroke-width="1.73233" />
  <path d="M38.7291 36.2216L37.499 34.9923C40.2291 33.2755 41.9813 31.101 41.9813 30.2923C41.9813 29.097 36.6074 23.2711 30.0181 23.2711C28.738 23.2711 27.5051 23.489 26.3492 23.8492L25.0387 22.5394C26.5595 22.0101 28.2321 21.6841 30.0181 21.6841C38.1242 21.6841 43.7391 28.2332 43.7391 30.2923C43.7391 31.4755 41.8706 34.1621 38.7291 36.2216Z" fill="black" />
  <path d="M21.3469 24.362C18.1946 26.4194 16.2871 29.1038 16.2871 30.2923C16.2871 32.3415 22.0025 38.9006 30.0181 38.9006C31.8301 38.9006 33.517 38.5736 35.0443 38.0429L33.7364 36.7366C32.5652 37.0963 31.3152 37.3135 30.0181 37.3135C23.3987 37.3135 18.0449 31.7086 18.0449 30.2923C18.0449 29.6033 19.8238 27.3757 22.5987 25.6122L21.3469 24.362Z" fill="black" />
  <path d="M24.888 27.8988C24.5508 28.6223 24.363 29.4325 24.363 30.2923C24.363 33.356 26.8742 35.9173 30.0181 35.9173C30.8666 35.9173 31.6699 35.7284 32.3899 35.3917L24.888 27.8988Z" fill="black" />
  <path d="M35.1374 32.6321C35.4687 31.9164 35.6532 31.1228 35.6532 30.2923C35.6532 27.1484 33.1421 24.6673 30.0181 24.6673C29.1769 24.6673 28.3809 24.845 27.6663 25.1654L35.1374 32.6321Z" fill="black" />
  <path d="M37.6619 38.9909C37.9633 39.3023 38.4353 39.3223 38.7567 38.9909C39.0782 38.6594 39.0581 38.2073 38.7567 37.8959L21.9521 21.1114C21.6608 20.81 21.1585 20.81 20.8472 21.1114C20.5559 21.4027 20.5559 21.915 20.8472 22.2062L37.6619 38.9909Z" fill="black" />
</svg>
