<svg width="60" height="60" viewBox="0 0 60 60" fill="none" xmlns="http://www.w3.org/2000/svg">
  <path d="M16.1979 0.866072H43.8021C52.2687 0.866072 59.1338 7.73765 59.1338 16.2162V43.7836C59.1338 52.2622 52.2687 59.1337 43.8021 59.1337H16.1979C7.73135 59.1337 0.866163 52.2622 0.866163 43.7836V16.2162C0.866163 7.73765 7.73135 0.866072 16.1979 0.866072Z" stroke="black" stroke-width="1.73233" />
  <path d="M34.9493 38.897C33.7188 39.8452 32.2144 40.3224 30.4514 40.3224C26.2025 40.3224 23.3498 37.4697 23.3498 32.7688V27.3105L24.6757 28.6349V32.6081C24.6757 36.646 26.8454 38.9362 30.4012 38.9362C31.758 38.9362 32.9618 38.6325 33.9817 37.9304L34.9493 38.897Z" fill="black" />
  <path
    d="M37.3404 35.7825C37.5078 35.425 37.6624 35.0465 37.8041 34.6472L39.5719 29.6751C39.6924 29.3336 39.7527 29.002 39.7527 28.7008C39.7527 27.636 38.9491 26.8927 37.9246 26.8927C37.2315 26.8927 36.6088 27.3046 36.2672 28.098L35.6143 29.7052C35.5943 29.7454 35.5641 29.7755 35.5239 29.7755C35.4737 29.7755 35.4536 29.7353 35.4536 29.6851V21.6293C35.4536 20.4541 34.7203 19.7108 33.5953 19.7108C33.1836 19.7108 32.8119 19.8615 32.5306 20.1226C32.4 19.088 31.7371 18.4552 30.7427 18.4552C29.7684 18.4552 29.0853 19.1081 28.9346 20.1025C28.6836 19.8514 28.3219 19.7108 27.9603 19.7108C26.9157 19.7108 26.2226 20.444 26.2226 21.559V22.674C25.9514 22.3927 25.5396 22.242 25.1177 22.242C24.7245 22.242 24.3768 22.3502 24.0961 22.5456L25.1408 23.5898C25.2105 23.5689 25.2868 23.5579 25.3688 23.5579C25.7806 23.5579 26.082 23.8492 26.082 24.2811V24.5304L27.3576 25.8053V21.7398C27.3576 21.3079 27.6288 21.0065 28.0407 21.0065C28.4626 21.0065 28.7538 21.3079 28.7538 21.7398V27.2008L30.0295 28.4757V20.4943C30.0295 20.0623 30.3208 19.751 30.7427 19.751C31.1445 19.751 31.4358 20.0623 31.4358 20.4943V28.9016C31.4358 29.2532 31.717 29.5244 32.0686 29.5244C32.4101 29.5244 32.7114 29.2532 32.7114 28.9016V21.7398C32.7114 21.3079 33.0027 21.0065 33.4146 21.0065C33.8264 21.0065 34.1177 21.3079 34.1177 21.7398V31.6237C34.1177 32.126 34.409 32.4172 34.8308 32.4172C35.1924 32.4172 35.4938 32.2565 35.7248 31.7543L37.1712 28.53C37.3621 28.098 37.7338 27.9474 38.0853 28.078C38.477 28.2186 38.5976 28.5903 38.4168 29.0824L36.5786 34.2153C36.5067 34.4162 36.4317 34.6097 36.3535 34.7962L37.3404 35.7825Z"
    fill="black"
  />
  <path d="M38.0951 40.3929C38.3965 40.6841 38.8987 40.6942 39.19 40.3929C39.4913 40.0815 39.5014 39.5993 39.19 39.298L21.3507 21.4587C21.0494 21.1574 20.5572 21.1574 20.2458 21.4587C19.9545 21.76 19.9545 22.2623 20.2458 22.5536L38.0951 40.3929Z" fill="black" />
</svg>
