<svg width="60" height="60" viewBox="0 0 60 60" fill="none" xmlns="http://www.w3.org/2000/svg">
  <path d="M16.1979 0.866163H43.8021C52.2687 0.866163 59.1338 7.73774 59.1338 16.2163V43.7837C59.1338 52.2623 52.2687 59.1338 43.8021 59.1338H16.1979C7.73135 59.1338 0.866163 52.2623 0.866163 43.7837V16.2163C0.866163 7.73774 7.73135 0.866163 16.1979 0.866163Z" stroke="black" stroke-width="1.73233" />
  <mask id="path-2-inside-1_2057_2894" fill="black">
    <path
      fill-rule="evenodd"
      clip-rule="evenodd"
      d="M30.4955 49.856L29.6487 47.3432L28.8019 49.856L26.1528 49.8858L28.2784 51.4687L27.4878 54L29.6487 52.4655L31.8087 54L31.019 51.4687L33.1446 49.8858L30.4955 49.856ZM30.4955 8.45808L29.6487 5.94527L28.8019 8.45808L26.1528 8.48791L28.2784 10.0708L27.4878 12.6021L29.6487 11.0675L31.8087 12.6021L31.019 10.0708L33.1446 8.48791L30.4955 8.45808ZM12.6494 30.324L10.1389 31.1718L10.109 33.8237L8.52861 31.6959L6 32.4869L7.53239 30.324L6 28.1611L8.52861 28.9522L10.109 26.8243L10.1389 29.4762L12.6494 30.324ZM51.49 31.1719L54 30.324L51.49 29.4762L51.4602 26.8243L49.8791 28.9522L47.3507 28.1611L48.8835 30.324L47.3507 32.4869L49.8791 31.6959L51.4602 33.8238L51.49 31.1719ZM14.9271 21.8145L12.3297 21.2923L10.9793 23.574L10.6732 20.9398L8.08846 20.3593L10.4957 19.2534L10.2485 16.6129L12.0435 18.5636L14.4752 17.5123L13.1765 19.8238L14.9271 21.8145ZM48.1396 41.9913L50.7368 42.5134L48.9866 40.5228L50.2851 38.2112L47.8532 39.2626L46.0586 37.3119L46.3058 39.9523L43.8981 41.0582L46.4829 41.6387L46.7894 44.2729L48.1396 41.9913ZM21.1499 15.5849L19.162 13.8326L16.8526 15.1327L17.9031 12.698L15.9542 10.9013L18.5914 11.1488L19.6964 8.73834L20.276 11.326L22.9078 11.633L20.6283 12.9847L21.1499 15.5849ZM39.8374 49.6838L41.8254 51.4361L41.3039 48.836L43.583 47.4842L40.9514 47.1773L40.3718 44.5896L39.2668 47L36.6295 46.7526L38.5785 48.5492L37.528 50.9839L39.8374 49.6838ZM38.1493 15.5837L38.6709 12.9836L36.3914 11.6318L39.0232 11.325L39.6028 8.73725L40.7078 11.1477L43.3449 10.9002L41.3964 12.6968L42.4465 15.1315L40.1372 13.8315L38.1493 15.5837ZM17.9955 48.8362L17.4739 51.4362L19.4618 49.684L21.7712 50.984L20.7207 48.5493L22.6696 46.7527L20.0324 47.0002L18.9274 44.5897L18.3478 47.1775L15.716 47.4844L17.9955 48.8362ZM44.3713 21.814L46.1215 19.8233L44.823 17.5119L47.255 18.5632L49.0496 16.6124L48.8023 19.2529L51.21 20.3588L48.6252 20.9394L48.3188 23.5735L46.9685 21.2919L44.3713 21.814ZM10.311 40.5223L8.56031 42.513L11.1577 41.9908L12.5081 44.2725L12.8142 41.6383L15.399 41.0577L12.9917 39.9518L13.239 37.3113L11.4439 39.2621L9.01223 38.2108L10.311 40.5223Z"
    />
  </mask>
  <path
    fill-rule="evenodd"
    clip-rule="evenodd"
    d="M30.4955 49.856L29.6487 47.3432L28.8019 49.856L26.1528 49.8858L28.2784 51.4687L27.4878 54L29.6487 52.4655L31.8087 54L31.019 51.4687L33.1446 49.8858L30.4955 49.856ZM30.4955 8.45808L29.6487 5.94527L28.8019 8.45808L26.1528 8.48791L28.2784 10.0708L27.4878 12.6021L29.6487 11.0675L31.8087 12.6021L31.019 10.0708L33.1446 8.48791L30.4955 8.45808ZM12.6494 30.324L10.1389 31.1718L10.109 33.8237L8.52861 31.6959L6 32.4869L7.53239 30.324L6 28.1611L8.52861 28.9522L10.109 26.8243L10.1389 29.4762L12.6494 30.324ZM51.49 31.1719L54 30.324L51.49 29.4762L51.4602 26.8243L49.8791 28.9522L47.3507 28.1611L48.8835 30.324L47.3507 32.4869L49.8791 31.6959L51.4602 33.8238L51.49 31.1719ZM14.9271 21.8145L12.3297 21.2923L10.9793 23.574L10.6732 20.9398L8.08846 20.3593L10.4957 19.2534L10.2485 16.6129L12.0435 18.5636L14.4752 17.5123L13.1765 19.8238L14.9271 21.8145ZM48.1396 41.9913L50.7368 42.5134L48.9866 40.5228L50.2851 38.2112L47.8532 39.2626L46.0586 37.3119L46.3058 39.9523L43.8981 41.0582L46.4829 41.6387L46.7894 44.2729L48.1396 41.9913ZM21.1499 15.5849L19.162 13.8326L16.8526 15.1327L17.9031 12.698L15.9542 10.9013L18.5914 11.1488L19.6964 8.73834L20.276 11.326L22.9078 11.633L20.6283 12.9847L21.1499 15.5849ZM39.8374 49.6838L41.8254 51.4361L41.3039 48.836L43.583 47.4842L40.9514 47.1773L40.3718 44.5896L39.2668 47L36.6295 46.7526L38.5785 48.5492L37.528 50.9839L39.8374 49.6838ZM38.1493 15.5837L38.6709 12.9836L36.3914 11.6318L39.0232 11.325L39.6028 8.73725L40.7078 11.1477L43.3449 10.9002L41.3964 12.6968L42.4465 15.1315L40.1372 13.8315L38.1493 15.5837ZM17.9955 48.8362L17.4739 51.4362L19.4618 49.684L21.7712 50.984L20.7207 48.5493L22.6696 46.7527L20.0324 47.0002L18.9274 44.5897L18.3478 47.1775L15.716 47.4844L17.9955 48.8362ZM44.3713 21.814L46.1215 19.8233L44.823 17.5119L47.255 18.5632L49.0496 16.6124L48.8023 19.2529L51.21 20.3588L48.6252 20.9394L48.3188 23.5735L46.9685 21.2919L44.3713 21.814ZM10.311 40.5223L8.56031 42.513L11.1577 41.9908L12.5081 44.2725L12.8142 41.6383L15.399 41.0577L12.9917 39.9518L13.239 37.3113L11.4439 39.2621L9.01223 38.2108L10.311 40.5223Z"
    fill="black"
    stroke="black"
    stroke-width="6.55064"
    mask="url(#path-2-inside-1_2057_2894)"
  />
  <mask id="path-3-inside-2_2057_2894" fill="black">
    <path d="M19.4811 30.9734V29.9866H22.7401V33.8228H21.6341L21.5536 32.9671C21.1106 33.692 20.3661 33.984 19.5017 33.984C17.4498 33.984 16.2529 32.4132 16.2529 30.2485C16.2529 28.1139 17.5906 26.5129 19.7331 26.5129C21.282 26.5129 22.5284 27.399 22.7101 28.718H21.2211C21.0001 27.983 20.4972 27.4896 19.6226 27.4896C18.5662 27.4896 17.7314 28.5166 17.7314 30.2485C17.7314 31.9803 18.536 33.0174 19.7331 33.0174C20.7988 33.0174 21.4225 32.3024 21.4225 31.1446V30.9734H19.4811Z" />
  </mask>
  <path d="M19.4811 30.9734V29.9866H22.7401V33.8228H21.6341L21.5536 32.9671C21.1106 33.692 20.3661 33.984 19.5017 33.984C17.4498 33.984 16.2529 32.4132 16.2529 30.2485C16.2529 28.1139 17.5906 26.5129 19.7331 26.5129C21.282 26.5129 22.5284 27.399 22.7101 28.718H21.2211C21.0001 27.983 20.4972 27.4896 19.6226 27.4896C18.5662 27.4896 17.7314 28.5166 17.7314 30.2485C17.7314 31.9803 18.536 33.0174 19.7331 33.0174C20.7988 33.0174 21.4225 32.3024 21.4225 31.1446V30.9734H19.4811Z" fill="black" />
  <path
    d="M19.4811 30.9734H16.2058V34.2487H19.4811V30.9734ZM19.4811 29.9866V26.7113H16.2058V29.9866H19.4811ZM22.7401 29.9866H26.0154V26.7113H22.7401V29.9866ZM22.7401 33.8228V37.0982H26.0154V33.8228H22.7401ZM21.6341 33.8228L18.3732 34.1297L18.6525 37.0982H21.6341V33.8228ZM21.5536 32.9671L24.8145 32.6602L23.8921 22.8584L18.7587 31.2593L21.5536 32.9671ZM22.7101 28.718V31.9934H26.4675L25.9548 28.2711L22.7101 28.718ZM21.2211 28.718L18.0845 29.6611L18.7858 31.9934H21.2211V28.718ZM21.4225 30.9734H24.6978V27.6981H21.4225V30.9734ZM22.7565 30.9734V29.9866H16.2058V30.9734H22.7565ZM19.4811 33.2619H22.7401V26.7113H19.4811V33.2619ZM19.4648 29.9866V33.8228H26.0154V29.9866H19.4648ZM22.7401 30.5475H21.6341V37.0982H22.7401V30.5475ZM24.895 33.516L24.8145 32.6602L18.2927 33.2739L18.3732 34.1297L24.895 33.516ZM18.7587 31.2593C18.8121 31.1718 18.8895 31.0745 18.9926 30.983C19.0951 30.8919 19.2014 30.8258 19.2971 30.781C19.4818 30.6945 19.5777 30.7087 19.5017 30.7087V37.2593C21.1163 37.2593 23.1317 36.666 24.3484 34.6748L18.7587 31.2593ZM19.5017 30.7087C19.4123 30.7087 19.4178 30.6932 19.4771 30.72C19.5386 30.7478 19.5899 30.7905 19.6185 30.8246C19.6683 30.884 19.5282 30.7553 19.5282 30.2485H12.9776C12.9776 31.9065 13.4361 33.6455 14.5973 35.0315C15.8129 36.4824 17.5669 37.2593 19.5017 37.2593V30.7087ZM19.5282 30.2485C19.5282 29.8565 19.6463 29.7467 19.6207 29.7751C19.6095 29.7875 19.5909 29.8004 19.5791 29.8055C19.5684 29.81 19.6099 29.7883 19.7331 29.7883V23.2376C17.7941 23.2376 16.0202 23.9878 14.7584 25.3854C13.5284 26.7479 12.9776 28.5058 12.9776 30.2485H19.5282ZM19.7331 29.7883C19.8963 29.7883 19.8977 29.8355 19.7999 29.7639C19.748 29.726 19.6725 29.656 19.6029 29.5437C19.5311 29.428 19.4834 29.2956 19.4654 29.1649L25.9548 28.2711C25.4859 24.8669 22.4014 23.2376 19.7331 23.2376V29.7883ZM22.7101 25.4427H21.2211V31.9934H22.7101V25.4427ZM24.3577 27.7749C24.1119 26.9574 23.6335 26.0245 22.7428 25.2947C21.8178 24.5368 20.7111 24.2143 19.6226 24.2143V30.7649C19.4087 30.7649 18.9907 30.6891 18.5911 30.3616C18.2258 30.0623 18.1093 29.7437 18.0845 29.6611L24.3577 27.7749ZM19.6226 24.2143C17.9226 24.2143 16.5065 25.0785 15.6228 26.3058C14.7801 27.4763 14.4561 28.8908 14.4561 30.2485H21.0068C21.0068 29.8743 21.1002 29.9093 20.9389 30.1334C20.8523 30.2536 20.6952 30.4191 20.4462 30.5544C20.1913 30.6931 19.9034 30.7649 19.6226 30.7649V24.2143ZM14.4561 30.2485C14.4561 31.5764 14.7595 33.0222 15.6471 34.226C16.6042 35.5243 18.0758 36.2927 19.7331 36.2927V29.7421C19.9173 29.7421 20.157 29.7849 20.403 29.9104C20.6477 30.0351 20.8173 30.2 20.9196 30.3387C21.1056 30.591 21.0068 30.6523 21.0068 30.2485H14.4561ZM19.7331 36.2927C21.0355 36.2927 22.4081 35.8294 23.4194 34.6979C24.3875 33.6149 24.6978 32.2861 24.6978 31.1446H18.1471C18.1471 31.1444 18.1467 31.0561 18.1951 30.9082C18.2452 30.755 18.3464 30.5439 18.5354 30.3324C18.9685 29.848 19.4963 29.7421 19.7331 29.7421V36.2927ZM24.6978 31.1446V30.9734H18.1471V31.1446H24.6978ZM21.4225 27.6981H19.4811V34.2487H21.4225V27.6981Z"
    fill="black"
    mask="url(#path-3-inside-2_2057_2894)"
  />
  <mask id="path-5-inside-3_2057_2894" fill="black">
    <path d="M24.2061 26.6741H26.9415C28.9933 26.6741 30.221 28.1542 30.221 30.2485C30.221 32.3428 28.9933 33.8229 26.9415 33.8229H24.2061V26.6741ZM26.8216 27.6407H25.6548V32.8261H26.8216C27.8976 32.8261 28.7021 31.9099 28.7021 30.2485C28.7021 28.5671 27.8976 27.6407 26.8216 27.6407Z" />
  </mask>
  <path d="M24.2061 26.6741H26.9415C28.9933 26.6741 30.221 28.1542 30.221 30.2485C30.221 32.3428 28.9933 33.8229 26.9415 33.8229H24.2061V26.6741ZM26.8216 27.6407H25.6548V32.8261H26.8216C27.8976 32.8261 28.7021 31.9099 28.7021 30.2485C28.7021 28.5671 27.8976 27.6407 26.8216 27.6407Z" fill="black" />
  <path
    d="M24.2061 26.6741V23.3988H20.9307V26.6741H24.2061ZM24.2061 33.8229H20.9307V37.0982H24.2061V33.8229ZM25.6548 27.6407V24.3654H22.3795V27.6407H25.6548ZM25.6548 32.8261H22.3795V36.1014H25.6548V32.8261ZM24.2061 29.9494H26.9415V23.3988H24.2061V29.9494ZM26.9415 29.9494C27.0574 29.9494 27.0781 29.9693 27.0388 29.9526C26.9961 29.9345 26.9449 29.8993 26.9061 29.8558C26.8259 29.7658 26.9457 29.8256 26.9457 30.2485H33.4964C33.4964 28.5771 33.0024 26.8497 31.7953 25.496C30.5495 24.099 28.8056 23.3988 26.9415 23.3988V29.9494ZM26.9457 30.2485C26.9457 30.6714 26.8259 30.7312 26.9062 30.6412C26.945 30.5977 26.9962 30.5625 27.0388 30.5444C27.0781 30.5277 27.0574 30.5476 26.9415 30.5476V37.0982C28.8056 37.0982 30.5495 36.398 31.7952 35.001C33.0023 33.6473 33.4964 31.9199 33.4964 30.2485H26.9457ZM26.9415 30.5476H24.2061V37.0982H26.9415V30.5476ZM27.4814 33.8229V26.6741H20.9307V33.8229H27.4814ZM26.8216 24.3654H25.6548V30.916H26.8216V24.3654ZM22.3795 27.6407V32.8261H28.9301V27.6407H22.3795ZM25.6548 36.1014H26.8216V29.5508H25.6548V36.1014ZM26.8216 36.1014C28.3796 36.1014 29.8084 35.3975 30.7624 34.1561C31.6598 32.9883 31.9774 31.5714 31.9774 30.2485H25.4268C25.4268 30.587 25.3421 30.4589 25.5683 30.1646C25.6873 30.0098 25.8705 29.8429 26.1203 29.7197C26.3699 29.5965 26.6175 29.5508 26.8216 29.5508V36.1014ZM31.9774 30.2485C31.9774 28.9235 31.6636 27.5045 30.7734 26.3327C29.8251 25.0844 28.3943 24.3654 26.8216 24.3654V30.916C26.6118 30.916 26.3595 30.8684 26.1071 30.7425C25.8551 30.6167 25.6732 30.448 25.5573 30.2954C25.3383 30.0071 25.4268 29.8921 25.4268 30.2485H31.9774Z"
    fill="black"
    mask="url(#path-5-inside-3_2057_2894)"
  />
  <mask id="path-7-inside-4_2057_2894" fill="black">
    <path d="M31.5059 26.6741H34.6337C36.1021 26.6741 37.047 27.5198 37.047 28.8792C37.047 30.2384 36.1021 31.0741 34.6337 31.0741H32.9639V33.8229H31.5059V26.6741ZM34.4623 27.6407H32.9537V30.1075H34.4623C35.1459 30.1075 35.6086 29.6847 35.6086 28.8792C35.6086 28.0636 35.1459 27.6407 34.4623 27.6407Z" />
  </mask>
  <path d="M31.5059 26.6741H34.6337C36.1021 26.6741 37.047 27.5198 37.047 28.8792C37.047 30.2384 36.1021 31.0741 34.6337 31.0741H32.9639V33.8229H31.5059V26.6741ZM34.4623 27.6407H32.9537V30.1075H34.4623C35.1459 30.1075 35.6086 29.6847 35.6086 28.8792C35.6086 28.0636 35.1459 27.6407 34.4623 27.6407Z" fill="black" />
  <path
    d="M31.5059 26.6741V23.3988H28.2305V26.6741H31.5059ZM32.9639 31.0741V27.7988H29.6886V31.0741H32.9639ZM32.9639 33.8229V37.0982H36.2393V33.8229H32.9639ZM31.5059 33.8229H28.2305V37.0982H31.5059V33.8229ZM32.9537 27.6407V24.3654H29.6783V27.6407H32.9537ZM32.9537 30.1075H29.6783V33.3828H32.9537V30.1075ZM31.5059 29.9494H34.6337V23.3988H31.5059V29.9494ZM34.6337 29.9494C34.7524 29.9494 34.5042 29.9779 34.1886 29.6911C34.0352 29.5518 33.9194 29.3819 33.8484 29.2098C33.7795 29.0427 33.7717 28.9204 33.7717 28.8792H40.3223C40.3223 27.4017 39.7841 25.9243 38.5934 24.8426C37.4382 23.7931 35.9834 23.3988 34.6337 23.3988V29.9494ZM33.7717 28.8792C33.7717 28.8379 33.7795 28.7134 33.85 28.5431C33.9226 28.3676 34.0409 28.1953 34.1966 28.0548C34.5153 27.7672 34.7623 27.7988 34.6337 27.7988V34.3495C35.9735 34.3495 37.4271 33.9632 38.5854 32.9179C39.7826 31.8374 40.3223 30.3582 40.3223 28.8792H33.7717ZM34.6337 27.7988H32.9639V34.3495H34.6337V27.7988ZM29.6886 31.0741V33.8229H36.2393V31.0741H29.6886ZM32.9639 30.5476H31.5059V37.0982H32.9639V30.5476ZM34.7812 33.8229V26.6741H28.2305V33.8229H34.7812ZM34.4623 24.3654H32.9537V30.916H34.4623V24.3654ZM29.6783 27.6407V30.1075H36.229V27.6407H29.6783ZM32.9537 33.3828H34.4623V26.8322H32.9537V33.3828ZM34.4623 33.3828C35.484 33.3828 36.6912 33.0526 37.6377 32.0812C38.5787 31.1153 38.8839 29.9045 38.8839 28.8792H32.3332C32.3332 28.6594 32.4071 28.0627 32.9459 27.5097C33.4902 26.9511 34.1243 26.8322 34.4623 26.8322V33.3828ZM38.8839 28.8792C38.8839 27.8593 38.5848 26.6464 37.6447 25.6756C36.6965 24.6964 35.4848 24.3654 34.4623 24.3654V30.916C34.1235 30.916 33.4849 30.7964 32.9389 30.2326C32.401 29.6772 32.3332 29.0834 32.3332 28.8792H38.8839Z"
    fill="black"
    mask="url(#path-7-inside-4_2057_2894)"
  />
  <mask id="path-9-inside-5_2057_2894" fill="black">
    <path d="M42.2049 30.8929L43.9552 33.8229H42.3257L40.686 30.9936H39.6905V33.8229H38.2324V26.6741H41.4005C42.7884 26.6741 43.7941 27.5198 43.7941 28.8389C43.7941 29.886 43.1601 30.6311 42.2049 30.8929ZM39.6802 27.6508V30.027H41.2095C41.8828 30.027 42.3557 29.6041 42.3557 28.8389C42.3557 28.0636 41.8828 27.6508 41.2095 27.6508H39.6802Z" />
  </mask>
  <path d="M42.2049 30.8929L43.9552 33.8229H42.3257L40.686 30.9936H39.6905V33.8229H38.2324V26.6741H41.4005C42.7884 26.6741 43.7941 27.5198 43.7941 28.8389C43.7941 29.886 43.1601 30.6311 42.2049 30.8929ZM39.6802 27.6508V30.027H41.2095C41.8828 30.027 42.3557 29.6041 42.3557 28.8389C42.3557 28.0636 41.8828 27.6508 41.2095 27.6508H39.6802Z" fill="black" />
  <path
    d="M42.2049 30.8929L41.3393 27.7341L37.1831 28.873L39.3931 32.5726L42.2049 30.8929ZM43.9552 33.8229V37.0982H49.727L46.767 32.1432L43.9552 33.8229ZM42.3257 33.8229L39.492 35.4653L40.4384 37.0982H42.3257V33.8229ZM40.686 30.9936L43.5198 29.3512L42.5734 27.7183H40.686V30.9936ZM39.6905 30.9936V27.7183H36.4152V30.9936H39.6905ZM39.6905 33.8229V37.0982H42.9658V33.8229H39.6905ZM38.2324 33.8229H34.9571V37.0982H38.2324V33.8229ZM38.2324 26.6741V23.3988H34.9571V26.6741H38.2324ZM39.6802 27.6508V24.3755H36.4049V27.6508H39.6802ZM39.6802 30.027H36.4049V33.3023H39.6802V30.027ZM39.3931 32.5726L41.1434 35.5026L46.767 32.1432L45.0168 29.2132L39.3931 32.5726ZM43.9552 30.5476H42.3257V37.0982H43.9552V30.5476ZM45.1595 32.1805L43.5198 29.3512L37.8522 32.636L39.492 35.4653L45.1595 32.1805ZM40.686 27.7183H39.6905V34.2689H40.686V27.7183ZM36.4152 30.9936V33.8229H42.9658V30.9936H36.4152ZM39.6905 30.5476H38.2324V37.0982H39.6905V30.5476ZM41.5077 33.8229V26.6741H34.9571V33.8229H41.5077ZM38.2324 29.9494H41.4005V23.3988H38.2324V29.9494ZM41.4005 29.9494C41.4404 29.9494 41.2213 29.9574 40.9463 29.7138C40.8098 29.593 40.6931 29.4362 40.6152 29.2582C40.5376 29.0812 40.5188 28.9304 40.5188 28.8389H47.0695C47.0695 27.2909 46.4521 25.8397 45.2893 24.8098C44.1644 23.8136 42.7485 23.3988 41.4005 23.3988V29.9494ZM40.5188 28.8389C40.5188 28.6758 40.5788 28.393 40.7929 28.1234C40.9973 27.866 41.2268 27.7649 41.3393 27.7341L43.0706 34.0518C45.344 33.4288 47.0695 31.4675 47.0695 28.8389H40.5188ZM36.4049 27.6508V30.027H42.9555V27.6508H36.4049ZM39.6802 33.3023H41.2095V26.7517H39.6802V33.3023ZM41.2095 33.3023C42.2345 33.3023 43.4138 32.9685 44.3453 32.0417C45.2851 31.1066 45.631 29.9084 45.631 28.8389H39.0804C39.0804 28.5345 39.1899 27.9304 39.7249 27.3981C40.2516 26.874 40.8578 26.7517 41.2095 26.7517V33.3023ZM45.631 28.8389C45.631 27.7743 45.2906 26.5669 44.3379 25.625C43.3963 24.6941 42.2133 24.3755 41.2095 24.3755V30.9261C40.879 30.9261 40.2691 30.8139 39.7323 30.2832C39.1843 29.7415 39.0804 29.1282 39.0804 28.8389H45.631ZM41.2095 24.3755H39.6802V30.9261H41.2095V24.3755Z"
    fill="black"
    mask="url(#path-9-inside-5_2057_2894)"
  />
</svg>
