<svg width="61" height="60" viewBox="0 0 61 60" fill="none" xmlns="http://www.w3.org/2000/svg">
  <path d="M16.6989 0.866163H44.3031C52.7696 0.866163 59.6348 7.73774 59.6348 16.2163V43.7837C59.6348 52.2623 52.7696 59.1338 44.3031 59.1338H16.6989C8.23233 59.1338 1.36714 52.2623 1.36714 43.7837V16.2163C1.36714 7.73774 8.23233 0.866163 16.6989 0.866163Z" stroke="black" stroke-width="1.73233" />
  <path d="M7.0957 26.7432H8.49858V33.6203H7.0957V26.7432Z" fill="black" />
  <path d="M12.4479 26.5887C13.7541 26.5887 14.9925 27.2861 15.0409 28.5453H13.6767C13.6573 27.9254 13.1445 27.4991 12.3801 27.4991C11.6352 27.4991 11.2482 27.9738 11.2482 28.4774C11.2482 29.0974 11.7997 29.3008 12.9123 29.5332C14.5184 29.8722 15.2344 30.4824 15.2344 31.6448C15.2344 32.9233 14.2281 33.7757 12.5737 33.7757C10.8516 33.7757 9.77759 32.9717 9.7002 31.6254H11.1127C11.1902 32.4584 11.9157 32.8555 12.6318 32.8555C13.3767 32.8555 13.9088 32.41 13.9088 31.7417C13.9088 31.0055 13.2703 30.8215 12.206 30.589C10.4162 30.2016 9.93239 29.5914 9.93239 28.5743C9.93239 27.4605 10.8612 26.5887 12.4479 26.5887Z" fill="black" />
  <path d="M19.5042 26.5887C21.5649 26.5887 22.8034 28.1384 22.8034 30.1822C22.8034 32.2259 21.5649 33.7757 19.5042 33.7757C17.4531 33.7757 16.1953 32.2259 16.1953 30.1822C16.1953 28.1384 17.4531 26.5887 19.5042 26.5887ZM19.5042 27.5282C18.3819 27.5282 17.6369 28.5743 17.6369 30.1822C17.6369 31.7901 18.3819 32.8361 19.5042 32.8361C20.6459 32.8361 21.3618 31.8094 21.3618 30.1822C21.3618 28.5549 20.6459 27.5282 19.5042 27.5282Z" fill="black" />
  <path d="M24.0342 28.7485H25.4467V29.998H24.0342V28.7485ZM24.0342 32.371H25.4467V33.6205H24.0342V32.371Z" fill="black" />
  <path d="M29.5762 31.8095L28.7345 32.6232H31.5983V33.6207H26.8479V32.7685L28.6281 31.0346C29.4505 30.2404 30.2051 29.4558 30.2051 28.6132C30.2051 27.9157 29.8181 27.4992 29.2376 27.4992C28.6087 27.4992 28.1539 28.0708 28.1153 28.7875H26.7607C26.7898 27.5961 27.854 26.6082 29.2376 26.6082C30.8049 26.6082 31.5499 27.538 31.5499 28.6132C31.5499 29.8529 30.6405 30.7731 29.5762 31.8095Z" fill="black" />
  <path d="M32.4463 27.7409V26.7432H37.0516V27.5666C35.9391 28.971 34.865 31.4701 34.7199 33.6203H33.2203C33.4525 31.4797 34.6909 29.2229 35.8616 27.7409H32.4463Z" fill="black" />
  <path d="M40.2998 33.7758C38.5002 33.7758 37.7939 32.1388 37.7939 30.1919C37.7939 28.2161 38.5292 26.6082 40.2998 26.6082C42.0896 26.6082 42.8056 28.2354 42.8056 30.1919C42.8056 32.1873 42.0703 33.7758 40.2998 33.7758ZM40.2998 32.8846C41.1995 32.8846 41.4511 31.703 41.4511 30.1919C41.4511 28.681 41.1802 27.4992 40.2998 27.4992C39.4193 27.4992 39.1678 28.6906 39.1678 30.1919C39.1678 31.6933 39.4193 32.8846 40.2998 32.8846Z" fill="black" />
  <path d="M46.1504 33.7758C44.3508 33.7758 43.6445 32.1388 43.6445 30.1919C43.6445 28.2161 44.3798 26.6082 46.1504 26.6082C47.9402 26.6082 48.6562 28.2354 48.6562 30.1919C48.6562 32.1873 47.9209 33.7758 46.1504 33.7758ZM46.1504 32.8846C47.0502 32.8846 47.3017 31.703 47.3017 30.1919C47.3017 28.681 47.0308 27.4992 46.1504 27.4992C45.27 27.4992 45.0184 28.6906 45.0184 30.1919C45.0184 31.6933 45.27 32.8846 46.1504 32.8846Z" fill="black" />
  <path d="M49.6602 27.8959L51.1597 26.7432H52.2047V33.6203H50.8598V28.0993L49.6602 28.9904V27.8959Z" fill="black" />
  <mask id="mask0_2057_2909" style="mask-type: luminance" maskUnits="userSpaceOnUse" x="14" y="11" width="32" height="38">
    <path d="M45.9485 11.8929H14V48.1997H45.9485V11.8929Z" fill="black" />
  </mask>
  <g mask="url(#mask0_2057_2909)">
    <path d="M41.1531 42.6362C39.8987 41.6507 38.5172 40.84 37.0563 40.2042L37.5327 38.4557L36.2783 38.1537L35.8495 39.7433C32.0386 38.4398 27.91 38.4398 24.0991 39.7433L23.6704 38.1537L22.4159 38.4557L22.8923 40.2042C21.4314 40.8241 20.05 41.6507 18.7955 42.6362C17.3187 41.3169 16.0802 39.7433 15.1433 37.9948L14 38.6146C18.7161 47.4525 29.7044 50.7747 38.5331 46.0537C41.6771 44.3529 44.2654 41.762 45.9486 38.5987L44.8053 37.9948C43.8684 39.7433 42.6299 41.3169 41.1531 42.6362ZM21.3361 44.5118C20.8121 44.1939 20.304 43.8443 19.8118 43.4628C20.8756 42.6521 22.0507 41.9686 23.2892 41.4282C23.8768 43.0177 24.5913 44.3847 25.4011 45.4497C25.6711 45.8153 25.9728 46.165 26.2904 46.4829C24.5437 46.1014 22.8764 45.4338 21.3361 44.5118ZM29.9743 46.8803C28.7198 46.8803 27.513 46.0696 26.4651 44.6708C25.7346 43.7012 25.0836 42.4454 24.5278 40.9672C26.2745 40.3631 28.1164 40.0612 29.9743 40.0612C31.8322 40.0612 33.6741 40.3631 35.4367 40.9672C34.8968 42.4295 34.2299 43.7012 33.4995 44.6708C32.4514 46.0696 31.2288 46.8803 29.9743 46.8803ZM38.5966 44.5118C37.0722 45.4338 35.3891 46.0855 33.6424 46.4988C33.9599 46.1809 34.2616 45.8311 34.5316 45.4656C35.3414 44.3847 36.056 43.0335 36.6435 41.444C37.882 41.9845 39.0412 42.668 40.121 43.4786C39.6287 43.8443 39.1206 44.1939 38.5966 44.5118Z" fill="black" />
    <path d="M18.7955 17.4416C20.05 18.4271 21.4155 19.2378 22.8923 19.8735L22.4159 21.622L23.6704 21.9241L24.0991 20.3346C25.9887 20.9863 27.9736 21.3201 29.9743 21.3201C31.975 21.3201 33.9599 20.9863 35.8495 20.3346L36.2783 21.9241L37.5327 21.622L37.0563 19.8735C38.5172 19.2536 39.8987 18.4271 41.1531 17.4416C42.6299 18.7608 43.8684 20.3346 44.8053 22.0831L45.9486 21.479C41.2326 12.6411 30.2601 9.319 21.4314 14.04C18.2715 15.7249 15.6832 18.3158 14 21.479L15.1433 22.0831C16.0802 20.3346 17.3187 18.7608 18.7955 17.4416ZM38.5966 15.5818C39.1365 15.8997 39.6446 16.2335 40.121 16.615C39.0571 17.4257 37.882 18.1091 36.6435 18.6496C36.056 17.0759 35.3414 15.7089 34.5316 14.644C34.2616 14.2783 33.9599 13.9287 33.6424 13.6108C35.3891 13.9923 37.0563 14.6598 38.5966 15.5818ZM29.9743 13.1975C31.2446 13.1975 32.4514 14.0081 33.4995 15.407C34.2299 16.3766 34.8809 17.6323 35.4367 19.1106C33.6741 19.7146 31.8322 20.0166 29.9743 20.0166C28.1164 20.0325 26.2745 19.7146 24.512 19.1106C25.0519 17.6323 25.7188 16.3766 26.4492 15.407C27.4972 14.0081 28.704 13.1975 29.9743 13.1975ZM21.3361 15.5818C22.8923 14.6598 24.5595 13.9923 26.2904 13.6108C25.9728 13.9287 25.6711 14.2783 25.4011 14.644C24.5913 15.7089 23.8768 17.0601 23.2892 18.6496C22.0507 18.1251 20.8916 17.4416 19.8118 16.615C20.304 16.2494 20.8121 15.8997 21.3361 15.5818Z" fill="black" />
  </g>
</svg>
