<svg width="24" height="24" viewBox="0 0 24 24" fill="none" xmlns="http://www.w3.org/2000/svg">
<path d="M12.1048 15.7015C12.2723 15.7015 12.4396 15.6345 12.5535 15.5072L17.7366 10.197C17.8504 10.0831 17.9174 9.93582 17.9174 9.76842C17.9174 9.4202 17.6562 9.15234 17.308 9.15234C17.1406 9.15234 16.9866 9.21931 16.8727 9.32645L11.7432 14.5698H12.4598L7.33028 9.32645C7.22314 9.21931 7.06912 9.15234 6.89502 9.15234C6.54681 9.15234 6.28564 9.4202 6.28564 9.76842C6.28564 9.93582 6.35261 10.0831 6.46645 10.2037L11.6495 15.5072C11.7767 15.6345 11.9307 15.7015 12.1048 15.7015Z" fill="black"/>
</svg>
