<svg width="206" height="100" viewBox="0 0 206 100" fill="none" xmlns="http://www.w3.org/2000/svg">
<path d="M50.3396 35.3806L68.0458 34.0728C70.2208 33.8862 70.7795 34.012 72.1472 35.0062L77.7992 38.9879C78.7314 39.6727 79.0418 39.8592 79.0418 40.6048V62.4422C79.0418 63.8108 78.5448 64.6204 76.805 64.7439L56.2435 65.9893C54.9379 66.051 54.3162 65.8645 53.6323 64.9931L49.4702 59.5808C48.7236 58.5846 48.4142 57.839 48.4142 56.9674V37.5566C48.4142 36.4375 48.9111 35.5044 50.3396 35.3806Z" fill="white"/>
<path fill-rule="evenodd" clip-rule="evenodd" d="M68.0458 34.0731L50.3396 35.3809C48.9111 35.5044 48.4142 36.4379 48.4142 37.5566V56.9674C48.4142 57.8387 48.7236 58.5843 49.4702 59.5808L53.6323 64.9928C54.3161 65.8642 54.9379 66.051 56.2435 65.989L76.8053 64.7442C78.5438 64.6203 79.0421 63.8108 79.0421 62.4425V40.6051C79.0421 39.898 78.7627 39.6941 77.9403 39.0906L72.1472 35.0062C70.7798 34.012 70.2208 33.8862 68.0458 34.0728V34.0731ZM56.7084 40.2477C55.0294 40.3607 54.6486 40.3863 53.695 39.6109L51.2708 37.6826C51.0244 37.433 51.1482 37.1217 51.769 37.0596L68.7904 35.8158C70.2198 35.691 70.9641 36.1892 71.5232 36.6244L74.4425 38.7396C74.5673 38.8026 74.8777 39.1748 74.5042 39.1748L56.926 40.233L56.7084 40.2477ZM54.751 62.2559V43.7177C54.751 42.9081 54.9997 42.5347 55.744 42.472L75.9337 41.2899C76.6184 41.2282 76.9279 41.6634 76.9279 42.4717V60.8863C76.9279 61.6959 76.8031 62.3807 75.6853 62.4425L56.3651 63.5625C55.2473 63.6242 54.7513 63.2521 54.7513 62.2559H54.751ZM73.8227 44.7116C73.9465 45.2716 73.8227 45.8316 73.2627 45.8956L72.3315 46.0802V59.7673C71.5229 60.2025 70.7786 60.4512 70.1565 60.4512C69.1623 60.4512 68.9139 60.1398 68.1693 59.2073L62.0798 49.6267V58.896L64.0062 59.3321C64.0062 59.3321 64.0062 60.4521 62.452 60.4521L58.1673 60.7007C58.0425 60.4512 58.1673 59.8294 58.6015 59.7056L59.7205 59.3952V47.1394L58.1676 47.0137C58.0428 46.4537 58.3532 45.645 59.2236 45.5823L63.8209 45.2729L70.1568 54.9773V46.3919L68.5418 46.2063C68.417 45.5206 68.9139 45.0223 69.5347 44.9615L73.8227 44.7116Z" fill="black"/>
<path d="M146.596 58.4001V45.9784H149.502V47.9237H149.572C149.893 47.2519 150.369 46.7167 151.002 46.3183C151.642 45.9198 152.432 45.7206 153.369 45.7206C154.736 45.7206 155.791 46.1347 156.533 46.9628C157.283 47.7909 157.658 48.9237 157.658 50.3612V58.4001H154.74V50.9471C154.74 50.0643 154.533 49.3846 154.119 48.9081C153.705 48.4237 153.084 48.1815 152.256 48.1815C151.701 48.1815 151.217 48.3104 150.803 48.5682C150.389 48.8182 150.068 49.1698 149.842 49.6229C149.615 50.0682 149.502 50.5916 149.502 51.1932V58.4001H146.596Z" fill="black"/>
<path d="M138.469 58.6463C137.25 58.6463 136.191 58.3884 135.293 57.8728C134.394 57.3494 133.695 56.6072 133.195 55.6463C132.703 54.6776 132.457 53.5253 132.457 52.1893V52.1659C132.457 50.8378 132.707 49.6933 133.207 48.7324C133.707 47.7637 134.406 47.0215 135.305 46.5059C136.203 45.9824 137.254 45.7207 138.457 45.7207C139.668 45.7207 140.722 45.9824 141.621 46.5059C142.527 47.0215 143.23 47.7597 143.73 48.7207C144.23 49.6816 144.48 50.83 144.48 52.1659V52.1893C144.48 53.5331 144.23 54.6893 143.73 55.658C143.238 56.6189 142.543 57.3572 141.644 57.8728C140.746 58.3884 139.687 58.6463 138.469 58.6463ZM138.48 56.2908C139.098 56.2908 139.633 56.1307 140.086 55.8104C140.539 55.4901 140.887 55.0252 141.129 54.4159C141.379 53.7987 141.504 53.0565 141.504 52.1893V52.1659C141.504 51.3066 141.379 50.5722 141.129 49.9628C140.879 49.3535 140.523 48.8886 140.062 48.5683C139.609 48.248 139.074 48.0879 138.457 48.0879C137.855 48.0879 137.324 48.248 136.863 48.5683C136.41 48.8886 136.055 49.3535 135.797 49.9628C135.547 50.5722 135.422 51.3066 135.422 52.1659V52.1893C135.422 53.0565 135.547 53.7987 135.797 54.4159C136.055 55.0252 136.41 55.4901 136.863 55.8104C137.324 56.1307 137.863 56.2908 138.48 56.2908Z" fill="black"/>
<path d="M127.571 58.4V45.9784H130.488V58.4H127.571ZM129.024 44.1972C128.571 44.1972 128.188 44.0409 127.875 43.7284C127.563 43.4159 127.406 43.0409 127.406 42.6034C127.406 42.1581 127.563 41.7831 127.875 41.4785C128.188 41.166 128.571 41.0097 129.024 41.0097C129.485 41.0097 129.871 41.166 130.184 41.4785C130.496 41.7831 130.653 42.1581 130.653 42.6034C130.653 43.0409 130.496 43.4159 130.184 43.7284C129.871 44.0409 129.485 44.1972 129.024 44.1972Z" fill="black"/>
<path d="M123.791 58.6462C122.502 58.6462 121.541 58.365 120.908 57.8025C120.283 57.24 119.971 56.3181 119.971 55.0369V48.2284H118.213V45.9785H119.971V42.8262H122.935V45.9785H125.244V48.2284H122.935V54.8025C122.935 55.4041 123.068 55.822 123.334 56.0564C123.607 56.283 124.006 56.3962 124.529 56.3962C124.678 56.3962 124.807 56.3923 124.916 56.3845C125.033 56.3689 125.142 56.3572 125.244 56.3494V58.5407C125.072 58.5642 124.861 58.5876 124.611 58.611C124.369 58.6345 124.096 58.6462 123.791 58.6462Z" fill="black"/>
<path d="M111.06 58.6463C109.842 58.6463 108.783 58.3884 107.885 57.8728C106.986 57.3494 106.287 56.6072 105.787 55.6463C105.295 54.6776 105.049 53.5253 105.049 52.1893V52.1659C105.049 50.8378 105.299 49.6933 105.799 48.7324C106.299 47.7637 106.998 47.0215 107.896 46.5059C108.795 45.9824 109.846 45.7207 111.049 45.7207C112.26 45.7207 113.314 45.9824 114.213 46.5059C115.119 47.0215 115.822 47.7597 116.322 48.7207C116.822 49.6816 117.072 50.83 117.072 52.1659V52.1893C117.072 53.5331 116.822 54.6893 116.322 55.658C115.83 56.6189 115.135 57.3572 114.236 57.8728C113.338 58.3884 112.279 58.6463 111.06 58.6463ZM111.072 56.2908C111.689 56.2908 112.224 56.1307 112.678 55.8104C113.131 55.4901 113.478 55.0252 113.721 54.4159C113.971 53.7987 114.096 53.0565 114.096 52.1893V52.1659C114.096 51.3066 113.971 50.5722 113.721 49.9628C113.471 49.3535 113.115 48.8886 112.654 48.5683C112.201 48.248 111.666 48.0879 111.049 48.0879C110.447 48.0879 109.916 48.248 109.455 48.5683C109.002 48.8886 108.646 49.3535 108.389 49.9628C108.139 50.5722 108.014 51.3066 108.014 52.1659V52.1893C108.014 53.0565 108.139 53.7987 108.389 54.4159C108.646 55.0252 109.002 55.4901 109.455 55.8104C109.916 56.1307 110.455 56.2908 111.072 56.2908Z" fill="black"/>
<path d="M88.6014 58.4002V41.4904H91.3201L101.211 55.7167L98.3513 53.3496H99.6286V41.4904H102.629V58.4002H99.9333L90.0311 44.1388L92.8904 46.4942H91.6014V58.4002H88.6014Z" fill="black"/>
</svg>
