<svg width="206" height="100" viewBox="0 0 206 100" fill="none" xmlns="http://www.w3.org/2000/svg">
<g clip-path="url(#clip0_133_75)">
<path d="M51.4385 33.3255C53.8465 32.3536 56.5119 32.0424 59.0808 32.411C62.6564 32.9098 66.0098 34.7881 68.3239 37.5565C69.5496 39.0104 70.4928 40.7022 71.0788 42.5117C71.8052 44.7397 71.9781 47.1411 71.6052 49.4536C71.2739 51.5233 70.4917 53.5204 69.3235 55.261C68.4302 56.5967 67.3146 57.7822 66.0428 58.7639C65.9333 58.8491 65.8368 58.9488 65.7403 59.048C64.2106 60.6022 62.1978 61.657 60.0604 62.0734C59.7866 62.1292 59.5107 62.1731 59.2348 62.2132C59.3253 62.5992 59.4565 62.9743 59.6067 63.3413C59.5069 63.44 59.4072 63.5397 59.3074 63.6395C59.038 63.4888 58.6602 63.5733 58.5198 63.8585C58.3382 64.1729 58.5593 64.613 58.9177 64.6597C59.2077 64.7144 59.4603 64.522 59.6419 64.3187C59.7579 64.7941 59.7205 65.3112 59.482 65.7438C59.0131 66.6215 58.149 67.2237 57.2388 67.5788C57.1082 67.6211 56.97 67.7111 56.8317 67.6455C55.8739 67.3121 54.9583 66.7147 54.4379 65.8235C54.1668 65.3752 54.1077 64.8266 54.2351 64.3225C54.4167 64.5485 54.7089 64.7307 55.0076 64.6483C55.3231 64.5724 55.5101 64.1891 55.3703 63.8948C55.2521 63.6037 54.8764 63.479 54.6027 63.627C54.4948 63.5294 54.3923 63.4259 54.2899 63.3223C54.523 62.9217 54.7409 62.5103 54.897 62.0728C54.3316 61.9622 53.7798 61.7942 53.2269 61.6392C52.5005 61.9026 51.6917 61.9481 50.9512 61.7151C49.8171 61.3784 48.9037 60.4243 48.598 59.2838C46.3169 57.734 44.4847 55.5331 43.3783 53.007C42.4014 50.7948 41.9867 48.3402 42.1721 45.9295C42.364 43.3465 43.2606 40.8215 44.7346 38.6922C46.3803 36.2989 48.7417 34.4054 51.4385 33.3255ZM55.1664 32.7883C52.5292 33.1125 49.9933 34.1972 47.9301 35.8695C45.6046 37.7392 43.8802 40.3461 43.0877 43.224C42.3841 45.755 42.3955 48.479 43.1191 51.004C43.9859 54.0695 45.9147 56.8173 48.4934 58.6864C48.4289 57.9709 48.6023 57.2439 48.9639 56.6254C48.7888 56.4595 48.6208 56.2866 48.4614 56.1056C48.4999 56.0774 48.5384 56.0492 48.5774 56.0215C48.7422 56.1652 48.9211 56.292 49.1016 56.4167C49.4708 55.892 49.9803 55.4702 50.5663 55.2095C49.4046 54.2993 48.4386 53.1393 47.761 51.8274C46.8639 50.128 46.4627 48.1705 46.6178 46.2548C46.7695 44.2258 47.5491 42.251 48.8154 40.6589C50.1516 38.9648 52.0261 37.7012 54.1023 37.1115C55.8175 36.6209 57.6589 36.5802 59.3931 36.9976C61.1516 37.4183 62.7925 38.3116 64.1027 39.5579C65.2151 40.6106 66.0927 41.9116 66.6451 43.3411C67.2322 44.8508 67.4501 46.5004 67.2858 48.1109C67.0956 50.0342 66.3421 51.8941 65.15 53.4146C63.8772 55.0474 62.1084 56.2904 60.1341 56.9181C59.9178 56.9767 59.727 57.109 59.5969 57.2911C59.2619 57.7546 59.1312 58.333 59.077 58.8935C61.2448 59.3825 63.5595 59.2898 65.6509 58.5211C67.9125 56.8357 69.6504 54.456 70.5692 51.7895C71.3368 49.5707 71.5461 47.1628 71.1861 44.8438C70.8701 42.7974 70.0982 40.8242 68.9484 39.1031C67.3357 36.6789 64.9749 34.7588 62.2661 33.6876C60.0262 32.7938 57.5581 32.4886 55.1664 32.7883ZM55.2743 37.2725C53.3396 37.5988 51.5144 38.5268 50.0996 39.8842C48.604 41.3066 47.567 43.2056 47.194 45.2368C46.8731 46.9411 47.0097 48.7294 47.593 50.3633C48.2288 52.1722 49.4025 53.7849 50.923 54.9531C50.9788 54.9905 51.0374 55.0588 51.1127 55.0246C51.6955 54.8772 52.3151 54.8777 52.8946 55.0409C53.8286 55.2941 54.646 55.9522 55.0835 56.8168C57.0898 57.2082 59.2164 56.9577 61.0746 56.1056C62.8353 55.306 64.3494 53.9784 65.3777 52.3413C66.5936 50.4261 67.1107 48.0843 66.8245 45.8347C66.6261 44.209 66.0108 42.6375 65.0584 41.3061C64.0105 39.8349 62.5583 38.6542 60.899 37.9403C59.1426 37.176 57.1608 36.9445 55.2743 37.2725ZM49.4626 56.6525C49.6469 56.7631 49.8323 56.8721 50.0199 56.9778C50.4812 56.3473 51.2493 55.9489 52.0343 55.9706C52.4132 55.9695 52.7818 56.0768 53.1255 56.2308C53.5765 56.4178 54.04 56.5739 54.5132 56.6932C53.9587 55.8584 52.9775 55.3239 51.973 55.3309C50.9848 55.3212 50.0188 55.8389 49.4626 56.6525ZM50.4058 57.187C50.9588 57.4635 51.5188 57.7264 52.089 57.966C52.2538 58.0392 52.4511 58.1026 52.5324 58.2804C52.6723 58.5411 52.514 58.9022 52.2229 58.9678C52.0083 59.0339 51.8153 58.8908 51.6418 58.7867C51.1181 58.4463 50.6221 58.0652 50.1446 57.663C49.9207 58.1807 49.9516 58.7986 50.2026 59.3011C50.4378 59.7733 50.8682 60.1132 51.3263 60.3555C52.6457 61.0765 54.1012 61.5335 55.5817 61.7768C56.751 61.9731 57.9462 61.9557 59.1199 61.8099C60.3531 61.6533 61.5674 61.3107 62.6792 60.7496C63.5135 60.3338 64.2821 59.7939 64.9771 59.1743C63.0982 59.6925 61.0985 59.7413 59.1925 59.3413C57.1955 58.9347 55.3198 58.0701 53.5928 57.0054C53.1949 56.7853 52.8214 56.4872 52.3595 56.4178C51.6304 56.2785 50.846 56.5907 50.4058 57.187ZM49.2848 56.9317C48.978 57.5139 48.8512 58.192 48.9547 58.8442C49.094 59.8405 49.7656 60.7382 50.6769 61.161C51.2623 61.4435 51.9329 61.5091 52.5699 61.4012C51.9009 61.1139 51.2228 60.8298 50.6205 60.4146C50.2177 60.1251 49.8822 59.7294 49.7087 59.261C49.4773 58.6539 49.5168 57.9584 49.7879 57.3708C49.6209 57.2233 49.4556 57.0743 49.2848 56.9317ZM54.5772 57.1144C54.9518 57.3209 55.3345 57.5112 55.7183 57.6993C55.805 57.5795 55.9031 57.4689 56.0126 57.3702C55.5286 57.3204 55.0531 57.213 54.5772 57.1144ZM57.0166 57.4131C56.6599 57.4104 56.3037 57.5795 56.0999 57.876C56.9195 58.2528 57.7717 58.5596 58.6445 58.7894C58.7014 58.2229 58.8532 57.6543 59.1714 57.1756C58.4634 57.3269 57.7403 57.4076 57.0166 57.4131ZM54.8878 63.1277C55.1388 63.1565 55.3941 63.2383 55.5735 63.4242C55.9628 63.7961 55.9514 64.4938 55.5475 64.8499C55.3003 65.0754 54.9436 65.1291 54.6233 65.0722C54.7263 65.5601 55.0304 65.978 55.3914 66.3108C55.8272 66.7114 56.3509 67.0177 56.9125 67.2053C57.2638 67.137 57.5879 66.9445 57.8969 66.7646C58.5122 66.3726 59.0982 65.8127 59.25 65.0711C58.9041 65.1405 58.5181 65.0527 58.2742 64.7881C57.9023 64.4049 57.9305 63.7094 58.3452 63.3679C58.542 63.1955 58.8082 63.1315 59.0646 63.131C58.9637 62.8464 58.8635 62.5607 58.7973 62.2658C57.6438 62.3824 56.475 62.3628 55.3318 62.1579C55.212 62.4929 55.0624 62.8171 54.8878 63.1277Z" fill="#111111"/>
<path d="M54.1277 33.6627C54.2736 33.6156 54.4216 33.5749 54.5701 33.5337C54.4579 34.1089 54.3289 34.6813 54.2259 35.2576C54.3001 35.592 54.414 35.9162 54.5029 36.2474C54.3739 36.2853 54.2443 36.3238 54.1164 36.365C54.0166 36.0728 53.9456 35.7714 53.8562 35.4755C53.8329 35.3719 53.7488 35.3015 53.6805 35.2272C53.3667 34.9079 53.0631 34.5789 52.7481 34.2607C52.7031 34.2108 52.6484 34.1642 52.6273 34.098C52.7579 34.0552 52.8907 34.0205 53.0219 33.9793C53.3228 34.2818 53.6133 34.5946 53.9109 34.9003C53.9814 34.4878 54.0632 34.0769 54.1277 33.6627Z" fill="#111111"/>
<path d="M60.2984 33.8844C60.7955 33.7814 61.3495 34.041 61.5576 34.5099C61.8205 35.1062 61.6211 35.8587 61.131 36.2777C60.8123 36.5547 60.3347 36.6084 59.9509 36.4425C59.5411 36.2771 59.2711 35.8538 59.2587 35.4169C59.2185 34.762 59.6126 34.0161 60.2984 33.8844ZM60.3477 34.2546C59.9693 34.3739 59.7579 34.7664 59.6929 35.1355C59.63 35.4667 59.7118 35.8641 60.0122 36.056C60.2978 36.2544 60.7147 36.1812 60.931 35.9134C61.202 35.5849 61.3419 35.1138 61.2042 34.7002C61.0936 34.3565 60.693 34.1446 60.3477 34.2546Z" fill="#111111"/>
<path d="M56.8247 34.3652C57.0708 34.2638 57.3603 34.5121 57.293 34.7712C57.2524 35.0287 56.9006 35.1491 56.7119 34.9675C56.5081 34.8054 56.5753 34.4427 56.8247 34.3652Z" fill="#111111"/>
<path d="M49.955 35.3139C50.5144 35.0239 51.0733 34.7334 51.6322 34.4423C51.6858 34.548 51.7395 34.6537 51.7926 34.7594C51.5747 34.8705 51.359 34.9844 51.1427 35.0982C51.488 35.7552 51.8246 36.4171 52.1748 37.0714C52.0539 37.1402 51.9314 37.2058 51.8083 37.2698C51.4625 36.6095 51.1183 35.9482 50.774 35.2868C50.5561 35.4018 50.3382 35.5167 50.1187 35.6284C50.0639 35.5237 50.0092 35.4186 49.955 35.3139Z" fill="#111111"/>
<path d="M62.0353 37.1951C62.4706 36.4492 62.9113 35.7071 63.3498 34.9634C63.7624 35.2051 64.1743 35.4491 64.5869 35.6914C64.5267 35.7933 64.466 35.8952 64.4058 35.9971C64.1125 35.8215 63.8171 35.6502 63.5222 35.4767C63.4013 35.6806 63.2837 35.8871 63.1579 36.0887C63.4328 36.26 63.7179 36.4145 63.9917 36.5885C63.9315 36.685 63.8735 36.7826 63.816 36.8802C63.5379 36.7186 63.2609 36.5555 62.9845 36.3912C62.7855 36.7279 62.5871 37.065 62.3887 37.4017C62.2716 37.3312 62.154 37.2618 62.0353 37.1951Z" fill="#111111"/>
<path d="M48.5352 36.3162C48.6474 36.2359 48.7575 36.153 48.8691 36.0722C49.3836 36.7634 49.9143 37.4415 50.4341 38.1289C50.3246 38.2124 50.2157 38.2959 50.1073 38.3804C49.582 37.6931 49.0513 37.01 48.5352 36.3162Z" fill="#111111"/>
<path d="M115.158 36.7023C115.948 36.5402 116.829 36.7229 117.431 37.2785C117.317 37.4336 117.189 37.5778 117.071 37.7306C116.725 37.4796 116.32 37.297 115.89 37.2682C115.519 37.24 115.113 37.2991 114.82 37.5469C114.537 37.781 114.439 38.1995 114.568 38.54C114.645 38.7313 114.801 38.8782 114.97 38.9899C115.536 39.3542 116.207 39.5233 116.756 39.9174C117.117 40.1743 117.405 40.5592 117.471 41.0054C117.547 41.5166 117.417 42.0706 117.072 42.463C116.821 42.7536 116.467 42.9384 116.096 43.0219C115.24 43.2154 114.307 42.9823 113.631 42.4267C113.744 42.2608 113.859 42.095 113.967 41.9253C114.401 42.1931 114.879 42.4229 115.396 42.4565C115.736 42.4685 116.103 42.4148 116.379 42.1996C116.688 41.9594 116.799 41.5323 116.737 41.1577C116.679 40.8454 116.441 40.6048 116.185 40.4351C115.573 40.0318 114.824 39.8616 114.268 39.3688C113.705 38.8788 113.664 37.9556 114.09 37.3653C114.341 37.014 114.741 36.7917 115.158 36.7023Z" fill="#111111"/>
<path d="M138.604 36.67C139.256 36.5898 139.945 36.7264 140.484 37.1102C141.236 37.6306 141.642 38.5337 141.719 39.4265C141.811 40.4353 141.579 41.5336 140.859 42.2817C140.057 43.1344 138.671 43.3241 137.65 42.7706C136.847 42.3473 136.341 41.4967 136.193 40.618C136.029 39.6287 136.179 38.5424 136.785 37.7211C137.211 37.1368 137.887 36.7513 138.604 36.67ZM138.406 37.3449C138.036 37.4414 137.704 37.6647 137.468 37.9645C137.137 38.3787 136.977 38.905 136.924 39.4265C136.867 40.0055 136.919 40.6061 137.146 41.146C137.308 41.5347 137.569 41.8887 137.919 42.1266C138.597 42.6021 139.61 42.5408 140.211 41.9635C140.599 41.5976 140.807 41.0799 140.901 40.5633C141.004 39.9556 140.996 39.3176 140.799 38.7294C140.655 38.2974 140.393 37.8951 140.019 37.6284C139.561 37.295 138.949 37.204 138.406 37.3449Z" fill="#111111"/>
<path d="M79.5652 36.7624C79.8107 36.7618 80.0568 36.7651 80.3029 36.7586C80.3176 38.1723 80.3002 39.5861 80.3116 40.9999C80.3132 41.3647 80.3951 41.7555 80.6624 42.0222C81.0348 42.3968 81.6067 42.4949 82.113 42.4217C82.5304 42.3637 82.9315 42.1155 83.1158 41.7279C83.253 41.4341 83.2627 41.1018 83.273 40.783C83.2839 39.4419 83.2692 38.1008 83.2812 36.7597C83.524 36.764 83.7663 36.7624 84.0097 36.7624C84.0097 37.6877 84.0092 38.6125 84.0097 39.5379C84 40.1526 84.0363 40.7711 83.9561 41.3826C83.9024 41.8049 83.7349 42.2261 83.4156 42.5177C82.9575 42.9535 82.2994 43.1048 81.6826 43.0815C81.0201 43.0636 80.3268 42.8023 79.9262 42.2526C79.6281 41.8482 79.5733 41.3278 79.5684 40.8405C79.5614 39.4809 79.5668 38.1219 79.5652 36.7624Z" fill="#111111"/>
<path d="M86.397 36.7625C86.6507 36.7625 86.9049 36.762 87.1592 36.7636C88.1588 38.4603 89.1454 40.1657 90.1558 41.8559C90.1602 40.1581 90.1444 38.4603 90.1417 36.7625C90.37 36.763 90.5993 36.7598 90.8286 36.7668C90.8193 38.8343 90.8324 40.9024 90.8215 42.9699C90.5624 42.9645 90.3033 42.971 90.0447 42.9639C89.0559 41.2694 88.0618 39.5781 87.0616 37.8906C87.0643 39.5835 87.079 41.277 87.0762 42.9699C86.8497 42.9661 86.6231 42.9672 86.397 42.9677C86.3965 40.8991 86.3965 38.8311 86.397 36.7625Z" fill="#111111"/>
<path d="M93.4182 42.9714C93.4101 40.9012 93.4101 38.8304 93.4187 36.7602C93.6654 36.7656 93.9131 36.7629 94.1603 36.7635C94.1609 38.8315 94.1609 40.9001 94.1603 42.9682C93.9131 42.9682 93.6654 42.9655 93.4182 42.9714Z" fill="#111111"/>
<path d="M95.8087 36.7623C96.0678 36.7623 96.3275 36.7623 96.5866 36.7623C97.1916 38.5886 97.7927 40.416 98.3993 42.2417C99.0179 40.4138 99.6402 38.587 100.265 36.7612C100.504 36.7629 100.745 36.7618 100.985 36.7623C100.259 38.8304 99.5301 40.8979 98.8054 42.9665C98.5197 42.9681 98.2335 42.9676 97.9478 42.967C97.236 40.8984 96.521 38.8309 95.8087 36.7623Z" fill="#111111"/>
<path d="M102.674 36.7646C103.798 36.7597 104.922 36.7689 106.046 36.7602C106.054 36.9678 106.052 37.176 106.048 37.3836C105.169 37.3798 104.288 37.3836 103.408 37.3815C103.407 38.0645 103.408 38.747 103.408 39.4294C104.236 39.4322 105.064 39.4235 105.893 39.4338C105.887 39.6306 105.887 39.8273 105.894 40.0241C105.066 40.0447 104.237 40.0279 103.408 40.0328C103.406 40.7977 103.411 41.5626 103.406 42.3269C104.312 42.3361 105.218 42.3274 106.125 42.3312C106.124 42.5437 106.124 42.7557 106.125 42.9676C104.974 42.9671 103.824 42.9703 102.674 42.966C102.677 40.899 102.676 38.8321 102.674 36.7646Z" fill="#111111"/>
<path d="M108.098 42.9631C108.11 40.895 108.091 38.8264 108.108 36.7578C108.786 36.7708 109.464 36.7497 110.143 36.7768C110.568 36.799 111.019 36.8977 111.337 37.2029C111.85 37.6674 111.987 38.4529 111.764 39.0931C111.577 39.6195 111.053 39.961 110.515 40.0407C110.887 40.0922 111.142 40.4012 111.29 40.7232C111.641 41.4647 111.963 42.2188 112.299 42.9674C112.043 42.9679 111.786 42.9641 111.53 42.9706C111.233 42.3391 110.971 41.6908 110.668 41.0614C110.52 40.7649 110.333 40.4364 109.991 40.3394C109.615 40.2396 109.219 40.2765 108.834 40.2678C108.834 41.1677 108.834 42.0675 108.834 42.9669C108.588 42.9663 108.343 42.9701 108.098 42.9631ZM108.834 37.3584C108.834 38.1304 108.834 38.9028 108.834 39.6748C109.306 39.6677 109.786 39.7068 110.248 39.5891C110.541 39.5154 110.818 39.3371 110.97 39.0693C111.192 38.6903 111.178 38.1857 110.941 37.817C110.74 37.5211 110.377 37.3866 110.031 37.3687C109.633 37.3465 109.233 37.3639 108.834 37.3584Z" fill="#111111"/>
<path d="M119.551 36.7632C119.8 36.7632 120.049 36.7632 120.298 36.7632C120.298 38.8312 120.298 40.8993 120.298 42.9679C120.049 42.9679 119.8 42.9679 119.551 42.9673C119.551 40.8993 119.551 38.8312 119.551 36.7632Z" fill="#111111"/>
<path d="M121.969 36.7639C123.447 36.7628 124.924 36.7633 126.401 36.7633C126.401 36.9693 126.401 37.1758 126.401 37.3818C125.788 37.3813 125.175 37.3829 124.563 37.3813C124.561 39.2434 124.562 41.106 124.562 42.968C124.315 42.9686 124.068 42.9642 123.823 42.9729C123.804 41.1087 123.826 39.2434 123.812 37.3791C123.198 37.3856 122.583 37.3802 121.969 37.3818C121.969 37.1758 121.969 36.9699 121.969 36.7639Z" fill="#111111"/>
<path d="M127.268 36.7632C127.553 36.7637 127.839 36.7588 128.125 36.767C128.623 37.7357 129.139 38.6946 129.64 39.6617C130.16 38.7076 130.634 37.7286 131.134 36.7632C131.403 36.7621 131.673 36.7626 131.944 36.7632C131.3 37.9894 130.656 39.215 130.013 40.4407C129.968 40.5133 129.971 40.599 129.972 40.6808C129.974 41.443 129.972 42.2052 129.973 42.9673C129.726 42.9673 129.479 42.9706 129.233 42.9641C129.234 42.1482 129.246 41.3308 129.227 40.5155C128.589 39.2578 127.914 38.0176 127.268 36.7632Z" fill="#111111"/>
<path d="M143.781 36.7632C144.881 36.7632 145.98 36.7632 147.079 36.7632C147.078 36.9692 147.078 37.1757 147.079 37.3817C146.227 37.3822 145.375 37.3817 144.522 37.3817C144.522 38.0642 144.523 38.7461 144.522 39.4286C145.323 39.433 146.125 39.4232 146.927 39.433C146.921 39.6314 146.921 39.8298 146.926 40.0276C146.125 40.0395 145.323 40.0292 144.522 40.033C144.523 41.0115 144.522 41.9894 144.522 42.9679C144.275 42.9679 144.028 42.9679 143.781 42.9679C143.781 40.8993 143.781 38.8312 143.781 36.7632Z" fill="#111111"/>
<path d="M46.5973 38.3484C46.6662 37.8795 47.0939 37.5125 47.5546 37.4513C47.5818 37.5668 47.604 37.6833 47.6251 37.7999C47.3367 37.8492 47.038 38.0405 46.9795 38.3446C46.9399 38.5355 47.1356 38.7122 47.3221 38.6629C47.6696 38.5897 47.9758 38.3533 48.3428 38.3658C48.7825 38.369 49.1386 38.8374 49.0242 39.2624C48.9034 39.7199 48.4653 40.0392 48.01 40.1108C47.9824 39.9953 47.9536 39.8798 47.9238 39.7649C48.2008 39.6879 48.519 39.5622 48.6209 39.2662C48.7131 39.051 48.5299 38.7756 48.2908 38.8016C47.9292 38.832 47.6257 39.0878 47.2587 39.0971C46.8743 39.1133 46.5344 38.7284 46.5973 38.3484Z" fill="#111111"/>
<path d="M65.2642 37.698C65.4865 37.5765 65.7889 37.7646 65.777 38.0189C65.7884 38.2878 65.448 38.4726 65.229 38.3159C64.9991 38.1821 65.0208 37.8048 65.2642 37.698Z" fill="#111111"/>
<path d="M67.2323 39.2441C67.4876 39.1752 67.7679 39.1736 68.0151 39.276C68.5496 39.4875 68.8792 40.1396 68.684 40.6903C68.4975 41.221 67.9766 41.5902 67.434 41.6829C67.0176 41.7577 66.5699 41.5761 66.3281 41.2281C66.114 40.9424 66.0376 40.5527 66.1546 40.2122C66.3151 39.7303 66.7542 39.3812 67.2323 39.2441ZM67.396 39.6252C66.9965 39.746 66.5981 40.0355 66.501 40.4621C66.4018 40.8795 66.7683 41.3365 67.2036 41.3002C67.628 41.265 68.0487 41.0237 68.265 40.6519C68.4525 40.3337 68.336 39.8924 68.0292 39.6935C67.8438 39.5704 67.6042 39.5671 67.396 39.6252Z" fill="#111111"/>
<path d="M53.6818 39.4012C53.7116 39.3979 53.7717 39.3914 53.8021 39.3882C54.0921 39.7807 54.3794 40.1769 54.6456 40.5862C54.5101 40.6187 54.3729 40.6447 54.2369 40.6751C54.3886 40.9461 54.5789 41.1933 54.7502 41.4524C55.0077 41.2654 55.2506 41.0573 55.4809 40.8383C55.3763 40.7835 55.2679 40.7363 55.1665 40.6762C55.1779 40.6019 55.2516 40.5694 55.3042 40.5276C55.559 40.352 55.8127 40.1742 56.0648 39.9942C56.1347 39.9433 56.2111 39.8956 56.3017 39.895C56.106 40.551 55.8788 41.1966 55.6707 41.8487C55.0245 41.6286 54.3317 41.6113 53.6557 41.6053C53.0448 41.6243 52.416 41.6411 51.8349 41.8509C51.6164 41.2031 51.4034 40.5537 51.1974 39.9015C51.366 39.8912 51.4814 40.0338 51.6164 40.1108C51.8728 40.3021 52.1715 40.4431 52.3965 40.674C52.2875 40.725 52.1748 40.77 52.0761 40.8399C52.2756 41.0665 52.5174 41.2519 52.7402 41.4552C52.9218 41.1998 53.1185 40.9505 53.2584 40.6686C53.124 40.6437 52.9895 40.6214 52.8573 40.5867C53.1131 40.1791 53.4102 39.7985 53.6818 39.4012Z" fill="#111111"/>
<path d="M59.5226 40.2023C59.7151 39.9296 59.9097 39.6586 60.1005 39.3848C60.2821 39.3805 60.3363 39.5827 60.4371 39.6971C60.6323 40.0017 60.8843 40.2717 61.0421 40.5986C60.9104 40.6219 60.7792 40.6436 60.6485 40.6701C60.7884 40.9477 60.989 41.1878 61.1543 41.4502C61.4177 41.2713 61.6541 41.0539 61.8888 40.8398C61.7815 40.7812 61.6709 40.7287 61.5603 40.6772C61.6698 40.527 61.8433 40.4468 61.988 40.3367C62.1967 40.1969 62.3919 40.0364 62.6087 39.909C62.6353 39.9085 62.6873 39.9063 62.7133 39.9052C62.5052 40.5541 62.2883 41.2003 62.0785 41.8481C61.4454 41.6323 60.7667 41.6133 60.1043 41.6047C59.4776 41.6193 58.8363 41.6415 58.2384 41.8486C58.027 41.2003 57.8118 40.5536 57.6036 39.9047C57.7945 39.8939 57.9262 40.0646 58.0818 40.1503C58.3176 40.3297 58.6038 40.4511 58.7984 40.6782C58.6873 40.726 58.5772 40.7769 58.4704 40.8344C58.6862 41.0366 58.8976 41.2458 59.1269 41.4323L59.167 41.429C59.3497 41.1959 59.5004 40.9406 59.6722 40.6999C59.553 40.6284 59.4109 40.6246 59.2776 40.6007C59.3275 40.45 59.4337 40.3302 59.5226 40.2023Z" fill="#111111"/>
<path d="M45.0885 40.3493C45.2083 40.1612 45.3953 39.9937 45.6284 39.9845C46.055 39.9352 46.5217 40.3298 46.403 40.7797C46.6052 40.6794 46.8334 40.7255 47.0486 40.7401C47.2958 40.7629 47.5436 40.7803 47.7907 40.8057C47.7121 40.9283 47.6411 41.0551 47.5745 41.1847C47.2329 41.1673 46.8925 41.1023 46.5499 41.1158C46.332 41.1294 46.2491 41.3592 46.1564 41.5207C46.474 41.6893 46.7879 41.8644 47.1039 42.0368C47.0389 42.1566 46.9727 42.2759 46.9039 42.3935C46.1477 41.9777 45.3888 41.5663 44.6271 41.1597C44.7773 40.8876 44.9209 40.6111 45.0885 40.3493ZM45.4679 40.4518C45.3123 40.5905 45.2321 40.79 45.1226 40.9629C45.3655 41.0963 45.6094 41.2275 45.8539 41.3581C45.9493 41.176 46.0734 40.9949 46.0821 40.7824C46.0881 40.4935 45.7043 40.2685 45.4679 40.4518Z" fill="#111111"/>
<path d="M69.6242 41.832C69.6784 41.9773 69.7272 42.1242 69.777 42.2706C69.5569 42.5492 69.2962 42.7948 69.0907 43.0848C69.4361 43.1574 69.7808 43.2339 70.124 43.3195C70.1641 43.4583 70.2096 43.596 70.2546 43.7337C69.7803 43.616 69.3049 43.5022 68.8295 43.39C68.495 43.7938 68.1524 44.1912 67.8239 44.6005C67.7643 44.4552 67.7149 44.3061 67.6743 44.1554C67.9334 43.8665 68.1833 43.57 68.4327 43.2729C68.0602 43.178 67.6802 43.1119 67.31 43.01C67.2271 42.8875 67.2086 42.7265 67.1544 42.5888C67.671 42.7042 68.1822 42.8463 68.701 42.9514C68.998 42.5698 69.3238 42.2109 69.6242 41.832Z" fill="#111111"/>
<path d="M52.6721 42.1023C53.3107 42.0156 53.9591 42.0134 54.5998 42.0736C54.8828 42.1088 55.1744 42.1386 55.4357 42.26C55.517 42.2844 55.5902 42.3999 55.4904 42.4536C55.3191 42.5674 55.1077 42.5961 54.9093 42.6346C54.2605 42.7322 53.5986 42.7371 52.9454 42.6791C52.6591 42.6482 52.367 42.6156 52.0997 42.504C52.0271 42.4796 51.9853 42.4129 51.9376 42.3587C52.136 42.1749 52.4179 42.1478 52.6721 42.1023Z" fill="#111111"/>
<path d="M58.4543 42.2716C58.7324 42.1328 59.05 42.1063 59.3541 42.0689C60.0556 42.0109 60.769 42.0125 61.4634 42.1415C61.645 42.1887 61.8748 42.2114 61.9713 42.3979C61.7523 42.5773 61.4618 42.6104 61.1924 42.6532C60.4714 42.7416 59.7374 42.7411 59.0181 42.6375C58.8083 42.5947 58.5757 42.5725 58.4012 42.4364C58.328 42.386 58.3957 42.2965 58.4543 42.2716Z" fill="#111111"/>
<path d="M43.629 44.0804C43.7711 43.6022 43.9158 43.1247 44.054 42.646C44.1689 42.6747 44.2839 42.7051 44.3982 42.7365C44.2936 43.0835 44.1879 43.4299 44.0828 43.7762C44.3148 43.8353 44.5446 43.9009 44.7755 43.9649C44.8688 43.6499 44.9403 43.3285 45.0531 43.0206C45.1599 43.0542 45.2667 43.0867 45.374 43.1192C45.2856 43.432 45.1967 43.7443 45.1089 44.057C45.3702 44.1248 45.6304 44.1996 45.8911 44.2706C45.9849 43.9302 46.0852 43.5919 46.1774 43.251C46.2939 43.2802 46.4099 43.3117 46.5265 43.3426C46.3996 43.8191 46.2652 44.2928 46.1351 44.7683C45.3008 44.5346 44.4638 44.3118 43.629 44.0804Z" fill="#111111"/>
<path d="M52.0861 43.7515C53.0624 43.7515 54.0386 43.752 55.0149 43.7515C55.4069 43.7585 55.8281 43.7509 56.1755 43.9596C56.574 44.1954 56.7437 44.6768 56.7458 45.1197C56.7518 46.9097 56.7453 48.6996 56.7491 50.489C56.7502 50.6018 56.7447 50.7145 56.729 50.8262C56.6184 50.6614 56.6547 50.4365 56.5187 50.282C56.2861 49.9692 55.8584 49.9404 55.5012 49.9296C54.3634 49.9264 53.2255 49.9269 52.0882 49.9291C52.0839 47.8702 52.0877 45.8108 52.0861 43.7515ZM52.4623 44.7321C52.4894 44.7619 52.543 44.8221 52.5696 44.8519C52.5869 45.0508 52.5821 45.252 52.5745 45.452C52.5864 45.5355 52.4894 45.5631 52.446 45.6152C52.6948 45.607 52.9713 45.6596 53.1941 45.5197C53.4521 45.3669 53.464 44.9159 53.1762 44.7879C52.9507 44.6963 52.6992 44.7408 52.4623 44.7321ZM53.7779 44.7532C53.4478 44.8888 53.4153 45.4238 53.7405 45.5843C54.0332 45.7518 54.4458 45.5208 54.4235 45.1755C54.4566 44.8411 54.069 44.6052 53.7779 44.7532ZM54.5054 44.7332C54.5493 44.7852 54.6528 44.8118 54.6371 44.898C54.6382 45.0796 54.6263 45.2612 54.6057 45.4417C54.6089 45.5241 54.5292 45.5637 54.4815 45.6173C54.6073 45.6184 54.7347 45.6222 54.8588 45.5956C54.8247 45.5761 54.7558 45.5371 54.7211 45.5176C54.7011 45.3457 54.7146 45.1723 54.7206 44.9999C54.829 45.1912 54.8832 45.407 54.9792 45.6043C54.9954 45.6021 55.028 45.5983 55.0442 45.5967C55.145 45.3821 55.2036 45.15 55.3147 44.9403C55.3196 45.1332 55.3185 45.3268 55.3158 45.5203C55.2833 45.5436 55.2188 45.5891 55.1862 45.6119C55.344 45.6173 55.5012 45.6168 55.6589 45.6162C55.6308 45.5859 55.5738 45.5252 55.5451 45.4948C55.5256 45.2807 55.5196 45.0644 55.5261 44.8492C55.5559 44.8194 55.6156 44.7603 55.6459 44.7305C55.5288 44.731 55.4123 44.7316 55.2957 44.731C55.2269 44.9099 55.1575 45.0888 55.0903 45.2682C55.0063 45.0904 54.9271 44.9104 54.8491 44.7305C54.7341 44.731 54.6198 44.7316 54.5054 44.7332ZM55.7137 44.7332C55.8855 44.8188 55.8302 45.0172 55.84 45.1717C55.8302 45.3278 55.8855 45.5241 55.7164 45.6157C55.8747 45.6162 56.033 45.6162 56.1913 45.6173C56.1631 45.587 56.1067 45.5268 56.078 45.497C56.0617 45.2818 56.0639 45.0644 56.0769 44.8492C56.1056 44.8232 56.1636 44.7706 56.1929 44.744C56.0335 44.7267 55.8731 44.7278 55.7137 44.7332ZM53.0114 46.3649C53.0596 46.4191 53.1583 46.4462 53.1626 46.5291C53.1816 46.7351 53.1686 46.9422 53.1578 47.1482C53.1274 47.1726 53.0656 47.2208 53.0352 47.2452C53.1632 47.2533 53.2917 47.2528 53.419 47.2349C53.1458 47.1612 53.2857 46.8294 53.2521 46.6272C53.4315 46.8251 53.5855 47.0446 53.753 47.2528C53.7812 47.2582 53.837 47.2691 53.8646 47.2739C53.8977 46.9986 53.8435 46.7161 53.9042 46.4451L54.0251 46.4077C53.9042 46.3378 53.7616 46.3681 53.6294 46.367C53.8722 46.4516 53.7752 46.7291 53.7953 46.9237C53.6343 46.7438 53.489 46.5508 53.3366 46.3643C53.2282 46.3649 53.1198 46.3643 53.0114 46.3649ZM54.0533 46.4256C54.282 46.6473 54.2631 47.0387 54.468 47.268L54.5282 47.2539C54.6892 46.9644 54.707 46.5811 54.9786 46.3649C54.8556 46.3649 54.732 46.3649 54.6089 46.3643C54.6382 46.3903 54.6962 46.4424 54.7255 46.4684C54.6821 46.6294 54.623 46.7855 54.5656 46.9422C54.481 46.7855 54.4246 46.6158 54.3644 46.4494C54.3964 46.4294 54.4615 46.3892 54.4935 46.3687C54.3352 46.3649 54.1769 46.3649 54.0191 46.3589C54.0273 46.3752 54.0446 46.4088 54.0533 46.4256ZM55.138 46.3958C55.0074 46.4706 54.9683 46.6766 55.0827 46.7823C55.1743 46.8598 55.2903 46.901 55.3819 46.9785C55.4448 47.0614 55.3966 47.2008 55.2849 47.2024C55.1407 47.1899 55.093 47.0295 54.9851 46.9563C54.9949 47.0463 55.0111 47.1352 55.028 47.2241C55.1618 47.2609 55.3115 47.2978 55.4432 47.2316C55.589 47.1715 55.6514 46.9763 55.5695 46.843C55.4828 46.7161 55.3066 46.6977 55.2128 46.5806C55.1581 46.4803 55.2898 46.3719 55.3819 46.4288C55.4508 46.4852 55.5017 46.56 55.5614 46.6256C55.5543 46.5416 55.5467 46.4576 55.5386 46.3735C55.4063 46.3524 55.2589 46.3177 55.138 46.3958ZM52.9008 48.0079C52.9339 48.0291 53 48.0713 53.0331 48.0925C53.0418 48.3229 53.0407 48.5538 53.0347 48.7842C52.9897 48.8135 52.9453 48.8427 52.9008 48.872C53.064 48.8861 53.2271 48.8845 53.3909 48.8839C53.3535 48.84 53.302 48.8064 53.277 48.7538C53.2602 48.5354 53.2721 48.3164 53.2743 48.0979C53.3171 48.0648 53.36 48.0318 53.4028 47.9976C53.2353 47.996 53.0678 47.9954 52.9008 48.0079ZM53.4418 48.0036C53.4841 48.0312 53.5258 48.0589 53.5687 48.0865C53.5779 48.3174 53.5914 48.5505 53.5665 48.7804C53.5345 48.8032 53.4705 48.8481 53.4386 48.8704C53.67 48.8948 53.9026 48.878 54.1346 48.8872C54.1557 48.7977 54.1736 48.7083 54.1888 48.6178C54.0945 48.7424 53.9872 48.8536 53.8153 48.8064C53.8104 48.5885 53.8001 48.3695 53.8148 48.1516C53.8126 48.0735 53.8982 48.0426 53.9422 47.9933C53.7752 47.9982 53.6082 47.9965 53.4418 48.0036ZM54.2045 48.002C54.2474 48.0334 54.2902 48.0654 54.333 48.0974C54.3357 48.3174 54.3471 48.5381 54.3314 48.7582C54.2999 48.7885 54.2365 48.8503 54.2051 48.8812C54.4371 48.8839 54.6691 48.8839 54.9016 48.8828C54.9179 48.795 54.9331 48.7067 54.9461 48.6188C54.8529 48.7419 54.7472 48.8509 54.5775 48.8118C54.5704 48.5928 54.5607 48.3733 54.5748 48.1548C54.571 48.0757 54.6566 48.0431 54.7011 47.9933C54.5352 47.9982 54.3699 47.9976 54.2045 48.002ZM54.7862 47.9949C54.8409 48.048 54.9119 48.0919 54.9401 48.1678C55.0399 48.4036 55.1239 48.6465 55.2161 48.8861C55.2415 48.8899 55.2936 48.8986 55.3191 48.9024C55.422 48.6568 55.5055 48.4026 55.6183 48.1613C55.6503 48.0887 55.7218 48.0469 55.7777 47.9949C55.6492 47.9982 55.5207 47.9976 55.3922 47.9971C55.4258 48.0215 55.492 48.0692 55.5256 48.0936C55.4687 48.26 55.4128 48.4269 55.3565 48.5934C55.2849 48.4286 55.2226 48.26 55.1575 48.0925C55.1879 48.0686 55.2486 48.0204 55.2789 47.9965C55.1141 47.9976 54.9499 47.9992 54.7862 47.9949Z" fill="#111111"/>
<path d="M57.6245 44.048C57.9362 43.7851 58.3649 43.7618 58.7542 43.7531C59.789 43.7498 60.8238 43.7526 61.8587 43.752C61.8608 45.8092 61.8549 47.8664 61.8614 49.9231C60.8612 49.9339 59.8611 49.9247 58.8604 49.928C58.4761 49.9334 58.0733 49.8998 57.7085 50.0467C57.4792 50.1372 57.3095 50.3546 57.277 50.5991C57.2482 50.6652 57.2764 50.7747 57.1935 50.8056C57.1799 50.7362 57.1734 50.6668 57.174 50.5964C57.1772 48.7896 57.1734 46.9828 57.1756 45.1761C57.1734 44.7641 57.2916 44.3163 57.6245 44.048ZM57.7578 44.7321C57.8039 44.7679 57.8467 44.8069 57.8863 44.8497C57.8939 45.0465 57.8776 45.2433 57.857 45.439C57.8608 45.5208 57.7827 45.562 57.7356 45.6168C57.8516 45.6162 57.9671 45.6162 58.0831 45.6173L58.0858 45.5783C58.057 45.5626 57.9996 45.53 57.9708 45.5143C57.953 45.3425 57.9654 45.1696 57.9736 44.9983C58.0787 45.1902 58.134 45.4032 58.2283 45.6C58.2446 45.6 58.2777 45.5989 58.2939 45.5984C58.3942 45.3831 58.4555 45.1511 58.5655 44.9403C58.5699 45.1338 58.5698 45.3273 58.5661 45.5208C58.5341 45.5436 58.4706 45.5897 58.4387 45.6124C58.5964 45.6168 58.7542 45.6168 58.9119 45.6162C58.8832 45.5859 58.8252 45.5252 58.7964 45.4948C58.7764 45.2791 58.772 45.0617 58.7758 44.8454C58.8078 44.8172 58.8718 44.7603 58.9038 44.7321C58.7845 44.7316 58.6658 44.7316 58.5465 44.731C58.4793 44.905 58.4132 45.0796 58.3471 45.2541C58.2484 45.0893 58.1779 44.9104 58.1047 44.7337C57.9887 44.731 57.8733 44.7316 57.7578 44.7321ZM58.9726 44.7316C58.9997 44.763 59.0545 44.8259 59.0816 44.8579C59.0951 45.0693 59.0957 45.2834 59.081 45.4954C59.0518 45.5252 58.9927 45.5853 58.9634 45.6157C59.1249 45.6162 59.2865 45.6157 59.4486 45.6168C59.4188 45.587 59.3591 45.5279 59.3293 45.4981C59.313 45.2839 59.3141 45.0677 59.3282 44.8535C59.358 44.8226 59.4171 44.7619 59.4464 44.731C59.2887 44.731 59.1304 44.731 58.9726 44.7316ZM59.4697 44.7348C59.5223 44.7711 59.5711 44.8123 59.6155 44.8584C59.6394 45.0351 59.6302 45.2146 59.6247 45.3924C59.6388 45.4921 59.5814 45.5626 59.493 45.6021C59.6253 45.6249 59.7608 45.6238 59.8915 45.5924C59.8508 45.5778 59.7695 45.5485 59.7283 45.5333C59.7082 45.356 59.7061 45.1772 59.7142 44.9988C59.8394 45.1354 59.95 45.285 60.0633 45.4325C60.1359 45.5219 60.1994 45.6439 60.3327 45.6406C60.3387 45.3924 60.3235 45.1435 60.343 44.8958C60.336 44.8112 60.4303 44.7836 60.4769 44.7316C60.3457 44.731 60.2151 44.7316 60.085 44.7343C60.1354 44.769 60.1847 44.8053 60.2335 44.8432C60.2584 44.9918 60.2492 45.1441 60.2536 45.2942C60.0942 45.1094 59.9467 44.9142 59.789 44.7278C59.6822 44.7305 59.576 44.7321 59.4697 44.7348ZM60.4124 45.6162C60.5354 45.6168 60.6585 45.6152 60.7816 45.6114C60.749 45.5908 60.684 45.5485 60.6509 45.5273C60.6699 45.4683 60.6889 45.4092 60.7073 45.3501C60.781 45.3485 60.8547 45.3474 60.9285 45.3457C60.9496 45.4081 60.9697 45.4704 60.9908 45.5333C60.9626 45.5528 60.9057 45.5918 60.877 45.6114C61.0358 45.6179 61.1952 45.6168 61.3545 45.6152C61.3003 45.5609 61.2282 45.5192 61.2028 45.4433C61.1019 45.2043 61.0347 44.9527 60.9301 44.7153L60.8656 44.7207C60.6748 44.9966 60.6824 45.3934 60.4124 45.6162ZM58.3671 46.335C58.3644 46.4359 58.3622 46.5367 58.3617 46.6375C58.4224 46.5286 58.495 46.4261 58.6316 46.4212C58.6382 46.6646 58.6382 46.9086 58.63 47.152C58.5942 47.1742 58.5227 47.2192 58.4869 47.242C58.6663 47.2539 58.8463 47.2539 59.0257 47.2409C58.9878 47.2186 58.9114 47.1753 58.8729 47.1536C58.8647 46.9091 58.8642 46.6646 58.8723 46.4207C59.0062 46.4234 59.0767 46.5324 59.1445 46.6316C59.145 46.5362 59.1412 46.4408 59.1336 46.3453C58.8794 46.3665 58.6192 46.3882 58.3671 46.335ZM59.2166 46.3681C59.2599 46.4023 59.3038 46.4364 59.3483 46.47C59.3439 46.6912 59.3618 46.9129 59.3396 47.1335C59.3114 47.1623 59.255 47.2192 59.2269 47.2479C59.3879 47.2506 59.5489 47.2517 59.7104 47.2436C59.679 47.2203 59.6161 47.1726 59.5846 47.1487C59.5814 46.9406 59.5727 46.7319 59.5846 46.5242C59.5754 46.444 59.6654 46.4153 59.7071 46.3638C59.5434 46.3643 59.3797 46.3632 59.2166 46.3681ZM60.0248 46.4071C59.7863 46.5432 59.7256 46.9015 59.9001 47.1119C60.0584 47.3075 60.382 47.3211 60.5663 47.1547C60.7593 46.9763 60.7642 46.6278 60.5653 46.4521C60.42 46.3226 60.1912 46.3155 60.0248 46.4071ZM58.1459 47.996C58.2159 48.0524 58.3096 48.106 58.2798 48.2128C58.2549 48.4383 58.3129 48.704 58.1481 48.8866C58.2657 48.8839 58.3866 48.8948 58.501 48.8595C58.2462 48.8026 58.385 48.4806 58.3698 48.2996C58.4923 48.4866 58.533 48.7126 58.6436 48.9062C58.7916 48.6882 58.8447 48.4242 58.9542 48.1873C58.9238 48.4161 59.0604 48.7186 58.8463 48.8839C59.0008 48.8839 59.1548 48.8828 59.3087 48.8807C59.2805 48.8563 59.2236 48.8086 59.1954 48.7847C59.1575 48.5581 59.1732 48.3256 59.164 48.0963C59.2106 48.0632 59.2572 48.0301 59.3044 47.9976C59.1808 47.9976 59.0577 47.9982 58.9347 48.0009C58.8691 48.1787 58.8002 48.3554 58.7346 48.5327C58.6447 48.357 58.5715 48.1738 58.4875 47.9955C58.3736 47.9976 58.2598 47.9976 58.1459 47.996ZM59.3515 47.9971C59.3824 48.0231 59.4442 48.0741 59.4757 48.1001C59.4784 48.3196 59.4903 48.5397 59.473 48.7592C59.4383 48.7891 59.3694 48.8487 59.3347 48.8785C59.5776 48.8856 59.821 48.885 60.0644 48.8812C60.079 48.7912 60.0926 48.7012 60.104 48.6118C60.0465 48.6714 59.9966 48.7376 59.9392 48.7967C59.866 48.8064 59.7923 48.8113 59.7191 48.8107C59.7131 48.6899 59.7109 48.5684 59.7109 48.447C59.8291 48.4443 59.9099 48.518 59.9706 48.6096C59.9738 48.4904 59.9755 48.3711 59.9733 48.2524C59.9061 48.3337 59.8231 48.3912 59.7136 48.395C59.7109 48.2866 59.7104 48.1787 59.7093 48.0713C59.86 48.0361 59.9576 48.1315 60.0329 48.2481C60.0319 48.1657 60.0308 48.0838 60.0302 48.0025C59.8036 47.9955 59.5776 47.9982 59.3515 47.9971ZM60.0991 48.8823C60.2145 48.8834 60.33 48.8834 60.4455 48.8818C60.4086 48.8487 60.3717 48.8167 60.3343 48.7853C60.3528 48.7278 60.3707 48.6714 60.3896 48.6145C60.4644 48.6151 60.5403 48.6156 60.6157 48.6161C60.6601 48.7105 60.6661 48.8064 60.5929 48.8883C60.7409 48.8839 60.8894 48.8823 61.038 48.8763C60.9756 48.8232 60.8992 48.7771 60.8759 48.6931C60.7772 48.4486 60.7019 48.1949 60.5978 47.9526C60.3343 48.1998 60.3842 48.6454 60.0991 48.8823Z" fill="#111111"/>
<path d="M49.9237 44.1587C50.0646 43.9544 50.411 43.9479 50.5417 44.1658C50.629 44.3479 50.8518 44.3436 51.0171 44.4059C51.0165 44.3571 51.016 44.2601 51.0155 44.2113C51.1575 44.2108 51.3001 44.2108 51.4426 44.2108C51.4443 46.3862 51.4421 48.5621 51.4437 50.738C53.0168 50.7364 54.59 50.738 56.1631 50.7375C56.2352 50.9212 56.3284 51.1245 56.5312 51.1928C56.8071 51.2866 57.1193 51.2866 57.3958 51.195C57.6018 51.1294 57.6994 50.924 57.7715 50.7375C59.3495 50.7348 60.928 50.7424 62.506 50.7337C62.5006 48.5594 62.5049 46.3851 62.5039 44.2108C62.6459 44.2108 62.7879 44.2108 62.9299 44.2102C62.9316 46.5282 62.9305 48.8461 62.9305 51.1641C61.2983 51.1652 59.666 51.1619 58.0338 51.1652C57.7698 51.6319 57.1784 51.7479 56.6868 51.6677C56.3631 51.6314 56.0677 51.4433 55.8991 51.1646C54.2723 51.1641 52.6461 51.1614 51.0193 51.1663C51.0155 51.0112 51.016 50.8567 51.016 50.7017C50.8854 50.7548 50.7553 50.8101 50.6284 50.8714C50.5677 51.0611 50.3915 51.227 50.1796 51.1874C49.9112 51.1592 49.7519 50.8193 49.9064 50.5965C50.0191 50.4046 50.2739 50.3764 50.4598 50.4724C50.6463 50.3949 50.8328 50.3157 51.0171 50.2328C51.016 50.0631 51.016 49.894 51.016 49.7254C50.8897 49.7634 50.7639 49.8018 50.6393 49.8436C50.5617 50.016 50.3866 50.1623 50.1866 50.1163C49.9069 50.0788 49.766 49.7048 49.9524 49.4923C50.0831 49.3156 50.34 49.3129 50.5119 49.4305C50.6805 49.3823 50.8474 49.3308 51.0155 49.2804C51.0165 49.1053 51.016 48.9302 51.0165 48.7551C50.8881 48.7762 50.7596 48.7974 50.6317 48.8201C50.5363 48.9654 50.3742 49.0923 50.1893 49.0467C49.9091 49.0061 49.7741 48.6299 49.9627 48.4195C50.108 48.2298 50.391 48.2482 50.5585 48.3968C50.7114 48.3729 50.8637 48.3463 51.016 48.3198C51.016 48.1414 51.016 47.9625 51.0165 47.7842C50.8821 47.7885 50.7482 47.7934 50.6143 47.7999C50.4718 47.9967 50.1611 48.058 49.9893 47.865C49.7773 47.6628 49.902 47.2638 50.191 47.2177C50.353 47.1716 50.4869 47.2844 50.6127 47.3668C50.7471 47.3728 50.8816 47.3608 51.016 47.3565C51.016 47.163 51.016 46.97 51.0171 46.777C50.874 46.7689 50.7309 46.7624 50.5878 46.7586C50.4804 46.8599 50.3395 46.9499 50.1844 46.9087C49.9329 46.8665 49.7893 46.5482 49.928 46.333C50.0397 46.1238 50.3541 46.0734 50.52 46.2474C50.6458 46.3872 50.8501 46.3244 51.016 46.3477C51.016 46.1693 51.016 45.9915 51.0165 45.8143C50.8593 45.785 50.7032 45.7552 50.5455 45.7313C50.4284 45.8153 50.2809 45.8847 50.1362 45.8289C49.9004 45.7617 49.7887 45.4505 49.9297 45.25C50.0533 45.0418 50.385 45.006 50.5368 45.2012C50.6403 45.366 50.8507 45.3383 51.0165 45.3779C51.016 45.2028 51.016 45.0277 51.0155 44.8521C50.8463 44.8049 50.6815 44.7426 50.5102 44.7046C50.3785 44.7333 50.2457 44.8195 50.108 44.7583C49.8662 44.684 49.7643 44.3561 49.9237 44.1587Z" fill="#111111"/>
<path d="M52.812 44.797C53.1682 44.7634 53.2256 45.2659 53.0413 45.479C52.9925 45.5418 52.8375 45.5901 52.8196 45.4795C52.7957 45.2529 52.8126 45.0242 52.812 44.797Z" fill="#111111"/>
<path d="M53.8853 44.802C54.0225 44.7239 54.132 44.8947 54.1488 45.0123C54.1737 45.1841 54.2024 45.4042 54.0718 45.5408C53.9292 45.6324 53.8035 45.4601 53.7839 45.3332C53.753 45.1587 53.7314 44.9261 53.8853 44.802Z" fill="#111111"/>
<path d="M60.7247 45.2626C60.7562 45.1786 60.7887 45.0956 60.8223 45.0127C60.8494 45.0989 60.8771 45.1856 60.9047 45.2724C60.8445 45.2691 60.7844 45.2658 60.7247 45.2626Z" fill="#111111"/>
<path d="M67.9493 45.5031C68.8113 45.4359 69.6721 45.3562 70.5351 45.2949C70.5633 45.7709 70.611 46.2457 70.6468 46.7211C70.5286 46.7309 70.4109 46.7401 70.2933 46.7499C70.2657 46.41 70.2369 46.0701 70.2115 45.7297C69.9751 45.7465 69.7393 45.7709 69.5024 45.7801C69.5143 46.1037 69.5517 46.4257 69.5745 46.7483C69.4585 46.7569 69.343 46.7667 69.2281 46.7748C69.2043 46.4544 69.1766 46.1346 69.1506 45.8148C68.7608 45.85 68.3711 45.8798 67.9808 45.9086C67.9705 45.773 67.9602 45.6381 67.9493 45.5031Z" fill="#111111"/>
<path d="M43.372 45.3413C44.2253 45.6823 45.0752 46.0319 45.9274 46.3761C45.9225 46.5187 45.9166 46.6613 45.9101 46.8044C45.0362 47.0678 44.1613 47.328 43.2858 47.5866C43.2864 47.4446 43.2869 47.3026 43.2853 47.1611C43.9867 46.9589 44.6914 46.7686 45.3929 46.567C44.7288 46.2715 44.0371 46.0395 43.3623 45.7679C43.3655 45.6259 43.3688 45.4833 43.372 45.3413Z" fill="#111111"/>
<path d="M60.1779 46.432C60.2597 46.3854 60.354 46.4429 60.392 46.5187C60.4706 46.6711 60.469 46.8527 60.4424 47.0185C60.4316 47.1096 60.3698 47.2061 60.2668 47.2029C60.115 47.1671 60.07 46.9942 60.0564 46.8597C60.0472 46.7128 60.0472 46.5285 60.1779 46.432Z" fill="#111111"/>
<path d="M68.6949 47.8604C69.3264 47.6962 70.1151 47.9298 70.4133 48.5456C70.6388 49.0259 70.4913 49.6618 70.0506 49.968C69.4663 50.3594 68.6054 50.2353 68.1213 49.7366C67.8189 49.414 67.7609 48.9104 67.9284 48.5098C68.0623 48.1878 68.3588 47.945 68.6949 47.8604ZM68.8651 48.2485C68.5111 48.2946 68.1972 48.5971 68.2027 48.9652C68.175 49.3099 68.4683 49.5783 68.7708 49.6818C69.109 49.806 69.5161 49.8325 69.8322 49.6357C70.1704 49.4308 70.2675 48.9164 70.01 48.6107C69.7378 48.2849 69.2689 48.1905 68.8651 48.2485Z" fill="#111111"/>
<path d="M60.4083 48.5387C60.4381 48.4492 60.4696 48.3609 60.501 48.272C60.5292 48.3587 60.5579 48.4454 60.5878 48.5322C60.5428 48.5338 60.4533 48.5371 60.4083 48.5387Z" fill="#111111"/>
<path d="M84.4787 48.4676C86.383 48.2692 88.3817 48.8226 89.8356 50.0884C90.6698 50.8045 91.3166 51.7374 91.6955 52.7701C92.4089 54.7222 92.1958 56.9994 91.1051 58.7726C90.3403 60.0281 89.1368 61.0006 87.7599 61.5112C85.5813 62.3222 82.9977 62.0349 81.0983 60.6742C79.8016 59.7581 78.8649 58.3514 78.5206 56.8016C78.068 54.7899 78.5185 52.5647 79.8238 50.9514C80.9503 49.5317 82.6806 48.6389 84.4787 48.4676ZM84.6386 49.1208C83.9187 49.2075 83.2216 49.4862 82.6502 49.9339C81.9331 50.4901 81.4208 51.274 81.0885 52.1104C80.6332 53.2618 80.4835 54.5172 80.548 55.7489C80.6023 56.7842 80.8099 57.825 81.2668 58.7618C81.6517 59.5548 82.2377 60.2661 83.0015 60.7187C83.8352 61.2223 84.8451 61.386 85.8052 61.2716C86.5533 61.1843 87.2797 60.8911 87.8646 60.414C88.5714 59.8454 89.0723 59.0556 89.3954 58.2153C89.8535 57.0195 89.9874 55.7174 89.8974 54.4462C89.822 53.4043 89.5857 52.3592 89.0908 51.4333C88.6761 50.6576 88.0559 49.9751 87.2699 49.5664C86.4692 49.1408 85.5331 49.0135 84.6386 49.1208Z" fill="#111111"/>
<path d="M126.441 48.4729C128.386 48.2566 130.435 48.8285 131.905 50.1403C132.694 50.8336 133.308 51.721 133.681 52.7022C134.458 54.754 134.198 57.1798 132.968 59.0023C132.082 60.3272 130.697 61.297 129.16 61.7073C127.033 62.2852 124.626 61.8748 122.881 60.505C121.519 59.4544 120.615 57.8423 120.415 56.1347C120.167 54.174 120.755 52.0945 122.107 50.6342C123.216 49.4069 124.799 48.642 126.441 48.4729ZM126.653 49.1201C126.047 49.1938 125.456 49.3987 124.944 49.7332C124.197 50.213 123.637 50.9415 123.262 51.7384C122.778 52.7683 122.567 53.9111 122.547 55.044C122.532 56.2209 122.693 57.4173 123.16 58.5047C123.519 59.3406 124.082 60.1071 124.846 60.6134C125.572 61.1024 126.457 61.3246 127.328 61.3051C128.166 61.2953 129.008 61.0476 129.69 60.5543C130.462 60.0041 131.014 59.191 131.366 58.3198C131.852 57.1132 131.998 55.7894 131.913 54.4971C131.842 53.4367 131.605 52.3715 131.1 51.4299C130.691 50.6651 130.082 49.9923 129.312 49.582C128.505 49.1456 127.557 49.0117 126.653 49.1201Z" fill="#111111"/>
<path d="M43.4376 48.8556C44.2925 48.7348 45.1457 48.6019 46.0001 48.48C46.0196 48.6155 46.0391 48.751 46.0586 48.8865C45.2054 49.015 44.3521 49.1435 43.4978 49.2655C43.4777 49.1289 43.4577 48.9917 43.4376 48.8556Z" fill="#111111"/>
<path d="M92.7292 48.6448C94.6466 48.6454 96.5639 48.6443 98.4818 48.6454C98.4807 48.8042 98.4807 48.963 98.4802 49.1219C98.0676 49.207 97.6551 49.2932 97.2421 49.3745C97.138 49.401 97.0144 49.4173 96.9493 49.5127C96.9239 49.6363 97.0128 49.7398 97.074 49.8369C98.0671 51.2533 99.0542 52.6736 100.048 54.0895C100.086 54.1893 100.176 54.1351 100.21 54.0657C101.23 52.6405 102.252 51.2176 103.269 49.7913C103.356 49.6954 103.402 49.5192 103.24 49.4731C102.805 49.3224 102.349 49.2384 101.904 49.1213C101.903 48.9625 101.903 48.8036 101.903 48.6448C103.444 48.6443 104.985 48.6448 106.527 48.6448C106.526 48.8042 106.526 48.9636 106.525 49.1235C106.008 49.2666 105.474 49.3517 104.969 49.5382C104.529 49.7013 104.254 50.096 103.979 50.451C102.837 51.8881 101.696 53.3246 100.556 54.7628C101.915 56.5495 103.27 58.3384 104.627 60.1262C104.846 60.4444 105.114 60.7507 105.487 60.8862C105.932 61.0488 106.4 61.1372 106.854 61.27C106.854 61.4272 106.854 61.5849 106.857 61.7427C104.939 61.7492 103.021 61.7432 101.103 61.7454C101.103 61.5876 101.103 61.4299 101.102 61.2727C101.585 61.1594 102.081 61.0965 102.557 60.9561C102.726 60.9008 102.637 60.7089 102.56 60.6113C101.618 59.2794 100.672 57.9508 99.7275 56.6205C99.5671 56.4015 99.4218 56.1711 99.2461 55.964C98.2308 57.322 97.2545 58.7108 96.2544 60.0806C96.1058 60.3013 95.9237 60.5008 95.8023 60.7376C95.7508 60.8786 95.9313 60.9312 96.0305 60.9653C96.4333 61.0748 96.8415 61.1621 97.2448 61.2705C97.2453 61.4293 97.2453 61.5887 97.2388 61.7475C95.6998 61.7432 94.1614 61.7448 92.623 61.7465C92.6208 61.5876 92.6208 61.4288 92.6219 61.27C93.0572 61.1632 93.493 61.0586 93.9256 60.9409C94.2714 60.8466 94.5934 60.6563 94.8216 60.3766C96.1535 58.7157 97.4741 57.0444 98.8087 55.3856C97.5868 53.7469 96.3492 52.1201 95.1209 50.4857C94.8482 50.1328 94.6064 49.7165 94.1744 49.5382C93.7093 49.3501 93.2117 49.2585 92.7303 49.1213C92.7287 48.9625 92.7287 48.8036 92.7292 48.6448Z" fill="#111111"/>
<path d="M108.637 48.6459C111.938 48.6432 115.238 48.6454 118.54 48.6448C118.539 49.7377 118.539 50.83 118.54 51.9223C118.356 51.9228 118.174 51.9228 117.992 51.9223C117.785 51.2582 117.575 50.5947 117.367 49.9312C117.302 49.729 117.217 49.5154 117.038 49.3875C116.878 49.2731 116.672 49.2644 116.482 49.2655C115.141 49.2699 113.799 49.2612 112.457 49.2699C112.462 51.1482 112.457 53.026 112.459 54.9038C113.403 54.9043 114.348 54.9038 115.293 54.9043C115.566 54.8989 115.867 54.9379 116.111 54.7829C116.322 54.6484 116.419 54.4034 116.486 54.173C116.588 53.8228 116.689 53.4721 116.793 53.1219C116.972 53.123 117.153 53.123 117.334 53.1192C117.345 54.5753 117.335 56.0313 117.339 57.4873C117.157 57.4879 116.975 57.4879 116.794 57.4895C116.68 57.0542 116.575 56.6167 116.464 56.1809C116.416 55.9906 116.333 55.7966 116.17 55.6773C115.998 55.5445 115.772 55.5234 115.563 55.5223C114.528 55.5217 113.494 55.5223 112.459 55.5223C112.46 57.1306 112.457 58.739 112.461 60.3474C112.442 60.5956 112.596 60.845 112.846 60.9014C113.394 61.0347 113.948 61.1426 114.497 61.27C114.497 61.4261 114.497 61.5828 114.503 61.74C112.548 61.7525 110.593 61.7416 108.638 61.7454C108.637 61.5866 108.637 61.4283 108.637 61.2705C109.049 61.173 109.46 61.0721 109.872 60.9729C110.062 60.9209 110.273 60.8754 110.412 60.7236C110.527 60.5946 110.53 60.4103 110.532 60.2465C110.53 56.8504 110.534 53.4537 110.53 50.057C110.552 49.8082 110.395 49.5713 110.154 49.504C109.655 49.3512 109.142 49.2498 108.637 49.1192C108.637 48.9614 108.637 48.8037 108.637 48.6459Z" fill="#111111"/>
<path d="M135.612 48.6448C137.314 48.6448 139.016 48.6448 140.717 48.6448C141.752 48.6453 142.81 48.6291 143.812 48.9278C144.803 49.2151 145.637 49.9772 146.025 50.9313C146.387 51.7873 146.362 52.8053 145.914 53.6249C145.46 54.482 144.622 55.0772 143.724 55.4003C143.499 55.4897 143.256 55.5266 143.037 55.6285C143.503 55.8773 143.819 56.3099 144.145 56.711C145.101 57.9285 146.023 59.1726 146.959 60.4059C147.174 60.6905 147.487 60.8992 147.838 60.9718C148.29 61.0678 148.74 61.1707 149.191 61.2694C149.19 61.4266 149.191 61.5844 149.194 61.7421C148.12 61.747 147.045 61.7481 145.971 61.7416C145.619 61.7405 145.375 61.4526 145.186 61.193C144.168 59.7716 143.152 58.3497 142.137 56.9273C141.831 56.517 141.493 56.0551 140.962 55.9402C140.46 55.8404 139.944 55.9066 139.437 55.8854C139.433 57.3762 139.434 58.8669 139.436 60.3576C139.42 60.6086 139.584 60.8531 139.835 60.9051C140.379 61.0358 140.928 61.1447 141.474 61.27C141.473 61.4288 141.473 61.5876 141.472 61.7464C139.52 61.7448 137.568 61.7437 135.616 61.747C135.611 61.5876 135.611 61.4288 135.613 61.27C136.118 61.1399 136.634 61.0434 137.133 60.8862C137.365 60.82 137.519 60.5945 137.503 60.3544C137.507 56.9213 137.506 53.4872 137.504 50.0542C137.522 49.8087 137.373 49.5712 137.131 49.5045C136.632 49.3522 136.118 49.2498 135.613 49.1202C135.611 48.9614 135.611 48.8031 135.612 48.6448ZM139.435 49.2666C139.437 51.2685 139.429 53.2704 139.439 55.2723C140.009 55.2631 140.579 55.2745 141.148 55.2664C141.714 55.2571 142.293 55.1688 142.797 54.8994C143.188 54.6928 143.516 54.3687 143.72 53.9751C144.006 53.439 144.092 52.821 144.095 52.2198C144.098 51.5683 143.92 50.9031 143.524 50.3789C143.068 49.7669 142.34 49.3864 141.586 49.3089C140.871 49.234 140.151 49.2785 139.435 49.2666Z" fill="#111111"/>
<path d="M150.245 48.6447C151.91 48.6447 153.575 48.6447 155.241 48.6447C156.474 48.6463 157.724 48.6122 158.937 48.8799C159.935 49.0848 160.888 49.5272 161.663 50.1923C162.984 51.3069 163.721 53.0057 163.839 54.7111C163.95 56.3645 163.608 58.1149 162.576 59.4463C161.972 60.2263 161.146 60.821 160.234 61.1891C159.266 61.5658 158.221 61.6824 157.191 61.7301C154.877 61.7648 152.562 61.7333 150.249 61.7474C150.244 61.5875 150.243 61.4287 150.246 61.2693C150.737 61.1473 151.234 61.0411 151.721 60.9023C151.97 60.8427 152.157 60.615 152.137 60.3542C152.142 56.9559 152.137 53.5576 152.139 50.1587C152.138 49.9863 152.137 49.7896 152.01 49.6567C151.878 49.5212 151.686 49.4746 151.51 49.4274C151.088 49.3272 150.668 49.2204 150.245 49.1212C150.244 48.9623 150.244 48.8035 150.245 48.6447ZM154.069 49.2659C154.069 53.0166 154.069 56.7673 154.069 60.518C154.074 60.6779 154.064 60.8589 154.167 60.9934C154.285 61.1278 154.481 61.1202 154.645 61.1273C155.296 61.1245 155.946 61.1321 156.597 61.1218C157.428 61.098 158.277 61.0183 159.051 60.6936C159.851 60.3624 160.482 59.7065 160.894 58.9557C161.384 58.0563 161.588 57.0302 161.654 56.0159C161.714 54.9724 161.654 53.9132 161.388 52.8995C161.159 52.0305 160.755 51.1898 160.125 50.5403C159.586 49.9782 158.878 49.5819 158.112 49.4377C156.78 49.1754 155.416 49.2946 154.069 49.2659Z" fill="#111111"/>
<path d="M43.8048 50.8016C44.6217 50.5219 45.4349 50.2313 46.2502 49.9473C46.2968 50.0698 46.3418 50.1934 46.3862 50.3175C45.9124 50.8894 45.449 51.47 44.9708 52.0381C45.5644 51.7963 46.1618 51.5589 46.7608 51.3285C46.8009 51.4488 46.8437 51.5676 46.8871 51.6868C46.0859 52.0029 45.2766 52.2983 44.477 52.6192C44.4228 52.4956 44.3756 52.3693 44.3339 52.2414C44.8044 51.6765 45.2684 51.1057 45.7368 50.5387C45.1345 50.742 44.5372 50.9599 43.9355 51.1648C43.8915 51.0439 43.8476 50.9225 43.8048 50.8016Z" fill="#111111"/>
<path d="M67.4235 50.7842C68.2096 51.1338 68.9929 51.4905 69.7773 51.8445C69.6136 52.1914 69.5024 52.5703 69.2661 52.8777C68.9614 53.2528 68.2893 53.1189 68.0995 52.6923C68.0562 52.5958 68.054 52.489 68.0442 52.386C67.6035 52.5199 67.1335 52.4359 66.6798 52.4608C66.7367 52.3302 66.7942 52.2001 66.8473 52.0684C67.1856 52.0424 67.5265 52.083 67.8637 52.0424C68.0892 52.0169 68.1597 51.7708 68.2367 51.5946C67.9082 51.4526 67.5851 51.3002 67.2582 51.156C67.3135 51.0325 67.3683 50.9083 67.4235 50.7842ZM68.3738 52.3302C68.3912 52.6181 68.782 52.8007 69.007 52.6164C69.1533 52.4701 69.2113 52.2635 69.3035 52.083C69.0579 51.9578 68.8026 51.8543 68.5527 51.7393C68.4763 51.9291 68.3624 52.1182 68.3738 52.3302Z" fill="#111111"/>
<path d="M56.4694 52.927C56.6179 52.7296 56.7431 52.5139 56.9052 52.3274C57.0434 52.2846 57.0922 52.4331 57.1616 52.5177C57.3795 52.8424 57.624 53.1492 57.8311 53.4804C57.7688 53.6073 57.559 53.5498 57.4413 53.616C57.6175 53.874 57.7753 54.1461 57.9791 54.3841C58.2154 54.1819 58.4583 53.9873 58.6881 53.778C58.5846 53.7092 58.4708 53.6577 58.3585 53.6057C58.5775 53.3709 58.8752 53.2278 59.1256 53.03C59.2465 52.9617 59.3484 52.8196 59.4986 52.8316C59.3294 53.488 59.0768 54.1233 58.8849 54.7744C58.2648 54.5771 57.6083 54.5424 56.9627 54.5353C56.3143 54.5424 55.6563 54.576 55.0345 54.7744C54.8426 54.1667 54.6382 53.5623 54.4414 52.9562C54.4008 52.8977 54.4328 52.7708 54.519 52.8402C54.887 53.082 55.2578 53.3221 55.6107 53.5861C55.4985 53.6512 55.3841 53.7119 55.273 53.7786C55.4942 53.9835 55.7191 54.1841 55.943 54.3857C56.1393 54.1423 56.3046 53.8762 56.4753 53.616C56.3447 53.5737 56.2086 53.5504 56.0737 53.5292C56.1712 53.3075 56.3371 53.1275 56.4694 52.927Z" fill="#111111"/>
<path d="M46.5977 53.078C46.8307 52.9225 47.1218 52.7994 47.4016 52.904C47.8439 53.0667 48.1475 53.548 48.1149 54.0169C48.096 54.2929 47.8726 54.4896 47.665 54.643C47.2124 54.9694 46.7587 55.2935 46.3017 55.6134C46.2247 55.499 46.1466 55.3857 46.068 55.2729C46.4936 54.9732 46.9159 54.6691 47.3409 54.3682C47.4894 54.2549 47.6769 54.147 47.7225 53.9513C47.7713 53.6223 47.4964 53.2521 47.1484 53.2683C47.0156 53.283 46.9034 53.3626 46.7933 53.4315C46.3391 53.7405 45.8843 54.0489 45.4295 54.3563C45.3519 54.2452 45.2744 54.1335 45.1974 54.0224C45.6647 53.709 46.1271 53.387 46.5977 53.078Z" fill="#111111"/>
<path d="M65.6779 53.8988C65.8616 53.6386 66.066 53.3941 66.2649 53.1458C66.9377 53.6852 67.6131 54.2218 68.2864 54.7612C68.0067 55.094 67.7671 55.4697 67.4196 55.7375C67.0846 56.0015 66.5999 55.9988 66.2292 55.8123C65.8302 55.6107 65.4952 55.2323 65.435 54.7786C65.3862 54.4652 65.5006 54.1524 65.6779 53.8988ZM65.8633 54.2869C65.7337 54.5563 65.8156 54.8837 66.0053 55.1033C66.2422 55.3846 66.6065 55.6204 66.9897 55.5348C67.3426 55.4562 67.5356 55.1212 67.7595 54.8696C67.27 54.475 66.7821 54.0776 66.2845 53.6944C66.1175 53.87 65.9695 54.0684 65.8633 54.2869Z" fill="#111111"/>
<path d="M56.1573 54.9994C56.843 54.9419 57.5391 54.9446 58.2183 55.0634C58.3891 55.1018 58.5761 55.1284 58.7159 55.2417C58.7989 55.3057 58.7051 55.3946 58.6401 55.4211C58.3538 55.5512 58.0351 55.58 57.7261 55.6136C57.0479 55.6683 56.36 55.6634 55.6884 55.5453C55.5155 55.5046 55.3225 55.4775 55.1864 55.3534C55.1333 55.2639 55.239 55.2059 55.3062 55.1756C55.5756 55.0639 55.8695 55.0314 56.1573 54.9994Z" fill="#111111"/>
<path d="M55.2005 59.5245C55.4151 59.3922 55.722 59.5602 55.7296 59.8107C55.7583 60.0731 55.4466 60.2823 55.2157 60.1527C54.9641 60.0422 54.9549 59.647 55.2005 59.5245Z" fill="#111111"/>
<path d="M58.8251 60.1103C59.062 59.9759 59.3813 60.1971 59.3406 60.4654C59.3233 60.7278 58.9812 60.879 58.7763 60.7131C58.5638 60.5716 58.5936 60.2155 58.8251 60.1103Z" fill="#111111"/>
</g>
<defs>
<clipPath id="clip0_133_75">
<rect width="122.023" height="36" fill="white" transform="translate(42.0001 32)"/>
</clipPath>
</defs>
</svg>
