<svg width="206" height="100" viewBox="0 0 206 100" fill="none" xmlns="http://www.w3.org/2000/svg">
<path fill-rule="evenodd" clip-rule="evenodd" d="M52.5578 36.0892C51.0095 36.7625 51.6044 39.2334 53.3147 39.2334C55.047 39.2334 55.62 36.7433 54.0398 36.0829C53.4298 35.8282 53.1553 35.8293 52.5578 36.0892ZM58.0901 38.6487C56.3485 39.0555 56.0564 41.5851 57.6629 42.3475C59.1184 43.0382 60.5396 42.1336 60.541 40.5159C60.542 39.241 59.3717 38.3492 58.0901 38.6487ZM47.4586 39.2249C46.3307 39.7009 46.224 41.3015 47.2787 41.9245C48.19 42.4628 49.4459 41.702 49.4459 40.6114C49.4459 39.667 48.3021 38.869 47.4586 39.2249ZM62.7109 41.7384C62.0373 42.1289 61.5635 42.9596 61.5635 43.7499C61.5635 44.8366 62.2206 45.6544 63.3346 45.9543C64.9084 46.3781 66.4507 44.8507 66.0853 43.2303C65.7425 41.7105 64.0495 40.962 62.7109 41.7384ZM52.8768 42.1101C52.3983 42.2275 51.7919 42.9002 51.6939 43.4223C51.4045 44.9646 53.2476 46.0082 54.4164 44.9637C55.2006 44.2629 55.1274 42.8726 54.2785 42.3424C53.9542 42.1399 53.2387 42.0213 52.8768 42.1101ZM41.8009 42.8301C40.9988 43.6324 41.5735 44.9272 42.7316 44.9272C43.1752 44.9272 43.898 44.1581 43.898 43.6862C43.898 43.4527 43.7285 43.1293 43.4713 42.872C42.9216 42.3224 42.3239 42.3073 41.8009 42.8301ZM153.225 42.5913L147.461 58.279H149.616L151.249 54.1196H157.555L159.206 58.279H161.31L155.444 42.5913H153.225ZM163.177 58.3588H165.221V42.5913H163.177V58.3588ZM57.5193 45.0674C56.2668 45.8309 56.3185 47.8302 57.6079 48.497C58.5531 48.9858 59.9014 48.5929 60.3548 47.6968C60.6258 47.1612 60.5795 46.2323 60.2554 45.7008C59.7076 44.8021 58.4366 44.5079 57.5193 45.0674ZM47.4586 45.3567C46.3307 45.8327 46.224 47.4334 47.2787 48.0563C48.19 48.5946 49.4459 47.8338 49.4459 46.7433C49.4459 45.7988 48.3021 45.0008 47.4586 45.3567ZM151.965 52.0134L156.865 52.008L154.393 45.2923L151.965 52.0134ZM62.8731 47.8836C61.2309 48.7132 61.0955 50.71 62.6053 51.8281C63.8478 52.7482 65.7387 51.9569 66.0973 50.3669C66.3369 49.3049 65.5467 47.9942 64.4899 47.7006C63.7574 47.497 63.6041 47.5144 62.8731 47.8836ZM52.1856 48.7111C51.7637 49.0881 51.7088 49.224 51.7088 49.8911C51.7088 50.5581 51.7637 50.6941 52.1856 51.071C52.5616 51.4069 52.8003 51.497 53.3147 51.497C53.8292 51.497 54.0679 51.4069 54.4439 51.071C54.8658 50.6941 54.9207 50.5581 54.9207 49.8911C54.9207 49.224 54.8658 49.0881 54.4439 48.7111C54.0679 48.3752 53.8292 48.2851 53.3147 48.2851C52.8003 48.2851 52.5616 48.3752 52.1856 48.7111ZM42.3315 48.6906C41.8998 48.7596 41.4161 49.394 41.4161 49.8911C41.4161 50.1104 41.5523 50.4628 41.7187 50.6743C42.357 51.4859 43.898 50.9598 43.898 49.9302C43.898 49.1491 43.1526 48.5593 42.3315 48.6906ZM57.5193 51.3452C56.2668 52.1088 56.3185 54.108 57.6079 54.7748C57.8484 54.8992 58.3518 55.0009 58.7265 55.0009C59.3234 55.0009 59.4783 54.9306 59.9748 54.4342C60.4782 53.9306 60.5415 53.7879 60.541 53.1567C60.5401 51.9001 59.7374 51.0585 58.5414 51.0596C58.2363 51.0599 57.7762 51.1884 57.5193 51.3452ZM47.3289 51.6665C46.4312 52.1601 46.2569 53.2353 46.949 54.0098C47.2991 54.4016 47.4778 54.4834 47.9859 54.4834C48.494 54.4834 48.6727 54.4016 49.0228 54.0098C49.6289 53.3315 49.604 52.6479 48.9495 51.9934C48.4259 51.4699 47.8849 51.3608 47.3289 51.6665ZM62.7633 54.0758C61.2701 54.8117 61.1689 57.0634 62.5853 58.0303C63.2493 58.4835 64.4015 58.4834 65.0744 58.0299C66.9426 56.7708 66.1278 53.8254 63.9143 53.8363C63.5448 53.8381 63.0268 53.9458 62.7633 54.0758ZM52.1856 54.843C51.766 55.2177 51.7088 55.3577 51.7088 56.0082C51.7088 56.6443 51.7736 56.812 52.1739 57.2123C52.5653 57.6037 52.7483 57.6775 53.3277 57.6775C53.938 57.6775 54.0741 57.6147 54.5221 57.1256C54.9833 56.6225 55.0213 56.5145 54.9522 55.9016C54.7941 54.4999 53.2366 53.9039 52.1856 54.843ZM42.0731 55.0313C41.6244 55.2885 41.4254 55.6157 41.4254 56.0959C41.4254 56.7784 42.0132 57.3369 42.7316 57.3369C43.1752 57.3369 43.898 56.5678 43.898 56.0959C43.898 55.6093 43.1685 54.8533 42.7048 54.8593C42.5179 54.8618 42.2337 54.9392 42.0731 55.0313ZM57.659 57.431C56.0747 58.2121 56.343 60.6356 58.0713 61.1535C58.7908 61.3691 59.5177 61.1208 60.0963 60.4618C60.4583 60.0495 60.5414 59.8259 60.541 59.2662C60.5398 57.6892 59.0543 56.7432 57.659 57.431ZM47.2305 57.8788C46.4217 58.3806 46.2938 59.4084 46.949 60.1416C47.2991 60.5334 47.4778 60.6152 47.9859 60.6152C48.494 60.6152 48.6727 60.5334 49.0228 60.1416C49.6289 59.4633 49.604 58.7797 48.9495 58.1252C48.3891 57.5649 47.859 57.4888 47.2305 57.8788ZM52.4772 60.7773C51.342 61.3932 51.3937 63.1128 52.5639 63.668C53.1797 63.9603 53.4037 63.9649 54.0398 63.6992C54.9379 63.3239 55.2473 62.2073 54.7011 61.3116C54.2447 60.5631 53.2933 60.3345 52.4772 60.7773Z" fill="black"/>
<path fill-rule="evenodd" clip-rule="evenodd" d="M81.7109 41.2202C79.2885 41.5264 77.1214 42.7759 75.6615 44.7082C74.7775 45.8783 74.2451 47.1416 74.0055 48.6377C73.9369 49.0662 73.9111 50.1625 73.9587 50.6267C74.172 52.7095 75.0682 54.5474 76.5857 56.0145C77.96 57.343 79.6465 58.1627 81.5902 58.4467C82.0634 58.5158 83.3869 58.5252 83.8995 58.463C85.9225 58.2176 87.4499 57.4771 88.7993 56.0877C89.2264 55.6479 89.502 55.2938 89.7807 54.8269C90.5219 53.5852 90.9289 51.8563 90.8628 50.2305C90.8449 49.7897 90.8054 49.3741 90.7636 49.185L90.7481 49.115H86.7387H82.7292V50.2984V51.4819H85.5718H88.4143L88.3933 51.6142C88.2435 52.5578 87.9566 53.3264 87.5325 53.9207C87.4247 54.0716 87.1802 54.3449 86.9891 54.528C85.8551 55.6143 84.5118 56.1236 82.776 56.1254C81.7317 56.1266 80.9025 55.94 79.9986 55.5005C77.7835 54.4236 76.4355 52.1312 76.5287 49.5992C76.5659 48.5881 76.7973 47.7098 77.2533 46.849C78.3824 44.7177 80.6155 43.4387 83.0101 43.5519C84.2084 43.6086 85.177 43.9129 86.1255 44.5306C86.351 44.6774 86.5133 44.8012 86.9477 45.1576L87.04 45.2332L87.8726 44.4002L88.7053 43.567L88.4556 43.333C88.3183 43.2043 88.0515 42.9833 87.8627 42.842C86.725 41.9905 85.55 41.4918 84.1436 41.2635C83.6168 41.178 82.2389 41.1535 81.7109 41.2202ZM128.229 49.987V58.1777H129.43H130.631V49.987V41.7963H129.43H128.229V49.987ZM96.7739 47.3755C96.1958 47.4358 95.5224 47.6263 94.9679 47.8865C92.6345 48.9816 91.4035 51.5172 91.9383 54.1271C92.4664 56.7038 94.7475 58.5221 97.4497 58.52C98.9882 58.5188 100.406 57.9324 101.469 56.8575C101.864 56.4574 102.158 56.0588 102.403 55.5906C102.851 54.7325 103.044 53.9327 103.044 52.93C103.044 51.9715 102.866 51.188 102.468 50.3866C101.432 48.3036 99.1988 47.1228 96.7739 47.3755ZM108.912 47.372C107.799 47.5075 106.762 47.9328 105.971 48.5789C104.361 49.8933 103.635 51.9655 104.045 54.0814C104.455 56.2029 106.121 57.9014 108.257 58.3754C109.655 58.6858 111.129 58.4828 112.329 57.8148C113.169 57.3466 113.889 56.656 114.377 55.8501C115.459 54.0631 115.424 51.6061 114.293 49.8699C113.964 49.3662 113.528 48.8894 113.05 48.5128C112.378 47.9822 111.478 47.5901 110.566 47.4293C110.155 47.357 109.283 47.3268 108.912 47.372ZM120.833 47.3716C119.035 47.6206 117.486 48.7447 116.651 50.4074C116.297 51.1117 116.115 51.7735 116.06 52.5504C115.897 54.8376 117.134 56.9846 119.194 57.991C120.351 58.556 121.618 58.6724 122.728 58.3155C123.27 58.1412 123.83 57.8003 124.202 57.4185C124.296 57.3222 124.385 57.2434 124.4 57.2434C124.416 57.2434 124.421 57.5838 124.413 58.0298C124.4 58.6754 124.386 58.8638 124.334 59.0828C124.193 59.6735 123.971 60.1107 123.626 60.4782C123.166 60.9665 122.632 61.2095 121.826 61.2968C120.542 61.4357 119.411 60.8105 118.777 59.6112L118.632 59.3371L117.571 59.7756C116.988 60.0168 116.504 60.2186 116.497 60.224C116.476 60.2394 116.65 60.5906 116.826 60.8895C117.35 61.7772 118.14 62.5166 119.053 62.9738C119.839 63.3669 120.825 63.5679 121.738 63.5208C123.244 63.443 124.392 62.976 125.28 62.0791C125.931 61.4224 126.407 60.4751 126.62 59.4124C126.775 58.6396 126.771 58.7883 126.784 53.0776L126.795 47.6816L125.616 47.6898L124.437 47.6979L124.428 48.1417C124.423 48.3858 124.409 48.5855 124.397 48.5855C124.384 48.5855 124.28 48.4957 124.165 48.386C123.668 47.9113 122.968 47.5611 122.228 47.4162C121.926 47.3571 121.122 47.3314 120.833 47.3716ZM136.311 47.3716C134.637 47.6043 133.284 48.4858 132.45 49.8877C132.054 50.5524 131.78 51.4014 131.69 52.2449C131.634 52.7706 131.67 53.6154 131.77 54.0979C132.272 56.515 134.148 58.2205 136.598 58.4873C138.364 58.6794 140.076 58.0525 141.293 56.769C141.528 56.5212 141.867 56.0897 141.864 56.0416C141.863 56.0156 140.066 54.8138 139.988 54.7868C139.969 54.7803 139.94 54.7988 139.924 54.8278C139.908 54.8569 139.792 55.0031 139.667 55.1529C138.996 55.9578 138.096 56.3513 137.046 56.2994C136.225 56.2587 135.617 55.994 135.09 55.4479C134.829 55.1766 134.482 54.6541 134.537 54.6152C134.543 54.6111 134.927 54.4518 135.39 54.2612C137.425 53.4247 141.97 51.5435 141.98 51.5343C141.998 51.5165 141.648 50.6668 141.488 50.3399C141.403 50.1658 141.222 49.8574 141.087 49.6548C140.272 48.4348 139.215 47.6956 137.906 47.4294C137.561 47.3592 136.64 47.3259 136.311 47.3716ZM136.563 49.5518C135.968 49.6765 135.392 49.9991 134.963 50.4494C134.465 50.9706 134.213 51.5191 134.123 52.2754C134.105 52.43 134.095 52.5999 134.101 52.653L134.111 52.7495L136.576 51.7273C137.932 51.1651 139.054 50.7004 139.07 50.6947C139.128 50.6735 138.911 50.3392 138.709 50.1393C138.482 49.9141 138.082 49.6924 137.731 49.5967C137.511 49.5369 136.77 49.5084 136.563 49.5518ZM97.0687 49.5702C96.3357 49.6805 95.7503 49.9714 95.2587 50.4697C94.7932 50.9414 94.5065 51.4836 94.3611 52.167C94.2851 52.5241 94.2722 53.2153 94.335 53.5685C94.6302 55.2309 95.9918 56.3807 97.568 56.2984C98.7181 56.2384 99.6815 55.6025 100.206 54.5571C100.781 53.4104 100.695 51.9666 99.9879 50.9143C99.8215 50.6666 99.4673 50.3008 99.2219 50.1233C98.9845 49.9516 98.4729 49.7171 98.1765 49.6441C97.9182 49.5805 97.282 49.5381 97.0687 49.5702ZM109.05 49.5943C108.42 49.7147 107.983 49.9234 107.51 50.3297C107.076 50.7021 106.685 51.347 106.518 51.9653C106.441 52.2532 106.434 52.3229 106.433 52.9145C106.431 53.489 106.438 53.5806 106.504 53.8296C106.916 55.3863 108.205 56.3793 109.707 56.2985C111.108 56.2231 112.212 55.2772 112.599 53.821C112.688 53.4845 112.713 52.6625 112.645 52.2755C112.417 50.9669 111.532 49.9671 110.325 49.6563C109.947 49.5588 109.381 49.5313 109.05 49.5943ZM121.11 49.5972C120.141 49.7814 119.299 50.4451 118.866 51.3659C118.345 52.4754 118.424 53.8922 119.061 54.8699C119.684 55.827 120.677 56.3541 121.753 56.2992C122.178 56.2775 122.512 56.1929 122.877 56.0146C124.119 55.407 124.797 53.9235 124.56 52.3325C124.359 50.9775 123.513 49.9629 122.315 49.6384C122.019 49.5581 121.423 49.5378 121.11 49.5972Z" fill="black"/>
</svg>
