<svg width="206" height="100" viewBox="0 0 206 100" fill="none" xmlns="http://www.w3.org/2000/svg">
<path d="M135.317 50.0182C135.317 49.8477 135.317 49.6712 135.317 49.4886C135.317 49.2939 135.299 49.1051 135.263 48.9226C135.238 48.7399 135.22 48.5573 135.208 48.3747C135.196 48.1921 135.171 48.0217 135.135 47.8635H124.964L121.878 52.7023H129.693C129.462 53.518 129.127 54.2605 128.689 54.93C128.263 55.5874 127.752 56.1595 127.155 56.6464V56.6647C126.534 57.1516 125.847 57.5351 125.092 57.8151C124.349 58.0829 123.558 58.2168 122.718 58.2168C122.694 58.2168 122.669 58.2168 122.645 58.2168C122.633 58.2168 122.627 58.2168 122.627 58.2168C121.531 58.2168 120.496 57.9977 119.523 57.5594C118.549 57.1213 117.715 56.5369 117.021 55.8065C116.303 55.0395 115.737 54.1631 115.323 53.177C114.909 52.191 114.702 51.1381 114.702 50.0182C114.702 50.006 114.702 49.9999 114.702 49.9999C114.702 49.9877 114.702 49.9694 114.702 49.945C114.702 48.8373 114.909 47.7965 115.323 46.8226C115.737 45.8366 116.309 44.9784 117.039 44.248C117.757 43.5176 118.604 42.9333 119.577 42.495C120.551 42.0568 121.586 41.8377 122.682 41.8377C122.682 41.8377 122.688 41.8377 122.7 41.8377C122.712 41.8377 122.718 41.8377 122.718 41.8377C122.718 41.8377 122.724 41.8377 122.736 41.8377C122.761 41.8377 122.773 41.8377 122.773 41.8377C123.235 41.8377 123.692 41.8803 124.142 41.9655C124.605 42.0385 125.049 42.1481 125.475 42.2942L125.384 42.2576C125.822 42.4159 126.23 42.5985 126.607 42.8054C126.985 43.0124 127.338 43.2376 127.667 43.481V43.4628L129.036 41.2899L130.406 39.0987C129.894 38.7456 129.346 38.4291 128.762 38.1491C128.19 37.8692 127.593 37.6318 126.973 37.437L126.881 37.4005C126.273 37.23 125.621 37.0961 124.928 36.9987C124.234 36.8892 123.534 36.8344 122.828 36.8344C122.803 36.8344 122.785 36.8344 122.773 36.8344C122.773 36.8344 122.761 36.8344 122.736 36.8344C122.724 36.8344 122.706 36.8344 122.682 36.8344C122.669 36.8344 122.651 36.8344 122.627 36.8344C121.689 36.8344 120.776 36.9196 119.888 37.09C119.011 37.2605 118.159 37.5161 117.331 37.857L117.441 37.8204C116.637 38.1734 115.889 38.5812 115.195 39.0438C114.501 39.5064 113.868 40.0238 113.296 40.5959C112.614 41.3141 112.036 42.0202 111.561 42.7141C111.099 43.4323 110.715 44.1322 110.411 44.8139C110.107 45.4956 109.857 46.1834 109.662 46.8773C109.48 47.5468 109.315 48.2103 109.169 48.8676C108.889 50.158 108.597 51.3875 108.293 52.5561C107.988 53.7248 107.361 54.7778 106.412 55.7151C106.047 56.0925 105.645 56.4394 105.207 56.756C104.781 57.0602 104.336 57.3159 103.874 57.5228L103.819 57.5593C103.356 57.742 102.87 57.8881 102.358 57.9976C101.859 58.1072 101.33 58.1619 100.77 58.1619C100.77 58.1619 100.757 58.1619 100.733 58.1619C100.721 58.1619 100.715 58.1619 100.715 58.1619C99.5828 58.1619 98.5176 57.9428 97.5194 57.5046C96.5212 57.0663 95.6447 56.4698 94.8899 55.7151C94.1596 54.9969 93.5753 54.1387 93.137 53.1405C92.6988 52.1301 92.4797 51.0588 92.4797 49.9267C92.4797 48.8311 92.6927 47.7964 93.1187 46.8225C93.5448 45.8365 94.1291 44.9783 94.8717 44.2479C95.6142 43.5053 96.4846 42.9149 97.4828 42.4767C98.481 42.0263 99.5463 41.8011 100.678 41.8011C101.153 41.8011 101.616 41.8437 102.066 41.9289C102.517 42.0019 102.961 42.1054 103.399 42.2393H103.326C103.764 42.3732 104.166 42.5436 104.531 42.7506C104.896 42.9453 105.249 43.1645 105.59 43.4079H105.554L106.941 41.235L108.347 39.0256C107.848 38.6847 107.307 38.3743 106.722 38.0943C106.15 37.8143 105.548 37.5769 104.915 37.3822H104.842C104.233 37.1874 103.582 37.0413 102.888 36.9439C102.206 36.8465 101.506 36.7979 100.788 36.7979C100.776 36.7979 100.757 36.7979 100.733 36.7979C100.721 36.7979 100.709 36.7979 100.697 36.7979C100.697 36.7979 100.69 36.7979 100.678 36.7979C100.666 36.7979 100.66 36.7979 100.66 36.7979C99.5279 36.7979 98.4324 36.9378 97.3732 37.2178C96.3264 37.4856 95.3404 37.863 94.4152 38.3499L94.47 38.3317C93.557 38.7942 92.717 39.3603 91.9501 40.0298C91.1832 40.6993 90.5015 41.4358 89.9049 42.2393L89.8685 42.2576C89.625 41.5272 89.2719 40.8637 88.8093 40.2672C88.3468 39.6586 87.799 39.1534 87.1659 38.7517H87.1476C86.4782 38.3134 85.7417 37.9726 84.9382 37.7291C84.1349 37.4735 83.2948 37.3456 82.4184 37.3456C82.3818 37.3456 82.3515 37.3456 82.3271 37.3456C82.3027 37.3456 82.2844 37.3456 82.2724 37.3456H70.5312V62.6538H83.4958C83.5202 62.6538 83.5444 62.6538 83.5688 62.6538C83.5932 62.6538 83.6115 62.6538 83.6236 62.6538C84.4028 62.6538 85.1453 62.5565 85.8513 62.3617C86.5574 62.1791 87.2269 61.9174 87.8599 61.5765L87.8051 61.5948C88.4016 61.2661 88.9372 60.8766 89.412 60.4261C89.8989 59.9636 90.3067 59.4523 90.6354 58.8923L90.6719 58.8375C91.2562 59.5071 91.9075 60.1036 92.6257 60.627C93.344 61.1504 94.1048 61.607 94.9082 61.9965L94.9995 62.0147C95.803 62.3799 96.6673 62.666 97.5925 62.8729C98.5176 63.0921 99.4793 63.2017 100.477 63.2017C100.477 63.2017 100.484 63.2017 100.496 63.2017C100.508 63.2017 100.52 63.2017 100.532 63.2017C100.557 63.2017 100.575 63.2017 100.587 63.2017C100.599 63.2017 100.617 63.2017 100.642 63.2017C101.774 63.2017 102.876 63.0617 103.947 62.7816C105.018 62.5138 106.016 62.1243 106.941 61.6131L106.887 61.6678C107.836 61.1687 108.694 60.5784 109.461 59.8966C110.228 59.2028 110.91 58.4358 111.507 57.5959L111.525 57.5411C112.109 58.3932 112.779 59.1662 113.533 59.8602C114.3 60.5418 115.128 61.1261 116.017 61.6131L116.071 61.6496C116.997 62.1365 117.995 62.5139 119.066 62.7817C120.137 63.0617 121.251 63.2017 122.408 63.2017C122.408 63.2017 122.414 63.2017 122.426 63.2017C122.438 63.2017 122.456 63.2017 122.481 63.2017C122.493 63.2017 122.505 63.2017 122.517 63.2017C122.529 63.2017 122.535 63.2017 122.535 63.2017C123.424 63.2017 124.288 63.1105 125.128 62.9278C125.968 62.7451 126.772 62.4835 127.539 62.1426C128.318 61.814 129.048 61.4122 129.73 60.9375C130.412 60.4506 131.039 59.9088 131.611 59.3123C132.195 58.7281 132.712 58.0829 133.163 57.3768C133.613 56.6829 133.997 55.9464 134.313 55.1673C134.63 54.3883 134.873 53.5726 135.044 52.7205C135.226 51.8806 135.317 51.0041 135.317 50.0911C135.317 50.0789 135.317 50.0667 135.317 50.0545C135.317 50.0424 135.317 50.0303 135.317 50.0182ZM75.991 47.6261V42.0203H82.2177C82.2299 42.0203 82.2359 42.0203 82.2359 42.0203C82.6255 42.0203 82.9846 42.0933 83.3133 42.2394C83.642 42.3733 83.9402 42.5681 84.208 42.8237H84.1897C84.4454 43.0794 84.6402 43.3715 84.7741 43.7002C84.9201 44.0289 84.9932 44.3819 84.9932 44.7593C84.9932 44.7593 84.9932 44.7655 84.9932 44.7775C84.9932 44.7897 84.9932 44.7958 84.9932 44.7958C84.9932 44.8202 84.9932 44.8324 84.9932 44.8324C84.9932 44.8324 84.9932 44.8446 84.9932 44.8689C84.9932 45.2341 84.9201 45.5872 84.7741 45.928C84.6402 46.2567 84.4515 46.5488 84.208 46.8045H84.1897C83.9341 47.0601 83.642 47.261 83.3133 47.4071C82.9846 47.5531 82.6255 47.6262 82.2359 47.6262C82.2359 47.6262 82.2297 47.6262 82.2177 47.6262L75.991 47.6261ZM75.991 57.9795V52.2276H83.4228C83.435 52.2276 83.441 52.2276 83.441 52.2276C83.8428 52.2276 84.2202 52.3006 84.5732 52.4467C84.9384 52.5928 85.261 52.7876 85.5409 53.0311C85.8088 53.2866 86.0219 53.591 86.18 53.944C86.3383 54.297 86.4174 54.6683 86.4174 55.0578C86.4174 55.0578 86.4174 55.0641 86.4174 55.0761C86.4174 55.49 86.3383 55.8735 86.18 56.2265C86.0219 56.5795 85.8027 56.89 85.5228 57.1577C85.2549 57.4255 84.9384 57.6325 84.5732 57.7785C84.2202 57.9246 83.8367 57.9977 83.4228 57.9977H75.991V57.9795Z" fill="#111111"/>
</svg>
