<svg width="206" height="100" viewBox="0 0 206 100" fill="none" xmlns="http://www.w3.org/2000/svg">
<g clip-path="url(#clip0_133_19)">
<path d="M85.5868 58.7421L86.7585 56.0208C88.0246 56.9657 89.7065 57.457 91.3695 57.457C92.5978 57.457 93.3726 56.9846 93.3726 56.2665C93.3537 54.2633 86.0215 55.8319 85.9648 50.8051C85.9459 48.2539 88.2136 46.2885 91.4262 46.2885C93.3348 46.2885 95.2435 46.761 96.6041 47.8382L95.5081 50.6161C94.2608 49.8224 92.7112 49.2555 91.2372 49.2555C90.2356 49.2555 89.5742 49.7279 89.5742 50.3326C89.5931 52.298 96.9821 51.2208 97.0577 56.0208C97.0577 58.6287 94.8466 60.4618 91.6718 60.4618C89.3474 60.4618 87.212 59.9137 85.5868 58.7421ZM130.544 55.0382C129.958 56.0586 128.862 56.7578 127.596 56.7578C125.725 56.7578 124.214 55.246 124.214 53.3752C124.214 51.5043 125.725 49.9925 127.596 49.9925C128.862 49.9925 129.958 50.6917 130.544 51.7122L133.776 49.9169C132.566 47.7626 130.242 46.2885 127.596 46.2885C123.684 46.2885 120.51 49.4633 120.51 53.3752C120.51 57.287 123.684 60.4618 127.596 60.4618C130.261 60.4618 132.566 59.0067 133.776 56.8334L130.544 55.0382ZM98.6829 40.4114H102.727V60.1972H98.6829V40.4114ZM135.363 40.4114V60.1972H139.407V54.2633L144.207 60.1972H149.385L143.281 53.1484L148.932 46.572H143.981L139.407 52.0334V40.4114H135.363ZM114.746 55.0759C114.16 56.0397 112.951 56.7578 111.59 56.7578C109.719 56.7578 108.207 55.246 108.207 53.3752C108.207 51.5043 109.719 49.9925 111.59 49.9925C112.951 49.9925 114.16 50.7484 114.746 51.7311V55.0759ZM114.746 46.572V48.1783C114.084 47.0633 112.44 46.2885 110.721 46.2885C107.168 46.2885 104.371 49.4256 104.371 53.3563C104.371 57.287 107.168 60.4618 110.721 60.4618C112.44 60.4618 114.084 59.687 114.746 58.572V60.1783H118.79V46.572H114.746Z" fill="#111111"/>
<path d="M60.5855 55.057C60.5855 56.4366 59.4705 57.5515 58.091 57.5515C56.7115 57.5515 55.5965 56.4366 55.5965 55.057C55.5965 53.6775 56.7115 52.5625 58.091 52.5625H60.5855V55.057ZM61.8327 55.057C61.8327 53.6775 62.9477 52.5625 64.3272 52.5625C65.7068 52.5625 66.8217 53.6775 66.8217 55.057V61.2933C66.8217 62.6728 65.7068 63.7878 64.3272 63.7878C62.9477 63.7878 61.8327 62.6728 61.8327 61.2933V55.057Z" fill="#111111"/>
<path d="M64.3268 45.0415C62.9473 45.0415 61.8323 43.9265 61.8323 42.547C61.8323 41.1675 62.9473 40.0525 64.3268 40.0525C65.7064 40.0525 66.8213 41.1675 66.8213 42.547V45.0415H64.3268ZM64.3268 46.3076C65.7064 46.3076 66.8213 47.4226 66.8213 48.8021C66.8213 50.1816 65.7064 51.2966 64.3268 51.2966H58.0717C56.6922 51.2966 55.5772 50.1816 55.5772 48.8021C55.5772 47.4226 56.6922 46.3076 58.0717 46.3076H64.3268Z" fill="#111111"/>
<path d="M74.3231 48.8023C74.3231 47.4228 75.438 46.3079 76.8175 46.3079C78.1971 46.3079 79.312 47.4228 79.312 48.8023C79.312 50.1819 78.1971 51.2968 76.8175 51.2968H74.3231V48.8023ZM73.0759 48.8023C73.0759 50.1819 71.9609 51.2968 70.5814 51.2968C69.2019 51.2968 68.0869 50.1819 68.0869 48.8023V42.5472C68.0869 41.1677 69.2019 40.0527 70.5814 40.0527C71.9609 40.0527 73.0759 41.1677 73.0759 42.5472V48.8023Z" fill="#111111"/>
<path d="M70.5814 58.7987C71.9609 58.7987 73.0759 59.9137 73.0759 61.2932C73.0759 62.6728 71.9609 63.7877 70.5814 63.7877C69.2019 63.7877 68.0869 62.6728 68.0869 61.2932V58.7987H70.5814ZM70.5814 57.5515C69.2019 57.5515 68.0869 56.4365 68.0869 55.057C68.0869 53.6775 69.2019 52.5625 70.5814 52.5625H76.8364C78.216 52.5625 79.3309 53.6775 79.3309 55.057C79.3309 56.4365 78.216 57.5515 76.8364 57.5515H70.5814Z" fill="#111111"/>
</g>
<defs>
<clipPath id="clip0_133_19">
<rect width="94.1102" height="24" fill="white" transform="translate(55.4453 39.939)"/>
</clipPath>
</defs>
</svg>
