<svg width="206" height="100" viewBox="0 0 206 100" fill="none" xmlns="http://www.w3.org/2000/svg">
<path d="M111.032 46.0485L100 35.8872V52.9195H103V43.0485L114.129 53.3066V36.1775H111.032V46.0485Z" fill="#111111"/>
<path d="M89.5488 36.1777V52.8229H92.7424V36.1777H89.5488Z" fill="#111111"/>
<path d="M85.4827 52.8223L77.3536 35.79L69.2246 52.8223H72.4182L74.0633 49.2417H80.4504L81.9988 52.8223H85.4827ZM75.2246 46.6287L77.3536 41.79L79.2891 46.6287H75.2246Z" fill="#111111"/>
<path d="M63.6123 44.0164C64.9672 43.4358 65.8381 41.9842 65.8381 40.5326C65.8381 37.6293 63.5156 36.1777 59.5478 36.1777H55.5801V52.8229H60.322C64.5801 52.8229 66.9027 51.081 66.9027 47.9842C66.8059 46.0487 65.451 44.4035 63.6123 44.0164ZM60.1285 45.7584C62.3543 45.7584 63.6123 46.339 63.6123 48.081C63.6123 49.6293 62.451 50.3068 60.1285 50.3068H58.7736V45.7584H60.1285ZM58.7736 43.2423V38.6939H59.3543C61.6769 38.6939 62.8381 39.2745 62.8381 41.0164C62.8381 42.7584 61.6769 43.2423 59.451 43.2423H58.7736Z" fill="#111111"/>
<path d="M141.026 49.8074L138.37 38.0427L131.064 47.5303L141.026 49.8074ZM150.419 49.0484C150.419 57.018 143.873 63.5645 135.903 63.5645C127.933 63.5645 121.387 57.018 121.387 49.0484C121.387 41.0787 127.933 34.5322 135.903 34.5322C136.662 34.5322 137.421 34.6271 138.18 34.722L136.946 36.3349H135.903C132.677 36.3349 129.641 37.5683 127.269 39.7504C124.992 42.0275 123.664 45.0635 123.664 48.2893C123.664 55.0256 129.167 60.5284 135.903 60.5284C142.639 60.5284 148.142 55.0256 148.142 48.2893C148.142 43.3558 145.011 38.8966 140.362 37.1888L139.888 35.1964C146.15 36.9041 150.419 42.5967 150.419 49.0484Z" fill="#111111"/>
<path d="M72.0977 60.1111C72.0977 60.9862 72.4258 61.8248 73.0457 62.4447C73.6655 63.0645 74.5042 63.3927 75.3793 63.3927C77.2024 63.3927 78.6609 61.9342 78.6609 60.1111C78.6973 59.236 78.3692 58.3609 77.7493 57.741C77.1294 57.1212 76.2544 56.7566 75.3793 56.793C73.5561 56.8295 72.0977 58.288 72.0977 60.1111ZM73.3374 60.1111C73.3374 58.9443 74.176 57.8504 75.4157 57.8504C76.6554 57.8504 77.4941 58.762 77.4941 60.1111C77.5305 60.6945 77.3118 61.2414 76.9107 61.679C76.5096 62.1165 75.9627 62.3353 75.4157 62.3353C74.176 62.3718 73.3374 61.4237 73.3374 60.1111Z" fill="#111111"/>
<path d="M64.9149 60.1107C64.8785 60.9858 65.2066 61.8609 65.8265 62.4807C66.4463 63.1006 67.3214 63.4287 68.1965 63.3923C69.181 63.4287 70.129 62.9547 70.7124 62.1526L70.7489 62.1161L69.8373 61.3504L69.8009 61.4233C69.4727 62.0432 68.8528 62.4078 68.1601 62.3713C66.9203 62.3713 66.0817 61.3869 66.0817 60.1107C66.0452 59.5273 66.264 58.9803 66.6286 58.5428C67.0297 58.1053 67.5767 57.85 68.1601 57.85C68.8164 57.85 69.4362 58.2146 69.8009 58.7616L69.8373 58.798L70.7489 58.0688L70.7124 58.0323C70.0926 57.2666 69.1445 56.8291 68.1601 56.8291C67.285 56.8291 66.4463 57.1572 65.8629 57.7771C65.2795 58.3969 64.9149 59.2356 64.9149 60.1107Z" fill="#111111"/>
<path d="M111.149 60.6213V63.2466H112.315V60.6213L114.613 56.9751H113.336L111.732 59.491L110.201 56.9751H108.852L111.149 60.6213Z" fill="#111111"/>
<path d="M89.8183 56.9751V63.2466H91.0216V60.913C91.0945 60.913 91.2039 60.9495 91.3133 60.9495C92.8447 60.9495 93.9021 60.2931 93.9021 58.9805C93.9021 57.7408 92.9905 56.9751 91.2768 56.9751H89.8183ZM91.0216 57.9231H91.3133C92.2977 57.9231 92.6988 58.2877 92.6988 58.944C92.6988 59.6004 92.2613 59.965 91.3133 59.965C91.2039 59.965 91.1309 59.965 91.0216 59.9285V57.9231Z" fill="#111111"/>
<path d="M81.8706 59.8554L83.8396 63.4287L85.7721 59.8554L86.5378 63.2464H87.7775L86.1367 56.8655L83.876 61.0951L81.5424 56.8655L79.9745 63.2828H81.1413L81.8706 59.8554Z" fill="#111111"/>
<path d="M59.8097 63.2829H61.1953C61.1953 63.2829 60.1379 62.0797 59.9555 61.8609C60.1014 61.6786 61.013 60.293 61.013 60.293H59.8826L59.3357 61.1316L58.3512 60.0013C59.1898 59.5638 59.7003 58.9439 59.7003 58.2876C59.7003 57.4125 58.9346 56.8291 57.9501 56.8291C56.8563 56.8291 56.127 57.4854 56.127 58.3605C56.1635 58.9439 56.4187 59.4544 56.8198 59.8555C56.1635 60.2201 55.5801 60.767 55.5801 61.6786C55.5801 62.6631 56.3822 63.4288 57.549 63.4288C58.2054 63.4288 58.8617 63.1735 59.2992 62.6631L59.8097 63.2829ZM57.2209 58.397C57.2209 58.2147 57.2938 57.9959 57.4397 57.8865C57.5855 57.7407 57.7678 57.6677 57.9501 57.6677C58.1324 57.6677 58.3147 57.7042 58.4606 57.85C58.6064 57.9594 58.6794 58.1417 58.6429 58.3241C58.6429 58.7616 58.2054 59.0898 57.7678 59.3085C57.4761 59.0898 57.2573 58.7616 57.2209 58.397ZM58.6429 61.9703C58.4241 62.262 58.0595 62.4443 57.6584 62.4443C57.4032 62.4808 57.1844 62.3714 57.0021 62.2255C56.8198 62.0432 56.7104 61.8244 56.7104 61.5692C56.7469 61.1316 57.0021 60.767 57.3667 60.5483H57.4032L58.6429 61.9703Z" fill="#111111"/>
<path d="M106.262 60.6938L102.105 56.8652V63.2461H103.272V59.5634L107.429 63.4284V56.9746H106.262V60.6938Z" fill="#111111"/>
<path d="M100.575 63.2464L97.5119 56.8291L94.4491 63.2464H95.6523L96.2722 61.8973H98.6787L99.2621 63.2464H100.575ZM96.7098 60.9128L97.5119 59.0897L98.2412 60.9128H96.7098Z" fill="#111111"/>
</svg>
