<svg width="206" height="100" viewBox="0 0 206 100" fill="none" xmlns="http://www.w3.org/2000/svg">
<g clip-path="url(#clip0_133_64)">
<path d="M42 58.4848H49.3398V57.7047H48.7886C47.7158 57.7047 47.4575 57.4119 47.4575 56.3417V46.6643C48.2055 45.3972 49.2118 44.5852 50.479 44.5852C52.0709 44.5852 53.0453 45.754 53.0453 47.9635V56.3441C53.0453 57.4168 52.7845 57.7071 51.7462 57.7071H51.1606V58.4872H58.3379V57.7071H57.8188C56.746 57.7071 56.4876 57.4144 56.4876 56.3441V47.6043C56.4876 47.3115 56.4876 47.0187 56.4556 46.7283C57.1692 45.4292 58.242 44.5852 59.5091 44.5852C61.1012 44.5852 62.0755 45.754 62.0755 47.9635V56.3441C62.0755 57.4168 61.8147 57.7071 60.7764 57.7071H60.1907V58.4872H67.3681V57.7071H66.8809C65.7762 57.7071 65.5178 57.4144 65.5178 56.3441V47.6043C65.5178 44.3244 63.6674 42.5061 60.9708 42.5061C58.9579 42.5061 57.2036 43.6108 56.2612 45.8179C55.7101 43.6748 54.0861 42.5061 51.9405 42.5061C50.0238 42.5061 48.3678 43.5444 47.4575 45.6236V42.8948H42V43.6748H42.6496C43.7544 43.6748 44.0127 43.9676 44.0127 45.0379V56.3417C44.0127 57.4144 43.7519 57.7047 42.6496 57.7047H42V58.4848ZM71.6863 40.2965C72.8551 40.2965 73.8294 39.3221 73.8294 38.1534C73.8294 36.9846 72.8551 36.0103 71.6863 36.0103C70.5176 36.0103 69.5432 36.9846 69.5432 38.1534C69.5432 39.3221 70.5176 40.2965 71.6863 40.2965ZM68.0497 58.4848H75.259V57.7047H74.7718C73.699 57.7047 73.4406 57.4119 73.4406 56.3417V42.8948H67.9832V43.6748H68.6327C69.7375 43.6748 69.9959 43.9676 69.9959 45.0379V56.3417C69.9959 57.4144 69.735 57.7047 68.6327 57.7047H68.0472V58.4848H68.0497ZM80.5221 49.3267H82.6012C82.082 49.0019 81.8877 48.5467 81.6269 47.7027L80.8468 44.8116C80.4901 43.5124 80.1973 42.8948 78.7677 42.8948H75.7807V43.6748H76.2039C77.0797 43.6748 77.1782 43.9996 77.4391 44.974L78.1207 47.5083C78.4774 48.7435 79.031 49.3267 80.5246 49.3267H80.5221ZM85.33 49.3267H87.4091C88.9027 49.3267 89.4217 48.741 89.7811 47.5083L90.4627 44.974C90.7234 43.9996 90.8513 43.6748 91.6979 43.6748H92.1211V42.8948H89.166C87.7043 42.8948 87.4115 43.4804 87.0867 44.8116L86.3068 47.7027C86.0459 48.5787 85.8491 49.0019 85.33 49.3267ZM82.6012 52.0554H85.33V49.3267H82.6012V52.0554ZM75.7807 58.4872H78.7677C80.1973 58.4872 80.4901 57.8696 80.8468 56.5705L81.6269 53.6794C81.8877 52.8353 82.082 52.3802 82.6012 52.0554H80.5221C79.0285 52.0554 78.4749 52.641 78.1182 53.8738L77.4366 56.4081C77.1758 57.3825 77.0797 57.7071 76.2014 57.7071H75.7782V58.4872H75.7807ZM89.1611 58.4872H92.1161V57.7071H91.693C90.8489 57.7071 90.7185 57.3825 90.4578 56.4081L89.7762 53.8738C89.4193 52.6386 88.9002 52.0554 87.4042 52.0554H85.33C85.8491 52.3802 86.0386 52.8034 86.2994 53.6794L87.0793 56.5705C87.4042 57.9016 87.6969 58.4872 89.1586 58.4872H89.1611ZM92.5393 64.9831H100.073V64.203H99.2934C98.2551 64.203 97.9942 63.9102 97.9942 62.8398V56.6369C98.9367 58.0344 100.529 58.8785 102.411 58.8785C105.952 58.8785 108.776 55.7609 108.776 50.3699C108.776 45.4981 106.114 42.511 102.669 42.511C100.657 42.511 98.9663 43.6797 97.9918 45.7589V42.8997H92.5344V43.6797H93.1839C94.2568 43.6797 94.5471 43.9725 94.5471 45.0429V62.8374C94.5471 63.9102 94.2543 64.2005 93.1839 64.2005H92.5344V64.9806L92.5393 64.9831ZM101.439 44.5212C103.55 44.5212 105.273 46.502 105.273 50.4314C105.273 54.7177 103.681 57.0576 101.506 57.0576C100.108 57.0576 98.8751 56.3096 97.9967 55.0105V46.9547C98.8408 45.3627 100.044 44.5188 101.439 44.5188V44.5212ZM113.912 58.8121C116.023 58.8121 117.711 57.8057 118.978 55.5321V55.8889C118.978 57.8376 120.213 58.6816 122.258 58.6816C122.875 58.6816 123.655 58.6177 124.174 58.4552V57.6433C123.913 57.7071 123.719 57.7417 123.525 57.7417C122.713 57.7417 122.452 57.2545 122.452 56.4744V48.1579C122.452 44.3244 120.309 42.5061 116.704 42.5061C114.3 42.5061 111.963 43.6108 110.469 44.7796L110.988 45.69C112.548 44.6172 114.074 44.0021 115.73 44.0021C117.873 44.0021 118.978 45.1708 118.978 47.8995V48.6131L114.982 50.1731C111.345 51.6666 110.012 53.0642 110.012 55.1754C110.012 57.2864 111.505 58.8121 113.909 58.8121H113.912ZM113.424 54.3289C113.424 52.705 114.367 51.5361 116.283 50.6922L118.98 49.5235V54.5897C117.974 55.9872 116.805 56.7992 115.538 56.7992C114.271 56.7992 113.427 55.9233 113.427 54.3313L113.424 54.3289ZM124.824 58.4872H132.23V57.7071H131.613C130.54 57.7071 130.281 57.4144 130.281 56.3441V46.6963C131.029 45.3972 132.132 44.5852 133.431 44.5852C135.119 44.5852 136.192 45.754 136.192 47.9635V56.3441C136.192 57.4168 135.931 57.7071 134.892 57.7071H134.275V58.4872H141.647V57.7071H140.997C139.892 57.7071 139.634 57.4144 139.634 56.3441V47.6043C139.634 44.3244 137.685 42.5061 134.924 42.5061C132.912 42.5061 131.221 43.5444 130.279 45.6236V42.8948H124.822V43.6748H125.471C126.576 43.6748 126.834 43.9676 126.834 45.0379V56.3417C126.834 57.4144 126.573 57.7047 125.471 57.7047H124.822V58.4848L124.824 58.4872ZM150.091 58.876C152.234 58.876 154.249 57.9016 155.711 56.7328L155.224 56.0193C153.925 56.9617 152.463 57.3825 151.1 57.3825C147.788 57.3825 145.839 55.045 145.839 50.4979V49.9123H156.102C156.038 45.5276 153.341 42.5405 149.412 42.5405C145.483 42.5405 142.331 46.0812 142.331 50.7587C142.331 55.8913 145.254 58.8785 150.094 58.8785L150.091 58.876ZM149.442 43.35C151.39 43.35 152.591 45.4612 152.788 49.0338H145.903C146.196 45.4292 147.559 43.35 149.444 43.35H149.442ZM156.813 58.4848H164.347V57.7047H163.599C162.527 57.7047 162.268 57.4119 162.268 56.3417V36.399H156.811V37.179H157.46C158.533 37.179 158.824 37.4718 158.824 38.5421V56.3417C158.824 57.4144 158.531 57.7047 157.46 57.7047H156.811V58.4848H156.813Z" fill="black"/>
</g>
<defs>
<clipPath id="clip0_133_64">
<rect width="122.444" height="29" fill="white" transform="translate(42 36)"/>
</clipPath>
</defs>
</svg>
