<svg width="206" height="100" viewBox="0 0 206 100" fill="none" xmlns="http://www.w3.org/2000/svg">
<path fill-rule="evenodd" clip-rule="evenodd" d="M121.724 32.709C121.409 32.8117 121.164 32.9916 120.988 33.2486C120.706 33.6589 120.728 32.5597 120.728 46.5872C120.728 60.6147 120.706 59.5155 120.988 59.9258C121.136 60.1421 121.248 60.2376 121.527 60.3857C121.68 60.4673 121.76 60.4804 122.103 60.4804C122.482 60.4804 122.515 60.4735 122.754 60.3441C123.038 60.1908 123.193 60.0252 123.351 59.7052L123.459 59.4866V46.5872V33.6878L123.351 33.4692C123.192 33.1482 123.037 32.983 122.754 32.8324C122.533 32.7146 122.46 32.6968 122.163 32.6873C121.977 32.6814 121.779 32.6911 121.724 32.709ZM66.4919 41.658C62.7192 41.9025 60.1622 43.7454 59.7699 46.5025C59.6614 47.2647 59.7821 48.1478 60.0963 48.8903C60.4725 49.7798 61.227 50.5667 62.213 51.098C63.2682 51.6667 64.514 51.9935 67.2969 52.4318C70.3553 52.9134 71.5141 53.2542 72.1347 53.8544C72.4928 54.2008 72.639 54.5603 72.639 55.094C72.639 55.6491 72.4617 56.0695 72.0467 56.4981C71.4545 57.1096 70.5253 57.5047 69.2108 57.7037C68.6521 57.7883 67.2383 57.7992 66.639 57.7235C64.9111 57.5053 63.2393 56.9113 61.785 55.999C61.3552 55.7293 61.1697 55.6745 60.7677 55.6986C60.3804 55.7217 60.1237 55.8441 59.8682 56.1273C59.6342 56.3868 59.5215 56.6823 59.5215 57.0363C59.5215 57.7246 59.7935 58.0304 61.0096 58.709C62.7357 59.6722 64.6685 60.2712 66.6665 60.4621C67.3392 60.5264 69.0786 60.4915 69.6494 60.4024C71.3605 60.135 72.6303 59.6129 73.6491 58.7577C74.8712 57.7318 75.5189 56.1744 75.3591 54.6459C75.1491 52.6378 73.9274 51.297 71.6182 50.5404C70.7461 50.2546 69.7965 50.0599 67.5561 49.7072C65.356 49.3609 64.3059 49.0992 63.5394 48.7062C62.8045 48.3294 62.4738 47.8195 62.4726 47.0615C62.4706 45.7572 63.752 44.8097 66.001 44.4528C66.5475 44.3661 68.0796 44.3558 68.6526 44.435C70.2894 44.6612 71.4932 45.1289 72.6635 45.9936C73.1708 46.3684 73.3847 46.4475 73.8131 46.4189C74.3033 46.3862 74.6769 46.1445 74.9156 45.7058C75.0426 45.4723 75.0523 45.4287 75.0523 45.0959C75.0523 44.7701 75.0403 44.7131 74.9193 44.4678C74.7631 44.1513 74.5233 43.9354 73.782 43.4438C72.0682 42.3075 70.0373 41.7107 67.6557 41.6437C67.2939 41.6335 66.7702 41.64 66.4919 41.658ZM86.835 41.6581C82.7688 41.9796 79.3599 44.8181 78.3617 48.7139C78.1234 49.6441 78.0826 49.9942 78.0839 51.099C78.0851 52.2086 78.1418 52.6554 78.4008 53.5967C79.2711 56.7606 81.8014 59.2792 85.0127 60.1781C85.8945 60.425 86.3469 60.4795 87.5129 60.4795C88.4434 60.4795 88.6267 60.4687 89.048 60.3894C91.179 59.9882 93.0213 58.9343 94.3365 57.364C95.0716 56.4863 95.2637 56.0748 95.1716 55.5755C95.1459 55.4358 95.0906 55.2548 95.0489 55.1733C94.7943 54.6757 94.2585 54.3801 93.7046 54.4317C93.2182 54.477 92.974 54.647 92.5287 55.25C90.314 58.2494 86.0104 58.6458 83.0879 56.1196C81.2508 54.5317 80.4226 52.0027 80.9573 49.6134C81.6617 46.4655 84.5436 44.2441 87.7521 44.3759C88.7122 44.4153 89.4254 44.5964 90.2841 45.0189C91.1692 45.4544 92.0151 46.1706 92.5601 46.946C92.9598 47.5147 93.2933 47.7171 93.8337 47.719C94.116 47.72 94.1849 47.7048 94.4198 47.5895C94.9087 47.3495 95.1811 46.9127 95.1811 46.3686C95.1811 45.9854 95.0768 45.7442 94.6827 45.2158C94.3045 44.7085 93.4569 43.8466 92.9938 43.4982C91.4293 42.3213 89.7225 41.713 87.792 41.6441C87.496 41.6336 87.0653 41.6398 86.835 41.6581ZM106.852 41.6428C105.079 41.7592 103.517 42.2787 102.087 43.2275C100.03 44.5924 98.5533 46.775 98.0653 49.1711C97.9258 49.8559 97.8801 50.3296 97.8801 51.089C97.8801 53.2292 98.5616 55.1904 99.9072 56.9226C100.244 57.3563 101.034 58.1435 101.469 58.4794C103.108 59.7453 104.962 60.4296 106.912 60.4883C107.546 60.5074 107.605 60.5029 107.827 60.4192C108.219 60.271 108.567 59.8829 108.664 59.4866C108.718 59.2641 108.691 58.8875 108.606 58.6593C108.495 58.3655 108.233 58.0806 107.943 57.9387C107.74 57.84 107.642 57.821 107.191 57.7926C106.539 57.7515 106.364 57.7297 105.898 57.631C105.071 57.4557 104.154 57.0493 103.423 56.5337C102.94 56.193 102.204 55.4596 101.857 54.9743C101.537 54.5251 101.119 53.7064 100.95 53.1963C100.305 51.249 100.579 49.1406 101.698 47.422C102.993 45.4344 105.238 44.2723 107.589 44.3723C109.524 44.4546 111.261 45.3977 112.398 46.983C112.848 47.6115 113.253 48.5387 113.408 49.2959C113.535 49.9191 113.55 50.5154 113.55 54.9633L113.551 59.424L113.637 59.6537C113.755 59.9676 114.085 60.2968 114.4 60.4143C115.068 60.6637 115.807 60.3827 116.124 59.7587L116.242 59.5263L116.254 54.8158C116.262 51.6043 116.252 49.966 116.223 49.6679C116.016 47.6004 115.117 45.7167 113.632 44.2413C111.994 42.6128 109.913 41.7187 107.589 41.6449C107.304 41.6358 106.972 41.6349 106.852 41.6428ZM136.717 41.6581C134.877 41.8036 133.19 42.4405 131.713 43.5479C129.767 45.0066 128.471 47.1509 128.061 49.5884C127.956 50.2146 127.919 51.3104 127.982 51.9338C128.253 54.6033 129.594 57.0143 131.677 58.5769C132.956 59.5364 134.339 60.132 135.92 60.4037C136.429 60.4912 137.897 60.525 138.484 60.4627C140.948 60.2014 143.121 59.1562 144.798 57.4271C145.423 56.7824 145.51 56.6192 145.509 56.0878C145.508 55.7529 145.496 55.6864 145.398 55.5001C145.25 55.2198 145.012 54.9894 144.738 54.8623C144.55 54.7753 144.456 54.7579 144.174 54.7579C143.658 54.7579 143.524 54.8352 142.798 55.5559C142.094 56.2539 141.656 56.5768 140.89 56.9616C138.797 58.0128 136.437 58.065 134.464 57.1035C132.585 56.1872 131.254 54.4767 130.809 52.406C130.727 52.0257 130.716 51.8658 130.716 51.0791C130.717 50.0782 130.755 49.8018 131.002 49.0319C131.46 47.6043 132.415 46.3399 133.663 45.5073C134.866 44.7053 136.286 44.306 137.69 44.3751C138.621 44.421 139.305 44.5986 140.166 45.019C141.469 45.6544 142.554 46.7997 143.119 48.1375C143.241 48.4259 143.496 49.2362 143.496 49.3364C143.496 49.3542 141.553 49.3735 139.179 49.3792L134.863 49.3897L134.681 49.4793C134.384 49.625 134.18 49.8269 134.037 50.116C133.92 50.3535 133.906 50.4178 133.906 50.7205C133.906 51.0038 133.923 51.096 134.012 51.2838C134.146 51.5697 134.391 51.8137 134.678 51.9478L134.903 52.053H140.126H145.35L145.549 51.9552C145.843 51.8108 146.138 51.5003 146.241 51.2255C146.399 50.8046 146.347 49.6101 146.126 48.5947C145.928 47.679 145.427 46.4929 144.902 45.6928C143.625 43.7483 141.613 42.3508 139.373 41.8532C138.555 41.6715 137.514 41.595 136.717 41.6581Z" fill="#040404"/>
</svg>
