<svg width="206" height="100" viewBox="0 0 206 100" fill="none" xmlns="http://www.w3.org/2000/svg">
<g clip-path="url(#clip0_133_28)">
<path d="M62.4805 34H65.6379V34.5947H65.0432C64.9392 34.5947 64.7579 34.7147 64.4965 34.952C64.2352 35.1893 64.1045 35.376 64.1045 35.4987V44.5653C64.1045 44.6907 64.2352 44.872 64.4965 45.112C64.7579 45.352 64.9392 45.472 65.0432 45.472H65.6379V46.064H60.9792V45.4667H61.5739C61.6779 45.4667 61.8565 45.3467 62.1072 45.1067C62.3579 44.8667 62.4832 44.6853 62.4832 44.56V35.7813L58.1045 46.28L53.7312 35.6V44.5627C53.7312 44.688 53.8565 44.8693 54.1045 45.1093C54.3525 45.3493 54.5339 45.4693 54.6379 45.4693H55.2299V46.0613H51.4805V45.4667H52.0752C52.2005 45.4667 52.3872 45.3467 52.6379 45.1067C52.8885 44.8667 53.0112 44.6853 53.0112 44.56V35.4987C53.0112 35.376 52.8859 35.192 52.6379 34.952C52.3899 34.712 52.2005 34.5947 52.0752 34.5947H51.4805V34H54.9792L58.6059 43.032H58.6992L62.4805 34ZM69.9819 44.8427C70.514 44.8744 71.0443 44.7561 71.5125 44.5013C71.901 44.2353 72.2216 43.8818 72.4485 43.4693H72.9499C72.7271 44.244 72.3007 44.9447 71.7152 45.4987C71.0729 46.0314 70.2522 46.3002 69.4192 46.2507C68.9239 46.2686 68.4313 46.1704 67.9807 45.9639C67.5302 45.7574 67.1342 45.4483 66.8245 45.0613C66.1748 44.2586 65.8317 43.2511 65.8565 42.2187C65.8276 41.6661 65.9091 41.1134 66.0964 40.5928C66.2837 40.0722 66.5729 39.5941 66.9472 39.1867C67.282 38.8266 67.6884 38.5405 68.1403 38.3467C68.5922 38.1529 69.0795 38.0557 69.5712 38.0613C70.1058 38.0491 70.6374 38.1452 71.1339 38.344C71.5845 38.536 71.9972 38.8069 72.3525 39.144L71.2139 40.9333L70.7445 40.9627C70.8511 40.4301 70.8189 39.8792 70.6512 39.3627C70.5516 39.1223 70.3742 38.9223 70.1475 38.7947C69.9207 38.667 69.6577 38.6191 69.4005 38.6587C69.0653 38.6374 68.7303 38.7039 68.4287 38.8517C68.127 38.9995 67.8691 39.2234 67.6805 39.5013C67.278 40.1701 67.0822 40.9429 67.1179 41.7227C67.0953 42.5306 67.3673 43.3191 67.8832 43.9413C68.1425 44.24 68.4659 44.4762 68.8293 44.6323C69.1927 44.7884 69.5867 44.8603 69.9819 44.8427ZM77.7312 46.0613H73.0112V45.4667H73.6139C73.7392 45.4667 73.9259 45.3467 74.1765 45.1067C74.4272 44.8667 74.5499 44.6853 74.5499 44.56V35.4987C74.5499 35.376 74.4272 35.192 74.1765 34.952C73.9259 34.712 73.7312 34.5947 73.6139 34.5947H73.0112V34H77.7312V34.5947H77.1365C77.0112 34.5947 76.8245 34.7147 76.5739 34.952C76.3232 35.1893 76.2005 35.376 76.2005 35.4987V40.4373L80.5125 35.624C80.5952 35.52 80.5125 35.3227 80.2939 35.032C80.0752 34.7413 79.8965 34.5947 79.7925 34.5947H79.2139V34H83.5872V34.5947H82.9925C82.6988 34.6957 82.4291 34.8564 82.2005 35.0667C81.7819 35.3893 81.5339 35.6 81.4485 35.6773L78.5152 38.832L82.7339 44.432C82.9385 44.6706 83.1744 44.8805 83.4352 45.056C83.6446 45.2486 83.8969 45.3884 84.1712 45.464H85.0459C85.253 45.4211 85.4403 45.3115 85.5792 45.152C85.8085 44.9413 85.9232 44.7653 85.9232 44.6187V39.688C85.9232 39.5627 85.8085 39.3947 85.5792 39.1867C85.4403 39.0272 85.253 38.9176 85.0459 38.8747H84.5739V38.28H87.3552V44.624C87.3552 44.7707 87.4752 44.9467 87.7152 45.1573C87.8532 45.3086 88.0319 45.4169 88.2299 45.4693H89.2005C89.3045 45.4693 89.4672 45.3653 89.6992 45.1573C89.9312 44.9493 90.0432 44.7707 90.0432 44.624V39.688C90.0432 39.5627 89.9285 39.3947 89.6992 39.1867C89.4699 38.9787 89.3045 38.8747 89.2005 38.8747H88.6992V38.28H91.1685L91.4805 39.8667C91.9045 39.4189 92.3589 39.001 92.8405 38.616C93.3297 38.2483 93.9304 38.06 94.5419 38.0827C94.829 38.0775 95.1142 38.1303 95.3805 38.238C95.6467 38.3456 95.8884 38.506 96.0912 38.7093C96.3046 38.9209 96.4717 39.1745 96.5819 39.4541C96.692 39.7336 96.7429 40.0331 96.7312 40.3333V44.624C96.7312 44.7707 96.8459 44.9467 97.0752 45.1573C97.3045 45.368 97.4699 45.4693 97.5739 45.4693H98.0752V46.0613H93.9819V45.4667H94.4139C94.6207 45.4232 94.8079 45.3137 94.9472 45.1547C95.1765 44.944 95.2912 44.768 95.2912 44.6213V40.4373C95.3064 40.0873 95.1947 39.7435 94.9765 39.4693C94.8595 39.3395 94.7143 39.2381 94.5521 39.1729C94.3899 39.1077 94.2149 39.0805 94.0405 39.0933C93.4224 39.1122 92.826 39.3259 92.3365 39.704C91.7659 40.1093 91.4805 40.448 91.4805 40.72V44.624C91.4805 44.7707 91.5952 44.9467 91.8245 45.1573C91.9635 45.3168 92.1508 45.4264 92.3579 45.4693H92.7952V46.0613H81.6139L77.4192 40.032L76.2005 41.344V44.5627C76.2005 44.688 76.3232 44.8693 76.5739 45.1093C76.8245 45.3493 77.0112 45.4693 77.1365 45.4693H77.7312V46.0613ZM81.9179 59.6613L81.8805 59.624C82.2779 59.9573 82.6805 60.2907 83.0859 60.624C83.4912 60.9573 83.9232 61.28 84.3819 61.5947H85.0992V62.2187H83.7872C83.2531 62.2277 82.7223 62.1326 82.2245 61.9387C81.6929 61.7007 81.2066 61.3723 80.7872 60.968C80.3142 61.4443 79.7439 61.8127 79.1152 62.048C78.3878 62.301 77.6211 62.422 76.8512 62.4053C75.8726 62.4105 74.9253 62.0609 74.1845 61.4213C73.8012 61.112 73.4944 60.7184 73.2882 60.2712C73.0819 59.8239 72.9816 59.335 72.9952 58.8427C72.9873 58.1103 73.1712 57.3886 73.5285 56.7493C73.8752 56.1352 74.3611 55.6109 74.9472 55.2187C74.6668 54.8626 74.4304 54.4741 74.2432 54.0613C74.0586 53.6275 73.9677 53.1595 73.9765 52.688C73.9542 52.3206 74.0123 51.9527 74.1468 51.61C74.2813 51.2674 74.4889 50.9582 74.7552 50.704C75.3507 50.2081 76.1121 49.9565 76.8859 50C77.3316 49.985 77.7766 50.0481 78.2005 50.1867C78.4786 50.301 78.7747 50.3651 79.0752 50.376C79.1907 50.3788 79.3062 50.3681 79.4192 50.344C79.5138 50.3129 79.5924 50.2459 79.6379 50.1573H80.1712V53H79.6379C79.5551 52.413 79.2725 51.8724 78.8379 51.4693C78.5956 51.18 78.2917 50.9484 77.9484 50.7915C77.6052 50.6347 77.2312 50.5565 76.8539 50.5627C76.3058 50.5325 75.7641 50.6927 75.3205 51.016C75.1344 51.168 74.9865 51.3615 74.8888 51.5811C74.7911 51.8006 74.7462 52.04 74.7579 52.28C74.7547 52.7501 74.9214 53.2056 75.2272 53.5627C75.5637 53.955 75.9939 54.2558 76.4779 54.4373C77.2476 55.2729 78.0805 56.1111 78.9765 56.952C79.8725 57.7929 80.7268 58.5796 81.5392 59.312C81.7616 58.9555 81.9254 58.5657 82.0245 58.1573C82.1222 57.7197 82.1697 57.2724 82.1659 56.824C82.1767 56.5832 82.1362 56.3429 82.047 56.119C81.9578 55.8951 81.822 55.6927 81.6485 55.5253C81.2666 55.1884 80.7677 55.0151 80.2592 55.0427V54.4373H84.5472V55H84.0805C83.9765 55 83.7712 55.176 83.4699 55.5333C83.2453 55.7436 83.0876 56.0153 83.0165 56.3147V56.3467C82.9959 56.9468 82.8908 57.5411 82.7045 58.112C82.5253 58.6649 82.2598 59.186 81.9179 59.656V59.6613ZM77.8245 61.4747C78.3176 61.4813 78.8085 61.4075 79.2779 61.256C79.6942 61.1163 80.0884 60.9179 80.4485 60.6667L80.3552 60.6053C79.4663 59.8124 78.5916 59 77.7312 58.168C76.8708 57.336 76.037 56.4604 75.2299 55.5413C74.9319 55.8535 74.6893 56.2143 74.5125 56.608C74.3265 57.0849 74.2412 57.5952 74.2619 58.1067C74.2739 58.5539 74.3821 58.9933 74.579 59.395C74.776 59.7966 75.057 60.1513 75.4032 60.4347C76.0476 61.0772 76.9147 61.4468 77.8245 61.4667V61.4747ZM86.4805 36.376H86.4485C86.1865 36.3784 85.9343 36.2767 85.7472 36.0933C85.6511 36.0067 85.5747 35.9005 85.5231 35.7818C85.4716 35.6631 85.4462 35.5347 85.4485 35.4053V35.376C85.4409 35.2389 85.4638 35.1018 85.5154 34.9745C85.567 34.8473 85.6462 34.733 85.7472 34.64C85.9534 34.4691 86.2128 34.3756 86.4805 34.3756C86.7483 34.3756 87.0077 34.4691 87.2139 34.64C87.3149 34.733 87.394 34.8473 87.4457 34.9745C87.4973 35.1018 87.5201 35.2389 87.5125 35.376H87.4805C87.5019 35.376 87.5125 35.376 87.5125 35.4053C87.5149 35.5347 87.4894 35.6631 87.4379 35.7818C87.3864 35.9005 87.31 36.0067 87.2139 36.0933C87.0361 36.2727 86.7944 36.3744 86.5419 36.376H86.4805ZM94.4139 61.4053C95.2713 61.4548 96.123 61.2367 96.8512 60.7813C97.4817 60.3067 97.9855 59.6838 98.3179 58.968H98.9472C98.602 59.9831 97.959 60.8706 97.1019 61.5147C96.2204 62.1457 95.1561 62.4698 94.0725 62.4373C93.2829 62.4657 92.4972 62.312 91.7764 61.9884C91.0555 61.6647 90.4187 61.1796 89.9152 60.5707C88.8711 59.3251 88.3157 57.7422 88.3525 56.1173C88.3105 54.5362 88.8185 52.9895 89.7899 51.7413C90.2613 51.1476 90.8666 50.674 91.5563 50.3593C92.246 50.0446 93.0005 49.8977 93.7579 49.9307C94.3224 49.9178 94.8845 50.0081 95.4165 50.1973C95.864 50.3739 96.3408 50.4644 96.8219 50.464C96.9719 50.4713 97.1215 50.444 97.2592 50.384C97.3753 50.3244 97.4807 50.246 97.5712 50.152H98.0085V54.4053H97.4752C97.385 53.5471 97.0489 52.7331 96.5072 52.0613C96.2179 51.6156 95.8185 51.2521 95.3476 51.0059C94.8767 50.7597 94.3503 50.6392 93.8192 50.656C93.3663 50.6319 92.9133 50.7014 92.4884 50.8602C92.0636 51.0189 91.676 51.2635 91.3499 51.5787C90.6608 52.4081 90.2835 53.4524 90.2832 54.5307V54.4693C90.2619 54.6987 90.2459 54.928 90.2352 55.1573C90.2352 55.3867 90.2192 55.624 90.2192 55.8747C90.2192 56.1653 90.2192 56.464 90.2512 56.7653C90.2832 57.0667 90.2939 57.344 90.3125 57.5947C90.3957 58.6085 90.8261 59.5627 91.5312 60.296C91.9069 60.673 92.3577 60.9666 92.8544 61.1577C93.351 61.3488 93.8824 61.4332 94.4139 61.4053ZM104.281 43.8747C104.299 44.2001 104.246 44.5256 104.124 44.828C104.002 45.1303 103.815 45.4021 103.577 45.624C103.078 46.053 102.436 46.277 101.779 46.2507C101.35 46.2636 100.924 46.1836 100.529 46.016C100.217 45.8641 99.8752 45.7839 99.5285 45.7813C99.4094 45.7698 99.2897 45.7969 99.1872 45.8587L98.9365 46.0613H98.5739V43.312H99.0432C99.1303 43.8478 99.3874 44.3415 99.7765 44.72C100.024 45.0096 100.334 45.239 100.683 45.3906C101.033 45.5422 101.412 45.612 101.793 45.5947C102.183 45.615 102.573 45.5284 102.918 45.344C103.051 45.2592 103.159 45.1403 103.23 44.9995C103.301 44.8588 103.334 44.7014 103.323 44.544C103.337 44.3564 103.3 44.1684 103.215 44.0006C103.13 43.8327 103 43.6914 102.841 43.592C102.525 43.3977 102.196 43.2248 101.857 43.0747C101.563 42.952 101.299 42.8373 101.057 42.7333C100.814 42.6293 100.539 42.5147 100.227 42.3893C99.7857 42.1853 99.3839 41.9045 99.0405 41.56C98.8804 41.3858 98.7564 41.1816 98.6759 40.9591C98.5953 40.7366 98.5597 40.5003 98.5712 40.264C98.5517 39.9676 98.5977 39.6706 98.706 39.3941C98.8144 39.1176 98.9823 38.8683 99.1979 38.664C99.5988 38.3798 100.064 38.1995 100.552 38.1395C101.04 38.0795 101.535 38.1415 101.993 38.32C102.26 38.4532 102.555 38.5234 102.854 38.5253C102.945 38.5283 103.036 38.5119 103.121 38.4773C103.198 38.443 103.26 38.3812 103.294 38.304H103.699V40.704H103.23C103.154 40.23 102.93 39.7921 102.59 39.4533C102.381 39.1979 102.116 38.9945 101.815 38.8589C101.514 38.7233 101.186 38.6593 100.857 38.672C100.495 38.6424 100.135 38.7426 99.8405 38.9547C99.7351 39.0415 99.6507 39.1513 99.5939 39.2755C99.5371 39.3998 99.5092 39.5354 99.5125 39.672C99.5029 39.8157 99.5293 39.9595 99.5894 40.0903C99.6495 40.2212 99.7413 40.335 99.8565 40.4213C100.152 40.6266 100.465 40.8051 100.793 40.9547C101.086 41.0773 101.361 41.192 101.622 41.296L102.481 41.64C102.929 41.8283 103.341 42.0927 103.699 42.4213C103.897 42.605 104.052 42.8293 104.155 43.0788C104.258 43.3283 104.305 43.5971 104.294 43.8667L104.281 43.8747ZM106.326 55.312C106.723 55.7 107.034 56.1682 107.236 56.6855C107.438 57.2028 107.528 57.7573 107.499 58.312C107.528 58.869 107.438 59.4258 107.235 59.9456C107.033 60.4654 106.723 60.9366 106.326 61.328C105.608 62.0411 104.636 62.4401 103.625 62.4373C102.602 62.4449 101.617 62.0458 100.889 61.328C100.492 60.9363 100.182 60.4651 99.9804 59.9453C99.7787 59.4255 99.6892 58.8689 99.7179 58.312C99.6879 57.7824 99.767 57.2522 99.9503 56.7544C100.134 56.2566 100.417 55.8018 100.783 55.418C101.15 55.0343 101.591 54.7298 102.079 54.5235C102.568 54.3172 103.094 54.2134 103.625 54.2187C104.638 54.2114 105.614 54.6042 106.339 55.312H106.326ZM105.95 59.6V59.6613C105.971 59.432 105.985 59.2027 105.995 58.9733C106.006 58.744 106.011 58.5147 106.011 58.2853C106.011 58.056 106.011 57.8347 105.995 57.616C105.979 57.3973 105.971 57.192 105.95 57.0053C105.901 56.4348 105.665 55.8966 105.278 55.4747C105.057 55.274 104.798 55.1206 104.516 55.0238C104.234 54.9271 103.935 54.889 103.638 54.912C103.347 54.8914 103.055 54.9307 102.78 55.0275C102.504 55.1243 102.252 55.2765 102.038 55.4747C101.655 55.8866 101.419 56.4134 101.366 56.9733V56.9333C101.324 57.1499 101.299 57.3691 101.289 57.5893C101.289 57.8187 101.273 58.048 101.273 58.2747C101.273 58.5013 101.273 58.728 101.289 58.9467C101.298 59.152 101.324 59.3562 101.366 59.5573C101.428 60.1149 101.663 60.639 102.038 61.056C102.247 61.2628 102.498 61.4227 102.774 61.5253C103.05 61.6278 103.344 61.6705 103.638 61.6507C103.939 61.6771 104.243 61.6392 104.528 61.5394C104.814 61.4397 105.075 61.2803 105.294 61.072C105.659 60.6607 105.888 60.1466 105.95 59.6ZM108.513 46.2667C108.019 46.276 107.531 46.1725 107.084 45.9641C106.637 45.7556 106.244 45.4478 105.934 45.064C105.258 44.2657 104.897 43.2483 104.918 42.2027C104.886 41.1306 105.253 40.085 105.95 39.2693C106.259 38.892 106.651 38.5912 107.096 38.3905C107.54 38.1897 108.025 38.0944 108.513 38.112C108.891 38.0909 109.269 38.1514 109.622 38.2895C109.975 38.4275 110.294 38.6398 110.558 38.912C111.047 39.4356 111.331 40.1183 111.358 40.8347L111.39 41.3973L106.201 41.8133C106.211 42.5623 106.474 43.2859 106.947 43.8667C107.185 44.1859 107.497 44.4424 107.856 44.6138C108.215 44.7853 108.611 44.8666 109.009 44.8507C109.546 44.8809 110.081 44.7628 110.555 44.5093C110.942 44.2574 111.259 43.9127 111.478 43.5067H111.947C111.749 44.2773 111.336 44.9761 110.758 45.5227C110.128 46.0404 109.326 46.3006 108.513 46.2507V46.2667ZM108.481 38.704C108.14 38.6755 107.797 38.7369 107.488 38.8819C107.178 39.027 106.912 39.2507 106.715 39.5307C106.363 40.0436 106.163 40.6452 106.137 41.2667L110.043 40.9333C110.11 40.4105 110.051 39.8792 109.87 39.384C109.699 38.9218 109.236 38.6898 108.481 38.688V38.704ZM117.918 61.6373C118.043 61.6373 118.214 61.528 118.433 61.3093C118.651 61.0907 118.761 60.92 118.761 60.7947V56.528C118.775 56.195 118.67 55.868 118.465 55.6053C118.344 55.4771 118.195 55.378 118.03 55.3156C117.865 55.2533 117.688 55.2292 117.513 55.2453C116.959 55.2637 116.427 55.4611 115.995 55.808C115.485 56.1849 115.23 56.4978 115.23 56.7467V60.808C115.23 60.9333 115.339 61.104 115.558 61.3227C115.777 61.5413 115.939 61.6507 116.043 61.6507H116.513V62.2453H112.513V61.6507H112.95C113.075 61.6507 113.246 61.5413 113.465 61.3227C113.683 61.104 113.793 60.9333 113.793 60.808V56.5413C113.81 56.1955 113.699 55.8556 113.481 55.5867C113.361 55.4609 113.214 55.3633 113.052 55.301C112.889 55.2388 112.715 55.2134 112.542 55.2267C111.974 55.2453 111.429 55.4548 110.995 55.8213C110.485 56.216 110.23 56.5493 110.23 56.8213V60.8213C110.23 60.9467 110.339 61.1173 110.558 61.336C110.777 61.5547 110.95 61.664 111.075 61.664H111.513V62.2587H107.513V61.664H107.982C108.086 61.664 108.249 61.5547 108.465 61.336C108.681 61.1173 108.793 60.9467 108.793 60.8213V55.8427C108.793 55.72 108.683 55.552 108.465 55.344C108.246 55.136 108.086 55.032 107.982 55.032H107.513V54.4373H109.913L110.225 55.9387C110.683 55.4587 111.1 55.0569 111.475 54.7333C111.932 54.3838 112.501 54.2122 113.075 54.2507C113.566 54.2408 114.048 54.3884 114.449 54.672C114.648 54.8161 114.815 55.0004 114.939 55.2131C115.063 55.4257 115.141 55.662 115.169 55.9067C115.646 55.448 116.086 55.0613 116.481 54.7493C116.933 54.419 117.484 54.2534 118.043 54.28C118.609 54.2661 119.159 54.4737 119.574 54.8587C119.789 55.0722 119.956 55.3292 120.064 55.6124C120.172 55.8957 120.219 56.1987 120.201 56.5013V60.768C120.201 60.8933 120.31 61.064 120.529 61.2827C120.747 61.5013 120.907 61.6107 121.011 61.6107H121.481V62.2053H117.481V61.6107L117.918 61.6373ZM112.699 39.7707C112.569 39.5666 112.405 39.3863 112.214 39.2373C111.947 39.008 111.771 38.8933 111.681 38.8933H111.337V38.28H115.555V38.8747H115.057C114.953 38.8747 114.817 38.9787 114.651 39.1867C114.511 39.3322 114.423 39.5195 114.401 39.72L116.267 43.5627L117.987 39.7493C117.988 39.6446 117.968 39.5407 117.927 39.444C117.887 39.3473 117.828 39.2598 117.753 39.1867C117.575 38.9787 117.433 38.8747 117.329 38.8747H116.814V38.28H119.971V38.8747H119.627C119.523 38.8747 119.361 38.984 119.142 39.2027C118.97 39.3586 118.828 39.5437 118.721 39.7493L116.054 45.4053L113.761 49.8133L113.081 49.4667L115.454 45.184L112.699 39.7707ZM126.857 54.24C127.292 54.2228 127.726 54.3136 128.118 54.5044C128.51 54.6951 128.849 54.9799 129.105 55.3333C129.676 56.1795 129.957 57.1884 129.905 58.208C129.946 59.2813 129.627 60.3376 128.998 61.208C128.738 61.5792 128.392 61.8816 127.989 62.0888C127.586 62.2961 127.139 62.402 126.686 62.3973C126.113 62.4263 125.544 62.2902 125.046 62.0053C124.605 61.7073 124.245 61.3052 123.998 60.8347V64.584C123.998 64.7307 124.113 64.9067 124.342 65.1173C124.571 65.328 124.739 65.4293 124.843 65.4293H125.347V66H121.23V65.4053H121.731C121.933 65.3628 122.115 65.2527 122.246 65.0933C122.42 64.9645 122.537 64.7734 122.574 64.56V55.8427C122.574 55.72 122.465 55.552 122.246 55.344C122.115 55.1846 121.933 55.0746 121.731 55.032H121.23V54.4053H123.761L124.011 56.032C124.296 55.4835 124.708 55.0116 125.214 54.656C125.707 54.3523 126.278 54.2002 126.857 54.2187V54.24ZM128.419 59.4907V59.52L128.481 58.896C128.502 58.6887 128.513 58.4804 128.513 58.272C128.513 58.0893 128.502 57.9067 128.481 57.7253C128.459 57.5467 128.438 57.376 128.419 57.208C128.368 56.661 128.149 56.1432 127.793 55.7253C127.622 55.546 127.414 55.4056 127.184 55.3136C126.954 55.2216 126.707 55.1801 126.459 55.192C126.171 55.1798 125.883 55.2276 125.614 55.3322C125.345 55.4369 125.101 55.5962 124.897 55.8C124.489 56.2285 124.189 56.7476 124.022 57.3147V59.3467C124.019 59.6381 124.075 59.9272 124.188 60.1959C124.301 60.4647 124.468 60.7075 124.678 60.9093C124.885 61.1223 125.135 61.2905 125.41 61.4033C125.685 61.5162 125.98 61.5713 126.278 61.5653H126.31C126.587 61.5865 126.865 61.5456 127.125 61.4455C127.384 61.3454 127.618 61.1886 127.809 60.9867C128.158 60.5527 128.371 60.0245 128.419 59.4693V59.4907ZM146.075 60.8027C146.075 60.928 146.19 61.0987 146.419 61.3173C146.649 61.536 146.814 61.6453 146.918 61.6453H147.387V62.24H143.294V61.6453H143.747C143.854 61.6453 144.014 61.536 144.249 61.3173C144.483 61.0987 144.593 60.928 144.593 60.8027V56.5627C144.603 56.2211 144.499 55.8858 144.297 55.6107C144.185 55.4761 144.044 55.3703 143.883 55.3021C143.722 55.2338 143.548 55.2052 143.374 55.2187C142.754 55.2389 142.156 55.4577 141.67 55.8427C141.096 56.2622 140.809 56.5956 140.811 56.8427V60.7813C140.811 60.928 140.926 61.104 141.155 61.3147C141.294 61.4741 141.481 61.5837 141.689 61.6267H142.147V62.2213H135.513L135.294 60.5973C134.965 61.0293 134.599 61.4317 134.201 61.8C133.795 62.1815 133.256 62.3891 132.699 62.3787C132.437 62.3805 132.177 62.3288 131.935 62.2265C131.693 62.1242 131.475 61.9737 131.294 61.784C131.095 61.583 130.94 61.3435 130.838 61.0803C130.736 60.817 130.688 60.5356 130.699 60.2533C130.669 59.9219 130.734 59.5889 130.886 59.2929C131.038 58.9969 131.271 58.7502 131.558 58.5813C132.08 58.2789 132.643 58.0526 133.23 57.9093L135.262 57.5013L135.294 56.5653C135.317 56.0936 135.161 55.6304 134.857 55.2693C134.654 55.0885 134.416 54.952 134.157 54.8685C133.899 54.7849 133.625 54.7561 133.355 54.784C133.093 54.7525 132.827 54.7941 132.587 54.9042C132.347 55.0144 132.142 55.1887 131.995 55.408C131.878 55.666 131.825 55.9481 131.838 56.231C131.852 56.5139 131.934 56.7894 132.075 57.0347H131.513L130.446 55.472C130.873 55.0519 131.382 54.724 131.941 54.5089C132.5 54.2937 133.098 54.1959 133.697 54.2213C134.462 54.1952 135.216 54.4087 135.854 54.832C136.138 55.0272 136.368 55.2919 136.521 55.6009C136.674 55.9099 136.745 56.2529 136.729 56.5973V60.784C136.729 60.9093 136.843 61.0747 137.073 61.2827C137.302 61.4907 137.467 61.5973 137.571 61.5973H138.51C138.718 61.5542 138.905 61.4436 139.043 61.2827C139.273 61.0747 139.387 60.9093 139.387 60.784V55.8427C139.387 55.72 139.273 55.552 139.043 55.344C138.904 55.1845 138.717 55.0749 138.51 55.032H138.041V54.4053H140.51L140.822 56.032C141.24 55.5876 141.685 55.1698 142.155 54.7813C142.648 54.4083 143.255 54.2196 143.873 54.248C144.159 54.2428 144.444 54.2954 144.709 54.4026C144.975 54.5098 145.217 54.6694 145.419 54.872C145.634 55.0835 145.801 55.3375 145.912 55.6176C146.023 55.8976 146.074 56.1977 146.062 56.4987L146.075 60.8027ZM135.294 58.032L133.427 58.5013C133.026 58.5665 132.661 58.7704 132.395 59.0773C132.202 59.3574 132.103 59.6918 132.113 60.032V60.0613C132.11 60.2205 132.139 60.3786 132.198 60.5264C132.257 60.6743 132.345 60.8089 132.457 60.9227C132.564 61.0384 132.695 61.1301 132.841 61.1917C132.987 61.2532 133.144 61.2833 133.302 61.28H133.347C133.766 61.2631 134.165 61.0977 134.473 60.8133C134.79 60.5596 135.06 60.2529 135.273 59.9067L135.294 58.032ZM155.169 54.4373V55.032H154.793C154.71 55.032 154.558 55.1413 154.339 55.36C154.174 55.5182 154.022 55.6904 153.886 55.8747L151.262 61.5627L148.918 65.9387L148.262 65.5947L150.606 61.312L147.857 55.9067C147.725 55.7033 147.561 55.5231 147.371 55.3733C147.105 55.144 146.939 55.0293 146.857 55.0293H146.481V54.4373H150.699V55.032H150.23C150.126 55.032 149.985 55.136 149.809 55.344C149.662 55.4866 149.568 55.6746 149.542 55.8773L151.409 59.7227L153.137 55.8667C153.137 55.7663 153.116 55.667 153.076 55.5752C153.035 55.4834 152.976 55.401 152.902 55.3333C152.726 55.1253 152.585 55.0213 152.481 55.0213H151.982V54.4373H155.169Z" fill="#111111"/>
</g>
<defs>
<clipPath id="clip0_133_28">
<rect width="103.688" height="32" fill="white" transform="translate(51.4805 34)"/>
</clipPath>
</defs>
</svg>
