<svg width="206" height="100" viewBox="0 0 206 100" fill="none" xmlns="http://www.w3.org/2000/svg">
<path d="M108.403 39.2845C109.254 37.8108 110.968 37.0339 112.628 37.0191C114.143 36.9213 115.857 37.1733 116.919 38.3713C116.379 39.0829 115.863 39.8094 115.324 40.521C114.722 39.8301 114.226 38.8575 113.254 38.6618C112.296 38.3652 111.092 38.8634 110.843 39.8894C110.44 41.5172 110.683 43.2192 110.624 44.8797H113.734V46.7331H110.621C110.621 49.5263 110.621 52.3194 110.618 55.1126C110.606 55.9044 110.734 56.6872 110.882 57.464C111.593 57.7931 112.361 57.9621 113.147 57.977C113.144 58.1697 113.141 58.5581 113.138 58.7538C110.594 58.5878 108.047 58.5374 105.506 58.7509C105.506 58.5878 105.512 58.2616 105.512 58.0985C106.315 57.9562 107.312 57.5826 107.344 56.6159C107.656 53.3335 107.445 50.0273 107.507 46.7331C106.888 46.7331 106.268 46.7331 105.648 46.7301C105.651 46.4514 105.657 46.1697 105.66 45.891C106.289 45.6004 106.902 45.2772 107.507 44.9451C107.507 43.0414 107.395 40.9836 108.403 39.2846L108.403 39.2845Z" fill="#111111"/>
<path d="M154.263 37.0161C152.618 37.3956 150.951 37.7158 149.261 37.7899C149.243 37.9441 149.21 38.2524 149.196 38.4066C149.824 38.5964 150.85 38.5462 150.895 39.4239C151.147 41.2031 150.969 43.0085 151.019 44.7995C148.597 44.3843 145.89 44.411 143.829 45.9203C141.572 47.5007 140.798 50.4483 141.024 53.0755C141.151 55.1126 142.171 57.2031 144.018 58.1963C146.219 59.4061 149.033 59.157 151.093 57.7634C151.108 58.1756 151.117 58.5877 151.12 58.9998C152.715 58.5936 154.346 58.3653 155.986 58.2704V57.5586C153.662 57.1628 154.305 56.0873 154.142 54.2586C154.145 48.5122 154.056 42.7626 154.263 37.0165L154.263 37.0161ZM148.234 46.283C149.216 46.2726 150.214 46.5861 151.019 47.1332C151.022 50.2258 151.013 53.3184 151.025 56.411C149.3 57.2027 146.966 57.1464 145.614 55.6816C144.454 54.4421 144.259 52.6275 144.362 51.0084C144.478 49.5348 144.787 47.8505 146.074 46.9372C146.718 46.4948 147.471 46.2909 148.234 46.2828L148.234 46.283Z" fill="#111111"/>
<path d="M56.4491 38.9049C58.4032 38.7863 60.3631 38.9138 62.2965 39.1866C62.1808 40.5625 62.1927 41.9472 62.2994 43.323C62.1126 43.323 61.739 43.326 61.5522 43.326C61.4039 42.4661 61.2497 41.4223 60.3335 41.0398C58.9755 40.4675 57.386 40.4112 55.9776 40.8204C54.1363 41.366 53.8338 44.0761 55.2037 45.2593C56.9176 46.7596 59.017 47.7412 60.7723 49.197C63.521 51.3853 63.1622 56.4795 59.9006 58.0125C57.1549 59.2816 53.9317 58.9613 51.0969 58.1637C51.1146 56.8005 51.0643 55.4374 51.002 54.0758C51.2065 54.0729 51.6187 54.064 51.8263 54.061C51.9716 54.918 52.105 55.9706 52.9738 56.4123C54.5275 57.2841 56.5319 57.3553 58.1451 56.6051C60.1585 55.4931 59.7878 52.2789 57.9049 51.1966C56.2711 49.9384 54.3942 49.0083 52.8848 47.5877C51.2125 46.0339 51.005 43.3119 52.0814 41.3696C52.9619 39.8218 54.7382 39.048 56.4491 38.9056L56.4491 38.9049Z" fill="#111111"/>
<path d="M68.0454 41.8198C68.1996 41.8287 68.5109 41.8435 68.6651 41.8524C68.6621 42.8873 68.6621 43.9192 68.6621 44.9541H73.4065V46.7333H68.6621C68.6799 49.224 68.6236 51.7177 68.6888 54.2115C68.754 55.1603 68.7807 56.3435 69.6673 56.9247C70.7852 57.5889 72.1225 57.1737 73.2404 56.7379C73.5844 57.58 72.7097 58.0514 72.1018 58.4014C70.6755 59.0923 68.935 59.1664 67.4613 58.5911C66.2011 58.1197 65.5932 56.741 65.5279 55.4777C65.3767 52.5658 65.5279 49.6482 65.5517 46.7334H63.6983C63.6954 46.5377 63.6924 46.345 63.6895 46.1523C65.7029 45.3932 67.0608 43.6585 68.0453 41.8202L68.0454 41.8198Z" fill="#111111"/>
<path d="M80.743 44.4837C78.6052 44.4618 76.4493 45.5236 75.7625 47.6702C75.9493 47.7769 76.3288 47.9874 76.5186 48.0941C77.3399 46.6442 79.2583 45.8999 80.7705 46.7362C81.9565 47.2759 82.0575 48.7257 82.0338 49.8615C80.1687 50.4604 78.2383 50.932 76.477 51.8098C74.3658 52.9247 74.093 56.0854 75.6053 57.7964C77.3874 59.4302 80.3614 59.1661 82.1227 57.6213C82.6594 58.6828 83.9285 59.0891 85.0344 58.7778C85.9981 58.591 86.6355 57.7874 87.2671 57.1083C87.1574 56.9838 86.9352 56.7317 86.8255 56.6042C86.4282 56.705 85.9803 57.0193 85.5919 56.7139C85.0878 56.367 85.15 55.6702 85.1144 55.1335C85.15 52.8325 85.2775 50.5258 85.1559 48.2219C85.0966 47.0299 84.5629 45.811 83.5073 45.1853C82.6826 44.7276 81.7148 44.4937 80.743 44.4837ZM82.001 51.6583C82.0128 53.2091 82.0011 54.7598 82.013 56.3106C81.0197 56.7524 79.8395 57.1616 78.7928 56.6546C77.5118 55.9726 77.5653 53.9327 78.6239 53.0757C79.6409 52.376 80.8475 52.0467 82.001 51.6583Z" fill="#111111"/>
<path d="M121.609 44.5418C120.046 44.5596 118.433 44.948 117.211 45.9651C115.394 47.4358 114.605 49.8672 114.685 52.1503C114.676 54.1044 115.284 56.189 116.823 57.4878C118.641 59.0712 121.283 59.2283 123.545 58.7568C125.932 58.232 127.726 56.1415 128.233 53.7991C128.779 51.3677 128.55 48.5419 126.878 46.5791C125.591 45.0728 123.53 44.5032 121.609 44.5418ZM121.63 46.2014C122.469 46.2177 123.3 46.5626 123.839 47.2312C124.814 48.4262 125.075 50.0333 125.146 51.5336C125.158 53.1674 124.951 54.9315 123.922 56.2658C122.911 57.5735 120.731 57.7188 119.566 56.5416C118.673 55.7143 118.341 54.4839 118.14 53.3274C117.929 51.7915 117.983 50.1931 118.466 48.7135C118.804 47.7231 119.462 46.7209 120.506 46.3828C120.865 46.254 121.248 46.1937 121.63 46.2011L121.63 46.2014Z" fill="#111111"/>
<path d="M88.3807 45.4849C90.0383 45.4582 91.7196 45.2862 93.2495 44.6013C93.3029 44.9956 93.3444 45.39 93.3771 45.7903C95.1354 44.6398 97.4067 44.1921 99.4201 44.9037C100.861 45.387 101.869 46.7985 101.997 48.2929C102.293 51.1365 101.863 54.0187 102.243 56.8564C102.284 57.7489 103.245 57.9506 103.942 58.0958C103.945 58.2619 103.945 58.594 103.948 58.76C101.594 58.5732 96.879 58.7511 96.879 58.7511L96.8701 58.0788C96.8701 58.0788 98.5707 57.6007 98.6788 57.1114C99.0672 55.0002 98.9753 52.8178 98.9546 50.674C98.8775 49.3931 98.9101 47.7919 97.6855 47.012C96.3719 46.2559 94.7618 46.6058 93.4187 47.095C93.4276 49.8704 93.4187 52.6487 93.4187 55.4243C93.4572 56.1656 93.4038 57.0106 93.8872 57.6273C94.2934 57.909 94.8034 57.9594 95.2689 58.0899C95.2719 58.2559 95.2748 58.591 95.2748 58.76C92.953 58.6088 90.6255 58.5109 88.3066 58.7571C88.3066 58.591 88.3126 58.2619 88.3126 58.0988C89.0183 57.9357 89.9494 57.7133 90.0827 56.8593C90.4059 54.8134 90.1569 52.7229 90.2339 50.6592C90.2043 49.482 90.3348 48.2899 90.1272 47.1276C89.9641 46.3329 88.9945 46.3774 88.3836 46.2202C88.3836 46.0364 88.3807 45.6687 88.3807 45.4849Z" fill="#111111"/>
<path d="M129.817 45.4224C131.478 45.3987 133.138 45.1733 134.716 44.6426L134.76 45.8642C136.355 44.5803 138.76 44.2541 140.459 45.5262L138.688 48.2302C137.86 46.9552 136.182 46.6468 134.857 47.2962C134.857 47.2962 134.848 52.9093 134.866 55.7143C134.934 56.34 134.836 57.1524 135.423 57.5616C135.989 57.8937 136.677 57.8759 137.309 57.9767C137.309 58.1694 137.306 58.5608 137.306 58.7535C134.759 58.5816 132.206 58.546 129.659 58.7476L129.658 57.9767C130.479 57.8367 131.334 57.5526 131.459 57.0634C131.811 55.8566 131.639 54.5785 131.675 53.3361C131.639 51.3583 131.746 49.3775 131.628 47.4028C131.619 46.4421 130.53 46.3561 129.825 46.2167C129.826 45.9444 129.82 45.6648 129.819 45.4221L129.817 45.4224Z" fill="#111111"/>
</svg>
