<svg width="206" height="100" viewBox="0 0 206 100" fill="none" xmlns="http://www.w3.org/2000/svg">
<path d="M91.8638 56.0479C91.8638 55.7995 91.6982 55.6339 91.367 55.5511V55.3855C91.5326 55.3855 92.1536 55.4269 92.3192 55.4269C92.4434 55.4269 93.0644 55.3855 93.2299 55.3855V55.5511C92.9402 55.6339 92.7745 55.7995 92.7745 56.0479V59.1529C92.7745 60.1465 93.3127 60.6846 94.4305 60.6846C95.4241 60.6846 96.1693 60.2292 96.1693 59.1943V56.0065C96.1693 55.7581 96.0037 55.5925 95.6725 55.5097V55.3855C95.7967 55.3855 96.2935 55.4269 96.4591 55.4269C96.6247 55.4269 97.1215 55.3855 97.2457 55.3855V55.5511C96.8731 55.6339 96.7489 55.7995 96.7489 56.0479V59.0701C96.7489 60.4362 95.9623 61.2229 94.2649 61.2229C92.6917 61.2229 91.8637 60.5191 91.8637 59.2357L91.8638 56.0479ZM98.6532 60.9743C99.0258 60.8915 99.15 60.7259 99.15 60.4775V56.1721C99.15 55.7995 98.943 55.6339 98.6118 55.5511V55.3855H99.8124L103.538 59.7737V56.0477C103.538 55.7993 103.373 55.6337 103.042 55.5509V55.3853C103.166 55.3853 103.663 55.4267 103.828 55.4267C103.994 55.4267 104.491 55.3853 104.615 55.3853V55.5509C104.242 55.6337 104.077 55.7993 104.077 56.0477V61.2225H103.87C103.745 61.1811 103.456 61.0569 103.042 60.6015L99.6882 56.7099V60.5187C99.6882 60.7671 99.8123 60.9327 100.185 61.0155V61.1811C100.061 61.1811 99.5639 61.1397 99.3983 61.1397C99.2328 61.1397 98.736 61.1811 98.6118 61.1811L98.6532 60.9743ZM128.129 59.8151H128.295C128.378 60.1463 128.543 60.4361 128.833 60.6017C129.081 60.8087 129.537 60.8915 129.868 60.8915C130.613 60.8915 131.11 60.5189 131.11 59.9393C131.11 59.3183 130.489 59.0285 129.785 58.6559C129.247 58.3661 128.171 57.9522 128.171 56.9172C128.171 55.965 128.916 55.344 130.075 55.344C130.862 55.344 131.193 55.551 131.731 55.5096V56.6688H131.565C131.358 55.965 130.737 55.758 130.034 55.758C129.247 55.758 128.999 56.2134 128.999 56.6274C128.999 57.2484 129.62 57.5796 130.323 57.9107C131.11 58.2419 131.979 58.6973 131.979 59.6909C131.979 60.6431 131.234 61.3055 129.909 61.3055C129.123 61.3055 128.626 61.0571 128.212 61.0157L128.129 59.8151ZM144.151 58.7387L142.619 56.2961C142.37 55.8821 142.163 55.6337 141.874 55.5509V55.3853C142.081 55.3853 142.66 55.4267 142.784 55.4267C142.95 55.4267 143.53 55.3853 143.778 55.3853V55.5509C143.571 55.5923 143.488 55.6751 143.488 55.8407C143.488 55.9649 143.571 56.1305 143.654 56.2961C143.737 56.4203 144.772 58.1591 144.772 58.1591L145.848 56.2961C145.972 56.0891 146.014 55.9235 146.014 55.7994C146.014 55.6752 145.931 55.5924 145.765 55.5924V55.3854C145.931 55.3854 146.345 55.4268 146.469 55.4268C146.593 55.4268 147.049 55.3854 147.214 55.3854V55.5509C146.8 55.7165 146.552 56.0891 146.303 56.5031L144.937 58.8215M145.02 58.5317V60.4775C145.02 60.6845 145.186 60.9329 145.517 60.9743V61.1399C145.351 61.1399 144.73 61.0985 144.565 61.0985C144.399 61.0985 143.819 61.1399 143.612 61.1399V60.9743C143.944 60.8915 144.109 60.6845 144.109 60.4775V58.6145M115.917 55.3853H119.478C119.602 55.3853 119.767 55.3853 119.892 55.3025H120.057L120.016 56.4617H119.85C119.726 56.0891 119.56 55.7993 118.898 55.7993H117.366V57.8693H118.567C118.732 57.8693 118.939 57.8693 119.022 57.8279C119.271 57.7865 119.395 57.6209 119.478 57.3725H119.643V58.8215H119.478C119.395 58.5731 119.312 58.4075 119.022 58.3661C118.939 58.3247 118.732 58.3247 118.567 58.3247H117.366V60.6845H119.064C119.809 60.6845 120.016 60.3947 120.181 59.9393H120.347L120.181 61.1399C119.643 61.0985 119.312 61.0985 118.691 61.0985H116.911C116.745 61.0985 116.124 61.1399 115.917 61.1399V60.9743C116.249 60.8915 116.414 60.7673 116.414 60.4361V56.0479C116.414 55.7581 116.248 55.5925 115.917 55.5511L115.917 55.3853ZM106.809 56.0891C106.809 55.7993 106.644 55.6337 106.313 55.5509V55.3853C106.52 55.3853 107.099 55.4267 107.306 55.4267C107.472 55.4267 108.093 55.3853 108.3 55.3853V55.5509C107.969 55.6337 107.762 55.7579 107.762 56.0891V60.4359C107.762 60.7257 107.927 60.8913 108.3 60.9741V61.1397C108.093 61.1397 107.513 61.0983 107.306 61.0983C107.141 61.0983 106.52 61.1397 106.313 61.1397V60.9741C106.685 60.8913 106.851 60.7671 106.851 60.4359L106.809 56.0891ZM133.843 56.0891C133.843 55.7993 133.678 55.6337 133.347 55.5509V55.3853C133.554 55.3853 134.175 55.4267 134.34 55.4267C134.506 55.4267 135.127 55.3853 135.334 55.3853V55.5509C135.003 55.6337 134.837 55.7579 134.837 56.0891V60.4359C134.837 60.7257 135.003 60.8913 135.334 60.9741V61.1397C135.127 61.1397 134.547 61.0983 134.34 61.0983C134.175 61.0983 133.554 61.1397 133.347 61.1397V60.9741C133.719 60.8913 133.843 60.7671 133.843 60.4359V56.0891ZM138.811 55.4267C136.865 55.4267 136.534 55.3853 136.162 55.3439V56.5031H136.327C136.493 55.9649 136.783 55.8407 137.155 55.8407H138.397V60.3945C138.397 60.6843 138.232 60.8499 137.859 60.9327V61.0983C138.066 61.0983 138.687 61.0569 138.853 61.0569C139.018 61.0569 139.639 61.0983 139.846 61.0983V60.9327C139.515 60.8499 139.308 60.6843 139.308 60.3945V55.8407H140.508C140.881 55.8407 141.171 55.9649 141.336 56.5031H141.502V55.3439C141.047 55.3853 140.757 55.4267 138.811 55.4267ZM123.204 60.4359C123.204 60.7257 123.369 60.8913 123.742 60.9741V61.1397C123.535 61.1397 122.914 61.0983 122.748 61.0983C122.583 61.0983 122.003 61.1397 121.796 61.1397V60.9741C122.127 60.8913 122.293 60.7671 122.293 60.4359V56.0477C122.293 55.7579 122.127 55.5923 121.796 55.5509V55.3854C122.003 55.3854 122.583 55.4268 122.748 55.4268C123.038 55.4268 123.825 55.3854 124.156 55.3854C125.522 55.3854 126.267 55.9649 126.267 56.9171C126.267 57.6623 125.688 58.2005 124.818 58.4075C124.818 58.4075 125.025 58.5317 125.232 58.7387C125.481 59.0285 126.143 59.9393 126.392 60.2704C126.64 60.6016 127.013 60.9742 127.385 60.9742V61.0984C127.22 61.1398 126.93 61.1812 126.723 61.1812C126.267 61.1812 125.895 61.0156 125.522 60.6016C125.191 60.229 124.694 59.4424 124.363 59.0285C124.156 58.7801 123.908 58.5731 123.494 58.4903C123.411 58.4903 123.328 58.4489 123.245 58.4489L123.204 60.4359ZM123.204 58.1175C123.369 58.1589 123.659 58.1589 123.908 58.1589C124.984 58.1589 125.315 57.5379 125.315 56.9997C125.315 56.2132 124.818 55.7578 123.866 55.7578C123.659 55.7578 123.411 55.7992 123.204 55.8406V58.1175ZM109.625 56.0889C109.501 55.7991 109.294 55.5921 108.963 55.5507V55.3852C109.17 55.3852 109.873 55.4266 110.039 55.4266C110.163 55.4266 110.784 55.3852 110.991 55.3852V55.5507C110.826 55.5921 110.577 55.6749 110.577 55.8819C110.577 56.0061 110.66 56.2131 110.826 56.5443L112.316 59.8977L113.724 56.5443C113.848 56.2545 113.931 56.0475 113.931 55.9233C113.931 55.7578 113.765 55.6335 113.517 55.5921V55.3851C113.682 55.3851 114.137 55.4265 114.303 55.4265C114.427 55.4265 114.965 55.3851 115.172 55.3851V55.5507C114.841 55.6335 114.593 55.8405 114.427 56.2959L112.357 61.1395H111.902L109.625 56.0889ZM114.924 40.8127C114.676 40.2745 114.303 39.9019 113.723 39.7777V39.4879C114.096 39.4879 115.379 39.5293 115.669 39.5293C115.918 39.5293 117.16 39.4879 117.574 39.4879V39.7777C117.242 39.8605 116.828 40.0261 116.828 40.3987C116.828 40.6471 116.994 41.0197 117.284 41.6407L120.099 48.0161L122.749 41.6407C122.956 41.1439 123.121 40.7299 123.121 40.4401C123.121 40.1089 122.79 39.8605 122.376 39.7777V39.4879C122.749 39.4879 123.577 39.5293 123.866 39.5293C124.115 39.5293 125.108 39.4879 125.522 39.4879V39.7777C124.86 39.9433 124.446 40.3573 124.073 41.1853L120.182 50.3759H119.312L114.924 40.8127ZM77.25 50.0033C77.7468 49.8791 78.1194 49.6721 78.1194 49.0925V40.6885C78.1194 40.1504 77.7882 39.902 77.25 39.7778V39.4466C77.4984 39.4466 78.6576 39.488 78.9474 39.488C79.2786 39.488 80.4791 39.4466 80.7275 39.4466V39.7364C80.2307 39.8606 79.8581 40.0676 79.8581 40.6471V44.2075H86.1507V40.6885C86.1507 40.109 85.8195 39.8606 85.2814 39.7778V39.4466C85.5298 39.4466 86.7303 39.488 87.0615 39.488C87.3513 39.488 88.5105 39.4466 88.8003 39.4466V39.7364C88.3035 39.8606 87.9309 40.0676 87.9309 40.6471V49.0511C87.9309 49.5893 88.2621 49.8377 88.8003 49.9619V50.2517C88.5519 50.2517 87.3513 50.2103 87.0615 50.2103C86.7303 50.2103 85.5712 50.2517 85.2814 50.2517V50.0033C85.7781 49.8791 86.1507 49.6721 86.1507 49.0925V45.1181H79.8581V49.0925C79.8581 49.6721 80.1893 49.8791 80.7275 50.0033V50.2931C80.4791 50.2931 79.2372 50.2517 78.9474 50.2517C78.6576 50.2517 77.5398 50.2931 77.25 50.2931V50.0033ZM149.782 50.0033C150.444 49.8791 150.776 49.6307 150.776 49.0511V40.6885C150.776 40.109 150.403 39.8606 149.782 39.7778V39.4466C150.155 39.4466 151.314 39.488 151.645 39.488C152.183 39.488 153.632 39.3638 154.791 39.3638C158.642 39.3638 161.001 41.5166 161.001 44.787C161.001 47.9748 158.559 50.3344 154.584 50.3344C153.425 50.3344 152.1 50.2516 151.562 50.2516C151.231 50.2516 150.155 50.293 149.782 50.293V50.0033ZM152.514 49.4651C152.928 49.5479 153.632 49.5893 154.212 49.5893C157.441 49.5893 159.138 47.6436 159.138 44.9113C159.138 42.0961 157.358 40.1091 154.336 40.1091C153.715 40.1091 152.928 40.1505 152.514 40.2333V49.4651ZM106.106 49.0098C106.106 49.5479 106.479 49.8791 107.1 50.0033V50.2931C106.727 50.2931 105.568 50.2517 105.196 50.2517C104.906 50.2517 103.747 50.2931 103.374 50.2931V50.0033C103.995 49.8792 104.326 49.5893 104.326 49.0098V40.73C104.326 40.2332 104.036 39.902 103.374 39.7778V39.4466C103.747 39.4466 104.864 39.488 105.196 39.488C105.734 39.488 107.224 39.4052 107.845 39.4052C110.453 39.4052 111.902 40.4816 111.902 42.3032C111.902 43.7521 110.826 44.7044 109.17 45.1184C109.17 45.1184 109.543 45.3254 109.915 45.7808C110.371 46.3189 111.654 48.1406 112.151 48.7616C112.648 49.3825 113.31 50.0863 114.014 50.0863V50.3347C113.683 50.4175 113.144 50.4589 112.73 50.4589C111.861 50.4589 111.157 50.1277 110.453 49.2997C109.874 48.596 108.839 47.0641 108.259 46.3189C107.887 45.8222 107.431 45.4496 106.603 45.3254C106.438 45.284 106.272 45.284 106.106 45.2426L106.106 49.0098ZM106.106 44.6216C106.438 44.663 106.976 44.7044 107.473 44.7044C109.501 44.7044 110.122 43.5452 110.122 42.5102C110.122 41.0612 109.129 40.1504 107.39 40.1504C107.017 40.1504 106.479 40.1918 106.106 40.2746V44.6216ZM140.302 49.0098C140.302 49.5479 140.675 49.8791 141.296 50.0033V50.2931C140.923 50.2931 139.764 50.2517 139.433 50.2517C139.143 50.2517 137.984 50.2931 137.611 50.2931V50.0033C138.232 49.8792 138.564 49.5893 138.564 49.0098V40.73C138.564 40.2332 138.274 39.902 137.611 39.7778V39.4466C137.984 39.4466 139.102 39.488 139.433 39.488C139.971 39.488 141.462 39.4052 142.041 39.4052C144.649 39.4052 146.098 40.4816 146.098 42.3032C146.098 43.7521 145.022 44.7044 143.366 45.1184C143.366 45.1184 143.739 45.3254 144.111 45.7808C144.567 46.3189 145.85 48.1406 146.347 48.7616C146.844 49.3825 147.506 50.0863 148.21 50.0863V50.3347C147.879 50.4175 147.34 50.4589 146.926 50.4589C146.057 50.4589 145.353 50.1277 144.649 49.2997C144.07 48.596 143.035 47.0641 142.455 46.3189C142.083 45.8222 141.627 45.4496 140.799 45.3254C140.634 45.284 140.468 45.284 140.302 45.2426L140.302 49.0098ZM140.302 44.6216C140.634 44.663 141.172 44.7044 141.669 44.7044C143.697 44.7044 144.318 43.5452 144.318 42.5102C144.318 41.0612 143.325 40.1504 141.586 40.1504C141.213 40.1504 140.675 40.1918 140.302 40.2746V44.6216ZM90.3744 50.0034C91.0782 49.8378 91.4508 49.3824 91.6992 48.8028L95.1768 40.4402C95.3424 40.109 95.508 39.4052 95.508 39.4052H96.5015C96.5015 39.4052 96.6671 40.109 96.8327 40.4816L100.517 48.8442C100.766 49.4238 101.056 49.8378 101.801 50.0034V50.2932C101.387 50.2932 100.186 50.2518 99.8963 50.2518C99.6065 50.2518 98.4474 50.2932 98.0334 50.2932V50.0034C98.5716 49.8792 98.7372 49.5894 98.7372 49.341C98.7372 49.134 98.6544 48.8442 98.5302 48.5958L97.7436 46.8156H93.6864L92.9826 48.6372C92.8998 48.8442 92.817 49.134 92.817 49.341C92.817 49.6308 92.9826 49.8792 93.5622 50.0448V50.3346C93.1896 50.3346 92.2374 50.2932 92.0304 50.2932L90.4573 50.3346L90.3744 50.0034ZM97.288 45.9462L95.5492 41.9304L93.9347 45.9462H97.288ZM124.818 50.0034C125.522 49.8378 125.894 49.3824 126.143 48.8028L129.62 40.4402C129.786 40.109 129.952 39.4052 129.952 39.4052H130.945C130.945 39.4052 131.111 40.109 131.276 40.4816L134.961 48.8442C135.209 49.4238 135.499 49.8378 136.244 50.0034V50.2932C135.83 50.2932 134.63 50.2518 134.34 50.2518C134.05 50.2518 132.891 50.2932 132.477 50.2932V50.0034C133.015 49.8792 133.181 49.5894 133.181 49.341C133.181 49.134 133.098 48.8442 132.974 48.5958L132.187 46.8156H128.13L127.426 48.6372C127.343 48.8442 127.261 49.134 127.261 49.341C127.261 49.6308 127.426 49.8792 128.006 50.0448V50.3346C127.633 50.3346 126.681 50.2932 126.474 50.2932L124.901 50.3346V50.0034H124.818ZM131.69 45.9462L129.951 41.9304L128.337 45.9462H131.69Z" fill="#111111"/>
<path d="M45.1647 36.0942H69.3827V45.2434C69.3827 49.4246 67.8095 58.3254 57.3769 64.9494C57.3769 64.9494 46.0335 60.23 45.1641 45.2434L45.1647 36.0942Z" fill="#111111"/>
<path d="M53.13 50.5281C53.0692 50.5256 53.0164 50.556 52.9739 50.5928C52.8911 50.6646 52.8415 50.7638 52.8389 50.7691C52.7465 50.8984 52.5521 50.931 52.3756 50.9259C52.1991 50.9209 52.0473 50.8807 52.0473 50.8807L52.0376 50.8782L52.0279 50.8815C51.7741 50.9661 51.6611 51.074 51.6147 51.1669C51.5915 51.2134 51.5856 51.2554 51.5856 51.2858C51.5856 51.3096 51.5886 51.3201 51.5904 51.327V52.2755C51.5812 52.3278 51.557 52.3598 51.5233 52.3822C51.4892 52.405 51.4437 52.417 51.398 52.4218C51.3066 52.4314 51.2177 52.4121 51.2177 52.4121H51.2169C50.8985 52.3485 50.6803 52.4231 50.5441 52.5156C50.4102 52.6067 50.3567 52.7126 50.3549 52.7162C50.2187 52.9005 50.3088 53.1593 50.3088 53.1593V53.1609C50.3176 53.1844 50.3279 53.2067 50.3396 53.2272C50.3397 53.2276 50.3412 53.232 50.3412 53.232C50.4654 53.5632 50.9209 53.5627 50.9209 53.5627C51.0865 53.6869 51.3761 53.6039 51.3761 53.6039C51.4612 53.6039 51.5107 53.6393 51.5411 53.684C51.5562 53.745 51.5492 53.8061 51.5492 53.8061L51.5484 53.8134L51.55 53.8198C51.5527 53.8308 51.5585 53.8883 51.5613 53.967C51.5641 54.0457 51.5652 54.1492 51.5661 54.2694C51.5681 54.5097 51.5671 54.8151 51.5645 55.1151C51.5593 55.7152 51.5492 56.2949 51.5492 56.2949C51.5492 56.4973 51.5095 56.6159 51.5095 56.6159L51.5079 56.6207V56.6263C51.5079 56.6364 51.5046 56.6416 51.4934 56.6506C51.4821 56.6596 51.4623 56.6694 51.436 56.6764C51.3832 56.6905 51.3075 56.6959 51.2314 56.6959C51.0792 56.6959 50.925 56.6757 50.925 56.6757L50.9209 56.6749L50.9168 56.6757C50.4857 56.7188 50.3523 57.1057 50.3508 57.1099V57.1107C50.3167 57.191 50.3197 57.2725 50.3428 57.346C50.3543 57.3829 50.3712 57.418 50.3905 57.4511C50.4674 57.639 50.6727 57.7858 50.6727 57.7858C50.6727 57.8686 51.4594 57.9095 51.4594 57.9095C51.5071 57.9215 51.5395 57.955 51.5637 57.9952C51.5661 58.0026 51.569 58.0096 51.571 58.0171C51.5903 58.0896 51.5904 58.1578 51.5904 58.1578C51.5845 58.1799 51.5822 58.2046 51.5807 58.2402C51.5789 58.2804 51.5781 58.33 51.5791 58.3858C51.581 58.4972 51.5875 58.6336 51.5952 58.7658C51.6108 59.0302 51.6316 59.2784 51.6316 59.2784L51.6324 59.28V59.2816C51.6368 59.3081 51.6497 59.3309 51.6656 59.3512C51.6656 59.3513 51.6664 59.3585 51.6664 59.3585C51.7078 59.6069 52.4944 59.5242 52.4944 59.5242C52.4944 59.5242 55.2514 59.4606 55.9964 59.4725C56.1028 59.4741 56.168 59.4778 56.1783 59.483C56.2611 59.483 56.4686 59.4418 56.4686 59.4418L56.7581 59.6488C56.8745 59.7393 56.9951 59.7652 57.1057 59.7579C57.1279 59.7567 57.15 59.7537 57.1712 59.7498C57.3835 59.7114 57.5448 59.5655 57.5448 59.5655L57.9588 59.483C58.0416 59.483 61.3952 59.4418 61.3952 59.4418C61.685 59.5246 61.8092 59.3997 61.8092 59.3997L62.3469 59.3585C62.3676 59.3585 62.3869 59.3569 62.4051 59.3537C62.5366 59.3296 62.6043 59.2244 62.6396 59.1216C62.6501 59.1012 62.6612 59.0809 62.6687 59.0602C62.7126 58.9395 62.7116 58.8208 62.7116 58.8208V58.1206C62.7185 58.0652 62.7313 58.0219 62.7455 57.9831C62.821 57.8501 62.9266 57.8271 62.9266 57.8271L63.4231 57.7438L63.6721 57.6201C63.7677 57.5962 63.818 57.5294 63.8468 57.4487C63.8541 57.4372 63.862 57.4262 63.8678 57.4139C63.9021 57.3409 63.9123 57.256 63.9123 57.1754C63.9123 57.0141 63.8694 56.8657 63.8694 56.8657L63.8686 56.8624L63.8678 56.8591C63.7772 56.6778 63.5681 56.6039 63.3875 56.572C63.2069 56.5402 63.0479 56.551 63.0479 56.551H63.0471C62.8478 56.5709 62.7726 56.5139 62.7382 56.458C62.7039 56.4022 62.7116 56.3416 62.7116 56.3416V56.3391L62.7536 53.7735C62.7699 53.6773 62.7979 53.6007 62.8256 53.5382C62.858 53.4763 62.8854 53.4387 62.8854 53.4387C63.0096 53.4801 63.4231 53.3555 63.4231 53.3555C63.661 53.3317 63.7601 53.1858 63.8031 53.0652C63.8069 53.0581 63.8127 53.0511 63.8161 53.0441C63.8706 52.9296 63.8703 52.8241 63.8703 52.821C63.8924 52.6586 63.7795 52.5245 63.6673 52.4337C63.5547 52.3425 63.4369 52.2898 63.4369 52.2898L63.4304 52.2864H62.849C62.8329 52.2831 62.8198 52.2746 62.8062 52.2565C62.7922 52.238 62.7789 52.2106 62.769 52.1773C62.7491 52.1105 62.74 52.0204 62.7374 51.9315C62.7324 51.7536 62.7528 51.5798 62.7528 51.5798L62.7536 51.5773V51.2444C62.7536 51.0833 62.6386 50.9702 62.5304 50.8999C62.4223 50.8296 62.3154 50.798 62.3154 50.798L62.3105 50.7964H61.5723C61.5556 50.7688 61.537 50.7416 61.5092 50.7237C61.4725 50.6999 61.4301 50.6822 61.3895 50.6687C61.3085 50.6416 61.2335 50.6315 61.2335 50.6315C61.0985 50.5891 60.8979 50.5895 60.8979 50.5895H60.8874L60.8785 50.5951C60.6208 50.7736 60.1686 50.8484 59.7829 50.8741C59.3972 50.8998 59.0786 50.8798 59.0786 50.8798L57.78 50.7957L57.7687 50.8062C57.7725 50.8025 57.7643 50.8091 57.7509 50.8135C57.7376 50.818 57.7184 50.8233 57.6968 50.8281C57.6536 50.8375 57.5986 50.8462 57.5448 50.8539C57.437 50.8693 57.3337 50.8798 57.3337 50.8798L57.3127 50.8814L57.3054 50.9024C57.2697 51.0095 57.1615 51.0464 57.1615 51.0464L57.0475 51.0852C56.9718 51.0209 56.8538 50.9721 56.7418 50.938C56.6237 50.902 56.5256 50.8823 56.5211 50.8814C56.5203 50.881 56.5194 50.8802 56.5187 50.8798C56.5147 50.8782 56.5108 50.8773 56.5073 50.8765C56.5005 50.8749 56.494 50.874 56.4855 50.8732C56.4686 50.8716 56.4468 50.8711 56.42 50.8707C56.3664 50.8703 56.2932 50.8719 56.2066 50.8748C56.0333 50.8807 55.8068 50.8918 55.5815 50.9048C55.1315 50.9306 54.6872 50.9621 54.6864 50.9622C54.1732 50.9827 53.8265 50.9003 53.6086 50.8142C53.3907 50.728 53.3046 50.6412 53.3046 50.6412C53.2499 50.5665 53.1896 50.5305 53.13 50.5281ZM53.1275 50.596C53.1638 50.5976 53.2057 50.6178 53.2537 50.685L53.2545 50.6866L53.2561 50.6891C53.2561 50.6891 53.3564 50.7877 53.5836 50.8775C53.8107 50.9673 54.1672 51.0511 54.6889 51.0303H54.6913C54.6913 51.0303 55.1357 50.9987 55.5856 50.9729C55.8106 50.9599 56.0368 50.9488 56.209 50.9429C56.2951 50.94 56.3684 50.9384 56.4201 50.9388C56.4459 50.939 56.4662 50.94 56.4799 50.9413C56.4856 50.9417 56.4894 50.9425 56.492 50.9429L56.4937 50.9445L56.5034 50.947C56.5034 50.947 56.6061 50.9671 56.7233 51.0028C56.8405 51.0384 56.9735 51.0928 57.0249 51.1442L57.0395 51.1588L57.1834 51.1111C57.1834 51.1111 57.2717 51.0593 57.3314 50.9696C57.2853 51.0817 57.1721 51.12 57.1721 51.12L57.0484 51.2033C56.9242 51.0791 56.5098 50.9963 56.5098 50.9963C56.4684 50.9549 54.6881 51.0788 54.6881 51.0788C53.6531 51.1202 53.2804 50.7481 53.2804 50.7481C53.0734 50.4583 52.8664 50.8718 52.8664 50.8718C52.6594 51.1616 52.0384 50.9963 52.0384 50.9963C51.8093 51.0727 51.7067 51.1662 51.6592 51.2453C51.6624 51.2309 51.6674 51.2152 51.6762 51.1976C51.7121 51.1258 51.8088 51.0291 52.0457 50.9486C52.059 50.9519 52.1974 50.9888 52.3748 50.9939C52.5605 50.9992 52.7801 50.9692 52.8947 50.8087L52.8963 50.8071L52.8979 50.8046C52.8979 50.8046 52.9482 50.7046 53.0184 50.6437C53.0535 50.6133 53.0913 50.5946 53.1275 50.596ZM60.9077 50.6583C60.9224 50.6585 61.1099 50.6608 61.219 50.6971L61.2222 50.6979L61.2247 50.6987C61.2247 50.6987 61.2952 50.7087 61.3694 50.7335C61.4065 50.7458 61.4444 50.7614 61.4737 50.7804C61.4784 50.7833 61.4809 50.7869 61.485 50.79C61.3856 50.7288 61.2295 50.7059 61.2295 50.7059C61.1053 50.6646 60.898 50.6647 60.898 50.6647C60.3598 51.0373 59.0763 50.955 59.0763 50.955L57.7931 50.8717C57.7522 50.9126 57.352 50.9533 57.3427 50.9542C57.3445 50.9513 57.3467 50.9491 57.3484 50.9461C57.3544 50.9457 57.4491 50.9362 57.5554 50.921C57.6102 50.9132 57.6662 50.9043 57.7122 50.8944C57.7353 50.8894 57.7557 50.8839 57.7729 50.8782C57.7825 50.8749 57.7899 50.8694 57.798 50.8653L59.0747 50.9469C59.0747 50.9469 59.3981 50.9681 59.7887 50.9421C60.1747 50.9163 60.6265 50.8473 60.9077 50.6583ZM61.5562 50.8645H62.3001C62.3025 50.8653 62.3616 50.8879 62.4303 50.9235C62.3609 50.8888 62.3057 50.8718 62.3057 50.8718H61.5602C61.5594 50.8693 61.5573 50.867 61.5562 50.8645ZM62.444 50.9308C62.4618 50.9404 62.4764 50.9454 62.495 50.9574C62.5001 50.9608 62.5045 50.9653 62.5095 50.9687C62.4872 50.9544 62.4652 50.9418 62.444 50.9308ZM62.7391 52.2738C62.7438 52.2816 62.7475 52.2902 62.7529 52.2972C62.774 52.3252 62.8026 52.3468 62.8378 52.3538L62.841 52.3546H63.4151C63.42 52.3567 63.523 52.4044 63.6253 52.4873C63.697 52.5453 63.7601 52.618 63.7886 52.6983C63.7145 52.5792 63.5778 52.4879 63.4943 52.4404C63.4523 52.4164 63.4232 52.404 63.4232 52.404H62.8442C62.7935 52.3938 62.7605 52.3433 62.7391 52.2738ZM51.6043 52.4C51.5002 52.5969 51.2106 52.5277 51.2106 52.5277C50.5896 52.4035 50.3826 52.818 50.3826 52.818C50.3769 52.8255 50.3737 52.8336 50.3688 52.8414C50.3782 52.811 50.391 52.7814 50.4109 52.7549L50.4141 52.7499C50.4141 52.7499 50.4613 52.6546 50.5839 52.5713C50.7064 52.488 50.9021 52.4181 51.2041 52.4783C51.2041 52.4783 51.301 52.4999 51.4062 52.4888C51.4589 52.4832 51.5149 52.4702 51.5623 52.4387C51.5779 52.4282 51.5915 52.4147 51.6043 52.4ZM62.6859 56.4986C62.736 56.5747 62.8449 56.6396 63.0538 56.619C63.0538 56.619 63.206 56.609 63.3773 56.6392C63.5482 56.6694 63.7314 56.7399 63.8066 56.8891C63.8068 56.8899 63.8114 56.9107 63.8131 56.9174C63.6189 56.6306 63.0514 56.6676 63.0514 56.6676C62.7808 56.6946 62.7061 56.5811 62.6859 56.4986ZM51.5461 56.6934C51.5456 56.6955 51.5421 56.7088 51.5421 56.7088C51.5421 56.7295 51.5324 56.747 51.5154 56.7605C51.4984 56.7741 51.4742 56.7843 51.4451 56.7921C51.2704 56.8387 50.9211 56.7921 50.9211 56.7921C50.6214 56.8221 50.4745 57.024 50.4157 57.1341C50.4157 57.1341 50.5309 56.7837 50.9243 56.7436C50.9313 56.7444 51.0778 56.7638 51.2324 56.7638C51.3115 56.7638 51.3903 56.7589 51.4539 56.7419C51.4858 56.7335 51.5145 56.7221 51.5372 56.7039C51.5408 56.701 51.543 56.6968 51.5461 56.6934ZM54.4303 39.0366L54.4182 39.0471C53.7722 39.5721 52.8334 39.3301 52.8334 39.3301L52.8294 39.3293H52.8253C51.9135 39.3293 51.6197 39.3706 51.6197 39.3706L51.6068 39.3731L51.5987 39.3827C51.5045 39.4958 51.389 39.4942 51.2874 39.4652C51.1882 39.4369 51.1131 39.3814 51.1095 39.3787C51.0909 39.3515 51.061 39.3359 51.0287 39.3245C50.992 39.3116 50.95 39.304 50.9098 39.2986C50.8294 39.2879 50.7554 39.2873 50.7554 39.2873H50.7537L50.7529 39.2881C49.8444 39.3501 49.2779 39.2981 48.9401 39.2315C48.7712 39.1983 48.6597 39.1611 48.5908 39.1329C48.5219 39.1047 48.4978 39.0868 48.4978 39.0868L48.5019 39.0909C48.4887 39.0778 48.476 39.073 48.4606 39.0683C48.4452 39.0636 48.4275 39.0601 48.4081 39.057C48.3693 39.0509 48.3233 39.0475 48.2787 39.0449C48.1895 39.0395 48.1057 39.0392 48.1057 39.0392H48.0846L48.0749 39.0578C48.0389 39.1298 47.9273 39.2809 47.9189 39.2922C47.9139 39.2938 47.9027 39.2972 47.8825 39.2995C47.8592 39.302 47.8287 39.3042 47.7944 39.3052C47.7257 39.3073 47.6407 39.306 47.5583 39.3036C47.3934 39.2985 47.2389 39.2882 47.2389 39.2882L47.2373 39.2874H47.2364C47.0638 39.2874 46.9598 39.3433 46.9017 39.4014C46.8436 39.4596 46.8305 39.5219 46.8305 39.5219L46.8297 39.5244L46.7885 40.316V40.3185C46.809 40.5642 46.7842 40.6637 46.7675 40.6904C46.7591 40.7038 46.7589 40.7009 46.7586 40.7009L46.7303 40.6824L46.7109 40.7107C46.7001 40.7269 46.6588 40.7488 46.6001 40.7616C46.5414 40.7745 46.4684 40.7809 46.3971 40.7834C46.2546 40.7885 46.1214 40.7786 46.1214 40.7786L46.1182 40.7778L46.115 40.7786C46.0025 40.7899 45.9183 40.8449 45.8595 40.9185C45.8006 40.9921 45.7653 41.0831 45.7438 41.1716C45.7009 41.3485 45.7123 41.5184 45.7123 41.5184V41.5225C45.7348 41.6349 45.7988 41.7137 45.8789 41.7643C45.9589 41.8148 46.0545 41.8393 46.1457 41.85C46.323 41.8709 46.4787 41.8411 46.4877 41.8395H46.4885C46.7089 41.8598 46.7889 41.9279 46.8184 41.9826C46.848 42.0374 46.8314 42.0853 46.8314 42.0853L46.8297 42.0901V42.0958C46.8297 42.1814 46.8404 42.8622 46.8508 43.5246C46.8611 44.1845 46.8709 44.8192 46.871 44.8239C46.8611 44.9126 46.8374 44.9682 46.8095 45.0026C46.7817 45.037 46.7499 45.0519 46.7174 45.0584C46.6522 45.0715 46.5872 45.0455 46.5872 45.0455L46.5807 45.0422H46.5742C46.1111 45.0422 45.8982 45.2038 45.8093 45.3705C45.7209 45.5363 45.754 45.7004 45.7543 45.702C45.777 46.0025 45.9665 46.1412 46.1449 46.1952C46.3239 46.2494 46.495 46.2275 46.495 46.2275L46.4909 46.2283C46.7124 46.2283 46.8033 46.2868 46.8419 46.3383C46.8805 46.3898 46.8718 46.4369 46.8718 46.4369L46.8702 46.4475L46.875 46.458C46.8736 46.4551 46.8798 46.4791 46.8815 46.5105C46.8831 46.542 46.884 46.5838 46.8831 46.6318C46.8812 46.7279 46.8747 46.8495 46.8669 46.9682C46.8514 47.2057 46.8305 47.4331 46.8305 47.4331V47.4373L46.8314 47.4421C46.8746 47.6801 47.0123 47.7778 47.1362 47.806C47.251 47.8321 47.3456 47.8052 47.3602 47.8011H47.3618L50.6664 47.8844C51.1382 48.2281 51.4428 48.238 51.6254 48.144C51.8 48.054 51.8459 47.8933 51.8518 47.8747L51.9092 47.8836C51.9461 47.8898 52.0184 47.8929 52.1242 47.8958C52.2301 47.8987 52.3673 47.9004 52.5253 47.9014C52.8412 47.9035 53.2397 47.9022 53.633 47.8998C54.0264 47.8973 54.4151 47.8934 54.7101 47.8901C55.0037 47.8868 55.2048 47.8845 55.2243 47.8845H55.2268C55.3625 47.9146 55.4685 47.9078 55.5502 47.8764C55.6334 47.8444 55.6898 47.7877 55.7265 47.7284C55.7994 47.6106 55.7992 47.4809 55.7992 47.4794V47.4778L55.8405 46.4913C55.8573 46.4265 55.9277 46.379 56.0006 46.3498C56.0711 46.3216 56.1348 46.3125 56.1396 46.3118C56.5992 46.3725 56.8245 46.2104 56.9231 46.0296C57.0219 45.8486 57.0001 45.6552 56.9999 45.6536V45.6528C56.9781 45.3516 56.7995 45.2029 56.6312 45.1378C56.4628 45.0725 56.3013 45.0844 56.3013 45.0844L56.3038 45.0836C56.0843 45.0836 55.9836 45.0073 55.9327 44.9332C55.882 44.8595 55.8817 44.7884 55.8817 44.7877V44.7869C55.8932 44.7149 55.9002 44.5365 55.906 44.2944C55.9118 44.0496 55.9155 43.747 55.9181 43.4519C55.9233 42.8618 55.9238 42.3029 55.9238 42.3029C55.9238 42.2521 55.9526 42.1703 55.9828 42.1048C56.0092 42.0475 56.0292 42.0143 56.0353 42.0037C56.2903 42.0297 56.4851 42.0145 56.6216 41.9657C56.764 41.9148 56.8518 41.8317 56.9021 41.745C57.0018 41.5734 56.9573 41.3926 56.9563 41.3884C56.9752 41.2329 56.9518 41.1153 56.8973 41.0335C56.8415 40.9497 56.7585 40.903 56.6757 40.8782C56.5152 40.8301 56.3551 40.8593 56.345 40.8612C56.0617 40.8612 55.9646 40.7827 55.9302 40.7141C55.8959 40.6451 55.9214 40.5755 55.9214 40.5755L55.9222 40.5722L55.923 40.5689C55.9857 40.1721 55.965 39.8984 55.9279 39.7231C55.8907 39.5478 55.8341 39.4676 55.8341 39.4676L55.8308 39.4628L55.8252 39.4586C55.7829 39.4304 55.7219 39.4197 55.6481 39.4117C55.5743 39.4037 55.4889 39.4012 55.408 39.4012C55.2461 39.4012 55.1007 39.4117 55.1007 39.4117L55.0902 39.4125L55.0829 39.4182C55.0533 39.4404 55.0212 39.4379 54.977 39.4157C54.9328 39.3936 54.883 39.3509 54.8379 39.3033C54.7477 39.2081 54.6762 39.0963 54.6762 39.0963L54.6681 39.0842L54.4303 39.0366ZM66.1465 39.0366L66.1344 39.0471C65.4884 39.5721 64.5496 39.3301 64.5496 39.3301L64.5456 39.3293H64.5407C63.6702 39.3293 63.3772 39.3706 63.3772 39.3706L63.3642 39.3731L63.3561 39.3827C63.2619 39.4958 63.1464 39.4942 63.0448 39.4652C62.9471 39.4373 62.8735 39.3837 62.8678 39.3795C62.8492 39.3516 62.8189 39.3361 62.7861 39.3245C62.7494 39.3116 62.7074 39.304 62.6672 39.2986C62.5869 39.2879 62.5128 39.2873 62.5128 39.2873H62.5112L62.5104 39.2881C61.6019 39.3501 61.0353 39.2981 60.6976 39.2315C60.5287 39.1983 60.4171 39.1611 60.3483 39.1329C60.2794 39.1047 60.2553 39.0868 60.2553 39.0868L60.2594 39.0909C60.2462 39.0778 60.2327 39.073 60.2173 39.0683C60.2019 39.0636 60.185 39.0601 60.1656 39.057C60.1268 39.0509 60.08 39.0475 60.0354 39.0449C59.9462 39.0396 59.8632 39.0392 59.8632 39.0392H59.8421L59.8324 39.0578C59.7963 39.1299 59.6835 39.2824 59.6756 39.2931C59.6702 39.2947 59.659 39.2973 59.6392 39.2995C59.6158 39.302 59.5862 39.3042 59.5519 39.3052C59.4832 39.3073 59.3982 39.306 59.3158 39.3036C59.1509 39.2985 58.9956 39.2882 58.9956 39.2882L58.9947 39.2874H58.9939C58.8013 39.2874 58.6881 39.3419 58.6244 39.3998C58.5606 39.4578 58.546 39.5219 58.546 39.5219V40.3597C58.5664 40.5845 58.5406 40.6736 58.5257 40.6944C58.5183 40.7048 58.519 40.7009 58.5177 40.7009C58.5163 40.7008 58.5152 40.7009 58.5152 40.7009L58.4877 40.6823L58.4683 40.7106C58.4575 40.7268 58.4163 40.7487 58.3575 40.7615C58.2988 40.7744 58.225 40.7808 58.1538 40.7834C58.0113 40.7885 57.8781 40.7785 57.8781 40.7785L57.8756 40.7777L57.8724 40.7785C57.7504 40.7896 57.6585 40.8434 57.5934 40.9168C57.5284 40.9902 57.4891 41.082 57.4649 41.1707C57.4165 41.3481 57.4277 41.5184 57.4277 41.5184V41.52L57.4285 41.5224C57.451 41.6348 57.515 41.7137 57.5951 41.7642C57.6751 41.8147 57.7699 41.8392 57.8611 41.8499C58.0384 41.8708 58.195 41.841 58.2039 41.8394H58.2047C58.4251 41.8597 58.5044 41.9278 58.5338 41.9825C58.5634 42.0374 58.5476 42.0852 58.5476 42.0852L58.5467 42.086V42.0876C58.5389 42.1189 58.5367 42.1725 58.5338 42.259C58.531 42.3456 58.5291 42.46 58.5281 42.5922C58.5262 42.8564 58.5272 43.1932 58.5298 43.5244C58.5349 44.1845 58.5459 44.8191 58.5459 44.8238C58.5361 44.9124 58.5115 44.9681 58.4837 45.0025C58.4558 45.0369 58.4241 45.0518 58.3915 45.0583C58.3264 45.0713 58.2621 45.0454 58.2621 45.0454L58.2557 45.0421H58.2484C57.7853 45.0421 57.5723 45.2037 57.4835 45.3703C57.395 45.5362 57.4282 45.7003 57.4285 45.7019C57.4512 46.0024 57.6406 46.141 57.819 46.1951C57.998 46.2493 58.1699 46.2274 58.1699 46.2274L58.1659 46.2282C58.3661 46.2282 58.4568 46.2863 58.5014 46.3398C58.5461 46.3933 58.5459 46.4425 58.5459 46.4425V46.4506L58.5491 46.4578C58.5477 46.4549 58.554 46.479 58.5556 46.5104C58.5572 46.5418 58.5574 46.5836 58.5564 46.6317C58.5545 46.7278 58.548 46.8493 58.5403 46.9681C58.5248 47.2056 58.5047 47.433 58.5047 47.433L58.5039 47.4371L58.5047 47.442C58.548 47.68 58.6864 47.7777 58.8103 47.8058C58.925 47.8319 59.0196 47.806 59.0343 47.8017H59.0359L62.3405 47.885C62.8123 48.2287 63.1162 48.2386 63.2987 48.1445C63.4747 48.0539 63.5313 47.8819 63.5364 47.8656L63.5372 47.8648C63.5521 47.8363 63.5837 47.8227 63.5995 47.8227C63.6074 47.8227 63.6067 47.8243 63.6051 47.8219C63.6035 47.8195 63.6067 47.8211 63.5995 47.8357L63.5792 47.8769L63.6245 47.8842C63.6615 47.8903 63.7338 47.8935 63.8396 47.8963C63.9455 47.8992 64.0827 47.901 64.2407 47.902C64.5566 47.9041 64.955 47.9028 65.3484 47.9004C65.7418 47.8979 66.1296 47.8939 66.4246 47.8907C66.7196 47.8874 66.9242 47.885 66.9421 47.885C67.0876 47.9151 67.1987 47.9076 67.2825 47.8761C67.3678 47.8442 67.4238 47.7872 67.458 47.7274C67.5264 47.6076 67.5138 47.4743 67.5138 47.4743L67.5146 47.4791L67.5558 46.4911C67.5726 46.4262 67.6422 46.3787 67.7151 46.3495C67.7863 46.3211 67.8512 46.3129 67.855 46.3124C68.3146 46.3731 68.5398 46.2102 68.6385 46.0294C68.7372 45.8484 68.7147 45.6558 68.7145 45.6542V45.6526C68.6926 45.3513 68.5149 45.2027 68.3466 45.1375C68.1781 45.0723 68.0159 45.0842 68.0159 45.0842L68.0191 45.0834C67.7783 45.0834 67.6795 45.0062 67.6342 44.9338C67.589 44.8613 67.5978 44.7907 67.5978 44.7907V44.7866C67.5978 44.542 67.6391 42.3034 67.6391 42.3034V42.3026C67.6391 42.2518 67.6679 42.17 67.6981 42.1045C67.7246 42.0472 67.7453 42.0139 67.7515 42.0034C68.0065 42.0294 68.2012 42.0141 68.3377 41.9654C68.4802 41.9145 68.5679 41.8314 68.6183 41.7447C68.7179 41.5731 68.6734 41.3922 68.6725 41.3881C68.6913 41.2326 68.6672 41.1149 68.6126 41.0331C68.5568 40.9494 68.4739 40.9027 68.3911 40.8779C68.2299 40.8295 68.0691 40.8593 68.0604 40.8609C67.777 40.8609 67.6807 40.7824 67.6464 40.7137C67.612 40.6451 67.6375 40.5755 67.6375 40.5755L67.6391 40.5688C67.7017 40.172 67.6811 39.8984 67.6439 39.7231C67.6067 39.5478 67.5501 39.4676 67.5501 39.4676L67.5461 39.4627L67.5412 39.4586C67.4989 39.4304 67.4379 39.4197 67.3641 39.4117C67.2903 39.4037 67.2049 39.4012 67.124 39.4012C66.9621 39.4012 66.8159 39.4117 66.8159 39.4117L66.8062 39.4125L66.7981 39.4182C66.7685 39.4404 66.7373 39.4379 66.693 39.4157C66.6488 39.3936 66.5982 39.3509 66.5531 39.3033C66.4629 39.2081 66.3922 39.0963 66.3922 39.0963L66.3842 39.0841L66.1465 39.0366Z" fill="#111111"/>
<path d="M57.337 65.072L57.2542 65.0306C57.1714 64.9892 45.8694 60.1042 45 45.2418V35.927H69.508V45.2004C69.508 48.8436 68.3488 58.1168 57.4194 64.9892L57.337 65.072ZM45.2898 36.216V45.1996C46.1178 59.2752 56.3848 64.326 57.337 64.74C68.0594 57.9092 69.2186 48.8014 69.2186 45.1996V36.216H45.2898Z" fill="#111111"/>
<path d="M48.6433 39.4058C48.6433 39.4058 48.3949 39.406 48.4363 39.5716L48.3539 45.864C48.3539 45.864 48.3537 46.1541 48.8091 46.1955C48.8091 46.1955 49.3883 46.2369 49.5125 46.1955H50.8378C50.8378 46.1955 51.086 46.4432 51.086 46.1534C51.086 46.1534 51.2513 41.062 51.1685 39.9856C51.1685 39.9856 51.1683 39.5296 50.7957 39.5296C50.7957 39.5296 49.306 39.6538 49.1818 39.5296L48.6433 39.4058ZM54.3899 39.4155C54.3354 39.4106 54.2475 39.4262 54.1077 39.4882C54.1077 39.4882 54.1498 39.6543 52.2868 39.5715C52.2454 39.5715 51.5415 39.5711 51.5001 39.861C51.5001 39.861 51.4588 42.8418 51.4588 42.9246L51.4168 45.4086L51.3756 46.2778C51.3756 46.2778 51.4998 46.4433 51.5826 46.3191C51.5826 46.3191 52.2035 46.1538 52.6175 46.2366C52.6175 46.2366 53.86 46.3603 54.1498 46.1533C54.1498 46.1533 54.3566 46.2361 54.398 45.9463C54.398 45.9463 54.4807 40.4403 54.4393 40.3575C54.4393 40.3575 54.5219 39.5711 54.4805 39.4883C54.4805 39.4883 54.4809 39.4236 54.3899 39.4155ZM47.5647 39.5699C47.4835 39.5724 47.3652 39.6233 47.1944 39.7785L47.1532 40.6065C47.1532 40.6065 47.1532 41.0619 46.7392 41.0205C46.7392 41.0205 46.2833 41.0205 46.0349 41.2275C46.0349 41.2275 45.911 41.6408 46.3664 41.5994C46.3664 41.5994 47.0705 41.5998 47.1119 41.8897L47.0699 44.8701C47.0699 44.8701 47.2361 45.3674 46.6979 45.3674C46.6979 45.3674 46.0349 45.3254 46.0349 45.7393C46.0349 45.7393 46.1596 46.0712 46.7392 45.9884C46.7392 45.9884 47.1533 46.071 47.1119 46.4436V47.1883C47.1119 47.1883 47.0699 47.4784 47.4839 47.5198H50.5475C50.5475 47.5198 50.7132 47.5197 50.7132 47.3541C50.7132 47.3541 50.7134 47.1883 50.465 47.1883L47.9398 47.1058C47.9398 47.1058 47.5251 47.2304 47.4837 46.6094C47.4837 46.6094 47.5238 41.2934 47.525 41.0594C47.525 41.0595 47.5258 41.0619 47.5258 41.0619C47.5258 41.0619 47.5251 41.0423 47.525 41.04C47.525 41.038 47.5258 40.9795 47.5258 40.9786C47.525 40.977 47.5249 40.977 47.5242 40.9753C47.5198 40.7718 47.519 40.0516 47.7328 39.6953C47.7328 39.6953 47.7002 39.5659 47.5647 39.5699ZM55.4039 39.5853C55.2263 39.6006 55.226 39.8198 55.226 39.8198C55.3088 39.9026 55.3498 40.1925 55.3498 40.1925C55.3912 40.8549 55.3498 41.5999 55.3498 42.3037C55.3084 44.6635 55.226 46.8163 55.226 46.8163C55.226 47.2717 54.9778 47.147 54.9778 47.147H52.2448C51.955 47.147 51.9553 47.3128 51.9553 47.3128C51.9967 47.5612 52.2448 47.4785 52.2448 47.4785C52.4932 47.5199 55.226 47.4785 55.226 47.4785C55.64 47.5199 55.5988 46.9813 55.5988 46.9813C55.6402 46.0291 55.7225 45.9463 55.7225 45.9463C55.8053 45.9049 56.261 45.905 56.261 45.905C57.0062 45.9464 56.675 45.4498 56.675 45.4498C56.5922 45.3256 56.0953 45.3253 56.0953 45.3253C55.6399 45.3667 55.6813 44.8701 55.6813 44.8701L55.7225 42.0135C55.6397 41.7651 55.847 41.6415 55.847 41.6415H56.3022C56.9232 41.6829 56.7575 41.2688 56.7575 41.2688C56.7575 41.0618 56.2198 40.9785 56.2198 40.9785C55.723 41.0613 55.7637 40.7715 55.7637 40.7715V40.0681C55.8465 39.6127 55.5567 39.6128 55.5567 39.6128C55.4946 39.5896 55.4449 39.5817 55.4039 39.5853ZM54.8193 39.6775C54.7665 39.6845 54.7084 39.7266 54.6463 39.8198V46.0296C54.6463 46.0296 54.8119 46.5674 55.0603 46.526C55.0603 46.526 55.1015 46.4023 55.1015 46.1953L55.1848 40.2749C55.1848 40.2749 55.0482 39.6467 54.8193 39.6775ZM48.1469 39.7365C47.7743 39.7365 47.7329 40.4407 47.7329 40.4407L47.6909 46.3191C47.7323 46.6089 47.8154 46.5674 47.8154 46.5674C48.188 46.319 48.1469 45.9052 48.1469 45.9052C48.1469 45.9052 48.1882 40.3166 48.1882 40.2338C48.1882 40.151 48.1469 39.7365 48.1469 39.7365ZM48.3192 46.3579C48.3015 46.3587 48.2816 46.3616 48.2609 46.3676C48.1781 46.3912 48.0761 46.4624 47.9901 46.6344L47.9884 46.6377L47.9876 46.641C47.9876 46.641 47.963 46.7182 47.982 46.7938C47.9914 46.8317 48.0156 46.8718 48.0596 46.8925C48.1021 46.9125 48.1583 46.9132 48.2318 46.8933H50.2532L50.7958 47.0186L50.803 47.017C50.803 47.017 50.8418 47.0081 50.8896 46.9903C50.9373 46.9726 50.9955 46.9466 51.0383 46.9038C51.0598 46.8824 51.0776 46.856 51.0852 46.8246C51.0928 46.7931 51.0887 46.757 51.0723 46.7219C51.0395 46.6516 50.9615 46.58 50.8136 46.4955L50.8055 46.4906H48.8544C48.8514 46.4898 48.7632 46.4707 48.662 46.4454C48.559 46.4196 48.4413 46.3855 48.4105 46.3702L48.4089 46.3694H48.4081C48.4081 46.3694 48.3722 46.355 48.3192 46.3579ZM54.47 46.467C54.3535 46.4612 54.191 46.4848 54.191 46.4848C53.8598 46.6918 51.914 46.5261 51.914 46.5261C51.7898 46.5261 51.6237 46.7331 51.6237 46.7331C51.5823 47.1057 52.2036 46.9401 52.1622 46.9401H54.4804C54.853 47.0229 54.8532 46.8576 54.8532 46.8576C54.8532 46.7334 54.5637 46.4848 54.5637 46.4848C54.543 46.4745 54.5088 46.469 54.47 46.467ZM51.4072 46.9312C51.3965 46.932 51.386 46.9349 51.3756 46.9401C51.3756 46.9401 51.0029 46.9405 51.0029 47.4373C51.0029 47.4373 51.0443 47.8093 51.4169 47.8093C51.4169 47.8093 51.7484 47.7266 51.7484 47.3541C51.7484 47.3541 51.5663 46.9175 51.4072 46.9312ZM60.3176 39.4058C60.3176 39.4058 60.0692 39.4059 60.1106 39.5715L60.0281 45.8639C60.0281 45.8639 60.0279 46.154 60.4833 46.1954C60.4833 46.1954 61.0634 46.2368 61.1876 46.1954H62.512C62.512 46.1954 62.7602 46.4434 62.7602 46.1122C62.7602 46.1122 62.9263 41.02 62.8435 39.9436C62.8435 39.9436 62.8434 39.4883 62.4708 39.4883C62.4708 39.4883 60.9802 39.6125 60.856 39.4883L60.3176 39.4058ZM66.048 39.4567C65.999 39.4588 65.9275 39.4777 65.824 39.5295C65.824 39.5295 65.8652 39.6956 64.0023 39.6128C63.9609 39.6128 63.2155 39.571 63.2155 39.9022C63.2155 39.9022 63.1743 42.883 63.1743 42.9658L63.133 45.4498L63.0506 46.3191C63.0506 46.3191 63.1748 46.4845 63.2576 46.3603C63.2576 46.3603 63.8785 46.195 64.2925 46.2778C64.2925 46.2778 65.5342 46.4023 65.824 46.1953C65.824 46.1953 66.0308 46.2781 66.0722 45.9883C66.0722 45.9883 66.1549 40.4823 66.1135 40.3995C66.1135 40.3995 66.1969 39.6123 66.1555 39.5295C66.1555 39.5295 66.1556 39.4518 66.048 39.4567ZM59.1978 39.5699C59.1165 39.5724 58.9982 39.6233 58.8274 39.7785V40.5644C58.8274 40.5644 58.8274 41.0198 58.4134 40.9784C58.4134 40.9784 57.9584 40.9784 57.71 41.1854C57.71 41.1854 57.5853 41.5996 58.0407 41.5582C58.0407 41.5582 58.7448 41.5586 58.7862 41.8485L58.7449 44.8289C58.7449 44.8289 58.9105 45.3253 58.3309 45.3253C58.3309 45.3253 57.6687 45.2841 57.6687 45.6981C57.6687 45.6981 57.7926 46.0291 58.3722 45.9463C58.3722 45.9463 58.7862 46.0298 58.7862 46.4024V47.1471C58.7862 47.1471 58.7451 47.4372 59.1177 47.4786H62.1805C62.1805 47.4786 62.3463 47.4784 62.3463 47.3128C62.3463 47.3128 62.3464 47.1471 62.098 47.1471L59.614 47.1059C59.614 47.1059 59.2002 47.2304 59.1588 46.6094C59.1588 46.6094 59.2002 41.0612 59.1588 40.9784V41.0617C59.1588 41.0617 59.1174 40.1092 59.3658 39.6952C59.3658 39.6952 59.3332 39.5659 59.1978 39.5699ZM67.0782 39.5853C66.9005 39.6006 66.9003 39.8197 66.9003 39.8197C66.9417 39.9025 67.0248 40.1925 67.0248 40.1925C67.0662 40.8549 67.0248 41.5999 67.0248 42.3037C66.9834 44.6635 66.9003 46.8163 66.9003 46.8163C66.9003 47.2717 66.652 47.147 66.652 47.147H63.9198C63.63 47.147 63.6295 47.3128 63.6295 47.3128C63.6709 47.5612 63.9611 47.4787 63.9611 47.4373C64.2095 47.4787 66.9415 47.4373 66.9415 47.4373C67.3555 47.4787 67.3142 46.94 67.3142 46.94C67.3556 45.9878 67.4387 45.905 67.4387 45.905C67.5215 45.8636 67.9764 45.8638 67.9764 45.8638C68.6802 45.9052 68.3492 45.4086 68.3492 45.4086C68.2664 45.2844 67.7695 45.2841 67.7695 45.2841C67.3141 45.3255 67.3555 44.8288 67.3555 44.8288L67.3975 41.9722C67.3147 41.7238 67.5212 41.5995 67.5212 41.5995H67.9764C68.5974 41.6409 68.4325 41.2275 68.4325 41.2275C68.4325 41.0205 67.894 40.9373 67.894 40.9373C67.3972 41.0201 67.4387 40.7303 67.4387 40.7303V40.0681C67.5215 39.6127 67.2317 39.6128 67.2317 39.6128C67.1696 39.5896 67.1191 39.5817 67.0782 39.5853ZM66.4936 39.6928C66.4407 39.6971 66.3826 39.7344 66.3205 39.8198V46.0296C66.3205 46.0296 66.4861 46.5674 66.7345 46.526C66.7345 46.526 66.7766 46.4023 66.7766 46.1953L66.859 40.2749C66.859 40.2749 66.7224 39.674 66.4936 39.6928ZM59.8212 39.7365C59.4486 39.7365 59.4072 40.4407 59.4072 40.4407L59.3659 46.3191C59.4073 46.6089 59.4896 46.5674 59.4896 46.5674C59.8622 46.319 59.8211 45.9052 59.8211 45.9052C59.8211 45.9052 59.8624 40.3166 59.8624 40.2338C59.8624 40.151 59.8212 39.7365 59.8212 39.7365ZM60.0581 46.3515C59.9858 46.3494 59.8525 46.3817 59.7387 46.6094C59.7387 46.6094 59.6559 46.8992 59.9457 46.8164H61.9737L62.5122 46.9401C62.5122 46.9401 63.0918 46.8161 62.5122 46.4849H60.5668C60.5668 46.4849 60.1936 46.4018 60.1108 46.3604C60.1108 46.3604 60.0909 46.3525 60.0581 46.3515ZM66.1669 46.4251C66.0618 46.4271 65.9486 46.4437 65.9486 46.4437C65.6174 46.6507 63.6716 46.4849 63.6716 46.4849C63.5474 46.4849 63.3813 46.6919 63.3813 46.6919C63.2985 47.0645 63.9198 46.8989 63.9198 46.8989H66.238C66.6106 46.9817 66.6108 46.8164 66.6108 46.8164C66.6108 46.6922 66.3205 46.4437 66.3205 46.4437C66.2894 46.4281 66.2299 46.4239 66.1669 46.4251ZM63.1235 46.89C63.1126 46.8908 63.1023 46.8937 63.0919 46.8989C63.0919 46.8989 62.719 46.8985 62.7604 47.3954C62.7604 47.3954 62.8018 47.7681 63.1744 47.7681C63.1744 47.7681 63.5059 47.7269 63.5059 47.3129C63.5059 47.3129 63.2872 46.8764 63.1235 46.89ZM56.9649 54.9304C56.9649 54.9304 56.9649 55.3858 56.9235 55.8412C56.8821 56.0896 57.0063 57.2487 56.9235 57.8283C56.9235 57.8283 56.9235 58.0353 56.5095 57.8697C56.5095 57.8697 53.9841 57.9111 53.9427 57.8283C53.9427 57.8283 53.2389 57.8697 53.1975 57.4971C53.1975 57.4971 53.2803 54.8061 53.2389 54.7233C53.2389 54.7233 53.1975 53.2744 53.2389 53.1088C53.2389 53.1088 53.2803 51.7426 53.2389 51.577C53.2389 51.577 53.2389 51.2458 53.1975 51.1216C53.1975 51.1216 53.1975 50.9146 53.5287 51.0388C53.5287 51.0388 53.6529 51.2458 54.2739 51.163C54.2739 51.163 54.7293 51.2458 55.1847 51.163C55.1847 51.163 56.1782 51.0802 56.4266 51.163C56.4266 51.163 56.8406 51.0802 56.9234 51.5356V52.7362L57.0476 53.1502L57.1718 53.0674L57.2132 52.7776V51.4942C57.2132 51.4942 57.296 51.2458 57.6272 51.2044C57.6272 51.2044 58.124 51.163 58.2068 51.2044C58.2896 51.2458 59.3659 51.2872 59.6557 51.2458C59.9455 51.2044 59.9869 51.4528 60.8977 50.9974C60.8977 50.9974 61.1461 50.9974 61.1461 51.163C61.1461 51.163 61.0633 52.819 61.1461 53.1502C61.1461 53.1502 61.1461 56.2138 61.0633 56.4208L61.1047 57.4144C61.1047 57.4144 61.1461 57.8284 60.4423 57.8697C60.4423 57.8697 60.8563 57.9111 58.1653 57.8283C58.1653 57.8283 57.7513 57.7869 57.2545 58.0353C57.2545 58.0353 57.1718 57.9939 57.1718 57.7455C57.1718 57.7455 57.2545 56.8348 57.1718 55.924L57.1304 54.9304L56.9649 54.9304ZM61.3117 57.6214C61.3117 57.6214 61.5601 58.0768 61.6429 58.1182C61.6429 58.1182 61.8499 58.3666 61.8085 57.9112L61.8499 52.2396C61.8499 52.2396 61.8085 52.0326 61.8499 51.7428L61.6015 51.3288C61.6015 51.3288 61.3531 51.1218 61.3531 51.453V57.4558L61.3117 57.6214ZM53.0733 57.8698C53.0733 57.8698 53.3631 58.1596 53.8185 58.1596L56.4681 58.201C56.4681 58.201 56.7579 58.2424 56.7579 58.3666C56.7579 58.3666 56.7165 58.615 56.3439 58.5322L53.1147 58.4908L52.7421 58.5322C52.7421 58.5322 52.4937 58.4908 52.8663 58.0354L53.0733 57.8698ZM52.4937 51.3702C52.4937 51.3702 52.2453 51.7842 52.2867 51.9084V58.4494C52.2867 58.4494 52.2453 58.9048 52.6179 58.7806C52.6179 58.7806 56.0541 58.6978 56.3025 58.7806C56.3025 58.7806 56.6337 58.822 56.5095 58.9876C56.5095 58.9876 56.5095 59.1118 56.3025 59.0704C56.3025 59.0704 54.6879 59.236 53.1975 59.1532C53.1975 59.1532 52.2039 59.1946 52.1625 59.1118C52.1625 59.1118 51.9969 59.0704 51.9969 58.5322C51.9969 58.5322 51.9969 57.994 51.9555 57.9112C51.9555 57.9112 51.9969 57.6214 51.5001 57.58C51.5001 57.58 50.7964 57.7042 50.7964 57.2902C50.7964 57.2902 50.8792 57.0004 51.5829 57.0418C51.5829 57.0418 52.0797 57.1246 51.9555 56.7106L51.9969 53.8126C51.9969 53.8126 52.0797 53.3158 51.7071 53.2744H51.2931C51.2931 53.2744 50.7136 53.2744 50.755 52.9432C50.755 52.9432 50.962 52.612 51.5415 52.6534C51.5415 52.6534 51.9555 52.7362 51.9969 52.2394C51.9969 52.2394 51.9969 51.2458 52.2039 51.2044C52.1625 51.2044 52.6593 51.246 52.4937 51.3702ZM52.8249 51.3286C52.8249 51.3286 52.9491 51.3286 52.9491 51.577L52.9077 57.497C52.9077 57.497 52.9491 57.8696 52.6179 58.1594C52.6179 58.1594 52.4523 58.3664 52.4523 58.0352L52.5351 51.991C52.5351 51.991 52.5351 51.5356 52.8249 51.3286ZM57.4615 58.2836C57.4615 58.2836 57.7927 58.0353 57.9583 58.0767C57.9583 58.0767 59.7385 58.2008 60.2767 58.1181C60.8149 58.0353 60.4837 58.0767 60.4837 58.0767C60.4837 58.0767 60.9391 58.0767 61.1047 57.9111C61.1047 57.9111 61.2289 57.8697 61.3117 57.9939L61.6015 58.3251C61.6015 58.3251 61.6015 58.5321 61.2703 58.4907C61.2703 58.4907 58.0825 58.4906 57.9583 58.532C57.9997 58.532 57.4201 58.6148 57.4615 58.2836ZM57.6685 58.8218C57.6685 58.8218 57.9169 58.6976 58.0825 58.739C58.2481 58.7804 60.5251 58.6976 60.5251 58.6976C60.5251 58.6976 61.5187 58.7804 61.6843 58.6148L61.9327 58.532C61.9327 58.532 62.0155 58.4078 62.0155 58.2422V57.5385L62.0569 57.3315V51.9083C62.0569 51.9083 62.1397 51.4943 61.8913 51.2459C61.8913 51.2459 61.8913 51.0803 61.9741 51.1217C62.0569 51.1631 62.0155 51.1217 62.0155 51.1217C62.0155 51.1217 62.3467 51.0389 62.4295 51.1631C62.4295 51.1631 62.5951 51.6185 62.4295 51.9083C62.4295 51.9083 62.3881 52.4878 62.6779 52.4878C62.6779 52.4878 62.8021 52.612 63.0091 52.5292C63.0091 52.5292 63.5059 52.5706 63.5059 52.7362C63.5059 52.7362 63.5059 53.1088 63.1747 53.026L62.7193 53.0674C62.7193 53.0674 62.3881 53.1502 62.4295 53.4814C62.4709 53.854 62.4295 56.545 62.4295 56.545C62.4295 56.545 62.4295 56.8762 62.9262 56.8348C62.9262 56.8348 63.5472 56.7934 63.5472 57.0004C63.5472 57.0004 63.7128 57.373 63.2574 57.4144C63.2574 57.4144 62.4294 57.373 62.5122 57.6214C62.5122 57.6214 62.4708 58.1596 62.4294 58.2838C62.4294 58.2838 62.5122 58.7392 62.4294 58.822C62.4294 58.822 62.388 59.0704 61.8499 59.029C61.8499 59.029 58.4965 59.029 57.9583 59.0704C57.9169 59.1532 57.5857 59.1116 57.6685 58.8218ZM57.0889 58.4494C57.0889 58.4494 57.4201 58.4908 57.4201 58.822C57.4201 59.1532 57.4201 59.3188 57.2545 59.3602C57.0475 59.4016 56.8405 59.3188 56.7991 59.0704C56.7163 58.822 56.7991 58.5322 57.0889 58.4494Z" fill="white"/>
<path d="M50.9198 41.6818L50.7542 42.0544C50.7542 42.0544 50.3402 43.9587 50.0918 44.3314C50.0918 44.3314 50.0504 44.7454 49.7192 44.4142C49.7192 44.4142 48.9326 42.013 48.8912 41.9302L48.6428 41.7646C48.6428 41.7646 48.4772 41.5576 48.767 41.5162H49.5122C49.5122 41.5162 49.7606 41.7232 49.4294 41.9302C49.4294 41.9302 49.4708 42.2614 49.8848 43.4619C49.8848 43.4619 50.009 43.9173 50.1332 43.5861L50.5472 42.1786L50.423 41.7646C50.423 41.7646 50.2988 41.5576 50.4644 41.5576C50.4644 41.5576 50.8784 41.5162 50.9198 41.6818ZM52.0375 42.013V44.083L51.9961 44.2486C51.9961 44.2486 51.7891 44.497 51.9547 44.5384C51.9547 44.5384 51.7891 44.6626 53.1967 44.6626C53.1967 44.6626 53.7349 44.7454 53.6107 44.0416C53.6107 44.0416 53.5693 43.7932 53.3623 44.1658C53.3623 44.1658 53.3209 44.497 52.5757 44.3728C52.5757 44.3728 52.4101 44.2486 52.4101 44.083V43.2136C52.4101 43.2136 52.4101 43.0066 52.7413 43.0066C52.7413 43.0066 53.1139 43.255 53.1553 43.1308C53.1553 43.1308 53.2795 42.7996 53.1553 42.634C53.1553 42.634 52.9897 42.634 52.9483 42.6754C52.9483 42.6754 52.8241 42.9238 52.4929 42.7582C52.4929 42.7582 52.3273 42.427 52.4515 42.1786C52.4515 42.1786 52.4101 41.6818 52.7413 41.7232C52.7413 41.7232 53.1553 41.806 53.1553 41.9302C53.1553 41.9302 53.2381 42.1786 53.3623 41.8888L53.2795 41.599C53.2795 41.599 53.2381 41.4748 53.1139 41.5162C53.1139 41.5162 52.4516 41.599 52.3688 41.5162L51.8306 41.5576C51.8306 41.5576 51.7478 41.7646 51.9962 41.8474C51.9962 41.8888 52.0375 41.9302 52.0375 42.013ZM63.9192 41.6818C63.8778 41.5162 64.2504 41.5162 64.2504 41.5162L64.4574 41.5576C64.5816 41.5576 64.7472 41.599 64.7472 41.599C64.8714 41.806 64.6644 41.9302 64.6644 41.9302L64.5816 42.1786V44.2486C64.623 44.3314 64.7886 44.5384 64.7886 44.5384C64.7886 44.704 64.5816 44.6626 64.5816 44.6626H64.002C63.8364 44.6626 63.8778 44.4556 63.8778 44.4556C64.0848 44.3728 64.1262 44.0002 64.1262 44.0002V42.0545L63.9192 41.6818ZM61.2696 43.5034L61.2282 44.1244L61.3938 44.4142C61.518 44.5798 61.311 44.704 61.311 44.704L60.69 44.6212C60.5658 44.5798 60.69 44.3728 60.69 44.3728C60.8556 44.29 60.8556 44.0416 60.8556 44.0416V42.0544C60.8556 41.9716 60.69 41.7646 60.69 41.7646C60.5658 41.7646 60.6072 41.5576 60.6072 41.5576C60.6486 41.4748 60.9798 41.5162 60.9798 41.5162H61.8078C62.5944 41.7646 62.4702 42.3442 62.4702 42.3442C62.5116 42.9238 61.932 43.1308 61.932 43.1308L61.8906 43.462L62.4702 44.3727C62.553 44.4555 62.553 44.5383 62.553 44.5383C62.4702 44.7453 62.139 44.5383 62.139 44.5383L61.4352 43.4206C61.3524 43.3378 61.2696 43.5034 61.2696 43.5034ZM61.2696 41.9302V42.9652C61.6422 43.255 61.8492 42.841 61.8492 42.841C62.3459 42.3856 61.8492 41.9302 61.7664 41.806C61.6836 41.6818 61.311 41.806 61.311 41.806L61.2696 41.9302ZM55.2254 53.522C55.2254 53.522 55.2668 54.971 55.2254 55.178V55.5092C55.2254 55.5092 55.3082 55.7162 55.4324 55.799C55.4324 55.799 55.5152 56.0888 55.3082 56.0474C55.3082 56.0474 54.8114 56.006 54.6872 56.0474C54.6872 56.0474 54.3974 56.0474 54.6872 55.7162C54.6872 55.7162 54.77 55.592 54.77 55.2194C54.77 55.2194 54.77 53.5634 54.8114 53.4806C54.8114 53.4806 54.8528 53.2736 54.7286 53.1908H54.4802L54.1904 53.4806C54.1904 53.4806 54.1076 53.7704 53.9834 53.4806V53.315L54.149 52.8596H54.2732C54.2732 52.8596 54.4388 52.9838 54.6044 53.0252H55.5152L55.8464 52.8596C55.8464 52.8596 55.9706 52.8596 55.9292 53.0666C55.9292 53.0666 55.9706 53.522 55.7222 53.5634C55.7222 53.5634 55.5566 53.522 55.4738 53.2736C55.4738 53.2322 55.2254 53.0666 55.2254 53.522ZM59.5308 52.9838C59.5308 52.9838 58.7856 52.901 58.7856 53.729C58.7856 53.729 58.7028 54.2672 59.5308 54.6398C59.5308 54.6398 60.1518 54.9296 60.1104 55.3022C60.1104 55.3022 60.0276 55.9645 59.3652 55.6334C59.3652 55.6334 59.034 55.4678 59.0754 55.3022C59.0754 55.3022 58.9926 55.0952 58.8684 55.1366C58.8684 55.1366 58.7442 55.178 58.7856 55.8403C58.7856 55.8403 58.7856 56.0887 59.0754 55.8403L59.241 55.8817C59.241 55.8817 59.7791 56.2957 60.2345 55.799C60.2345 55.799 60.7313 55.3436 60.3587 54.8054C60.3587 54.8054 60.1103 54.3914 59.655 54.2258C59.655 54.2258 59.241 54.0188 59.1168 53.6876C59.1168 53.6876 59.241 53.108 59.7792 53.3978C59.7792 53.3978 59.9862 53.6462 60.1104 53.6876C60.1104 53.6876 60.276 53.6876 60.2346 53.315L60.1932 53.0252C60.1932 53.0252 60.1518 52.8182 59.862 53.0252C59.862 52.9838 59.6136 53.108 59.5308 52.9838ZM57.171 52.5698C57.2952 52.6526 57.3366 52.8596 57.3366 52.8596C57.7506 53.8946 58.0817 55.4264 58.0817 55.4264C58.1645 55.6334 58.3715 55.7576 58.3715 55.7576C58.7027 55.8818 58.3715 55.9646 58.3715 55.9646C58.2473 56.006 57.792 55.9646 57.792 55.9646C57.5436 55.9232 57.6678 55.8404 57.6678 55.8404C57.7506 55.7576 57.6678 55.3436 57.6678 55.3436C57.6678 55.178 57.4608 54.9296 57.4608 54.9296C57.378 54.8882 57.2538 55.0538 57.2538 55.0538C57.2538 55.0538 57.0468 55.1366 57.0054 55.0538C56.964 54.971 56.8398 54.8882 56.8398 54.8882C56.5914 54.8882 56.5086 55.4678 56.5086 55.4678C56.6328 55.9646 56.5086 55.8818 56.5086 55.8818C56.3844 56.0474 56.0118 55.9232 56.0118 55.9232C55.8462 55.8818 55.9704 55.7576 55.9704 55.7576C56.1774 55.7162 56.2602 55.4678 56.2602 55.4678C56.343 55.3436 57.0054 52.7768 57.0054 52.7768C56.964 52.7354 57.0054 52.487 57.171 52.5698ZM56.8398 53.8946C56.8398 53.9774 56.6742 54.557 56.6742 54.557L56.7984 54.764H57.2124C57.2952 54.764 57.3366 54.6812 57.3366 54.557C57.3366 54.4742 57.1296 53.8532 57.1296 53.8532L57.0468 53.729L56.8398 53.8946Z" fill="#111111"/>
</svg>
