<svg width="48" height="48" viewBox="0 0 48 48" fill="none" xmlns="http://www.w3.org/2000/svg">
<path fill-rule="evenodd" clip-rule="evenodd" d="M20.5016 11.5422C21.9909 9.98373 24.0656 9.01595 26.3591 9.01595C29.4078 9.01595 32.0686 10.7241 33.4851 13.26C34.7525 12.6913 36.1252 12.3982 37.5133 12.3999C43.0126 12.3999 47.4702 16.9175 47.4702 22.4912C47.4702 28.0649 43.0126 32.5825 37.5133 32.5825C36.8409 32.5825 36.1852 32.515 35.5512 32.3866C34.3039 34.621 31.9256 36.1313 29.1972 36.1313C28.055 36.1313 26.9744 35.8674 26.0131 35.395C24.7481 38.384 21.8015 40.4789 18.3678 40.4789C14.7922 40.4789 11.744 38.2054 10.5745 35.0179C10.0534 35.1283 9.52234 35.184 8.9898 35.1838C4.7317 35.1843 1.27987 31.6807 1.27987 27.3584C1.27667 25.9887 1.63093 24.642 2.30732 23.4527C2.98371 22.2633 3.95861 21.2728 5.13483 20.58C4.64686 19.4504 4.39579 18.232 4.39728 17.0007C4.39728 12.0294 8.4139 7.99997 13.3686 7.99997C14.7489 7.99835 16.1109 8.31722 17.3482 8.93168C18.5855 9.54614 19.6648 10.4396 20.5016 11.5422Z" fill="#00A1E0"/>
<path fill-rule="evenodd" clip-rule="evenodd" d="M7.82434 25.0198L8.01257 24.4489C8.04259 24.351 8.11026 24.3833 8.13773 24.4016C8.19013 24.4355 8.22778 24.4661 8.29544 24.5095C8.84999 24.8925 9.36383 24.8964 9.52409 24.8964C9.93923 24.8964 10.1967 24.6562 10.1967 24.3321V24.3154C10.1967 23.963 9.79983 23.8296 9.34144 23.6761L9.23969 23.6405C8.61036 23.4448 7.93728 23.1619 7.93728 22.2912V22.2734C7.93728 21.4473 8.54728 20.8708 9.4203 20.8708L9.51595 20.8697C10.0288 20.8697 10.5243 21.0326 10.8835 21.2705C10.916 21.2928 10.9476 21.3339 10.9293 21.3884L10.7359 21.9593C10.7019 22.0566 10.6088 21.9921 10.6088 21.9921C10.234 21.7788 9.81936 21.6625 9.3969 21.6525C9.02652 21.6525 8.78843 21.867 8.78843 22.1584V22.1767C8.78843 22.5164 9.19645 22.6615 9.66959 22.83L9.75099 22.8578C10.3783 23.0746 11.0478 23.3748 11.0478 24.2004V24.2176C11.0478 25.1099 10.4546 25.6642 9.50069 25.6642C9.03212 25.6642 8.58391 25.5852 8.10975 25.31C8.02021 25.2533 7.93168 25.2044 7.84418 25.1349C7.83502 25.1205 7.79483 25.1032 7.82383 25.0198H7.82434ZM21.7932 25.0198L21.982 24.4489C22.0095 24.3555 22.0893 24.3899 22.1066 24.4016C22.1585 24.4366 22.1972 24.4661 22.2644 24.5095C22.8199 24.8925 23.3327 24.8964 23.4945 24.8964C23.9081 24.8964 24.1661 24.6562 24.1661 24.3321V24.3154C24.1661 23.963 23.7698 23.8296 23.3114 23.6761L23.2096 23.6405C22.5793 23.4448 21.9062 23.1619 21.9062 22.2912V22.2734C21.9062 21.4473 22.5167 20.8708 23.3897 20.8708L23.4849 20.8697C23.9977 20.8697 24.4937 21.0326 24.8534 21.2705C24.885 21.2928 24.917 21.3339 24.8992 21.3884C24.8814 21.439 24.7227 21.906 24.7059 21.9593C24.6708 22.0566 24.5787 21.9921 24.5787 21.9921C24.2038 21.7787 23.7889 21.6624 23.3663 21.6525C22.9959 21.6525 22.7578 21.867 22.7578 22.1584V22.1767C22.7578 22.5164 23.1654 22.6615 23.639 22.83L23.7204 22.8578C24.3477 23.0746 25.0167 23.3748 25.0167 24.2004V24.2176C25.0167 25.1099 24.424 25.6642 23.4701 25.6642C23.001 25.6642 22.5528 25.5852 22.0792 25.31C21.9896 25.2533 21.9011 25.2044 21.8131 25.1349C21.8039 25.1205 21.7637 25.1032 21.7932 25.0198ZM32.1261 22.3352C32.2044 22.622 32.2431 22.9373 32.2431 23.2703C32.2431 23.6038 32.2044 23.9179 32.1261 24.2048C32.0544 24.4814 31.9315 24.739 31.7649 24.9615C31.5979 25.1775 31.3885 25.3497 31.1523 25.4652C30.9081 25.5875 30.6212 25.6486 30.2986 25.6486C29.9761 25.6486 29.6881 25.5875 29.4449 25.4652C29.2087 25.3497 28.9993 25.1775 28.8324 24.9615C28.6659 24.739 28.5428 24.4817 28.4707 24.2054C28.3907 23.9014 28.3513 23.5865 28.3537 23.2703C28.3537 22.9367 28.3928 22.622 28.4707 22.3352C28.549 22.0461 28.6706 21.7914 28.8319 21.5791C28.9992 21.3621 29.2086 21.1885 29.4449 21.0709C29.6886 20.9464 29.9751 20.8836 30.2986 20.8836C30.6222 20.8836 30.9086 20.9464 31.1523 21.0709C31.3955 21.1949 31.6021 21.3656 31.7649 21.5791C31.9266 21.7914 32.0487 22.0461 32.1261 22.3352ZM31.3304 23.2703C31.3304 22.766 31.2449 22.3696 31.075 22.0917C30.9071 21.8159 30.6527 21.6825 30.2986 21.6825C29.9445 21.6825 29.6922 21.8159 29.5263 22.0917C29.36 22.3696 29.275 22.766 29.275 23.2703C29.275 23.774 29.36 24.1731 29.5274 24.4533C29.6922 24.7324 29.9445 24.8675 30.2986 24.8675C30.6527 24.8675 30.9071 24.7319 31.075 24.4533C31.2439 24.1731 31.3304 23.774 31.3304 23.2703ZM38.6677 24.7324L38.863 25.3228C38.8885 25.3951 38.831 25.4268 38.831 25.4268C38.5293 25.5547 38.1106 25.6458 37.7031 25.6458C37.0122 25.6458 36.4831 25.4285 36.13 24.9993C35.7789 24.5712 35.5999 23.9891 35.5999 23.2669C35.5999 22.9328 35.6441 22.6165 35.7306 22.3302C35.8171 22.0411 35.9468 21.7864 36.1178 21.5741C36.2953 21.3557 36.5142 21.1823 36.7593 21.0659C37.0137 20.942 37.3128 20.8797 37.6466 20.8797C37.872 20.8797 38.0724 20.8947 38.2444 20.9225C38.428 20.9536 38.6727 21.0259 38.776 21.0698C38.7948 21.0776 38.8473 21.1054 38.8259 21.1727C38.7506 21.4045 38.6992 21.5557 38.6295 21.767C38.599 21.857 38.5369 21.827 38.5369 21.827C38.2749 21.737 38.0236 21.6958 37.6954 21.6958C37.3011 21.6958 37.005 21.8393 36.8117 22.12C36.6164 22.403 36.507 22.7738 36.5054 23.2669C36.5039 23.8079 36.6281 24.2087 36.8478 24.4567C37.0671 24.7041 37.3734 24.8291 37.759 24.8291C37.9152 24.8291 38.0627 24.818 38.1955 24.7952C38.3268 24.7724 38.4499 24.728 38.5659 24.6785C38.5659 24.6785 38.6407 24.6479 38.6677 24.7324ZM42.7428 22.1712C42.9163 22.835 42.8257 23.4081 42.8227 23.4398C42.8161 23.5154 42.7448 23.5166 42.7448 23.5166L40.0489 23.5143C40.0657 23.9619 40.1639 24.2788 40.3623 24.4939C40.5572 24.7046 40.8665 24.8397 41.2852 24.8403C41.9252 24.8419 42.1984 24.7013 42.3923 24.6229C42.3923 24.6229 42.466 24.594 42.494 24.674L42.6695 25.2139C42.7051 25.3045 42.6767 25.3362 42.6466 25.3545C42.4777 25.4563 42.0682 25.6464 41.2888 25.6486C40.9108 25.6503 40.5816 25.5914 40.3104 25.4763C40.0528 25.372 39.8207 25.204 39.6323 24.9854C39.4522 24.7709 39.3185 24.515 39.241 24.2365C39.1576 23.9314 39.1166 23.6143 39.1194 23.2958C39.1194 22.9623 39.1586 22.6454 39.2375 22.3557C39.3163 22.0639 39.4389 21.8065 39.6022 21.5902C39.7715 21.3695 39.9837 21.1928 40.2234 21.0732C40.4707 20.9458 40.777 20.8836 41.1138 20.8836C41.4022 20.8836 41.6658 20.9514 41.885 21.0548C42.0539 21.1338 42.2239 21.2766 42.3979 21.4812C42.5077 21.6102 42.6751 21.8926 42.7428 22.1712ZM40.0617 22.7866H41.9847C41.9649 22.5164 41.9166 22.274 41.8057 22.0917C41.6368 21.8159 41.4037 21.6641 41.0502 21.6641C40.6961 21.6641 40.4447 21.8159 40.2784 22.0917C40.1695 22.274 40.0998 22.5064 40.0617 22.7866ZM21.1487 22.1712C21.3216 22.835 21.2326 23.4081 21.2295 23.4398C21.2224 23.5154 21.1512 23.5166 21.1512 23.5166L18.4548 23.5143C18.4721 23.9619 18.5698 24.2788 18.7687 24.4939C18.9635 24.7046 19.2724 24.8397 19.6911 24.8403C20.3311 24.8419 20.6053 24.7013 20.7986 24.6229C20.7986 24.6229 20.8724 24.594 20.8999 24.674L21.0759 25.2139C21.1115 25.3045 21.083 25.3362 21.0535 25.3545C20.8836 25.4563 20.4735 25.6464 19.6951 25.6486C19.3166 25.6503 18.9875 25.5914 18.7168 25.4763C18.459 25.3718 18.2268 25.2038 18.0381 24.9854C17.8585 24.7707 17.7252 24.5148 17.6479 24.2365C17.5639 23.9315 17.5225 23.6144 17.5253 23.2958C17.5253 22.9623 17.565 22.6454 17.6433 22.3557C17.7166 22.0763 17.8409 21.8159 18.0086 21.5902C18.1778 21.3696 18.3898 21.193 18.6293 21.0732C18.8776 20.9458 19.1838 20.8836 19.5196 20.8836C19.785 20.8829 20.0477 20.9411 20.2919 21.0548C20.4608 21.1338 20.6307 21.2766 20.8042 21.4812C20.9141 21.6102 21.0815 21.8926 21.1487 22.1712ZM18.467 22.7866H20.3911C20.3708 22.5164 20.3224 22.274 20.212 22.0917C20.0441 21.8159 19.8101 21.6641 19.4565 21.6641C19.1024 21.6641 18.8506 21.8159 18.6853 22.0917C18.5754 22.274 18.5062 22.5064 18.467 22.7866ZM13.7122 22.6459C13.7122 22.6459 13.9248 22.6665 14.1568 22.7032V22.5787C14.1568 22.1856 14.082 22.0005 13.935 21.8765C13.7844 21.7509 13.5595 21.6858 13.2685 21.6858C13.2685 21.6858 12.6122 21.6769 12.0933 21.9849C12.0694 22.0005 12.0496 22.0094 12.0496 22.0094C12.0496 22.0094 11.9844 22.0344 11.961 21.9616L11.7702 21.4012C11.7407 21.3206 11.7942 21.2839 11.7942 21.2839C12.0368 21.077 12.625 20.952 12.625 20.952C12.8637 20.9061 13.1055 20.8818 13.3479 20.8791C13.8862 20.8791 14.3028 21.0159 14.5862 21.2866C14.8701 21.5585 15.0146 21.9966 15.0146 22.587L15.0161 25.2822C15.0161 25.2822 15.0217 25.3601 14.954 25.3779C14.954 25.3779 14.8548 25.4079 14.7658 25.4307C14.6758 25.4535 14.3512 25.5258 14.0861 25.5747C13.8154 25.6242 13.5415 25.6492 13.267 25.6492C13.005 25.6492 12.7649 25.6225 12.5532 25.5697C12.356 25.5245 12.1692 25.436 12.0043 25.3095C11.854 25.1902 11.7333 25.0318 11.6532 24.8486C11.5703 24.6635 11.5286 24.4372 11.5286 24.1759C11.5286 23.9196 11.5779 23.6911 11.6731 23.4965C11.7687 23.3031 11.9 23.1391 12.0648 23.0106C12.2351 22.8796 12.4255 22.783 12.627 22.7254C12.8371 22.6643 13.0605 22.6326 13.2914 22.6326C13.4608 22.6326 13.6023 22.6365 13.7122 22.6459ZM12.6392 24.7163C12.6377 24.7157 12.8809 24.9248 13.4298 24.8881C13.8154 24.8625 14.1573 24.7824 14.1573 24.7824V23.4426C14.1573 23.4426 13.8124 23.3809 13.4252 23.3748C12.8763 23.3676 12.6423 23.5883 12.6438 23.5877C12.482 23.7134 12.4031 23.8996 12.4031 24.1576C12.4031 24.3227 12.4301 24.4517 12.4845 24.5417C12.5186 24.6012 12.5334 24.6234 12.6392 24.7163ZM35.4594 21.1276C35.434 21.2083 35.3033 21.6119 35.2559 21.7459C35.2386 21.797 35.2102 21.832 35.1578 21.8259C35.1578 21.8259 35.0031 21.787 34.8617 21.787C34.7645 21.787 34.6256 21.8003 34.5004 21.8426C34.3749 21.8847 34.2607 21.9597 34.1677 22.0611C34.069 22.165 33.9891 22.3113 33.9311 22.4947C33.8721 22.6793 33.8416 22.9728 33.8416 23.2675V25.4624C33.8417 25.4741 33.8396 25.4857 33.8356 25.4966C33.8315 25.5074 33.8255 25.5173 33.8179 25.5256C33.8104 25.5339 33.8014 25.5406 33.7915 25.5451C33.7816 25.5496 33.7709 25.5519 33.7602 25.5519H33.0525C33.0417 25.552 33.031 25.5498 33.0209 25.5455C33.0109 25.5411 33.0017 25.5345 32.9939 25.5263C32.9862 25.518 32.98 25.5082 32.9757 25.4973C32.9715 25.4864 32.9692 25.4748 32.9691 25.4629V21.0682C32.9691 21.0187 33.0022 20.9792 33.0474 20.9792H33.7378C33.7836 20.9792 33.8162 21.0187 33.8162 21.0682V21.4273C33.9194 21.2761 34.1046 21.1426 34.272 21.0604C34.4399 20.977 34.6276 20.9158 34.967 20.9381C35.1435 20.9497 35.373 21.0026 35.4193 21.022C35.4283 21.026 35.4365 21.0319 35.4435 21.0393C35.4504 21.0468 35.4559 21.0558 35.4597 21.0656C35.4634 21.0754 35.4653 21.086 35.4653 21.0966C35.4652 21.1073 35.4633 21.1178 35.4594 21.1276ZM28.81 19.0912C28.8288 19.0995 28.8802 19.1268 28.8599 19.1935L28.6528 19.8123C28.6355 19.859 28.6243 19.8868 28.5363 19.8579C28.4199 19.8178 28.2986 19.7972 28.1766 19.7967C28.0698 19.7967 27.9731 19.8117 27.8876 19.8428C27.8021 19.8728 27.7246 19.9251 27.6617 19.9952C27.5781 20.0835 27.5135 20.1909 27.4725 20.3098C27.3733 20.6212 27.3351 20.9531 27.33 20.9742H28.1919C28.2646 20.9742 28.2875 21.0109 28.2804 21.0693L28.1797 21.6819C28.1634 21.7709 28.0896 21.7675 28.0896 21.7675H27.2013L26.5944 25.5235C26.5422 25.8604 26.4629 26.1915 26.3573 26.5131C26.2622 26.785 26.164 26.9834 26.0063 27.173C25.8716 27.3427 25.7005 27.473 25.5082 27.5522C25.3215 27.6272 25.0946 27.6656 24.8468 27.6656C24.7288 27.6656 24.6016 27.6628 24.4515 27.6239C24.3679 27.603 24.2855 27.5767 24.2047 27.545C24.1717 27.5322 24.1447 27.486 24.164 27.4271C24.1824 27.3687 24.3421 26.8912 24.3635 26.8283C24.391 26.7527 24.4612 26.7816 24.4612 26.7816C24.509 26.8039 24.5426 26.8183 24.6062 26.8322C24.6708 26.8461 24.7573 26.8584 24.8229 26.8584C24.9404 26.8584 25.0472 26.8428 25.1403 26.8083C25.2523 26.7689 25.3184 26.6971 25.3866 26.6015C25.4578 26.5009 25.5158 26.3647 25.5753 26.1818C25.6349 25.9966 25.6893 25.752 25.7361 25.4557L26.3405 21.7681H25.7453C25.674 21.7681 25.6496 21.7314 25.6578 21.6725L25.7575 21.0598C25.7732 20.9709 25.849 20.9742 25.849 20.9742H26.4601L26.4931 20.7752C26.5847 20.1836 26.7663 19.7339 27.035 19.4387C27.3051 19.1412 27.6892 18.9911 28.1766 18.9911C28.316 18.9911 28.4391 19.0011 28.5434 19.0217C28.6457 19.0428 28.7235 19.0623 28.81 19.0912ZM16.7647 25.4624C16.7647 25.5124 16.7332 25.5519 16.6874 25.5519H15.9726C15.9268 25.5519 15.8957 25.5119 15.8957 25.4629V19.1735C15.8957 19.1251 15.9273 19.0851 15.9721 19.0851H16.6874C16.7332 19.0851 16.7647 19.1251 16.7647 19.174V25.4624Z" fill="white"/>
</svg>
