<svg width="49" height="49" viewBox="0 0 49 49" fill="none" xmlns="http://www.w3.org/2000/svg">
<g clip-path="url(#clip0_1_722)">
<path d="M46.0005 25.2991C46.0027 24.9741 45.8348 24.6716 45.5578 24.5016H45.5529L45.5355 24.4919L31.1328 15.9663C31.0706 15.9243 31.0061 15.8859 30.9395 15.8513C30.3834 15.5644 29.7228 15.5644 29.1667 15.8513C29.1001 15.8859 29.0355 15.9243 28.9733 15.9663L14.5707 24.4919L14.5533 24.5016C14.1131 24.7753 13.9781 25.3541 14.2519 25.7943C14.3325 25.924 14.4436 26.0321 14.5755 26.1091L28.9782 34.6347C29.0406 34.6764 29.1052 34.7148 29.1715 34.7498C29.7276 35.0367 30.3882 35.0367 30.9443 34.7498C31.0107 34.7148 31.0752 34.6764 31.1377 34.6347L45.5404 26.1091C45.8281 25.9414 46.0038 25.6321 46.0005 25.2991Z" fill="#0A2767"/>
<path d="M16.2495 19.6067H25.7011V28.2705H16.2495V19.6067ZM44.067 10.7998V6.83658C44.0897 5.8457 43.3054 5.02374 42.3146 5H17.7874C16.7965 5.02374 16.0122 5.8457 16.0349 6.83658V10.7998L30.5343 14.6662L44.067 10.7998Z" fill="#0364B8"/>
<path d="M16.0349 10.7998H25.7012V19.4994H16.0349V10.7998Z" fill="#0078D4"/>
<path d="M35.3672 10.7998H25.701V19.4994L35.3672 28.199H44.0669V19.4994L35.3672 10.7998Z" fill="#28A8EA"/>
<path d="M25.701 19.4994H35.3672V28.199H25.701V19.4994Z" fill="#0078D4"/>
<path d="M25.701 28.1989H35.3672V36.8985H25.701V28.1989Z" fill="#0364B8"/>
<path d="M16.2491 28.2706H25.7008V36.1467H16.2491V28.2706Z" fill="#14447D"/>
<path d="M35.3675 28.1989H44.0671V36.8985H35.3675V28.1989Z" fill="#0078D4"/>
<path d="M45.5579 26.056L45.5395 26.0657L31.1368 34.166C31.074 34.2047 31.0102 34.2414 30.9435 34.2743C30.6988 34.3908 30.4331 34.4565 30.1624 34.4676L29.3756 34.0075C29.3091 33.9741 29.2446 33.937 29.1823 33.8963L14.5862 25.5659H14.5795L14.102 25.2991V41.697C14.1094 42.791 15.0021 43.672 16.0961 43.665H44.0374C44.0538 43.665 44.0683 43.6573 44.0857 43.6573C44.3168 43.6425 44.5446 43.595 44.7623 43.5162C44.8564 43.4763 44.9472 43.4291 45.0339 43.3751C45.0987 43.3383 45.2099 43.2581 45.2099 43.2581C45.705 42.8917 45.9981 42.313 46.0006 41.697V25.2991C46.0002 25.6128 45.8311 25.902 45.5579 26.056Z" fill="url(#paint0_linear_1_722)"/>
<path opacity="0.5" d="M45.2274 25.2344V26.2397L30.1674 36.6087L14.5757 25.5727C14.5757 25.5674 14.5714 25.563 14.5661 25.563L13.1355 24.7027V23.9778L13.7251 23.9681L14.972 24.6834L15.001 24.6931L15.1074 24.7607C15.1074 24.7607 29.7614 33.1221 29.8001 33.1414L30.3607 33.47C30.409 33.4507 30.4574 33.4314 30.5154 33.412C30.5444 33.3927 45.0631 25.2247 45.0631 25.2247L45.2274 25.2344Z" fill="#0A2767"/>
<path d="M45.5579 26.056L45.5395 26.0666L31.1368 34.167C31.0739 34.2056 31.0101 34.2423 30.9434 34.2752C30.3841 34.5485 29.73 34.5485 29.1706 34.2752C29.1044 34.2424 29.0399 34.2063 28.9773 34.167L14.5746 26.0666L14.5572 26.056C14.2792 25.9053 14.1048 25.6154 14.102 25.2991V41.697C14.1089 42.7908 15.0012 43.6719 16.0951 43.665C16.0951 43.665 16.0951 43.665 16.0951 43.665H44.0074C45.1012 43.672 45.9936 42.7909 46.0006 41.6971C46.0006 41.6971 46.0006 41.697 46.0006 41.697V25.2991C46.0002 25.6128 45.8311 25.902 45.5579 26.056Z" fill="#1490DF"/>
<path opacity="0.1" d="M31.3463 34.0471L31.1307 34.1679C31.0683 34.2077 31.0037 34.2441 30.9374 34.2771C30.6999 34.3937 30.4417 34.462 30.1776 34.4782L35.6574 40.9584L45.2164 43.2619C45.4783 43.064 45.6867 42.8039 45.8225 42.505L31.3463 34.0471Z" fill="black"/>
<path opacity="0.05" d="M32.3226 33.498L31.1307 34.1679C31.0683 34.2077 31.0037 34.2441 30.9374 34.2771C30.6999 34.3937 30.4417 34.462 30.1776 34.4782L32.745 41.5568L45.2193 43.259C45.7107 42.89 46 42.3114 46.0003 41.6969V41.4852L32.3226 33.498Z" fill="black"/>
<path d="M16.1222 43.665H44.0045C44.4335 43.6672 44.852 43.5317 45.1983 43.2784L29.3746 34.0094C29.3081 33.9761 29.2436 33.9389 29.1813 33.8983L14.5853 25.5679H14.5785L14.102 25.2991V41.6409C14.1009 42.7577 15.0054 43.664 16.1222 43.665V43.665Z" fill="#28A8EA"/>
<path opacity="0.1" d="M27.6347 14.5048V35.1229C27.633 35.8458 27.1934 36.4956 26.5231 36.7662C26.3154 36.8554 26.0918 36.9015 25.8658 36.9016H14.102V13.6996H16.0352V12.733H25.8658C26.8423 12.7367 27.6326 13.5283 27.6347 14.5048Z" fill="black"/>
<path opacity="0.2" d="M26.6681 15.4714V36.0895C26.6705 36.323 26.621 36.5542 26.5231 36.7661C26.2546 37.4278 25.6132 37.8619 24.8992 37.8652H14.102V13.6996H24.8992C25.1796 13.6968 25.4561 13.7667 25.7015 13.9026C26.294 14.2011 26.6679 14.8079 26.6681 15.4714Z" fill="black"/>
<path opacity="0.2" d="M26.6681 15.4714V34.1563C26.6634 35.1324 25.8752 35.9235 24.8992 35.9319H14.102V13.6996H24.8992C25.1796 13.6968 25.4561 13.7667 25.7015 13.9026C26.294 14.2011 26.6679 14.8079 26.6681 15.4714Z" fill="black"/>
<path opacity="0.2" d="M25.7015 15.4714V34.1563C25.7004 35.1339 24.9101 35.9272 23.9325 35.932H14.102V13.6996H23.9325C24.91 13.7002 25.702 14.493 25.7014 15.4705C25.7015 15.4708 25.7015 15.4711 25.7015 15.4714Z" fill="black"/>
<path d="M6.20724 13.6996H23.9294C24.9079 13.6996 25.7012 14.4929 25.7012 15.4714V33.1936C25.7012 34.1721 24.9079 34.9654 23.9294 34.9654H6.20724C5.22869 34.9654 4.43542 34.1721 4.43542 33.1936V15.4714C4.43542 14.4929 5.22871 13.6996 6.20724 13.6996Z" fill="url(#paint1_linear_1_722)"/>
<path d="M9.97333 21.1311C10.41 20.2007 11.1149 19.4221 11.9975 18.8953C12.9748 18.3357 14.0877 18.0568 15.2134 18.0891C16.2568 18.0665 17.2864 18.331 18.1897 18.8537C19.0389 19.3602 19.7229 20.1023 20.1587 20.9899C20.6332 21.9681 20.8697 23.0445 20.8488 24.1315C20.8718 25.2674 20.6285 26.393 20.1384 27.418C19.6923 28.3374 18.9866 29.1059 18.1085 29.6287C17.1704 30.1674 16.1026 30.4389 15.0211 30.4136C13.9554 30.4393 12.9031 30.1718 11.9791 29.6403C11.1225 29.1331 10.4299 28.3902 9.98398 27.5002C9.50665 26.5362 9.26735 25.4718 9.28608 24.3963C9.26619 23.27 9.50113 22.1538 9.97333 21.1311ZM12.1308 26.3799C12.3637 26.968 12.7585 27.4782 13.2695 27.8511C13.79 28.2148 14.4133 28.4025 15.0481 28.3866C15.7242 28.4133 16.3906 28.2192 16.9466 27.8337C17.4511 27.4619 17.8356 26.9504 18.0524 26.3624C18.2947 25.7058 18.4143 25.0102 18.4052 24.3103C18.4127 23.6037 18.3003 22.901 18.0727 22.2321C17.8717 21.6281 17.4996 21.0955 17.0017 20.699C16.4596 20.2952 15.795 20.0904 15.1196 20.119C14.4711 20.1022 13.8338 20.2914 13.2995 20.6594C12.7798 21.0338 12.3775 21.5485 12.1395 22.1431C11.6117 23.5062 11.6089 25.0168 12.1318 26.3818L12.1308 26.3799Z" fill="white"/>
<path d="M35.3675 10.7998H44.0671V19.4994H35.3675V10.7998Z" fill="#50D9FF"/>
</g>
<defs>
<linearGradient id="paint0_linear_1_722" x1="30.0513" y1="25.2992" x2="30.0513" y2="43.6651" gradientUnits="userSpaceOnUse">
<stop stop-color="#35B8F1"/>
<stop offset="1" stop-color="#28A8EA"/>
</linearGradient>
<linearGradient id="paint1_linear_1_722" x1="8.12972" y1="12.3152" x2="22.0069" y2="36.3499" gradientUnits="userSpaceOnUse">
<stop stop-color="#1784D9"/>
<stop offset="0.5" stop-color="#107AD5"/>
<stop offset="1" stop-color="#0A63C9"/>
</linearGradient>
<clipPath id="clip0_1_722">
<rect width="41.5649" height="38.665" fill="white" transform="translate(4.43524 5)"/>
</clipPath>
</defs>
</svg>
