<svg width="40" height="40" viewBox="0 0 40 40" fill="none" xmlns="http://www.w3.org/2000/svg">
<path d="M19.1937 14.1507V31.2864H5.00017L19.1937 14.1507ZM19.1937 8.00003C19.1939 9.88254 18.4465 11.6881 17.1158 13.0196C15.7851 14.3511 13.98 15.0996 12.0974 15.1005C10.2149 15.0996 8.40983 14.3511 7.07909 13.0196C5.74835 11.6881 5.00094 9.88254 5.00122 8.00003H19.1937ZM21.5316 31.2843C21.5324 29.4026 22.2803 27.5981 23.611 26.2675C24.9416 24.9369 26.746 24.189 28.6278 24.1881C30.5096 24.189 32.3141 24.9369 33.6447 26.2675C34.9753 27.5981 35.7232 29.4026 35.724 31.2843H21.5316ZM21.5316 25.1336V8.00214H35.7251L21.5316 25.1336Z" fill="white"/>
</svg>
