<svg width="32" height="32" viewBox="0 0 32 32" fill="none" xmlns="http://www.w3.org/2000/svg">
<path d="M7.92701 19.6693C7.92701 21.2937 6.61415 22.6065 4.98977 22.6065C3.36538 22.6065 2.05252 21.2937 2.05252 19.6693C2.05252 18.0449 3.36538 16.7321 4.98977 16.7321H7.92701V19.6693ZM9.39563 19.6693C9.39563 18.0449 10.7085 16.7321 12.3329 16.7321C13.9573 16.7321 15.2701 18.0449 15.2701 19.6693V27.0124C15.2701 28.6368 13.9573 29.9497 12.3329 29.9497C10.7085 29.9497 9.39563 28.6368 9.39563 27.0124V19.6693Z" fill="#E01E5A"/>
<path d="M12.3291 7.87449C10.7047 7.87449 9.39182 6.56163 9.39182 4.93724C9.39182 3.31286 10.7047 2 12.3291 2C13.9535 2 15.2663 3.31286 15.2663 4.93724V7.87449H12.3291ZM12.3291 9.36536C13.9535 9.36536 15.2663 10.6782 15.2663 12.3026C15.2663 13.927 13.9535 15.2399 12.3291 15.2399H4.9637C3.33932 15.2399 2.02646 13.927 2.02646 12.3026C2.02646 10.6782 3.33932 9.36536 4.9637 9.36536H12.3291Z" fill="#36C5F0"/>
<path d="M24.0999 12.3028C24.0999 10.6784 25.4128 9.36552 27.0372 9.36552C28.6616 9.36552 29.9744 10.6784 29.9744 12.3028C29.9744 13.9271 28.6616 15.24 27.0372 15.24H24.0999V12.3028ZM22.6313 12.3028C22.6313 13.9271 21.3185 15.24 19.6941 15.24C18.0697 15.24 16.7568 13.9271 16.7568 12.3028V4.9374C16.7568 3.31301 18.0697 2.00015 19.6941 2.00015C21.3185 2.00015 22.6313 3.31301 22.6313 4.9374V12.3028Z" fill="#2EB67D"/>
<path d="M19.6941 24.0752C21.3185 24.0752 22.6313 25.388 22.6313 27.0124C22.6313 28.6368 21.3185 29.9497 19.6941 29.9497C18.0697 29.9497 16.7568 28.6368 16.7568 27.0124V24.0752H19.6941ZM19.6941 22.6065C18.0697 22.6065 16.7568 21.2937 16.7568 19.6693C16.7568 18.0449 18.0697 16.7321 19.6941 16.7321H27.0594C28.6838 16.7321 29.9967 18.0449 29.9967 19.6693C29.9967 21.2937 28.6838 22.6065 27.0594 22.6065H19.6941Z" fill="#ECB22E"/>
</svg>
