<svg width="43" height="42" viewBox="0 0 43 42" fill="none" xmlns="http://www.w3.org/2000/svg">
<path fill-rule="evenodd" clip-rule="evenodd" d="M21.4132 0C9.58243 0 0 9.46094 0 21.1418C0 30.497 6.12954 38.3987 14.6413 41.2C15.712 41.385 16.1135 40.7508 16.1135 40.1958C16.1135 39.6937 16.0867 38.0288 16.0867 36.2581C10.7066 37.2359 9.31476 34.9632 8.8865 33.774C8.6456 33.1662 7.6017 31.2898 6.69164 30.7877C5.94218 30.3913 4.87151 29.4135 6.66487 29.3871C8.35117 29.3606 9.55566 30.9198 9.95716 31.5541C11.8844 34.7518 14.9625 33.8533 16.1938 33.2983C16.3811 31.9241 16.9432 30.9991 17.5589 30.4706C12.7944 29.942 7.81584 28.1186 7.81584 20.0318C7.81584 17.7327 8.6456 15.8299 10.0107 14.35C9.79656 13.8214 9.0471 11.6544 10.2248 8.74741C10.2248 8.74741 12.0182 8.19244 16.1135 10.9144C17.8265 10.4387 19.6467 10.2009 21.4668 10.2009C23.2869 10.2009 25.107 10.4387 26.8201 10.9144C30.9154 8.16601 32.7087 8.74741 32.7087 8.74741C33.8865 11.6544 33.137 13.8214 32.9229 14.35C34.288 15.8299 35.1177 17.7062 35.1177 20.0318C35.1177 28.145 30.1124 29.942 25.3479 30.4706C26.1242 31.1313 26.7933 32.3998 26.7933 34.3818C26.7933 37.2095 26.7666 39.4823 26.7666 40.1958C26.7666 40.7508 27.1681 41.4114 28.2387 41.2C32.4896 39.7832 36.1835 37.0858 38.8004 33.4876C41.4172 29.8894 42.8254 25.5715 42.8265 21.1418C42.8265 9.46094 33.2441 0 21.4132 0Z" fill="white"/>
</svg>
