<svg width="40" height="40" viewBox="0 0 40 40" fill="none" xmlns="http://www.w3.org/2000/svg">
<path fill-rule="evenodd" clip-rule="evenodd" d="M30.6007 21.0657C26.2107 21.0657 22.6519 24.6606 22.6519 29.0952C22.6519 33.5296 26.2107 37.1245 30.6007 37.1245C34.9908 37.1245 38.5496 33.5296 38.5496 29.0952C38.5496 24.6606 34.9908 21.0657 30.6007 21.0657ZM9.94887 21.0664C5.55887 21.0664 2 24.6606 2 29.0952C2 33.5296 5.55887 37.1245 9.94887 37.1245C14.3391 37.1245 17.8981 33.5296 17.8981 29.0952C17.8981 24.6606 14.3391 21.0664 9.94887 21.0664ZM28.2235 11.029C28.2235 15.4637 24.6648 19.0589 20.2749 19.0589C15.8846 19.0589 12.3259 15.4637 12.3259 11.029C12.3259 6.59521 15.8846 3.00005 20.2749 3.00005C24.6648 3.00005 28.2235 6.59521 28.2235 11.029Z" fill="#F95A81"/>
</svg>
