<svg width="40" height="40" viewBox="0 0 40 40" fill="none" xmlns="http://www.w3.org/2000/svg">
<path d="M3.0639 21.7962C3.45588 25.5382 5.08586 29.1754 7.9538 32.0434C10.8217 34.9112 14.4589 36.5412 18.2012 36.9333L3.0639 21.7962Z" fill="white"/>
<path d="M3.00049 19.0571L20.9437 37C22.4664 36.9147 23.9796 36.6259 25.4395 36.1333L3.86721 14.5613C3.37464 16.021 3.08574 17.5344 3.00049 19.0571Z" fill="white"/>
<path d="M4.64044 12.6599L27.3407 35.36C28.5183 34.7957 29.6446 34.0882 30.6932 33.2371L6.76327 9.30756C5.91233 10.356 5.20473 11.4822 4.64044 12.6599Z" fill="white"/>
<path d="M8.03253 7.9057C14.6825 1.33911 25.3967 1.36487 32.0148 7.98296C38.6329 14.601 38.6588 25.315 32.0921 31.965L8.03253 7.9057Z" fill="white"/>
</svg>
