<svg width="769" height="582" viewBox="0 0 769 582" fill="none" xmlns="http://www.w3.org/2000/svg">
<g clip-path="url(#clip0_7_3837)">
<g filter="url(#filter0_d_7_3837)">
<rect x="250.231" y="68.7407" width="264.923" height="82.7022" rx="23.2213" transform="rotate(-1.45797 250.231 68.7407)" fill="white"/>
<path d="M288.877 96.3497L289.395 116.696L300.204 116.421L300.291 119.835L285.299 120.216L284.694 96.4562L288.877 96.3497ZM316.877 110.371L316.849 111.879L304.734 112.187C305.076 115.092 306.568 117.13 309.379 117.058C310.985 117.018 312.438 116.21 312.991 114.254L316.84 114.156C316.068 118.027 313.037 120.013 309.557 120.101C304.303 120.235 301.034 116.802 300.898 111.448C300.765 106.227 303.746 102.3 308.833 102.171C313.551 102.051 316.748 105.284 316.877 110.371ZM308.84 105.084C306.464 105.144 305.102 106.887 304.765 109.44L312.964 109.232C312.764 106.658 311.249 105.023 308.84 105.084ZM327.391 105.014L324.379 105.09L324.614 114.327C324.642 115.431 324.996 116.159 326.569 116.119C326.937 116.109 327.371 116.065 327.67 115.99L327.751 119.136C327.351 119.246 326.817 119.294 325.947 119.316C321.998 119.416 320.813 117.605 320.733 114.459L320.497 105.189L317.92 105.255L317.85 102.477L320.427 102.411L320.291 97.0905L324.173 96.9917L324.309 102.313L327.32 102.236L327.391 105.014ZM334.1 95.1987L334.207 99.4153L331.946 103.994L329.771 104.049L331.831 99.4758L329.79 99.5277L329.682 95.3111L334.1 95.1987ZM342.121 119.272C337.604 119.387 334.731 117.049 334.444 113.675L338.226 113.578C338.474 115.447 340.207 116.408 342.081 116.36C343.955 116.312 345.205 115.443 345.168 113.971C345.129 112.465 343.847 112.062 340.956 111.634C336.316 110.914 334.871 109.377 334.806 106.834C334.735 104.056 337.146 101.417 341.329 101.31C344.709 101.224 347.903 103.018 348.257 106.425L344.576 106.518C344.309 105.219 343.143 104.144 341.269 104.192C339.428 104.238 338.516 105.233 338.546 106.404C338.575 107.575 339.595 108.152 342.384 108.55C346.955 109.204 348.833 110.629 348.908 113.574C348.991 116.82 346.405 119.163 342.121 119.272ZM366.732 100.999C367.133 100.988 367.435 101.014 367.637 101.042L367.728 104.623C367.493 104.596 367.158 104.604 366.757 104.614C363.979 104.685 362.554 106.597 362.634 109.742L362.851 118.242L358.969 118.341L358.539 101.441L362.12 101.35L362.196 104.362C362.852 102.504 364.222 101.062 366.732 100.999ZM377.616 118.369C372.63 118.496 369.091 114.969 368.955 109.615C368.82 104.294 372.174 100.559 377.16 100.432C382.146 100.305 385.686 103.865 385.821 109.186C385.958 114.54 382.603 118.242 377.616 118.369ZM377.539 115.324C380.317 115.253 381.964 112.9 381.872 109.286C381.782 105.739 380.015 103.406 377.237 103.477C374.46 103.548 372.814 105.967 372.904 109.514C372.996 113.129 374.761 115.394 377.539 115.324ZM392.035 93.7241L392.64 117.484L388.758 117.583L388.153 93.8229L392.035 93.7241ZM411.098 107.973L411.07 109.481L398.955 109.789C399.297 112.694 400.789 114.732 403.6 114.66C405.206 114.619 406.659 113.812 407.212 111.856L411.061 111.758C410.288 115.629 407.258 117.614 403.778 117.703C398.524 117.837 395.255 114.404 395.119 109.05C394.986 103.829 397.967 99.9021 403.054 99.7727C407.772 99.6526 410.969 102.886 411.098 107.973ZM403.061 102.686C400.685 102.746 399.323 104.489 398.986 107.042L407.185 106.834C406.985 104.26 405.47 102.625 403.061 102.686ZM423.385 105.283L423.473 108.763L413.567 109.015L413.479 105.535L423.385 105.283ZM435.465 98.9812C439.681 98.8739 442.816 102.31 442.954 107.732C443.093 113.186 440.069 116.746 435.886 116.852C433.51 116.913 431.846 116.018 430.734 114.405L430.941 122.537L427.059 122.636L426.475 99.7123L430.056 99.6212L430.124 102.298C431.111 100.298 432.854 99.0477 435.465 98.9812ZM434.902 113.73C437.412 113.666 439.095 111.379 439.005 107.832C438.915 104.285 437.217 102.051 434.64 102.116C432.13 102.18 430.311 104.37 430.404 108.051C430.5 111.799 432.459 113.792 434.902 113.73ZM449.129 92.271L449.734 116.031L445.852 116.13L445.248 92.3698L449.129 92.271ZM459.578 98.3005C464.063 98.1864 466.601 100.566 466.697 104.348L466.984 115.592L463.47 115.682L463.416 113.573C462.553 115.169 460.873 116.283 458.363 116.347C455.284 116.426 452.56 114.62 452.477 111.374C452.381 107.592 455.377 105.574 463.033 105.111L463.017 104.475C462.96 102.233 461.693 101.127 459.618 101.179C457.543 101.232 456.506 102.598 456.407 103.973L452.693 104.068C452.886 101.15 455.161 98.413 459.578 98.3005ZM459.126 113.415C461.368 113.357 463.208 111.971 463.136 109.16L463.098 107.654C458.083 107.983 456.137 109.137 456.187 111.112C456.222 112.484 457.419 113.458 459.126 113.415ZM472.888 121.637C472.253 121.653 471.581 121.57 471.075 121.415L470.997 118.37C471.334 118.462 471.872 118.548 472.374 118.536C473.713 118.502 474.372 118.083 474.773 116.733L474.835 116.531L468.151 98.6516L472.234 98.5477L476.648 111.462L480.199 98.345L484.114 98.2453L478.267 117.18C477.246 120.488 475.733 121.564 472.888 121.637Z" fill="#FF0019"/>
</g>
<path d="M162.198 206.68H167.395L157.754 222.947V234.849H152.795V222.907L143.154 206.68H148.629L155.374 218.543L162.198 206.68ZM174.515 235.444C168.604 235.444 164.517 231.16 164.517 224.812C164.517 218.503 168.604 214.179 174.515 214.179C180.427 214.179 184.513 218.503 184.513 224.812C184.513 231.16 180.427 235.444 174.515 235.444ZM174.515 231.834C177.808 231.834 179.832 229.096 179.832 224.812C179.832 220.606 177.808 217.789 174.515 217.789C171.222 217.789 169.199 220.606 169.199 224.812C169.199 229.096 171.222 231.834 174.515 231.834ZM200.197 214.813H204.8V234.849H200.515V232.191C199.364 234.175 197.341 235.484 194.563 235.484C190.08 235.484 187.62 232.588 187.62 228.144V214.813H192.223V227.113C192.223 230.128 193.572 231.755 196.031 231.755C198.412 231.755 200.197 229.771 200.197 227.033V214.813ZM213.643 206.68V211.679L210.826 217.035H208.247L210.826 211.679H208.406V206.68H213.643ZM225.725 214.536C226.201 214.536 226.558 214.575 226.796 214.615V218.86C226.519 218.821 226.122 218.821 225.646 218.821C222.353 218.821 220.607 221.042 220.607 224.772V234.849H216.005V214.813H220.25V218.384C221.083 216.202 222.749 214.536 225.725 214.536ZM247.064 224.137L246.985 225.922H232.622C232.94 229.374 234.646 231.834 237.978 231.834C239.883 231.834 241.629 230.922 242.343 228.62H246.905C245.874 233.183 242.224 235.444 238.097 235.444C231.869 235.444 228.099 231.279 228.099 224.931C228.099 218.741 231.749 214.179 237.78 214.179C243.374 214.179 247.064 218.107 247.064 224.137ZM237.701 217.63C234.884 217.63 233.217 219.654 232.741 222.669H242.462C242.303 219.614 240.557 217.63 237.701 217.63ZM268.584 218.107H265.014V229.057C265.014 230.366 265.41 231.239 267.275 231.239C267.711 231.239 268.227 231.199 268.584 231.12V234.849C268.108 234.968 267.473 235.008 266.442 235.008C261.76 235.008 260.411 232.826 260.411 229.096V218.107H257.356V214.813H260.411V208.505H265.014V214.813H268.584V218.107ZM279.736 214.139C285.053 214.139 287.989 217.035 287.989 221.519V234.849H283.823V232.35C282.751 234.215 280.728 235.484 277.752 235.484C274.102 235.484 270.928 233.262 270.928 229.414C270.928 224.931 274.539 222.629 283.624 222.312V221.558C283.624 218.9 282.156 217.551 279.696 217.551C277.237 217.551 275.967 219.138 275.808 220.765H271.404C271.722 217.313 274.499 214.139 279.736 214.139ZM278.744 232.032C281.402 232.032 283.624 230.445 283.624 227.113V225.327C277.673 225.565 275.332 226.875 275.332 229.216C275.332 230.842 276.721 232.032 278.744 232.032ZM296.695 206.68V234.849H292.092V206.68H296.695ZM318.534 234.849H313.217L305.481 224.455V234.849H300.878V206.68H305.481V223.463L312.86 214.813H318.137L310.162 223.78L318.534 234.849ZM325.115 207.077V211.56H320.513V207.077H325.115ZM325.115 214.813V234.849H320.513V214.813H325.115ZM339.535 214.179C344.018 214.179 346.478 217.035 346.478 221.519V234.849H341.876V222.55C341.876 219.495 340.527 217.908 338.067 217.908C335.647 217.908 333.901 219.892 333.901 222.629V234.849H329.299V214.813H333.544V217.511C334.655 215.528 336.718 214.179 339.535 214.179ZM364.129 214.813H368.374V233.818C368.374 239.571 364.486 242.546 359.17 242.546C354.091 242.546 350.759 240.007 350.045 236.119H354.766C355.123 237.746 356.472 239.055 359.13 239.055C361.987 239.055 363.851 237.627 363.851 233.937V231.517C362.661 233.342 360.757 234.453 357.98 234.453C353.139 234.453 349.489 230.406 349.489 224.296C349.489 218.226 353.219 214.179 358.059 214.179C361.035 214.179 362.979 215.448 364.129 217.472V214.813ZM359.011 230.763C361.868 230.763 364.05 228.303 364.05 224.296C364.05 220.289 361.868 217.868 359.051 217.868C356.155 217.868 354.131 220.447 354.131 224.296C354.131 228.184 356.155 230.763 359.011 230.763ZM403.761 214.774H408.522L403.086 234.849H397.571L394.08 220.765L390.668 234.849H385.153L379.717 214.774H384.598L388.168 230.763L392.017 214.774H396.302L400.15 230.763L403.761 214.774ZM415.693 207.077V211.56H411.091V207.077H415.693ZM415.693 214.813V234.849H411.091V214.813H415.693ZM429.439 218.107H425.868V229.057C425.868 230.366 426.265 231.239 428.129 231.239C428.566 231.239 429.082 231.199 429.439 231.12V234.849C428.963 234.968 428.328 235.008 427.296 235.008C422.615 235.008 421.266 232.826 421.266 229.096V218.107H418.211V214.813H421.266V208.505H425.868V214.813H429.439V218.107ZM442.967 214.179C447.45 214.179 449.91 217.035 449.91 221.519V234.849H445.308V222.55C445.308 219.495 443.959 217.908 441.499 217.908C439.079 217.908 437.333 219.892 437.333 222.629V234.849H432.731V206.68H437.333V216.956C438.524 215.25 440.428 214.179 442.967 214.179ZM477.508 226.676C477.508 233.024 473.581 235.405 469.137 235.405C464.336 235.405 461.004 232.905 460.646 228.382H465.487C465.646 230.049 466.955 231.398 469.058 231.398C471.002 231.398 472.549 230.168 472.549 227.311V206.68H477.508V226.676ZM491.109 235.444C485.198 235.444 481.111 231.16 481.111 224.812C481.111 218.503 485.198 214.179 491.109 214.179C497.021 214.179 501.108 218.503 501.108 224.812C501.108 231.16 497.021 235.444 491.109 235.444ZM491.109 231.834C494.402 231.834 496.426 229.096 496.426 224.812C496.426 220.606 494.402 217.789 491.109 217.789C487.816 217.789 485.793 220.606 485.793 224.812C485.793 229.096 487.816 231.834 491.109 231.834ZM514.57 214.179C519.053 214.179 521.513 217.035 521.513 221.519V234.849H516.911V222.55C516.911 219.495 515.562 217.908 513.102 217.908C510.682 217.908 508.936 219.892 508.936 222.629V234.849H504.334V206.68H508.936V216.956C510.126 215.25 512.031 214.179 514.57 214.179ZM533.61 214.139C538.926 214.139 541.862 217.035 541.862 221.519V234.849H537.696V232.35C536.625 234.215 534.602 235.484 531.626 235.484C527.976 235.484 524.802 233.262 524.802 229.414C524.802 224.931 528.412 222.629 537.498 222.312V221.558C537.498 218.9 536.03 217.551 533.57 217.551C531.11 217.551 529.841 219.138 529.682 220.765H525.278C525.595 217.313 528.373 214.139 533.61 214.139ZM532.618 232.032C535.276 232.032 537.498 230.445 537.498 227.113V225.327C531.547 225.565 529.206 226.875 529.206 229.216C529.206 230.842 530.594 232.032 532.618 232.032ZM556.202 214.179C560.685 214.179 563.145 217.035 563.145 221.519V234.849H558.543V222.55C558.543 219.495 557.194 217.908 554.734 217.908C552.314 217.908 550.568 219.892 550.568 222.629V234.849H545.966V214.813H550.211V217.511C551.322 215.528 553.385 214.179 556.202 214.179ZM577.464 214.179C581.947 214.179 584.407 217.035 584.407 221.519V234.849H579.805V222.55C579.805 219.495 578.456 217.908 575.996 217.908C573.576 217.908 571.83 219.892 571.83 222.629V234.849H567.228V214.813H571.473V217.511C572.584 215.528 574.647 214.179 577.464 214.179ZM596.504 214.139C601.82 214.139 604.756 217.035 604.756 221.519V234.849H600.59V232.35C599.519 234.215 597.496 235.484 594.52 235.484C590.87 235.484 587.696 233.262 587.696 229.414C587.696 224.931 591.306 222.629 600.392 222.312V221.558C600.392 218.9 598.924 217.551 596.464 217.551C594.004 217.551 592.735 219.138 592.576 220.765H588.172C588.49 217.313 591.267 214.139 596.504 214.139ZM595.512 232.032C598.17 232.032 600.392 230.445 600.392 227.113V225.327C594.441 225.565 592.1 226.875 592.1 229.216C592.1 230.842 593.489 232.032 595.512 232.032ZM614.058 229.533V234.849L611.122 240.404H608.463L611.042 234.849H608.622V229.533H614.058ZM130.012 262.139C135.328 262.139 138.264 265.035 138.264 269.519V282.849H134.098V280.35C133.027 282.215 131.004 283.484 128.028 283.484C124.378 283.484 121.204 281.262 121.204 277.414C121.204 272.931 124.814 270.629 133.9 270.312V269.558C133.9 266.9 132.432 265.551 129.972 265.551C127.512 265.551 126.243 267.138 126.084 268.765H121.68C121.997 265.313 124.775 262.139 130.012 262.139ZM129.02 280.032C131.678 280.032 133.9 278.445 133.9 275.113V273.327C127.949 273.565 125.608 274.875 125.608 277.216C125.608 278.842 126.996 280.032 129.02 280.032ZM164.803 254.68H169.405V282.849H165.12V279.794C163.89 282.056 161.827 283.405 158.733 283.405C153.773 283.405 150.123 279.279 150.123 272.812C150.123 266.384 153.694 262.218 158.693 262.218C161.55 262.218 163.533 263.409 164.803 265.392V254.68ZM159.804 279.675C162.7 279.675 164.962 277.255 164.962 272.812C164.962 268.447 162.78 265.908 159.764 265.908C156.709 265.908 154.765 268.606 154.765 272.812C154.765 277.017 156.828 279.675 159.804 279.675ZM181.631 262.139C186.948 262.139 189.884 265.035 189.884 269.519V282.849H185.718V280.35C184.646 282.215 182.623 283.484 179.647 283.484C175.997 283.484 172.823 281.262 172.823 277.414C172.823 272.931 176.434 270.629 185.519 270.312V269.558C185.519 266.9 184.051 265.551 181.591 265.551C179.132 265.551 177.862 267.138 177.703 268.765H173.299C173.617 265.313 176.394 262.139 181.631 262.139ZM180.639 280.032C183.297 280.032 185.519 278.445 185.519 275.113V273.327C179.568 273.565 177.227 274.875 177.227 277.216C177.227 278.842 178.616 280.032 180.639 280.032ZM203.084 266.107H199.513V277.057C199.513 278.366 199.91 279.239 201.775 279.239C202.211 279.239 202.727 279.199 203.084 279.12V282.849C202.608 282.968 201.973 283.008 200.942 283.008C196.26 283.008 194.911 280.826 194.911 277.096V266.107H191.856V262.813H194.911V256.505H199.513V262.813H203.084V266.107ZM214.236 262.139C219.552 262.139 222.488 265.035 222.488 269.519V282.849H218.322V280.35C217.251 282.215 215.228 283.484 212.252 283.484C208.602 283.484 205.428 281.262 205.428 277.414C205.428 272.931 209.038 270.629 218.124 270.312V269.558C218.124 266.9 216.656 265.551 214.196 265.551C211.736 265.551 210.467 267.138 210.308 268.765H205.904C206.222 265.313 208.999 262.139 214.236 262.139ZM213.244 280.032C215.902 280.032 218.124 278.445 218.124 275.113V273.327C212.173 273.565 209.832 274.875 209.832 277.216C209.832 278.842 211.221 280.032 213.244 280.032ZM243.354 262.139C248.67 262.139 251.606 265.035 251.606 269.519V282.849H247.44V280.35C246.369 282.215 244.346 283.484 241.37 283.484C237.72 283.484 234.546 281.262 234.546 277.414C234.546 272.931 238.156 270.629 247.242 270.312V269.558C247.242 266.9 245.774 265.551 243.314 265.551C240.854 265.551 239.585 267.138 239.426 268.765H235.022C235.339 265.313 238.117 262.139 243.354 262.139ZM242.362 280.032C245.02 280.032 247.242 278.445 247.242 275.113V273.327C241.291 273.565 238.95 274.875 238.95 277.216C238.95 278.842 240.338 280.032 242.362 280.032ZM265.946 262.179C270.429 262.179 272.889 265.035 272.889 269.519V282.849H268.287V270.55C268.287 267.495 266.938 265.908 264.478 265.908C262.058 265.908 260.312 267.892 260.312 270.629V282.849H255.71V262.813H259.955V265.511C261.066 263.528 263.129 262.179 265.946 262.179ZM284.986 262.139C290.303 262.139 293.238 265.035 293.238 269.519V282.849H289.073V280.35C288.001 282.215 285.978 283.484 283.002 283.484C279.352 283.484 276.178 281.262 276.178 277.414C276.178 272.931 279.789 270.629 288.874 270.312V269.558C288.874 266.9 287.406 265.551 284.946 265.551C282.487 265.551 281.217 267.138 281.058 268.765H276.654C276.972 265.313 279.749 262.139 284.986 262.139ZM283.994 280.032C286.652 280.032 288.874 278.445 288.874 275.113V273.327C282.923 273.565 280.582 274.875 280.582 277.216C280.582 278.842 281.971 280.032 283.994 280.032ZM301.945 254.68V282.849H297.342V254.68H301.945ZM309.342 290.189C308.588 290.189 307.795 290.07 307.199 289.872V286.261C307.596 286.38 308.231 286.499 308.826 286.499C310.413 286.499 311.207 286.023 311.722 284.436L311.802 284.198L304.422 262.813H309.263L314.103 278.247L318.705 262.813H323.347L315.849 285.071C314.539 288.959 312.714 290.189 309.342 290.189ZM333.497 283.444C328.14 283.444 324.808 280.588 324.57 276.581H329.053C329.291 278.803 331.314 279.993 333.536 279.993C335.758 279.993 337.266 279.001 337.266 277.255C337.266 275.47 335.758 274.954 332.346 274.359C326.871 273.367 325.204 271.502 325.204 268.487C325.204 265.194 328.14 262.139 333.1 262.139C337.107 262.139 340.836 264.361 341.154 268.408H336.79C336.512 266.86 335.163 265.551 332.941 265.551C330.759 265.551 329.648 266.702 329.648 268.09C329.648 269.479 330.838 270.193 334.131 270.748C339.527 271.661 341.709 273.407 341.709 276.898C341.709 280.747 338.575 283.444 333.497 283.444ZM354.184 266.107H350.613V277.057C350.613 278.366 351.01 279.239 352.875 279.239C353.311 279.239 353.827 279.199 354.184 279.12V282.849C353.708 282.968 353.073 283.008 352.042 283.008C347.36 283.008 346.011 280.826 346.011 277.096V266.107H342.956V262.813H346.011V256.505H350.613V262.813H354.184V266.107ZM374.238 262.139C379.554 262.139 382.49 265.035 382.49 269.519V282.849H378.324V280.35C377.253 282.215 375.23 283.484 372.254 283.484C368.604 283.484 365.43 281.262 365.43 277.414C365.43 272.931 369.04 270.629 378.126 270.312V269.558C378.126 266.9 376.658 265.551 374.198 265.551C371.738 265.551 370.469 267.138 370.31 268.765H365.906C366.223 265.313 369.001 262.139 374.238 262.139ZM373.246 280.032C375.904 280.032 378.126 278.445 378.126 275.113V273.327C372.175 273.565 369.834 274.875 369.834 277.216C369.834 278.842 371.223 280.032 373.246 280.032ZM395.691 266.107H392.12V277.057C392.12 278.366 392.517 279.239 394.382 279.239C394.818 279.239 395.334 279.199 395.691 279.12V282.849C395.215 282.968 394.58 283.008 393.548 283.008C388.867 283.008 387.518 280.826 387.518 277.096V266.107H384.463V262.813H387.518V256.505H392.12V262.813H395.691V266.107ZM426.463 282.849L424.082 275.827H412.854L410.513 282.849H405.673L415.512 254.68H421.741L431.581 282.849H426.463ZM414.203 271.82H422.733L418.488 259.124L414.203 271.82ZM442.293 283.444C436.58 283.444 432.533 279.358 432.533 272.812C432.533 266.265 436.58 262.179 442.333 262.179C446.063 262.179 450.149 264.281 450.824 269.003H446.42C445.864 267.059 444.436 265.789 442.214 265.789C438.842 265.789 437.215 269.082 437.215 272.812C437.215 276.581 438.881 279.834 442.135 279.834C444.396 279.834 445.904 278.564 446.459 276.184H450.943C450.268 281.342 446.063 283.444 442.293 283.444ZM475.122 262.179C479.248 262.179 481.589 264.797 481.589 269.201V282.849H476.987V270.272C476.987 267.614 475.995 265.868 473.694 265.868C471.353 265.868 470.004 267.813 470.004 270.391V282.849H465.402V270.153C465.402 267.733 464.529 265.868 462.109 265.868C459.847 265.868 458.498 267.852 458.498 270.55V282.849H453.896V262.813H458.141V265.511C459.093 263.647 461.037 262.179 463.735 262.179C466.473 262.179 468.417 263.448 469.369 265.511C470.44 263.647 472.385 262.179 475.122 262.179ZM503.63 272.137L503.551 273.922H489.189C489.506 277.374 491.212 279.834 494.545 279.834C496.449 279.834 498.195 278.922 498.909 276.62H503.472C502.44 281.183 498.79 283.444 494.664 283.444C488.435 283.444 484.666 279.279 484.666 272.931C484.666 266.741 488.316 262.179 494.346 262.179C499.941 262.179 503.63 266.107 503.63 272.137ZM494.267 265.63C491.45 265.63 489.784 267.654 489.308 270.669H499.028C498.869 267.614 497.124 265.63 494.267 265.63ZM521.342 254.68V282.849H516.383V254.68H521.342ZM536.626 262.179C541.109 262.179 543.569 265.035 543.569 269.519V282.849H538.967V270.55C538.967 267.495 537.618 265.908 535.158 265.908C532.738 265.908 530.992 267.892 530.992 270.629V282.849H526.39V262.813H530.635V265.511C531.746 263.528 533.809 262.179 536.626 262.179ZM556.42 283.444C550.706 283.444 546.66 279.358 546.66 272.812C546.66 266.265 550.706 262.179 556.459 262.179C560.189 262.179 564.275 264.281 564.95 269.003H560.546C559.99 267.059 558.562 265.789 556.34 265.789C552.968 265.789 551.341 269.082 551.341 272.812C551.341 276.581 553.008 279.834 556.261 279.834C558.522 279.834 560.03 278.564 560.585 276.184H565.069C564.394 281.342 560.189 283.444 556.42 283.444ZM599.186 262.774H603.947L598.511 282.849H592.996L589.505 268.765L586.093 282.849H580.578L575.142 262.774H580.023L583.593 278.763L587.442 262.774H591.727L595.575 278.763L599.186 262.774ZM616.752 262.179C621.236 262.179 623.695 265.035 623.695 269.519V282.849H619.093V270.55C619.093 267.495 617.744 265.908 615.284 265.908C612.864 265.908 611.118 267.892 611.118 270.629V282.849H606.516V254.68H611.118V264.956C612.309 263.25 614.213 262.179 616.752 262.179ZM636.784 283.444C630.873 283.444 626.786 279.16 626.786 272.812C626.786 266.503 630.873 262.179 636.784 262.179C642.696 262.179 646.782 266.503 646.782 272.812C646.782 279.16 642.696 283.444 636.784 283.444ZM636.784 279.834C640.077 279.834 642.101 277.096 642.101 272.812C642.101 268.606 640.077 265.789 636.784 265.789C633.491 265.789 631.468 268.606 631.468 272.812C631.468 277.096 633.491 279.834 636.784 279.834ZM187.148 310.139C192.464 310.139 195.4 313.035 195.4 317.519V330.849H191.234V328.35C190.163 330.215 188.14 331.484 185.164 331.484C181.514 331.484 178.34 329.262 178.34 325.414C178.34 320.931 181.95 318.629 191.036 318.312V317.558C191.036 314.9 189.568 313.551 187.108 313.551C184.648 313.551 183.379 315.138 183.22 316.765H178.816C179.133 313.313 181.911 310.139 187.148 310.139ZM186.156 328.032C188.814 328.032 191.036 326.445 191.036 323.113V321.327C185.085 321.565 182.744 322.875 182.744 325.216C182.744 326.842 184.132 328.032 186.156 328.032ZM207.122 331.444C201.765 331.444 198.433 328.588 198.195 324.581H202.678C202.916 326.803 204.939 327.993 207.161 327.993C209.383 327.993 210.891 327.001 210.891 325.255C210.891 323.47 209.383 322.954 205.971 322.359C200.496 321.367 198.829 319.502 198.829 316.487C198.829 313.194 201.765 310.139 206.725 310.139C210.732 310.139 214.461 312.361 214.779 316.408H210.415C210.137 314.86 208.788 313.551 206.566 313.551C204.384 313.551 203.273 314.702 203.273 316.09C203.273 317.479 204.463 318.193 207.756 318.748C213.152 319.661 215.334 321.407 215.334 324.898C215.334 328.747 212.2 331.444 207.122 331.444ZM229.036 310.218C234.035 310.218 237.646 314.384 237.646 320.812C237.646 327.279 233.956 331.405 228.996 331.405C226.179 331.405 224.235 330.294 222.966 328.35V337.991H218.364V310.813H222.609V313.987C223.839 311.647 225.941 310.218 229.036 310.218ZM227.925 327.675C230.901 327.675 232.964 325.017 232.964 320.812C232.964 316.606 231.02 313.908 227.965 313.908C224.989 313.908 222.767 316.447 222.767 320.812C222.767 325.255 225.029 327.675 227.925 327.675ZM245.429 303.077V307.56H240.826V303.077H245.429ZM245.429 310.813V330.849H240.826V310.813H245.429ZM259.333 310.536C259.809 310.536 260.166 310.575 260.404 310.615V314.86C260.126 314.821 259.729 314.821 259.253 314.821C255.96 314.821 254.215 317.042 254.215 320.772V330.849H249.612V310.813H253.857V314.384C254.691 312.202 256.357 310.536 259.333 310.536ZM280.672 320.137L280.592 321.922H266.23C266.547 325.374 268.253 327.834 271.586 327.834C273.49 327.834 275.236 326.922 275.95 324.62H280.513C279.481 329.183 275.831 331.444 271.705 331.444C265.476 331.444 261.707 327.279 261.707 320.931C261.707 314.741 265.357 310.179 271.388 310.179C276.982 310.179 280.672 314.107 280.672 320.137ZM271.308 313.63C268.491 313.63 266.825 315.654 266.349 318.669H276.069C275.911 315.614 274.165 313.63 271.308 313.63ZM291.501 331.444C286.145 331.444 282.812 328.588 282.574 324.581H287.057C287.295 326.803 289.319 327.993 291.54 327.993C293.762 327.993 295.27 327.001 295.27 325.255C295.27 323.47 293.762 322.954 290.35 322.359C284.875 321.367 283.209 319.502 283.209 316.487C283.209 313.194 286.145 310.139 291.104 310.139C295.111 310.139 298.841 312.361 299.158 316.408H294.794C294.516 314.86 293.167 313.551 290.945 313.551C288.763 313.551 287.652 314.702 287.652 316.09C287.652 317.479 288.842 318.193 292.135 318.748C297.531 319.661 299.713 321.407 299.713 324.898C299.713 328.747 296.579 331.444 291.501 331.444ZM321.051 314.107H317.481V325.057C317.481 326.366 317.877 327.239 319.742 327.239C320.179 327.239 320.694 327.199 321.051 327.12V330.849C320.575 330.968 319.941 331.008 318.909 331.008C314.227 331.008 312.878 328.826 312.878 325.096V314.107H309.823V310.813H312.878V304.505H317.481V310.813H321.051V314.107ZM332.691 331.444C326.78 331.444 322.693 327.16 322.693 320.812C322.693 314.503 326.78 310.179 332.691 310.179C338.603 310.179 342.69 314.503 342.69 320.812C342.69 327.16 338.603 331.444 332.691 331.444ZM332.691 327.834C335.984 327.834 338.008 325.096 338.008 320.812C338.008 316.606 335.984 313.789 332.691 313.789C329.398 313.789 327.375 316.606 327.375 320.812C327.375 325.096 329.398 327.834 332.691 327.834ZM365.335 310.218C370.334 310.218 373.945 314.384 373.945 320.812C373.945 327.279 370.255 331.405 365.296 331.405C362.201 331.405 360.138 330.056 358.908 327.755V330.849H354.663V302.68H359.265V313.392C360.535 311.409 362.518 310.218 365.335 310.218ZM364.224 327.675C367.2 327.675 369.263 325.017 369.263 320.812C369.263 316.606 367.319 313.908 364.264 313.908C361.288 313.908 359.067 316.447 359.067 320.812C359.067 325.255 361.328 327.675 364.224 327.675ZM395.292 320.137L395.213 321.922H380.85C381.168 325.374 382.874 327.834 386.207 327.834C388.111 327.834 389.857 326.922 390.571 324.62H395.133C394.102 329.183 390.452 331.444 386.326 331.444C380.097 331.444 376.327 327.279 376.327 320.931C376.327 314.741 379.978 310.179 386.008 310.179C391.602 310.179 395.292 314.107 395.292 320.137ZM385.929 313.63C383.112 313.63 381.446 315.654 380.969 318.669H390.69C390.531 315.614 388.785 313.63 385.929 313.63ZM415.265 310.139C420.582 310.139 423.517 313.035 423.517 317.519V330.849H419.352V328.35C418.28 330.215 416.257 331.484 413.281 331.484C409.631 331.484 406.457 329.262 406.457 325.414C406.457 320.931 410.068 318.629 419.153 318.312V317.558C419.153 314.9 417.685 313.551 415.225 313.551C412.766 313.551 411.496 315.138 411.337 316.765H406.933C407.251 313.313 410.028 310.139 415.265 310.139ZM414.273 328.032C416.931 328.032 419.153 326.445 419.153 323.113V321.327C413.202 321.565 410.861 322.875 410.861 325.216C410.861 326.842 412.25 328.032 414.273 328.032ZM457.595 310.179C461.721 310.179 464.062 312.797 464.062 317.201V330.849H459.459V318.272C459.459 315.614 458.467 313.868 456.166 313.868C453.825 313.868 452.477 315.813 452.477 318.391V330.849H447.874V318.153C447.874 315.733 447.001 313.868 444.581 313.868C442.32 313.868 440.971 315.852 440.971 318.55V330.849H436.368V310.813H440.614V313.511C441.566 311.647 443.51 310.179 446.208 310.179C448.945 310.179 450.89 311.448 451.842 313.511C452.913 311.647 454.857 310.179 457.595 310.179ZM476.144 310.139C481.461 310.139 484.397 313.035 484.397 317.519V330.849H480.231V328.35C479.16 330.215 477.136 331.484 474.161 331.484C470.511 331.484 467.337 329.262 467.337 325.414C467.337 320.931 470.947 318.629 480.033 318.312V317.558C480.033 314.9 478.565 313.551 476.105 313.551C473.645 313.551 472.375 315.138 472.217 316.765H467.813C468.13 313.313 470.907 310.139 476.144 310.139ZM475.153 328.032C477.811 328.032 480.033 326.445 480.033 323.113V321.327C474.081 321.565 471.741 322.875 471.741 325.216C471.741 326.842 473.129 328.032 475.153 328.032ZM498.737 310.179C503.22 310.179 505.68 313.035 505.68 317.519V330.849H501.078V318.55C501.078 315.495 499.729 313.908 497.269 313.908C494.849 313.908 493.103 315.892 493.103 318.629V330.849H488.501V310.813H492.746V313.511C493.857 311.528 495.92 310.179 498.737 310.179ZM517.777 310.139C523.093 310.139 526.029 313.035 526.029 317.519V330.849H521.863V328.35C520.792 330.215 518.769 331.484 515.793 331.484C512.143 331.484 508.969 329.262 508.969 325.414C508.969 320.931 512.58 318.629 521.665 318.312V317.558C521.665 314.9 520.197 313.551 517.737 313.551C515.277 313.551 514.008 315.138 513.849 316.765H509.445C509.763 313.313 512.54 310.139 517.777 310.139ZM516.785 328.032C519.443 328.032 521.665 326.445 521.665 323.113V321.327C515.714 321.565 513.373 322.875 513.373 325.216C513.373 326.842 514.762 328.032 516.785 328.032ZM543.702 310.813H547.947V329.818C547.947 335.571 544.059 338.546 538.743 338.546C533.664 338.546 530.332 336.007 529.617 332.119H534.339C534.696 333.746 536.045 335.055 538.703 335.055C541.56 335.055 543.424 333.627 543.424 329.937V327.517C542.234 329.342 540.33 330.453 537.552 330.453C532.712 330.453 529.062 326.406 529.062 320.296C529.062 314.226 532.791 310.179 537.632 310.179C540.607 310.179 542.552 311.448 543.702 313.472V310.813ZM538.584 326.763C541.441 326.763 543.623 324.303 543.623 320.296C543.623 316.289 541.441 313.868 538.624 313.868C535.727 313.868 533.704 316.447 533.704 320.296C533.704 324.184 535.727 326.763 538.584 326.763ZM570.143 320.137L570.063 321.922H555.701C556.018 325.374 557.724 327.834 561.057 327.834C562.962 327.834 564.707 326.922 565.421 324.62H569.984C568.952 329.183 565.302 331.444 561.176 331.444C554.947 331.444 551.178 327.279 551.178 320.931C551.178 314.741 554.828 310.179 560.859 310.179C566.453 310.179 570.143 314.107 570.143 320.137ZM560.779 313.63C557.962 313.63 556.296 315.654 555.82 318.669H565.54C565.382 315.614 563.636 313.63 560.779 313.63ZM583.075 310.536C583.551 310.536 583.908 310.575 584.146 310.615V314.86C583.868 314.821 583.471 314.821 582.995 314.821C579.702 314.821 577.956 317.042 577.956 320.772V330.849H573.354V310.813H577.599V314.384C578.433 312.202 580.099 310.536 583.075 310.536ZM588.531 325.533V330.849H583.413V325.533H588.531Z" fill="black"/>
<path d="M281.664 393.719V395.222H278.525V404.283H276.665V395.222H273.526V393.719H281.664ZM286.818 396.531C288.499 396.531 289.422 397.602 289.422 399.284V404.283H287.696V399.67C287.696 398.525 287.19 397.93 286.268 397.93C285.36 397.93 284.705 398.674 284.705 399.7V404.283H282.979V393.719H284.705V397.573C285.152 396.933 285.866 396.531 286.818 396.531ZM292.827 393.868V395.549H291.101V393.868H292.827ZM292.827 396.769V404.283H291.101V396.769H292.827ZM297.401 404.506C295.393 404.506 294.143 403.435 294.054 401.932H295.735C295.824 402.765 296.583 403.211 297.416 403.211C298.25 403.211 298.815 402.84 298.815 402.185C298.815 401.515 298.25 401.322 296.97 401.099C294.917 400.727 294.292 400.028 294.292 398.897C294.292 397.662 295.393 396.516 297.253 396.516C298.755 396.516 300.154 397.35 300.273 398.867H298.636C298.532 398.287 298.026 397.796 297.193 397.796C296.375 397.796 295.958 398.227 295.958 398.748C295.958 399.269 296.405 399.537 297.64 399.745C299.663 400.087 300.481 400.742 300.481 402.051C300.481 403.494 299.306 404.506 297.401 404.506ZM308.483 404.506C306.341 404.506 304.823 402.973 304.823 400.519C304.823 398.064 306.341 396.531 308.498 396.531C309.896 396.531 311.429 397.32 311.682 399.09H310.03C309.822 398.361 309.286 397.885 308.453 397.885C307.189 397.885 306.579 399.12 306.579 400.519C306.579 401.932 307.203 403.152 308.424 403.152C309.272 403.152 309.837 402.676 310.045 401.783H311.726C311.474 403.717 309.896 404.506 308.483 404.506ZM316.287 404.506C314.071 404.506 312.538 402.899 312.538 400.519C312.538 398.153 314.071 396.531 316.287 396.531C318.504 396.531 320.037 398.153 320.037 400.519C320.037 402.899 318.504 404.506 316.287 404.506ZM316.287 403.152C317.522 403.152 318.281 402.125 318.281 400.519C318.281 398.941 317.522 397.885 316.287 397.885C315.053 397.885 314.294 398.941 314.294 400.519C314.294 402.125 315.053 403.152 316.287 403.152ZM325.234 396.531C326.915 396.531 327.837 397.602 327.837 399.284V404.283H326.112V399.67C326.112 398.525 325.606 397.93 324.683 397.93C323.776 397.93 323.121 398.674 323.121 399.7V404.283H321.395V396.769H322.987V397.781C323.404 397.037 324.177 396.531 325.234 396.531ZM334.015 396.769H335.8L333.316 404.283H331.158L328.703 396.769H330.519L332.274 402.572L334.015 396.769ZM343.493 400.266L343.463 400.935H338.077C338.196 402.23 338.836 403.152 340.086 403.152C340.8 403.152 341.454 402.81 341.722 401.947H343.433C343.046 403.658 341.678 404.506 340.13 404.506C337.794 404.506 336.381 402.944 336.381 400.563C336.381 398.242 337.75 396.531 340.011 396.531C342.109 396.531 343.493 398.004 343.493 400.266ZM339.981 397.826C338.925 397.826 338.3 398.584 338.122 399.715H341.767C341.707 398.57 341.053 397.826 339.981 397.826ZM348.491 396.665C348.669 396.665 348.803 396.68 348.893 396.695V398.287C348.788 398.272 348.64 398.272 348.461 398.272C347.226 398.272 346.572 399.105 346.572 400.504V404.283H344.846V396.769H346.438V398.108C346.75 397.29 347.375 396.665 348.491 396.665ZM352.846 404.506C350.837 404.506 349.587 403.435 349.498 401.932H351.179C351.269 402.765 352.027 403.211 352.861 403.211C353.694 403.211 354.259 402.84 354.259 402.185C354.259 401.515 353.694 401.322 352.414 401.099C350.361 400.727 349.736 400.028 349.736 398.897C349.736 397.662 350.837 396.516 352.697 396.516C354.2 396.516 355.598 397.35 355.717 398.867H354.081C353.977 398.287 353.471 397.796 352.637 397.796C351.819 397.796 351.403 398.227 351.403 398.748C351.403 399.269 351.849 399.537 353.084 399.745C355.107 400.087 355.926 400.742 355.926 402.051C355.926 403.494 354.75 404.506 352.846 404.506ZM360.274 396.516C362.267 396.516 363.368 397.602 363.368 399.284V404.283H361.806V403.345C361.405 404.045 360.646 404.521 359.53 404.521C358.161 404.521 356.971 403.688 356.971 402.244C356.971 400.563 358.325 399.7 361.732 399.581V399.299C361.732 398.302 361.181 397.796 360.259 397.796C359.336 397.796 358.86 398.391 358.801 399.001H357.149C357.268 397.707 358.31 396.516 360.274 396.516ZM359.902 403.226C360.899 403.226 361.732 402.631 361.732 401.381V400.712C359.5 400.801 358.622 401.292 358.622 402.17C358.622 402.78 359.143 403.226 359.902 403.226ZM368.467 398.004H367.128V402.111C367.128 402.601 367.277 402.929 367.976 402.929C368.14 402.929 368.334 402.914 368.467 402.884V404.283C368.289 404.327 368.051 404.342 367.664 404.342C365.908 404.342 365.403 403.524 365.403 402.125V398.004H364.257V396.769H365.403V394.404H367.128V396.769H368.467V398.004ZM371.577 393.868V395.549H369.851V393.868H371.577ZM371.577 396.769V404.283H369.851V396.769H371.577ZM376.672 404.506C374.455 404.506 372.922 402.899 372.922 400.519C372.922 398.153 374.455 396.531 376.672 396.531C378.889 396.531 380.421 398.153 380.421 400.519C380.421 402.899 378.889 404.506 376.672 404.506ZM376.672 403.152C377.907 403.152 378.665 402.125 378.665 400.519C378.665 398.941 377.907 397.885 376.672 397.885C375.437 397.885 374.678 398.941 374.678 400.519C374.678 402.125 375.437 403.152 376.672 403.152ZM385.618 396.531C387.299 396.531 388.222 397.602 388.222 399.284V404.283H386.496V399.67C386.496 398.525 385.99 397.93 385.068 397.93C384.16 397.93 383.505 398.674 383.505 399.7V404.283H381.78V396.769H383.372V397.781C383.788 397.037 384.562 396.531 385.618 396.531ZM395.056 393.868V395.549H393.33V393.868H395.056ZM395.056 396.769V404.283H393.33V396.769H395.056ZM399.631 404.506C397.622 404.506 396.372 403.435 396.283 401.932H397.964C398.053 402.765 398.812 403.211 399.645 403.211C400.479 403.211 401.044 402.84 401.044 402.185C401.044 401.515 400.479 401.322 399.199 401.099C397.146 400.727 396.521 400.028 396.521 398.897C396.521 397.662 397.622 396.516 399.482 396.516C400.984 396.516 402.383 397.35 402.502 398.867H400.865C400.761 398.287 400.255 397.796 399.422 397.796C398.604 397.796 398.187 398.227 398.187 398.748C398.187 399.269 398.634 399.537 399.869 399.745C401.892 400.087 402.71 400.742 402.71 402.051C402.71 403.494 401.535 404.506 399.631 404.506ZM410.801 404.506C408.584 404.506 407.052 402.899 407.052 400.519C407.052 398.153 408.584 396.531 410.801 396.531C413.018 396.531 414.551 398.153 414.551 400.519C414.551 402.899 413.018 404.506 410.801 404.506ZM410.801 403.152C412.036 403.152 412.795 402.125 412.795 400.519C412.795 398.941 412.036 397.885 410.801 397.885C409.566 397.885 408.808 398.941 408.808 400.519C408.808 402.125 409.566 403.152 410.801 403.152ZM419.748 396.531C421.429 396.531 422.351 397.602 422.351 399.284V404.283H420.626V399.67C420.626 398.525 420.12 397.93 419.197 397.93C418.29 397.93 417.635 398.674 417.635 399.7V404.283H415.909V396.769H417.501V397.781C417.918 397.037 418.691 396.531 419.748 396.531ZM425.757 393.719V404.283H424.031V393.719H425.757ZM428.68 407.035C428.397 407.035 428.099 406.991 427.876 406.916V405.562C428.025 405.607 428.263 405.652 428.486 405.652C429.081 405.652 429.379 405.473 429.572 404.878L429.602 404.789L426.835 396.769H428.65L430.465 402.557L432.191 396.769H433.932L431.12 405.116C430.629 406.574 429.944 407.035 428.68 407.035ZM442.986 396.769H444.771L442.286 404.283H440.129L437.674 396.769H439.489L441.245 402.572L442.986 396.769ZM447.58 393.868V395.549H445.854V393.868H447.58ZM447.58 396.769V404.283H445.854V396.769H447.58ZM452.154 404.506C450.146 404.506 448.896 403.435 448.807 401.932H450.488C450.577 402.765 451.336 403.211 452.169 403.211C453.002 403.211 453.568 402.84 453.568 402.185C453.568 401.515 453.002 401.322 451.723 401.099C449.67 400.727 449.045 400.028 449.045 398.897C449.045 397.662 450.146 396.516 452.006 396.516C453.508 396.516 454.907 397.35 455.026 398.867H453.389C453.285 398.287 452.779 397.796 451.946 397.796C451.128 397.796 450.711 398.227 450.711 398.748C450.711 399.269 451.158 399.537 452.392 399.745C454.416 400.087 455.234 400.742 455.234 402.051C455.234 403.494 454.059 404.506 452.154 404.506ZM458.245 393.868V395.549H456.519V393.868H458.245ZM458.245 396.769V404.283H456.519V396.769H458.245ZM463.965 396.546C465.839 396.546 467.193 398.108 467.193 400.519C467.193 402.944 465.809 404.491 463.95 404.491C462.789 404.491 462.016 403.985 461.554 403.122V404.283H459.962V393.719H461.688V397.736C462.164 396.992 462.908 396.546 463.965 396.546ZM463.548 403.092C464.664 403.092 465.438 402.096 465.438 400.519C465.438 398.941 464.708 397.93 463.563 397.93C462.447 397.93 461.614 398.882 461.614 400.519C461.614 402.185 462.462 403.092 463.548 403.092ZM470.261 393.719V404.283H468.535V393.719H470.261ZM478.718 400.266L478.688 400.935H473.302C473.421 402.23 474.061 403.152 475.311 403.152C476.025 403.152 476.68 402.81 476.948 401.947H478.658C478.272 403.658 476.903 404.506 475.356 404.506C473.02 404.506 471.606 402.944 471.606 400.563C471.606 398.242 472.975 396.531 475.237 396.531C477.334 396.531 478.718 398.004 478.718 400.266ZM475.207 397.826C474.15 397.826 473.526 398.584 473.347 399.715H476.992C476.933 398.57 476.278 397.826 475.207 397.826ZM487.086 398.004H485.747V402.111C485.747 402.601 485.895 402.929 486.595 402.929C486.758 402.929 486.952 402.914 487.086 402.884V404.283C486.907 404.327 486.669 404.342 486.282 404.342C484.527 404.342 484.021 403.524 484.021 402.125V398.004H482.875V396.769H484.021V394.404H485.747V396.769H487.086V398.004ZM491.599 404.506C489.383 404.506 487.85 402.899 487.85 400.519C487.85 398.153 489.383 396.531 491.599 396.531C493.816 396.531 495.349 398.153 495.349 400.519C495.349 402.899 493.816 404.506 491.599 404.506ZM491.599 403.152C492.834 403.152 493.593 402.125 493.593 400.519C493.593 398.941 492.834 397.885 491.599 397.885C490.365 397.885 489.606 398.941 489.606 400.519C489.606 402.125 490.365 403.152 491.599 403.152ZM501.196 407.035C500.913 407.035 500.616 406.991 500.393 406.916V405.562C500.541 405.607 500.779 405.652 501.003 405.652C501.598 405.652 501.895 405.473 502.089 404.878L502.119 404.789L499.351 396.769H501.166L502.981 402.557L504.707 396.769H506.448L503.636 405.116C503.145 406.574 502.461 407.035 501.196 407.035ZM510.764 404.506C508.547 404.506 507.014 402.899 507.014 400.519C507.014 398.153 508.547 396.531 510.764 396.531C512.981 396.531 514.513 398.153 514.513 400.519C514.513 402.899 512.981 404.506 510.764 404.506ZM510.764 403.152C511.999 403.152 512.757 402.125 512.757 400.519C512.757 398.941 511.999 397.885 510.764 397.885C509.529 397.885 508.77 398.941 508.77 400.519C508.77 402.125 509.529 403.152 510.764 403.152ZM520.543 396.769H522.269V404.283H520.662V403.286C520.231 404.03 519.472 404.521 518.431 404.521C516.749 404.521 515.827 403.435 515.827 401.768V396.769H517.553V401.381C517.553 402.512 518.059 403.122 518.981 403.122C519.874 403.122 520.543 402.378 520.543 401.352V396.769Z" fill="black" fill-opacity="0.3"/>
<path d="M260.457 404.584L259.441 403.568C261.697 402.149 263.145 400.351 263.145 399.683C263.145 398.695 258.704 393.879 253.257 393.879C252.199 393.879 251.18 394.06 250.225 394.357L249.141 393.275C250.398 392.837 251.781 392.568 253.257 392.568C259.957 392.568 264.598 397.981 264.598 399.683C264.598 400.661 263.054 402.882 260.457 404.584Z" fill="black" fill-opacity="0.3"/>
<path d="M246.09 394.781C243.484 396.482 241.908 398.701 241.908 399.683C241.908 401.377 246.632 406.798 253.257 406.798C254.755 406.798 256.149 406.528 257.412 406.089L256.331 405.01C255.362 405.307 254.329 405.486 253.257 405.486C247.786 405.486 243.361 400.854 243.361 399.683C243.361 399.113 244.831 397.272 247.124 395.814L246.09 394.781Z" fill="black" fill-opacity="0.3"/>
<path d="M249.017 397.705C248.738 398.303 248.583 398.972 248.583 399.683C248.583 402.215 250.658 404.332 253.257 404.332C253.958 404.332 254.622 404.176 255.218 403.898L249.017 397.705Z" fill="black" fill-opacity="0.3"/>
<path d="M257.489 401.617C257.762 401.025 257.915 400.369 257.915 399.683C257.915 397.084 255.839 395.033 253.257 395.033C252.562 395.033 251.904 395.18 251.313 395.445L257.489 401.617Z" fill="black" fill-opacity="0.3"/>
<path d="M259.575 406.873C259.824 407.13 260.214 407.147 260.48 406.873C260.746 406.599 260.729 406.225 260.48 405.968L246.59 392.094C246.349 391.845 245.934 391.845 245.677 392.094C245.436 392.335 245.436 392.758 245.677 392.999L259.575 406.873Z" fill="black" fill-opacity="0.3"/>
<rect x="295.844" y="438.143" width="175.716" height="48" rx="16" fill="#FF0019"/>
<path d="M318.71 455.801C320.937 455.801 322.994 457.042 323.13 459.269H321.056C320.937 458.215 319.985 457.467 318.642 457.467C317.248 457.467 316.5 458.232 316.5 459.15C316.5 460.238 317.401 460.629 319.424 461.037C322.263 461.598 323.487 462.601 323.487 464.658C323.487 466.902 321.702 468.432 318.931 468.432C316.092 468.432 314.171 466.987 314.035 464.607H316.16C316.33 466.052 317.622 466.732 318.982 466.732C320.393 466.732 321.413 466.018 321.413 464.828C321.413 463.536 320.376 463.196 318.438 462.788C315.361 462.125 314.426 461.105 314.426 459.32C314.426 457.365 316.092 455.801 318.71 455.801ZM329.122 460.969H327.592V465.661C327.592 466.222 327.762 466.596 328.561 466.596C328.748 466.596 328.969 466.579 329.122 466.545V468.143C328.918 468.194 328.646 468.211 328.204 468.211C326.198 468.211 325.62 467.276 325.62 465.678V460.969H324.311V459.558H325.62V456.855H327.592V459.558H329.122V460.969ZM334.24 459.269C336.518 459.269 337.776 460.51 337.776 462.431V468.143H335.991V467.072C335.532 467.871 334.665 468.415 333.39 468.415C331.826 468.415 330.466 467.463 330.466 465.814C330.466 463.893 332.013 462.907 335.906 462.771V462.448C335.906 461.309 335.277 460.731 334.223 460.731C333.169 460.731 332.625 461.411 332.557 462.108H330.67C330.806 460.629 331.996 459.269 334.24 459.269ZM333.815 466.936C334.954 466.936 335.906 466.256 335.906 464.828V464.063C333.356 464.165 332.353 464.726 332.353 465.729C332.353 466.426 332.948 466.936 333.815 466.936ZM344.04 459.439C344.244 459.439 344.397 459.456 344.499 459.473V461.292C344.38 461.275 344.21 461.275 344.006 461.275C342.595 461.275 341.847 462.227 341.847 463.825V468.143H339.875V459.558H341.694V461.088C342.051 460.153 342.765 459.439 344.04 459.439ZM350.318 460.969H348.788V465.661C348.788 466.222 348.958 466.596 349.757 466.596C349.944 466.596 350.165 466.579 350.318 466.545V468.143C350.114 468.194 349.842 468.211 349.4 468.211C347.394 468.211 346.816 467.276 346.816 465.678V460.969H345.507V459.558H346.816V456.855H348.788V459.558H350.318V460.969ZM359.913 468.398C357.465 468.398 355.731 466.647 355.731 463.842C355.731 461.037 357.465 459.286 359.93 459.286C361.528 459.286 363.279 460.187 363.568 462.21H361.681C361.443 461.377 360.831 460.833 359.879 460.833C358.434 460.833 357.737 462.244 357.737 463.842C357.737 465.457 358.451 466.851 359.845 466.851C360.814 466.851 361.46 466.307 361.698 465.287H363.619C363.33 467.497 361.528 468.398 359.913 468.398ZM369.001 468.398C366.468 468.398 364.717 466.562 364.717 463.842C364.717 461.139 366.468 459.286 369.001 459.286C371.534 459.286 373.285 461.139 373.285 463.842C373.285 466.562 371.534 468.398 369.001 468.398ZM369.001 466.851C370.412 466.851 371.279 465.678 371.279 463.842C371.279 462.04 370.412 460.833 369.001 460.833C367.59 460.833 366.723 462.04 366.723 463.842C366.723 465.678 367.59 466.851 369.001 466.851ZM379.393 459.286C381.314 459.286 382.368 460.51 382.368 462.431V468.143H380.396V462.873C380.396 461.564 379.818 460.884 378.764 460.884C377.727 460.884 376.979 461.734 376.979 462.907V468.143H375.007V459.558H376.826V460.714C377.302 459.864 378.186 459.286 379.393 459.286ZM389.596 459.558H391.636L388.797 468.143H386.332L383.527 459.558H385.601L387.607 466.188L389.596 459.558ZM400.596 463.553L400.562 464.318H394.408C394.544 465.797 395.275 466.851 396.703 466.851C397.519 466.851 398.267 466.46 398.573 465.474H400.528C400.086 467.429 398.522 468.398 396.754 468.398C394.085 468.398 392.47 466.613 392.47 463.893C392.47 461.241 394.034 459.286 396.618 459.286C399.015 459.286 400.596 460.969 400.596 463.553ZM396.584 460.765C395.377 460.765 394.663 461.632 394.459 462.924H398.624C398.556 461.615 397.808 460.765 396.584 460.765ZM406.477 459.439C406.681 459.439 406.834 459.456 406.936 459.473V461.292C406.817 461.275 406.647 461.275 406.443 461.275C405.032 461.275 404.284 462.227 404.284 463.825V468.143H402.312V459.558H404.131V461.088C404.488 460.153 405.202 459.439 406.477 459.439ZM411.623 468.398C409.328 468.398 407.9 467.174 407.798 465.457H409.719C409.821 466.409 410.688 466.919 411.64 466.919C412.592 466.919 413.238 466.494 413.238 465.746C413.238 464.981 412.592 464.76 411.13 464.505C408.784 464.08 408.07 463.281 408.07 461.989C408.07 460.578 409.328 459.269 411.453 459.269C413.17 459.269 414.768 460.221 414.904 461.955H413.034C412.915 461.292 412.337 460.731 411.385 460.731C410.45 460.731 409.974 461.224 409.974 461.819C409.974 462.414 410.484 462.72 411.895 462.958C414.207 463.349 415.142 464.097 415.142 465.593C415.142 467.242 413.799 468.398 411.623 468.398ZM420.28 459.269C422.558 459.269 423.816 460.51 423.816 462.431V468.143H422.031V467.072C421.572 467.871 420.705 468.415 419.43 468.415C417.866 468.415 416.506 467.463 416.506 465.814C416.506 463.893 418.053 462.907 421.946 462.771V462.448C421.946 461.309 421.317 460.731 420.263 460.731C419.209 460.731 418.665 461.411 418.597 462.108H416.71C416.846 460.629 418.036 459.269 420.28 459.269ZM419.855 466.936C420.994 466.936 421.946 466.256 421.946 464.828V464.063C419.396 464.165 418.393 464.726 418.393 465.729C418.393 466.426 418.988 466.936 419.855 466.936ZM429.812 460.969H428.282V465.661C428.282 466.222 428.452 466.596 429.251 466.596C429.438 466.596 429.659 466.579 429.812 466.545V468.143C429.608 468.194 429.336 468.211 428.894 468.211C426.888 468.211 426.31 467.276 426.31 465.678V460.969H425.001V459.558H426.31V456.855H428.282V459.558H429.812V460.969ZM433.535 456.243V458.164H431.563V456.243H433.535ZM433.535 459.558V468.143H431.563V459.558H433.535ZM439.527 468.398C436.994 468.398 435.243 466.562 435.243 463.842C435.243 461.139 436.994 459.286 439.527 459.286C442.06 459.286 443.811 461.139 443.811 463.842C443.811 466.562 442.06 468.398 439.527 468.398ZM439.527 466.851C440.938 466.851 441.805 465.678 441.805 463.842C441.805 462.04 440.938 460.833 439.527 460.833C438.116 460.833 437.249 462.04 437.249 463.842C437.249 465.678 438.116 466.851 439.527 466.851ZM449.919 459.286C451.84 459.286 452.894 460.51 452.894 462.431V468.143H450.922V462.873C450.922 461.564 450.344 460.884 449.29 460.884C448.253 460.884 447.505 461.734 447.505 462.907V468.143H445.533V459.558H447.352V460.714C447.828 459.864 448.712 459.286 449.919 459.286Z" fill="white"/>
</g>
<defs>
<filter id="filter0_d_7_3837" x="242.49" y="58.1298" width="282.423" height="104.897" filterUnits="userSpaceOnUse" color-interpolation-filters="sRGB">
<feFlood flood-opacity="0" result="BackgroundImageFix"/>
<feColorMatrix in="SourceAlpha" type="matrix" values="0 0 0 0 0 0 0 0 0 0 0 0 0 0 0 0 0 0 127 0" result="hardAlpha"/>
<feOffset dy="3.87022"/>
<feGaussianBlur stdDeviation="3.87022"/>
<feColorMatrix type="matrix" values="0 0 0 0 0 0 0 0 0 0 0 0 0 0 0 0 0 0 0.08 0"/>
<feBlend mode="normal" in2="BackgroundImageFix" result="effect1_dropShadow_7_3837"/>
<feBlend mode="normal" in="SourceGraphic" in2="effect1_dropShadow_7_3837" result="shape"/>
</filter>
<clipPath id="clip0_7_3837">
<rect width="769" height="582" rx="8" fill="white"/>
</clipPath>
</defs>
</svg>
