<svg width="318" height="242" viewBox="0 0 318 242" fill="none" xmlns="http://www.w3.org/2000/svg">
<g clip-path="url(#clip0_4_1675)">
<mask id="mask0_4_1675" style="mask-type:alpha" maskUnits="userSpaceOnUse" x="0" y="-112" width="318" height="354">
<rect y="-112" width="318" height="354" fill="url(#paint0_linear_4_1675)"/>
</mask>
<g mask="url(#mask0_4_1675)">
<g filter="url(#filter0_dd_4_1675)">
<rect x="32" y="52" width="339.094" height="127.819" rx="14.1289" fill="white"/>
<g clip-path="url(#clip1_4_1675)">
<rect x="37.6516" y="57.6516" width="327.791" height="58.2578" rx="8.47734" fill="black" fill-opacity="0.025"/>
<path d="M60.068 77.3763H72.0123C71.9726 76.6076 71.4873 76.1652 70.681 76.1652H61.3994C60.593 76.1652 60.1077 76.6076 60.068 77.3763Z" fill="black"/>
<path d="M58.1324 80.0776C58.4378 80.0305 58.7608 80.0065 59.1004 80.0065H72.9801C73.3198 80.0065 73.6429 80.0305 73.9484 80.0777C73.8451 79.1699 73.2378 78.6629 72.2327 78.6629H59.8573C58.8522 78.6629 58.2371 79.1699 58.1324 80.0776Z" fill="black"/>
<path d="M59.1004 97.1123H72.9801C74.9575 97.1123 75.951 96.1283 75.951 94.1793V84.4625C75.951 82.5134 74.9575 81.5295 72.9801 81.5295H59.1004C57.123 81.5295 56.1295 82.5134 56.1295 84.4625V94.1793C56.1295 96.1283 57.123 97.1123 59.1004 97.1123ZM59.1288 95.589C58.1826 95.589 57.6528 95.078 57.6528 94.0941V84.5476C57.6528 83.5636 58.1826 83.0527 59.1288 83.0527H72.9612C73.8884 83.0527 74.4277 83.5636 74.4277 84.5476V94.0941C74.4277 95.078 73.8884 95.589 72.9612 95.589H59.1288Z" fill="black"/>
<path d="M97.6146 86.3826C99.1575 86.8177 100.364 88.0046 100.364 89.8441C100.364 92.2376 98.663 93.7805 96.0718 93.7805H90.0585V79.7363H95.7751C98.0498 79.7363 99.8696 80.9627 99.8696 83.277C99.8696 84.8397 98.9202 85.9474 97.6146 86.3826ZM91.9179 81.1605V85.71H95.4784C97.0806 85.71 98.0498 84.8199 98.0498 83.3957C98.0498 82.0309 97.1201 81.1605 95.4586 81.1605H91.9179ZM95.5575 92.3563C97.5157 92.3563 98.485 91.2881 98.485 89.765C98.485 88.2419 97.3971 87.1342 95.5377 87.1342H91.9179V92.3563H95.5575ZM106.669 83.91C106.906 83.91 107.084 83.9298 107.183 83.9496V85.5122C107.064 85.4924 106.886 85.4924 106.688 85.4924C105.066 85.4924 104.137 86.6397 104.137 88.598V93.7805H102.396V84.0287H104.018V85.7496C104.453 84.7012 105.304 83.91 106.669 83.91ZM112.711 94.0574C109.922 94.0574 108.004 91.9607 108.004 88.9145C108.004 85.8485 109.922 83.732 112.711 83.732C115.501 83.732 117.439 85.8485 117.439 88.9145C117.439 91.9607 115.501 94.0574 112.711 94.0574ZM112.711 92.6925C114.531 92.6925 115.659 91.1694 115.659 88.9145C115.659 86.6595 114.531 85.0968 112.711 85.0968C110.892 85.0968 109.784 86.6595 109.784 88.9145C109.784 91.1694 110.892 92.6925 112.711 92.6925ZM130.079 84.0089H131.86L129.189 93.7805H127.093L125.115 86.165L123.176 93.7805H121.079L118.409 84.0089H120.229L122.207 92.2771L124.323 84.0089H125.985L128.082 92.2969L130.079 84.0089ZM136.936 94.0574C134.622 94.0574 132.94 92.7914 132.802 90.8529H134.523C134.661 92.0596 135.789 92.7519 136.956 92.7519C138.182 92.7519 139.092 92.1189 139.092 91.0705C139.092 90.0222 138.242 89.7255 136.521 89.3892C133.949 88.8947 133.138 88.0639 133.138 86.6199C133.138 85.0375 134.562 83.7122 136.738 83.7122C138.677 83.7122 140.319 84.8001 140.477 86.5804H138.815C138.657 85.6902 137.866 85.0177 136.699 85.0177C135.472 85.0177 134.82 85.6705 134.82 86.5012C134.82 87.3518 135.532 87.7079 137.213 88.0243C139.804 88.4991 140.773 89.3299 140.773 90.9518C140.773 92.8112 139.231 94.0574 136.936 94.0574ZM150.922 88.4793L150.883 89.2112H143.703C143.801 91.1497 144.731 92.6925 146.689 92.6925C147.777 92.6925 148.707 92.1387 149.083 90.8727H150.843C150.369 92.7914 148.845 94.0574 146.689 94.0574C143.762 94.0574 142.001 92.02 142.001 88.9738C142.001 85.9078 143.742 83.732 146.551 83.732C149.201 83.732 150.922 85.6507 150.922 88.4793ZM146.531 85.0573C145.008 85.0573 143.999 86.1452 143.762 87.9452H149.182C149.103 86.2243 148.133 85.0573 146.531 85.0573ZM161.72 85.2749H159.841V91.3079C159.841 92.0002 160.058 92.4354 161.087 92.4354C161.304 92.4354 161.522 92.4156 161.72 92.376V93.7805C161.502 93.82 161.186 93.8596 160.77 93.8596C158.614 93.8596 158.1 92.8112 158.1 91.3277V85.2749H156.557V84.0287H158.1V80.7847H159.841V84.0287H161.72V85.2749ZM171.669 88.4793L171.629 89.2112H164.449C164.548 91.1497 165.477 92.6925 167.436 92.6925C168.524 92.6925 169.453 92.1387 169.829 90.8727H171.59C171.115 92.7914 169.592 94.0574 167.436 94.0574C164.508 94.0574 162.748 92.02 162.748 88.9738C162.748 85.9078 164.488 83.732 167.297 83.732C169.948 83.732 171.669 85.6507 171.669 88.4793ZM167.277 85.0573C165.754 85.0573 164.746 86.1452 164.508 87.9452H169.928C169.849 86.2243 168.88 85.0573 167.277 85.0573ZM183.703 83.732C185.76 83.732 186.868 85.0771 186.868 87.1738V93.7805H185.127V87.5496C185.127 86.0067 184.514 85.1166 183.268 85.1166C181.962 85.1166 181.131 86.1848 181.131 87.6485V93.7805H179.391V87.4705C179.391 86.0661 178.837 85.1166 177.531 85.1166C176.325 85.1166 175.454 86.1254 175.454 87.6881V93.7805H173.714V84.0287H175.336V85.3935C175.83 84.4243 176.8 83.732 178.066 83.732C179.45 83.732 180.4 84.4243 180.835 85.4529C181.349 84.5034 182.338 83.732 183.703 83.732ZM194.246 83.7715C196.679 83.7715 198.4 85.8089 198.4 88.9145C198.4 92.0002 196.64 94.0376 194.226 94.0376C192.763 94.0376 191.734 93.4244 191.101 92.3563V97.3409H189.36V84.0287H190.982V85.7496C191.596 84.5034 192.684 83.7715 194.246 83.7715ZM193.89 92.6332C195.512 92.6332 196.62 91.1497 196.62 88.9145C196.62 86.6595 195.552 85.1364 193.91 85.1364C192.248 85.1364 191.022 86.521 191.022 88.9145C191.022 91.3079 192.268 92.6332 193.89 92.6332ZM202.131 79.7363V93.7805H200.39V79.7363H202.131ZM208.357 83.7122C210.83 83.7122 212.215 85.0771 212.215 87.2133V93.7805H210.612V92.4749C210.039 93.4837 208.971 94.0772 207.566 94.0772C205.786 94.0772 204.243 93.0288 204.243 91.1694C204.243 89.0727 205.964 87.8661 210.533 87.7474V87.2133C210.533 85.7496 209.703 85.0177 208.357 85.0177C206.973 85.0177 206.28 85.888 206.182 86.8177H204.48C204.678 85.1364 206.043 83.7122 208.357 83.7122ZM207.922 92.7717C209.406 92.7717 210.533 91.8222 210.533 90.22V88.954C207.151 89.0331 205.924 89.8046 205.924 91.1101C205.924 92.0793 206.755 92.7717 207.922 92.7717ZM218.627 85.2749H216.748V91.3079C216.748 92.0002 216.966 92.4354 217.994 92.4354C218.212 92.4354 218.429 92.4156 218.627 92.376V93.7805C218.41 93.82 218.093 93.8596 217.678 93.8596C215.522 93.8596 215.007 92.8112 215.007 91.3277V85.2749H213.465V84.0287H215.007V80.7847H216.748V84.0287H218.627V85.2749ZM228.576 88.4793L228.537 89.2112H221.356C221.455 91.1497 222.385 92.6925 224.343 92.6925C225.431 92.6925 226.361 92.1387 226.737 90.8727H228.497C228.022 92.7914 226.499 94.0574 224.343 94.0574C221.416 94.0574 219.655 92.02 219.655 88.9738C219.655 85.9078 221.396 83.732 224.205 83.732C226.855 83.732 228.576 85.6507 228.576 88.4793ZM224.185 85.0573C222.662 85.0573 221.653 86.1452 221.416 87.9452H226.835C226.756 86.2243 225.787 85.0573 224.185 85.0573ZM233.984 94.0574C231.67 94.0574 229.988 92.7914 229.85 90.8529H231.571C231.709 92.0596 232.837 92.7519 234.004 92.7519C235.23 92.7519 236.14 92.1189 236.14 91.0705C236.14 90.0222 235.289 89.7255 233.569 89.3892C230.997 88.8947 230.186 88.0639 230.186 86.6199C230.186 85.0375 231.61 83.7122 233.786 83.7122C235.725 83.7122 237.366 84.8001 237.525 86.5804H235.863C235.705 85.6902 234.914 85.0177 233.747 85.0177C232.52 85.0177 231.867 85.6705 231.867 86.5012C231.867 87.3518 232.58 87.7079 234.261 88.0243C236.852 88.4991 237.821 89.3299 237.821 90.9518C237.821 92.8112 236.279 94.0574 233.984 94.0574Z" fill="black"/>
<path fill-rule="evenodd" clip-rule="evenodd" d="M196.363 93.5094C195.962 93.0022 195.475 91.9651 194.607 90.7062C194.116 89.9941 192.896 88.6533 192.533 87.9723C192.218 87.3704 192.252 87.1005 192.327 86.6018C192.46 85.7145 193.37 85.0236 194.34 85.1168C195.074 85.1861 195.695 85.6707 196.255 86.1285C196.592 86.404 197.008 86.9395 197.258 87.2418C197.488 87.5188 197.545 87.6332 197.79 87.961C198.115 88.3948 198.217 88.6095 198.093 88.132C197.993 87.4312 197.829 86.2344 197.591 85.1762C197.41 84.3737 197.367 84.2479 197.194 83.6319C197.012 82.9763 196.919 82.5171 196.748 81.822C196.629 81.3303 196.416 80.3257 196.358 79.7606C196.277 78.9877 196.235 77.7274 196.731 77.1481C197.119 76.6946 198.011 76.5576 198.563 76.8373C199.287 77.2032 199.698 78.2544 199.886 78.6741C200.223 79.4286 200.433 80.3003 200.615 81.4447C200.847 82.9014 201.273 84.9233 201.287 85.3486C201.321 84.8272 201.191 83.7294 201.282 83.2292C201.364 82.7757 201.745 82.2487 202.223 82.106C202.627 81.9859 203.1 81.9421 203.517 82.0283C203.959 82.1187 204.425 82.4352 204.599 82.7333C205.111 83.6149 205.121 85.4164 205.142 85.3203C205.263 84.7891 205.242 83.5839 205.543 83.0823C205.741 82.7517 206.245 82.4535 206.514 82.4055C206.929 82.332 207.439 82.3094 207.876 82.3942C208.228 82.4634 208.704 82.8817 208.832 83.0823C209.14 83.5683 209.315 84.9431 209.368 85.4249C209.389 85.6241 209.472 84.871 209.782 84.385C210.355 83.4821 212.386 83.3069 212.463 85.2878C212.499 86.2118 212.492 86.1695 212.492 86.7911C212.492 87.5216 212.475 87.961 212.435 88.4894C212.391 89.0546 212.27 90.3318 212.093 90.9507C211.972 91.376 211.569 92.3325 211.172 92.9061C211.172 92.9061 209.655 94.6722 209.489 95.4677C209.323 96.2617 209.378 96.2674 209.345 96.8311C209.313 97.3935 209.516 98.1338 209.516 98.1338C209.516 98.1338 208.383 98.2808 207.773 98.1833C207.22 98.0942 206.536 96.995 206.36 96.6588C206.117 96.1953 205.598 96.2843 205.396 96.6263C205.078 97.1674 204.394 98.138 203.911 98.1988C202.967 98.3175 201.009 98.2426 199.476 98.2271C199.476 98.2271 199.737 96.7986 199.155 96.3084C198.724 95.9424 197.983 95.2006 197.539 94.8107L196.363 93.5094Z" fill="white"/>
<path fill-rule="evenodd" clip-rule="evenodd" d="M196.363 93.5094C195.962 93.0022 195.475 91.9651 194.607 90.7062C194.116 89.9941 192.896 88.6533 192.533 87.9723C192.218 87.3704 192.252 87.1005 192.327 86.6018C192.46 85.7145 193.37 85.0236 194.34 85.1168C195.074 85.1861 195.695 85.6707 196.255 86.1285C196.592 86.404 197.008 86.9395 197.258 87.2418C197.488 87.5188 197.545 87.6332 197.79 87.961C198.115 88.3948 198.217 88.6095 198.093 88.132C197.993 87.4312 197.829 86.2344 197.591 85.1762C197.41 84.3737 197.367 84.2479 197.194 83.6319C197.012 82.9763 196.919 82.5171 196.748 81.822C196.629 81.3303 196.416 80.3257 196.358 79.7606C196.277 78.9877 196.235 77.7274 196.731 77.1481C197.119 76.6946 198.011 76.5576 198.563 76.8373C199.287 77.2032 199.698 78.2544 199.886 78.6741C200.223 79.4286 200.433 80.3003 200.615 81.4447C200.847 82.9014 201.273 84.9233 201.287 85.3486C201.321 84.8272 201.191 83.7294 201.282 83.2292C201.364 82.7757 201.745 82.2487 202.223 82.106C202.627 81.9859 203.1 81.9421 203.517 82.0283C203.959 82.1187 204.425 82.4352 204.599 82.7333C205.111 83.6149 205.121 85.4164 205.142 85.3203C205.263 84.7891 205.242 83.5839 205.543 83.0823C205.741 82.7517 206.245 82.4535 206.514 82.4055C206.929 82.332 207.439 82.3094 207.876 82.3942C208.228 82.4634 208.704 82.8817 208.832 83.0823C209.14 83.5683 209.315 84.9431 209.368 85.4249C209.389 85.6241 209.472 84.871 209.782 84.385C210.355 83.4821 212.386 83.3069 212.463 85.2878C212.499 86.2118 212.492 86.1695 212.492 86.7911C212.492 87.5216 212.475 87.961 212.435 88.4894C212.391 89.0546 212.27 90.3318 212.093 90.9507C211.972 91.376 211.569 92.3325 211.172 92.9061C211.172 92.9061 209.655 94.6722 209.489 95.4677C209.323 96.2617 209.378 96.2674 209.345 96.8311C209.313 97.3935 209.516 98.1338 209.516 98.1338C209.516 98.1338 208.383 98.2808 207.773 98.1833C207.22 98.0942 206.536 96.995 206.36 96.6588C206.117 96.1953 205.598 96.2843 205.396 96.6263C205.078 97.1674 204.394 98.138 203.911 98.1988C202.967 98.3175 201.009 98.2426 199.476 98.2271C199.476 98.2271 199.737 96.7986 199.155 96.3084C198.724 95.9424 197.983 95.2006 197.539 94.8107L196.363 93.5094Z" stroke="black" stroke-width="1.05967" stroke-linecap="round" stroke-linejoin="round"/>
<path d="M207.999 94.0115V89.1243" stroke="black" stroke-width="1.05967" stroke-linecap="round"/>
<path d="M205.151 94.0257L205.128 89.1187" stroke="black" stroke-width="1.05967" stroke-linecap="round"/>
<path d="M202.331 89.1656L202.36 94.0062" stroke="black" stroke-width="1.05967" stroke-linecap="round"/>
</g>
<g clip-path="url(#clip2_4_1675)">
<path d="M56.9774 153.696H75.0579C75.4743 153.696 75.8243 153.346 75.8243 152.93C75.8243 152.513 75.4743 152.173 75.0579 152.173H56.9774C56.5611 152.173 56.2205 152.513 56.2205 152.93C56.2205 153.346 56.5611 153.696 56.9774 153.696Z" fill="black"/>
<path d="M60.856 149.853L63.9972 148.556C64.2337 148.462 64.3472 148.377 64.4892 148.235L73.5436 139.247C74.433 138.367 74.4236 137.335 73.5247 136.427L71.5379 134.421C70.6296 133.522 69.5983 133.504 68.709 134.383L59.645 143.372C59.5031 143.504 59.4179 143.608 59.3233 143.845L57.9987 146.986C57.8 147.459 57.8473 147.932 58.2069 148.292L59.5504 149.645C59.9004 149.995 60.3735 150.061 60.856 149.853ZM60.7141 148.386C60.5249 148.452 60.383 148.452 60.2127 148.282L59.5693 147.639C59.399 147.468 59.399 147.317 59.4747 147.147L60.6479 144.394L69.6645 135.443C69.9389 135.188 70.2606 135.169 70.516 135.424L72.5124 137.439C72.7678 137.704 72.7489 138.026 72.484 138.291L63.4673 147.241L60.7141 148.386ZM57.1661 150.326H58.3109C58.5758 150.326 58.6894 150.278 58.8975 150.108L59.7869 149.427L58.4245 148.036L56.8917 149.654C56.6079 149.947 56.7498 150.326 57.1661 150.326ZM59.7869 144.394L63.6566 148.282L64.5459 147.402L60.6763 143.504L59.7869 144.394ZM67.6398 136.607L71.5095 140.495L72.3989 139.625L68.5292 135.727L67.6398 136.607Z" fill="black"/>
<path d="M95.7156 152.335C91.7595 152.335 89.3661 149.15 89.3661 145.016C89.3661 140.862 91.7595 137.678 95.7156 137.678C98.564 137.678 100.76 139.438 101.215 141.891H99.2959C98.7816 140.21 97.575 139.201 95.676 139.201C93.0057 139.201 91.2452 141.594 91.2452 145.016C91.2452 148.399 93.0057 150.812 95.676 150.812C97.6145 150.812 98.8409 149.704 99.3552 147.904H101.254C100.839 150.476 98.6233 152.335 95.7156 152.335ZM107.325 142.168C107.563 142.168 107.741 142.188 107.839 142.207V143.77C107.721 143.75 107.543 143.75 107.345 143.75C105.723 143.75 104.793 144.898 104.793 146.856V152.038H103.053V142.286H104.675V144.007C105.11 142.959 105.96 142.168 107.325 142.168ZM117.581 146.737L117.542 147.469H110.361C110.46 149.407 111.39 150.95 113.348 150.95C114.436 150.95 115.366 150.396 115.742 149.131H117.502C117.028 151.049 115.504 152.315 113.348 152.315C110.421 152.315 108.66 150.278 108.66 147.232C108.66 144.166 110.401 141.99 113.21 141.99C115.86 141.99 117.581 143.908 117.581 146.737ZM113.19 143.315C111.667 143.315 110.658 144.403 110.421 146.203H115.841C115.762 144.482 114.792 143.315 113.19 143.315ZM123.151 141.97C125.623 141.97 127.008 143.335 127.008 145.471V152.038H125.406V150.733C124.832 151.742 123.764 152.335 122.359 152.335C120.579 152.335 119.036 151.287 119.036 149.427C119.036 147.331 120.757 146.124 125.326 146.005V145.471C125.326 144.007 124.496 143.276 123.151 143.276C121.766 143.276 121.074 144.146 120.975 145.076H119.274C119.471 143.394 120.836 141.97 123.151 141.97ZM122.715 151.029C124.199 151.029 125.326 150.08 125.326 148.478V147.212C121.944 147.291 120.718 148.062 120.718 149.368C120.718 150.337 121.548 151.029 122.715 151.029ZM133.42 143.533H131.541V149.566C131.541 150.258 131.759 150.693 132.787 150.693C133.005 150.693 133.223 150.673 133.42 150.634V152.038C133.203 152.078 132.886 152.117 132.471 152.117C130.315 152.117 129.801 151.069 129.801 149.585V143.533H128.258V142.286H129.801V139.043H131.541V142.286H133.42V143.533ZM143.369 146.737L143.33 147.469H136.149C136.248 149.407 137.178 150.95 139.136 150.95C140.224 150.95 141.154 150.396 141.53 149.131H143.29C142.816 151.049 141.292 152.315 139.136 152.315C136.209 152.315 134.448 150.278 134.448 147.232C134.448 144.166 136.189 141.99 138.998 141.99C141.648 141.99 143.369 143.908 143.369 146.737ZM138.978 143.315C137.455 143.315 136.446 144.403 136.209 146.203H141.629C141.55 144.482 140.58 143.315 138.978 143.315ZM154.602 141.99C156.798 141.99 157.965 143.434 157.965 145.59V152.038H156.224V145.966C156.224 144.245 155.433 143.394 154.088 143.394C152.743 143.394 151.714 144.541 151.714 145.985V152.038H149.973V142.286H151.595V143.711C152.149 142.662 153.197 141.99 154.602 141.99ZM168.81 146.737L168.77 147.469H161.59C161.689 149.407 162.618 150.95 164.577 150.95C165.665 150.95 166.594 150.396 166.97 149.131H168.731C168.256 151.049 166.733 152.315 164.577 152.315C161.649 152.315 159.889 150.278 159.889 147.232C159.889 144.166 161.629 141.99 164.438 141.99C167.089 141.99 168.81 143.908 168.81 146.737ZM164.418 143.315C162.895 143.315 161.887 144.403 161.649 146.203H167.069C166.99 144.482 166.021 143.315 164.418 143.315ZM181.597 142.267H183.378L180.707 152.038H178.611L176.633 144.423L174.694 152.038H172.597L169.927 142.267H171.747L173.725 150.535L175.841 142.267H177.503L179.6 150.555L181.597 142.267Z" fill="black"/>
</g>
</g>
</g>
</g>
<defs>
<filter id="filter0_dd_4_1675" x="9.39375" y="40.6969" width="384.306" height="173.031" filterUnits="userSpaceOnUse" color-interpolation-filters="sRGB">
<feFlood flood-opacity="0" result="BackgroundImageFix"/>
<feColorMatrix in="SourceAlpha" type="matrix" values="0 0 0 0 0 0 0 0 0 0 0 0 0 0 0 0 0 0 127 0" result="hardAlpha"/>
<feOffset dy="11.3031"/>
<feGaussianBlur stdDeviation="11.3031"/>
<feComposite in2="hardAlpha" operator="out"/>
<feColorMatrix type="matrix" values="0 0 0 0 0 0 0 0 0 0 0 0 0 0 0 0 0 0 0.08 0"/>
<feBlend mode="normal" in2="BackgroundImageFix" result="effect1_dropShadow_4_1675"/>
<feColorMatrix in="SourceAlpha" type="matrix" values="0 0 0 0 0 0 0 0 0 0 0 0 0 0 0 0 0 0 127 0" result="hardAlpha"/>
<feMorphology radius="1.41289" operator="dilate" in="SourceAlpha" result="effect2_dropShadow_4_1675"/>
<feOffset/>
<feComposite in2="hardAlpha" operator="out"/>
<feColorMatrix type="matrix" values="0 0 0 0 0 0 0 0 0 0 0 0 0 0 0 0 0 0 0.04 0"/>
<feBlend mode="normal" in2="effect1_dropShadow_4_1675" result="effect2_dropShadow_4_1675"/>
<feBlend mode="normal" in="SourceGraphic" in2="effect2_dropShadow_4_1675" result="shape"/>
</filter>
<linearGradient id="paint0_linear_4_1675" x1="159" y1="242" x2="159" y2="-112" gradientUnits="userSpaceOnUse">
<stop offset="0.117151" stop-color="#F9F9F9"/>
<stop offset="0.575932" stop-color="#00C6EE"/>
<stop offset="1" stop-color="#0058F4"/>
</linearGradient>
<clipPath id="clip0_4_1675">
<rect width="318" height="242" fill="white"/>
</clipPath>
<clipPath id="clip1_4_1675">
<rect x="37.6516" y="57.6516" width="327.791" height="58.2578" rx="8.47734" fill="white"/>
</clipPath>
<clipPath id="clip2_4_1675">
<rect x="37.6515" y="115.909" width="327.791" height="58.2578" rx="8.47734" fill="white"/>
</clipPath>
</defs>
</svg>
