<svg width="124" height="118" viewBox="0 0 124 118" fill="none" xmlns="http://www.w3.org/2000/svg">
<rect width="124" height="118" rx="20" fill="#F9F9FB"/>
<path d="M58.2975 55.1939C58.2975 57.3736 56.6702 59.0611 54.802 59.0611C52.9236 59.0611 51.2964 57.3736 51.2964 55.214C51.2964 53.0645 52.9337 51.4372 54.802 51.4372C56.6602 51.4372 58.2975 53.0243 58.2975 55.1939Z" fill="#68677E"/>
<path d="M56.8624 68.1314H49.1971C47.9314 68.1314 47.4292 67.6292 47.4292 66.7151C47.4292 63.9428 50.2618 60.598 54.7919 60.598C56.5073 60.598 57.9792 61.0775 59.1462 61.824C57.48 63.2767 56.5398 65.1314 56.5398 66.7956C56.5398 67.2715 56.636 67.7308 56.8624 68.1314Z" fill="#68677E"/>
<path d="M66.363 58.83C68.5226 58.83 70.3808 56.9014 70.3808 54.3902C70.3808 51.9092 68.5126 50.071 66.363 50.071C64.2134 50.071 62.3451 51.9494 62.3451 54.4103C62.3451 56.9014 64.2034 58.83 66.363 58.83ZM60.045 68.1313H72.671C74.2481 68.1313 74.8105 67.6793 74.8105 66.7954C74.8105 64.2038 71.5662 60.6279 66.3529 60.6279C61.1498 60.6279 57.9054 64.2038 57.9054 66.7954C57.9054 67.6793 58.4679 68.1313 60.045 68.1313Z" fill="#68677E"/>
</svg>
