<svg width="124" height="118" viewBox="0 0 124 118" fill="none" xmlns="http://www.w3.org/2000/svg">
<rect width="124" height="118" rx="20" fill="#F9F9FB"/>
<path fill-rule="evenodd" clip-rule="evenodd" d="M62.6175 83.8258L61.5602 80.6883L60.5029 83.8258L57.1953 83.863L59.8493 85.8394L58.8621 88.9999L61.5602 87.0839L64.2571 88.9999L63.2711 85.8394L65.925 83.863L62.6175 83.8258ZM62.6175 32.1373L61.5602 28.9999L60.5029 32.1373L57.1953 32.1746L59.8493 34.1509L58.8621 37.3115L61.5602 35.3954L64.2571 37.3115L63.2711 34.1509L65.925 32.1746L62.6175 32.1373ZM40.3353 59.4386L37.2007 60.4972L37.1634 63.8083L35.1902 61.1515L32.033 62.1392L33.9463 59.4386L32.033 56.738L35.1902 57.7258L37.1634 55.069L37.2007 58.38L40.3353 59.4386ZM88.8308 60.4972L91.9646 59.4386L88.8308 58.38L88.7935 55.069L86.8194 57.7258L83.6625 56.738L85.5763 59.4386L83.6625 62.1392L86.8194 61.1515L88.7935 63.8083L88.8308 60.4972ZM43.1792 48.8138L39.9361 48.1619L38.2501 51.0107L37.8679 47.7217L34.6406 46.9968L37.6462 45.616L37.3375 42.3192L39.5787 44.7549L42.6149 43.4422L40.9934 46.3283L43.1792 48.8138ZM84.6475 74.0062L87.8903 74.658L85.705 72.1725L87.3264 69.2864L84.2899 70.5991L82.0492 68.1635L82.3579 71.4602L79.3517 72.841L82.579 73.5659L82.9616 76.8549L84.6475 74.0062ZM50.9489 41.0357L48.4668 38.8478L45.5833 40.4711L46.895 37.4311L44.4615 35.1879L47.7544 35.4969L49.1339 32.4872L49.8576 35.7182L53.1437 36.1014L50.2975 37.7892L50.9489 41.0357ZM74.2816 83.6108L76.7638 85.7986L76.1125 82.5522L78.9582 80.8644L75.6724 80.4812L74.9487 77.2502L73.5692 80.2599L70.2763 79.9509L72.7098 82.1941L71.3981 85.234L74.2816 83.6108ZM72.1738 41.0342L72.8251 37.7877L69.9789 36.0999L73.265 35.7168L73.9887 32.4859L75.3683 35.4955L78.6609 35.1865L76.2281 37.4297L77.5393 40.4696L74.6559 38.8465L72.1738 41.0342ZM47.0103 82.5524L46.359 85.7988L48.8411 83.611L51.7246 85.2342L50.4129 82.1942L52.8463 79.951L49.5535 80.2601L48.1739 77.2505L47.4502 80.4814L44.1641 80.8646L47.0103 82.5524ZM79.9425 48.8133L82.1278 46.3277L80.5065 43.4417L83.543 44.7543L85.7836 42.3187L85.4749 45.6155L88.4811 46.9963L85.2539 47.7212L84.8712 51.0101L83.1853 48.1613L79.9425 48.8133ZM37.4155 72.172L35.2297 74.6574L38.4728 74.0055L40.1588 76.8543L40.5411 73.5653L43.7683 72.8405L40.7627 71.4597L41.0714 68.1628L38.8302 70.5985L35.794 69.2858L37.4155 72.172Z" fill="#68677E"/>
<path d="M49.2963 60.1756V58.9841H53.2315V63.6164H51.896L51.7987 62.583C51.2639 63.4583 50.3649 63.811 49.3212 63.811C46.8435 63.811 45.3982 61.9143 45.3982 59.3003C45.3982 56.7228 47.0135 54.7897 49.6005 54.7897C51.4708 54.7897 52.9759 55.8596 53.1953 57.4523H51.3973C51.1304 56.5648 50.5232 55.969 49.4671 55.969C48.1915 55.969 47.1835 57.2091 47.1835 59.3003C47.1835 61.3915 48.155 62.6438 49.6005 62.6438C50.8873 62.6438 51.6404 61.7805 51.6404 60.3824V60.1756H49.2963Z" fill="#68677E"/>
<path d="M55.0037 54.9838H58.3067C60.7843 54.9838 62.2668 56.771 62.2668 59.2999C62.2668 61.8288 60.7843 63.616 58.3067 63.616H55.0037V54.9838ZM58.162 56.1509H56.753V62.4123H58.162C59.4613 62.4123 60.4326 61.306 60.4326 59.2999C60.4326 57.2695 59.4613 56.1509 58.162 56.1509Z" fill="#68677E"/>
<path d="M63.8172 54.9838H67.594C69.3671 54.9838 70.5081 56.005 70.5081 57.6464C70.5081 59.2877 69.3671 60.2968 67.594 60.2968H65.5778V63.616H63.8172V54.9838ZM67.3871 56.1509H65.5654V59.1297H67.3871C68.2126 59.1297 68.7712 58.6191 68.7712 57.6464C68.7712 56.6616 68.2126 56.1509 67.3871 56.1509Z" fill="#68677E"/>
<path d="M76.738 60.0782L78.8515 63.6162H76.8839L74.9039 60.1998H73.7018V63.6162H71.9412V54.984H75.7667C77.4425 54.984 78.657 56.0053 78.657 57.598C78.657 58.8624 77.8914 59.7622 76.738 60.0782ZM73.6894 56.1634V59.0327H75.536C76.349 59.0327 76.9201 58.522 76.9201 57.598C76.9201 56.6619 76.349 56.1634 75.536 56.1634H73.6894Z" fill="#68677E"/>
</svg>
