<svg width="124" height="118" viewBox="0 0 124 118" fill="none" xmlns="http://www.w3.org/2000/svg">
<rect width="124" height="118" rx="20" fill="#F9F9FB"/>
<path d="M75.6071 58.9465C75.6071 51.4733 69.433 45.2858 61.9598 45.2858C54.5 45.2858 48.2857 51.4733 48.2857 58.9465C48.2857 66.4063 54.4866 72.6071 61.9464 72.6071C69.4197 72.6071 75.6071 66.4063 75.6071 58.9465ZM50.5625 58.9465C50.5759 52.6251 55.6384 47.5626 61.9598 47.5626C62.3883 47.5626 62.8169 47.5893 63.2321 47.6429C59.4554 49.9063 57.3393 53.8974 57.3393 58.9465C57.3393 63.9822 59.442 67.9598 63.192 70.2501C62.7768 70.3036 62.3616 70.3305 61.9464 70.3305C55.625 70.3305 50.5491 65.2679 50.5625 58.9465Z" fill="#68677E"/>
</svg>
