<svg width="124" height="118" viewBox="0 0 124 118" fill="none" xmlns="http://www.w3.org/2000/svg">
<rect width="124" height="118" rx="20" fill="#F9F9FB"/>
<path d="M78.1983 58.9264C78.1983 66.3861 72.0109 72.587 64.5376 72.587C62.6472 72.587 60.8376 72.1888 59.1892 71.4728C59.4404 71.1761 59.6722 70.8628 59.8827 70.5349C60.0842 70.2207 60.2661 69.8932 60.4265 69.5542C60.9496 68.448 61.2435 67.2189 61.2435 65.9309C61.2435 65.225 61.1571 64.5378 60.9944 63.8794C62.0637 63.6271 63.2536 63.48 64.5376 63.48C68.5766 63.48 71.6802 64.9281 73.0301 66.5343C74.8309 64.5231 75.9215 61.8603 75.9215 58.9264C75.9215 52.6049 70.8456 47.5424 64.5242 47.5424C58.7488 47.5424 54.0467 51.768 53.2774 57.3187C53.0554 57.3013 52.8312 57.2925 52.6051 57.2925C52.0427 57.2925 51.4918 57.3476 50.9577 57.4528C51.7061 50.657 57.5608 45.2656 64.5242 45.2656C71.9974 45.2656 78.1983 51.4531 78.1983 58.9264Z" fill="#68677E"/>
<path d="M69.1313 56.154C69.1313 59.0334 67.1224 61.2299 64.5376 61.2032C61.9662 61.1763 59.9573 59.0334 59.9439 56.154C59.9305 53.4487 61.9662 51.212 64.5376 51.212C67.109 51.212 69.1313 53.4487 69.1313 56.154Z" fill="#68677E"/>
<path fill-rule="evenodd" clip-rule="evenodd" d="M59.4088 65.931C59.4088 69.6542 56.2883 72.7345 52.6053 72.7345C48.8821 72.7345 45.8017 69.6809 45.8017 65.931C45.8017 62.2078 48.8821 59.1274 52.6053 59.1274C56.3419 59.1274 59.4088 62.1944 59.4088 65.931ZM51.118 69.3193C51.2921 69.5068 51.5733 69.6005 51.7876 69.6005C52.0823 69.6005 52.3501 69.4801 52.4974 69.2792L56.3814 63.8818C56.502 63.7077 56.5688 63.5202 56.5688 63.3729C56.5688 62.9041 56.1805 62.5425 55.7252 62.5425C55.417 62.5425 55.176 62.6899 55.0153 62.9176L51.7608 67.4443L50.1135 65.6631C49.9662 65.5157 49.7519 65.3818 49.4707 65.3818C49.0019 65.3818 48.6269 65.7434 48.6269 66.2256C48.6269 66.4131 48.6939 66.6541 48.8546 66.8282L51.118 69.3193Z" fill="#68677E"/>
</svg>
