<svg width="124" height="118" viewBox="0 0 124 118" fill="none" xmlns="http://www.w3.org/2000/svg">
<rect width="124" height="118" rx="20" fill="#F9F9FB"/>
<path d="M71.3214 69.7054C75.3661 69.7054 78.5267 66.7455 78.5267 63.0625C78.5267 60.2501 76.9063 57.8125 74.2946 56.7143C74.3214 50.7411 70.0223 46.4286 64.5447 46.4286C60.9152 46.4286 58.3304 48.3706 56.7232 50.7143C53.4286 49.75 49.8393 52.2545 49.7723 56.0045C46.7455 56.4866 44.8571 59.192 44.8571 62.4598C44.8571 66.3974 48.2991 69.7054 52.8795 69.7054H71.3214ZM71.3214 67.5492H52.8795C49.5045 67.5492 47.0134 65.192 47.0134 62.4598C47.0134 59.7813 48.6339 57.6518 51.4732 57.6518C51.6607 57.6518 51.7277 57.5581 51.7277 57.3839C51.7277 53.2589 54.7009 52.0402 57.4464 52.9375C57.6071 52.9911 57.7009 52.9509 57.7813 52.8036C59.0803 50.4866 61.0759 48.5848 64.5447 48.5848C68.9375 48.5848 71.9777 52.067 72.2054 56.0447C72.2455 56.6607 72.2054 57.3839 72.1518 58.0134C72.1384 58.1876 72.2054 58.2813 72.3661 58.3214C74.8035 58.8572 76.3705 60.6384 76.3705 63.0625C76.3705 65.5536 74.1741 67.5492 71.3214 67.5492Z" fill="#68677E"/>
<path d="M69.0447 59.6206C69.0447 57.3974 67.2634 55.6295 65.067 55.6295C63.3929 55.6295 61.9197 56.6206 61.3169 58.1876H55.1562C55.0089 58.1876 54.8884 58.2277 54.7545 58.3617L53.7232 59.4063C53.6027 59.5134 53.5893 59.7143 53.7232 59.8349L55.6786 61.817C55.8125 61.9509 56.0134 61.9509 56.1339 61.817L57.3527 60.5849L59.0402 62.2858C59.1473 62.4063 59.3349 62.393 59.4688 62.259L61.1562 60.5982C61.933 62.5268 63.3527 63.5982 65.067 63.5982C67.2634 63.5982 69.0447 61.8305 69.0447 59.6206ZM67.1295 59.6071C67.1295 60.2769 66.5803 60.826 65.9107 60.826C65.2143 60.826 64.6651 60.2769 64.6651 59.6071C64.6651 58.9375 65.2143 58.3884 65.9107 58.3884C66.5803 58.3884 67.1295 58.9242 67.1295 59.6071Z" fill="#68677E"/>
</svg>
