<svg width="124" height="118" viewBox="0 0 124 118" fill="none" xmlns="http://www.w3.org/2000/svg">
<rect width="124" height="118" rx="20" fill="#F9F9FB"/>
<path fill-rule="evenodd" clip-rule="evenodd" d="M52 37.75C50.2051 37.75 48.75 39.2051 48.75 41V51H47.25V41C47.25 38.3766 49.3766 36.25 52 36.25H69.5858C70.0499 36.25 70.495 36.4344 70.8232 36.7626L78.2374 44.1768C78.5656 44.505 78.75 44.9501 78.75 45.4142V51H77.25V46H72C70.3431 46 69 44.6569 69 43V37.75H52ZM48.75 67V77C48.75 78.7949 50.2051 80.25 52 80.25H74C75.7949 80.25 77.25 78.7949 77.25 77V67H78.75V77C78.75 79.6234 76.6234 81.75 74 81.75H52C49.3766 81.75 47.25 79.6234 47.25 77V67H48.75Z" fill="#68677E"/>
<path d="M42.9581 54.488C44.5781 54.488 46.1141 55.352 46.1741 56.912H44.4821C44.4581 56.144 43.8221 55.616 42.8741 55.616C41.9501 55.616 41.4701 56.204 41.4701 56.828C41.4701 57.596 42.1541 57.848 43.5341 58.136C45.5261 58.556 46.4141 59.312 46.4141 60.752C46.4141 62.336 45.1661 63.392 43.1141 63.392C40.9781 63.392 39.6461 62.396 39.5501 60.728H41.3021C41.3981 61.76 42.2981 62.252 43.1861 62.252C44.1101 62.252 44.7701 61.7 44.7701 60.872C44.7701 59.96 43.9781 59.732 42.6581 59.444C40.4381 58.964 39.8381 58.208 39.8381 56.948C39.8381 55.568 40.9901 54.488 42.9581 54.488ZM51.5529 63.38C48.9969 63.38 47.5449 61.424 47.5449 58.94C47.5449 56.432 48.9969 54.488 51.5649 54.488C53.4249 54.488 54.9129 55.616 55.1169 57.164H53.3529C53.0769 56.192 52.4289 55.652 51.5169 55.652C50.1609 55.652 49.3089 56.984 49.3089 58.94C49.3089 60.872 50.1609 62.216 51.5169 62.216C52.4289 62.216 53.1129 61.616 53.3889 60.572H55.1289C54.9849 62.18 53.4609 63.38 51.5529 63.38ZM60.1562 54.488C62.7122 54.488 64.2482 56.408 64.2482 58.94C64.2482 61.472 62.7122 63.392 60.1562 63.392C57.6122 63.392 56.0522 61.472 56.0522 58.94C56.0522 56.408 57.6122 54.488 60.1562 54.488ZM60.1562 55.652C58.7642 55.652 57.8402 56.948 57.8402 58.94C57.8402 60.932 58.7642 62.228 60.1562 62.228C61.5722 62.228 62.4602 60.956 62.4602 58.94C62.4602 56.924 61.5722 55.652 60.1562 55.652ZM72.5565 63.2H70.6125L68.6565 59.828H67.4685V63.2H65.7285V54.68H69.5085C71.1645 54.68 72.3645 55.688 72.3645 57.26C72.3645 58.508 71.6085 59.396 70.4685 59.708L72.5565 63.2ZM69.2805 58.676C70.0845 58.676 70.6485 58.172 70.6485 57.26C70.6485 56.336 70.0845 55.844 69.2805 55.844H67.4565V58.676H69.2805ZM80.3637 54.68H82.9437V63.2H81.2637V56.336L79.2597 63.2H77.6277L75.5637 56.372V63.2H73.9077V54.68H76.5357L78.4557 61.208L80.3637 54.68Z" fill="#68677E"/>
</svg>
