<svg width="124" height="118" viewBox="0 0 124 118" fill="none" xmlns="http://www.w3.org/2000/svg">
<rect width="124" height="118" rx="20" fill="#F9F9FB"/>
<path d="M71.1613 67.826L71.1211 67.6787C70.4649 65.7099 66.9291 63.5536 62.0005 63.5536C57.0854 63.5536 53.5497 65.7099 52.88 67.6653L52.8398 67.826C55.2506 70.2099 59.389 71.6028 62.0005 71.6028C64.6256 71.6028 68.7237 70.2232 71.1613 67.826ZM62.0005 61.2768C64.5853 61.3037 66.5944 59.1072 66.5944 56.2277C66.5944 53.5224 64.572 51.2858 62.0005 51.2858C59.4291 51.2858 57.3934 53.5224 57.4068 56.2277C57.4202 59.1072 59.4291 61.2501 62.0005 61.2768Z" fill="#68677E"/>
<path fill-rule="evenodd" clip-rule="evenodd" d="M73.9838 65.4999C71.6501 69.7417 67.128 72.6607 62.0005 72.6607C56.8801 72.6607 52.3527 69.7391 50.0168 65.4942C50.4359 64.7322 50.9255 64.013 51.4765 63.3459C53.1689 67.49 57.2211 70.384 62.0005 70.384C66.7745 70.384 70.8304 67.4968 72.5301 63.3605C73.0787 64.0251 73.5663 64.7413 73.9838 65.4999Z" fill="#68677E"/>
<path d="M62.0005 71.5407C61.3191 71.5407 60.6494 71.4843 59.9958 71.3759L59.8126 72.4809C58.8991 72.3294 58.0141 72.0851 57.1678 71.758L57.5715 70.7133C56.3085 70.2252 55.1377 69.5356 54.1005 68.6842L53.3898 69.5498C52.6819 68.9687 52.0319 68.3187 51.4507 67.6107L52.3164 66.9001C51.4649 65.8629 50.7753 64.6921 50.2872 63.429L49.2425 63.8328C48.9155 62.9865 48.6711 62.1015 48.5197 61.1879L49.6246 61.0048C49.5163 60.3512 49.4598 59.6815 49.4598 59C49.4598 58.3182 49.516 57.6484 49.6238 56.9949L48.5187 56.8127C48.6694 55.8988 48.9128 55.0138 49.2385 54.1678L50.2837 54.5702C50.7704 53.3061 51.4583 52.1351 52.308 51.0982L51.4416 50.3883C52.0221 49.6799 52.6714 49.0297 53.3788 48.4485L54.0899 49.3138C55.126 48.4624 56.2962 47.7732 57.559 47.2855L57.1555 46.2407C58.0015 45.914 58.8863 45.67 59.7998 45.5188L59.9827 46.6238C60.636 46.5157 61.3056 46.4594 61.9872 46.4594C62.6696 46.4594 63.34 46.5156 63.9943 46.6236L64.1766 45.5185C65.0912 45.6695 65.9771 45.9131 66.824 46.2393L66.4215 47.2844C67.6867 47.7717 68.8591 48.4603 69.8973 49.3109L70.6071 48.4446C71.3162 49.0255 71.9671 49.6754 72.549 50.3835L71.6837 51.0946C72.536 52.1317 73.226 53.3029 73.7143 54.5672L74.7591 54.1637C75.086 55.0104 75.3303 55.896 75.4816 56.8106L74.3766 56.9934C74.4848 57.6474 74.5412 58.3177 74.5412 59C74.5412 59.6818 74.4849 60.3517 74.3767 61.0054L75.4817 61.1883C75.3305 62.1021 75.0864 62.9873 74.7598 63.8337L73.7149 63.4305C73.2272 64.6941 72.5381 65.8653 71.6869 66.9026L72.5527 67.6131C71.9717 68.3212 71.3217 68.9713 70.6135 69.5525L69.903 68.6868C68.866 69.5379 67.6951 70.2271 66.4311 70.7148L66.8343 71.7597C65.9881 72.0863 65.1029 72.3302 64.1888 72.4813L64.0061 71.3763C63.3525 71.4844 62.6825 71.5407 62.0005 71.5407Z" stroke="#68677E" stroke-width="2.24" stroke-dasharray="4 2.5"/>
</svg>
