<svg width="318" height="242" viewBox="0 0 318 242" fill="none" xmlns="http://www.w3.org/2000/svg">
<g clip-path="url(#clip0_4_707)">
<mask id="mask0_4_707" style="mask-type:alpha" maskUnits="userSpaceOnUse" x="0" y="-112" width="318" height="354">
<rect y="-112" width="318" height="354" fill="url(#paint0_linear_4_707)"/>
</mask>
<g mask="url(#mask0_4_707)">
<g filter="url(#filter0_d_4_707)">
<rect x="53.5" y="78" width="211.5" height="40.375" rx="7.6875" fill="#1A1A1A" shape-rendering="crispEdges"/>
<path d="M76.5625 105.234C75.1688 105.234 73.8063 104.821 72.6475 104.047C71.4886 103.272 70.5854 102.172 70.052 100.884C69.5187 99.5965 69.3791 98.1796 69.651 96.8127C69.9229 95.4457 70.5941 94.1901 71.5796 93.2045C72.5651 92.219 73.8208 91.5479 75.1877 91.276C76.5547 91.0041 77.9716 91.1436 79.2592 91.677C80.5469 92.2103 81.6474 93.1136 82.4218 94.2724C83.1961 95.4313 83.6094 96.7937 83.6094 98.1874" stroke="white" stroke-width="1.28125"/>
<path d="M98.0442 91.9519V104.688H96.3401V91.9519H98.0442ZM109.787 95.5752C111.652 95.5752 112.657 96.795 112.657 98.6964V104.688H111.078V99.0372C111.078 97.6381 110.522 96.8309 109.392 96.8309C108.208 96.8309 107.455 97.7995 107.455 99.1269V104.688H105.877V98.9654C105.877 97.6919 105.374 96.8309 104.19 96.8309C103.096 96.8309 102.307 97.7457 102.307 99.1627V104.688H100.729V95.8443H102.199V97.082C102.648 96.2031 103.527 95.5752 104.675 95.5752C105.93 95.5752 106.791 96.2031 107.186 97.1358C107.652 96.2748 108.549 95.5752 109.787 95.5752ZM119.348 95.6111C121.554 95.6111 123.115 97.4587 123.115 100.275C123.115 103.073 121.518 104.921 119.33 104.921C118.003 104.921 117.07 104.365 116.496 103.396V107.916H114.917V95.8443H116.388V97.4049C116.944 96.2748 117.931 95.6111 119.348 95.6111ZM119.025 103.647C120.496 103.647 121.5 102.302 121.5 100.275C121.5 98.23 120.532 96.8488 119.043 96.8488C117.536 96.8488 116.424 98.1044 116.424 100.275C116.424 102.445 117.554 103.647 119.025 103.647ZM128.756 104.939C126.227 104.939 124.487 103.037 124.487 100.275C124.487 97.4946 126.227 95.5752 128.756 95.5752C131.285 95.5752 133.043 97.4946 133.043 100.275C133.043 103.037 131.285 104.939 128.756 104.939ZM128.756 103.701C130.406 103.701 131.429 102.32 131.429 100.275C131.429 98.23 130.406 96.8129 128.756 96.8129C127.106 96.8129 126.101 98.23 126.101 100.275C126.101 102.32 127.106 103.701 128.756 103.701ZM138.726 95.7367C138.942 95.7367 139.103 95.7546 139.193 95.7726V97.1896C139.085 97.1717 138.924 97.1717 138.744 97.1717C137.273 97.1717 136.43 98.2121 136.43 99.9879V104.688H134.852V95.8443H136.323V97.4049C136.717 96.4542 137.489 95.7367 138.726 95.7367ZM144.68 96.9744H142.976V102.445C142.976 103.073 143.174 103.468 144.106 103.468C144.304 103.468 144.501 103.45 144.68 103.414V104.688C144.483 104.723 144.196 104.759 143.819 104.759C141.864 104.759 141.398 103.809 141.398 102.463V96.9744H139.999V95.8443H141.398V92.9026H142.976V95.8443H144.68V96.9744ZM148.027 92.2747V94.1223H146.448V92.2747H148.027ZM148.027 95.8443V104.688H146.448V95.8443H148.027ZM154.552 95.5752C156.543 95.5752 157.601 96.8847 157.601 98.8399V104.688H156.023V99.1807C156.023 97.6201 155.305 96.8488 154.085 96.8488C152.866 96.8488 151.933 97.8892 151.933 99.1986V104.688H150.354V95.8443H151.825V97.1358C152.328 96.1851 153.278 95.5752 154.552 95.5752ZM165.929 95.8443H167.4V104.383C167.4 106.786 165.839 108.149 163.49 108.149C161.373 108.149 159.974 107.055 159.651 105.459H161.283C161.481 106.248 162.126 106.948 163.49 106.948C164.889 106.948 165.857 106.23 165.857 104.436V103.019C165.301 103.988 164.404 104.58 163.077 104.58C160.925 104.58 159.364 102.786 159.364 100.078C159.364 97.4049 160.978 95.5932 163.131 95.5932C164.494 95.5932 165.409 96.2031 165.929 97.2076V95.8443ZM163.364 103.342C164.817 103.342 165.911 102.122 165.911 100.078C165.911 98.0327 164.835 96.8488 163.4 96.8488C161.947 96.8488 160.96 98.1582 160.96 100.078C160.96 102.015 161.929 103.342 163.364 103.342ZM176.912 104.939C174.813 104.939 173.288 103.791 173.163 102.033H174.723C174.849 103.127 175.871 103.755 176.93 103.755C178.042 103.755 178.867 103.181 178.867 102.23C178.867 101.279 178.096 101.01 176.535 100.705C174.203 100.257 173.468 99.5036 173.468 98.1941C173.468 96.7591 174.759 95.5573 176.732 95.5573C178.49 95.5573 179.979 96.5439 180.123 98.1582H178.616C178.472 97.3511 177.755 96.7412 176.697 96.7412C175.584 96.7412 174.992 97.3331 174.992 98.0865C174.992 98.8578 175.638 99.1807 177.163 99.4677C179.513 99.8982 180.392 100.652 180.392 102.122C180.392 103.809 178.993 104.939 176.912 104.939ZM189.2 104.688H187.334L183.639 100.06V104.688H182.06V91.9519H183.639V99.6829L187.083 95.8443H188.913L185.253 99.8085L189.2 104.688ZM192.012 92.2747V94.1223H190.434V92.2747H192.012ZM192.012 95.8443V104.688H190.434V95.8443H192.012ZM195.918 91.9519V104.688H194.34V91.9519H195.918ZM199.825 91.9519V104.688H198.246V91.9519H199.825ZM205.202 104.939C203.103 104.939 201.578 103.791 201.453 102.033H203.013C203.139 103.127 204.161 103.755 205.22 103.755C206.332 103.755 207.157 103.181 207.157 102.23C207.157 101.279 206.386 101.01 204.825 100.705C202.493 100.257 201.758 99.5036 201.758 98.1941C201.758 96.7591 203.049 95.5573 205.022 95.5573C206.78 95.5573 208.269 96.5439 208.413 98.1582H206.906C206.762 97.3511 206.045 96.7412 204.987 96.7412C203.874 96.7412 203.283 97.3331 203.283 98.0865C203.283 98.8578 203.928 99.1807 205.453 99.4677C207.803 99.8982 208.682 100.652 208.682 102.122C208.682 103.809 207.283 104.939 205.202 104.939Z" fill="white"/>
<path d="M224.458 97.8533C225.965 98.3914 226.898 99.5932 226.898 101.19C226.898 103.324 225.248 104.975 222.449 104.975C219.633 104.975 217.983 103.324 217.983 101.19C217.983 99.5932 218.916 98.3914 220.44 97.8533C219.292 97.369 218.539 96.4183 218.539 95.073C218.539 93.1178 220.189 91.6828 222.449 91.6828C224.727 91.6828 226.342 93.1178 226.342 95.073C226.342 96.4183 225.588 97.369 224.458 97.8533ZM222.449 92.9384C221.014 92.9384 220.082 93.8712 220.082 95.073C220.082 96.3466 221.068 97.2614 222.449 97.2614C223.831 97.2614 224.817 96.3466 224.817 95.073C224.817 93.8712 223.884 92.9384 222.449 92.9384ZM222.431 103.665C224.189 103.665 225.248 102.553 225.248 101.118C225.248 99.6112 224.189 98.4811 222.431 98.4811C220.709 98.4811 219.633 99.6112 219.633 101.118C219.633 102.553 220.692 103.665 222.431 103.665ZM232.751 104.975C229.54 104.975 228.302 101.925 228.302 98.3376C228.302 94.6963 229.594 91.7007 232.751 91.7007C235.926 91.7007 237.199 94.7322 237.199 98.3376C237.199 102.033 235.908 104.975 232.751 104.975ZM232.751 103.665C234.867 103.665 235.549 101.261 235.549 98.3376C235.549 95.4138 234.831 93.0102 232.751 93.0102C230.67 93.0102 229.97 95.4317 229.97 98.3376C229.97 101.243 230.67 103.665 232.751 103.665ZM241.686 91.7546C243.264 91.7546 244.466 92.9026 244.466 94.5887C244.466 96.3107 243.264 97.4587 241.686 97.4587C240.125 97.4587 238.906 96.3107 238.906 94.5887C238.906 92.9026 240.125 91.7546 241.686 91.7546ZM248.61 91.9519H250.009L241.399 104.688H240.018L248.61 91.9519ZM241.686 92.7591C240.717 92.7591 240.089 93.5662 240.089 94.5887C240.089 95.647 240.717 96.4183 241.686 96.4183C242.672 96.4183 243.282 95.647 243.282 94.5887C243.282 93.5662 242.672 92.7591 241.686 92.7591ZM248.305 99.2166C249.865 99.2166 251.085 100.365 251.085 102.051C251.085 103.773 249.865 104.921 248.305 104.921C246.726 104.921 245.524 103.773 245.524 102.051C245.524 100.365 246.726 99.2166 248.305 99.2166ZM248.287 100.239C247.318 100.239 246.708 101.028 246.708 102.051C246.708 103.109 247.318 103.88 248.287 103.88C249.273 103.88 249.901 103.109 249.901 102.051C249.901 101.028 249.273 100.239 248.287 100.239Z" fill="white" fill-opacity="0.35"/>
</g>
</g>
</g>
<defs>
<filter id="filter0_d_4_707" x="48.375" y="75.4375" width="221.75" height="50.625" filterUnits="userSpaceOnUse" color-interpolation-filters="sRGB">
<feFlood flood-opacity="0" result="BackgroundImageFix"/>
<feColorMatrix in="SourceAlpha" type="matrix" values="0 0 0 0 0 0 0 0 0 0 0 0 0 0 0 0 0 0 127 0" result="hardAlpha"/>
<feOffset dy="2.5625"/>
<feGaussianBlur stdDeviation="2.5625"/>
<feComposite in2="hardAlpha" operator="out"/>
<feColorMatrix type="matrix" values="0 0 0 0 0 0 0 0 0 0 0 0 0 0 0 0 0 0 0.08 0"/>
<feBlend mode="normal" in2="BackgroundImageFix" result="effect1_dropShadow_4_707"/>
<feBlend mode="normal" in="SourceGraphic" in2="effect1_dropShadow_4_707" result="shape"/>
</filter>
<linearGradient id="paint0_linear_4_707" x1="159" y1="242" x2="159" y2="-112" gradientUnits="userSpaceOnUse">
<stop offset="0.117151" stop-color="#F9F9F9"/>
<stop offset="0.575932" stop-color="#00C6EE"/>
<stop offset="1" stop-color="#0058F4"/>
</linearGradient>
<clipPath id="clip0_4_707">
<rect width="318" height="242" fill="white"/>
</clipPath>
</defs>
</svg>
