<svg width="545" height="330" viewBox="0 0 545 330" fill="none" xmlns="http://www.w3.org/2000/svg">
<g clip-path="url(#clip0_4_24)">
<mask id="mask0_4_24" style="mask-type:alpha" maskUnits="userSpaceOnUse" x="0" y="-136" width="545" height="466">
<rect y="-136" width="545" height="466" fill="black"/>
</mask>
<g mask="url(#mask0_4_24)">
<g filter="url(#filter0_d_4_24)">
<rect x="-202.237" y="86" width="368.22" height="73.9164" rx="35.2587" fill="#F000A0" shape-rendering="crispEdges"/>
<path d="M-167.047 110.834C-162.553 110.834 -159.426 113.375 -159.426 117.771C-159.426 122.168 -162.553 124.709 -167.047 124.709H-172.942V133.958H-176.036V110.834H-167.047ZM-172.975 113.277V122.266H-167.34C-164.442 122.266 -162.487 120.703 -162.487 117.771C-162.487 114.808 -164.442 113.277 -167.34 113.277H-172.975ZM-149.323 117.706C-148.933 117.706 -148.639 117.739 -148.477 117.771V120.344C-148.672 120.312 -148.965 120.312 -149.291 120.312C-151.961 120.312 -153.492 122.201 -153.492 125.425V133.958H-156.358V117.902H-153.688V120.735C-152.971 119.009 -151.571 117.706 -149.323 117.706ZM-139.374 134.414C-143.966 134.414 -147.125 130.962 -147.125 125.946C-147.125 120.898 -143.966 117.413 -139.374 117.413C-134.781 117.413 -131.59 120.898 -131.59 125.946C-131.59 130.962 -134.781 134.414 -139.374 134.414ZM-139.374 132.167C-136.377 132.167 -134.521 129.659 -134.521 125.946C-134.521 122.233 -136.377 119.66 -139.374 119.66C-142.37 119.66 -144.194 122.233 -144.194 125.946C-144.194 129.659 -142.37 132.167 -139.374 132.167ZM-125.472 111.42V114.775H-128.338V111.42H-125.472ZM-129.706 139.951C-130.195 139.951 -130.585 139.886 -130.879 139.821V137.638C-130.683 137.671 -130.358 137.704 -130.097 137.704C-128.631 137.704 -128.306 137.085 -128.306 135.424V117.902H-125.44V135.619C-125.44 138.453 -126.384 139.951 -129.706 139.951ZM-107.469 125.23L-107.534 126.435H-119.357C-119.194 129.627 -117.663 132.167 -114.439 132.167C-112.647 132.167 -111.117 131.255 -110.498 129.171H-107.599C-108.381 132.33 -110.889 134.414 -114.439 134.414C-119.259 134.414 -122.157 131.06 -122.157 126.044C-122.157 120.996 -119.291 117.413 -114.667 117.413C-110.302 117.413 -107.469 120.572 -107.469 125.23ZM-114.699 119.595C-117.207 119.595 -118.868 121.387 -119.259 124.35H-110.335C-110.465 121.517 -112.061 119.595 -114.699 119.595ZM-97.49 134.414C-101.985 134.414 -105.046 131.027 -105.046 125.914C-105.046 120.8 -101.952 117.413 -97.4574 117.413C-94.461 117.413 -91.4973 119.204 -90.9436 122.559H-93.7445C-94.2656 120.768 -95.6335 119.66 -97.5551 119.66C-100.682 119.66 -102.115 122.754 -102.115 125.914C-102.115 129.138 -100.649 132.167 -97.5877 132.167C-95.6661 132.167 -94.2331 131.125 -93.712 129.008H-90.8459C-91.4321 132.688 -94.4936 134.414 -97.49 134.414ZM-80.7851 119.953H-83.8792V129.887C-83.8792 131.027 -83.5209 131.743 -81.8273 131.743C-81.469 131.743 -81.1108 131.711 -80.7851 131.646V133.958C-81.1434 134.023 -81.6645 134.088 -82.3484 134.088C-85.8984 134.088 -86.7452 132.362 -86.7452 129.92V119.953H-89.2856V117.902H-86.7452V112.56H-83.8792V117.902H-80.7851V119.953ZM-53.622 117.413C-50.2348 117.413 -48.4109 119.628 -48.4109 123.08V133.958H-51.277V123.699C-51.277 121.159 -52.2866 119.693 -54.3385 119.693C-56.488 119.693 -57.8559 121.452 -57.8559 123.862V133.958H-60.722V123.569C-60.722 121.256 -61.634 119.693 -63.7835 119.693C-65.7702 119.693 -67.2033 121.354 -67.2033 123.927V133.958H-70.0694V117.902H-67.3987V120.149C-66.5845 118.553 -64.9886 117.413 -62.9042 117.413C-60.6243 117.413 -59.061 118.553 -58.3445 120.247C-57.4977 118.683 -55.8692 117.413 -53.622 117.413ZM-38.2814 117.381C-34.2103 117.381 -31.9305 119.628 -31.9305 123.145V133.958H-34.5685V131.809C-35.513 133.47 -37.2718 134.447 -39.5842 134.447C-42.5154 134.447 -45.0558 132.721 -45.0558 129.659C-45.0558 126.207 -42.2223 124.22 -34.6988 124.025V123.145C-34.6988 120.735 -36.0667 119.53 -38.2814 119.53C-40.5613 119.53 -41.7012 120.963 -41.864 122.494H-44.665C-44.3393 119.726 -42.092 117.381 -38.2814 117.381ZM-38.9979 132.297C-36.5553 132.297 -34.6988 130.734 -34.6988 128.096V126.011C-40.2681 126.142 -42.2874 127.412 -42.2874 129.561C-42.2874 131.157 -40.9195 132.297 -38.9979 132.297ZM-20.2102 117.413C-16.595 117.413 -14.6734 119.791 -14.6734 123.341V133.958H-17.5395V123.959C-17.5395 121.126 -18.8423 119.726 -21.057 119.726C-23.2717 119.726 -24.9652 121.615 -24.9652 123.992V133.958H-27.8313V117.902H-25.1607V120.247C-24.2487 118.52 -22.5226 117.413 -20.2102 117.413ZM-4.53554 117.381C-0.464406 117.381 1.81543 119.628 1.81543 123.145V133.958H-0.822666V131.809C-1.76717 133.47 -3.5259 134.447 -5.8383 134.447C-8.76952 134.447 -11.3099 132.721 -11.3099 129.659C-11.3099 126.207 -8.4764 124.22 -0.952943 124.025V123.145C-0.952943 120.735 -2.32084 119.53 -4.53554 119.53C-6.81538 119.53 -7.95529 120.963 -8.11814 122.494H-10.9191C-10.5934 119.726 -8.34612 117.381 -4.53554 117.381ZM-5.25206 132.297C-2.80938 132.297 -0.952943 130.734 -0.952943 128.096V126.011C-6.52225 126.142 -8.54154 127.412 -8.54154 129.561C-8.54154 131.157 -7.17364 132.297 -5.25206 132.297ZM16.9229 117.902H19.5936V133.405C19.5936 137.769 16.7601 140.244 12.4935 140.244C8.65035 140.244 6.10997 138.257 5.52372 135.359H8.48751C8.84577 136.792 10.0183 138.062 12.4935 138.062C15.0339 138.062 16.7926 136.759 16.7926 133.502V130.929C15.783 132.688 14.1545 133.763 11.7444 133.763C7.83613 133.763 5.00262 130.506 5.00262 125.588C5.00262 120.735 7.93383 117.446 11.8421 117.446C14.3174 117.446 15.9784 118.553 16.9229 120.377V117.902ZM12.2655 131.516C14.9036 131.516 16.8903 129.301 16.8903 125.588C16.8903 121.875 14.9362 119.726 12.3307 119.726C9.69256 119.726 7.90127 122.103 7.90127 125.588C7.90127 129.105 9.66 131.516 12.2655 131.516ZM37.5653 125.23L37.5002 126.435H25.6776C25.8405 129.627 27.3712 132.167 30.5956 132.167C32.3869 132.167 33.9176 131.255 34.5364 129.171H37.4351C36.6534 132.33 34.1456 134.414 30.5956 134.414C25.7753 134.414 22.8767 131.06 22.8767 126.044C22.8767 120.996 25.7428 117.413 30.3676 117.413C34.7318 117.413 37.5653 120.572 37.5653 125.23ZM30.335 119.595C27.8272 119.595 26.1662 121.387 25.7753 124.35H34.6993C34.569 121.517 32.9731 119.595 30.335 119.595ZM57.3801 117.413C60.7672 117.413 62.5911 119.628 62.5911 123.08V133.958H59.725V123.699C59.725 121.159 58.7154 119.693 56.6635 119.693C54.514 119.693 53.1461 121.452 53.1461 123.862V133.958H50.28V123.569C50.28 121.256 49.3681 119.693 47.2185 119.693C45.2318 119.693 43.7988 121.354 43.7988 123.927V133.958H40.9327V117.902H43.6033V120.149C44.4176 118.553 46.0135 117.413 48.0979 117.413C50.3777 117.413 51.941 118.553 52.6575 120.247C53.5043 118.683 55.1328 117.413 57.3801 117.413ZM80.4395 125.23L80.3743 126.435H68.5518C68.7146 129.627 70.2454 132.167 73.4697 132.167C75.261 132.167 76.7917 131.255 77.4106 129.171H80.3092C79.5275 132.33 77.0197 134.414 73.4697 134.414C68.6495 134.414 65.7508 131.06 65.7508 126.044C65.7508 120.996 68.6169 117.413 73.2417 117.413C77.606 117.413 80.4395 120.572 80.4395 125.23ZM73.2091 119.595C70.7013 119.595 69.0403 121.387 68.6495 124.35H77.5734C77.4431 121.517 75.8472 119.595 73.2091 119.595ZM91.428 117.413C95.0431 117.413 96.9647 119.791 96.9647 123.341V133.958H94.0986V123.959C94.0986 121.126 92.7959 119.726 90.5812 119.726C88.3665 119.726 86.6729 121.615 86.6729 123.992V133.958H83.8068V117.902H86.4775V120.247C87.3894 118.52 89.1156 117.413 91.428 117.413ZM107.537 119.953H104.443V129.887C104.443 131.027 104.801 131.743 106.494 131.743C106.853 131.743 107.211 131.711 107.537 131.646V133.958C107.178 134.023 106.657 134.088 105.973 134.088C102.423 134.088 101.577 132.362 101.577 129.92V119.953H99.0362V117.902H101.577V112.56H104.443V117.902H107.537V119.953Z" fill="white"/>
<path d="M130.585 132.718C131.297 132.718 131.902 132.372 132.334 131.703L142.201 116.178C142.46 115.747 142.719 115.272 142.719 114.797C142.719 113.825 141.856 113.199 140.97 113.199C140.409 113.199 139.869 113.544 139.459 114.17L130.498 128.551L126.245 123.045C125.727 122.354 125.252 122.181 124.669 122.181C123.719 122.181 122.984 122.937 122.984 123.887C122.984 124.362 123.179 124.815 123.481 125.225L128.749 131.703C129.289 132.415 129.872 132.718 130.585 132.718Z" fill="white"/>
</g>
<g filter="url(#filter1_d_4_24)">
<rect x="184.14" y="86" width="233.22" height="73.9164" rx="35.2587" fill="#0058F4" shape-rendering="crispEdges"/>
<path d="M213.061 110.834V131.483H223.874V133.958H209.967V110.834H213.061ZM239.668 125.23L239.603 126.435H227.78C227.943 129.627 229.474 132.167 232.698 132.167C234.489 132.167 236.02 131.255 236.639 129.171H239.538C238.756 132.33 236.248 134.414 232.698 134.414C227.878 134.414 224.979 131.06 224.979 126.044C224.979 120.996 227.845 117.413 232.47 117.413C236.834 117.413 239.668 120.572 239.668 125.23ZM232.438 119.595C229.93 119.595 228.269 121.387 227.878 124.35H236.802C236.672 121.517 235.076 119.595 232.438 119.595ZM248.838 117.381C252.909 117.381 255.189 119.628 255.189 123.145V133.958H252.551V131.809C251.606 133.47 249.848 134.447 247.535 134.447C244.604 134.447 242.063 132.721 242.063 129.659C242.063 126.207 244.897 124.22 252.42 124.025V123.145C252.42 120.735 251.053 119.53 248.838 119.53C246.558 119.53 245.418 120.963 245.255 122.494H242.454C242.78 119.726 245.027 117.381 248.838 117.381ZM248.121 132.297C250.564 132.297 252.42 130.734 252.42 128.096V126.011C246.851 126.142 244.832 127.412 244.832 129.561C244.832 131.157 246.2 132.297 248.121 132.297ZM270.394 110.834H273.26V133.958H270.589V131.222C269.58 133.209 267.854 134.382 265.248 134.382C261.275 134.382 258.376 131.027 258.376 125.946C258.376 120.833 261.21 117.478 265.216 117.478C267.658 117.478 269.352 118.553 270.394 120.377V110.834ZM265.769 132.069C268.472 132.069 270.492 129.887 270.492 125.946C270.492 122.005 268.472 119.726 265.737 119.726C263.033 119.726 261.275 122.233 261.275 125.946C261.275 129.627 263.099 132.069 265.769 132.069ZM291.225 125.23L291.16 126.435H279.337C279.5 129.627 281.031 132.167 284.255 132.167C286.047 132.167 287.577 131.255 288.196 129.171H291.095C290.313 132.33 287.805 134.414 284.255 134.414C279.435 134.414 276.536 131.06 276.536 126.044C276.536 120.996 279.402 117.413 284.027 117.413C288.391 117.413 291.225 120.572 291.225 125.23ZM283.995 119.595C281.487 119.595 279.826 121.387 279.435 124.35H288.359C288.229 121.517 286.633 119.595 283.995 119.595ZM301.627 117.706C302.018 117.706 302.311 117.739 302.474 117.771V120.344C302.279 120.312 301.986 120.312 301.66 120.312C298.989 120.312 297.458 122.201 297.458 125.425V133.958H294.592V117.902H297.263V120.735C297.98 119.009 299.38 117.706 301.627 117.706ZM310.625 134.414C306.814 134.414 304.046 132.33 303.818 129.138H306.652C306.88 131.125 308.736 132.265 310.658 132.265C312.677 132.265 314.175 131.222 314.175 129.496C314.175 127.77 312.775 127.282 309.941 126.728C305.707 125.914 304.372 124.546 304.372 122.168C304.372 119.563 306.717 117.381 310.299 117.381C313.491 117.381 316.194 119.172 316.455 122.103H313.719C313.458 120.637 312.156 119.53 310.234 119.53C308.215 119.53 307.14 120.605 307.14 121.973C307.14 123.373 308.313 123.959 311.081 124.481C315.347 125.262 316.943 126.63 316.943 129.301C316.943 132.362 314.403 134.414 310.625 134.414ZM327.594 117.413C331.21 117.413 333.131 119.791 333.131 123.341V133.958H330.265V123.959C330.265 121.126 328.962 119.726 326.748 119.726C324.533 119.726 322.839 121.615 322.839 123.992V133.958H319.973V110.834H322.839V119.888C323.784 118.39 325.412 117.413 327.594 117.413ZM340.11 111.42V114.775H337.244V111.42H340.11ZM340.11 117.902V133.958H337.244V117.902H340.11ZM352.381 117.478C356.387 117.478 359.221 120.833 359.221 125.946C359.221 131.027 356.322 134.382 352.348 134.382C349.938 134.382 348.245 133.372 347.203 131.613V139.821H344.337V117.902H347.007V120.735C348.017 118.683 349.808 117.478 352.381 117.478ZM351.795 132.069C354.465 132.069 356.289 129.627 356.289 125.946C356.289 122.233 354.531 119.726 351.827 119.726C349.092 119.726 347.072 122.005 347.072 125.946C347.072 129.887 349.124 132.069 351.795 132.069Z" fill="white"/>
<path d="M381.962 132.718C382.675 132.718 383.279 132.372 383.711 131.703L393.578 116.178C393.837 115.747 394.097 115.272 394.097 114.797C394.097 113.825 393.233 113.199 392.348 113.199C391.786 113.199 391.247 113.544 390.836 114.17L381.876 128.551L377.622 123.045C377.104 122.354 376.629 122.181 376.046 122.181C375.096 122.181 374.362 122.937 374.362 123.887C374.362 124.362 374.556 124.815 374.858 125.225L380.127 131.703C380.667 132.415 381.25 132.718 381.962 132.718Z" fill="white"/>
</g>
<g filter="url(#filter2_d_4_24)">
<rect x="435.517" y="86" width="281.22" height="73.9164" rx="35.2587" fill="#D11C52" shape-rendering="crispEdges"/>
<path d="M471.091 134.447C464.577 134.447 460.637 129.203 460.637 122.396C460.637 115.557 464.577 110.313 471.091 110.313C475.781 110.313 479.396 113.212 480.145 117.25H476.986C476.139 114.482 474.153 112.821 471.026 112.821C466.629 112.821 463.731 116.762 463.731 122.396C463.731 127.965 466.629 131.939 471.026 131.939C474.218 131.939 476.237 130.115 477.084 127.151H480.211C479.527 131.385 475.879 134.447 471.091 134.447ZM485.031 139.951C484.51 139.951 483.989 139.886 483.566 139.755V137.476C483.859 137.573 484.315 137.638 484.706 137.638C486.106 137.638 486.757 137.15 487.311 135.359L487.441 134.968L481.579 117.902H484.575L488.874 131.32L493.108 117.902H495.974L489.786 136.043C488.842 138.876 487.539 139.951 485.031 139.951ZM506.769 117.478C510.775 117.478 513.609 120.833 513.609 125.946C513.609 131.027 510.71 134.382 506.737 134.382C504.164 134.382 502.405 133.242 501.395 131.255V133.958H498.725V110.834H501.591V120.344C502.633 118.553 504.359 117.478 506.769 117.478ZM506.183 132.069C508.854 132.069 510.678 129.627 510.678 125.946C510.678 122.233 508.919 119.726 506.216 119.726C503.48 119.726 501.461 122.005 501.461 125.946C501.461 129.887 503.512 132.069 506.183 132.069ZM530.789 125.23L530.724 126.435H518.901C519.064 129.627 520.595 132.167 523.819 132.167C525.611 132.167 527.141 131.255 527.76 129.171H530.659C529.877 132.33 527.369 134.414 523.819 134.414C518.999 134.414 516.1 131.06 516.1 126.044C516.1 120.996 518.966 117.413 523.591 117.413C527.956 117.413 530.789 120.572 530.789 125.23ZM523.559 119.595C521.051 119.595 519.39 121.387 518.999 124.35H527.923C527.793 121.517 526.197 119.595 523.559 119.595ZM541.191 117.706C541.582 117.706 541.875 117.739 542.038 117.771V120.344C541.843 120.312 541.55 120.312 541.224 120.312C538.553 120.312 537.022 122.201 537.022 125.425V133.958H534.156V117.902H536.827V120.735C537.544 119.009 538.944 117.706 541.191 117.706ZM557.727 134.414C553.916 134.414 551.148 132.33 550.92 129.138H553.754C553.982 131.125 555.838 132.265 557.76 132.265C559.779 132.265 561.277 131.222 561.277 129.496C561.277 127.77 559.877 127.282 557.043 126.728C552.809 125.914 551.474 124.546 551.474 122.168C551.474 119.563 553.819 117.381 557.401 117.381C560.593 117.381 563.296 119.172 563.557 122.103H560.821C560.56 120.637 559.258 119.53 557.336 119.53C555.317 119.53 554.242 120.605 554.242 121.973C554.242 123.373 555.415 123.959 558.183 124.481C562.449 125.262 564.045 126.63 564.045 129.301C564.045 132.362 561.505 134.414 557.727 134.414ZM580.756 125.23L580.691 126.435H568.868C569.031 129.627 570.562 132.167 573.786 132.167C575.577 132.167 577.108 131.255 577.727 129.171H580.626C579.844 132.33 577.336 134.414 573.786 134.414C568.966 134.414 566.067 131.06 566.067 126.044C566.067 120.996 568.933 117.413 573.558 117.413C577.922 117.413 580.756 120.572 580.756 125.23ZM573.526 119.595C571.018 119.595 569.357 121.387 568.966 124.35H577.89C577.76 121.517 576.164 119.595 573.526 119.595ZM590.735 134.414C586.24 134.414 583.179 131.027 583.179 125.914C583.179 120.8 586.273 117.413 590.767 117.413C593.764 117.413 596.727 119.204 597.281 122.559H594.48C593.959 120.768 592.591 119.66 590.67 119.66C587.543 119.66 586.11 122.754 586.11 125.914C586.11 129.138 587.576 132.167 590.637 132.167C592.559 132.167 593.992 131.125 594.513 129.008H597.379C596.793 132.688 593.731 134.414 590.735 134.414ZM610.506 117.902H613.372V133.958H610.701V131.581C609.789 133.307 608.063 134.414 605.751 134.414C602.135 134.414 600.214 132.069 600.214 128.519V117.902H603.08V127.9C603.08 130.734 604.383 132.134 606.597 132.134C608.78 132.134 610.506 130.245 610.506 127.868V117.902ZM624.65 117.706C625.04 117.706 625.334 117.739 625.496 117.771V120.344C625.301 120.312 625.008 120.312 624.682 120.312C622.011 120.312 620.481 122.201 620.481 125.425V133.958H617.615V117.902H620.285V120.735C621.002 119.009 622.402 117.706 624.65 117.706ZM631.008 111.42V114.775H628.142V111.42H631.008ZM631.008 117.902V133.958H628.142V117.902H631.008ZM642.14 119.953H639.046V129.887C639.046 131.027 639.404 131.743 641.097 131.743C641.456 131.743 641.814 131.711 642.14 131.646V133.958C641.781 134.023 641.26 134.088 640.576 134.088C637.026 134.088 636.18 132.362 636.18 129.92V119.953H633.639V117.902H636.18V112.56H639.046V117.902H642.14V119.953ZM647.749 139.951C647.228 139.951 646.707 139.886 646.284 139.755V137.476C646.577 137.573 647.033 137.638 647.424 137.638C648.824 137.638 649.476 137.15 650.029 135.359L650.16 134.968L644.297 117.902H647.293L651.593 131.32L655.827 117.902H658.693L652.505 136.043C651.56 138.876 650.257 139.951 647.749 139.951Z" fill="white"/>
</g>
</g>
</g>
<defs>
<filter id="filter0_d_4_24" x="-211.543" y="81.3473" width="386.831" height="92.5273" filterUnits="userSpaceOnUse" color-interpolation-filters="sRGB">
<feFlood flood-opacity="0" result="BackgroundImageFix"/>
<feColorMatrix in="SourceAlpha" type="matrix" values="0 0 0 0 0 0 0 0 0 0 0 0 0 0 0 0 0 0 127 0" result="hardAlpha"/>
<feOffset dy="4.65273"/>
<feGaussianBlur stdDeviation="4.65273"/>
<feComposite in2="hardAlpha" operator="out"/>
<feColorMatrix type="matrix" values="0 0 0 0 0 0 0 0 0 0 0 0 0 0 0 0 0 0 0.08 0"/>
<feBlend mode="normal" in2="BackgroundImageFix" result="effect1_dropShadow_4_24"/>
<feBlend mode="normal" in="SourceGraphic" in2="effect1_dropShadow_4_24" result="shape"/>
</filter>
<filter id="filter1_d_4_24" x="174.835" y="81.3473" width="251.831" height="92.5273" filterUnits="userSpaceOnUse" color-interpolation-filters="sRGB">
<feFlood flood-opacity="0" result="BackgroundImageFix"/>
<feColorMatrix in="SourceAlpha" type="matrix" values="0 0 0 0 0 0 0 0 0 0 0 0 0 0 0 0 0 0 127 0" result="hardAlpha"/>
<feOffset dy="4.65273"/>
<feGaussianBlur stdDeviation="4.65273"/>
<feComposite in2="hardAlpha" operator="out"/>
<feColorMatrix type="matrix" values="0 0 0 0 0 0 0 0 0 0 0 0 0 0 0 0 0 0 0.08 0"/>
<feBlend mode="normal" in2="BackgroundImageFix" result="effect1_dropShadow_4_24"/>
<feBlend mode="normal" in="SourceGraphic" in2="effect1_dropShadow_4_24" result="shape"/>
</filter>
<filter id="filter2_d_4_24" x="426.212" y="81.3473" width="299.831" height="92.5273" filterUnits="userSpaceOnUse" color-interpolation-filters="sRGB">
<feFlood flood-opacity="0" result="BackgroundImageFix"/>
<feColorMatrix in="SourceAlpha" type="matrix" values="0 0 0 0 0 0 0 0 0 0 0 0 0 0 0 0 0 0 127 0" result="hardAlpha"/>
<feOffset dy="4.65273"/>
<feGaussianBlur stdDeviation="4.65273"/>
<feComposite in2="hardAlpha" operator="out"/>
<feColorMatrix type="matrix" values="0 0 0 0 0 0 0 0 0 0 0 0 0 0 0 0 0 0 0.08 0"/>
<feBlend mode="normal" in2="BackgroundImageFix" result="effect1_dropShadow_4_24"/>
<feBlend mode="normal" in="SourceGraphic" in2="effect1_dropShadow_4_24" result="shape"/>
</filter>
<clipPath id="clip0_4_24">
<rect width="545" height="330" fill="white"/>
</clipPath>
</defs>
</svg>
