<svg width="124" height="118" viewBox="0 0 124 118" fill="none" xmlns="http://www.w3.org/2000/svg">
<rect width="124" height="118" rx="20" fill="#F9F9FB"/>
<g clip-path="url(#clip0_11_129)">
<path d="M81.3539 57.8769L69.0616 51.1115L68.6354 50.8851C68.2875 50.7395 67.9139 50.6648 67.5367 50.6653C67.1694 50.6649 66.8055 50.735 66.4646 50.8718H66.398L65.9319 51.1314L64.0208 52.1969C64.0139 52.2018 64.0083 52.2083 64.0045 52.2158C64.0006 52.2234 63.9986 52.2317 63.9986 52.2402C63.9986 52.2486 64.0006 52.257 64.0045 52.2645C64.0083 52.272 64.0139 52.2785 64.0208 52.2834L64.8066 52.7096L69.4678 55.26L72.2179 56.7582C69.4646 56.9783 66.7902 57.7843 64.3737 59.1221C63.683 59.5196 62.9 59.7285 62.1031 59.7281H61.9765C61.1796 59.7285 60.3966 59.5196 59.7059 59.1221C57.2974 57.7981 54.6349 57.0014 51.895 56.7849L62.0365 51.1847L65.6389 49.187C66.1006 48.881 66.6191 48.6708 67.1636 48.569C67.7081 48.4672 68.2675 48.4759 68.8086 48.5944C69.7369 48.9522 70.6289 49.3982 71.4721 49.9262C71.8713 50.1593 72.3466 50.2243 72.7937 50.1069C73.2408 49.9896 73.6229 49.6994 73.856 49.3003C74.0891 48.9011 74.1542 48.4257 74.0368 47.9787C73.9194 47.5316 73.6292 47.1495 73.2301 46.9164C71.9773 46.0839 70.5893 45.4755 69.1282 45.1185C65.7987 44.5458 63.6146 46.1905 62.0232 47.0362C61.0433 46.2297 59.9028 45.6414 58.6776 45.3107C57.4523 44.98 56.1707 44.9145 54.9181 45.1185C53.457 45.4755 52.069 46.0839 50.8162 46.9164C50.495 47.1127 50.2468 47.4088 50.1095 47.7594C49.9723 48.11 49.9536 48.4959 50.0562 48.8581C50.1588 49.2204 50.3772 49.5391 50.678 49.7656C50.9787 49.9921 51.3453 50.114 51.7218 50.1126C52.0257 50.1111 52.3239 50.0308 52.5875 49.8796C53.4308 49.3516 54.3227 48.9056 55.2511 48.5478C55.8098 48.4186 56.3898 48.4112 56.9517 48.5261C57.5135 48.641 58.0441 48.8755 58.5073 49.2137L42.6657 57.8769C42.4654 57.9822 42.2975 58.1402 42.1802 58.3338C42.0628 58.5274 42.0005 58.7493 41.9998 58.9756V61.1531C42.0022 61.3773 42.0653 61.5968 42.1826 61.7879C42.2999 61.9791 42.4669 62.1348 42.6657 62.2385C43.0719 62.4649 43.1984 62.5781 43.1984 63.3772C43.1785 64.7356 42.2529 72.2934 52.0748 72.2934C60.8978 72.2934 59.7991 63.6369 62.0232 63.7034C64.2472 63.77 63.1485 72.2934 71.9649 72.2934C81.7934 72.2934 80.8678 64.7356 80.8678 63.3705C80.8678 62.5714 80.9477 62.4582 81.3539 62.2385C81.5533 62.1337 81.7205 61.9768 81.8378 61.7845C81.9551 61.5922 82.018 61.3717 82.0198 61.1464V58.9756C82.018 58.7504 81.9551 58.5299 81.8378 58.3376C81.7205 58.1453 81.5533 57.9884 81.3539 57.8836M56.6494 67.0329C55.6706 69.0306 53.9859 69.3702 51.582 69.2703C49.7441 69.1904 48.0661 68.6044 47.2004 67.6322C45.9552 66.2405 46.1084 62.0054 46.5945 61.0665C47.5201 59.2753 56.0568 59.8147 57.1955 62.0987C57.3087 62.3184 58.0678 64.0963 56.6494 67.0329ZM76.8259 67.6322C75.9602 68.6044 74.2888 69.1904 72.4443 69.2703C70.0338 69.3702 68.3558 69.0505 67.3769 67.0329C65.9586 64.1163 66.711 62.3184 66.8309 62.0987C67.9696 59.8147 76.5063 59.2753 77.4252 61.0665C77.9113 62.0054 78.0911 66.2405 76.8192 67.6322" fill="#0062E3"/>
</g>
<defs>
<clipPath id="clip0_11_129">
<rect width="40" height="40" fill="white" transform="translate(41.9998 39)"/>
</clipPath>
</defs>
</svg>
