<svg width="124" height="118" viewBox="0 0 124 118" fill="none" xmlns="http://www.w3.org/2000/svg">
<rect width="124" height="118" rx="20" fill="#F9F9FB"/>
<path d="M78.108 52.4446C77.944 50.1747 77.9171 47.8265 76.5024 46.1811C75.3741 44.8686 74.1408 44.1586 72.6722 43.7325C69.9042 42.9293 67.4543 42.9979 64.6326 42.9196C58.4552 42.7433 52.5276 42.3711 48.7071 44.0312C44.8206 45.3045 44.5612 54.6066 44.7864 58.5317C44.9455 61.3157 44.9063 65.4049 46.1276 68.0028C47.7698 71.4995 51.4189 71.4896 54.8697 71.9108C56.5144 72.1116 61.4948 72.1679 63.2203 72.1728C63.9055 73.2697 65.8146 74.0777 66.6467 74.5798C67.4789 75.0818 70.22 75.782 70.4206 75.1575C70.6213 74.5333 69.3438 73.2845 69.8089 71.5263C72.1192 71.0586 72.7897 71.2816 74.3708 70.782C76.7644 70.023 77.6479 67.1972 78.0664 64.1757C78.4531 61.3868 78.3087 55.2506 78.108 52.4446Z" fill="#EE164F"/>
<path d="M60.6894 60.1399C60.8215 61.08 60.9219 65.2138 61.0639 66.53C61.0859 66.8107 61.1642 66.9695 61.4482 66.9647C61.6736 66.9867 62.0847 66.9964 62.6674 66.9964C63.3552 66.9988 64.0505 66.9792 64.6233 66.9768C65.6098 66.9867 65.135 65.1332 65.1447 64.1176C65.0492 62.1544 64.988 57.3147 64.8803 55.1049C64.8656 54.6411 64.802 51.0418 64.7652 50.2287C64.7456 49.8795 64.8143 49.0957 64.6992 48.8491C64.5596 48.6244 63.9451 48.5561 63.5927 48.5805C62.6821 48.5805 61.9256 48.5903 61.1986 48.7075C60.5499 48.8125 60.3025 49.0591 60.2904 49.6183C60.2855 49.7867 60.3001 50.8831 60.3124 52.0429C60.3247 53.1173 60.3441 54.2576 60.3441 54.8633C60.3197 55.4713 59.2819 55.1562 58.6944 55.2343C57.7347 55.2123 55.3039 55.2929 54.8216 55.3198C54.5278 55.3125 54.4985 55.061 54.4373 54.7728C54.3026 53.4518 54.1435 51.4154 54.0799 50.0285C54.0578 49.2691 54.0187 48.6391 53.7739 48.6C53.1423 48.4828 50.2243 48.5219 50.0578 48.8393C49.911 49.2715 49.9575 50.2946 49.9673 51.032C49.9991 54.7899 50.332 59.3487 50.3859 62.9747C50.425 64.076 50.4495 66.3468 50.452 66.4665C50.4544 66.8449 50.496 66.9451 50.873 66.9841C52.0505 67.0501 53.4899 66.9598 54.6723 66.9915C55.2794 67.0305 54.9856 65.9048 55.0566 65.4556C55.0688 64.4521 55.0248 62.8355 54.9538 61.9712C54.9048 59.9981 54.3712 60.0177 56.3858 59.9177C56.7359 59.8909 58.3882 59.8321 59.3602 59.8103C59.9844 59.859 60.4691 59.5588 60.6894 60.1399Z" fill="white"/>
<path fill-rule="evenodd" clip-rule="evenodd" d="M72.5037 50.0845C72.3782 48.938 71.5428 48.1663 70.4247 48.1663C70.1133 48.1663 69.7923 48.2254 69.4734 48.3438C69.2996 48.4079 69.1402 48.4917 69.0003 48.5977C68.9979 48.5977 68.9955 48.6002 68.993 48.6027C68.3315 49.0908 67.974 49.902 68.061 50.7255C68.1431 51.4923 68.5945 52.1062 69.2971 52.4144C69.2996 52.4144 69.302 52.4169 69.302 52.4169C69.6328 52.5599 70.0409 52.6437 70.4198 52.6437C70.7603 52.6437 71.2458 52.5796 71.6295 52.2714C72.3466 51.692 72.6075 51.0386 72.5037 50.0845Z" fill="white"/>
<path d="M72.5259 58.129C72.5259 57.2463 72.5039 56.621 72.5235 55.7039C72.5992 54.6978 71.5035 54.9129 70.7424 54.8832C70.1568 54.8832 69.5762 54.8955 69.0174 54.8955C68.6686 54.9104 68.5049 54.9276 68.5245 55.2317C68.3367 59.0534 68.5001 61.4956 68.4342 65.1072C68.3781 67.5594 68.449 66.84 70.5642 66.9784C71.0377 66.9859 71.9477 67.0799 72.3111 66.8945C72.4942 66.7684 72.4503 66.5658 72.4942 66.2913C72.4748 62.7465 72.5014 62.4646 72.5259 58.129Z" fill="white"/>
</svg>
