<svg width="124" height="118" viewBox="0 0 124 118" fill="none" xmlns="http://www.w3.org/2000/svg">
<rect width="124" height="118" rx="20" fill="#F9F9FB"/>
<path fill-rule="evenodd" clip-rule="evenodd" d="M74.9273 54.6887C75.2056 54.7332 75.4693 54.7776 75.7148 54.8221L75.7157 54.823C77.5254 55.1525 78.7795 56.8434 78.5718 58.6714C78.4297 59.9158 78.1621 61.8096 77.6906 63.7613C77.3901 65.0028 76.4558 65.9729 75.2722 66.3207V67.7941C75.2722 73.1198 69.8577 76.9865 62.392 77H62.3736H62.3553C54.8895 76.9874 49.475 73.1207 49.475 67.7951V66.3623C48.2189 66.0569 47.217 65.056 46.9039 63.7613C46.4324 61.8096 46.1638 59.9158 46.0228 58.6714C45.8151 56.8434 47.0692 55.1525 48.8779 54.823C49.046 54.7921 49.2247 54.7612 49.4083 54.7313C49.8866 53.1593 50.6479 51.682 51.6615 50.3873C51.5088 49.4134 51.3233 48.2771 51.1185 47.0684C50.988 46.2955 51.3378 45.5341 52.0112 45.1302C52.5784 44.7911 53.2605 44.7718 53.8325 45.0616C53.647 44.4655 53.4721 43.8597 53.3098 43.2529C53.1175 42.5379 53.3784 41.792 53.9736 41.3524C54.5678 40.9128 55.3581 40.8819 55.9852 41.2742C56.8016 41.7843 57.8567 42.4462 59.0055 43.1708C58.9311 42.5524 59.1958 41.9389 59.7098 41.5679C60.2789 41.1563 61.0325 41.1292 61.6296 41.4974C67.3205 45.0075 71.2258 48.7776 71.3891 48.9361C71.4432 48.9873 71.4925 49.0452 71.536 49.109C73.135 50.6839 74.2867 52.5883 74.9273 54.6887ZM54.0103 50.5419C54.0615 50.8713 53.9668 51.2066 53.7504 51.4607L53.7465 51.4626C53.0016 52.339 52.3996 53.338 51.9591 54.4066C53.7291 54.2424 55.847 54.1709 58.1968 54.339C59.219 54.4134 60.1533 54.8617 60.7591 55.5699C61.1784 56.0588 61.4538 56.6472 61.5562 57.2733C61.8209 57.2366 62.1195 57.2202 62.2944 57.2202C62.4693 57.2202 62.7678 57.2366 63.0325 57.2733C63.1359 56.6472 63.4113 56.0598 63.8297 55.5699C64.4364 54.8607 65.3698 54.4124 66.392 54.339C68.6278 54.1786 70.6558 54.2356 72.3717 54.3825C71.7862 52.9689 70.9099 51.6829 69.7766 50.6056C69.7215 50.5535 69.6712 50.4955 69.6278 50.4336C69.0017 49.8462 65.9031 47.0114 61.648 44.2317C61.763 44.6162 61.8866 44.9988 62.0181 45.3737C62.1804 45.8346 62.0316 46.3496 61.648 46.6529C61.2644 46.9563 60.7301 46.9834 60.3176 46.7215C58.7533 45.7254 57.1678 44.7273 55.8856 43.9225C56.2731 45.224 56.6972 46.4394 57.1485 47.5409C57.3311 47.9863 57.2142 48.5022 56.8576 48.8259C56.5011 49.1496 55.9755 49.2153 55.5504 48.9911C55.0209 48.7109 54.3494 48.2732 53.5513 47.6887C53.7272 48.7419 53.8808 49.6984 54.0103 50.5419ZM48.2247 58.4202C48.36 59.6105 48.6151 61.4173 49.0643 63.2675V63.2685C49.1832 63.7593 49.5813 64.1381 50.0788 64.2347C51.6199 64.5333 54.1204 64.7574 57.275 64.1294C57.7156 64.0415 58.0837 63.7255 58.2354 63.3062C58.4683 62.6627 58.8055 61.5671 59.0886 59.996C59.0963 59.8096 59.1349 59.5873 59.1958 59.3748C59.2644 58.9303 59.3282 58.4521 59.3813 57.995C59.4219 57.6434 59.3195 57.2994 59.0944 57.0269C58.8673 56.7516 58.5456 56.5854 58.189 56.5583C57.2943 56.4907 56.3842 56.4559 55.4827 56.4559C52.8335 56.4559 50.645 56.7535 49.2759 57.0028C48.6102 57.1235 48.1484 57.7467 48.2247 58.4202ZM62.3736 74.8222C68.5872 74.8154 73.0944 71.8618 73.0944 67.7941H73.0935V66.6656C72.506 66.7178 71.908 66.7458 71.3012 66.7458C69.8567 66.7458 68.3698 66.598 66.8838 66.3014C65.6886 66.0627 64.6886 65.2048 64.2741 64.0608C64.0103 63.3332 63.6306 62.0985 63.3166 60.3448C63.2306 59.8637 62.8577 59.4917 62.4113 59.4395C62.3359 59.4298 62.2567 59.4298 62.1813 59.4395C61.734 59.4917 61.362 59.8637 61.276 60.3448C60.962 62.0985 60.5823 63.3332 60.3185 64.0608C59.904 65.2048 58.904 66.0627 57.7088 66.3014C55.6538 66.712 53.5948 66.8357 51.6528 66.6782V67.7941C51.6528 71.8628 56.16 74.8164 62.3736 74.8222ZM75.5302 63.2675C75.9785 61.4173 76.2346 59.6105 76.3698 58.4202L76.3708 58.4192C76.4481 57.7458 75.9863 57.1235 75.3196 57.0018C73.9505 56.7525 71.763 56.4549 69.1128 56.4549C68.2113 56.4549 67.3012 56.4888 66.4065 56.5574C66.05 56.5844 65.7282 56.7506 65.5012 57.026C65.2751 57.2994 65.1736 57.6424 65.2142 57.9941C65.2664 58.4511 65.3311 58.9294 65.4007 59.3786C65.4606 59.5864 65.4983 59.8086 65.507 60.0009C65.7891 61.5661 66.1263 62.6627 66.3591 63.3052C66.5118 63.7255 66.8799 64.0405 67.3195 64.1284C70.4732 64.7574 72.9737 64.5323 74.5157 64.2337C75.0133 64.1381 75.4114 63.7584 75.5302 63.2675ZM68.7252 58.4685C67.8875 58.4685 67.2063 59.1497 67.2063 59.9874C67.2063 60.825 67.8875 61.5062 68.7252 61.5062C69.5629 61.5062 70.244 60.825 70.244 59.9874C70.244 59.1497 69.5629 58.4685 68.7252 58.4685ZM55.6633 61.5071C56.501 61.5071 57.1822 60.826 57.1822 59.9883C57.1822 59.1506 56.501 58.4694 55.6633 58.4694C54.8256 58.4694 54.1445 59.1506 54.1445 59.9883C54.1445 60.826 54.8256 61.5071 55.6633 61.5071Z" fill="#FFC300"/>
</svg>
