<svg width="124" height="118" viewBox="0 0 124 118" fill="none" xmlns="http://www.w3.org/2000/svg">
<rect y="-0.000976562" width="124" height="118" rx="20" fill="#F9F9FB"/>
<path d="M70.1924 53.9989H79.8183C80.7277 53.9989 81.465 54.7361 81.465 55.6455V64.4134C81.465 67.7558 78.7555 70.4653 75.4131 70.4653H75.3845C72.0422 70.4657 69.3323 67.7566 69.3319 64.4143C69.3319 64.414 69.3319 64.4137 69.3319 64.4134V54.8595C69.3319 54.3842 69.7172 53.9989 70.1924 53.9989Z" fill="#5059C9"/>
<path d="M76.6984 52.2653C78.8523 52.2653 80.5983 50.5193 80.5983 48.3654C80.5983 46.2115 78.8523 44.4655 76.6984 44.4655C74.5445 44.4655 72.7985 46.2115 72.7985 48.3654C72.7985 50.5193 74.5445 52.2653 76.6984 52.2653Z" fill="#5059C9"/>
<path d="M64.5653 52.2655C67.6765 52.2655 70.1986 49.7434 70.1986 46.6323C70.1986 43.5211 67.6765 40.999 64.5653 40.999C61.4542 40.999 58.9321 43.5211 58.9321 46.6323C58.9321 49.7434 61.4542 52.2655 64.5653 52.2655Z" fill="#7B83EB"/>
<path d="M72.0766 53.9989H56.1874C55.2889 54.0211 54.578 54.7669 54.5989 55.6655V65.6658C54.4734 71.0583 58.7397 75.5332 64.132 75.6652C69.5244 75.5332 73.7907 71.0583 73.6652 65.6658V55.6655C73.686 54.7669 72.9752 54.0211 72.0766 53.9989Z" fill="#7B83EB"/>
<path opacity="0.1" d="M64.9979 53.999V68.0128C64.9936 68.6554 64.6042 69.2327 64.0099 69.4774C63.8207 69.5574 63.6174 69.5987 63.412 69.5987H55.3608C55.2481 69.3127 55.1441 69.0267 55.0574 68.7321C54.7541 67.7376 54.5993 66.7038 54.5981 65.6641V55.663C54.5773 54.7658 55.2869 54.0213 56.1841 53.999H64.9979Z" fill="black"/>
<path opacity="0.2" d="M64.1313 53.999V68.8794C64.1312 69.0848 64.09 69.2882 64.0099 69.4774C63.7653 70.0716 63.1879 70.4611 62.5453 70.4654H55.7681C55.6208 70.1794 55.4821 69.8934 55.3608 69.5987C55.2394 69.3041 55.1441 69.0267 55.0574 68.7321C54.7541 67.7377 54.5993 66.7038 54.5981 65.6641V55.663C54.5773 54.7658 55.2869 54.0213 56.1841 53.999H64.1313Z" fill="black"/>
<path opacity="0.2" d="M64.1313 53.999V67.1461C64.1247 68.0193 63.4185 68.7255 62.5453 68.7321H55.0574C54.7541 67.7377 54.5993 66.7038 54.5981 65.6641V55.663C54.5773 54.7658 55.2869 54.0213 56.1841 53.999H64.1313Z" fill="black"/>
<path opacity="0.2" d="M63.2646 53.999V67.1461C63.258 68.0193 62.5518 68.7255 61.6786 68.7321H55.0574C54.7541 67.7377 54.5993 66.7038 54.5981 65.6641V55.663C54.5773 54.7658 55.2869 54.0213 56.1841 53.999H63.2646Z" fill="black"/>
<path opacity="0.1" d="M64.9987 49.5182V52.2482C64.8514 52.2568 64.7127 52.2655 64.5654 52.2655C64.418 52.2655 64.2794 52.2568 64.132 52.2482C63.8395 52.2287 63.5494 52.1823 63.2654 52.1095C61.5104 51.6939 60.0605 50.4631 59.3655 48.7989C59.2459 48.5194 59.153 48.2292 59.0881 47.9323H63.4127C64.2872 47.9356 64.9954 48.6437 64.9987 49.5182Z" fill="black"/>
<path opacity="0.2" d="M64.1322 50.3849V52.2482C63.8396 52.2288 63.5495 52.1824 63.2655 52.1096C61.5105 51.6939 60.0607 50.4632 59.3656 48.799H62.5462C63.4207 48.8023 64.1288 49.5104 64.1322 50.3849Z" fill="black"/>
<path opacity="0.2" d="M64.1322 50.3849V52.2482C63.8396 52.2288 63.5495 52.1824 63.2655 52.1096C61.5105 51.6939 60.0607 50.4632 59.3656 48.799H62.5462C63.4207 48.8023 64.1288 49.5104 64.1322 50.3849Z" fill="black"/>
<path opacity="0.2" d="M63.2653 50.3849V52.1095C61.5104 51.6939 60.0605 50.4632 59.3654 48.799H61.6794C62.5539 48.8023 63.262 49.5104 63.2653 50.3849Z" fill="black"/>
<path d="M45.7877 48.799H61.6768C62.5542 48.799 63.2654 49.5102 63.2654 50.3875V66.2767C63.2654 67.154 62.5542 67.8652 61.6768 67.8652H45.7877C44.9103 67.8652 44.1991 67.154 44.1991 66.2767V50.3875C44.1991 49.5102 44.9104 48.799 45.7877 48.799Z" fill="url(#paint0_linear_11_124)"/>
<path d="M57.9122 54.8463H54.7359V63.4955H52.7123V54.8463H49.5508V53.1685H57.9122V54.8463Z" fill="white"/>
<defs>
<linearGradient id="paint0_linear_11_124" x1="47.5113" y1="47.5577" x2="59.9532" y2="69.1065" gradientUnits="userSpaceOnUse">
<stop stop-color="#5A62C3"/>
<stop offset="0.5" stop-color="#4D55BD"/>
<stop offset="1" stop-color="#3940AB"/>
</linearGradient>
</defs>
</svg>
