<svg width="124" height="118" viewBox="0 0 124 118" fill="none" xmlns="http://www.w3.org/2000/svg">
<rect width="124" height="118" rx="20" fill="#F9F9FB"/>
<mask id="mask0_11_131" style="mask-type:luminance" maskUnits="userSpaceOnUse" x="46" y="41" width="32" height="12">
<path d="M61.3952 41.0693C64.8027 40.9431 68.1698 41.8412 71.0617 43.6477C73.9536 45.4542 76.2376 48.0861 77.6188 51.2037C77.738 51.4145 77.7825 51.6594 77.7451 51.8987C77.7068 52.1026 77.6033 52.2886 77.4502 52.4286C77.297 52.5686 77.1025 52.655 76.896 52.6749C76.6895 52.6947 76.4821 52.6469 76.3051 52.5386C76.128 52.4304 75.991 52.2675 75.9146 52.0746C74.9809 49.8964 73.5484 47.9682 71.7326 46.4454C69.9167 44.9226 67.7684 43.8479 65.4609 43.3079C63.1804 42.8147 60.8209 42.8141 58.5402 43.3062C55.2656 44.0362 52.3394 45.8651 50.2483 48.4887C49.346 49.5674 48.6141 50.7778 48.078 52.078C47.9852 52.3114 47.8041 52.4988 47.574 52.5996C47.3439 52.7004 47.0834 52.7063 46.8489 52.6162C46.6145 52.526 46.425 52.3471 46.3217 52.1181C46.2184 51.8892 46.2095 51.6287 46.297 51.3932C47.5733 48.4161 49.671 45.8641 52.3449 44.0358C55.0187 42.2074 58.1579 41.1785 61.3952 41.0693Z" fill="white"/>
</mask>
<g mask="url(#mask0_11_131)">
<path d="M86.2997 32.5215H37.6972V61.2192H86.2997V32.5215Z" fill="#F69F1A"/>
</g>
<mask id="mask1_11_131" style="mask-type:luminance" maskUnits="userSpaceOnUse" x="45" y="40" width="34" height="14">
<path d="M76.7974 53.6164C76.4168 53.6153 76.0455 53.4991 75.7322 53.283C75.4189 53.0669 75.1783 52.7611 75.0421 52.4057C73.954 49.8923 72.1633 47.7465 69.8852 46.2261C68.4747 45.2817 66.9045 44.6013 65.2509 44.218C63.0993 43.7557 60.874 43.7568 58.7229 44.2214C55.6552 44.9171 52.9161 46.6372 50.9569 49.0982C50.1171 50.1044 49.4359 51.233 48.9369 52.445C48.8168 52.7403 48.6232 53.0001 48.3746 53.1997C48.126 53.3993 47.8305 53.5322 47.5162 53.5856C47.4092 53.6058 47.3006 53.6155 47.1917 53.6147C46.8856 53.6145 46.5842 53.5399 46.3133 53.3973C46.0424 53.2548 45.8102 53.0486 45.6366 52.7964C45.4631 52.5443 45.3534 52.2537 45.317 51.9498C45.2806 51.6458 45.3187 51.3376 45.4278 51.0516C47.2344 46.843 50.5735 43.4788 54.7684 41.6407C58.9633 39.8026 63.7001 39.6282 68.0188 41.1528C71.2337 42.2982 74.0608 44.3263 76.1758 47.0046C77.097 48.177 77.8685 49.4596 78.4725 50.8227C78.675 51.2178 78.7399 51.6691 78.6569 52.1051C78.5778 52.4969 78.3759 52.8533 78.0805 53.1225C77.7851 53.3918 77.4116 53.56 77.0142 53.6026C76.9423 53.612 76.8699 53.6167 76.7974 53.6164ZM52.4681 45.0956C50.1385 46.8002 48.3068 49.0964 47.1627 51.7466L47.2191 51.7091C47.7939 50.3226 48.5763 49.0317 49.5396 47.8807C50.4144 46.8513 51.396 45.9176 52.4681 45.0956ZM71.8148 45.3125C73.985 46.9885 75.6922 49.19 76.7752 51.709L76.7889 51.733L76.8196 51.7022C76.8111 51.6851 76.7974 51.651 76.7752 51.6015C75.6793 49.1199 73.9728 46.9563 71.8148 45.3125ZM61.9946 41.9931C61.8068 41.9931 61.6172 41.9965 61.4277 42.0033C60.5854 42.0313 59.7467 42.1255 58.9193 42.285C60.3328 42.0356 61.7707 41.9525 63.2035 42.0374C62.804 42.0084 62.401 41.9936 61.9946 41.9931Z" fill="white"/>
</mask>
<g mask="url(#mask1_11_131)">
<path d="M87.2362 31.5862H36.7659V62.1543H87.2362V31.5862Z" fill="#F38B01"/>
</g>
<mask id="mask2_11_131" style="mask-type:luminance" maskUnits="userSpaceOnUse" x="45" y="56" width="34" height="22">
<path d="M78.1631 56.1873H45.8359V77.876H78.1631V56.1873Z" fill="white"/>
</mask>
<g mask="url(#mask2_11_131)">
<mask id="mask3_11_131" style="mask-type:luminance" maskUnits="userSpaceOnUse" x="45" y="55" width="35" height="25">
<path d="M79.4542 55.4927H45.3029V79.3985H79.4542V55.4927Z" fill="white"/>
</mask>
<g mask="url(#mask3_11_131)">
<mask id="mask4_11_131" style="mask-type:luminance" maskUnits="userSpaceOnUse" x="45" y="56" width="34" height="22">
<path d="M45.8378 56.6571C45.9212 56.5255 46.0346 56.4155 46.1688 56.3362C46.303 56.257 46.4541 56.2107 46.6096 56.2012C47.5914 56.1926 48.575 56.1704 49.5551 56.2148C49.79 56.2381 50.0095 56.342 50.1764 56.5088C50.3433 56.6757 50.4471 56.8952 50.4704 57.1301C51.4335 61.0541 52.3812 64.9831 53.3425 68.9088C53.6243 70.1212 53.9675 71.3216 54.1502 72.5545C54.3397 73.661 54.3773 74.7863 54.5583 75.8962C54.7669 74.3049 55.0662 72.7268 55.4548 71.1696C56.7115 66.4858 57.9677 61.802 59.2233 57.1182C59.2792 56.8591 59.4223 56.627 59.6286 56.4608C59.835 56.2945 60.0922 56.2041 60.3572 56.2046C61.45 56.1773 62.5445 56.1961 63.6374 56.1961C63.9336 56.1714 64.2294 56.2487 64.4757 56.4151C64.722 56.5816 64.904 56.8272 64.9915 57.1113C65.9306 60.5264 66.8561 63.9484 67.7902 67.3652C68.4574 69.5535 69.0019 71.7774 69.4209 74.0264C69.5114 74.6531 69.5968 75.2798 69.7266 75.9013C70.1991 72.3535 70.8753 68.8358 71.7517 65.3657C72.375 62.5858 72.9846 59.8024 73.6147 57.0225C73.6853 56.7649 73.845 56.5408 74.0655 56.3901C74.286 56.2393 74.5529 56.1718 74.8185 56.1995C75.703 56.1944 76.5875 56.1688 77.4703 56.2132C77.5906 56.224 77.7067 56.263 77.8091 56.3271C77.9115 56.3912 77.9974 56.4785 78.0597 56.5819C78.1221 56.6853 78.1592 56.802 78.168 56.9225C78.1769 57.0429 78.1572 57.1638 78.1107 57.2752C76.3365 63.8169 74.5652 70.3591 72.7967 76.9019C72.7512 77.1597 72.6184 77.394 72.4207 77.5656C72.223 77.7372 71.9724 77.8357 71.7107 77.8445C70.3413 77.8889 68.9684 77.8548 67.6006 77.8633C67.3575 77.8964 67.1107 77.8381 66.9081 77.6996C66.7056 77.5611 66.5617 77.3523 66.5044 77.1137C65.2783 72.6143 64.0779 68.1097 62.8621 63.6069C62.4682 62.0313 62.2004 60.4268 62.0613 58.8086C61.8996 60.2539 61.6591 61.6893 61.3407 63.1083C60.0993 67.7443 58.8534 72.3803 57.6029 77.0163C57.4628 77.7677 56.6039 77.9162 55.9653 77.8684C54.6915 77.8445 53.4193 77.8975 52.1472 77.8445C51.9318 77.8383 51.7254 77.7569 51.5638 77.6143C51.4022 77.4718 51.2957 77.2771 51.2627 77.0642C49.4749 70.5498 47.6894 64.0343 45.9061 57.5177C45.8587 57.2333 45.8358 56.9454 45.8378 56.6571Z" fill="white"/>
</mask>
<g mask="url(#mask4_11_131)">
<mask id="mask5_11_131" style="mask-type:luminance" maskUnits="userSpaceOnUse" x="45" y="55" width="35" height="25">
<path d="M79.4557 55.4928H45.3045V79.3986H79.4557V55.4928Z" fill="white"/>
</mask>
<g mask="url(#mask5_11_131)">
<path d="M86.7026 47.6495H37.2997V86.4142H86.7026V47.6495Z" fill="#015CB9"/>
</g>
</g>
</g>
</g>
</svg>
