<svg width="124" height="118" viewBox="0 0 124 118" fill="none" xmlns="http://www.w3.org/2000/svg">
<rect width="124" height="118" rx="20" fill="#F9F9FB"/>
<path fill-rule="evenodd" clip-rule="evenodd" d="M63.6866 41.6296L62.964 50.5428C62.6239 50.5072 62.2838 50.4858 61.9367 50.4858C61.4974 50.4858 61.0723 50.5143 60.6543 50.5856L60.2434 46.2608C60.2363 46.1254 60.3426 46.0043 60.4772 46.0043H61.207L60.8598 41.6367C60.8456 41.5014 60.9519 41.3802 61.0794 41.3802H63.4599C63.6016 41.3802 63.7079 41.5014 63.6866 41.6296ZM60.038 50.6924C59.2728 50.8634 58.5431 51.1484 57.87 51.5189L56.0138 47.6002C55.9572 47.4862 56.0138 47.3366 56.1414 47.2868L56.8286 47.0374L55.0149 43.0475C54.9511 42.9263 55.0149 42.7838 55.1353 42.734L57.3741 41.9075C57.5016 41.8647 57.6362 41.9431 57.6788 42.0642C57.6858 42.0642 60.038 50.6924 60.038 50.6924ZM52.1881 44.5508L57.3387 51.8467C56.6869 52.2741 56.0918 52.78 55.5888 53.3714L52.4998 50.3219C52.4077 50.2222 52.4148 50.0654 52.514 49.9799L53.0737 49.5097L50.0131 46.389C49.9139 46.2893 49.9281 46.1325 50.0343 46.047L51.848 44.5081C51.9543 44.4226 52.1031 44.4439 52.181 44.5508H52.1881ZM55.192 53.8559C54.7244 54.4757 54.3489 55.1597 54.0655 55.8936L50.1335 54.0839C50.0131 54.034 49.9635 53.8772 50.0273 53.7632L50.3957 53.122L46.4495 51.2482C46.3361 51.1912 46.2865 51.0415 46.3503 50.9276L47.5405 48.8542C47.6114 48.7331 47.7601 48.6975 47.8735 48.7758L55.192 53.8559ZM44.9546 54.4045C44.9759 54.262 45.1105 54.1836 45.238 54.2192L53.8459 56.4778C53.6263 57.2045 53.4988 57.9812 53.4775 58.7791L49.17 58.43C49.0354 58.4229 48.9362 58.2947 48.9645 58.1593L49.0921 57.4325L44.7421 57.0193C44.6074 57.0122 44.5224 56.8839 44.5366 56.7486L44.9475 54.3902L44.9546 54.4045ZM44.6216 60.254L53.4846 59.4346C53.52 60.2255 53.6759 60.995 53.9239 61.7217L49.758 62.8759C49.6305 62.9044 49.4959 62.8261 49.4746 62.6907L49.3542 61.9639L45.1317 63.0683C45.0042 63.0968 44.8696 63.0184 44.8483 62.8831L44.4303 60.5247C44.4091 60.3894 44.5012 60.2611 44.6358 60.254H44.6216ZM46.0102 66.4526C45.9394 66.3315 45.989 66.189 46.1094 66.132L54.1435 62.2988C54.441 63.0184 54.852 63.6953 55.3408 64.3009L51.8197 66.8231C51.7134 66.9015 51.5576 66.873 51.4867 66.7519L51.1183 66.1106L47.5264 68.6043C47.4201 68.6827 47.2642 68.6399 47.2005 68.5259C47.2005 68.5259 46.0031 66.4526 46.0102 66.4526ZM57.5583 66.246L55.107 69.8227C55.0291 69.9438 54.8732 69.958 54.7669 69.8725L54.2002 69.3952L51.6709 72.9718C51.593 73.0787 51.4442 73.1001 51.3379 73.0146L49.5101 71.4756C49.4038 71.3901 49.3967 71.2334 49.4959 71.1336L55.7446 64.7711C56.2831 65.334 56.8924 65.8327 57.5583 66.246ZM54.5119 74.9882C54.3844 74.9383 54.3277 74.7887 54.3844 74.6747L58.0897 66.5381C58.7698 66.8943 59.5066 67.158 60.2789 67.3005L59.1878 71.5041C59.1595 71.6324 59.0107 71.7107 58.8902 71.6609L58.1959 71.4115L57.0411 75.6437C56.9986 75.7719 56.864 75.8503 56.7365 75.8004L54.4977 74.9739L54.5119 74.9882ZM61.9225 67.4857C62.3618 67.4857 62.7939 67.4501 63.2119 67.386L63.6158 71.7036C63.6299 71.8461 63.5237 71.9601 63.382 71.9601H62.6522L63.0065 76.3277C63.0277 76.4702 62.9215 76.5841 62.7798 76.5841H60.3993C60.2718 76.5841 60.1655 76.4702 60.1726 76.3277L60.8952 67.4145C61.2353 67.4643 61.5754 67.4857 61.9225 67.4857ZM65.7553 51.3978C65.0752 51.0558 64.3455 50.7922 63.5662 50.6354L64.6572 46.4318C64.6997 46.3035 64.8343 46.2251 64.9619 46.275L65.6491 46.5315L66.811 42.2994C66.8464 42.1711 66.981 42.0927 67.1085 42.1426L69.3473 42.962C69.4748 43.0118 69.5315 43.1472 69.4748 43.2755L65.7553 51.3978ZM74.3491 46.8236L68.1004 53.1861C67.569 52.6161 66.9668 52.1174 66.3009 51.7113L68.7522 48.1346C68.8301 48.0206 68.9789 47.9921 69.0922 48.0847L69.6519 48.5621L72.1812 44.9854C72.2591 44.8786 72.415 44.8572 72.5142 44.9427L74.342 46.4816C74.4483 46.5671 74.4483 46.7239 74.3491 46.8236ZM77.7285 51.8395L69.6944 55.6727C69.3827 54.946 68.9789 54.2691 68.4971 53.6635L72.0182 51.1413C72.1245 51.0558 72.2804 51.0914 72.3441 51.2125L72.7196 51.8467L76.3045 49.353C76.4108 49.2888 76.5666 49.3173 76.6375 49.4313L77.8348 51.5047C77.8986 51.6187 77.8631 51.7683 77.7356 51.8253L77.7285 51.8395ZM79.0038 55.0742L79.4076 57.4325C79.4289 57.5679 79.3438 57.689 79.2092 57.7104L70.3462 58.5369C70.3108 57.7389 70.155 56.9766 69.907 56.2498L74.0728 55.0956C74.2003 55.06 74.3349 55.1455 74.3562 55.2808L74.4766 56.0076L78.6991 54.9032C78.8267 54.8747 78.9613 54.9531 78.9825 55.0885L79.0038 55.0742ZM78.5929 63.7167L69.9849 61.4581C70.2116 60.7242 70.3392 59.9547 70.3604 59.1496L74.6679 59.4987C74.8025 59.5201 74.8876 59.6412 74.8734 59.7766L74.7459 60.4962L79.0888 60.9095C79.2305 60.9308 79.3155 61.0448 79.2942 61.1873L78.8904 63.5385C78.8692 63.6739 78.7346 63.7523 78.607 63.7238L78.5929 63.7167ZM76.3045 69.1031C76.2407 69.2242 76.0849 69.2527 75.9715 69.1814L68.653 64.1014C69.1206 63.4815 69.4961 62.7976 69.7795 62.0637L73.7115 63.8734C73.8319 63.9304 73.8815 64.08 73.8178 64.2012L73.4494 64.8353L77.3955 66.7091C77.5089 66.7661 77.5585 66.9157 77.4947 67.0297L76.3045 69.1031ZM66.4992 66.1035C67.151 65.6831 67.732 65.163 68.2492 64.5788L71.331 67.6282C71.4302 67.728 71.4302 67.8847 71.3239 67.9702L70.7572 68.4404L73.8248 71.5611C73.9099 71.6609 73.9099 71.8176 73.8036 71.9031L71.9828 73.435C71.8836 73.5276 71.7278 73.5062 71.6498 73.3993L66.5063 66.1035H66.4992ZM66.4638 76.0355C66.3363 76.0854 66.2017 76.007 66.1592 75.8788L63.807 67.2577C64.5722 67.0796 65.3019 66.8017 65.975 66.4241L67.8312 70.3499C67.8949 70.4781 67.8312 70.6206 67.7036 70.6634L67.0164 70.9128L68.8372 74.9027C68.8939 75.0309 68.8372 75.1663 68.7097 75.2162L66.4709 76.0355H66.4638Z" fill="black"/>
</svg>
