<svg width="124" height="118" viewBox="0 0 124 118" fill="none" xmlns="http://www.w3.org/2000/svg">
<rect width="124" height="118" rx="20" fill="#F9F9FB"/>
<path d="M61.3284 60.122C59.9992 64.8593 58.9013 68.8387 58.8204 69.3793C58.6031 70.8339 56.4546 70.5998 56.5772 69.1229C56.6273 68.6798 57.5163 65.4027 58.6059 61.5069C57.0676 62.2231 55.8025 62.6857 55.0222 62.7832C53.9633 62.956 53.0715 62.3513 53.1607 61.4317C53.181 61.2523 53.2438 61.0802 53.3439 60.93C53.4441 60.7797 53.5787 60.6555 53.7365 60.5677C53.8943 60.48 54.0708 60.4312 54.2513 60.4254C54.4318 60.4196 54.6111 60.4569 54.7742 60.5344C55.443 60.4397 57.1596 59.7346 59.414 58.5642C60.5426 54.5486 61.713 50.4411 62.2982 48.4013C62.7636 47.0246 64.8062 47.6071 64.4662 49.0199C63.7724 51.4443 62.967 54.27 62.1867 57.0371C63.1593 56.4798 64.1904 55.85 65.2242 55.1784C70.8588 51.5363 74.6989 48.0529 75.4736 45.8319C75.7522 44.9959 75.5516 44.6197 75.1392 44.2993C74.1527 43.5329 71.1152 43.4382 65.5558 45.4697C57.2237 48.5099 48.4178 54.4149 47.579 57.4941C47.9608 57.5276 48.3788 57.4941 48.677 57.7951C48.8167 57.9218 48.9227 58.0813 48.9854 58.2591C49.0482 58.437 49.0657 58.6277 49.0364 58.814C49.0071 59.0003 48.9319 59.1764 48.8176 59.3264C48.7033 59.4764 48.5534 59.5956 48.3816 59.6733C47.1192 60.122 44.8676 59.1661 45.3525 57.1263C45.9098 54.4985 49.5018 51.6199 52.4111 49.6525C56.2787 47.0781 60.4327 44.9627 64.7895 43.349C68.7661 41.8916 74.0301 40.5763 76.5297 42.513C77.6973 43.4243 78.1209 44.7424 77.7224 46.2054C77.2097 48.1114 74.9525 51.4722 67.1108 56.6414C65.1545 57.9317 63.1509 59.1243 61.3284 60.122Z" fill="black"/>
<path d="M77.4706 74.0719H47.709V76.148H77.4706V74.0719Z" fill="black"/>
<path d="M69.1261 69.3528C69.3445 68.5318 68.9224 67.7068 68.1832 67.5102C67.444 67.3135 66.6677 67.8196 66.4493 68.6406C66.2308 69.4615 66.653 70.2865 67.3921 70.4832C68.1313 70.6799 68.9076 70.1738 69.1261 69.3528Z" fill="black"/>
</svg>
