<svg width="40" height="40" viewBox="0 0 40 40" fill="none" xmlns="http://www.w3.org/2000/svg">
<rect x="39.5" y="0.5" width="39" height="39" rx="19.5" transform="rotate(90 39.5 0.5)" stroke="white"/>
<g clip-path="url(#clip0_893_987)">
<path d="M19.2932 27.943C19.372 28.0205 19.4604 28.0824 19.5545 28.1288C19.7056 28.2032 19.8714 28.2374 20.0359 28.2315C20.2798 28.2229 20.521 28.1261 20.7076 27.9419L28.0964 20.7211C28.4944 20.332 28.5018 19.6938 28.1128 19.2957C27.7237 18.8975 27.0855 18.8902 26.6873 19.2793L21.0079 24.8297L21.0079 12.7762C21.0079 12.2195 20.5566 11.7682 19.9999 11.7682C19.4432 11.7682 18.9919 12.2195 18.9919 12.7762L18.9919 24.8297L13.3124 19.2793C12.9142 18.8902 12.276 18.8975 11.8869 19.2957C11.4978 19.6938 11.5052 20.332 11.9033 20.7211L19.2932 27.943Z" fill="white"/>
</g>
<defs>
<clipPath id="clip0_893_987">
<rect width="18" height="18" fill="white" transform="translate(29 11) rotate(90)"/>
</clipPath>
</defs>
</svg>
