<svg width="48" height="48" viewBox="0 0 48 48" fill="none" xmlns="http://www.w3.org/2000/svg">
<path fill-rule="evenodd" clip-rule="evenodd" d="M10.1631 9.58977C11.5151 10.6842 12.0042 10.5978 14.5357 10.425L38.3838 8.98496C38.9016 8.98496 38.4701 8.46656 38.2975 8.40896L34.3276 5.55774C33.5796 4.98174 32.544 4.29053 30.6166 4.46333L7.54523 6.16254C6.71098 6.24894 6.53838 6.68095 6.88358 6.99775L10.1631 9.58977ZM11.6014 15.1482V40.262C11.6014 41.6156 12.2631 42.1052 13.7877 42.0188L39.9947 40.4924C41.5194 40.406 41.692 39.4844 41.692 38.39V13.449C41.692 12.3546 41.2605 11.7498 40.3399 11.8362L12.9535 13.449C11.9466 13.5354 11.6014 14.0538 11.6014 15.1482ZM37.4632 16.5018C37.6358 17.2506 37.4632 18.0282 36.7152 18.1146L35.4495 18.3738V36.9212C34.3563 37.4972 33.3495 37.8428 32.4865 37.8428C31.1344 37.8428 30.7892 37.4108 29.7823 36.1435L21.5261 23.1547V35.7115L24.144 36.2875C24.144 36.2875 24.144 37.814 22.0439 37.814L16.2329 38.1596C16.0603 37.814 16.2329 36.9788 16.8083 36.806L18.333 36.374V19.785L16.2329 19.6122C16.0603 18.8634 16.4919 17.769 17.6713 17.6826L23.9138 17.2506L32.5152 30.3835V18.777L30.3289 18.5178C30.1563 17.5962 30.8467 16.905 31.681 16.8186L37.4632 16.5018ZM5.61782 3.85853L29.6385 2.10172C32.5728 1.84251 33.3495 2.01532 35.1906 3.36893L42.8427 8.75456C44.1084 9.67617 44.5399 9.93537 44.5399 10.9434V40.5212C44.5399 42.3644 43.8783 43.4588 41.5194 43.6316L13.6439 45.3308C11.8603 45.4172 11.0261 45.158 10.1055 43.9772L4.43836 36.6332C3.43151 35.2795 3 34.2715 3 33.0907V6.79615C3 5.26974 3.69041 4.03133 5.61782 3.85853Z" fill="white"/>
</svg>
