<svg width="32" height="32" viewBox="0 0 32 32" fill="none" xmlns="http://www.w3.org/2000/svg">
<path d="M20.8321 13.3121H27.8069C28.4659 13.3121 29 13.8401 29 14.4913V20.7702C29 23.1637 27.0368 25.104 24.6149 25.104H24.5942C22.1724 25.1043 20.2088 23.1643 20.2085 20.7708C20.2085 20.7706 20.2085 20.7704 20.2085 20.7702V13.9284C20.2085 13.588 20.4877 13.3121 20.8321 13.3121Z" fill="#5059C9"/>
<path d="M25.5456 12.0697C27.1063 12.0697 28.3714 10.8194 28.3714 9.27694C28.3714 7.73451 27.1063 6.48413 25.5456 6.48413C23.9849 6.48413 22.7197 7.73451 22.7197 9.27694C22.7197 10.8194 23.9849 12.0697 25.5456 12.0697Z" fill="#5059C9"/>
<path d="M16.7512 12.0681C19.0055 12.0681 20.833 10.262 20.833 8.03406C20.833 5.80611 19.0055 4 16.7512 4C14.4969 4 12.6694 5.80611 12.6694 8.03406C12.6694 10.262 14.4969 12.0681 16.7512 12.0681Z" fill="#7B83EB"/>
<path d="M22.1945 13.3121H10.6813C10.0302 13.3281 9.51517 13.8621 9.53028 14.5056V21.667C9.43935 25.5286 12.5307 28.7332 16.4379 28.8277C20.3452 28.7332 23.4365 25.5286 23.3455 21.667V14.5056C23.3606 13.8621 22.8456 13.3281 22.1945 13.3121Z" fill="#7B83EB"/>
<path opacity="0.1" d="M17.0745 13.3122V23.3477C17.0714 23.8079 16.7892 24.2213 16.3586 24.3965C16.2215 24.4538 16.0742 24.4834 15.9253 24.4834H10.0915C10.0099 24.2786 9.93453 24.0738 9.87172 23.8628C9.65191 23.1507 9.53975 22.4103 9.5389 21.6658V14.5038C9.5238 13.8613 10.038 13.3281 10.6881 13.3122H17.0745Z" fill="black"/>
<path opacity="0.2" d="M16.4465 13.3122V23.9683C16.4465 24.1154 16.4166 24.261 16.3586 24.3965C16.1813 24.8221 15.763 25.101 15.2974 25.104H10.3867C10.2799 24.8992 10.1794 24.6944 10.0915 24.4834C10.0036 24.2724 9.93453 24.0738 9.87172 23.8628C9.65191 23.1507 9.53975 22.4103 9.5389 21.6658V14.5038C9.5238 13.8613 10.038 13.3281 10.6881 13.3122H16.4465Z" fill="black"/>
<path opacity="0.2" d="M16.4465 13.3122V22.7271C16.4417 23.3523 15.93 23.8581 15.2974 23.8628H9.87172C9.65191 23.1507 9.53975 22.4103 9.5389 21.6658V14.5038C9.5238 13.8613 10.038 13.3281 10.6881 13.3122H16.4465Z" fill="black"/>
<path opacity="0.2" d="M15.8186 13.3122V22.7271C15.8138 23.3523 15.3021 23.8581 14.6694 23.8628H9.87172C9.65191 23.1507 9.53975 22.4103 9.5389 21.6658V14.5038C9.5238 13.8613 10.038 13.3281 10.6881 13.3122H15.8186Z" fill="black"/>
<path opacity="0.1" d="M17.0674 10.1037V12.0586C16.9607 12.0649 16.8602 12.0711 16.7534 12.0711C16.6467 12.0711 16.5462 12.0649 16.4394 12.0586C16.2275 12.0447 16.0172 12.0115 15.8115 11.9594C14.5398 11.6617 13.4893 10.7803 12.9856 9.58858C12.899 9.38844 12.8317 9.18063 12.7847 8.96796H15.9182C16.5519 8.97033 17.065 9.47741 17.0674 10.1037Z" fill="black"/>
<path opacity="0.2" d="M16.4401 10.723V12.0574C16.2282 12.0435 16.018 12.0102 15.8122 11.9581C14.5405 11.6604 13.49 10.779 12.9863 9.58728H15.291C15.9246 9.58965 16.4377 10.0967 16.4401 10.723Z" fill="black"/>
<path opacity="0.2" d="M16.4401 10.723V12.0574C16.2282 12.0435 16.018 12.0102 15.8122 11.9581C14.5405 11.6604 13.49 10.779 12.9863 9.58728H15.291C15.9246 9.58965 16.4377 10.0967 16.4401 10.723Z" fill="black"/>
<path opacity="0.2" d="M15.8122 10.723V11.9581C14.5405 11.6604 13.49 10.779 12.9863 9.58728H14.663C15.2967 9.58966 15.8098 10.0968 15.8122 10.723Z" fill="black"/>
<path d="M3.15106 9.58728H14.6642C15.2999 9.58728 15.8152 10.0966 15.8152 10.7249V22.1034C15.8152 22.7317 15.2999 23.241 14.6642 23.241H3.15106C2.51534 23.241 2 22.7317 2 22.1034V10.7249C2 10.0966 2.51535 9.58728 3.15106 9.58728Z" fill="url(#paint0_linear_1_761)"/>
<path d="M11.9385 13.9162H9.637V20.1101H8.17071V13.9162H5.87988V12.7147H11.9385V13.9162Z" fill="white"/>
<defs>
<linearGradient id="paint0_linear_1_761" x1="4.39999" y1="8.69838" x2="13.2572" y2="24.2201" gradientUnits="userSpaceOnUse">
<stop stop-color="#5A62C3"/>
<stop offset="0.5" stop-color="#4D55BD"/>
<stop offset="1" stop-color="#3940AB"/>
</linearGradient>
</defs>
</svg>
