<svg width="32" height="32" viewBox="0 0 32 32" fill="none" xmlns="http://www.w3.org/2000/svg">
<path d="M11.7235 3.90862H19.3179L11.4341 27.2673C11.3531 27.5074 11.1988 27.7159 10.9931 27.8637C10.7873 28.0114 10.5403 28.0909 10.287 28.091H4.37668C4.18473 28.091 3.99554 28.0453 3.82476 27.9577C3.65397 27.8701 3.5065 27.7431 3.39454 27.5872C3.28258 27.4313 3.20936 27.251 3.18092 27.0611C3.15248 26.8713 3.16965 26.6774 3.23101 26.4956L10.5761 4.73228C10.657 4.49216 10.8113 4.28349 11.0172 4.13567C11.223 3.98785 11.4701 3.90863 11.7235 3.90862Z" fill="url(#paint0_linear_1_812)"/>
<path d="M22.7593 19.5761H10.7163C10.6044 19.576 10.495 19.6096 10.4024 19.6726C10.3098 19.7355 10.2383 19.8249 10.1972 19.929C10.1561 20.0332 10.1474 20.1473 10.1721 20.2565C10.1968 20.3657 10.2538 20.4649 10.3357 20.5413L18.0742 27.7641C18.2995 27.9743 18.5962 28.0911 18.9043 28.0911H25.7235L22.7593 19.5761Z" fill="#0078D4"/>
<path d="M11.7236 3.9087C11.4674 3.90772 11.2177 3.98867 11.0108 4.13975C10.8039 4.29082 10.6507 4.50409 10.5736 4.74841L3.24022 26.4758C3.17473 26.6584 3.15417 26.854 3.18028 27.0461C3.20639 27.2383 3.27839 27.4213 3.3902 27.5798C3.50201 27.7382 3.65034 27.8674 3.82264 27.9564C3.99493 28.0454 4.18613 28.0916 4.38005 28.0911H10.4429C10.6687 28.0507 10.8798 27.9512 11.0545 27.8026C11.2293 27.654 11.3614 27.4616 11.4375 27.2452L12.8999 22.9353L18.1237 27.8076C18.3426 27.9886 18.6172 28.0888 18.9013 28.0911H25.6951L22.7154 19.5762L14.0293 19.5782L19.3455 3.9087H11.7236Z" fill="url(#paint1_linear_1_812)"/>
<path d="M21.4236 4.73119C21.3427 4.49145 21.1886 4.28313 20.9831 4.13557C20.7775 3.98802 20.5309 3.90866 20.2779 3.90869H11.814C12.067 3.90871 12.3136 3.98808 12.5192 4.13563C12.7247 4.28318 12.8788 4.49148 12.9597 4.73119L20.305 26.4954C20.3664 26.6773 20.3836 26.8712 20.3552 27.0611C20.3268 27.2509 20.2536 27.4313 20.1416 27.5873C20.0297 27.7432 19.8822 27.8703 19.7114 27.958C19.5406 28.0456 19.3513 28.0913 19.1593 28.0914H27.6235C27.8155 28.0913 28.0047 28.0455 28.1754 27.9579C28.3462 27.8702 28.4937 27.7431 28.6056 27.5872C28.7175 27.4312 28.7907 27.2508 28.8191 27.061C28.8475 26.8711 28.8303 26.6772 28.7689 26.4954L21.4236 4.73119Z" fill="url(#paint2_linear_1_812)"/>
<defs>
<linearGradient id="paint0_linear_1_812" x1="14.4914" y1="5.70062" x2="6.60443" y2="29.0007" gradientUnits="userSpaceOnUse">
<stop stop-color="#114A8B"/>
<stop offset="1" stop-color="#0669BC"/>
</linearGradient>
<linearGradient id="paint1_linear_1_812" x1="16.9553" y1="16.5592" x2="15.1309" y2="17.176" gradientUnits="userSpaceOnUse">
<stop stop-opacity="0.3"/>
<stop offset="0.071" stop-opacity="0.2"/>
<stop offset="0.321" stop-opacity="0.1"/>
<stop offset="0.623" stop-opacity="0.05"/>
<stop offset="1" stop-opacity="0"/>
</linearGradient>
<linearGradient id="paint2_linear_1_812" x1="15.9519" y1="5.02111" x2="24.6094" y2="28.0864" gradientUnits="userSpaceOnUse">
<stop stop-color="#3CCBF4"/>
<stop offset="1" stop-color="#2892DF"/>
</linearGradient>
</defs>
</svg>
