<svg width="35" height="35" viewBox="0 0 35 35" fill="none" xmlns="http://www.w3.org/2000/svg">
<g clip-path="url(#clip0_1_810)">
<path d="M19.8975 17.8487L22.7124 21.0662L26.4975 23.4851L27.1575 17.8685L26.4975 12.3773L22.6398 14.5025L19.8975 17.8487Z" fill="#00832D"/>
<path d="M3.5625 22.9636V27.7486C3.5625 28.8426 4.44855 29.7286 5.5425 29.7286H10.3275L11.3175 26.1118L10.3275 22.9636L7.044 21.9736L3.5625 22.9636Z" fill="#0066DA"/>
<path d="M10.3275 5.96875L3.5625 12.7338L7.044 13.7238L10.3275 12.7338L11.301 9.62845L10.3275 5.96875Z" fill="#E94235"/>
<path d="M10.3275 12.7339H3.5625V22.9639H10.3275V12.7339Z" fill="#2684FC"/>
<path d="M30.8205 8.83298L26.4975 12.3772V23.485L30.8403 27.0457C31.4904 27.5539 32.4408 27.0902 32.4408 26.2636V9.59858C32.4408 8.76203 31.4689 8.30333 30.8205 8.83298ZM19.8975 17.8486V22.9636H10.3275V29.7286H24.5175C25.6114 29.7286 26.4975 28.8425 26.4975 27.7486V23.485L19.8975 17.8486Z" fill="#00AC47"/>
<path d="M24.5175 5.96869H10.3275V12.7337H19.8975V17.8487L26.4975 12.3806V7.94869C26.4975 6.85474 25.6115 5.96869 24.5175 5.96869Z" fill="#FFBA00"/>
</g>
<defs>
<clipPath id="clip0_1_810">
<rect width="28.875" height="23.76" fill="white" transform="translate(3.5625 5.96875)"/>
</clipPath>
</defs>
</svg>
