<svg width="48" height="48" viewBox="0 0 48 48" fill="none" xmlns="http://www.w3.org/2000/svg">
<path d="M24.4732 26.9152C30.7623 26.9152 35.8606 21.6955 35.8606 15.2567C35.8606 8.81787 30.7623 3.59818 24.4732 3.59818C18.1841 3.59818 13.0858 8.81787 13.0858 15.2567C13.0858 21.6955 18.1841 26.9152 24.4732 26.9152Z" fill="#036C70"/>
<path d="M33.9616 36.6303C39.7265 36.6303 44.4 31.8455 44.4 25.9433C44.4 20.041 39.7265 15.2563 33.9616 15.2563C28.1966 15.2563 23.5231 20.041 23.5231 25.9433C23.5231 31.8455 28.1966 36.6303 33.9616 36.6303Z" fill="#1A9BA1"/>
<path d="M25.8963 44.4026C30.3511 44.4026 33.9624 40.7053 33.9624 36.1445C33.9624 31.5837 30.3511 27.8864 25.8963 27.8864C21.4416 27.8864 17.8303 31.5837 17.8303 36.1445C17.8303 40.7053 21.4416 44.4026 25.8963 44.4026Z" fill="#37C6D0"/>
<path opacity="0.1" d="M26.3728 14.1195V34.8522C26.3681 35.5726 25.9417 36.2198 25.291 36.494C25.0838 36.5838 24.8612 36.63 24.6362 36.6301H17.8417C17.8323 36.4649 17.8323 36.3095 17.8323 36.1443C17.8291 35.9821 17.8354 35.8199 17.8512 35.6585C18.0249 32.553 19.8936 29.8129 22.6814 28.576V26.7689C16.4771 25.7623 12.2445 19.797 13.2277 13.445C13.2345 13.401 13.2416 13.357 13.2489 13.3131C13.2961 12.9854 13.3627 12.661 13.4481 12.3415H24.6362C25.5938 12.3453 26.3691 13.1391 26.3728 14.1195Z" fill="black"/>
<path opacity="0.2" d="M23.6875 13.3133H13.2491C12.1946 19.6539 16.3603 25.6692 22.5534 26.7487C22.7409 26.7814 22.9292 26.8093 23.1181 26.8323C20.1764 28.2605 18.0327 32.3167 17.8505 35.6588C17.8347 35.8202 17.8284 35.9824 17.8315 36.1446C17.8315 36.3097 17.8315 36.4652 17.841 36.6303C17.8581 36.9569 17.8994 37.2817 17.9643 37.6019H23.6865C24.3902 37.597 25.0223 37.1605 25.2902 36.4943C25.3779 36.2822 25.423 36.0542 25.4231 35.8239V15.0913C25.4195 14.1113 24.6447 13.3176 23.6875 13.3133Z" fill="black"/>
<path opacity="0.2" d="M23.6874 13.3133H13.249C12.1947 19.6545 16.361 25.67 22.5547 26.7494C22.6814 26.7715 22.8085 26.7914 22.9358 26.809C20.089 28.3402 18.0298 32.3867 17.8514 35.6588H23.6874C24.6435 35.6514 25.4167 34.8597 25.424 33.8809V15.0913C25.4203 14.1109 24.645 13.3171 23.6874 13.3133Z" fill="black"/>
<path opacity="0.2" d="M22.7381 13.3133H13.2487C12.2532 19.2995 15.9169 25.0642 21.6658 26.5574C19.489 29.1037 18.1538 32.2892 17.8511 35.6588H22.7381C23.6957 35.6551 24.4711 34.8612 24.4747 33.8809V15.0913C24.4742 14.1096 23.697 13.3139 22.7381 13.3133Z" fill="black"/>
<path d="M5.33714 13.3133H22.7351C23.6958 13.3133 24.4746 14.1106 24.4746 15.0942V32.9064C24.4746 33.8899 23.6958 34.6872 22.7351 34.6872H5.33714C4.37648 34.6872 3.59772 33.8899 3.59772 32.9064V15.0942C3.59772 14.1106 4.37648 13.3133 5.33714 13.3133Z" fill="url(#paint0_linear_1_712)"/>
<path d="M11.3672 23.7832C10.9596 23.5064 10.6191 23.1378 10.3718 22.7058C10.1321 22.254 10.0127 21.7458 10.0254 21.2319C10.004 20.5362 10.2334 19.8567 10.6697 19.3228C11.1282 18.7883 11.7209 18.3925 12.3835 18.1784C13.1387 17.9239 13.9296 17.7985 14.7246 17.8072C15.77 17.7681 16.8139 17.9178 17.8086 18.2493V20.4838C17.3764 20.2158 16.9057 20.0191 16.4137 19.9009C15.8798 19.7669 15.3321 19.6997 14.7824 19.7008C14.2028 19.679 13.6269 19.8038 13.1056 20.0641C12.7032 20.2418 12.4422 20.6472 12.4414 21.0959C12.4398 21.3681 12.5419 21.6302 12.7261 21.8265C12.9436 22.0579 13.201 22.2463 13.4852 22.3822C13.8015 22.5435 14.276 22.7579 14.9087 23.0254C14.9783 23.048 15.0462 23.0759 15.1117 23.109C15.7344 23.3581 16.335 23.6614 16.9071 24.0154C17.3404 24.2889 17.704 24.6639 17.9681 25.1094C18.2388 25.6144 18.37 26.1854 18.3476 26.761C18.3786 27.4753 18.1651 28.1783 17.7441 28.7488C17.3245 29.2732 16.7635 29.6598 16.1309 29.8602C15.3868 30.099 14.6103 30.2144 13.8306 30.2022C13.1311 30.2054 12.4327 30.1469 11.743 30.0273C11.1606 29.9297 10.5923 29.7588 10.051 29.5182V27.1622C10.5684 27.5406 11.1465 27.8233 11.7591 27.9978C12.3696 28.1925 13.0043 28.2966 13.6437 28.3067C14.2355 28.3451 14.8263 28.2167 15.3518 27.9356C15.72 27.7229 15.9439 27.32 15.9345 26.8873C15.9369 26.5862 15.8206 26.2969 15.6119 26.0848C15.3522 25.8239 15.0517 25.6094 14.7227 25.4504C14.3431 25.2561 13.7842 24.9999 13.0459 24.6819C12.4586 24.4401 11.8962 24.1391 11.3672 23.7832Z" fill="white"/>
<defs>
<linearGradient id="paint0_linear_1_712" x1="7.22445" y1="11.9218" x2="21.3343" y2="35.7912" gradientUnits="userSpaceOnUse">
<stop stop-color="#058F92"/>
<stop offset="0.5" stop-color="#038489"/>
<stop offset="1" stop-color="#026D71"/>
</linearGradient>
</defs>
</svg>
