<svg width="40" height="40" viewBox="0 0 40 40" fill="none" xmlns="http://www.w3.org/2000/svg">
<g clip-path="url(#clip0_1_782)">
<path d="M6.18182 32H11.2727V19.6364L4 14.1818V29.8182C4 31.0255 4.97818 32 6.18182 32Z" fill="#4285F4"/>
<path d="M28.7273 32H33.8182C35.0254 32 36 31.0218 36 29.8182V14.1818L28.7273 19.6364" fill="#34A853"/>
<path d="M28.7273 10.1818V19.6364L36 14.1818V11.2727C36 8.57455 32.92 7.03637 30.7636 8.65455" fill="#FBBC04"/>
<path d="M11.2727 19.6364V10.1818L20 16.7273L28.7273 10.1818V19.6364L20 26.1818" fill="#EA4335"/>
<path d="M4 11.2727V14.1818L11.2727 19.6364V10.1818L9.23636 8.65455C7.07636 7.03637 4 8.57455 4 11.2727Z" fill="#C5221F"/>
</g>
<defs>
<clipPath id="clip0_1_782">
<rect width="32" height="24" fill="white" transform="translate(4 8)"/>
</clipPath>
</defs>
</svg>
