<svg width="48" height="48" viewBox="0 0 48 48" fill="none" xmlns="http://www.w3.org/2000/svg">
<path d="M32.5157 30.921L34.515 37.8145L39.7543 43.4567C40.4629 43.0484 41.0661 42.4558 41.4902 41.7209L46.358 33.2917C46.7821 32.5594 46.9928 31.7402 46.9928 30.921L39.5172 29.4722L32.5157 30.921Z" fill="#EA4335"/>
<path d="M31.24 3.63482C30.5314 3.22653 29.7175 3 28.8693 3H19.1363C18.2933 3 17.4715 3.2318 16.7656 3.63482L18.8623 10.6969L23.983 16.1337L24.0015 16.1706L29.1591 10.6679L31.24 3.63482Z" fill="#188038"/>
<path d="M15.4847 30.9212L8.02226 29.2091L1.01025 30.9212C1.01025 31.7378 1.22098 32.5544 1.64244 33.2893L6.51028 41.7211C6.93437 42.4534 7.53759 43.0461 8.24616 43.457L13.4064 38.1414L15.4847 30.9212Z" fill="#1967D2"/>
<path d="M39.6648 16.9607L32.9742 5.37065C32.5501 4.63573 31.9469 4.04305 31.2383 3.63477L23.9998 16.1705L32.5158 30.9215H46.9903C46.9903 30.1023 46.7796 29.2858 46.3555 28.5508L39.6648 16.9607Z" fill="#FBBC04"/>
<path d="M32.5186 30.9204H15.4864L8.24786 43.4562C8.95644 43.8645 9.77038 44.091 10.6186 44.091H37.3838C38.232 44.091 39.0459 43.8645 39.7545 43.4562L32.5186 30.9204Z" fill="#4285F4"/>
<path d="M24.0008 16.1705L16.7649 3.63477C16.0563 4.04305 15.4557 4.63309 15.0316 5.36538L1.64244 28.5587C1.22098 29.291 1.01025 30.1076 1.01025 30.9215H15.4847L24.0008 16.1705Z" fill="#34A853"/>
</svg>
