<svg width="111" height="153" viewBox="0 0 111 153" fill="none" xmlns="http://www.w3.org/2000/svg">
  <path d="M31.092 0.866057H78.9659C94.0023 0.866057 106.192 13.0555 106.192 28.0919V75.8475C106.192 90.8839 94.0023 103.073 78.9659 103.073H31.092C16.0556 103.073 3.86616 90.8839 3.86616 75.8475V28.0919C3.86616 13.0555 16.0556 0.866057 31.092 0.866057Z" stroke="black" stroke-width="1.73233" />
  <path
    d="M37.9886 40.7679L36.9669 37.6499H32.1577L31.136 40.7679H28.8459L33.1618 28.2605H36.3856L40.7191 40.7679H37.9886ZM32.7391 35.9235H36.3856L34.5711 30.3568L32.7391 35.9235ZM44.767 28.2605V40.7679H42.2127V28.2605H44.767ZM52.5962 41.0322C48.844 41.0322 46.7125 38.1608 46.7125 34.5142C46.7125 30.8325 48.844 27.9787 52.6138 27.9787C55.3443 27.9787 57.5287 29.6346 57.8282 31.9071H55.2386C54.8335 30.4802 53.8822 29.6874 52.5434 29.6874C50.5528 29.6874 49.302 31.6428 49.302 34.5142C49.302 37.3504 50.5528 39.3234 52.5434 39.3234C53.8822 39.3234 54.8863 38.4426 55.2915 36.91H57.8458C57.6344 39.2706 55.3972 41.0322 52.5962 41.0322ZM64.9081 28.2605C67.48 28.2605 69.1359 29.7403 69.1359 32.1184C69.1359 34.4966 67.48 35.9588 64.9081 35.9588H61.9838V40.7679H59.4295V28.2605H64.9081ZM61.9662 29.9517V34.2676H64.6086C65.8065 34.2676 66.6168 33.5277 66.6168 32.1184C66.6168 30.6915 65.8065 29.9517 64.6086 29.9517H61.9662ZM77.7439 40.7679L76.7221 37.6499H71.9129L70.8912 40.7679H68.6011L72.9171 28.2605H76.1408L80.4744 40.7679H77.7439ZM72.4943 35.9235H76.1408L74.3263 30.3568L72.4943 35.9235ZM34.6632 45.9787C37.0414 45.9787 39.2962 47.247 39.3843 49.5371H36.9004C36.8652 48.4097 35.9316 47.6346 34.5399 47.6346C33.1834 47.6346 32.4788 48.4978 32.4788 49.4138C32.4788 50.5412 33.4829 50.9112 35.5088 51.334C38.433 51.9505 39.7366 53.0603 39.7366 55.1743C39.7366 57.4996 37.9046 59.0498 34.8922 59.0498C31.7565 59.0498 29.8012 57.5877 29.6602 55.139H32.2322C32.3731 56.654 33.6943 57.3763 34.9979 57.3763C36.3543 57.3763 37.3232 56.5659 37.3232 55.3504C37.3232 54.0116 36.1606 53.6769 34.2228 53.2541C30.9638 52.5495 30.083 51.4397 30.083 49.59C30.083 47.5641 31.7742 45.9787 34.6632 45.9787ZM47.069 45.9787C50.8213 45.9787 53.0761 48.7972 53.0761 52.5142C53.0761 56.2312 50.8213 59.0498 47.069 59.0498C43.3344 59.0498 41.0443 56.2312 41.0443 52.5142C41.0443 48.7972 43.3344 45.9787 47.069 45.9787ZM47.069 47.6874C45.0256 47.6874 43.6691 49.59 43.6691 52.5142C43.6691 55.4385 45.0256 57.341 47.069 57.341C49.1477 57.341 50.4513 55.4737 50.4513 52.5142C50.4513 49.5547 49.1477 47.6874 47.069 47.6874ZM60.2344 59.0322C56.4822 59.0322 54.3507 56.1608 54.3507 52.5142C54.3507 48.8325 56.4822 45.9787 60.2521 45.9787C62.9826 45.9787 65.167 47.6346 65.4664 49.9071H62.8769C62.4717 48.4802 61.5204 47.6874 60.1816 47.6874C58.191 47.6874 56.9402 49.6428 56.9402 52.5142C56.9402 55.3504 58.191 57.3234 60.1816 57.3234C61.5204 57.3234 62.5245 56.4426 62.9297 54.91H65.484C65.2726 57.2706 63.0354 59.0322 60.2344 59.0322ZM74.2544 56.9535H79.4687V58.7679H70.8192V57.2177L74.0606 54.0645C75.558 52.6199 76.932 51.193 76.932 49.6604C76.932 48.3921 76.2274 47.6346 75.1704 47.6346C74.0254 47.6346 73.1974 48.6739 73.1269 49.9775H70.6607C70.7135 47.8107 72.6513 46.0139 75.1704 46.0139C78.0242 46.0139 79.3807 47.705 79.3807 49.6604C79.3807 51.9153 77.7247 53.5888 75.787 55.4737L74.2544 56.9535ZM37.1995 64.2605V65.9869H33.553V76.7679H30.9986V65.9869H27.3521V64.2605H37.1995ZM46.4566 64.2605H49.0109L44.7479 71.4831V76.7679H42.1935V71.4655L37.9128 64.2605H40.7842L43.638 69.334L46.4566 64.2605ZM55.7436 64.2605C58.3155 64.2605 59.9714 65.7403 59.9714 68.1184C59.9714 70.4966 58.3155 71.9588 55.7436 71.9588H52.8193V76.7679H50.265V64.2605H55.7436ZM52.8017 65.9517V70.2676H55.4441C56.642 70.2676 57.4523 69.5277 57.4523 68.1184C57.4523 66.6915 56.642 65.9517 55.4441 65.9517H52.8017ZM70.2068 64.2605V65.9869H64.1645V69.422H69.8369V71.1484H64.1645V75.0416H70.4006V76.7679H61.6102V64.2605H70.2068ZM78.7828 64.2605H80.6853V76.7679H78.2367V66.7268L76.0523 68.3475V66.3568L78.7828 64.2605Z"
    fill="black"
  />
  <path
    d="M18.7564 126.315C19.6322 126.315 20.4474 126.477 21.2019 126.801C21.9699 127.11 22.5897 127.569 23.0613 128.175C23.5328 128.768 23.7956 129.468 23.8495 130.277H21.7476C21.6667 129.603 21.3434 129.057 20.7775 128.64C20.2116 128.222 19.5177 128.013 18.6958 128.013C18.1164 128.013 17.6179 128.114 17.2002 128.316C16.7825 128.505 16.4592 128.768 16.2301 129.105C16.0145 129.441 15.9067 129.812 15.9067 130.216C15.9067 130.674 16.0347 131.051 16.2907 131.348C16.5467 131.644 16.924 131.887 17.4225 132.075C17.9345 132.264 18.6352 132.453 19.5244 132.641C21.2221 132.978 22.4415 133.477 23.1825 134.137C23.9236 134.797 24.2941 135.713 24.2941 136.886C24.2941 137.775 24.0718 138.556 23.6271 139.23C23.1825 139.89 22.556 140.402 21.7476 140.766C20.9526 141.13 20.0364 141.312 18.9989 141.312C17.948 141.312 17.0048 141.143 16.1695 140.806C15.3341 140.456 14.6672 139.951 14.1686 139.291C13.6701 138.617 13.3939 137.822 13.34 136.906H15.5025C15.5968 137.768 15.9808 138.435 16.6545 138.907C17.3282 139.365 18.1232 139.594 19.0394 139.594C19.9556 139.594 20.7101 139.371 21.3029 138.927C21.8958 138.469 22.1922 137.849 22.1922 137.067C22.1922 136.528 22.0575 136.097 21.788 135.774C21.5185 135.437 21.1278 135.174 20.6158 134.986C20.1173 134.797 19.4234 134.608 18.5341 134.42C17.3484 134.164 16.412 133.861 15.7248 133.51C15.0512 133.147 14.5661 132.715 14.2697 132.217C13.9733 131.705 13.8251 131.099 13.8251 130.398C13.8251 129.63 14.0272 128.936 14.4314 128.316C14.8491 127.697 15.4352 127.211 16.1897 126.861C16.9442 126.497 17.7998 126.315 18.7564 126.315ZM32.5687 126.315C33.9295 126.315 35.1085 126.639 36.1055 127.286C37.1161 127.932 37.8908 128.828 38.4297 129.974C38.9822 131.105 39.2584 132.385 39.2584 133.814C39.2584 135.242 38.9822 136.528 38.4297 137.674C37.8908 138.806 37.1161 139.695 36.1055 140.342C35.1085 140.988 33.9295 141.312 32.5687 141.312C31.2213 141.312 30.0357 140.988 29.0117 140.342C28.0011 139.695 27.2197 138.806 26.6672 137.674C26.1283 136.528 25.8588 135.242 25.8588 133.814C25.8588 132.385 26.1283 131.105 26.6672 129.974C27.2197 128.828 28.0011 127.932 29.0117 127.286C30.0357 126.639 31.2213 126.315 32.5687 126.315ZM32.5687 128.074C31.666 128.074 30.8778 128.31 30.2041 128.781C29.5304 129.253 29.0049 129.926 28.6277 130.802C28.2504 131.664 28.0618 132.668 28.0618 133.814C28.0618 134.959 28.2504 135.969 28.6277 136.845C29.0049 137.707 29.5304 138.374 30.2041 138.846C30.8778 139.318 31.666 139.553 32.5687 139.553C33.4714 139.553 34.2596 139.318 34.9333 138.846C35.607 138.374 36.1258 137.707 36.4895 136.845C36.8668 135.983 37.0554 134.972 37.0554 133.814C37.0554 132.655 36.8668 131.644 36.4895 130.782C36.1258 129.92 35.607 129.253 34.9333 128.781C34.2596 128.31 33.4714 128.074 32.5687 128.074ZM47.4864 141.291C46.139 141.291 44.9736 140.968 43.99 140.321C43.0064 139.661 42.2452 138.765 41.7062 137.633C41.1807 136.502 40.918 135.228 40.918 133.814C40.918 132.399 41.1807 131.126 41.7062 129.994C42.2452 128.849 43.0064 127.953 43.99 127.306C44.9736 126.646 46.139 126.315 47.4864 126.315C48.4565 126.315 49.3458 126.504 50.1542 126.881C50.9761 127.259 51.6498 127.784 52.1752 128.458C52.7142 129.118 53.051 129.873 53.1858 130.721H50.9828C50.7268 129.873 50.2957 129.219 49.6894 128.761C49.0965 128.303 48.342 128.074 47.4258 128.074C46.5635 128.074 45.8022 128.316 45.142 128.801C44.4953 129.286 43.99 129.96 43.6262 130.822C43.2759 131.685 43.1007 132.682 43.1007 133.814C43.1007 134.932 43.2759 135.922 43.6262 136.784C43.99 137.647 44.502 138.32 45.1622 138.806C45.8224 139.291 46.5769 139.533 47.4258 139.533C48.3555 139.533 49.1235 139.284 49.7298 138.785C50.3361 138.287 50.774 137.579 51.0435 136.663H53.2262C53.1049 137.552 52.7748 138.347 52.2359 139.048C51.7104 139.749 51.03 140.301 50.1946 140.705C49.3727 141.096 48.47 141.291 47.4864 141.291ZM64.338 139.291V140.988H54.8189V139.392L58.6993 135.693C59.8041 134.629 60.6462 133.706 61.2256 132.924C61.805 132.129 62.0946 131.328 62.0946 130.519C62.0946 129.751 61.8589 129.145 61.3873 128.7C60.9157 128.242 60.3161 128.013 59.5885 128.013C59.0496 128.013 58.5713 128.141 58.1536 128.397C57.7494 128.64 57.4328 128.977 57.2037 129.408C56.9747 129.825 56.8467 130.283 56.8197 130.782H54.7178C54.7582 130.001 54.9806 129.273 55.3848 128.599C55.789 127.912 56.3549 127.366 57.0824 126.962C57.81 126.558 58.6386 126.356 59.5683 126.356C60.525 126.356 61.3469 126.545 62.034 126.922C62.7346 127.286 63.2601 127.784 63.6104 128.417C63.9742 129.037 64.1561 129.731 64.1561 130.499C64.1561 131.294 63.9742 132.055 63.6104 132.783C63.2466 133.51 62.7885 134.184 62.2361 134.804C61.6837 135.424 60.9426 136.171 60.013 137.047L57.6281 139.291H64.338Z"
    fill="black"
  />
  <g clip-path="url(#clip0_646_4445)">
    <path
      d="M86.3086 122.325L88.0331 124.038C88.2123 124.206 88.369 124.262 88.6042 124.262H91.023C93.0387 124.262 93.957 125.203 93.957 127.196V129.626C93.957 129.85 94.0241 130.018 94.1921 130.186L95.9055 131.911C97.3164 133.322 97.3276 134.632 95.9055 136.043L94.1921 137.767C94.0241 137.947 93.957 138.103 93.957 138.338V140.757C93.957 142.773 93.0275 143.691 91.023 143.691H88.6042C88.369 143.691 88.2123 143.758 88.0331 143.926L86.3086 145.64C84.8976 147.051 83.5874 147.062 82.1765 145.64L80.4519 143.926C80.2839 143.758 80.116 143.691 79.892 143.691H77.462C75.4575 143.691 74.528 142.762 74.528 140.757V138.338C74.528 138.103 74.4721 137.947 74.3041 137.767L72.5908 136.043C71.1798 134.632 71.1686 133.322 72.5908 131.911L74.3041 130.186C74.4721 130.018 74.528 129.85 74.528 129.626V127.196C74.528 125.181 75.4575 124.262 77.462 124.262H79.892C80.116 124.262 80.2839 124.206 80.4519 124.038L82.1765 122.325C83.5874 120.914 84.8976 120.903 86.3086 122.325ZM87.7308 129.537L82.9491 137.219L80.6759 134.285C80.3959 133.915 80.1496 133.803 79.836 133.803C79.3209 133.803 78.9289 134.218 78.9289 134.733C78.9289 134.979 79.0297 135.237 79.1977 135.461L82.0085 138.91C82.2996 139.302 82.6132 139.447 82.9939 139.447C83.3747 139.447 83.6994 139.268 83.9345 138.91L89.1977 130.612C89.3321 130.388 89.4777 130.13 89.4777 129.873C89.4777 129.358 89.0185 129.022 88.537 129.022C88.2347 129.022 87.9435 129.19 87.7308 129.537Z"
      fill="black"
    />
  </g>
  <defs>
    <clipPath id="clip0_646_4445">
      <rect width="25.7755" height="25.4508" fill="black" transform="translate(71.5283 121.263)" />
    </clipPath>
  </defs>
</svg>
