<svg width="24" height="24" viewBox="0 0 24 24" fill="none" xmlns="http://www.w3.org/2000/svg">
<path d="M10.6726 18C11.1106 18 11.4823 17.7876 11.7477 17.3761L17.8141 7.83186C17.9734 7.56638 18.1328 7.27433 18.1328 6.9823C18.1328 6.38496 17.6017 6 17.0574 6C16.7124 6 16.3805 6.21239 16.1283 6.59735L10.6195 15.4381L8.00443 12.0531C7.68585 11.6283 7.3938 11.5221 7.0354 11.5221C6.45133 11.5221 6 11.9867 6 12.5708C6 12.8628 6.11947 13.1416 6.30532 13.3938L9.54424 17.3761C9.8761 17.8141 10.2345 18 10.6726 18Z" fill="white"/>
</svg>
