<svg width="48" height="48" viewBox="0 0 48 48" fill="none" xmlns="http://www.w3.org/2000/svg">
<rect width="48" height="48" rx="12" fill="#242424"/>
<g clip-path="url(#clip0_2339_50226)">
<path d="M16.767 30.5166H30.0761C32.1152 30.5166 33.1196 29.5222 33.1196 27.5032V17.3581C33.1196 15.3291 32.1152 14.3447 30.0761 14.3447H16.767C14.7279 14.3447 13.7134 15.3291 13.7134 17.3581V27.5032C13.7134 29.5222 14.7279 30.5166 16.767 30.5166Z" fill="white"/>
<path d="M34.3838 37.5582C39.1952 35.8104 40.9128 31.6319 39.0646 26.5292L38.4117 24.7111C37.5077 22.22 35.5289 21.2658 33.9719 21.8484C33.8112 21.9086 33.6807 21.9689 33.5501 22.0593C32.415 21.2959 31.0791 21.5571 30.3659 22.0794C29.4719 21.4365 28.3771 21.4767 27.5936 21.8082L26.3983 18.5638C25.886 17.1475 24.4798 16.4845 23.1639 16.9667C21.7978 17.4689 21.1851 18.8752 21.6974 20.2714L23.9976 26.5794L23.7164 26.3082C23.1137 25.9767 22.4507 25.9566 21.8179 26.1977C20.5222 26.6799 19.8492 28.0259 20.3112 29.3015C20.4318 29.633 20.6126 29.9443 20.8235 30.2055L24.0278 34.2033C27.1215 38.0705 30.8681 38.8338 34.3838 37.5582Z" fill="#242424"/>
<path d="M33.9228 36.282C38.021 34.7953 39.377 31.4003 37.79 27.0108L37.127 25.1927C36.5244 23.5353 35.3592 22.802 34.4552 23.1335C34.2542 23.2139 34.184 23.3545 34.2542 23.5453L34.5456 24.3589C34.6761 24.7306 34.5556 25.0018 34.3346 25.0822C34.0835 25.1725 33.8123 25.052 33.6818 24.6703L33.4909 24.138C33.1292 23.1637 32.2856 22.7518 31.4318 23.0632C31.0501 23.2039 30.9295 23.4248 31.0501 23.7563L31.4518 24.8411C31.5925 25.2228 31.4618 25.4739 31.2409 25.5543C30.9998 25.6447 30.7286 25.5342 30.598 25.1625L30.2364 24.138C29.8447 23.0431 29.0009 22.7719 28.1773 23.0632C27.8257 23.1937 27.6951 23.4349 27.8056 23.7463L28.5791 25.8858C28.7197 26.2675 28.5891 26.5286 28.3782 26.6089C28.127 26.6994 27.8659 26.5789 27.7253 26.1972L25.1237 19.0353C24.8625 18.3322 24.2397 18.0509 23.6572 18.2619C23.0144 18.5029 22.7432 19.1056 22.9942 19.8087L26.8213 30.2953C26.9116 30.5565 26.7911 30.7574 26.6304 30.8077C26.4697 30.8579 26.309 30.8177 26.098 30.5967L23.5166 27.8344C23.1349 27.4225 22.7432 27.3222 22.3213 27.4829C21.6784 27.7239 21.4172 28.3065 21.6181 28.8489C21.6884 29.0599 21.7989 29.2206 21.9094 29.3612L25.1036 33.3489C27.7956 36.7239 30.8994 37.3768 33.9228 36.282Z" fill="white"/>
</g>
<defs>
<clipPath id="clip0_2339_50226">
<rect width="26.0796" height="24.4123" fill="white" transform="translate(13.7144 13.7139)"/>
</clipPath>
</defs>
</svg>
