<svg width="48" height="48" viewBox="0 0 48 48" fill="none" xmlns="http://www.w3.org/2000/svg">
<rect width="48" height="48" rx="12" fill="#0E0E0E"/>
<path d="M25.6411 37C25.4905 37 25.3596 36.9487 25.2486 36.8461C25.1456 36.7514 25.0822 36.6212 25.0584 36.4555C24.876 35.1613 24.6778 34.0723 24.4638 33.1885C24.2577 32.3126 23.9802 31.5905 23.6314 31.0224C23.2825 30.4542 22.8227 30.0004 22.2519 29.6611C21.689 29.3218 20.9676 29.0495 20.0876 28.8444C19.2155 28.6313 18.1373 28.4419 16.853 28.2762C16.6786 28.2604 16.5398 28.1973 16.4368 28.0868C16.3337 27.9763 16.2822 27.8422 16.2822 27.6843C16.2822 27.5344 16.3337 27.4042 16.4368 27.2937C16.5398 27.1833 16.6786 27.1201 16.853 27.1043C18.1373 26.9623 19.2195 26.7926 20.0995 26.5954C20.9795 26.3981 21.7049 26.1258 22.2757 25.7786C22.8465 25.4314 23.3063 24.9697 23.6551 24.3937C24.004 23.8176 24.2814 23.0877 24.4876 22.2039C24.7016 21.3121 24.8919 20.2153 25.0584 18.9132C25.0822 18.7554 25.1456 18.6291 25.2486 18.5344C25.3596 18.4318 25.4905 18.3805 25.6411 18.3805C25.7996 18.3805 25.9305 18.4318 26.0335 18.5344C26.1366 18.6291 26.204 18.7554 26.2357 18.9132C26.4022 20.2153 26.5885 21.3121 26.7946 22.2039C27.0086 23.0877 27.2861 23.8176 27.627 24.3937C27.9759 24.9697 28.4357 25.4314 29.0065 25.7786C29.5773 26.1258 30.3027 26.3981 31.1827 26.5954C32.0627 26.7926 33.1488 26.9623 34.4411 27.1043C34.6076 27.1201 34.7423 27.1833 34.8454 27.2937C34.9485 27.4042 35 27.5344 35 27.6843C35 27.8422 34.9485 27.9763 34.8454 28.0868C34.7423 28.1973 34.6076 28.2604 34.4411 28.2762C33.1488 28.4182 32.0627 28.5879 31.1827 28.7852C30.3027 28.9825 29.5773 29.2547 29.0065 29.6019C28.4357 29.9413 27.9759 30.3989 27.627 30.975C27.2861 31.5511 27.0086 32.285 26.7946 33.1767C26.5885 34.0684 26.4022 35.1613 26.2357 36.4555C26.204 36.6212 26.1366 36.7514 26.0335 36.8461C25.9305 36.9487 25.7996 37 25.6411 37ZM17.5784 23.9084C17.3405 23.9084 17.2058 23.7782 17.1741 23.5178C17.0789 22.7286 16.9759 22.1092 16.8649 21.6594C16.7618 21.2096 16.5914 20.8742 16.3535 20.6532C16.1236 20.4244 15.7748 20.2508 15.307 20.1324C14.8472 20.014 14.213 19.8878 13.4043 19.7536C13.1348 19.7142 13 19.58 13 19.3512C13 19.1302 13.1189 19 13.3568 18.9605C14.1733 18.8027 14.8155 18.6646 15.2832 18.5463C15.751 18.42 16.1038 18.2464 16.3416 18.0254C16.5795 17.8045 16.7539 17.477 16.8649 17.043C16.9759 16.6011 17.0789 15.9855 17.1741 15.1964C17.2058 14.936 17.3405 14.8058 17.5784 14.8058C17.8162 14.8058 17.951 14.932 17.9827 15.1846C18.0858 15.9816 18.1888 16.6089 18.2919 17.0666C18.4029 17.5243 18.5733 17.8715 18.8032 18.1083C19.0411 18.3371 19.3939 18.5068 19.8616 18.6173C20.3294 18.7278 20.9755 18.8422 21.8 18.9605C21.9031 18.9684 21.9863 19.0079 22.0497 19.0789C22.1211 19.1499 22.1568 19.2407 22.1568 19.3512C22.1568 19.5721 22.0378 19.7063 21.8 19.7536C20.9755 19.9114 20.3294 20.0535 19.8616 20.1797C19.4018 20.2981 19.053 20.4717 18.8151 20.7006C18.5852 20.9215 18.4148 21.253 18.3038 21.6949C18.1928 22.1368 18.0858 22.7523 17.9827 23.5414C17.9668 23.644 17.9232 23.7308 17.8519 23.8018C17.7805 23.8729 17.6894 23.9084 17.5784 23.9084ZM23.3341 15.7646C23.1834 15.7646 23.0962 15.6857 23.0724 15.5278C22.9773 15.0465 22.8941 14.6677 22.8227 14.3915C22.7593 14.1153 22.6562 13.9062 22.5135 13.7641C22.3787 13.6142 22.1686 13.4958 21.8832 13.409C21.5978 13.3222 21.1975 13.2354 20.6822 13.1486C20.5236 13.1171 20.4443 13.0263 20.4443 12.8764C20.4443 12.7343 20.5236 12.6475 20.6822 12.616C21.1975 12.5213 21.5978 12.4345 21.8832 12.3555C22.1686 12.2687 22.3787 12.1543 22.5135 12.0123C22.6562 11.8623 22.7593 11.6493 22.8227 11.3731C22.8941 11.0969 22.9773 10.7181 23.0724 10.2367C23.0962 10.0789 23.1834 10 23.3341 10C23.4768 10 23.564 10.0789 23.5957 10.2367C23.6829 10.7181 23.7622 11.0969 23.8335 11.3731C23.9049 11.6493 24.0079 11.8623 24.1427 12.0123C24.2854 12.1543 24.4995 12.2687 24.7849 12.3555C25.0703 12.4345 25.4706 12.5213 25.9859 12.616C26.1445 12.6475 26.2238 12.7343 26.2238 12.8764C26.2238 13.0263 26.1445 13.1171 25.9859 13.1486C25.4706 13.2354 25.0703 13.3222 24.7849 13.409C24.4995 13.4958 24.2854 13.6142 24.1427 13.7641C24.0079 13.9062 23.9049 14.1153 23.8335 14.3915C23.7622 14.6677 23.6829 15.0465 23.5957 15.5278C23.564 15.6857 23.4768 15.7646 23.3341 15.7646Z" fill="white"/>
</svg>
