<svg width="48" height="48" viewBox="0 0 48 48" fill="none" xmlns="http://www.w3.org/2000/svg">
<rect width="48" height="48" rx="12" fill="#242424"/>
<g clip-path="url(#clip0_2339_45643)">
<path d="M19.2122 22.6938H29.066C29.9599 22.6938 30.4823 22.1915 30.4823 21.3076V14.1257C30.4823 13.2418 29.9599 12.7295 29.066 12.7295H19.2122C18.3182 12.7295 17.7959 13.2418 17.7959 14.1257V21.3076C17.7959 22.1915 18.3182 22.6938 19.2122 22.6938Z" fill="white"/>
<path d="M17.6851 29.9766H30.6025C32.6015 29.9766 33.9173 28.6707 33.9173 26.6919V17.3002C33.9173 15.3114 32.6015 14.0156 30.6025 14.0156H17.6851C15.6862 14.0156 14.3604 15.3114 14.3604 17.3002V26.6919C14.3604 28.6707 15.6862 29.9766 17.6851 29.9766Z" fill="#242424"/>
<path d="M17.5748 28.6106H30.7131C31.8884 28.6106 32.5514 27.9577 32.5514 26.8026V17.1899C32.5514 16.0347 31.8884 15.3818 30.7131 15.3818H17.5748C16.3995 15.3818 15.7266 16.0347 15.7266 17.1899V26.8026C15.7266 27.9577 16.3995 28.6106 17.5748 28.6106Z" fill="white"/>
<path d="M16.7712 36.5855H31.5067C34.5 36.5855 36.2779 34.8277 36.2779 31.8545V21.5386C36.2779 18.5654 34.5 16.8076 31.5067 16.8076H16.7712C13.7779 16.8076 12 18.5654 12 21.5386V31.8545C12 34.8277 13.7779 36.5855 16.7712 36.5855Z" fill="#242424"/>
<path d="M18.1172 33.1503C18.9107 31.081 21.1909 29.6146 23.9431 29.6146C26.6853 29.6146 28.9654 31.081 29.759 33.1503H18.1172ZM23.9431 28.148C22.2555 28.148 20.9498 26.7418 20.9498 24.8734C20.9498 23.1056 22.2555 21.6491 23.9431 21.6491C25.6105 21.6491 26.9364 23.1056 26.9364 24.8734C26.9364 26.7418 25.6105 28.148 23.9431 28.148ZM16.7712 34.9684H31.5067C33.606 34.9684 34.6607 33.9237 34.6607 31.8545V21.5386C34.6607 19.4694 33.606 18.4248 31.5067 18.4248H16.7712C14.6719 18.4248 13.6172 19.4694 13.6172 21.5386V31.8545C13.6172 33.9237 14.6719 34.9684 16.7712 34.9684Z" fill="white"/>
</g>
<defs>
<clipPath id="clip0_2339_45643">
<rect width="24.2779" height="25.4431" fill="white" transform="translate(12 11.1426)"/>
</clipPath>
</defs>
</svg>
