<svg width="48" height="48" viewBox="0 0 48 48" fill="none" xmlns="http://www.w3.org/2000/svg">
<rect width="48" height="48" rx="12" fill="#0E0E0E"/>
<path d="M24.3705 25.1834C24.0758 25.1834 23.7871 25.0601 23.5045 24.8136L14.4934 16.8759C14.9745 16.5632 15.5849 16.4068 16.3245 16.4068H30.4771C30.3929 16.6413 30.3267 16.8879 30.2786 17.1465C30.2305 17.399 30.2065 17.6576 30.2065 17.9222C30.2065 18.6498 30.3778 19.3354 30.7206 19.9788L25.2364 24.8136C24.9598 25.0601 24.6711 25.1834 24.3705 25.1834ZM13.7267 30.4963C13.6545 30.3279 13.5974 30.1354 13.5553 29.919C13.5132 29.7025 13.4922 29.4499 13.4922 29.1613V19.2031C13.4922 18.8904 13.5132 18.6228 13.5553 18.4003C13.6034 18.1778 13.6545 18.0214 13.7087 17.9312L20.4016 23.8304L13.7267 30.4963ZM31.5324 21.0251C31.9233 21.41 32.3773 21.7167 32.8945 21.9452C33.4176 22.1677 33.9739 22.2789 34.5632 22.2789C34.6835 22.2789 34.8007 22.2759 34.915 22.2699C35.0292 22.2579 35.1435 22.2428 35.2577 22.2248V29.1613C35.2577 29.4499 35.2337 29.7025 35.1856 29.919C35.1435 30.1354 35.0894 30.3279 35.0232 30.4963L28.3483 23.8304L31.5324 21.0251ZM16.0539 31.9575C15.7232 31.9575 15.4285 31.9214 15.1699 31.8493C14.9174 31.7771 14.7069 31.6809 14.5385 31.5606L21.4028 24.6963L22.7198 25.8689C22.9844 26.0974 23.255 26.2718 23.5316 26.3921C23.8082 26.5064 24.0878 26.5635 24.3705 26.5635C24.6531 26.5635 24.9327 26.5064 25.2093 26.3921C25.492 26.2718 25.7656 26.0974 26.0302 25.8689L27.3471 24.6963L34.2114 31.5606C34.043 31.6809 33.8295 31.7771 33.571 31.8493C33.3184 31.9214 33.0268 31.9575 32.696 31.9575H16.0539ZM34.5722 21.0612C33.9949 21.0612 33.4687 20.9199 32.9937 20.6373C32.5186 20.3486 32.1398 19.9698 31.8571 19.5007C31.5745 19.0257 31.4332 18.4995 31.4332 17.9222C31.4332 17.3449 31.5745 16.8187 31.8571 16.3437C32.1398 15.8686 32.5186 15.4898 32.9937 15.2071C33.4687 14.9245 33.9949 14.7832 34.5722 14.7832C35.1435 14.7832 35.6666 14.9275 36.1417 15.2162C36.6168 15.4988 36.9956 15.8776 37.2782 16.3527C37.5609 16.8278 37.7022 17.3509 37.7022 17.9222C37.7022 18.4935 37.5609 19.0166 37.2782 19.4917C36.9956 19.9668 36.6168 20.3486 36.1417 20.6373C35.6666 20.9199 35.1435 21.0612 34.5722 21.0612ZM34.5722 19.636C34.8789 19.636 35.1615 19.5579 35.4201 19.4015C35.6847 19.2452 35.8921 19.0377 36.0425 18.7791C36.1988 18.5205 36.277 18.2349 36.277 17.9222C36.277 17.6095 36.1988 17.3239 36.0425 17.0653C35.8921 16.8067 35.6847 16.5993 35.4201 16.4429C35.1615 16.2866 34.8789 16.2084 34.5722 16.2084C34.2535 16.2084 33.9649 16.2866 33.7063 16.4429C33.4477 16.5993 33.2402 16.8067 33.0839 17.0653C32.9336 17.3239 32.8584 17.6095 32.8584 17.9222C32.8584 18.2349 32.9336 18.5205 33.0839 18.7791C33.2402 19.0377 33.4477 19.2452 33.7063 19.4015C33.9649 19.5579 34.2535 19.636 34.5722 19.636Z" fill="white"/>
</svg>
