<svg width="48" height="48" viewBox="0 0 48 48" fill="none" xmlns="http://www.w3.org/2000/svg">
<rect width="48" height="48" rx="12" fill="#0E0E0E"/>
<g clip-path="url(#clip0_2339_50120)">
<path d="M32.8661 33.5221C33.2879 33.954 34.0112 33.954 34.4129 33.5221C34.8248 33.0801 34.8248 32.3971 34.4129 31.9752L24.8605 22.3926C24.4386 21.9707 23.7154 21.9707 23.3136 22.3926C22.8917 22.8345 22.9018 23.5276 23.3136 23.9495L32.8661 33.5221ZM27.0201 26.6214L24.077 23.6683C23.8962 23.4874 23.836 23.2866 24.0167 23.1158C24.1674 22.955 24.3784 22.9952 24.5692 23.1861L27.5224 26.1392L27.0201 26.6214Z" fill="white"/>
<path d="M20.4813 33.6826C20.6621 33.6826 20.7927 33.552 20.8228 33.3612C21.1443 30.6793 21.2748 30.6089 24.007 30.167C24.2179 30.1268 24.3485 30.0263 24.3485 29.8255C24.3485 29.6346 24.2179 29.5141 24.0472 29.4839C21.2949 28.9617 21.1443 28.9717 20.8228 26.2898C20.7927 26.0989 20.6621 25.9684 20.4813 25.9684C20.2905 25.9684 20.1599 26.0989 20.1398 26.2798C19.7882 29.0018 19.6978 29.0922 16.9155 29.4839C16.7447 29.5041 16.6141 29.6346 16.6141 29.8255C16.6141 30.0163 16.7447 30.1268 16.9155 30.167C19.6978 30.6994 19.7782 30.6994 20.1398 33.3813C20.1599 33.552 20.2905 33.6826 20.4813 33.6826ZM15.7101 24.9337C15.8507 24.9337 15.9311 24.8333 15.9612 24.7027C16.3027 22.7943 16.3128 22.6737 18.3318 22.3322C18.4623 22.302 18.5628 22.2217 18.5628 22.0811C18.5628 21.9404 18.4623 21.85 18.3318 21.8299C16.3128 21.4784 16.3027 21.3578 15.9612 19.4494C15.9311 19.3188 15.8507 19.2284 15.7101 19.2284C15.5695 19.2284 15.4891 19.3188 15.459 19.4494C15.1175 21.3578 15.1074 21.4784 13.0884 21.8299C12.9579 21.85 12.8574 21.9404 12.8574 22.0811C12.8574 22.2217 12.9579 22.302 13.0884 22.3322C15.1074 22.6737 15.1175 22.7943 15.459 24.7027C15.4891 24.8333 15.5695 24.9337 15.7101 24.9337ZM21.2146 18.5052C21.3351 18.5052 21.3954 18.4348 21.4155 18.3244C21.757 16.7172 21.7369 16.6569 23.4244 16.3154C23.5349 16.2953 23.6153 16.225 23.6153 16.1145C23.6153 15.994 23.5349 15.9237 23.4244 15.9036C21.7369 15.5621 21.757 15.5018 21.4155 13.9047C21.3954 13.7942 21.3351 13.7139 21.2146 13.7139C21.094 13.7139 21.0338 13.7942 21.0137 13.9047C20.6722 15.5018 20.6922 15.5621 19.0047 15.9036C18.8943 15.9237 18.8139 15.994 18.8139 16.1145C18.8139 16.225 18.8943 16.2953 19.0047 16.3154C20.6922 16.6569 20.6722 16.7172 21.0137 18.3244C21.0338 18.4348 21.094 18.5052 21.2146 18.5052ZM29.5115 22.0509C29.6521 22.0509 29.7324 21.9605 29.7626 21.8299C30.1041 19.9215 30.1141 19.8009 32.1331 19.4494C32.2737 19.4293 32.3641 19.3389 32.3641 19.1982C32.3641 19.0576 32.2737 18.9773 32.1331 18.9471C30.1141 18.6056 30.1041 18.4851 29.7626 16.5766C29.7324 16.446 29.6521 16.3456 29.5115 16.3456C29.3708 16.3456 29.2905 16.446 29.2603 16.5766C28.9188 18.4851 28.9088 18.6056 26.8898 18.9471C26.7593 18.9773 26.6588 19.0576 26.6588 19.1982C26.6588 19.3389 26.7593 19.4293 26.8898 19.4494C28.9088 19.8009 28.9188 19.9215 29.2603 21.8299C29.2905 21.9605 29.3708 22.0509 29.5115 22.0509Z" fill="white"/>
</g>
<defs>
<clipPath id="clip0_2339_50120">
<rect width="21.8647" height="20.1797" fill="white" transform="translate(12.8574 13.7139)"/>
</clipPath>
</defs>
</svg>
