<svg width="48" height="48" viewBox="0 0 48 48" fill="none" xmlns="http://www.w3.org/2000/svg">
<rect width="48" height="48" rx="12" fill="#0E0E0E"/>
<g clip-path="url(#clip0_2339_50117)">
<path d="M32.8661 33.5221C33.2879 33.954 34.0112 33.954 34.4129 33.5221C34.8248 33.0801 34.8248 32.3971 34.4129 31.9752L24.8605 22.3926C24.4386 21.9707 23.7154 21.9707 23.3136 22.3926C22.8917 22.8345 22.9018 23.5276 23.3136 23.9495L32.8661 33.5221ZM27.0201 26.6214L24.077 23.6683C23.8962 23.4874 23.836 23.2866 24.0167 23.1158C24.1674 22.955 24.3784 22.9952 24.5692 23.1861L27.5224 26.1392L27.0201 26.6214Z" fill="white"/>
<path d="M20.4808 33.6826C20.6616 33.6826 20.7922 33.552 20.8223 33.3612C21.1438 30.6793 21.2743 30.6089 24.0065 30.167C24.2174 30.1268 24.348 30.0263 24.348 29.8255C24.348 29.6346 24.2174 29.5141 24.0467 29.4839C21.2944 28.9617 21.1438 28.9717 20.8223 26.2898C20.7922 26.0989 20.6616 25.9684 20.4808 25.9684C20.29 25.9684 20.1594 26.0989 20.1393 26.2798C19.7877 29.0018 19.6973 29.0922 16.915 29.4839C16.7442 29.5041 16.6136 29.6346 16.6136 29.8255C16.6136 30.0163 16.7442 30.1268 16.915 30.167C19.6973 30.6994 19.7777 30.6994 20.1393 33.3813C20.1594 33.552 20.29 33.6826 20.4808 33.6826ZM15.7096 24.9337C15.8502 24.9337 15.9306 24.8333 15.9607 24.7027C16.3022 22.7943 16.3123 22.6737 18.3313 22.3322C18.4618 22.302 18.5623 22.2217 18.5623 22.0811C18.5623 21.9404 18.4618 21.85 18.3313 21.8299C16.3123 21.4784 16.3022 21.3578 15.9607 19.4494C15.9306 19.3188 15.8502 19.2284 15.7096 19.2284C15.569 19.2284 15.4886 19.3188 15.4585 19.4494C15.117 21.3578 15.1069 21.4784 13.088 21.8299C12.9574 21.85 12.8569 21.9404 12.8569 22.0811C12.8569 22.2217 12.9574 22.302 13.088 22.3322C15.1069 22.6737 15.117 22.7943 15.4585 24.7027C15.4886 24.8333 15.569 24.9337 15.7096 24.9337ZM21.2141 18.5052C21.3346 18.5052 21.3949 18.4348 21.415 18.3244C21.7565 16.7172 21.7364 16.6569 23.4239 16.3154C23.5344 16.2953 23.6148 16.225 23.6148 16.1145C23.6148 15.994 23.5344 15.9237 23.4239 15.9036C21.7364 15.5621 21.7565 15.5018 21.415 13.9047C21.3949 13.7942 21.3346 13.7139 21.2141 13.7139C21.0935 13.7139 21.0333 13.7942 21.0132 13.9047C20.6717 15.5018 20.6918 15.5621 19.0043 15.9036C18.8938 15.9237 18.8134 15.994 18.8134 16.1145C18.8134 16.225 18.8938 16.2953 19.0043 16.3154C20.6918 16.6569 20.6717 16.7172 21.0132 18.3244C21.0333 18.4348 21.0935 18.5052 21.2141 18.5052ZM29.511 22.0509C29.6516 22.0509 29.7319 21.9605 29.7621 21.8299C30.1036 19.9215 30.1136 19.8009 32.1326 19.4494C32.2732 19.4293 32.3636 19.3389 32.3636 19.1982C32.3636 19.0576 32.2732 18.9773 32.1326 18.9471C30.1136 18.6056 30.1036 18.4851 29.7621 16.5766C29.7319 16.446 29.6516 16.3456 29.511 16.3456C29.3703 16.3456 29.29 16.446 29.2598 16.5766C28.9183 18.4851 28.9083 18.6056 26.8893 18.9471C26.7588 18.9773 26.6583 19.0576 26.6583 19.1982C26.6583 19.3389 26.7588 19.4293 26.8893 19.4494C28.9083 19.8009 28.9183 19.9215 29.2598 21.8299C29.29 21.9605 29.3703 22.0509 29.511 22.0509Z" fill="white"/>
</g>
<defs>
<clipPath id="clip0_2339_50117">
<rect width="21.8647" height="20.1797" fill="white" transform="translate(12.8569 13.7139)"/>
</clipPath>
</defs>
</svg>
