<svg width="48" height="48" viewBox="0 0 48 48" fill="none" xmlns="http://www.w3.org/2000/svg">
<rect width="48" height="48" rx="12" fill="#242424"/>
<g clip-path="url(#clip0_2339_50217)">
<path d="M16.7667 30.5166H30.0758C32.115 30.5166 33.1194 29.5222 33.1194 27.5032V17.3581C33.1194 15.3291 32.115 14.3447 30.0758 14.3447H16.7667C14.7276 14.3447 13.7131 15.3291 13.7131 17.3581V27.5032C13.7131 29.5222 14.7276 30.5166 16.7667 30.5166Z" fill="white"/>
<path d="M34.3833 37.5582C39.1947 35.8104 40.9123 31.6319 39.0641 26.5292L38.4112 24.7111C37.5072 22.22 35.5284 21.2658 33.9715 21.8484C33.8107 21.9086 33.6802 21.9689 33.5496 22.0593C32.4145 21.2959 31.0786 21.5571 30.3655 22.0794C29.4715 21.4365 28.3766 21.4767 27.5931 21.8082L26.3978 18.5638C25.8855 17.1475 24.4793 16.4845 23.1634 16.9667C21.7974 17.4689 21.1846 18.8752 21.6969 20.2714L23.9971 26.5794L23.7159 26.3082C23.1133 25.9767 22.4503 25.9566 21.8175 26.1977C20.5217 26.6799 19.8487 28.0259 20.3108 29.3015C20.4313 29.633 20.6121 29.9443 20.823 30.2055L24.0273 34.2033C27.121 38.0705 30.8677 38.8338 34.3833 37.5582Z" fill="#242424"/>
<path d="M33.9223 36.282C38.0206 34.7953 39.3765 31.4003 37.7895 27.0108L37.1265 25.1927C36.5239 23.5353 35.3587 22.802 34.4547 23.1335C34.2537 23.2139 34.1835 23.3545 34.2537 23.5453L34.5451 24.3589C34.6756 24.7306 34.5551 25.0018 34.3341 25.0822C34.083 25.1725 33.8118 25.052 33.6813 24.6703L33.4904 24.138C33.1287 23.1637 32.2851 22.7518 31.4313 23.0632C31.0496 23.2039 30.929 23.4248 31.0496 23.7563L31.4513 24.8411C31.592 25.2228 31.4613 25.4739 31.2404 25.5543C30.9993 25.6447 30.7281 25.5342 30.5975 25.1625L30.2359 24.138C29.8442 23.0431 29.0004 22.7719 28.1768 23.0632C27.8252 23.1937 27.6946 23.4349 27.8051 23.7463L28.5786 25.8858C28.7192 26.2675 28.5886 26.5286 28.3777 26.6089C28.1265 26.6994 27.8654 26.5789 27.7248 26.1972L25.1232 19.0353C24.862 18.3322 24.2392 18.0509 23.6567 18.2619C23.0139 18.5029 22.7427 19.1056 22.9937 19.8087L26.8208 30.2953C26.9111 30.5565 26.7906 30.7574 26.6299 30.8077C26.4692 30.8579 26.3085 30.8177 26.0975 30.5967L23.5161 27.8344C23.1344 27.4225 22.7427 27.3222 22.3208 27.4829C21.6779 27.7239 21.4167 28.3065 21.6176 28.8489C21.6879 29.0599 21.7984 29.2206 21.9089 29.3612L25.1031 33.3489C27.7951 36.7239 30.8989 37.3768 33.9223 36.282Z" fill="white"/>
</g>
<defs>
<clipPath id="clip0_2339_50217">
<rect width="26.0796" height="24.4123" fill="white" transform="translate(13.7144 13.7139)"/>
</clipPath>
</defs>
</svg>
