<svg width="48" height="48" viewBox="0 0 48 48" fill="none" xmlns="http://www.w3.org/2000/svg">
<rect width="48" height="48" rx="12" fill="#242424"/>
<path d="M25.0797 34.2462C23.1322 34.2462 21.3566 34.007 19.7528 33.5285C18.1557 33.0568 16.7777 32.383 15.6186 31.5069C14.4596 30.6242 13.5667 29.5729 12.94 28.3533C12.3133 27.1336 12 25.7825 12 24.3C12 22.7568 12.3302 21.3552 12.9906 20.0951C13.651 18.8282 14.591 17.7433 15.8107 16.8403C17.0371 15.9306 18.496 15.2298 20.1874 14.7379C21.8856 14.246 23.7656 14 25.8276 14C27.3977 14 28.8263 14.1617 30.1134 14.4852C31.4072 14.8086 32.5157 15.2702 33.4389 15.87C34.3688 16.4697 35.0865 17.1874 35.5919 18.023C36.0973 18.8585 36.35 19.7885 36.35 20.8127C36.35 21.5068 36.2085 22.1032 35.9255 22.6018C35.6424 23.1005 35.2752 23.5284 34.8237 23.8856C34.379 24.2427 33.9073 24.5527 33.4086 24.8155C32.9099 25.0716 32.4382 25.3074 31.9935 25.523C31.5487 25.7387 31.1848 25.9577 30.9018 26.1801C30.6188 26.3957 30.4773 26.6383 30.4773 26.9078C30.4773 27.1976 30.5615 27.4604 30.73 27.6962C30.9052 27.9254 31.104 28.1646 31.3264 28.4139C31.5487 28.6565 31.7442 28.9429 31.9126 29.2731C32.0878 29.6033 32.1754 30.0177 32.1754 30.5164C32.1754 31.2576 31.8789 31.9079 31.2859 32.4672C30.6929 33.0265 29.8641 33.4611 28.7994 33.7711C27.7414 34.0878 26.5015 34.2462 25.0797 34.2462ZM24.8573 30.385C25.3559 30.385 25.8074 30.2637 26.2117 30.0211C26.6228 29.7785 26.9496 29.455 27.1922 29.0507C27.4348 28.6396 27.5561 28.1882 27.5561 27.6962C27.5561 27.2043 27.4348 26.7562 27.1922 26.3519C26.9496 25.9408 26.6228 25.614 26.2117 25.3714C25.8074 25.1288 25.3559 25.0075 24.8573 25.0075C24.3654 25.0075 23.9172 25.1288 23.5129 25.3714C23.1086 25.614 22.7818 25.9408 22.5325 26.3519C22.2899 26.7562 22.1686 27.2043 22.1686 27.6962C22.1686 28.1882 22.2899 28.6396 22.5325 29.0507C22.7818 29.455 23.1086 29.7785 23.5129 30.0211C23.9172 30.2637 24.3654 30.385 24.8573 30.385ZM16.7811 25.5331C17.246 25.5331 17.6402 25.368 17.9637 25.0379C18.2939 24.7009 18.459 24.3 18.459 23.835C18.459 23.37 18.2939 22.9758 17.9637 22.6524C17.6402 22.3289 17.246 22.1672 16.7811 22.1672C16.3363 22.1672 15.9421 22.3357 15.5984 22.6726C15.2615 23.0028 15.093 23.3903 15.093 23.835C15.093 24.3 15.2581 24.7009 15.5883 25.0379C15.9252 25.368 16.3228 25.5331 16.7811 25.5331ZM20.6625 21.9549C21.242 21.9549 21.7373 21.7528 22.1484 21.3485C22.5662 20.9374 22.7751 20.432 22.7751 19.8323C22.7751 19.2528 22.5662 18.7608 22.1484 18.3565C21.7373 17.9455 21.242 17.7399 20.6625 17.7399C20.0695 17.7399 19.5641 17.9455 19.1463 18.3565C18.7285 18.7608 18.5196 19.2528 18.5196 19.8323C18.5196 20.432 18.7285 20.9374 19.1463 21.3485C19.5641 21.7528 20.0695 21.9549 20.6625 21.9549ZM26.05 20.3579C26.5217 20.3579 26.9227 20.1928 27.2529 19.8626C27.5831 19.5324 27.7482 19.1315 27.7482 18.6598C27.7482 18.1881 27.5831 17.7871 27.2529 17.4569C26.9227 17.1267 26.5217 16.9616 26.05 16.9616C25.5851 16.9616 25.1807 17.1267 24.8371 17.4569C24.5001 17.7871 24.3317 18.1881 24.3317 18.6598C24.3317 19.1315 24.5001 19.5324 24.8371 19.8626C25.1807 20.1928 25.5851 20.3579 26.05 20.3579ZM30.8109 21.2474C31.1882 21.2474 31.5083 21.116 31.7711 20.8532C32.0407 20.5836 32.1754 20.2568 32.1754 19.8727C32.1754 19.4886 32.0407 19.1618 31.7711 18.8922C31.5083 18.6227 31.1882 18.4879 30.8109 18.4879C30.4268 18.4879 30.0966 18.6227 29.8203 18.8922C29.5507 19.1618 29.416 19.4886 29.416 19.8727C29.416 20.2568 29.5507 20.5836 29.8203 20.8532C30.0966 21.116 30.4268 21.2474 30.8109 21.2474Z" fill="white"/>
</svg>
