<svg width="48" height="48" viewBox="0 0 48 48" fill="none" xmlns="http://www.w3.org/2000/svg">
<rect width="48" height="48" rx="12" fill="#242424"/>
<path d="M23.965 35.93C22.3306 35.93 20.79 35.6172 19.3432 34.9916C17.9043 34.3659 16.6335 33.5018 15.5308 32.3992C14.4282 31.2965 13.5641 30.0257 12.9384 28.5868C12.3128 27.14 12 25.5994 12 23.965C12 22.3306 12.3128 20.7939 12.9384 19.355C13.5641 17.9082 14.4243 16.6335 15.5191 15.5308C16.6218 14.4282 17.8926 13.5641 19.3315 12.9384C20.7782 12.3128 22.3188 12 23.9533 12C25.5877 12 27.1283 12.3128 28.575 12.9384C30.0218 13.5641 31.2965 14.4282 32.3992 15.5308C33.5018 16.6335 34.3659 17.9082 34.9916 19.355C35.6172 20.7939 35.93 22.3306 35.93 23.965C35.93 25.5994 35.6172 27.14 34.9916 28.5868C34.3659 30.0257 33.5018 31.2965 32.3992 32.3992C31.2965 33.5018 30.0218 34.3659 28.575 34.9916C27.1361 35.6172 25.5994 35.93 23.965 35.93ZM17.3842 28.5281C17.3842 28.8175 17.4703 29.0482 17.6423 29.2202C17.8144 29.3923 18.0451 29.4783 18.3344 29.4783H29.8654C30.0453 29.4783 30.2017 29.4157 30.3346 29.2906C30.4675 29.1577 30.534 28.9973 30.534 28.8097C30.534 28.6298 30.4675 28.4734 30.3346 28.3404C30.2017 28.2075 30.0453 28.141 29.8654 28.141H18.8388C18.7684 28.141 18.7332 28.1019 18.7332 28.0237V25.5603L21.1028 23.1908C21.1653 23.1204 21.224 23.1204 21.2787 23.1908L23.3902 25.3609C23.6796 25.6424 23.9963 25.7832 24.3404 25.7832C24.6845 25.7832 24.9973 25.6424 25.2788 25.3609L27.5545 23.0266L28.4108 23.9063C28.5594 24.0628 28.7275 24.1097 28.9152 24.0471C29.1029 23.9767 29.2241 23.8281 29.2789 23.6014L30.1586 20.1174C30.2134 19.9219 30.1665 19.7577 30.0179 19.6248C29.8771 19.484 29.709 19.4371 29.5135 19.484L26.0413 20.352C25.8223 20.4146 25.6776 20.5397 25.6073 20.7274C25.5369 20.9073 25.5799 21.0676 25.7363 21.2084L26.5926 22.0764L24.4342 24.2583C24.3795 24.3365 24.3208 24.3404 24.2583 24.27L22.1233 22.0764C21.8496 21.7949 21.5368 21.6541 21.1849 21.6541C20.8564 21.6541 20.5475 21.7949 20.2582 22.0764L18.7332 23.6248V18.7802C18.7332 18.6003 18.6668 18.4439 18.5338 18.311C18.4009 18.178 18.2445 18.1115 18.0646 18.1115C17.8769 18.1115 17.7166 18.178 17.5837 18.311C17.4507 18.4439 17.3842 18.6003 17.3842 18.7802V28.5281Z" fill="white"/>
</svg>
