<svg width="48" height="48" viewBox="0 0 48 48" fill="none" xmlns="http://www.w3.org/2000/svg">
<rect width="48" height="48" rx="12" fill="#0E0E0E"/>
<path d="M16.8669 30.1282H26.9517C29.041 30.1282 30.0957 29.0836 30.0957 27.0143V16.8492C30.0957 14.78 29.041 13.7354 26.9517 13.7354H16.8669C14.7575 13.7354 13.7129 14.78 13.7129 16.8492V27.0143C13.7129 29.0836 14.7575 30.1282 16.8669 30.1282ZM16.887 28.511C15.8825 28.511 15.3301 27.9686 15.3301 26.924V16.9396C15.3301 15.895 15.8825 15.3525 16.887 15.3525H26.9216C27.916 15.3525 28.4785 15.895 28.4785 16.9396V26.924C28.4785 27.9686 27.916 28.511 26.9216 28.511H16.887Z" fill="white"/>
<path d="M21.738 34.7786H31.8228C33.9121 34.7786 34.9668 33.734 34.9668 31.6648V21.4996C34.9668 19.4304 33.9121 18.3857 31.8228 18.3857H21.738C19.6286 18.3857 18.584 19.4203 18.584 21.4996V31.6648C18.584 33.734 19.6286 34.7786 21.738 34.7786Z" fill="white"/>
<path d="M21.738 34.7786H31.8228C33.9121 34.7786 34.9668 33.734 34.9668 31.6648V21.4996C34.9668 19.4304 33.9121 18.3857 31.8228 18.3857H21.738C19.6286 18.3857 18.584 19.4203 18.584 21.4996V31.6648C18.584 33.734 19.6286 34.7786 21.738 34.7786ZM21.7581 33.1614C20.7637 33.1614 20.2012 32.619 20.2012 31.5743V21.59C20.2012 20.5453 20.7637 20.0029 21.7581 20.0029H31.7927C32.7871 20.0029 33.3497 20.5453 33.3497 21.59V31.5743C33.3497 32.619 32.7871 33.1614 31.7927 33.1614H21.7581Z" fill="white"/>
<path d="M22.3515 29.9666H23.8884V28.6408H22.3515C22.0101 28.6408 21.7188 28.932 21.7188 29.2937C21.7188 29.6754 22.0101 29.9666 22.3515 29.9666ZM25.2042 31.3327C26.3393 31.3327 27.2534 30.4187 27.2534 29.2937C27.2534 28.1787 26.3393 27.2646 25.2042 27.2646C24.0893 27.2646 23.1753 28.1787 23.1753 29.2937C23.1753 30.4187 24.0893 31.3327 25.2042 31.3327ZM26.6105 29.9666H31.1708C31.5525 29.9666 31.8437 29.6754 31.8437 29.2937C31.8437 28.932 31.5525 28.6408 31.1708 28.6408H26.6105V29.9666Z" fill="#0E0E0E"/>
<path d="M22.3917 24.5936H26.952V23.2677H22.3917C22.0101 23.2677 21.7188 23.559 21.7188 23.9206C21.7188 24.2922 22.0101 24.5936 22.3917 24.5936ZM28.3582 25.9597C29.4732 25.9597 30.3873 25.0457 30.3873 23.9206C30.3873 22.8057 29.4732 21.8916 28.3582 21.8916C27.2332 21.8916 26.3192 22.8057 26.3192 23.9206C26.3192 25.0457 27.2332 25.9597 28.3582 25.9597ZM29.6741 24.5936H31.211C31.5525 24.5936 31.8437 24.2922 31.8437 23.9206C31.8437 23.559 31.5525 23.2677 31.211 23.2677H29.6741V24.5936Z" fill="#0E0E0E"/>
</svg>
