<svg width="48" height="48" viewBox="0 0 48 48" fill="none" xmlns="http://www.w3.org/2000/svg">
<rect width="48" height="48" rx="12" fill="#242424"/>
<path d="M24.9531 31.8403C24.0625 31.8403 23.3141 31.6826 22.708 31.3672C22.1081 31.0579 21.6535 30.6034 21.3442 30.0034C21.035 29.3973 20.8804 28.6551 20.8804 27.7769V22.7578C20.8804 21.8796 21.035 21.1374 21.3442 20.5312C21.6535 19.9251 22.1081 19.4674 22.708 19.1582C23.3141 18.8428 24.0625 18.6851 24.9531 18.6851H33.5718C34.4624 18.6851 35.2077 18.8428 35.8076 19.1582C36.4137 19.4674 36.8714 19.9251 37.1807 20.5312C37.4899 21.1374 37.6445 21.8796 37.6445 22.7578V27.7769C37.6445 28.6551 37.4899 29.3973 37.1807 30.0034C36.8714 30.6034 36.4137 31.0579 35.8076 31.3672C35.2077 31.6826 34.4624 31.8403 33.5718 31.8403H33.377V34.0669C33.377 34.4194 33.2904 34.7008 33.1172 34.9111C32.944 35.1214 32.6966 35.2266 32.375 35.2266C32.1523 35.2266 31.9451 35.1647 31.7534 35.041C31.5679 34.9173 31.3359 34.7349 31.0576 34.4937L27.959 31.8403H24.9531ZM11 25.3647V18.249C11 17.346 11.1608 16.5791 11.4824 15.9482C11.8102 15.3112 12.2896 14.8288 12.9204 14.501C13.5513 14.167 14.3275 14 15.249 14H27.1982C28.3919 14 29.3413 14.2814 30.0464 14.8442C30.7576 15.4071 31.1937 16.2049 31.3545 17.2378V17.4233H24.9531C23.8275 17.4233 22.8657 17.6367 22.0679 18.0635C21.27 18.4902 20.6608 19.1025 20.2402 19.9004C19.8258 20.6982 19.6187 21.6507 19.6187 22.7578V27.7769C19.6187 28.8345 19.8135 29.756 20.2031 30.5415L18.0415 32.4619C17.7632 32.7093 17.5282 32.8918 17.3364 33.0093C17.1447 33.133 16.9344 33.1948 16.7056 33.1948C16.384 33.1948 16.1335 33.0897 15.9541 32.8794C15.7809 32.6691 15.6943 32.3846 15.6943 32.0259V29.6045H15.249C14.3275 29.6045 13.5513 29.4406 12.9204 29.1128C12.2896 28.785 11.8102 28.3057 11.4824 27.6748C11.1608 27.0378 11 26.2677 11 25.3647Z" fill="white"/>
</svg>
