<svg width="48" height="48" viewBox="0 0 48 48" fill="none" xmlns="http://www.w3.org/2000/svg">
<rect width="48" height="48" rx="12" fill="#242424"/>
<g clip-path="url(#clip0_2339_50175)">
<path d="M16.2419 32.3877H27.0298C29.0488 32.3877 30.2542 31.2225 30.2542 29.2035V19.2493C30.2542 17.2404 29.1493 16.0752 27.1303 16.0752H16.2419C14.3133 16.0752 13.0176 17.2404 13.0176 19.2493V29.2035C13.0176 31.2225 14.2229 32.3877 16.2419 32.3877ZM31.6202 27.1946L35.2765 30.3587C35.618 30.66 36.0198 30.8509 36.3814 30.8509C37.1649 30.8509 37.6772 30.2783 37.6772 29.4547V19.0082C37.6772 18.1846 37.1649 17.612 36.3814 17.612C36.0198 17.612 35.618 17.8029 35.2765 18.1042L31.6202 21.2582V27.1946Z" fill="white"/>
<path d="M13.761 37.3297C14.5646 37.3297 15.2476 36.8877 15.5892 36.2549C15.7599 36.2951 15.9206 36.3252 16.1014 36.3252C17.1863 36.3252 18.1003 35.5618 18.2711 34.5373L18.2811 34.3866C18.3313 34.4167 18.4016 34.4368 18.472 34.4368C19.6974 34.4368 20.6617 33.4625 20.6617 32.237V29.6556C20.6617 28.4502 19.6974 27.4658 18.472 27.4658C18.4016 27.4658 18.3313 27.4859 18.2811 27.5161L18.2711 27.3654C18.1003 26.3509 17.1863 25.5774 16.1014 25.5774C15.9206 25.5774 15.7599 25.6076 15.5892 25.6578C15.2476 25.025 14.5646 24.583 13.761 24.583C12.7465 24.583 11.9128 25.2861 11.6516 26.2102L11.6416 26.3609C11.5713 26.3308 11.4909 26.3107 11.4005 26.3107C10.4162 26.3107 9.50209 26.9636 9.31125 27.8978L9.3012 28.0484C9.22085 28.0183 9.13044 27.9982 9.04004 27.9982C7.83468 27.9982 6.86035 28.9725 6.86035 30.188V31.7147C6.86035 32.92 7.83468 33.9044 9.04004 33.9044C9.13044 33.9044 9.2108 33.8843 9.29116 33.8542L9.3012 33.9949C9.56236 34.919 10.4061 35.5919 11.4005 35.5919C11.4809 35.5919 11.5713 35.5718 11.6316 35.5417L11.6416 35.7024C11.9028 36.6266 12.7264 37.3297 13.761 37.3297Z" fill="#242424"/>
<path d="M18.4717 32.8002C18.7932 32.8002 19.0342 32.5692 19.0342 32.2377V29.6563C19.0342 29.3449 18.7932 29.0938 18.4717 29.0938C18.1503 29.0938 17.9092 29.3549 17.9092 29.6563V32.2377C17.9092 32.5592 18.1503 32.8002 18.4717 32.8002Z" fill="white"/>
<path d="M16.1013 34.6984C16.4328 34.6984 16.6839 34.4472 16.6839 34.1358V27.7675C16.6839 27.4561 16.4328 27.2051 16.1013 27.2051C15.8 27.2051 15.5488 27.4561 15.5488 27.7675V34.1358C15.5488 34.4472 15.8 34.6984 16.1013 34.6984Z" fill="white"/>
<path d="M13.7607 35.7031C14.0721 35.7031 14.3232 35.4521 14.3232 35.1407V26.7835C14.3232 26.4621 14.0721 26.2109 13.7607 26.2109C13.4393 26.2109 13.1982 26.4621 13.1982 26.7835V35.1407C13.1982 35.4621 13.4293 35.7031 13.7607 35.7031Z" fill="white"/>
<path d="M11.4004 33.9652C11.7218 33.9652 11.9729 33.7141 11.9729 33.3926V28.511C11.9729 28.1895 11.7218 27.9385 11.4004 27.9385C11.089 27.9385 10.8379 28.1895 10.8379 28.511V33.3926C10.8379 33.7141 11.089 33.9652 11.4004 33.9652Z" fill="white"/>
<path d="M9.03976 32.2777C9.37123 32.2777 9.6123 32.0267 9.6123 31.7153V30.1885C9.6123 29.8771 9.37123 29.626 9.03976 29.626C8.72838 29.626 8.4873 29.8771 8.4873 30.1885V31.7153C8.4873 32.0267 8.72838 32.2777 9.03976 32.2777Z" fill="white"/>
</g>
<defs>
<clipPath id="clip0_2339_50175">
<rect width="30.8169" height="26.1864" fill="white" transform="translate(6.85742 11.1426)"/>
</clipPath>
</defs>
</svg>
