<svg width="48" height="48" viewBox="0 0 48 48" fill="none" xmlns="http://www.w3.org/2000/svg">
<rect width="48" height="48" rx="12" fill="#242424"/>
<path d="M17.384 32.3475C16.4765 32.3475 15.806 32.1308 15.3726 31.6974C14.9392 31.264 14.7225 30.5935 14.7225 29.686V27.4918C14.7225 27.2886 14.6547 27.1159 14.5193 26.9737L12.9651 25.4093C12.3217 24.7727 12 24.1496 12 23.5401C12 22.9306 12.3217 22.3042 12.9651 21.6608L14.5193 20.0964C14.6547 19.9542 14.7225 19.7849 14.7225 19.5885V17.3841C14.7225 16.4698 14.9392 15.7994 15.3726 15.3727C15.806 14.9393 16.4765 14.7226 17.384 14.7226H19.5884C19.7915 14.7226 19.9609 14.6549 20.0963 14.5194L21.6607 12.9652C22.3041 12.3218 22.9305 12.0001 23.54 12.0001C24.1495 11.9933 24.7726 12.315 25.4092 12.9652L26.9736 14.5194C27.1158 14.6549 27.2885 14.7226 27.4917 14.7226H29.6859C30.6002 14.7226 31.2706 14.9427 31.6973 15.3829C32.1307 15.8163 32.3474 16.4834 32.3474 17.3841V19.5885C32.3474 19.7849 32.4185 19.9542 32.5608 20.0964L34.115 21.6608C34.7516 22.3042 35.0699 22.9306 35.0699 23.5401C35.0767 24.1496 34.7584 24.7727 34.115 25.4093L32.5608 26.9737C32.4185 27.1159 32.3474 27.2886 32.3474 27.4918V29.686C32.3474 30.6003 32.1307 31.2707 31.6973 31.6974C31.2639 32.1308 30.5934 32.3475 29.6859 32.3475H27.4917C27.2885 32.3475 27.1158 32.4186 26.9736 32.5609L25.4092 34.1151C24.7726 34.7517 24.1495 35.07 23.54 35.07C22.9305 35.0768 22.3041 34.7585 21.6607 34.1151L20.0963 32.5609C19.9609 32.4186 19.7915 32.3475 19.5884 32.3475H17.384ZM22.4023 28.4975C22.5784 28.4975 22.7375 28.4568 22.8797 28.3756C23.0219 28.2943 23.1472 28.1724 23.2556 28.0099L28.0301 20.4824C28.091 20.3808 28.1486 20.2725 28.2028 20.1574C28.2569 20.0422 28.284 19.9271 28.284 19.812C28.284 19.5749 28.196 19.3887 28.0199 19.2533C27.8438 19.111 27.6474 19.0399 27.4307 19.0399C27.1327 19.0399 26.8889 19.1957 26.6993 19.5072L22.3616 26.4759L20.2995 23.8144C20.1708 23.6451 20.0455 23.53 19.9236 23.469C19.8085 23.4081 19.6764 23.3776 19.5274 23.3776C19.2972 23.3776 19.1042 23.4623 18.9484 23.6316C18.7926 23.7941 18.7148 23.9905 18.7148 24.2207C18.7148 24.3359 18.7351 24.451 18.7757 24.5661C18.8231 24.6745 18.8841 24.7795 18.9586 24.8811L21.5083 28.0099C21.6438 28.1859 21.7826 28.3112 21.9248 28.3857C22.067 28.4602 22.2262 28.4975 22.4023 28.4975Z" fill="white"/>
</svg>
