<svg width="61" height="60" viewBox="0 0 61 60" fill="none" xmlns="http://www.w3.org/2000/svg">
  <path d="M16.6979 0.866072H44.3021C52.7687 0.866072 59.6338 7.73765 59.6338 16.2162V43.7836C59.6338 52.2622 52.7687 59.1337 44.3021 59.1337H16.6979C8.23135 59.1337 1.36616 52.2622 1.36616 43.7836V16.2162C1.36616 7.73765 8.23135 0.866072 16.6979 0.866072Z" stroke="black" stroke-width="1.73233" />
  <path d="M25.9016 39.4202H35.0925C36.569 39.4202 37.3525 38.6167 37.3525 37.0296V30.1088C37.3525 28.5318 36.569 27.7282 35.0925 27.7282H25.9016C24.4251 27.7282 23.6416 28.5318 23.6416 30.1088V37.0296C23.6416 38.6167 24.4251 39.4202 25.9016 39.4202ZM25.9519 37.9034C25.52 37.9034 25.2688 37.6322 25.2688 37.1401V29.9983C25.2688 29.5062 25.52 29.245 25.9519 29.245H35.0423C35.4842 29.245 35.7253 29.5062 35.7253 29.9983V37.1401C35.7253 37.6322 35.4842 37.9034 35.0423 37.9034H25.9519ZM25.3994 28.5017H26.9965V25.1166C26.9965 22.5753 28.6137 21.2394 30.4921 21.2394C32.3704 21.2394 34.0077 22.5753 34.0077 25.1166V28.5017H35.5947V25.3276C35.5947 21.5508 33.1237 19.7227 30.4921 19.7227C27.8704 19.7227 25.3994 21.5508 25.3994 25.3276V28.5017Z" fill="black" />
</svg>
