<svg width="60" height="60" viewBox="0 0 60 60" fill="none" xmlns="http://www.w3.org/2000/svg">
  <path d="M16.1979 0.866057H43.8021C52.2687 0.866057 59.1338 7.73764 59.1338 16.2162V43.7836C59.1338 52.2622 52.2687 59.1337 43.8021 59.1337H16.1979C7.73135 59.1337 0.866163 52.2622 0.866163 43.7836V16.2162C0.866163 7.73764 7.73135 0.866057 16.1979 0.866057Z" stroke="black" stroke-width="1.73233" />
  <path
    d="M33.4348 38.5565C34.7608 38.5565 35.8456 37.4716 35.8456 36.1458C35.8456 34.8199 34.7608 33.7351 33.4348 33.7351C32.1089 33.7351 31.0141 34.8199 31.0141 36.1458C31.0141 37.4716 32.1089 38.5565 33.4348 38.5565ZM33.4348 37.321C32.7719 37.321 32.2596 36.7987 32.2596 36.1458C32.2596 35.4727 32.7719 34.9705 33.4348 34.9705C34.0978 34.9705 34.6101 35.4727 34.6101 36.1458C34.6101 36.7987 34.0978 37.321 33.4348 37.321ZM31.8377 35.3322H20.5174C20.0654 35.3322 19.7139 35.6937 19.7139 36.1458C19.7139 36.5977 20.0654 36.9493 20.5174 36.9493H31.8377V35.3322ZM39.1804 35.3322H35.1826V36.9493H39.1804C39.5922 36.9493 39.9538 36.5977 39.9538 36.1458C39.9538 35.6937 39.5922 35.3322 39.1804 35.3322ZM26.3433 32.4292C27.6692 32.4292 28.7541 31.3344 28.7541 30.0085C28.7541 28.6826 27.6692 27.5978 26.3433 27.5978C25.0174 27.5978 23.9326 28.6826 23.9326 30.0085C23.9326 31.3344 25.0174 32.4292 26.3433 32.4292ZM26.3433 31.1837C25.6904 31.1837 25.1681 30.6613 25.1681 30.0085C25.1681 29.3455 25.6904 28.8333 26.3433 28.8333C27.0063 28.8333 27.5186 29.3455 27.5186 30.0085C27.5186 30.6613 27.0063 31.1837 26.3433 31.1837ZM20.4773 29.1949C20.0654 29.1949 19.7139 29.5565 19.7139 30.0085C19.7139 30.4605 20.0654 30.812 20.4773 30.812H24.6157V29.1949H20.4773ZM39.1402 29.1949H27.9404V30.812H39.1402C39.5922 30.812 39.9538 30.4605 39.9538 30.0085C39.9538 29.5565 39.5922 29.1949 39.1402 29.1949ZM33.4348 26.2819C34.7608 26.2819 35.8456 25.1971 35.8456 23.8712C35.8456 22.5453 34.7608 21.4504 33.4348 21.4504C32.1089 21.4504 31.0141 22.5453 31.0141 23.8712C31.0141 25.1971 32.1089 26.2819 33.4348 26.2819ZM33.4348 25.0464C32.7719 25.0464 32.2596 24.5241 32.2596 23.8612C32.2596 23.1982 32.7719 22.6859 33.4348 22.6859C34.0978 22.6859 34.6101 23.1982 34.6101 23.8612C34.6101 24.5241 34.0978 25.0464 33.4348 25.0464ZM31.888 23.0676H20.5174C20.0654 23.0676 19.7139 23.4192 19.7139 23.8712C19.7139 24.3232 20.0654 24.6848 20.5174 24.6848H31.888V23.0676ZM39.1804 23.0676H35.042V24.6848H39.1804C39.5922 24.6848 39.9538 24.3232 39.9538 23.8712C39.9538 23.4192 39.5922 23.0676 39.1804 23.0676Z"
    fill="black"
  />
</svg>
