<svg width="60" height="60" viewBox="0 0 60 60" fill="none" xmlns="http://www.w3.org/2000/svg">
  <path d="M16.1979 0.866057H43.8021C52.2687 0.866057 59.1338 7.73764 59.1338 16.2162V43.7836C59.1338 52.2622 52.2687 59.1337 43.8021 59.1337H16.1979C7.73135 59.1337 0.866163 52.2622 0.866163 43.7836V16.2162C0.866163 7.73764 7.73135 0.866057 16.1979 0.866057Z" stroke="black" stroke-width="1.73233" />
  <path d="M31.8204 19.6552L38.7037 23.6369C39.5586 24.1357 40.079 24.6413 40.079 26.0609V33.8677C40.079 35.3263 39.563 35.8599 38.641 36.4063L31.7684 40.3556C30.564 41.0484 29.4168 41.04 28.2208 40.3556L21.3589 36.4063C20.4241 35.8599 19.9209 35.3263 19.9209 33.8677V26.0609C19.9209 24.6413 20.4391 24.1357 21.294 23.6369L28.1689 19.6552C29.3867 18.9579 30.5814 18.9366 31.8204 19.6552ZM33.0921 26.0625L28.9644 32.5955L26.8546 29.941C26.6719 29.7169 26.4742 29.6162 26.1957 29.6162C25.7267 29.6162 25.3831 29.9538 25.3831 30.4146C25.3831 30.6192 25.4488 30.8022 25.6214 31.0051L28.2188 34.1826C28.4324 34.44 28.6714 34.5565 28.9864 34.5565C29.3218 34.5565 29.5842 34.4262 29.766 34.1531L34.4312 26.9823C34.5644 26.783 34.6168 26.5973 34.6168 26.4245C34.6168 25.9697 34.2788 25.6388 33.8101 25.6388C33.4878 25.6388 33.2892 25.7517 33.0921 26.0625Z" fill="black" />
</svg>
