<svg width="61" height="60" viewBox="0 0 61 60" fill="none" xmlns="http://www.w3.org/2000/svg">
  <path d="M16.6979 0.866057H44.3021C52.7687 0.866057 59.6338 7.73764 59.6338 16.2162V43.7836C59.6338 52.2622 52.7687 59.1337 44.3021 59.1337H16.6979C8.23135 59.1337 1.36616 52.2622 1.36616 43.7836V16.2162C1.36616 7.73764 8.23135 0.866057 16.6979 0.866057Z" stroke="black" stroke-width="1.73233" />
  <path d="M42.649 29.9447C42.649 35.5395 38.0084 40.1902 32.4035 40.1902C30.9857 40.1902 29.6284 39.8915 28.3922 39.3545C28.5806 39.132 28.7545 38.897 28.9123 38.6511C29.0634 38.4155 29.1999 38.1699 29.3201 37.9156C29.7125 37.0859 29.9329 36.1641 29.9329 35.1981C29.9329 34.6687 29.8681 34.1533 29.7461 33.6595C30.548 33.4703 31.4405 33.3599 32.4035 33.3599C35.4328 33.3599 37.7604 34.446 38.7729 35.6507C40.1235 34.1422 40.9414 32.1452 40.9414 29.9447C40.9414 25.2036 37.1345 21.4067 32.3935 21.4067C28.0619 21.4067 24.5353 24.576 23.9583 28.739C23.7919 28.7259 23.6237 28.7193 23.4541 28.7193C23.0323 28.7193 22.6191 28.7607 22.2185 28.8396C22.7799 23.7427 27.1709 19.6992 32.3935 19.6992C37.9983 19.6992 42.649 24.3398 42.649 29.9447Z" fill="black" />
  <path d="M35.8488 27.8654C35.8488 30.025 34.3421 31.6724 32.4035 31.6523C30.4749 31.6322 28.9682 30.025 28.9582 27.8654C28.9482 25.8364 30.4749 24.159 32.4035 24.159C34.3321 24.159 35.8488 25.8364 35.8488 27.8654Z" fill="black" />
  <path fill-rule="evenodd" clip-rule="evenodd" d="M28.5569 35.1982C28.5569 37.9906 26.2165 40.3008 23.4542 40.3008C20.6618 40.3008 18.3516 38.0106 18.3516 35.1982C18.3516 32.4058 20.6618 30.0955 23.4542 30.0955C26.2567 30.0955 28.5569 32.3958 28.5569 35.1982ZM22.3388 37.7394C22.4694 37.8801 22.6803 37.9503 22.841 37.9503C23.062 37.9503 23.2629 37.86 23.3734 37.7093L26.2863 33.6613C26.3768 33.5307 26.4269 33.3901 26.4269 33.2796C26.4269 32.928 26.1356 32.6568 25.7942 32.6568C25.5631 32.6568 25.3823 32.7674 25.2618 32.9381L22.8209 36.3332L21.5854 34.9972C21.4749 34.8867 21.3142 34.7863 21.1033 34.7863C20.7517 34.7863 20.4705 35.0575 20.4705 35.4191C20.4705 35.5598 20.5207 35.7405 20.6412 35.8711L22.3388 37.7394Z" fill="black" />
</svg>
