<svg width="60" height="60" viewBox="0 0 60 60" fill="none" xmlns="http://www.w3.org/2000/svg">
  <path d="M16.1979 0.866041H43.8021C52.2687 0.866041 59.1338 7.73762 59.1338 16.2162V43.7835C59.1338 52.2621 52.2687 59.1337 43.8021 59.1337H16.1979C7.73135 59.1337 0.866163 52.2621 0.866163 43.7835V16.2162C0.866163 7.73762 7.73135 0.866041 16.1979 0.866041Z" stroke="black" stroke-width="1.73233" />
  <path
    d="M14.5473 23L16.9973 15.9H18.8273L21.2873 23H19.7373L19.1573 21.23H16.4273L15.8473 23H14.5473ZM16.7573 20.25H18.8273L17.7973 17.09L16.7573 20.25ZM22.5351 23V15.9H23.9851V23H22.5351ZM28.8295 23.15C26.6995 23.15 25.4895 21.52 25.4895 19.45C25.4895 17.36 26.6995 15.74 28.8395 15.74C30.3895 15.74 31.6295 16.68 31.7995 17.97H30.3295C30.0995 17.16 29.5595 16.71 28.7995 16.71C27.6695 16.71 26.9595 17.82 26.9595 19.45C26.9595 21.06 27.6695 22.18 28.7995 22.18C29.5595 22.18 30.1295 21.68 30.3595 20.81H31.8095C31.6895 22.15 30.4195 23.15 28.8295 23.15ZM33.1085 23V15.9H36.2185C37.6785 15.9 38.6185 16.74 38.6185 18.09C38.6185 19.44 37.6785 20.27 36.2185 20.27H34.5585V23H33.1085ZM36.0485 19.31C36.7285 19.31 37.1885 18.89 37.1885 18.09C37.1885 17.28 36.7285 16.86 36.0485 16.86H34.5485V19.31H36.0485ZM38.7149 23L41.1649 15.9H42.9949L45.4549 23H43.9049L43.3249 21.23H40.5949L40.0149 23H38.7149ZM40.9249 20.25H42.9949L41.9649 17.09L40.9249 20.25ZM17.8624 34.16C16.0824 34.16 14.9724 33.33 14.8924 31.94H16.3524C16.4324 32.8 17.1824 33.21 17.9224 33.21C18.6924 33.21 19.2424 32.75 19.2424 32.06C19.2424 31.3 18.5824 31.11 17.4824 30.87C15.6324 30.47 15.1324 29.84 15.1324 28.79C15.1324 27.64 16.0924 26.74 17.7324 26.74C19.0824 26.74 20.3624 27.46 20.4124 28.76H19.0024C18.9824 28.12 18.4524 27.68 17.6624 27.68C16.8924 27.68 16.4924 28.17 16.4924 28.69C16.4924 29.33 17.0624 29.54 18.2124 29.78C19.8724 30.13 20.6124 30.76 20.6124 31.96C20.6124 33.28 19.5724 34.16 17.8624 34.16ZM25.1747 34.16C23.0547 34.16 21.7547 32.56 21.7547 30.45C21.7547 28.34 23.0547 26.74 25.1747 26.74C27.3047 26.74 28.5847 28.34 28.5847 30.45C28.5847 32.56 27.3047 34.16 25.1747 34.16ZM25.1747 33.19C26.3547 33.19 27.0947 32.13 27.0947 30.45C27.0947 28.77 26.3547 27.71 25.1747 27.71C24.0147 27.71 23.2447 28.79 23.2447 30.45C23.2447 32.11 24.0147 33.19 25.1747 33.19ZM33.0482 34.15C30.9182 34.15 29.7082 32.52 29.7082 30.45C29.7082 28.36 30.9182 26.74 33.0582 26.74C34.6082 26.74 35.8482 27.68 36.0182 28.97H34.5482C34.3182 28.16 33.7782 27.71 33.0182 27.71C31.8882 27.71 31.1782 28.82 31.1782 30.45C31.1782 32.06 31.8882 33.18 33.0182 33.18C33.7782 33.18 34.3482 32.68 34.5782 31.81H36.0282C35.9082 33.15 34.6382 34.15 33.0482 34.15ZM39.9368 34V33.12L41.7768 31.33C42.6268 30.51 43.4068 29.7 43.4068 28.83C43.4068 28.11 43.0068 27.68 42.4068 27.68C41.7568 27.68 41.2868 28.27 41.2468 29.01H39.8468C39.8768 27.78 40.9768 26.76 42.4068 26.76C44.0268 26.76 44.7968 27.72 44.7968 28.83C44.7968 30.11 43.8568 31.06 42.7568 32.13L41.8868 32.97H44.8468V34H39.9368ZM14.627 45V38.88H12.557V37.9H18.147V38.88H16.077V45H14.627ZM21.3819 45V41.99L18.9519 37.9H20.5819L22.2019 40.78L23.8019 37.9H25.2519L22.8319 42V45H21.3819ZM26.3637 45V37.9H29.4738C30.9337 37.9 31.8738 38.74 31.8738 40.09C31.8738 41.44 30.9337 42.27 29.4738 42.27H27.8137V45H26.3637ZM29.3037 41.31C29.9838 41.31 30.4438 40.89 30.4438 40.09C30.4438 39.28 29.9838 38.86 29.3037 38.86H27.8037V41.31H29.3037ZM33.204 45V37.9H38.084V38.88H34.654V40.83H37.874V41.81H34.654V44.02H38.194V45H33.204ZM42.4123 45V44.08H44.2623V39.29L42.7223 40.34V39.23L44.5723 37.9H45.6523V44.08H47.2123V45H42.4123Z"
    fill="black"
  />
</svg>
