<svg width="18" height="18" viewBox="0 0 18 18" fill="none" xmlns="http://www.w3.org/2000/svg">
  <path d="M8.07184 12.6459C8.34042 12.6459 8.56833 12.5143 8.73105 12.2592L12.4504 6.34272C12.5481 6.17815 12.6458 5.99711 12.6458 5.81608C12.6458 5.44579 12.3202 5.20715 11.9865 5.20715C11.775 5.20715 11.5715 5.33881 11.4168 5.57745L8.03929 11.0578L6.43598 8.95947C6.24065 8.69615 6.06159 8.63028 5.84185 8.63028C5.48375 8.63028 5.20703 8.91832 5.20703 9.28036C5.20703 9.46139 5.28028 9.63419 5.39423 9.79057L7.38006 12.2592C7.58353 12.5307 7.80327 12.6459 8.07184 12.6459Z" fill="black" />
</svg>
