<svg width="111" height="153" viewBox="0 0 111 153" fill="none" xmlns="http://www.w3.org/2000/svg">
  <path d="M31.2082 0.866163H79.0821C94.1185 0.866163 106.308 13.0556 106.308 28.092V75.8476C106.308 90.884 94.1185 103.073 79.0821 103.073H31.2082C16.1718 103.073 3.98237 90.884 3.98237 75.8476V28.092C3.98237 13.0556 16.1718 0.866163 31.2082 0.866163Z" stroke="black" stroke-width="1.73233" />
  <path d="M14.5547 46.328H16.9877V58.2412H14.5547V46.328Z" fill="black" />
  <path d="M23.8366 46.0603C26.1019 46.0603 28.2497 47.2685 28.3336 49.4497H25.9677C25.9341 48.3759 25.0448 47.6375 23.7191 47.6375C22.4272 47.6375 21.756 48.4598 21.756 49.3322C21.756 50.4062 22.7125 50.7585 24.642 51.1611C27.4274 51.7484 28.6692 52.8055 28.6692 54.8191C28.6692 57.0339 26.924 58.5105 24.0547 58.5105C21.0681 58.5105 19.2055 57.1178 19.0713 54.7855H21.521C21.6554 56.2285 22.9137 56.9164 24.1555 56.9164C25.4474 56.9164 26.3703 56.1446 26.3703 54.9869C26.3703 53.7117 25.2629 53.3928 23.4171 52.9902C20.313 52.319 19.474 51.2619 19.474 49.5C19.474 47.5705 21.0848 46.0603 23.8366 46.0603Z" fill="black" />
  <path d="M36.0745 46.0603C39.6485 46.0603 41.7963 48.7449 41.7963 52.2854C41.7963 55.8257 39.6485 58.5105 36.0745 58.5105C32.5173 58.5105 30.3359 55.8257 30.3359 52.2854C30.3359 48.7449 32.5173 46.0603 36.0745 46.0603ZM36.0745 47.6878C34.1281 47.6878 32.8361 49.5 32.8361 52.2854C32.8361 55.0708 34.1281 56.8828 36.0745 56.8828C38.0545 56.8828 39.2962 55.1042 39.2962 52.2854C39.2962 49.4664 38.0545 47.6878 36.0745 47.6878Z" fill="black" />
  <path d="M43.9316 49.8017H46.3814V51.9662H43.9316V49.8017ZM43.9316 56.0771H46.3814V58.2416H43.9316V56.0771Z" fill="black" />
  <path d="M53.543 55.1044L52.0832 56.514H57.05V58.2421H48.8112V56.7657L51.8986 53.7622C53.3249 52.3862 54.6337 51.0271 54.6337 49.5674C54.6337 48.3592 53.9625 47.6377 52.9557 47.6377C51.8651 47.6377 51.0764 48.6278 51.0093 49.8694H48.6602C48.7105 47.8055 50.5563 46.0941 52.9557 46.0941C55.674 46.0941 56.9661 47.7049 56.9661 49.5674C56.9661 51.715 55.3888 53.3091 53.543 55.1044Z" fill="black" />
  <path d="M58.5195 48.0563V46.328H66.5066V47.7542C64.577 50.1872 62.7144 54.5164 62.4627 58.2412H59.8619C60.2646 54.5331 62.4124 50.6235 64.4427 48.0563H58.5195Z" fill="black" />
  <path d="M72.1389 58.5107C69.0179 58.5107 67.793 55.675 67.793 52.3023C67.793 48.8795 69.0682 46.0941 72.1389 46.0941C75.243 46.0941 76.4846 48.9129 76.4846 52.3023C76.4846 55.7589 75.2094 58.5107 72.1389 58.5107ZM72.1389 56.9669C73.6992 56.9669 74.1356 54.9199 74.1356 52.3023C74.1356 49.6849 73.6658 47.6377 72.1389 47.6377C70.6118 47.6377 70.1756 49.7016 70.1756 52.3023C70.1756 54.9032 70.6118 56.9669 72.1389 56.9669Z" fill="black" />
  <path d="M82.2863 58.5107C79.1653 58.5107 77.9404 55.675 77.9404 52.3023C77.9404 48.8795 79.2156 46.0941 82.2863 46.0941C85.3905 46.0941 86.6322 48.9129 86.6322 52.3023C86.6322 55.7589 85.3569 58.5107 82.2863 58.5107ZM82.2863 56.9669C83.8468 56.9669 84.283 54.9199 84.283 52.3023C84.283 49.6849 83.8132 47.6377 82.2863 47.6377C80.7594 47.6377 80.323 49.7016 80.323 52.3023C80.323 54.9032 80.7594 56.9669 82.2863 56.9669Z" fill="black" />
  <path d="M88.373 48.3248L90.9738 46.328H92.786V58.2412H90.4537V48.6771L88.373 50.2208V48.3248Z" fill="black" />
  <mask id="mask0_646_4469" style="mask-type: luminance" maskUnits="userSpaceOnUse" x="26" y="20" width="56" height="64">
    <path d="M81.9366 20.6025H26.5283V83.4976H81.9366V20.6025Z" fill="black" />
  </mask>
  <g mask="url(#mask0_646_4469)">
    <path d="M73.6199 73.8598C71.4444 72.1526 69.0485 70.7483 66.5148 69.6468L67.341 66.6179L65.1655 66.0946L64.4218 68.8483C57.8125 66.5903 50.6525 66.5903 44.0432 68.8483L43.2996 66.0946L41.124 66.6179L41.9502 69.6468C39.4167 70.7206 37.0208 72.1526 34.8452 73.8598C32.284 71.5743 30.136 68.8483 28.5111 65.8193L26.5283 66.8931C34.7075 82.2032 53.7644 87.9583 69.076 79.7801C74.5287 76.8338 79.0176 72.3454 81.9367 66.8656L79.9539 65.8193C78.329 68.8483 76.1811 71.5743 73.6199 73.8598ZM39.2514 77.109C38.3425 76.5583 37.4614 75.9526 36.6077 75.2917C38.4527 73.8874 40.4906 72.7033 42.6386 71.7671C43.6576 74.5207 44.8969 76.8887 46.3013 78.7338C46.7695 79.367 47.2928 79.9729 47.8435 80.5236C44.8142 79.8627 41.9227 78.7061 39.2514 77.109ZM54.2325 81.212C52.0569 81.212 49.9639 79.8076 48.1464 77.3845C46.8797 75.7048 45.7505 73.5293 44.7867 70.9686C47.816 69.9221 51.0104 69.399 54.2325 69.399C57.4546 69.399 60.649 69.9221 63.706 70.9686C62.7696 73.5018 61.613 75.7048 60.3462 77.3845C58.5286 79.8076 56.4081 81.212 54.2325 81.212ZM69.1862 77.109C66.5425 78.7061 63.6233 79.8351 60.594 80.5511C61.1448 80.0004 61.668 79.3945 62.1363 78.7613C63.5407 76.8888 64.7799 74.5482 65.7989 71.7946C67.9469 72.7308 69.9572 73.9149 71.8298 75.3192C70.9762 75.9526 70.095 76.5583 69.1862 77.109Z" fill="black" />
    <path d="M34.8452 30.2145C37.0208 31.9217 39.389 33.3261 41.9502 34.4274L41.124 37.4564L43.2996 37.9796L44.0432 35.2261C47.3203 36.3551 50.7626 36.9333 54.2325 36.9333C57.7024 36.9333 61.1448 36.3551 64.4218 35.2261L65.1655 37.9796L67.341 37.4564L66.5148 34.4274C69.0485 33.3536 71.4444 31.9217 73.6199 30.2145C76.1811 32.4999 78.329 35.2261 79.9539 38.2551L81.9367 37.2086C73.7577 21.8986 54.7283 16.1435 39.4167 24.3218C33.9363 27.2406 29.4475 31.7289 26.5283 37.2086L28.5111 38.2551C30.136 35.2261 32.284 32.4999 34.8452 30.2145ZM69.1862 26.9927C70.1225 27.5434 71.0037 28.1217 71.8298 28.7825C69.9848 30.187 67.9469 31.3709 65.7989 32.3073C64.7799 29.5811 63.5407 27.213 62.1363 25.3681C61.668 24.7347 61.1448 24.129 60.594 23.5783C63.6233 24.2392 66.5148 25.3956 69.1862 26.9927ZM54.2325 22.8624C56.4356 22.8624 58.5286 24.2667 60.3462 26.6899C61.613 28.3696 62.742 30.5449 63.706 33.1058C60.649 34.1521 57.4546 34.6754 54.2325 34.6754C51.0104 34.7029 47.816 34.1521 44.7592 33.1058C45.6955 30.5449 46.8522 28.3696 48.1189 26.6899C49.9364 24.2667 52.0294 22.8624 54.2325 22.8624ZM39.2514 26.9927C41.9502 25.3956 44.8417 24.2392 47.8435 23.5783C47.2928 24.129 46.7695 24.7347 46.3013 25.3681C44.8969 27.213 43.6576 29.5536 42.6386 32.3073C40.4906 31.3986 38.4803 30.2145 36.6077 28.7825C37.4614 28.1493 38.3425 27.5434 39.2514 26.9927Z" fill="black" />
  </g>
  <path
    d="M26.6889 140.988H24.5264V126.639H26.6889V140.988ZM34.3585 126.315C35.2343 126.315 36.0494 126.477 36.804 126.801C37.572 127.11 38.1917 127.569 38.6633 128.175C39.1349 128.768 39.3976 129.468 39.4515 130.277H37.3496C37.2688 129.603 36.9454 129.057 36.3795 128.64C35.8136 128.222 35.1197 128.013 34.2979 128.013C33.7185 128.013 33.22 128.114 32.8023 128.316C32.3846 128.505 32.0612 128.768 31.8322 129.105C31.6166 129.441 31.5088 129.812 31.5088 130.216C31.5088 130.674 31.6368 131.051 31.8928 131.348C32.1488 131.644 32.5261 131.887 33.0246 132.075C33.5366 132.264 34.2372 132.453 35.1265 132.641C36.8242 132.978 38.0435 133.477 38.7846 134.137C39.5256 134.797 39.8962 135.713 39.8962 136.886C39.8962 137.775 39.6738 138.556 39.2292 139.23C38.7846 139.89 38.1581 140.402 37.3496 140.766C36.5547 141.13 35.6385 141.312 34.601 141.312C33.5501 141.312 32.6069 141.143 31.7715 140.806C30.9362 140.456 30.2692 139.951 29.7707 139.291C29.2722 138.617 28.996 137.822 28.9421 136.906H31.1046C31.1989 137.768 31.5829 138.435 32.2566 138.907C32.9303 139.365 33.7252 139.594 34.6414 139.594C35.5576 139.594 36.3122 139.371 36.905 138.927C37.4978 138.469 37.7943 137.849 37.7943 137.067C37.7943 136.528 37.6595 136.097 37.3901 135.774C37.1206 135.437 36.7298 135.174 36.2178 134.986C35.7193 134.797 35.0254 134.608 34.1362 134.42C32.9505 134.164 32.0141 133.861 31.3269 133.51C30.6532 133.147 30.1682 132.715 29.8718 132.217C29.5753 131.705 29.4271 131.099 29.4271 130.398C29.4271 129.63 29.6292 128.936 30.0334 128.316C30.4511 127.697 31.0372 127.211 31.7918 126.861C32.5463 126.497 33.4019 126.315 34.3585 126.315ZM48.1708 126.315C49.5316 126.315 50.7106 126.639 51.7076 127.286C52.7181 127.932 53.4929 128.828 54.0318 129.974C54.5842 131.105 54.8604 132.385 54.8604 133.814C54.8604 135.242 54.5842 136.528 54.0318 137.674C53.4929 138.806 52.7181 139.695 51.7076 140.342C50.7106 140.988 49.5316 141.312 48.1708 141.312C46.8234 141.312 45.6377 140.988 44.6137 140.342C43.6032 139.695 42.8217 138.806 42.2693 137.674C41.7304 136.528 41.4609 135.242 41.4609 133.814C41.4609 132.385 41.7304 131.105 42.2693 129.974C42.8217 128.828 43.6032 127.932 44.6137 127.286C45.6377 126.639 46.8234 126.315 48.1708 126.315ZM48.1708 128.074C47.268 128.074 46.4798 128.31 45.8061 128.781C45.1325 129.253 44.607 129.926 44.2297 130.802C43.8525 131.664 43.6638 132.668 43.6638 133.814C43.6638 134.959 43.8525 135.969 44.2297 136.845C44.607 137.707 45.1325 138.374 45.8061 138.846C46.4798 139.318 47.268 139.553 48.1708 139.553C49.0735 139.553 49.8617 139.318 50.5354 138.846C51.2091 138.374 51.7278 137.707 52.0916 136.845C52.4689 135.983 52.6575 134.972 52.6575 133.814C52.6575 132.655 52.4689 131.644 52.0916 130.782C51.7278 129.92 51.2091 129.253 50.5354 128.781C49.8617 128.31 49.0735 128.074 48.1708 128.074Z"
    fill="black"
  />
  <g clip-path="url(#clip0_646_4469)">
    <path
      d="M76.4238 122.325L78.1484 124.038C78.3275 124.206 78.4842 124.262 78.7194 124.262H81.1383C83.154 124.262 84.0722 125.203 84.0722 127.196V129.626C84.0722 129.85 84.1394 130.018 84.3074 130.186L86.0207 131.911C87.4316 133.322 87.4428 134.632 86.0207 136.043L84.3074 137.767C84.1394 137.947 84.0722 138.103 84.0722 138.338V140.757C84.0722 142.773 83.1427 143.691 81.1383 143.691H78.7194C78.4842 143.691 78.3275 143.758 78.1484 143.926L76.4238 145.64C75.0128 147.051 73.7026 147.062 72.2917 145.64L70.5671 143.926C70.3992 143.758 70.2312 143.691 70.0072 143.691H67.5772C65.5727 143.691 64.6433 142.762 64.6433 140.757V138.338C64.6433 138.103 64.5873 137.947 64.4193 137.767L62.706 136.043C61.295 134.632 61.2838 133.322 62.706 131.911L64.4193 130.186C64.5873 130.018 64.6433 129.85 64.6433 129.626V127.196C64.6433 125.181 65.5727 124.262 67.5772 124.262H70.0072C70.2312 124.262 70.3992 124.206 70.5671 124.038L72.2917 122.325C73.7026 120.914 75.0128 120.903 76.4238 122.325ZM77.846 129.537L73.0644 137.219L70.7911 134.285C70.5112 133.915 70.2648 133.803 69.9512 133.803C69.4361 133.803 69.0442 134.217 69.0442 134.733C69.0442 134.979 69.145 135.237 69.3129 135.461L72.1237 138.91C72.4149 139.301 72.7284 139.447 73.1091 139.447C73.4899 139.447 73.8146 139.268 74.0498 138.91L79.3129 130.612C79.4474 130.388 79.5929 130.13 79.5929 129.873C79.5929 129.358 79.1338 129.022 78.6522 129.022C78.3499 129.022 78.0587 129.19 77.846 129.537Z"
      fill="black"
    />
  </g>
  <defs>
    <clipPath id="clip0_646_4469">
      <rect width="25.7755" height="25.4508" fill="black" transform="translate(61.6436 121.263)" />
    </clipPath>
  </defs>
</svg>
