<svg width="111" height="153" viewBox="0 0 111 153" fill="none" xmlns="http://www.w3.org/2000/svg">
  <path d="M31.1496 0.866163H79.0235C94.0599 0.866163 106.249 13.0556 106.249 28.092V75.8476C106.249 90.884 94.0599 103.073 79.0235 103.073H31.1496C16.1132 103.073 3.92378 90.884 3.92378 75.8476V28.092C3.92378 13.0556 16.1132 0.866163 31.1496 0.866163Z" stroke="black" stroke-width="1.73233" />
  <mask id="path-2-inside-1_646_4455" fill="black">
    <path
      fill-rule="evenodd"
      clip-rule="evenodd"
      d="M55.9734 87.5857L54.4549 83.0846L52.9363 87.5857L48.1858 87.6392L51.9976 90.4745L50.5797 95.0087L54.4549 92.2599L58.3284 95.0087L56.9122 90.4745L60.724 87.6392L55.9734 87.5857ZM55.9734 13.4313L54.4549 8.93018L52.9363 13.4313L48.1858 13.4847L51.9976 16.3201L50.5797 20.8543L54.4549 18.1055L58.3284 20.8543L56.9122 16.3201L60.724 13.4847L55.9734 13.4313ZM23.97 52.5988L19.468 54.1176L19.4144 58.8678L16.5803 55.0563L12.0457 56.4732L14.7938 52.5988L12.0457 48.7245L16.5803 50.1415L19.4144 46.33L19.468 51.0801L23.97 52.5988ZM93.6229 54.1176L98.124 52.5989L93.6229 51.0801L93.5693 46.33L90.7341 50.1415L86.1999 48.7245L88.9485 52.5989L86.1999 56.4732L90.7341 55.0563L93.5693 58.8678L93.6229 54.1176ZM28.0547 37.3561L23.3967 36.4208L20.9752 40.5079L20.4262 35.7893L15.791 34.7494L20.1079 32.7684L19.6645 28.0387L22.8835 31.533L27.2443 29.6498L24.9153 33.7903L28.0547 37.3561ZM87.6146 73.4981L92.2721 74.4333L89.1335 70.8675L91.4622 66.727L87.1009 68.6101L83.8827 65.116L84.3261 69.8456L80.0084 71.8265L84.6436 72.8665L85.1932 77.585L87.6146 73.4981ZM39.2141 26.1972L35.6491 23.0584L31.5076 25.3873L33.3916 21.026L29.8965 17.8078L34.6259 18.251L36.6074 13.9333L37.6468 18.5686L42.3665 19.1183L38.2786 21.5397L39.2141 26.1972ZM72.7263 87.2773L76.2914 90.416L75.3561 85.7586L79.4432 83.3372L74.724 82.7874L73.6845 78.1522L71.7031 82.4699L66.9736 82.0267L70.4687 85.2449L68.5848 89.6061L72.7263 87.2773ZM69.6989 26.1951L70.6344 21.5376L66.5465 19.1162L71.2662 18.5666L72.3056 13.9313L74.2871 18.2491L79.0162 17.8057L75.5221 21.0239L77.4052 25.3852L73.2639 23.0565L69.6989 26.1951ZM33.5573 85.7589L32.6218 90.4163L36.1867 87.2777L40.3282 89.6064L38.4442 85.2451L41.9394 82.0269L37.2099 82.4702L35.2285 78.1525L34.189 82.7878L29.4693 83.3375L33.5573 85.7589ZM80.857 37.3553L83.9956 33.7894L81.6669 29.649L86.0282 31.5322L89.2464 28.0379L88.803 32.7676L93.1208 34.7486L88.4855 35.7885L87.9359 40.5069L85.5145 36.42L80.857 37.3553ZM19.7765 70.8667L16.6371 74.4324L21.2951 73.4971L23.7167 77.5842L24.2656 72.8657L28.9009 71.8257L24.584 69.8448L25.0273 65.115L21.8083 68.6093L17.4475 66.7261L19.7765 70.8667Z"
    />
  </mask>
  <path
    fill-rule="evenodd"
    clip-rule="evenodd"
    d="M55.9734 87.5857L54.4549 83.0846L52.9363 87.5857L48.1858 87.6392L51.9976 90.4745L50.5797 95.0087L54.4549 92.2599L58.3284 95.0087L56.9122 90.4745L60.724 87.6392L55.9734 87.5857ZM55.9734 13.4313L54.4549 8.93018L52.9363 13.4313L48.1858 13.4847L51.9976 16.3201L50.5797 20.8543L54.4549 18.1055L58.3284 20.8543L56.9122 16.3201L60.724 13.4847L55.9734 13.4313ZM23.97 52.5988L19.468 54.1176L19.4144 58.8678L16.5803 55.0563L12.0457 56.4732L14.7938 52.5988L12.0457 48.7245L16.5803 50.1415L19.4144 46.33L19.468 51.0801L23.97 52.5988ZM93.6229 54.1176L98.124 52.5989L93.6229 51.0801L93.5693 46.33L90.7341 50.1415L86.1999 48.7245L88.9485 52.5989L86.1999 56.4732L90.7341 55.0563L93.5693 58.8678L93.6229 54.1176ZM28.0547 37.3561L23.3967 36.4208L20.9752 40.5079L20.4262 35.7893L15.791 34.7494L20.1079 32.7684L19.6645 28.0387L22.8835 31.533L27.2443 29.6498L24.9153 33.7903L28.0547 37.3561ZM87.6146 73.4981L92.2721 74.4333L89.1335 70.8675L91.4622 66.727L87.1009 68.6101L83.8827 65.116L84.3261 69.8456L80.0084 71.8265L84.6436 72.8665L85.1932 77.585L87.6146 73.4981ZM39.2141 26.1972L35.6491 23.0584L31.5076 25.3873L33.3916 21.026L29.8965 17.8078L34.6259 18.251L36.6074 13.9333L37.6468 18.5686L42.3665 19.1183L38.2786 21.5397L39.2141 26.1972ZM72.7263 87.2773L76.2914 90.416L75.3561 85.7586L79.4432 83.3372L74.724 82.7874L73.6845 78.1522L71.7031 82.4699L66.9736 82.0267L70.4687 85.2449L68.5848 89.6061L72.7263 87.2773ZM69.6989 26.1951L70.6344 21.5376L66.5465 19.1162L71.2662 18.5666L72.3056 13.9313L74.2871 18.2491L79.0162 17.8057L75.5221 21.0239L77.4052 25.3852L73.2639 23.0565L69.6989 26.1951ZM33.5573 85.7589L32.6218 90.4163L36.1867 87.2777L40.3282 89.6064L38.4442 85.2451L41.9394 82.0269L37.2099 82.4702L35.2285 78.1525L34.189 82.7878L29.4693 83.3375L33.5573 85.7589ZM80.857 37.3553L83.9956 33.7894L81.6669 29.649L86.0282 31.5322L89.2464 28.0379L88.803 32.7676L93.1208 34.7486L88.4855 35.7885L87.9359 40.5069L85.5145 36.42L80.857 37.3553ZM19.7765 70.8667L16.6371 74.4324L21.2951 73.4971L23.7167 77.5842L24.2656 72.8657L28.9009 71.8257L24.584 69.8448L25.0273 65.115L21.8083 68.6093L17.4475 66.7261L19.7765 70.8667Z"
    fill="black"
    stroke="black"
    stroke-width="6.55064"
    mask="url(#path-2-inside-1_646_4455)"
  />
  <mask id="path-3-inside-2_646_4455" fill="black">
    <path d="M36.8428 53.656V51.9467H42.4948V58.5922H40.5767L40.437 57.1097C39.6688 58.3655 38.3776 58.8714 36.8786 58.8714C33.3199 58.8714 31.2441 56.1504 31.2441 52.4003C31.2441 48.7025 33.564 45.9291 37.2797 45.9291C39.966 45.9291 42.1277 47.4641 42.4428 49.749H39.8605C39.4772 48.4757 38.605 47.621 37.0881 47.621C35.2561 47.621 33.8083 49.4002 33.8083 52.4003C33.8083 55.4004 35.2036 57.197 37.2797 57.197C39.128 57.197 40.2096 55.9584 40.2096 53.9526V53.656H36.8428Z" />
  </mask>
  <path d="M36.8428 53.656V51.9467H42.4948V58.5922H40.5767L40.437 57.1097C39.6688 58.3655 38.3776 58.8714 36.8786 58.8714C33.3199 58.8714 31.2441 56.1504 31.2441 52.4003C31.2441 48.7025 33.564 45.9291 37.2797 45.9291C39.966 45.9291 42.1277 47.4641 42.4428 49.749H39.8605C39.4772 48.4757 38.605 47.621 37.0881 47.621C35.2561 47.621 33.8083 49.4002 33.8083 52.4003C33.8083 55.4004 35.2036 57.197 37.2797 57.197C39.128 57.197 40.2096 55.9584 40.2096 53.9526V53.656H36.8428Z" fill="black" />
  <path
    d="M36.8428 53.656H33.5675V56.9314H36.8428V53.656ZM36.8428 51.9467V48.6713H33.5675V51.9467H36.8428ZM42.4948 51.9467H45.7701V48.6713H42.4948V51.9467ZM42.4948 58.5922V61.8676H45.7701V58.5922H42.4948ZM40.5767 58.5922L37.3158 58.8995L37.5954 61.8676H40.5767V58.5922ZM40.437 57.1097L43.6979 56.8025L42.7754 47.0108L37.643 55.4005L40.437 57.1097ZM42.4428 49.749V53.0244H46.2008L45.6874 49.3016L42.4428 49.749ZM39.8605 49.749L36.7242 50.6931L37.4259 53.0244H39.8605V49.749ZM40.2096 53.656H43.485V50.3807H40.2096V53.656ZM40.1182 53.656V51.9467H33.5675V53.656H40.1182ZM36.8428 55.222H42.4948V48.6713H36.8428V55.222ZM39.2195 51.9467V58.5922H45.7701V51.9467H39.2195ZM42.4948 55.3169H40.5767V61.8676H42.4948V55.3169ZM43.8376 58.285L43.6979 56.8025L37.1761 57.417L37.3158 58.8995L43.8376 58.285ZM37.643 55.4005C37.6154 55.4458 37.5978 55.4614 37.594 55.4648C37.5897 55.4686 37.5773 55.4792 37.5445 55.4945C37.4722 55.5283 37.2723 55.5961 36.8786 55.5961V62.1468C39.1263 62.1468 41.6883 61.3407 43.231 58.8189L37.643 55.4005ZM36.8786 55.5961C36.0068 55.5961 35.5397 55.299 35.2363 54.9373C34.8787 54.511 34.5195 53.6988 34.5195 52.4003H27.9688C27.9688 54.8518 28.6475 57.2753 30.2174 59.147C31.8416 61.0834 34.1917 62.1468 36.8786 62.1468V55.5961ZM34.5195 52.4003C34.5195 51.2277 34.8825 50.4344 35.2984 49.9742C35.683 49.5488 36.2883 49.2044 37.2797 49.2044V42.6538C34.5555 42.6538 32.143 43.6961 30.4387 45.5818C28.7658 47.4327 27.9688 49.875 27.9688 52.4003H34.5195ZM37.2797 49.2044C38.0125 49.2044 38.5275 49.4143 38.8175 49.6263C39.0845 49.8215 39.1731 50.0143 39.1982 50.1965L45.6874 49.3016C45.0845 44.9294 41.0823 42.6538 37.2797 42.6538V49.2044ZM42.4428 46.4737H39.8605V53.0244H42.4428V46.4737ZM42.9968 48.805C42.6695 47.7177 42.0577 46.5599 40.9738 45.6729C39.856 44.758 38.4968 44.3456 37.0881 44.3456V50.8963C37.1583 50.8963 37.1442 50.9058 37.0746 50.8827C37.0004 50.858 36.9098 50.8116 36.8249 50.7421C36.6522 50.6008 36.6682 50.5071 36.7242 50.6931L42.9968 48.805ZM37.0881 44.3456C35.0019 44.3456 33.2387 45.3964 32.1042 46.9704C31.0105 48.4876 30.533 50.4078 30.533 52.4003H37.0836C37.0836 51.3927 37.33 50.9232 37.4182 50.8008C37.4564 50.7478 37.4484 50.7792 37.3662 50.8239C37.278 50.8718 37.1743 50.8963 37.0881 50.8963V44.3456ZM30.533 52.4003C30.533 54.3631 30.9844 56.3164 32.1303 57.8688C33.3456 59.5153 35.1845 60.4723 37.2797 60.4723V53.9216C37.2436 53.9216 37.281 53.9167 37.3479 53.9508C37.4133 53.9841 37.4269 54.014 37.4007 53.9785C37.3299 53.8826 37.0836 53.4376 37.0836 52.4003H30.533ZM37.2797 60.4723C38.9722 60.4723 40.6545 59.8789 41.8785 58.5111C43.0597 57.1912 43.485 55.519 43.485 53.9526H36.9343C36.9343 54.1641 36.9054 54.2671 36.8988 54.2872C36.894 54.302 36.9138 54.2358 36.997 54.1428C37.0842 54.0454 37.1897 53.9763 37.2797 53.9396C37.362 53.906 37.3759 53.9216 37.2797 53.9216V60.4723ZM43.485 53.9526V53.656H36.9343V53.9526H43.485ZM40.2096 50.3807H36.8428V56.9314H40.2096V50.3807Z"
    fill="black"
    mask="url(#path-3-inside-2_646_4455)"
  />
  <mask id="path-5-inside-3_646_4455" fill="black">
    <path d="M45.0381 46.2082H49.7822C53.3406 46.2082 55.4698 48.7722 55.4698 52.4004C55.4698 56.0283 53.3406 58.5924 49.7822 58.5924H45.0381V46.2082ZM49.5743 47.8827H47.5506V56.8656H49.5743C51.4404 56.8656 52.8355 55.2783 52.8355 52.4004C52.8355 49.4875 51.4404 47.8827 49.5743 47.8827Z" />
  </mask>
  <path d="M45.0381 46.2082H49.7822C53.3406 46.2082 55.4698 48.7722 55.4698 52.4004C55.4698 56.0283 53.3406 58.5924 49.7822 58.5924H45.0381V46.2082ZM49.5743 47.8827H47.5506V56.8656H49.5743C51.4404 56.8656 52.8355 55.2783 52.8355 52.4004C52.8355 49.4875 51.4404 47.8827 49.5743 47.8827Z" fill="black" />
  <path
    d="M45.0381 46.2082V42.9329H41.7628V46.2082H45.0381ZM45.0381 58.5924H41.7628V61.8677H45.0381V58.5924ZM47.5506 47.8827V44.6074H44.2753V47.8827H47.5506ZM47.5506 56.8656H44.2753V60.1409H47.5506V56.8656ZM45.0381 49.4836H49.7822V42.9329H45.0381V49.4836ZM49.7822 49.4836C50.7245 49.4836 51.2227 49.7952 51.5171 50.125C51.8499 50.4977 52.1945 51.2115 52.1945 52.4004H58.7452C58.7452 49.9611 58.0252 47.5788 56.4038 45.7625C54.7439 43.9032 52.3983 42.9329 49.7822 42.9329V49.4836ZM52.1945 52.4004C52.1945 53.5891 51.8499 54.3028 51.5171 54.6756C51.2227 55.0053 50.7245 55.317 49.7822 55.317V61.8677C52.3983 61.8677 54.7439 60.8974 56.4037 59.0381C58.0252 57.2219 58.7452 54.8396 58.7452 52.4004H52.1945ZM49.7822 55.317H45.0381V61.8677H49.7822V55.317ZM48.3134 58.5924V46.2082H41.7628V58.5924H48.3134ZM49.5743 44.6074H47.5506V51.158H49.5743V44.6074ZM44.2753 47.8827V56.8656H50.8259V47.8827H44.2753ZM47.5506 60.1409H49.5743V53.5903H47.5506V60.1409ZM49.5743 60.1409C51.5258 60.1409 53.2996 59.2705 54.5007 57.7094C55.6452 56.2217 56.1108 54.3323 56.1108 52.4004H49.5602C49.5602 53.3464 49.3283 53.6896 49.3087 53.715C49.3048 53.7202 49.3402 53.6756 49.4233 53.6347C49.461 53.6161 49.4971 53.604 49.5276 53.5971C49.5577 53.5903 49.5746 53.5903 49.5743 53.5903V60.1409ZM56.1108 52.4004C56.1108 50.4589 55.649 48.5619 54.5117 47.0665C53.3163 45.4947 51.5405 44.6074 49.5743 44.6074V51.158C49.5625 51.158 49.4958 51.1531 49.4102 51.1104C49.3248 51.0679 49.2907 51.0228 49.2977 51.0319C49.3244 51.0671 49.5602 51.4289 49.5602 52.4004H56.1108Z"
    fill="black"
    mask="url(#path-5-inside-3_646_4455)"
  />
  <mask id="path-7-inside-4_646_4455" fill="black">
    <path d="M57.6973 46.2082H63.1219C65.6685 46.2082 67.3072 47.6734 67.3072 50.0282C67.3072 52.3828 65.6685 53.8306 63.1219 53.8306H60.226V58.5924H57.6973V46.2082ZM62.8246 47.8827H60.2082V52.1561H62.8246C64.0102 52.1561 64.8126 51.4236 64.8126 50.0282C64.8126 48.6154 64.0102 47.8827 62.8246 47.8827Z" />
  </mask>
  <path d="M57.6973 46.2082H63.1219C65.6685 46.2082 67.3072 47.6734 67.3072 50.0282C67.3072 52.3828 65.6685 53.8306 63.1219 53.8306H60.226V58.5924H57.6973V46.2082ZM62.8246 47.8827H60.2082V52.1561H62.8246C64.0102 52.1561 64.8126 51.4236 64.8126 50.0282C64.8126 48.6154 64.0102 47.8827 62.8246 47.8827Z" fill="black" />
  <path
    d="M57.6973 46.2082V42.9329H54.4219V46.2082H57.6973ZM60.226 53.8306V50.5553H56.9507V53.8306H60.226ZM60.226 58.5924V61.8677H63.5013V58.5924H60.226ZM57.6973 58.5924H54.4219V61.8677H57.6973V58.5924ZM60.2082 47.8827V44.6074H56.9329V47.8827H60.2082ZM60.2082 52.1561H56.9329V55.4314H60.2082V52.1561ZM57.6973 49.4836H63.1219V42.9329H57.6973V49.4836ZM63.1219 49.4836C63.4472 49.4836 63.6654 49.5305 63.795 49.5747C63.9207 49.6174 63.9648 49.6573 63.9685 49.6607C63.9691 49.6612 63.9733 49.6621 63.9839 49.6878C63.9965 49.7184 64.0319 49.821 64.0319 50.0282H70.5825C70.5825 48.0517 69.87 46.1703 68.3706 44.8096C66.9071 43.4816 65.0097 42.9329 63.1219 42.9329V49.4836ZM64.0319 50.0282C64.0319 50.2353 63.9966 50.3353 63.9855 50.362C63.9794 50.3767 63.9759 50.381 63.977 50.3795C63.9781 50.3779 63.9789 50.3775 63.9765 50.3796C63.9748 50.3812 63.9314 50.4209 63.8039 50.4639C63.6723 50.5082 63.4512 50.5553 63.1219 50.5553V57.1059C64.9998 57.1059 66.896 56.5672 68.3625 55.2451C69.8685 53.8876 70.5825 52.0062 70.5825 50.0282H64.0319ZM63.1219 50.5553H60.226V57.1059H63.1219V50.5553ZM56.9507 53.8306V58.5924H63.5013V53.8306H56.9507ZM60.226 55.317H57.6973V61.8677H60.226V55.317ZM60.9726 58.5924V46.2082H54.4219V58.5924H60.9726ZM62.8246 44.6074H60.2082V51.158H62.8246V44.6074ZM56.9329 47.8827V52.1561H63.4835V47.8827H56.9329ZM60.2082 55.4314H62.8246V48.8808H60.2082V55.4314ZM62.8246 55.4314C64.0962 55.4314 65.5134 55.0244 66.6078 53.9025C67.6972 52.7857 68.0879 51.3495 68.0879 50.0282H61.5372C61.5372 50.1023 61.5268 49.7301 61.9186 49.3284C62.3155 48.9215 62.7387 48.8808 62.8246 48.8808V55.4314ZM68.0879 50.0282C68.0879 48.7087 67.7033 47.2685 66.6148 46.1458C65.5187 45.0152 64.097 44.6074 62.8246 44.6074V51.158C62.7379 51.158 62.3101 51.1166 61.9116 50.7055C61.5207 50.3023 61.5372 49.9348 61.5372 50.0282H68.0879Z"
    fill="black"
    mask="url(#path-7-inside-4_646_4455)"
  />
  <mask id="path-9-inside-5_646_4455" fill="black">
    <path d="M76.2548 53.5166L79.2903 58.5924H76.4643L73.6204 53.6911H71.894V58.5924H69.3652V46.2082H74.8596C77.2666 46.2082 79.0109 47.6734 79.0109 49.9583C79.0109 51.7723 77.9114 53.0632 76.2548 53.5166ZM71.8761 47.9003V52.0166H74.5283C75.6961 52.0166 76.5163 51.284 76.5163 49.9583C76.5163 48.6154 75.6961 47.9003 74.5283 47.9003H71.8761Z" />
  </mask>
  <path d="M76.2548 53.5166L79.2903 58.5924H76.4643L73.6204 53.6911H71.894V58.5924H69.3652V46.2082H74.8596C77.2666 46.2082 79.0109 47.6734 79.0109 49.9583C79.0109 51.7723 77.9114 53.0632 76.2548 53.5166ZM71.8761 47.9003V52.0166H74.5283C75.6961 52.0166 76.5163 51.284 76.5163 49.9583C76.5163 48.6154 75.6961 47.9003 74.5283 47.9003H71.8761Z" fill="black" />
  <path
    d="M76.2548 53.5166L75.39 50.3575L71.2301 51.4962L73.4438 55.1977L76.2548 53.5166ZM79.2903 58.5924V61.8677H85.0654L82.1012 56.9113L79.2903 58.5924ZM76.4643 58.5924L73.6313 60.2361L74.578 61.8677H76.4643V58.5924ZM73.6204 53.6911L76.4534 52.0473L75.5067 50.4157H73.6204V53.6911ZM71.894 53.6911V50.4157H68.6187V53.6911H71.894ZM71.894 58.5924V61.8677H75.1693V58.5924H71.894ZM69.3652 58.5924H66.0899V61.8677H69.3652V58.5924ZM69.3652 46.2082V42.9329H66.0899V46.2082H69.3652ZM71.8761 47.9003V44.6249H68.6008V47.9003H71.8761ZM71.8761 52.0166H68.6008V55.2919H71.8761V52.0166ZM73.4438 55.1977L76.4793 60.2734L82.1012 56.9113L79.0658 51.8355L73.4438 55.1977ZM79.2903 55.317H76.4643V61.8677H79.2903V55.317ZM79.2973 56.9486L76.4534 52.0473L70.7875 55.3348L73.6313 60.2361L79.2973 56.9486ZM73.6204 50.4157H71.894V56.9664H73.6204V50.4157ZM68.6187 53.6911V58.5924H75.1693V53.6911H68.6187ZM71.894 55.317H69.3652V61.8677H71.894V55.317ZM72.6406 58.5924V46.2082H66.0899V58.5924H72.6406ZM69.3652 49.4836H74.8596V42.9329H69.3652V49.4836ZM74.8596 49.4836C75.41 49.4836 75.6308 49.647 75.6678 49.6796C75.6872 49.6969 75.6943 49.7081 75.7012 49.7238C75.7084 49.7403 75.7356 49.8089 75.7356 49.9583H82.2862C82.2862 47.9261 81.4833 46.0782 80.008 44.7732C78.571 43.502 76.7162 42.9329 74.8596 42.9329V49.4836ZM75.7356 49.9583C75.7356 50.0786 75.7178 50.1448 75.709 50.1711C75.7005 50.1964 75.6935 50.2053 75.6904 50.2092C75.6865 50.2141 75.6711 50.2325 75.6301 50.2585C75.5877 50.2854 75.5115 50.3243 75.39 50.3575L77.1195 56.6757C80.0925 55.862 82.2862 53.3564 82.2862 49.9583H75.7356ZM68.6008 47.9003V52.0166H75.1514V47.9003H68.6008ZM71.8761 55.2919H74.5283V48.7413H71.8761V55.2919ZM74.5283 55.2919C75.7995 55.2919 77.1888 54.8813 78.2691 53.8077C79.3581 52.7253 79.7916 51.3092 79.7916 49.9583H73.2409C73.2409 49.9331 73.2643 49.5461 73.6513 49.1615C74.0296 48.7855 74.4249 48.7413 74.5283 48.7413V55.2919ZM79.7916 49.9583C79.7916 48.6088 79.3637 47.1835 78.2617 46.0952C77.1713 45.0184 75.7783 44.6249 74.5283 44.6249V51.1756C74.4461 51.1756 74.0471 51.1396 73.6587 50.7561C73.4762 50.5758 73.362 50.3786 73.2998 50.2116C73.2403 50.0515 73.2409 49.9542 73.2409 49.9583H79.7916ZM74.5283 44.6249H71.8761V51.1756H74.5283V44.6249Z"
    fill="black"
    mask="url(#path-9-inside-5_646_4455)"
  />
  <path
    d="M25.2515 133.409V140.988H23.5942L23.4326 138.907C23.0149 139.728 22.4288 140.335 21.6742 140.726C20.9197 141.103 20.0574 141.291 19.0873 141.291C17.7534 141.291 16.6014 140.975 15.6313 140.342C14.6612 139.708 13.9202 138.826 13.4082 137.694C12.8962 136.562 12.6402 135.269 12.6402 133.814C12.6402 132.385 12.9164 131.105 13.4688 129.974C14.0212 128.842 14.8094 127.953 15.8334 127.306C16.8574 126.659 18.0566 126.336 19.4309 126.336C20.3606 126.336 21.2296 126.518 22.038 126.881C22.8464 127.232 23.5201 127.73 24.0591 128.377C24.598 129.024 24.9416 129.778 25.0898 130.64H22.8869C22.6443 129.859 22.2064 129.239 21.5732 128.781C20.9534 128.31 20.1854 128.074 19.2692 128.074C18.4069 128.074 17.6389 128.31 16.9652 128.781C16.2915 129.239 15.766 129.906 15.3888 130.782C15.0115 131.644 14.8229 132.655 14.8229 133.814C14.8229 134.986 15.0048 136.01 15.3686 136.886C15.7458 137.748 16.278 138.408 16.9652 138.866C17.6524 139.324 18.454 139.553 19.3702 139.553C20.1382 139.553 20.8119 139.398 21.3913 139.088C21.9841 138.765 22.4422 138.307 22.7656 137.714C23.1024 137.121 23.2709 136.421 23.2709 135.612V135.147H18.966V133.409H25.2515ZM33.2065 126.639C34.5269 126.639 35.6587 126.942 36.6019 127.548C37.5585 128.155 38.2861 129.003 38.7846 130.095C39.2966 131.173 39.5526 132.412 39.5526 133.814C39.5526 135.215 39.2966 136.461 38.7846 137.552C38.2861 138.63 37.5585 139.472 36.6019 140.079C35.6587 140.685 34.5269 140.988 33.2065 140.988H27.972V126.639H33.2065ZM30.1345 139.21H33.0044C33.8937 139.21 34.6617 139.001 35.3084 138.583C35.9552 138.152 36.4469 137.532 36.7838 136.724C37.1341 135.902 37.3093 134.932 37.3093 133.814C37.3093 132.682 37.1341 131.705 36.7838 130.883C36.4469 130.061 35.9552 129.435 35.3084 129.003C34.6617 128.572 33.8937 128.357 33.0044 128.357H30.1345V139.21ZM47.6662 126.639C48.6093 126.639 49.438 126.814 50.1521 127.164C50.8662 127.515 51.4186 128.02 51.8093 128.68C52.2135 129.327 52.4156 130.102 52.4156 131.004C52.4156 131.894 52.2135 132.668 51.8093 133.328C51.4186 133.975 50.8662 134.48 50.1521 134.844C49.438 135.195 48.6093 135.37 47.6662 135.37H44.0889V140.988H41.9062V126.639H47.6662ZM44.0687 133.632H47.4439C48.3062 133.632 48.9933 133.403 49.5053 132.944C50.0173 132.486 50.2733 131.84 50.2733 131.004C50.2733 130.155 50.0173 129.502 49.5053 129.044C48.9933 128.586 48.3062 128.357 47.4439 128.357H44.0687V133.632ZM62.825 140.988L59.5307 135.168H56.6608V140.988H54.4983V126.639H60.3391C61.2284 126.639 62.0233 126.814 62.7239 127.164C63.438 127.515 63.9972 128.013 64.4014 128.66C64.8056 129.307 65.0077 130.061 65.0077 130.923C65.0077 131.961 64.7046 132.843 64.0982 133.571C63.4919 134.299 62.6903 134.777 61.6932 135.006L65.2502 140.988H62.825ZM60.0562 133.43C60.905 133.43 61.5854 133.214 62.0974 132.783C62.6094 132.338 62.8654 131.718 62.8654 130.923C62.8654 130.115 62.6027 129.489 62.0772 129.044C61.5652 128.599 60.8848 128.377 60.0359 128.377H56.6406V133.43H60.0562Z"
    fill="black"
  />
  <g clip-path="url(#clip0_646_4455)">
    <path
      d="M87.3672 122.325L89.0917 124.039C89.2709 124.207 89.4276 124.263 89.6628 124.263H92.0816C94.0973 124.263 95.0156 125.203 95.0156 127.196V129.626C95.0156 129.85 95.0827 130.018 95.2507 130.186L96.9641 131.911C98.375 133.322 98.3862 134.632 96.9641 136.043L95.2507 137.768C95.0827 137.947 95.0156 138.103 95.0156 138.339V140.758C95.0156 142.773 94.0861 143.691 92.0816 143.691H89.6628C89.4276 143.691 89.2709 143.759 89.0917 143.927L87.3672 145.64C85.9562 147.051 84.646 147.062 83.2351 145.64L81.5105 143.927C81.3425 143.759 81.1746 143.691 80.9506 143.691H78.5206C76.5161 143.691 75.5866 142.762 75.5866 140.758V138.339C75.5866 138.103 75.5307 137.947 75.3627 137.768L73.6493 136.043C72.2384 134.632 72.2272 133.322 73.6493 131.911L75.3627 130.186C75.5307 130.018 75.5866 129.85 75.5866 129.626V127.196C75.5866 125.181 76.5161 124.263 78.5206 124.263H80.9506C81.1746 124.263 81.3425 124.207 81.5105 124.039L83.2351 122.325C84.646 120.914 85.9562 120.903 87.3672 122.325ZM88.7894 129.537L84.0077 137.219L81.7345 134.285C81.4545 133.915 81.2082 133.803 80.8946 133.803C80.3795 133.803 79.9875 134.218 79.9875 134.733C79.9875 134.979 80.0883 135.237 80.2563 135.461L83.0671 138.91C83.3582 139.302 83.6718 139.447 84.0525 139.447C84.4333 139.447 84.758 139.268 84.9931 138.91L90.2563 130.612C90.3907 130.388 90.5363 130.13 90.5363 129.873C90.5363 129.358 90.0771 129.022 89.5956 129.022C89.2933 129.022 89.0021 129.19 88.7894 129.537Z"
      fill="black"
    />
  </g>
  <defs>
    <clipPath id="clip0_646_4455">
      <rect width="25.7755" height="25.4508" fill="black" transform="translate(72.5859 121.263)" />
    </clipPath>
  </defs>
</svg>
