<svg width="48" height="49" viewBox="0 0 48 49" fill="none" xmlns="http://www.w3.org/2000/svg">
<g clip-path="url(#clip0_822_25631)">
<path fill-rule="evenodd" clip-rule="evenodd" d="M42.2772 24.1735C42.2772 24.5238 42.2772 24.991 42.1605 25.3414L44.4962 27.7939C49.1678 32.4655 49.051 40.0567 44.4962 44.7282C39.8247 49.3998 32.3502 49.3998 27.5619 44.7282L25.2262 42.3925C24.4086 42.626 23.5911 42.626 22.8904 42.3925L20.5546 44.7282C15.8831 49.3998 8.29185 49.3998 3.62031 44.7282C-1.05122 40.0567 -1.05122 32.4655 3.62031 27.7939L6.30644 25.1078C6.18966 24.5238 6.18966 23.9399 6.30644 23.356L3.62031 20.6698C0.467028 17.5165 -0.700855 13.1954 0.467028 8.991C1.51812 4.90341 4.7882 1.63333 8.87579 0.46545C12.9634 -0.585645 17.4013 0.46545 20.4378 3.61873L22.54 5.72092C23.4743 5.37056 24.5254 5.37056 25.4597 5.72092L27.5619 3.61873C32.2335 -1.0528 39.8247 -0.93601 44.4962 3.61873C49.1678 8.29027 49.1678 15.7647 44.4962 20.553L42.0437 23.0056C42.0437 23.356 42.1605 23.8231 42.1605 24.1735H42.2772ZM30.832 6.88881L28.613 9.10779C28.613 9.45815 28.613 9.80852 28.613 10.1589C28.613 10.626 28.613 11.0932 28.3794 11.5603L36.4378 19.6187C36.7882 19.6187 37.2554 19.5019 37.6057 19.5019C38.0729 19.5019 38.54 19.5019 39.0072 19.7355L41.3429 17.3998C44.1459 14.48 44.1459 9.9253 41.3429 7.0056C38.54 4.20268 33.8685 4.08589 30.9488 7.0056L30.832 6.88881ZM28.613 36.553L36.5546 28.6114C37.3721 28.845 38.3064 28.845 39.124 28.6114L41.4597 30.9472C44.2626 33.8669 44.2626 38.4217 41.4597 41.3414C38.6568 44.1443 33.9853 44.2611 31.0656 41.3414L28.7298 39.0056C28.8466 38.5384 28.9634 38.1881 28.9634 37.7209C28.9634 37.3706 28.9634 36.9034 28.8466 36.553H28.613ZM25.3429 33.283L33.1678 25.5749C32.9342 24.6406 32.9342 23.7063 33.1678 22.8888L25.1094 14.8304C24.4086 14.9472 23.7079 14.9472 23.0072 14.8304L15.1824 22.6552C15.5327 23.7063 15.5327 24.8742 15.1824 25.8085L22.6568 33.283C23.4743 33.0494 24.4086 33.0494 25.3429 33.283ZM19.6203 11.6771C19.3867 10.8596 19.2699 9.9253 19.6203 9.10779L17.4013 6.88881C14.4816 4.08589 9.92688 4.08589 7.00717 6.88881C4.20425 9.69173 4.08747 14.3633 7.00717 17.283L9.45973 19.7355C10.2772 19.3852 11.0948 19.3852 11.9123 19.5019L19.8539 11.5603L19.6203 11.6771ZM11.6787 28.7282C10.8612 28.845 9.92688 28.7282 9.22615 28.4946L6.7736 30.8304C3.97068 33.7501 3.97068 38.3049 6.7736 41.2246C9.57652 44.0275 14.248 44.1443 17.1678 41.2246L19.5035 38.8888C19.3867 38.4217 19.2699 37.9545 19.2699 37.4873C19.2699 37.0202 19.2699 36.6698 19.3867 36.3195L11.5619 28.4946L11.6787 28.7282Z" fill="#2665F1"/>
</g>
<defs>
<clipPath id="clip0_822_25631">
<rect width="48" height="48.1168" fill="white"/>
</clipPath>
</defs>
</svg>
