<svg width="48" height="48" viewBox="0 0 48 48" fill="none" xmlns="http://www.w3.org/2000/svg">
<g clip-path="url(#clip0_574_3047)">
<path fill-rule="evenodd" clip-rule="evenodd" d="M38.4375 9.28125L30.6562 24.0938L38.4375 38.9062L41.625 37.125V11.0625L38.4375 9.28125Z" fill="#E25444"/>
<path fill-rule="evenodd" clip-rule="evenodd" d="M38.4385 9.28125L22.876 11.0625L14.9541 24.0938L22.876 37.125L38.4385 38.9062V9.28125Z" fill="#7B1D13"/>
<path fill-rule="evenodd" clip-rule="evenodd" d="M7.03125 9.28125L4.5 10.4062V37.7812L7.03125 38.9062L22.875 24.0938L7.03125 9.28125Z" fill="#58150D"/>
<path fill-rule="evenodd" clip-rule="evenodd" d="M6.99707 9.25098L22.8959 13.6676V34.9176L6.99707 38.9176V9.25098Z" fill="#E25444"/>
<path fill-rule="evenodd" clip-rule="evenodd" d="M22.9041 15.9991L16.1533 14.9157L22.9041 7.24902L29.6381 14.9157L22.9041 15.9991Z" fill="#58150D"/>
<path fill-rule="evenodd" clip-rule="evenodd" d="M29.6381 14.9157L22.8957 16.0157L16.1533 14.9157V7.24902" fill="#58150D"/>
<path fill-rule="evenodd" clip-rule="evenodd" d="M22.9041 32.083L16.1533 33.3331L22.9041 39.9164L29.6381 33.3331L22.9041 32.083Z" fill="#58150D"/>
<path fill-rule="evenodd" clip-rule="evenodd" d="M22.875 1.5L16.125 5.0625V14.9062L22.896 13L22.875 1.5Z" fill="#7B1D13"/>
<path fill-rule="evenodd" clip-rule="evenodd" d="M22.8957 18.416L16.1533 19.1494V28.978L22.8957 29.7494V18.416Z" fill="#7B1D13"/>
<path fill-rule="evenodd" clip-rule="evenodd" d="M22.8957 34.9992L16.1533 33.3086V42.9708L22.8957 46.4992V34.9992Z" fill="#7B1D13"/>
<path fill-rule="evenodd" clip-rule="evenodd" d="M29.6408 33.3086L22.8984 34.9997V46.4992L29.6408 42.9708V33.3086Z" fill="#E25444"/>
<path fill-rule="evenodd" clip-rule="evenodd" d="M22.8984 18.416L29.6408 19.1494V28.978L22.8984 29.7494V18.416Z" fill="#E25444"/>
<path fill-rule="evenodd" clip-rule="evenodd" d="M22.875 1.5L29.625 5.0625V14.9062L22.875 13.0312V1.5Z" fill="#E25444"/>
</g>
<defs>
<clipPath id="clip0_574_3047">
<rect width="48" height="48" fill="white"/>
</clipPath>
</defs>
</svg>
