<svg width="48" height="48" viewBox="0 0 48 48" fill="none" xmlns="http://www.w3.org/2000/svg">
<path d="M17.2039 5.64746H29.1156L16.9392 41.3828C16.8217 41.7781 16.5756 42.123 16.24 42.3627C15.9044 42.6025 15.4983 42.7234 15.0862 42.7063H6.08622C5.8138 42.679 5.5508 42.5917 5.31616 42.4506C5.08151 42.3095 4.88104 42.1182 4.72917 41.8904C4.5773 41.6626 4.4778 41.404 4.43782 41.1331C4.39785 40.8623 4.4184 40.5859 4.49799 40.3239L15.6156 7.2357C15.7189 6.88224 15.9251 6.56757 16.208 6.33184C16.4909 6.0961 16.8376 5.95 17.2039 5.91217V5.64746Z" fill="url(#paint0_linear_574_3035)"/>
<path d="M33.8816 29.4707H15.8816C15.671 29.3654 15.4272 29.3481 15.2038 29.4225C14.9804 29.497 14.7957 29.6571 14.6904 29.8677C14.5851 30.0784 14.5678 30.3222 14.6422 30.5456C14.7167 30.769 14.8769 30.9536 15.0875 31.0589L26.9992 41.9119L28.0581 42.4413H38.6463L33.6169 29.4707H33.8816Z" fill="#0078D4"/>
<path d="M17.204 5.64746C16.8019 5.70178 16.4287 5.88658 16.1418 6.1735C15.8548 6.46042 15.67 6.83358 15.6157 7.2357L4.49808 40.0592C4.3668 40.3352 4.30579 40.6393 4.32051 40.9445C4.33522 41.2497 4.4252 41.5466 4.58242 41.8086C4.73964 42.0707 4.95922 42.2897 5.22161 42.4464C5.484 42.603 5.78106 42.6923 6.08632 42.7063H15.351C15.7531 42.652 16.1263 42.4672 16.4132 42.1802C16.7001 41.8933 16.8849 41.5202 16.9393 41.118L19.0569 34.7651L26.9981 42.1769L28.0569 42.4416H38.6451L33.6157 29.471H20.3804L29.1157 5.64746H17.204Z" fill="url(#paint1_linear_574_3035)"/>
<path d="M31.7658 7.23564C31.6625 6.88218 31.4563 6.56751 31.1734 6.33178C30.8905 6.09604 30.5438 5.94994 30.1776 5.91211H17.4717C17.838 5.94994 18.1847 6.09604 18.4675 6.33178C18.7504 6.56751 18.9567 6.88218 19.0599 7.23564L30.1776 40.0592C30.3088 40.3351 30.3698 40.6392 30.3551 40.9445C30.3404 41.2497 30.2504 41.5465 30.0932 41.8086C29.936 42.0706 29.7164 42.2897 29.454 42.4463C29.1916 42.6029 28.8946 42.6922 28.5893 42.7062H41.2952C41.6226 42.7387 41.9527 42.6835 42.2517 42.5462C42.5506 42.4089 42.8077 42.1945 42.9963 41.9249C43.185 41.6554 43.2985 41.3405 43.3252 41.0126C43.3519 40.6847 43.2908 40.3556 43.1481 40.0592L31.7658 7.23564Z" fill="url(#paint2_linear_574_3035)"/>
<defs>
<linearGradient id="paint0_linear_574_3035" x1="21.4392" y1="8.55923" x2="9.5274" y2="43.7651" gradientUnits="userSpaceOnUse">
<stop stop-color="#114A8B"/>
<stop offset="1" stop-color="#0669BC"/>
</linearGradient>
<linearGradient id="paint1_linear_574_3035" x1="25.1451" y1="24.971" x2="22.4981" y2="26.0298" gradientUnits="userSpaceOnUse">
<stop stop-opacity="0.3"/>
<stop offset="0.1" stop-opacity="0.2"/>
<stop offset="0.3" stop-opacity="0.1"/>
<stop offset="0.6" stop-opacity="0.1"/>
<stop offset="1" stop-opacity="0"/>
</linearGradient>
<linearGradient id="paint2_linear_574_3035" x1="23.8246" y1="7.50035" x2="36.7952" y2="42.4415" gradientUnits="userSpaceOnUse">
<stop stop-color="#3CCBF4"/>
<stop offset="1" stop-color="#2892DF"/>
</linearGradient>
</defs>
</svg>
