<svg width="48" height="48" viewBox="0 0 48 48" fill="none" xmlns="http://www.w3.org/2000/svg">
<g clip-path="url(#clip0_574_3050)">
<g clip-path="url(#clip1_574_3050)">
<mask id="mask0_574_3050" style="mask-type:luminance" maskUnits="userSpaceOnUse" x="0" y="0" width="48" height="48">
<path d="M48 0H0V48H48V0Z" fill="white"/>
</mask>
<g mask="url(#mask0_574_3050)">
<path d="M36 0H12C5.37258 0 0 5.37258 0 12V36C0 42.6274 5.37258 48 12 48H36C42.6274 48 48 42.6274 48 36V12C48 5.37258 42.6274 0 36 0Z" fill="#0071F7"/>
<path d="M38.0733 29.7169C38.4393 30.2295 38.3661 30.8886 37.9269 31.2546C37.4142 31.6209 36.6819 31.5477 36.3156 31.1082L33.7524 27.8128L31.2627 31.035C30.8964 31.5477 30.1641 31.5477 29.6515 31.1814C29.1389 30.8154 29.0657 30.1563 29.4318 29.6436L32.361 25.8356L29.4318 22.0275C29.0657 21.5148 29.2121 20.7825 29.6515 20.4164C30.1641 20.0502 30.8964 20.1967 31.2627 20.636L33.7524 23.9315L36.3156 20.7825C36.6819 20.2699 37.341 20.1967 37.9269 20.5628C38.4393 20.929 38.4393 21.6613 38.0733 22.1739L35.2173 25.9088L38.0733 29.7169ZM24.7449 29.2774C22.8409 29.2774 21.303 27.8128 21.303 25.9088C21.303 24.078 22.8409 22.5401 24.7449 22.5401C26.649 22.5401 28.1869 24.078 28.1869 25.9088C28.1136 27.8128 26.5757 29.2774 24.7449 29.2774ZM14.6389 29.2774C12.7349 29.2774 11.197 27.8128 11.197 25.9088C11.197 24.078 12.7349 22.5401 14.6389 22.5401C16.5429 22.5401 18.0808 24.078 18.0808 25.9088C18.0808 27.8128 16.5429 29.2774 14.6389 29.2774ZM24.7449 20.3431C22.6212 20.3431 20.7172 21.5148 19.7651 23.2724C18.8131 21.5148 16.9091 20.3431 14.7121 20.3431C13.3939 20.3431 12.2222 20.7825 11.2702 21.4416V16.7547C11.2702 16.1689 10.7576 15.6562 10.1717 15.6562C9.51264 15.6562 9 16.1689 9 16.7547V25.982C9.07323 29.0578 11.5631 31.4745 14.6389 31.4745C16.8359 31.4745 18.7399 30.2295 19.6919 28.4719C20.6439 30.2295 22.548 31.4745 24.6717 31.4745C27.8207 31.4745 30.3837 28.9845 30.3837 25.8356C30.4572 22.833 27.8939 20.3431 24.7449 20.3431Z" fill="white"/>
</g>
</g>
</g>
<defs>
<clipPath id="clip0_574_3050">
<rect width="48" height="48" fill="white"/>
</clipPath>
<clipPath id="clip1_574_3050">
<rect width="48" height="48" fill="white"/>
</clipPath>
</defs>
</svg>
