<svg width="48" height="48" viewBox="0 0 48 48" fill="none" xmlns="http://www.w3.org/2000/svg">
<g clip-path="url(#clip0_574_2974)">
<g clip-path="url(#clip1_574_2974)">
<g clip-path="url(#clip2_574_2974)">
<path d="M1.74043 36.7099C1.244 37.5195 0.686457 38.4589 0.21293 39.2074C0.00918536 39.5517 -0.0513489 39.9622 0.0443377 40.3507C0.140024 40.7391 0.384294 41.0745 0.724644 41.2848L10.6534 47.3948C10.826 47.5013 11.018 47.5724 11.2182 47.604C11.4186 47.6355 11.6231 47.6269 11.8201 47.5785C12.017 47.5302 12.2023 47.4431 12.3653 47.3224C12.5282 47.2017 12.6654 47.0498 12.769 46.8755C13.1662 46.211 13.6779 45.3479 14.2354 44.4238C18.1687 37.9319 22.125 38.7262 29.2585 42.1326L39.1032 46.8143C39.2878 46.9022 39.4881 46.9521 39.6922 46.9611C39.8965 46.9702 40.1004 46.9381 40.292 46.8669C40.4835 46.7957 40.6589 46.6867 40.8076 46.5465C40.9563 46.4063 41.0754 46.2377 41.1577 46.0506L45.8854 35.358C46.0459 34.991 46.0558 34.5755 45.913 34.2012C45.7701 33.827 45.4859 33.5238 45.1216 33.3571C43.0442 32.3795 38.9123 30.4319 35.1928 28.6371C21.8118 22.1375 10.4396 22.5575 1.74043 36.7099Z" fill="url(#paint0_linear_574_2974)"/>
<path d="M46.2595 12.4454C46.756 11.6359 47.3135 10.6965 47.787 9.948C47.9908 9.60368 48.0513 9.1932 47.9557 8.80472C47.86 8.41632 47.6157 8.08088 47.2753 7.87059L37.3465 1.76058C37.1727 1.6435 36.9766 1.56344 36.7705 1.52539C36.5645 1.48734 36.3528 1.4921 36.1486 1.53938C35.9445 1.58666 35.7521 1.67546 35.5838 1.80022C35.4154 1.925 35.2745 2.08308 35.1698 2.26465C34.7727 2.92911 34.2609 3.79215 33.7034 4.7163C29.7701 11.2082 25.8139 10.4139 18.6804 7.00755L8.86622 2.34866C8.68166 2.26082 8.48134 2.21091 8.27718 2.20189C8.07294 2.19286 7.86903 2.22491 7.67746 2.29613C7.48587 2.36735 7.31054 2.4763 7.16182 2.6165C7.01311 2.75672 6.89405 2.92535 6.8117 3.11242L2.08406 13.805C1.92352 14.172 1.91361 14.5874 2.05647 14.9618C2.19934 15.3361 2.48353 15.6393 2.84782 15.806C4.92522 16.7836 9.0571 18.7312 12.7766 20.526C26.1881 27.0178 37.5604 26.5826 46.2595 12.4454Z" fill="url(#paint1_linear_574_2974)"/>
</g>
</g>
</g>
<defs>
<linearGradient id="paint0_linear_574_2974" x1="45.618" y1="50.5491" x2="15.5796" y2="33.2883" gradientUnits="userSpaceOnUse">
<stop offset="0.18" stop-color="#0052CC"/>
<stop offset="1" stop-color="#2684FF"/>
</linearGradient>
<linearGradient id="paint1_linear_574_2974" x1="-12667.1" y1="36032.7" x2="-11627.1" y2="37226.2" gradientUnits="userSpaceOnUse">
<stop offset="0.18" stop-color="#0052CC"/>
<stop offset="1" stop-color="#2684FF"/>
</linearGradient>
<clipPath id="clip0_574_2974">
<rect width="48" height="48" fill="white"/>
</clipPath>
<clipPath id="clip1_574_2974">
<rect width="48" height="48" fill="white"/>
</clipPath>
<clipPath id="clip2_574_2974">
<rect width="48" height="48" fill="white"/>
</clipPath>
</defs>
</svg>
