<svg width="48" height="48" viewBox="0 0 48 48" fill="none" xmlns="http://www.w3.org/2000/svg">
<g clip-path="url(#clip0_574_3058)">
<path d="M16.5046 46.4976C20.6439 46.4976 24.0033 43.1379 24.0033 38.9988V31.5H16.5046C12.3653 31.5 9.00586 34.8594 9.00586 38.9988C9.00586 43.1379 12.3653 46.4976 16.5046 46.4976Z" fill="#0ACF83"/>
<path d="M9.00586 23.9987C9.00586 19.8594 12.3653 16.5 16.5046 16.5H24.0033V31.4976H16.5046C12.3653 31.4976 9.00586 28.138 9.00586 23.9987Z" fill="#A259FF"/>
<path d="M9.00586 8.99874C9.00586 4.85943 12.3653 1.5 16.5046 1.5H24.0033V16.4975H16.5046C12.3653 16.4975 9.00586 13.138 9.00586 8.99874Z" fill="#F24E1E"/>
<path d="M24 1.5H31.4986C35.638 1.5 38.9974 4.85943 38.9974 8.99874C38.9974 13.138 35.638 16.4975 31.4986 16.4975H24V1.5Z" fill="#FF7262"/>
<path d="M38.9974 23.9987C38.9974 28.138 35.638 31.4976 31.4986 31.4976C27.3594 31.4976 24 28.138 24 23.9987C24 19.8594 27.3594 16.5 31.4986 16.5C35.638 16.5 38.9974 19.8594 38.9974 23.9987Z" fill="#1ABCFE"/>
</g>
<defs>
<clipPath id="clip0_574_3058">
<rect width="48" height="48" fill="white"/>
</clipPath>
</defs>
</svg>
