<svg width="48" height="48" viewBox="0 0 48 48" fill="none" xmlns="http://www.w3.org/2000/svg">
<g clip-path="url(#clip0_574_3046)">
<path d="M44.9249 26.7126L42.5699 19.6506L37.9139 5.64061C37.8587 5.48198 37.7553 5.34459 37.6181 5.24775C37.4809 5.1509 37.3168 5.09944 37.1489 5.10061C36.9814 5.10007 36.818 5.15181 36.6814 5.24862C36.5448 5.34543 36.4418 5.48246 36.3869 5.64061L31.7309 19.6416H16.2659L11.6099 5.63761C11.5548 5.47978 11.4517 5.34314 11.315 5.24684C11.1784 5.15054 11.015 5.09941 10.8479 5.10061C10.6803 5.09962 10.5167 5.15119 10.38 5.24806C10.2433 5.34493 10.1404 5.48221 10.0859 5.64061L5.43586 19.6416L3.08386 26.7126C2.97976 27.0277 2.97986 27.3679 3.08414 27.6828C3.18842 27.9978 3.39133 28.2709 3.66286 28.4616L24.0029 42.8976L44.3369 28.4616C44.6096 28.2718 44.814 27.9993 44.9199 27.6843C45.0258 27.3693 45.0275 27.0286 44.9249 26.7126Z" fill="#FC6D26"/>
<path d="M24.0035 42.8877L31.7375 19.6377H16.2725L24.0035 42.8877Z" fill="#E24329"/>
<path d="M23.9985 42.8877L16.2615 19.6377H5.4375L23.9985 42.8877Z" fill="#FC6D26"/>
<path d="M5.43 19.6465L3.078 26.7085C2.9739 27.0235 2.974 27.3637 3.07828 27.6787C3.18256 27.9937 3.38547 28.2668 3.657 28.4575L24 42.8995L5.43 19.6495V19.6465Z" fill="#FCA326"/>
<path d="M5.4375 19.6475H16.2735L11.6115 5.64646C11.5565 5.48832 11.4536 5.35128 11.3169 5.25448C11.1803 5.15767 11.0169 5.10593 10.8495 5.10646C10.6816 5.1053 10.5175 5.15675 10.3803 5.2536C10.2431 5.35045 10.1396 5.48783 10.0845 5.64646L5.4375 19.6475Z" fill="#E24329"/>
<path d="M24 42.8877L31.734 19.6377H42.576L24 42.8877Z" fill="#FC6D26"/>
<path d="M42.57 19.6465L44.919 26.7085C45.0236 27.0235 45.0237 27.3639 44.9194 27.679C44.8151 27.9941 44.6119 28.2671 44.34 28.4575L24 42.8875L42.564 19.6465H42.57Z" fill="#FCA326"/>
<path d="M42.5712 19.6475H31.7412L36.3942 5.64648C36.449 5.4876 36.5523 5.34997 36.6896 5.25305C36.8269 5.15614 36.9912 5.10487 37.1592 5.10648C37.5042 5.10648 37.8102 5.32548 37.9212 5.64648L42.5772 19.6475H42.5712Z" fill="#E24329"/>
</g>
<defs>
<clipPath id="clip0_574_3046">
<rect width="48" height="48" fill="white"/>
</clipPath>
</defs>
</svg>
