<svg width="48" height="48" viewBox="0 0 48 48" fill="none" xmlns="http://www.w3.org/2000/svg">
<g clip-path="url(#clip0_574_3016)">
<g clip-path="url(#clip1_574_3016)">
<path d="M3.27273 41.9997H10.9091V23.4543L0 15.2725V38.727C0 40.5379 1.46727 41.9997 3.27273 41.9997Z" fill="#4285F4"/>
<path d="M37.0908 41.9997H44.7272C46.5381 41.9997 47.9999 40.5325 47.9999 38.727V15.2725L37.0908 23.4543" fill="#34A853"/>
<path d="M37.0908 9.27225V23.4541L47.9999 15.2722V10.9086C47.9999 6.86134 43.3799 4.55406 40.1454 6.98134" fill="#FBBC04"/>
<path d="M10.9092 23.4543V9.27246L24.0001 19.0906L37.091 9.27246V23.4543L24.0001 33.2725" fill="#EA4335"/>
<path d="M0 10.9086V15.2722L10.9091 23.4541V9.27225L7.85455 6.98134C4.61455 4.55406 0 6.86134 0 10.9086Z" fill="#C5221F"/>
</g>
</g>
<defs>
<clipPath id="clip0_574_3016">
<rect width="48" height="48" fill="white"/>
</clipPath>
<clipPath id="clip1_574_3016">
<rect width="48" height="36" fill="white" transform="translate(0 6)"/>
</clipPath>
</defs>
</svg>
