<svg width="48" height="48" viewBox="0 0 48 48" fill="none" xmlns="http://www.w3.org/2000/svg">
<g clip-path="url(#clip0_574_3048)">
<g clip-path="url(#clip1_574_3048)">
<path d="M10.4206 43.569L0.577564 26.517C0.199195 25.8617 0 25.1182 0 24.3615C0 23.6048 0.199195 22.8614 0.577564 22.206L10.4176 5.15701C10.7964 4.50026 11.3417 3.95503 11.9985 3.57633C12.6553 3.19762 13.4004 2.99883 14.1586 3.00001H33.8446C34.6017 3.00019 35.3454 3.19961 36.001 3.57823C36.6566 3.95685 37.201 4.50135 37.5796 5.15701L47.4226 22.206C47.8015 22.8617 48.001 23.6057 48.001 24.363C48.001 25.1203 47.8015 25.8643 47.4226 26.52L37.5826 43.569C37.2038 44.2251 36.6589 44.7699 36.0027 45.1485C35.3465 45.5272 34.6022 45.7263 33.8446 45.726H14.1586C13.4015 45.7258 12.6578 45.5264 12.0022 45.1478C11.3465 44.7692 10.7991 44.2247 10.4206 43.569Z" fill="url(#paint0_linear_574_3048)"/>
<path d="M31.9463 19.5H16.3583C16.2374 19.5 16.1214 19.548 16.0359 19.6336C15.9504 19.7191 15.9023 19.8351 15.9023 19.956V23.178C15.9023 23.43 16.1063 23.634 16.3583 23.634H31.9463C32.067 23.6332 32.1826 23.5849 32.2679 23.4996C32.3533 23.4142 32.4016 23.2987 32.4023 23.178V19.956C32.4016 19.8353 32.3533 19.7198 32.2679 19.6344C32.1826 19.5491 32.067 19.5008 31.9463 19.5ZM29.5313 22.5C29.3001 22.4772 29.0856 22.3693 28.9295 22.1971C28.7735 22.0249 28.687 21.8009 28.687 21.5685C28.687 21.3361 28.7735 21.1121 28.9295 20.9399C29.0856 20.7677 29.3001 20.6598 29.5313 20.637C29.7784 20.637 30.0153 20.7351 30.19 20.9098C30.3647 21.0845 30.4628 21.3215 30.4628 21.5685C30.4628 21.8155 30.3647 22.0525 30.19 22.2272C30.0153 22.4019 29.7784 22.5 29.5313 22.5ZM31.9463 25.695H16.3583C16.2374 25.695 16.1214 25.743 16.0359 25.8286C15.9504 25.9141 15.9023 26.0301 15.9023 26.151V29.373C15.9023 29.625 16.1063 29.829 16.3583 29.829H31.9463C32.067 29.8282 32.1826 29.7799 32.2679 29.6946C32.3533 29.6092 32.4016 29.4937 32.4023 29.373V26.151C32.4016 26.0303 32.3533 25.9148 32.2679 25.8294C32.1826 25.7441 32.067 25.6958 31.9463 25.695ZM29.5313 28.695C29.2839 28.695 29.0466 28.5967 28.8716 28.4217C28.6966 28.2468 28.5983 28.0094 28.5983 27.762C28.5983 27.5146 28.6966 27.2772 28.8716 27.1023C29.0466 26.9273 29.2839 26.829 29.5313 26.829C29.7788 26.829 30.0161 26.9273 30.1911 27.1023C30.366 27.2772 30.4643 27.5146 30.4643 27.762C30.4643 28.0094 30.366 28.2468 30.1911 28.4217C30.0161 28.5967 29.7788 28.695 29.5313 28.695Z" fill="white"/>
</g>
</g>
<defs>
<linearGradient id="paint0_linear_574_3048" x1="23.9986" y1="3.00001" x2="23.9986" y2="45.66" gradientUnits="userSpaceOnUse">
<stop stop-color="#4387FD"/>
<stop offset="1" stop-color="#4683EA"/>
</linearGradient>
<clipPath id="clip0_574_3048">
<rect width="48" height="48" fill="white"/>
</clipPath>
<clipPath id="clip1_574_3048">
<rect width="48" height="48" fill="white"/>
</clipPath>
</defs>
</svg>
