<svg width="48" height="48" viewBox="0 0 48 48" fill="none" xmlns="http://www.w3.org/2000/svg">
<g clip-path="url(#clip0_574_2890)">
<path d="M35.3071 13.8953L26.2125 12.8848L15.0966 13.8953L14.0859 24.0006L15.0964 34.106L25.2018 35.3691L35.3071 34.106L36.3176 23.7481L35.3071 13.8953Z" fill="white"/>
<path d="M19.2426 29.5731C18.4872 29.0627 17.9642 28.3176 17.6787 27.3322L19.4321 26.6097C19.5912 27.2161 19.869 27.6859 20.2657 28.0194C20.6599 28.3529 21.1399 28.5171 21.7007 28.5171C22.2742 28.5171 22.7669 28.3427 23.1785 27.9941C23.5902 27.6454 23.7976 27.2007 23.7976 26.6627C23.7976 26.1121 23.5802 25.6622 23.1457 25.3137C22.7112 24.9653 22.1656 24.7907 21.5137 24.7907H20.5007V23.0552H21.41C21.9709 23.0552 22.4434 22.9038 22.8274 22.6006C23.2114 22.2974 23.4034 21.8831 23.4034 21.3551C23.4034 20.8853 23.2315 20.5112 22.8881 20.2309C22.5446 19.9506 22.1099 19.8091 21.5819 19.8091C21.0665 19.8091 20.6572 19.9456 20.354 20.2209C20.0509 20.4963 19.831 20.8348 19.6922 21.2339L17.9567 20.5114C18.1866 19.8596 18.6086 19.2836 19.2274 18.7859C19.8464 18.2883 20.637 18.0381 21.597 18.0381C22.3069 18.0381 22.946 18.1746 23.5121 18.4499C24.0779 18.7253 24.5226 19.1068 24.8434 19.5918C25.1642 20.0792 25.3234 20.6251 25.3234 21.2312C25.3234 21.8502 25.1744 22.3731 24.8762 22.8026C24.578 23.2321 24.2117 23.5604 23.7772 23.7904V23.8939C24.3507 24.1339 24.818 24.5002 25.1869 24.9929C25.5532 25.4856 25.7375 26.0742 25.7375 26.7614C25.7375 27.4486 25.5632 28.0624 25.2145 28.6006C24.8658 29.1388 24.3833 29.5631 23.772 29.8712C23.1582 30.1794 22.4685 30.3361 21.703 30.3361C20.8164 30.3386 19.9979 30.0834 19.2426 29.5731Z" fill="#1A73E8"/>
<path d="M29.9996 20.8717L28.0846 22.2637L27.1221 20.8035L30.5756 18.3125H31.8994V30.0623H29.9996V20.8717Z" fill="#1A73E8"/>
<path d="M35.3081 43.1996L44.4028 34.105L39.8554 32.084L35.3081 34.105L33.2871 38.6523L35.3081 43.1996Z" fill="#EA4335"/>
<path d="M13.0713 38.6528L15.0923 43.2001H35.3028V34.1055H15.0923L13.0713 38.6528Z" fill="#34A853"/>
<path d="M9.03149 4.7998C7.35667 4.7998 6 6.15648 6 7.83129V34.105L10.5473 36.126L15.0947 34.105V13.8945H35.3052L37.3261 9.34713L35.3053 4.7998H9.03149Z" fill="#4285F4"/>
<path d="M6 34.1055V40.1686C6 41.8436 7.35667 43.2001 9.03149 43.2001H15.0947V34.1055H6Z" fill="#188038"/>
<path d="M35.3037 13.895V34.1055H44.3984V13.895L39.851 11.874L35.3037 13.895Z" fill="#FBBC04"/>
<path d="M44.3984 13.8945V7.83129C44.3984 6.15628 43.0417 4.7998 41.3669 4.7998H35.3037V13.8945H44.3984Z" fill="#1967D2"/>
</g>
<defs>
<clipPath id="clip0_574_2890">
<rect width="38.4" height="38.4" fill="white" transform="translate(6 4.7998)"/>
</clipPath>
</defs>
</svg>
