<svg width="48" height="48" viewBox="0 0 48 48" fill="none" xmlns="http://www.w3.org/2000/svg">
<g clip-path="url(#clip0_574_2892)">
<path d="M26.6016 23.7927L30.462 28.2053L35.653 31.5226L36.5581 23.8199L35.653 16.2891L30.3624 19.2036L26.6016 23.7927Z" fill="#00832D"/>
<path d="M4.20117 30.8069V37.3692C4.20117 38.8695 5.41633 40.0846 6.9166 40.0846H13.4789L14.8366 35.1245L13.4789 30.8069L8.9758 29.4492L4.20117 30.8069Z" fill="#0066DA"/>
<path d="M13.4789 7.5L4.20117 16.7777L8.9758 18.1354L13.4789 16.7777L14.814 12.519L13.4789 7.5Z" fill="#E94235"/>
<path d="M13.4789 16.7783H4.20117V30.808H13.4789V16.7783Z" fill="#2684FC"/>
<path d="M41.5812 11.4286L35.6526 16.2892V31.5228L41.6084 36.406C42.5 37.103 43.8034 36.4671 43.8034 35.3335V12.4786C43.8034 11.3313 42.4705 10.7023 41.5812 11.4286ZM26.6011 23.7929V30.8077H13.4766V40.0854H32.9371C34.4374 40.0854 35.6526 38.8703 35.6526 37.37V31.5228L26.6011 23.7929Z" fill="#00AC47"/>
<path d="M32.9371 7.5H13.4766V16.7777H26.6011V23.7926L35.6526 16.2935V10.2154C35.6526 8.71515 34.4374 7.5 32.9371 7.5Z" fill="#FFBA00"/>
</g>
<defs>
<clipPath id="clip0_574_2892">
<rect width="39.6" height="32.5851" fill="white" transform="translate(4.20117 7.5)"/>
</clipPath>
</defs>
</svg>
