<svg width="48" height="48" viewBox="0 0 48 48" fill="none" xmlns="http://www.w3.org/2000/svg">
<g clip-path="url(#clip0_574_3037)">
<g clip-path="url(#clip1_574_3037)">
<path d="M24 18C22.4087 18 20.8826 18.6321 19.7574 19.7574C18.6321 20.8826 18 22.4087 18 24V40C17.9998 41.2805 18.4093 42.5275 19.1686 43.5585C19.9279 44.5896 20.9971 45.3508 22.2199 45.7307C23.4428 46.1106 24.7551 46.0893 25.965 45.6699C27.1748 45.2506 28.2188 44.4552 28.9443 43.4L39.9443 27.4C40.5629 26.5004 40.9244 25.4491 40.9898 24.3593C41.0552 23.2695 40.822 22.1825 40.3153 21.2154C39.8086 20.2483 39.0477 19.4378 38.1144 18.8712C37.1812 18.3046 36.111 18.0034 35.0193 18H24Z" fill="#FF5C35"/>
<path d="M24.0035 29.9998C25.5948 29.9998 27.1209 29.3677 28.2461 28.2425C29.3714 27.1173 30.0035 25.5911 30.0035 23.9998V7.99985C30.0037 6.71936 29.5942 5.47239 28.8349 4.4413C28.0756 3.4102 27.0064 2.64905 25.7836 2.26916C24.5607 1.88926 23.2484 1.91055 22.0385 2.3299C20.8287 2.74925 19.7847 3.54467 19.0592 4.59985L8.05925 20.5998C7.43965 21.5008 7.07802 22.5538 7.01341 23.6453C6.94881 24.7368 7.1837 25.8252 7.6927 26.7929C8.20169 27.7607 8.96545 28.5709 9.90145 29.1361C10.8374 29.7013 11.9101 29.9999 13.0035 29.9998H24.0035Z" fill="url(#paint0_linear_574_3037)"/>
<path d="M24 13.999C27.3137 13.999 30 11.3127 30 7.99902C30 4.68531 27.3137 1.99902 24 1.99902C20.6863 1.99902 18 4.68531 18 7.99902C18 11.3127 20.6863 13.999 24 13.999Z" fill="#FF5C35"/>
<path d="M35.0029 30H13.0029C11.4116 30 9.88551 29.3679 8.76029 28.2426C7.63507 27.1174 7.00293 25.5913 7.00293 24C7.00293 22.4087 7.63507 20.8826 8.76029 19.7574C9.88551 18.6321 11.4116 18 13.0029 18H35.0029C36.5942 18 38.1204 18.6321 39.2456 19.7574C40.3708 20.8826 41.0029 22.4087 41.0029 24C41.0029 25.5913 40.3708 27.1174 39.2456 28.2426C38.1204 29.3679 36.5942 30 35.0029 30Z" fill="url(#paint1_linear_574_3037)"/>
</g>
</g>
<defs>
<linearGradient id="paint0_linear_574_3037" x1="7.0035" y1="15.9998" x2="30.0035" y2="15.9998" gradientUnits="userSpaceOnUse">
<stop offset="0.27" stop-color="#FF824E"/>
<stop offset="0.74" stop-color="#FFA766"/>
</linearGradient>
<linearGradient id="paint1_linear_574_3037" x1="12.0504" y1="15.1835" x2="35.9554" y2="32.8165" gradientUnits="userSpaceOnUse">
<stop offset="0.18" stop-color="#FF824E"/>
<stop offset="0.82" stop-color="#FF5C35"/>
</linearGradient>
<clipPath id="clip0_574_3037">
<rect width="48" height="48" fill="white"/>
</clipPath>
<clipPath id="clip1_574_3037">
<rect width="48" height="48" fill="white"/>
</clipPath>
</defs>
</svg>
