<svg width="48" height="48" viewBox="0 0 48 48" fill="none" xmlns="http://www.w3.org/2000/svg">
<g clip-path="url(#clip0_574_3036)">
<g clip-path="url(#clip1_574_3036)">
<path d="M39.4974 37.2154L29.7411 7.19044C28.9946 4.72469 26.7059 2.92969 23.9974 2.92969C21.2889 2.92969 19.0001 4.72469 18.2541 7.18944L8.49737 37.2154C8.10536 38.4206 8.10504 39.719 8.49645 40.9244C8.88786 42.1298 9.6509 43.1803 10.6762 43.9253C11.7014 44.6702 12.9363 45.0714 14.2036 45.0713C15.471 45.0712 16.7057 44.6698 17.7309 43.9247L23.9974 39.3709L30.2636 43.9247L30.2681 43.9274C31.2935 44.6714 32.5281 45.0716 33.7949 45.0709C35.0618 45.0702 36.2959 44.6685 37.3204 43.9234C38.345 43.1782 39.1074 42.128 39.4985 40.923C39.8895 39.718 39.8891 38.4202 39.4974 37.2154Z" fill="#FF5C35"/>
<path d="M33.7948 45.0691C32.5278 45.0694 31.2933 44.6686 30.2681 43.9241L4.62957 25.2956C3.34217 24.3602 2.47907 22.9518 2.23014 21.3801C1.98121 19.8083 2.36684 18.2021 3.30219 16.9147C4.23754 15.6273 5.646 14.7642 7.21772 14.5153C8.78944 14.2664 10.3957 14.652 11.6831 15.5873L37.3216 34.2148C38.3467 34.9596 39.1098 36.0098 39.5014 37.2149C39.8929 38.42 39.893 39.7181 39.5014 40.9232C39.1098 42.1283 38.3468 43.1785 37.3217 43.9233C36.2965 44.668 35.0619 45.0691 33.7948 45.0691Z" fill="url(#paint0_linear_574_3036)"/>
<path d="M41.0002 26.4414H8.15625C6.56495 26.4414 5.03883 25.8093 3.91361 24.684C2.78839 23.5588 2.15625 22.0327 2.15625 20.4414C2.15625 18.8501 2.78839 17.324 3.91361 16.1988C5.03883 15.0735 6.56495 14.4414 8.15625 14.4414H41.0002C42.5915 14.4414 44.1177 15.0735 45.2429 16.1988C46.3681 17.324 47.0002 18.8501 47.0002 20.4414C47.0002 22.0327 46.3681 23.5588 45.2429 24.684C44.1177 25.8093 42.5915 26.4414 41.0002 26.4414Z" fill="url(#paint1_linear_574_3036)"/>
<path d="M40.998 26.4414C44.3118 26.4414 46.998 23.7551 46.998 20.4414C46.998 17.1277 44.3118 14.4414 40.998 14.4414C37.6843 14.4414 34.998 17.1277 34.998 20.4414C34.998 23.7551 37.6843 26.4414 40.998 26.4414Z" fill="#FF5C35"/>
</g>
</g>
<defs>
<linearGradient id="paint0_linear_574_3036" x1="8.61357" y1="20.6368" x2="33.3703" y2="38.8981" gradientUnits="userSpaceOnUse">
<stop offset="0.18" stop-color="#FF824E"/>
<stop offset="0.82" stop-color="#FF5C35"/>
</linearGradient>
<linearGradient id="paint1_linear_574_3036" x1="2.6085" y1="20.4414" x2="46.5245" y2="20.4414" gradientUnits="userSpaceOnUse">
<stop offset="0.27" stop-color="#FF824E"/>
<stop offset="0.74" stop-color="#FFA766"/>
</linearGradient>
<clipPath id="clip0_574_3036">
<rect width="48" height="48" fill="white"/>
</clipPath>
<clipPath id="clip1_574_3036">
<rect width="48" height="48" fill="white"/>
</clipPath>
</defs>
</svg>
