<svg width="48" height="48" viewBox="0 0 48 48" fill="none" xmlns="http://www.w3.org/2000/svg">
<g clip-path="url(#clip0_574_3052)">
<path d="M39.0019 4.00098H9.00195C7.67587 4.00098 6.4041 4.52776 5.46642 5.46544C4.52874 6.40312 4.00195 7.67489 4.00195 9.00098V39.001C4.00195 40.3271 4.52874 41.5988 5.46642 42.5365C6.4041 43.4742 7.67587 44.001 9.00195 44.001H39.0019C40.328 44.001 41.5998 43.4742 42.5375 42.5365C43.4752 41.5988 44.0019 40.3271 44.0019 39.001V9.00098C44.0019 7.67489 43.4752 6.40312 42.5375 5.46544C41.5998 4.52776 40.328 4.00098 39.0019 4.00098ZM29.342 11.341C29.3393 11.1643 29.3721 10.9888 29.4385 10.825C29.5048 10.6612 29.6034 10.5124 29.7284 10.3874C29.8534 10.2625 30.0022 10.1639 30.166 10.0975C30.3298 10.0311 30.5052 9.99828 30.682 10.001C31.0289 10.011 31.3588 10.1533 31.6042 10.3987C31.8496 10.6441 31.9919 10.9741 32.0019 11.321V29.121C31.9621 29.4456 31.8048 29.7445 31.5598 29.9612C31.3148 30.1779 30.999 30.2976 30.672 30.2976C30.3449 30.2976 30.0291 30.1779 29.7841 29.9612C29.5391 29.7445 29.3818 29.4456 29.342 29.121V11.341ZM22.662 10.661C22.662 10.3056 22.8031 9.96475 23.0544 9.71345C23.3057 9.46215 23.6466 9.32098 24.002 9.32098C24.3573 9.32098 24.6982 9.46215 24.9495 9.71345C25.2008 9.96475 25.342 10.3056 25.342 10.661V30.001C25.342 30.3564 25.2008 30.6972 24.9495 30.9485C24.6982 31.1998 24.3573 31.341 24.002 31.341C23.6466 31.341 23.3057 31.1998 23.0544 30.9485C22.8031 30.6972 22.662 30.3564 22.662 30.001V10.661ZM16.002 11.341C16.0418 11.0163 16.1991 10.7175 16.4441 10.5007C16.6891 10.284 17.0049 10.1644 17.332 10.1644C17.659 10.1644 17.9748 10.284 18.2198 10.5007C18.4648 10.7175 18.6221 11.0163 18.662 11.341V29.141C18.662 29.316 18.6272 29.4893 18.5596 29.6508C18.492 29.8122 18.393 29.9587 18.2683 30.0815C18.1436 30.2043 17.9957 30.3011 17.8332 30.3663C17.6708 30.4314 17.497 30.4636 17.322 30.461C16.975 30.4509 16.6451 30.3086 16.3997 30.0632C16.1543 29.8178 16.012 29.4879 16.002 29.141V11.341ZM9.34195 14.001C9.38184 13.6763 9.53909 13.3775 9.78408 13.1607C10.0291 12.944 10.3449 12.8244 10.672 12.8244C10.999 12.8244 11.3148 12.944 11.5598 13.1607C11.8048 13.3775 11.9621 13.6763 12.002 14.001V26.001C11.9967 26.3529 11.8532 26.6886 11.6025 26.9356C11.3517 27.1826 11.0139 27.321 10.662 27.321C10.3135 27.3158 9.98072 27.1751 9.73428 26.9286C9.48784 26.6822 9.34712 26.3495 9.34195 26.001V14.001ZM38.2019 34.341C34.0899 37.3385 29.0866 38.8607 24.002 38.661C18.9173 38.8607 13.914 37.3385 9.80195 34.341C9.59314 34.0968 9.47901 33.7857 9.48038 33.4644C9.48175 33.1431 9.59852 32.833 9.80942 32.5906C10.0203 32.3482 10.3113 32.1896 10.6293 32.1438C10.9473 32.098 11.2712 32.168 11.542 32.341C15.1857 34.8857 19.5608 36.1708 24.002 36.001C28.4463 36.1724 32.8239 34.8795 36.4619 32.321C36.7327 32.148 37.0566 32.078 37.3746 32.1238C37.6926 32.1696 37.9836 32.3282 38.1945 32.5706C38.4054 32.813 38.5222 33.1231 38.5235 33.4444C38.5249 33.7657 38.4108 34.0768 38.2019 34.321V34.341ZM38.6619 26.001C38.6221 26.3256 38.4648 26.6245 38.2198 26.8412C37.9748 27.0579 37.659 27.1776 37.332 27.1776C37.0049 27.1776 36.6891 27.0579 36.4441 26.8412C36.1991 26.6245 36.0418 26.3256 36.0019 26.001V14.001C36.0072 13.6491 36.1507 13.3133 36.4014 13.0664C36.6522 12.8194 36.99 12.6809 37.3419 12.681C37.692 12.681 38.0278 12.82 38.2753 13.0676C38.5229 13.3151 38.6619 13.6509 38.6619 14.001V26.001Z" fill="black"/>
</g>
<defs>
<clipPath id="clip0_574_3052">
<rect width="48" height="48" fill="white"/>
</clipPath>
</defs>
</svg>
