<svg width="48" height="48" viewBox="0 0 48 48" fill="none" xmlns="http://www.w3.org/2000/svg">
<g clip-path="url(#clip0_574_3041)">
<path d="M15.9091 20.7949H21.6613C20.2247 19.8963 19.6873 18.6369 18.9656 16.3019L16.8073 8.30304C15.8203 4.70868 15.0103 3 11.0551 3H2.79097V5.15799H3.96179C6.38495 5.15799 6.6575 6.05658 7.37918 8.75238L9.26489 15.7642C10.2519 19.1815 11.7836 20.7949 15.9158 20.7949H15.9091ZM29.2109 20.7949H34.9633C39.0955 20.7949 40.5316 19.1747 41.5258 15.7642L43.4116 8.75238C44.1328 6.05658 44.4868 5.15799 46.8289 5.15799H47.9998V3H39.8239C35.7799 3 34.9699 4.62018 34.0714 8.30304L31.9135 16.3019C31.1917 18.7254 30.6472 19.8963 29.2109 20.7949ZM21.6613 28.3444H29.2109V20.7949H21.6613V28.3444ZM2.79097 46.1394H11.0551C15.0103 46.1394 15.8203 44.4309 16.8073 40.8363L18.9656 32.8377C19.6873 30.5022 20.2247 29.2432 21.6613 28.3444H15.9091C11.7768 28.3444 10.2451 29.9648 9.25811 33.3753L7.37237 40.3872C6.65069 43.083 6.38495 43.9812 3.95501 43.9812H2.78418V46.1394H2.79097ZM39.8104 46.1394H47.9863V43.9812H46.8154C44.4802 43.9812 44.1193 43.083 43.3981 40.3872L41.5123 33.3753C40.525 29.9581 39.0886 28.3444 34.9495 28.3444H29.2109C30.6472 29.2432 31.1713 30.414 31.8931 32.8377L34.051 40.8363C34.9495 44.5191 35.7595 46.1394 39.8035 46.1394H39.8104Z" fill="black"/>
</g>
<defs>
<clipPath id="clip0_574_3041">
<rect width="48" height="48" fill="white"/>
</clipPath>
</defs>
</svg>
