<svg width="48" height="48" viewBox="0 0 48 48" fill="none" xmlns="http://www.w3.org/2000/svg">
<g filter="url(#filter0_d_574_2893)">
<path d="M7.55214 6.82042L7.55213 6.82034L7.53945 6.8214C6.50762 6.90737 5.66956 7.29332 5.10775 7.98562C4.56318 8.65669 4.38782 9.48144 4.38782 10.2432V31.6374C4.38782 32.9176 4.8884 33.9582 5.81727 35.1493L5.8172 35.1494L5.82558 35.1598L10.6047 41.1255L10.6046 41.1255L10.6109 41.1333C11.0837 41.7118 11.6042 42.1438 12.2966 42.3869C12.9524 42.6172 13.6677 42.6423 14.45 42.6064L14.45 42.6065L14.4625 42.6058L38.0718 41.2341L38.0718 41.2341L38.0822 41.2334C39.2012 41.1569 40.1542 40.8561 40.802 40.1485C41.449 39.4418 41.6065 38.5298 41.6065 37.6726V13.6035C41.6065 12.9946 41.4575 12.4755 41.0316 12.0011C40.7472 11.6843 40.3305 11.3928 39.9125 11.1003C39.8561 11.0609 39.7998 11.0214 39.7437 10.9819L39.7356 10.9762L39.7274 10.9707L33.2443 6.58663C32.4321 6.01938 31.745 5.61646 30.8753 5.42681C30.0407 5.24482 29.1168 5.2782 27.8764 5.38041L7.55214 6.82042Z" fill="white" stroke="white" stroke-width="2.05249"/>
<path fill-rule="evenodd" clip-rule="evenodd" d="M27.9549 6.40368L7.62467 7.8441C5.98535 7.98069 5.41406 9.00965 5.41406 10.2432V31.6374C5.41406 32.5986 5.77017 33.4201 6.62652 34.5182L11.4056 40.4839C12.1906 41.4445 12.904 41.65 14.403 41.5812L38.0123 40.2096C40.0091 40.0731 40.5803 39.181 40.5803 37.6726V13.6035C40.5803 12.8238 40.2596 12.5985 39.3143 11.9345C39.2623 11.898 39.2084 11.8601 39.1525 11.8208L32.6629 7.43235C31.0937 6.33566 30.4514 6.19766 27.9549 6.40368ZM14.9413 13.209C13.0137 13.3342 12.5757 13.3627 11.4811 12.5071L8.69744 10.3815C8.41353 10.1066 8.55592 9.7637 9.26871 9.6957L28.8139 8.32413C30.4541 8.18669 31.3099 8.73616 31.9522 9.21593L35.3045 11.5476C35.4472 11.6159 35.8033 12.0268 35.3751 12.0268L15.1901 13.1929L14.9413 13.209ZM12.6914 37.4661V17.0324C12.6914 16.1412 12.9768 15.7294 13.8322 15.6603L37.0141 14.3578C37.8003 14.2893 38.1564 14.7696 38.1564 15.6603V35.9568C38.1564 36.8489 38.0134 37.6043 36.7289 37.6722L14.5456 38.9072C13.2618 38.9751 12.6914 38.5643 12.6914 37.4661ZM34.5875 18.1288C34.7297 18.7466 34.5875 19.3638 33.9443 19.4332L32.8754 19.6381V34.7236C31.9474 35.2035 31.0916 35.4778 30.3785 35.4778C29.2368 35.4778 28.9509 35.1347 28.0957 34.1067L21.1043 23.5468V33.7638L23.3166 34.2442C23.3166 34.2442 23.3166 35.4778 21.5318 35.4778L16.6112 35.7525C16.4682 35.4778 16.6112 34.7927 17.1102 34.6554L18.3943 34.313V20.8043L16.6114 20.6668C16.4685 20.049 16.8246 19.1584 17.8239 19.0892L23.1026 18.7469L30.3785 29.4443V19.981L28.5235 19.7761C28.3811 19.0209 28.9509 18.4726 29.6643 18.4046L34.5875 18.1288Z" fill="black"/>
</g>
<defs>
<filter id="filter0_d_574_2893" x="1.58333" y="2.74074" width="42.8333" height="42.8333" filterUnits="userSpaceOnUse" color-interpolation-filters="sRGB">
<feFlood flood-opacity="0" result="BackgroundImageFix"/>
<feColorMatrix in="SourceAlpha" type="matrix" values="0 0 0 0 0 0 0 0 0 0 0 0 0 0 0 0 0 0 127 0" result="hardAlpha"/>
<feOffset dy="0.157407"/>
<feGaussianBlur stdDeviation="0.708333"/>
<feComposite in2="hardAlpha" operator="out"/>
<feColorMatrix type="matrix" values="0 0 0 0 0 0 0 0 0 0 0 0 0 0 0 0 0 0 0.28 0"/>
<feBlend mode="normal" in2="BackgroundImageFix" result="effect1_dropShadow_574_2893"/>
<feBlend mode="normal" in="SourceGraphic" in2="effect1_dropShadow_574_2893" result="shape"/>
</filter>
</defs>
</svg>
