<svg width="48" height="48" viewBox="0 0 48 48" fill="none" xmlns="http://www.w3.org/2000/svg">
<g clip-path="url(#clip0_574_3039)">
<path fill-rule="evenodd" clip-rule="evenodd" d="M43.17 20.7983C42.75 26.4173 38.286 31.4993 32.544 31.7303V27.4793C32.544 23.5853 29.772 20.2193 25.95 19.4783L11.715 16.7123V7.11234C11.715 4.52634 14.073 2.58234 16.608 3.07734L31.248 5.92134C39.348 7.68534 43.683 13.8893 43.17 20.7983ZM16.764 34.2233L8.34 32.5853C8.05548 32.53 7.76225 32.5383 7.48133 32.6097C7.2004 32.681 6.93874 32.8136 6.71509 32.998C6.49144 33.1824 6.31134 33.4139 6.18772 33.6761C6.06409 33.9382 5.99998 34.2245 6 34.5143V40.3433C5.99961 41.0491 6.24491 41.7331 6.69378 42.2777C7.14266 42.8224 7.76713 43.1939 8.46 43.3283L16.881 44.9633C17.1655 45.0181 17.4585 45.0094 17.7392 44.9378C18.0199 44.8663 18.2813 44.7336 18.5048 44.5494C18.7283 44.3651 18.9084 44.1338 19.0322 43.8719C19.156 43.61 19.2205 43.324 19.221 43.0343V37.2053C19.2207 36.5 18.9751 35.8168 18.5263 35.2728C18.0774 34.7287 17.4564 34.3577 16.764 34.2233ZM25.275 22.6343L12.429 20.1413C11.9951 20.0563 11.5477 20.0684 11.119 20.1768C10.6904 20.2852 10.291 20.4872 9.94969 20.7682C9.60837 21.0493 9.33354 21.4025 9.14496 21.8025C8.95637 22.2024 8.85872 22.6392 8.859 23.0813V29.4113C8.889 29.4203 8.925 29.4233 8.955 29.4293L17.379 31.0643C18.8034 31.3431 20.0868 32.1078 21.0099 33.2279C21.933 34.348 22.4385 35.7539 22.44 37.2053V38.5253L25.701 39.1613C26.1347 39.2459 26.5817 39.2334 27.01 39.1248C27.4383 39.0162 27.8373 38.8141 28.1783 38.533C28.5192 38.252 28.7938 37.899 28.9822 37.4993C29.1706 37.0996 29.2682 36.6632 29.268 36.2213V27.4793C29.268 25.1183 27.591 23.0843 25.275 22.6343Z" fill="black"/>
</g>
<defs>
<clipPath id="clip0_574_3039">
<rect width="48" height="48" fill="white"/>
</clipPath>
</defs>
</svg>
