<svg width="48" height="48" viewBox="0 0 48 48" fill="none" xmlns="http://www.w3.org/2000/svg">
<g clip-path="url(#clip0_574_3054)">
<path d="M14.1799 38.1805C14.1799 39.6949 12.9409 41.0715 11.2889 41.0715C9.63685 41.0715 8.39783 39.8325 8.39783 38.1805V25.7903C8.39783 24.2759 9.63685 22.8992 11.2889 22.8992C12.9409 22.8992 14.1799 24.1382 14.1799 25.7903V38.1805ZM22.4401 41.4846C22.4401 42.9989 21.2011 44.3756 19.549 44.3756C17.897 44.3756 16.7957 43.1366 16.7957 41.4846V22.6239C16.7957 21.1095 18.0347 19.7328 19.6867 19.7328C21.3387 19.7328 22.5778 20.9718 22.5778 22.6239V41.4846H22.4401ZM5.78211 35.4271C5.78211 36.9415 4.54309 38.3182 2.89106 38.3182C1.23902 38.3182 0 37.0791 0 35.4271V28.6813C0 27.1669 1.23902 25.7903 2.89106 25.7903C4.54309 25.7903 5.78211 27.1669 5.78211 28.6813V35.4271ZM30.7003 44.5133C30.7003 46.0276 29.4612 47.4043 27.8092 47.4043C26.2948 47.4043 25.0558 46.0276 25.0558 44.5133V19.4575C25.0558 17.9431 26.2948 16.5664 27.9469 16.5664C29.4612 16.5664 30.8379 17.8054 30.8379 19.4575V44.5133H30.7003Z" fill="#231F20"/>
<path d="M39.7838 43.2741C39.2331 43.2741 38.8201 43.1364 38.2694 42.9987L34.8277 41.8974C34.277 41.7597 33.864 41.0713 34.1394 40.5207C34.277 39.97 34.9654 39.557 35.516 39.8323L39.0955 40.9337C39.7838 41.209 40.6098 41.0713 41.2982 40.5207C41.9865 40.1077 42.2618 39.2816 42.2618 38.5933V15.6025C42.2618 14.5012 41.5735 13.5375 40.6098 13.2621L6.88082 3.0746C6.19248 2.79926 5.36646 2.93693 4.67811 3.34994C4.12744 3.90062 3.71443 4.58897 3.71443 5.41498V21.247C3.71443 21.9353 3.16375 22.3483 2.61307 22.3483C1.92473 22.3483 1.51172 21.7976 1.51172 21.247V5.41498C1.51172 3.90062 2.20007 2.52393 3.43909 1.69791C4.67811 0.734224 6.19248 0.596555 7.56917 1.00956L41.1605 11.1971C43.0879 11.7478 44.4646 13.6751 44.4646 15.7402V38.731C44.4646 40.2453 43.7762 41.622 42.5372 42.5857C41.7112 42.861 40.7475 43.2741 39.7838 43.2741Z" fill="#231F20"/>
</g>
<defs>
<clipPath id="clip0_574_3054">
<rect width="44.4672" height="48" fill="white"/>
</clipPath>
</defs>
</svg>
