<svg width="48" height="48" viewBox="0 0 48 48" fill="none" xmlns="http://www.w3.org/2000/svg">
<g clip-path="url(#clip0_574_3055)">
<path d="M0 35.7548H24.2348L48 12H0V35.7548Z" fill="#014185"/>
<path fill-rule="evenodd" clip-rule="evenodd" d="M28.4606 16.4646L23.7639 16.4637V27.7L19.6308 16.4637H15.5917L12.0222 25.8608C11.6465 23.4937 9.20419 22.6755 7.23159 22.0631C6.01046 21.6516 4.60145 21.0467 4.69539 20.3854C4.69539 19.8368 5.35292 19.3334 6.76193 19.4085C7.70126 19.4564 8.54666 19.5344 10.2375 20.3403L11.9283 17.4782C10.3314 16.7042 8.26486 16.2148 6.57406 16.2129C4.50752 16.2129 2.81672 16.8629 1.78345 17.9403C1.12592 18.6899 0.65625 19.6415 0.65625 20.6963C0.65625 22.1476 1.21985 23.1771 2.25312 23.9972C3.28639 24.6876 4.41359 25.1375 5.54079 25.4672C6.85586 25.8739 7.88913 26.2262 7.88913 26.9814C7.88913 27.2604 7.79519 27.514 7.60732 27.7179C7.23159 28.0551 6.76192 28.1828 6.01046 28.1988C4.69539 28.2232 3.75605 28.0138 2.15918 27.081L0.65625 29.9788C2.25312 30.8768 4.13179 31.4047 6.01046 31.4047L6.29226 31.4029C7.88913 31.3728 9.29813 30.8984 10.3314 30.0361C10.4253 29.9854 10.4253 29.9384 10.5193 29.8915L10.0496 31.153H14.3705L15.0281 28.9662C15.7795 29.218 16.6249 29.3645 17.5643 29.3645C18.5036 29.3645 19.2551 29.2227 20.0065 28.9841L20.758 31.153H27.7091V26.617H29.306C32.9694 26.617 35.1298 24.7373 35.1298 21.5849C35.1298 18.0756 33.0633 16.4646 28.4606 16.4646ZM17.5643 26.0844C17.0007 26.0844 16.531 25.9867 16.0613 25.8157L17.5643 21.089L19.0672 25.8307C18.5975 25.9923 18.1279 26.0844 17.5643 26.0844ZM28.7424 23.3659H27.7091V19.555H28.7424C30.1514 19.555 31.2786 20.0163 31.2786 21.4412C31.2786 22.9066 30.1514 23.3659 28.7424 23.3659Z" fill="white"/>
</g>
<defs>
<clipPath id="clip0_574_3055">
<rect width="48" height="23.7905" fill="white" transform="translate(0 12)"/>
</clipPath>
</defs>
</svg>
