<svg width="48" height="48" viewBox="0 0 48 48" fill="none" xmlns="http://www.w3.org/2000/svg">
<g clip-path="url(#clip0_574_3056)">
<g clip-path="url(#clip1_574_3056)">
<mask id="mask0_574_3056" style="mask-type:luminance" maskUnits="userSpaceOnUse" x="0" y="0" width="48" height="48">
<path d="M48 0H0V48H48V0Z" fill="white"/>
</mask>
<g mask="url(#mask0_574_3056)">
<path fill-rule="evenodd" clip-rule="evenodd" d="M42.3018 0H5.70594C2.55769 0 0.00433563 2.55155 4.59977e-05 5.70183V42.2673C-0.00604188 43.7856 0.592398 45.2439 1.66312 46.3197C2.73383 47.3952 4.18866 48 5.70594 48H42.3018C43.8177 47.9979 45.2706 47.3925 46.3395 46.3167C47.4087 45.2412 48.006 43.7844 48 42.2673V5.70183C47.9958 2.55455 45.447 0.00423876 42.3018 0ZM20.7011 34.5726C20.699 35.0802 20.4951 35.5659 20.1344 35.9226C19.7736 36.279 19.2857 36.4773 18.7786 36.4734H10.7812C9.73521 36.4689 8.88951 35.6193 8.88951 34.5726V10.7573C8.88951 9.71061 9.73521 8.86092 10.7812 8.85669H18.7786C19.8259 8.86089 20.6738 9.70938 20.678 10.7573L20.7011 34.5726ZM39.1566 23.6383C39.1566 24.1464 38.9535 24.6334 38.5923 24.9905C38.2311 25.3476 37.7418 25.5451 37.2342 25.5391H29.2368C28.1895 25.5347 27.3416 24.6863 27.3374 23.6383V10.7573C27.3416 9.70938 28.1895 8.86089 29.2368 8.85669H37.2342C38.2803 8.86092 39.126 9.71061 39.126 10.7573L39.1566 23.6383Z" fill="url(#paint0_linear_574_3056)"/>
</g>
</g>
</g>
<defs>
<linearGradient id="paint0_linear_574_3056" x1="24.0231" y1="48" x2="24.0231" y2="0" gradientUnits="userSpaceOnUse">
<stop stop-color="#0052CC"/>
<stop offset="1" stop-color="#2684FF"/>
</linearGradient>
<clipPath id="clip0_574_3056">
<rect width="48" height="48" fill="white"/>
</clipPath>
<clipPath id="clip1_574_3056">
<rect width="48" height="48" fill="white"/>
</clipPath>
</defs>
</svg>
