<svg width="48" height="48" viewBox="0 0 48 48" fill="none" xmlns="http://www.w3.org/2000/svg">
<g clip-path="url(#clip0_574_3043)">
<path d="M31.1248 24.0098C31.1241 25.6819 30.8179 27.2818 30.2609 28.7602C28.7832 29.3172 27.1819 29.6234 25.5091 29.6255H25.4902C23.8188 29.6234 22.2175 29.3179 20.7398 28.7609C20.1827 27.2832 19.8759 25.6819 19.8752 24.0098V23.9902C19.8759 22.3188 20.182 20.7175 20.7384 19.2405C22.2161 18.6827 23.8181 18.3759 25.4902 18.3752H25.5091C27.1819 18.3759 28.7832 18.6827 30.2609 19.2405C30.8179 20.7175 31.1241 22.3188 31.1248 23.9902V24.0098ZM47.6875 20.2501H34.5538L43.8401 10.9631C43.1105 9.93794 42.2968 8.97643 41.4094 8.08916V8.08846C40.5221 7.20189 39.5606 6.38955 38.5363 5.65993L29.2492 14.947V1.8132C28.0339 1.60888 26.7853 1.50071 25.5112 1.5H25.488C24.214 1.50071 22.9661 1.60888 21.7501 1.8132V14.947L12.4631 5.65993C11.4379 6.38955 10.4771 7.20259 9.59129 8.08986L9.58633 8.0934C8.70046 8.97926 7.88885 9.93936 7.15923 10.9631L16.447 20.2501H3.3132C3.3132 20.2501 3 22.7168 3 23.9923V24.0077C3 25.2832 3.10817 26.5332 3.3132 27.7499H16.447L7.15923 37.037C8.61987 39.0864 10.4135 40.8808 12.4631 42.3408L21.7501 33.0531V46.1875C22.9654 46.3912 24.2119 46.4986 25.4837 46.5H25.5155C26.7881 46.4986 28.036 46.3912 29.2492 46.1875V33.0531L38.537 42.3408C39.5613 41.6112 40.5221 40.7982 41.4094 39.9115L41.4115 39.9094C42.2975 39.0221 43.1112 38.0606 43.8401 37.037L34.5524 27.7499H47.6875C47.8919 26.5353 47.9986 25.2888 48 24.0162V23.9837C47.9986 22.7112 47.8919 21.4647 47.6875 20.2501Z" fill="#FF4A00"/>
</g>
<defs>
<clipPath id="clip0_574_3043">
<rect width="45" height="45" fill="white" transform="translate(3 1.5)"/>
</clipPath>
</defs>
</svg>
