<svg width="147" height="55" viewBox="0 0 147 55" fill="none" xmlns="http://www.w3.org/2000/svg">
<path d="M84.1213 25.3027H82.4465V15.6553C82.4465 14.8931 82.4933 13.9605 82.5869 12.8573H82.5468C82.3863 13.5059 82.2426 13.9705 82.1156 14.2513L77.2016 25.3027H76.3793L71.4753 14.3315C71.3349 14.0106 71.1912 13.5192 71.0441 12.8573H71.004C71.0575 13.4323 71.0842 14.3716 71.0842 15.6754V25.3027H69.4596V10.9218H71.6859L76.0985 20.9504C76.4394 21.7192 76.6601 22.2942 76.7603 22.6753H76.8205C77.108 21.8864 77.3387 21.298 77.5125 20.9102L82.0153 10.9218H84.1213V25.3027ZM87.6096 12.4261C87.3154 12.4261 87.0647 12.3258 86.8575 12.1253C86.6502 11.9247 86.5466 11.6706 86.5466 11.3631C86.5466 11.0555 86.6502 10.8015 86.8575 10.6009C87.0647 10.3937 87.3154 10.29 87.6096 10.29C87.9105 10.29 88.1645 10.3937 88.3718 10.6009C88.5857 10.8015 88.6927 11.0555 88.6927 11.3631C88.6927 11.6573 88.5857 11.908 88.3718 12.1152C88.1645 12.3225 87.9105 12.4261 87.6096 12.4261ZM88.4119 25.3027H86.7672V15.0335H88.4119V25.3027ZM97.817 24.8314C97.0281 25.3061 96.0921 25.5434 95.009 25.5434C93.5449 25.5434 92.3615 25.0687 91.4589 24.1194C90.5631 23.1633 90.1151 21.9265 90.1151 20.4088C90.1151 18.7173 90.5998 17.3601 91.5693 16.3372C92.5387 15.3076 93.8324 14.7928 95.4503 14.7928C96.3529 14.7928 97.1485 14.96 97.8371 15.2943V16.9791C97.0749 16.4442 96.2593 16.1768 95.3901 16.1768C94.3405 16.1768 93.478 16.5545 92.8028 17.31C92.1342 18.0588 91.7999 19.0449 91.7999 20.2684C91.7999 21.4718 92.1141 22.4212 92.7426 23.1165C93.3777 23.8118 94.2268 24.1595 95.2898 24.1595C96.1857 24.1595 97.0281 23.862 97.817 23.2669V24.8314ZM104.735 16.6983C104.448 16.4776 104.033 16.3673 103.492 16.3673C102.79 16.3673 102.201 16.6983 101.727 17.3601C101.259 18.022 101.025 18.9246 101.025 20.0678V25.3027H99.3799V15.0335H101.025V17.1495H101.065C101.299 16.4275 101.656 15.8659 102.138 15.4648C102.619 15.0569 103.157 14.853 103.752 14.853C104.18 14.853 104.508 14.8998 104.735 14.9934V16.6983ZM109.607 25.5434C108.09 25.5434 106.876 25.0654 105.967 24.1093C105.064 23.1466 104.613 21.873 104.613 20.2885C104.613 18.5636 105.084 17.2164 106.027 16.247C106.97 15.2776 108.243 14.7928 109.848 14.7928C111.379 14.7928 112.572 15.2642 113.428 16.2069C114.291 17.1495 114.722 18.4566 114.722 20.128C114.722 21.766 114.257 23.0797 113.328 24.0692C112.405 25.052 111.165 25.5434 109.607 25.5434ZM109.728 16.1768C108.671 16.1768 107.836 16.5378 107.221 17.2599C106.605 17.9752 106.298 18.9647 106.298 20.2283C106.298 21.4451 106.609 22.4045 107.231 23.1065C107.852 23.8085 108.685 24.1595 109.728 24.1595C110.791 24.1595 111.606 23.8152 112.175 23.1265C112.75 22.4379 113.037 21.4585 113.037 20.1882C113.037 18.9045 112.75 17.9151 112.175 17.2197C111.606 16.5244 110.791 16.1768 109.728 16.1768ZM115.803 24.9317V23.1667C116.699 23.8285 117.685 24.1595 118.762 24.1595C120.206 24.1595 120.928 23.6781 120.928 22.7154C120.928 22.4413 120.864 22.2106 120.737 22.0234C120.617 21.8295 120.45 21.659 120.236 21.512C120.029 21.3649 119.781 21.2345 119.494 21.1208C119.213 21.0005 118.909 20.8768 118.581 20.7498C118.127 20.5693 117.726 20.3888 117.378 20.2082C117.037 20.021 116.749 19.8138 116.515 19.5865C116.288 19.3525 116.114 19.0884 115.994 18.7942C115.88 18.5001 115.823 18.1557 115.823 17.7613C115.823 17.2799 115.934 16.8554 116.154 16.4877C116.375 16.1133 116.669 15.8024 117.037 15.555C117.405 15.301 117.822 15.1104 118.29 14.9834C118.765 14.8564 119.253 14.7928 119.755 14.7928C120.644 14.7928 121.439 14.9466 122.141 15.2542V16.9189C121.386 16.4242 120.517 16.1768 119.534 16.1768C119.226 16.1768 118.949 16.2136 118.702 16.2871C118.454 16.354 118.24 16.4509 118.06 16.5779C117.886 16.7049 117.749 16.8587 117.649 17.0392C117.555 17.2131 117.508 17.4069 117.508 17.6209C117.508 17.8883 117.555 18.1123 117.649 18.2928C117.749 18.4733 117.893 18.6338 118.08 18.7742C118.267 18.9146 118.494 19.0416 118.762 19.1553C119.029 19.2689 119.333 19.3926 119.674 19.5263C120.129 19.7001 120.537 19.8806 120.898 20.0678C121.259 20.2484 121.566 20.4556 121.82 20.6896C122.075 20.9169 122.268 21.181 122.402 21.4819C122.543 21.7827 122.613 22.1404 122.613 22.5549C122.613 23.063 122.499 23.5043 122.272 23.8787C122.051 24.2531 121.754 24.564 121.379 24.8113C121.005 25.0587 120.574 25.2426 120.086 25.3629C119.598 25.4832 119.086 25.5434 118.551 25.5434C117.495 25.5434 116.579 25.3395 115.803 24.9317ZM128.518 25.5434C127 25.5434 125.787 25.0654 124.878 24.1093C123.975 23.1466 123.524 21.873 123.524 20.2885C123.524 18.5636 123.995 17.2164 124.938 16.247C125.88 15.2776 127.154 14.7928 128.759 14.7928C130.29 14.7928 131.483 15.2642 132.339 16.2069C133.201 17.1495 133.632 18.4566 133.632 20.128C133.632 21.766 133.168 23.0797 132.239 24.0692C131.316 25.052 130.076 25.5434 128.518 25.5434ZM128.638 16.1768C127.582 16.1768 126.746 16.5378 126.131 17.2599C125.516 17.9752 125.209 18.9647 125.209 20.2283C125.209 21.4451 125.519 22.4045 126.141 23.1065C126.763 23.8085 127.595 24.1595 128.638 24.1595C129.701 24.1595 130.517 23.8152 131.085 23.1265C131.66 22.4379 131.948 21.4585 131.948 20.1882C131.948 18.9045 131.66 17.9151 131.085 17.2197C130.517 16.5244 129.701 16.1768 128.638 16.1768ZM140.029 11.5436C139.708 11.3631 139.344 11.2728 138.936 11.2728C137.786 11.2728 137.211 11.9982 137.211 13.449V15.0335H139.618V16.4375H137.211V25.3027H135.576V16.4375H133.821V15.0335H135.576V13.3688C135.576 12.2924 135.887 11.4433 136.509 10.8216C137.131 10.1931 137.906 9.87887 138.836 9.87887C139.337 9.87887 139.735 9.93904 140.029 10.0594V11.5436ZM145.613 25.2024C145.226 25.4164 144.714 25.5234 144.079 25.5234C142.281 25.5234 141.381 24.5205 141.381 22.5148V16.4375H139.616V15.0335H141.381V12.5264L143.026 11.9949V15.0335H145.613V16.4375H143.026V22.224C143.026 22.9126 143.143 23.404 143.377 23.6982C143.611 23.9923 143.999 24.1394 144.54 24.1394C144.955 24.1394 145.312 24.0258 145.613 23.7985V25.2024ZM77.0813 43.3027H69.4596V28.9218H76.7603V30.4462H71.1444V35.2298H76.3391V36.7441H71.1444V41.7784H77.0813V43.3027ZM87.2285 43.3027H85.5838V37.4461C85.5838 35.2665 84.7882 34.1768 83.197 34.1768C82.3747 34.1768 81.6928 34.4877 81.1512 35.1094C80.6164 35.7245 80.3489 36.5034 80.3489 37.4461V43.3027H78.7043V33.0335H80.3489V34.7384H80.3891C81.1646 33.4414 82.2878 32.7928 83.7586 32.7928C84.8818 32.7928 85.741 33.1572 86.336 33.886C86.931 34.608 87.2285 35.6543 87.2285 37.0249V43.3027ZM94.1767 43.2024C93.7889 43.4164 93.2775 43.5234 92.6423 43.5234C90.8439 43.5234 89.9446 42.5205 89.9446 40.5148V34.4375H88.1796V33.0335H89.9446V30.5264L91.5893 29.9949V33.0335H94.1767V34.4375H91.5893V40.224C91.5893 40.9126 91.7063 41.404 91.9403 41.6982C92.1743 41.9923 92.5621 42.1394 93.1036 42.1394C93.5181 42.1394 93.8758 42.0258 94.1767 41.7985V43.2024ZM100.804 34.6983C100.516 34.4776 100.102 34.3673 99.5604 34.3673C98.8584 34.3673 98.27 34.6983 97.7954 35.3601C97.3274 36.022 97.0934 36.9246 97.0934 38.0678V43.3027H95.4487V33.0335H97.0934V35.1495H97.1335C97.3675 34.4275 97.7252 33.8659 98.2065 33.4648C98.6879 33.0569 99.2261 32.853 99.8211 32.853C100.249 32.853 100.577 32.8998 100.804 32.9934V34.6983ZM109.016 43.3027H107.371V41.6982H107.331C106.616 42.9283 105.563 43.5434 104.172 43.5434C103.149 43.5434 102.347 43.2726 101.765 42.7311C101.19 42.1896 100.903 41.4709 100.903 40.575C100.903 38.6562 102.032 37.5397 104.292 37.2255L107.371 36.7942C107.371 35.0493 106.666 34.1768 105.255 34.1768C104.018 34.1768 102.902 34.598 101.905 35.4404V33.7556C102.915 33.1138 104.078 32.7928 105.395 32.7928C107.809 32.7928 109.016 34.0698 109.016 36.6237V43.3027ZM107.371 38.108L104.894 38.4489C104.132 38.5559 103.557 38.7464 103.169 39.0206C102.781 39.288 102.587 39.766 102.587 40.4546C102.587 40.9561 102.765 41.3672 103.119 41.6881C103.48 42.0024 103.958 42.1595 104.553 42.1595C105.369 42.1595 106.041 41.8753 106.569 41.3071C107.104 40.7321 107.371 40.0067 107.371 39.1309V38.108ZM119.211 28.9218V30.3659H117.807V41.8586H119.211V43.3027H114.719V41.8586H116.123V30.3659H114.719V28.9218H119.211ZM120.674 43.3027V28.9218H124.645C129.713 28.9218 132.247 31.2585 132.247 35.9318C132.247 38.1514 131.542 39.9365 130.131 41.287C128.727 42.6308 126.845 43.3027 124.485 43.3027H120.674ZM122.359 30.4462V41.7784H124.505C126.39 41.7784 127.858 41.2736 128.907 40.2641C129.957 39.2546 130.482 37.8238 130.482 35.9719C130.482 32.2881 128.523 30.4462 124.605 30.4462H122.359Z" fill="black"/>
<g clip-path="url(#clip0_69_2380)">
<path d="M11.8398 42.6518C13.0192 43.3874 14.9798 44.2051 17.0529 44.2051C18.9405 44.2051 20.6944 43.6579 22.1474 42.7248C22.1474 42.7248 22.1504 42.7248 22.1535 42.7217L27.6401 39.293V51.6736C26.7707 51.6736 25.8953 51.4365 25.1354 50.9623L11.8398 42.6518Z" fill="#225086"/>
<path d="M24.1518 4.57627L1.35425 30.292C-0.405729 32.2799 0.053263 35.2831 2.33606 36.7087C2.33606 36.7087 10.7742 41.9826 11.8381 42.6483C13.0175 43.3839 14.9781 44.2015 17.0512 44.2015C18.9388 44.2015 20.6927 43.6544 22.1457 42.7212C22.1457 42.7212 22.1487 42.7212 22.1517 42.7182L27.6384 39.2894L14.3732 30.9972L27.6414 16.0298V3.03516C26.3526 3.03516 25.0637 3.54886 24.1518 4.57627Z" fill="#66DDFF"/>
<path d="M14.375 31.0006L14.5331 31.0979L27.6402 39.2928H27.6432V16.0362L27.6402 16.0332L14.375 31.0006Z" fill="#CBF8FF"/>
<path d="M52.9399 36.7117C55.2227 35.2861 55.6817 32.2829 53.9217 30.2949L38.9634 13.4217C37.7567 12.8593 36.404 12.5371 34.9723 12.5371C32.1606 12.5371 29.6468 13.7499 27.975 15.6558L27.6437 16.0297L40.9088 30.9971L27.6406 39.2893V51.6699C28.513 51.6699 29.3824 51.4328 30.1423 50.9587L52.9399 36.7086V36.7117Z" fill="#074793"/>
<path d="M27.6437 3.03516V16.0298L27.975 15.6559C29.6468 13.75 32.1606 12.5372 34.9723 12.5372C36.4071 12.5372 37.7567 12.8624 38.9634 13.4217L31.1241 4.57931C30.2152 3.5519 28.9264 3.0382 27.6406 3.0382L27.6437 3.03516Z" fill="#0294E4"/>
<path d="M40.9058 31.0034L27.6406 16.0391V39.2926L40.9058 31.0034Z" fill="#96BCC2"/>
</g>
<defs>
<clipPath id="clip0_69_2380">
<rect width="54.7142" height="54.7142" fill="white" transform="translate(0.28125)"/>
</clipPath>
</defs>
</svg>
