<svg width="20" height="20" viewBox="0 0 20 20" fill="none" xmlns="http://www.w3.org/2000/svg">
<path d="M19.8771 11.5222C19.1399 16.314 15.0034 20 9.99317 20C4.47782 19.9863 0 15.5222 0 9.99317C0 4.46416 4.47782 1.90106e-07 9.99317 1.90106e-07C14.9898 1.90106e-07 19.1399 3.67235 19.8771 8.47782C18.8532 9.29693 17.57 9.77474 16.1638 9.77474C12.8874 9.77474 10.2116 7.16724 10.2116 3.91809C10.2116 3.86348 10.2116 3.6041 9.99317 3.6041C9.77474 3.6041 9.77474 3.87713 9.77474 3.91809C9.77474 7.05802 7.19454 9.77474 3.91809 9.77474C3.87713 9.77474 3.61775 9.76109 3.61775 9.99317C3.61775 10.2253 3.89079 10.2116 3.91809 10.2116C7.07167 10.2116 9.77474 12.8191 9.77474 16.0683C9.77474 16.1229 9.80205 16.3823 9.99317 16.3823C10.1843 16.3823 10.2116 16.1502 10.2116 16.0683C10.2116 12.8601 12.8601 10.2116 16.1638 10.2116C17.5427 10.2116 18.8532 10.7031 19.8771 11.5222Z" fill="#FA4616"/>
</svg>
