<svg width="21" height="14" viewBox="0 0 21 14" fill="none" xmlns="http://www.w3.org/2000/svg">
<path d="M19.677 6.43846L13.5309 3.05574L13.3178 2.94253C13.1438 2.86975 12.957 2.8324 12.7684 2.83266C12.5848 2.83245 12.4028 2.86749 12.2324 2.93587H12.1991L11.966 3.06572L11.0105 3.59844C11.0071 3.6009 11.0043 3.60415 11.0023 3.60791C11.0004 3.61168 10.9994 3.61585 10.9994 3.62008C10.9994 3.62431 11.0004 3.62848 11.0023 3.63224C11.0043 3.636 11.0071 3.63925 11.0105 3.64172L11.4034 3.8548L13.734 5.12998L15.109 5.87911C13.7324 5.98916 12.3952 6.39214 11.1869 7.06106C10.8416 7.25978 10.4501 7.36426 10.0516 7.36404H9.98835C9.58989 7.36426 9.19837 7.25978 8.85301 7.06106C7.64876 6.39905 6.3175 6.00069 4.94756 5.89243L10.0183 3.09236L11.8195 2.09352C12.0504 1.9405 12.3096 1.83542 12.5819 1.78452C12.8541 1.73362 13.1338 1.73793 13.4044 1.7972C13.8685 1.9761 14.3145 2.19909 14.7361 2.46309C14.9357 2.57965 15.1734 2.61216 15.3969 2.55347C15.6205 2.49478 15.8115 2.34969 15.9281 2.15013C16.0446 1.95056 16.0772 1.71287 16.0185 1.48934C15.9598 1.2658 15.8147 1.07474 15.6151 0.958183C14.9887 0.541946 14.2948 0.237768 13.5642 0.0592313C11.8995 -0.227101 10.8074 0.595273 10.0117 1.01811C9.52175 0.614846 8.95146 0.32072 8.33885 0.155368C7.72624 -0.00998478 7.08541 -0.0427595 6.45913 0.0592313C5.72856 0.237768 5.03458 0.541946 4.40819 0.958183C4.24755 1.05635 4.12345 1.20438 4.05483 1.37969C3.98622 1.555 3.97685 1.74794 4.02817 1.92907C4.07949 2.1102 4.18868 2.26955 4.33905 2.38281C4.48943 2.49607 4.67274 2.55701 4.861 2.55632C5.01292 2.55553 5.16204 2.51538 5.29382 2.43979C5.71545 2.17578 6.16142 1.9528 6.6256 1.7739C6.90498 1.70929 7.19499 1.70559 7.47592 1.76304C7.75685 1.82049 8.02212 1.93775 8.2537 2.10684L0.332945 6.43846C0.232756 6.49111 0.148816 6.57009 0.0901523 6.66688C0.0314887 6.76368 0.000320698 6.87463 0 6.98781L0 8.07654C0.0011632 8.18867 0.0327492 8.29838 0.0913871 8.39396C0.150025 8.48954 0.233514 8.5674 0.332945 8.61924C0.536041 8.73245 0.599301 8.78905 0.599301 9.18858C0.589312 9.86779 0.126519 13.6467 5.03746 13.6467C9.44898 13.6467 8.89962 9.31843 10.0117 9.35172C11.1237 9.38502 10.5743 13.6467 14.9825 13.6467C19.8968 13.6467 19.434 9.86779 19.434 9.18525C19.434 8.78572 19.4739 8.72912 19.677 8.61924C19.7767 8.56685 19.8603 8.4884 19.919 8.39225C19.9776 8.29609 20.0091 8.18583 20.01 8.07322V6.98781C20.0091 6.8752 19.9776 6.76494 19.919 6.66878C19.8603 6.57263 19.7767 6.49418 19.677 6.44179M7.32479 11.0164C6.83536 12.0153 5.99301 12.1851 4.79108 12.1351C3.87215 12.0952 3.03313 11.8022 2.6003 11.3161C1.97769 10.6202 2.05427 8.50271 2.29732 8.03326C2.76011 7.13764 7.02847 7.40733 7.5978 8.54933C7.6544 8.6592 8.03396 9.54816 7.32479 11.0164ZM17.413 11.3161C16.9802 11.8022 16.1445 12.0952 15.2222 12.1351C14.017 12.1851 13.178 12.0253 12.6885 11.0164C11.9794 9.55815 12.3556 8.6592 12.4155 8.54933C12.9849 7.40733 17.2532 7.13764 17.7127 8.03326C17.9557 8.50271 18.0456 10.6202 17.4097 11.3161" fill="#0062E3"/>
</svg>
