<svg width="20" height="20" viewBox="0 0 20 20" fill="none" xmlns="http://www.w3.org/2000/svg">
<path fill-rule="evenodd" clip-rule="evenodd" d="M10.8435 1.31511L10.4822 5.77171C10.3122 5.7539 10.1421 5.74321 9.96857 5.74321C9.74894 5.74321 9.5364 5.75746 9.3274 5.79308L9.12194 3.63069C9.1184 3.56301 9.17154 3.50244 9.23884 3.50244H9.6037L9.43013 1.31868C9.42304 1.25099 9.47618 1.19043 9.53994 1.19043H10.7302C10.801 1.19043 10.8542 1.25099 10.8435 1.31511ZM9.01921 5.84652C8.63664 5.93202 8.27178 6.07452 7.93525 6.25976L7.00715 4.30043C6.97881 4.24343 7.00715 4.16862 7.07092 4.14368L7.41452 4.019L6.50768 2.02404C6.4758 1.96348 6.50768 1.89223 6.5679 1.86729L7.68729 1.45405C7.75105 1.43267 7.81835 1.47186 7.83961 1.53242C7.84315 1.53242 9.01921 5.84652 9.01921 5.84652ZM5.09428 2.77571L7.66957 6.42363C7.34368 6.63738 7.04612 6.89031 6.79461 7.18599L5.25014 5.66127C5.20409 5.6114 5.20763 5.53303 5.25723 5.49028L5.53707 5.25516L4.00677 3.69482C3.95718 3.64494 3.96426 3.56657 4.0174 3.52382L4.92424 2.75434C4.97738 2.71159 5.05177 2.72227 5.09074 2.77571H5.09428ZM6.59624 7.42824C6.36244 7.73817 6.1747 8.08016 6.033 8.44709L4.06699 7.54224C4.00677 7.5173 3.98198 7.43893 4.01386 7.38193L4.19806 7.06131L2.22497 6.12439C2.16829 6.09589 2.14349 6.02108 2.17537 5.96408L2.77049 4.92742C2.80591 4.86685 2.8803 4.84904 2.93698 4.88823L6.59624 7.42824ZM1.47753 7.70255C1.48815 7.6313 1.55546 7.59211 1.61922 7.60992L5.92319 8.73921C5.81338 9.10258 5.74961 9.49088 5.73899 9.88988L3.58523 9.71532C3.51793 9.71175 3.46833 9.64763 3.4825 9.57994L3.54627 9.21658L1.37126 9.00996C1.30395 9.00639 1.26144 8.94227 1.26853 8.87458L1.47398 7.69542L1.47753 7.70255ZM1.31104 10.6273L5.74253 10.2176C5.76024 10.613 5.83817 10.9978 5.96216 11.3612L3.87925 11.9383C3.81549 11.9525 3.74818 11.9133 3.73755 11.8456L3.67733 11.4823L1.56609 12.0345C1.50232 12.0487 1.43502 12.0095 1.42439 11.9418L1.21539 10.7627C1.20477 10.695 1.25082 10.6309 1.31812 10.6273H1.31104ZM2.00534 13.7266C1.96992 13.666 1.99471 13.5948 2.05493 13.5663L6.07197 11.6497C6.22075 12.0095 6.42621 12.3479 6.67063 12.6508L4.91008 13.9119C4.85694 13.951 4.77901 13.9368 4.74358 13.8762L4.55938 13.5556L2.7634 14.8025C2.71027 14.8416 2.63234 14.8203 2.60046 14.7633C2.60046 14.7633 2.0018 13.7266 2.00534 13.7266ZM7.77939 13.6233L6.55373 15.4116C6.51476 15.4722 6.43683 15.4793 6.3837 15.4366L6.10031 15.1979L4.83569 16.9862C4.79672 17.0397 4.72233 17.0504 4.66919 17.0076L3.75527 16.2381C3.70213 16.1954 3.69859 16.117 3.74818 16.0671L6.87254 12.8859C7.14176 13.1673 7.44641 13.4167 7.77939 13.6233ZM6.25617 17.9944C6.19241 17.9695 6.16407 17.8946 6.19241 17.8376L8.04506 13.7694C8.38513 13.9475 8.75354 14.0793 9.13965 14.1505L8.59413 16.2524C8.57996 16.3165 8.50557 16.3557 8.44535 16.3307L8.0982 16.2061L7.5208 18.3221C7.49954 18.3863 7.43224 18.4254 7.36847 18.4005L6.24909 17.9873L6.25617 17.9944ZM9.96148 14.2432C10.1811 14.2432 10.3972 14.2253 10.6062 14.1933L10.8081 16.3521C10.8152 16.4234 10.7621 16.4804 10.6912 16.4804H10.3263L10.5035 18.6641C10.5141 18.7354 10.461 18.7924 10.3901 18.7924H9.19987C9.13611 18.7924 9.08298 18.7354 9.08652 18.6641L9.44784 14.2075C9.61787 14.2325 9.78791 14.2432 9.96148 14.2432ZM11.8779 6.1992C11.5378 6.0282 11.173 5.89639 10.7833 5.81802L11.3288 3.71619C11.3501 3.65207 11.4174 3.61288 11.4812 3.63782L11.8248 3.76606L12.4057 1.64998C12.4234 1.58586 12.4907 1.54667 12.5545 1.57161L13.6739 1.98129C13.7376 2.00623 13.766 2.07391 13.7376 2.13804L11.8779 6.1992ZM16.1748 3.91212L13.0504 7.09337C12.7847 6.80838 12.4836 6.55901 12.1507 6.35595L13.3763 4.56761C13.4153 4.51061 13.4897 4.49636 13.5464 4.54267L13.8262 4.78136L15.0908 2.99302C15.1298 2.93958 15.2077 2.92889 15.2573 2.97164L16.1712 3.74113C16.2244 3.78388 16.2244 3.86225 16.1748 3.91212ZM17.8645 6.42007L13.8475 8.33666C13.6916 7.97329 13.4897 7.63486 13.2488 7.33205L15.0093 6.07095C15.0625 6.0282 15.1404 6.04602 15.1723 6.10658L15.36 6.42363L17.1525 5.17678C17.2056 5.14472 17.2835 5.15897 17.319 5.21597L17.9176 6.25264C17.9495 6.30964 17.9318 6.38445 17.868 6.41295L17.8645 6.42007ZM18.5021 8.03741L18.704 9.21658C18.7147 9.28426 18.6721 9.34482 18.6048 9.35551L14.1734 9.76875C14.1556 9.36976 14.0777 8.98858 13.9537 8.62521L16.0366 8.0481C16.1004 8.03029 16.1677 8.07304 16.1783 8.14072L16.2385 8.50409L18.3498 7.95191C18.4136 7.93766 18.4809 7.97685 18.4915 8.04454L18.5021 8.03741ZM18.2967 12.3586L13.9927 11.2293C14.106 10.8624 14.1698 10.4777 14.1804 10.0751L16.3342 10.2497C16.4015 10.2604 16.444 10.3209 16.4369 10.3886L16.3732 10.7484L18.5446 10.955C18.6155 10.9657 18.658 11.0227 18.6474 11.094L18.4454 12.2696C18.4348 12.3373 18.3675 12.3764 18.3037 12.3622L18.2967 12.3586ZM17.1525 15.0518C17.1206 15.1124 17.0427 15.1266 16.986 15.091L13.3267 12.551C13.5605 12.2411 13.7483 11.8991 13.89 11.5322L15.856 12.437C15.9162 12.4655 15.941 12.5403 15.9091 12.6009L15.7249 12.9179L17.698 13.8549C17.7547 13.8834 17.7795 13.9582 17.7476 14.0152L17.1525 15.0518ZM12.2498 13.552C12.5757 13.3419 12.8662 13.0818 13.1248 12.7897L14.6657 14.3144C14.7153 14.3643 14.7153 14.4427 14.6622 14.4854L14.3788 14.7205L15.9127 16.2809C15.9552 16.3307 15.9552 16.4091 15.902 16.4519L14.9916 17.2178C14.942 17.2641 14.8641 17.2534 14.8251 17.2L12.2534 13.552H12.2498ZM12.2321 18.5181C12.1684 18.543 12.1011 18.5038 12.0798 18.4397L10.9038 14.1292C11.2863 14.0401 11.6512 13.9012 11.9877 13.7124L12.9158 15.6753C12.9477 15.7394 12.9158 15.8106 12.852 15.832L12.5084 15.9567L13.4188 17.9516C13.4472 18.0158 13.4188 18.0835 13.3551 18.1084L12.2357 18.5181H12.2321Z" fill="black"/>
</svg>
