<svg width="20" height="20" viewBox="0 0 20 20" fill="none" xmlns="http://www.w3.org/2000/svg">
<path d="M5.98657 1.17578C6.28368 0.955973 6.6789 0.940582 6.99243 1.13672C7.4006 1.39176 7.92794 1.72273 8.5022 2.08496C8.465 1.77578 8.59773 1.46871 8.85474 1.2832C9.13928 1.07742 9.51615 1.06399 9.8147 1.24805C12.659 3.00243 14.6115 4.88621 14.6946 4.9668C14.7216 4.9924 14.7461 5.02183 14.7678 5.05371C15.5673 5.84115 16.1428 6.79351 16.4631 7.84375C16.6023 7.86597 16.735 7.88891 16.8577 7.91113C17.7624 8.07592 18.3893 8.92098 18.2854 9.83496C18.2144 10.4572 18.0807 11.4041 17.845 12.3799C17.6947 13.0006 17.2277 13.4852 16.636 13.6592V14.3965C16.6359 17.0592 13.9283 18.9923 10.1956 18.999H10.177C6.44433 18.9926 3.73755 17.0592 3.73755 14.3965V13.6807C3.10953 13.528 2.60794 13.0272 2.45142 12.3799C2.21568 11.4041 2.08152 10.4572 2.01099 9.83496C1.90712 8.92096 2.53439 8.07589 3.43872 7.91113C3.52278 7.89567 3.61256 7.88021 3.70435 7.86523C3.94348 7.07924 4.32356 6.33973 4.83032 5.69238C4.75401 5.20553 4.66122 4.63735 4.55884 4.0332C4.49375 3.6469 4.66863 3.26638 5.00513 3.06445C5.2887 2.89489 5.63027 2.88534 5.91626 3.03027C5.82353 2.73228 5.73568 2.42928 5.65454 2.12598C5.55842 1.76854 5.68909 1.3956 5.98657 1.17578ZM10.0901 10.2188C9.86656 10.245 9.68091 10.4314 9.63794 10.6719C9.481 11.5483 9.29129 12.1655 9.15942 12.5293C8.95218 13.1013 8.45135 13.5311 7.85376 13.6504C6.82647 13.8556 5.79721 13.9166 4.82642 13.8379V14.3965C4.82656 16.4307 7.08008 17.9073 10.1868 17.9102C13.2934 17.9067 15.546 16.4302 15.5461 14.3965V13.832C15.2526 13.8581 14.9538 13.8721 14.6506 13.8721C13.9284 13.8721 13.1846 13.7987 12.4417 13.6504C11.8441 13.5311 11.3442 13.1013 11.137 12.5293C11.0051 12.1655 10.8154 11.5483 10.6584 10.6719C10.6155 10.4313 10.4285 10.2448 10.2053 10.2188C10.1677 10.2139 10.1277 10.2139 10.0901 10.2188ZM6.74146 8.72754C5.41689 8.72754 4.32249 8.87634 3.63794 9.00098C3.30518 9.06135 3.07454 9.37237 3.11255 9.70898C3.18018 10.3042 3.30686 11.2087 3.53149 12.1338C3.59097 12.3791 3.79058 12.5679 4.03931 12.6162C4.80981 12.7655 6.05979 12.8774 7.63696 12.5635C7.85724 12.5195 8.04158 12.362 8.11743 12.1523C8.23386 11.8306 8.40264 11.2826 8.54419 10.4971C8.54807 10.4039 8.56748 10.2927 8.5979 10.1865C8.63218 9.96443 8.66411 9.72545 8.69067 9.49707C8.71096 9.32126 8.65963 9.14891 8.54712 9.0127C8.43359 8.87501 8.27226 8.79185 8.09399 8.77832C7.64685 8.74453 7.19198 8.72755 6.74146 8.72754ZM13.5559 8.72656C13.1054 8.72657 12.6505 8.74404 12.2034 8.77832C12.0252 8.79184 11.8638 8.87418 11.7502 9.01172C11.6372 9.14839 11.5865 9.32031 11.6067 9.49609C11.6328 9.7246 11.6657 9.96384 11.7004 10.1885C11.7304 10.2923 11.7488 10.4039 11.7532 10.5C11.8941 11.282 12.0626 11.8301 12.179 12.1514C12.2553 12.3615 12.4397 12.5195 12.6594 12.5635C14.2362 12.878 15.487 12.7655 16.2581 12.6162C16.5067 12.5683 16.7055 12.3781 16.7649 12.1328C16.933 11.439 17.0473 10.7575 17.1223 10.209L17.1848 9.70898C17.2235 9.37227 16.9928 9.06087 16.6594 9C15.9749 8.87537 14.8809 8.72656 13.5559 8.72656ZM6.83228 9.7334C7.2509 9.73364 7.59105 10.0745 7.59106 10.4932C7.59106 10.9119 7.25091 11.2527 6.83228 11.2529C6.41343 11.2529 6.07251 10.912 6.07251 10.4932C6.07253 10.0743 6.41344 9.7334 6.83228 9.7334ZM13.3625 9.7334C13.7813 9.7334 14.1221 10.0735 14.1223 10.4922C14.1223 10.911 13.7814 11.252 13.3625 11.252C12.9437 11.2519 12.6028 10.911 12.6028 10.4922C12.603 10.0735 12.9439 9.73342 13.3625 9.7334ZM6.94263 2.46094C7.13631 3.1115 7.34891 3.71893 7.57446 4.26953C7.66569 4.49213 7.60702 4.75027 7.42896 4.91211C7.25069 5.07395 6.98722 5.1072 6.77466 4.99512C6.50998 4.85504 6.17453 4.63591 5.77563 4.34375C5.86354 4.87024 5.9404 5.34882 6.00513 5.77051C6.03059 5.93504 5.98326 6.10256 5.87524 6.22949L5.87329 6.23047C5.50094 6.6685 5.20001 7.16803 4.97974 7.70215C5.86461 7.62006 6.92332 7.58492 8.0979 7.66895C8.60898 7.70614 9.07625 7.93012 9.37915 8.28418C9.58878 8.52858 9.72636 8.82276 9.77759 9.13574C9.90984 9.1174 10.0593 9.10939 10.1467 9.10938C10.2341 9.10938 10.3835 9.1174 10.5159 9.13574C10.5676 8.82279 10.7052 8.52905 10.9143 8.28418C11.2176 7.92964 11.6845 7.70571 12.1956 7.66895C13.3134 7.58875 14.3278 7.617 15.1858 7.69043C14.893 6.98366 14.4546 6.34041 13.8879 5.80176C13.8605 5.77572 13.8354 5.74667 13.8137 5.71582C13.5005 5.42195 11.9509 4.00499 9.82349 2.61523C9.88097 2.80748 9.94334 2.99911 10.009 3.18652C10.0899 3.41684 10.0151 3.67458 9.82349 3.82617C9.63176 3.97754 9.36457 3.99112 9.15845 3.86035C8.37641 3.36234 7.58365 2.86333 6.94263 2.46094Z" fill="#FFC300"/>
</svg>
