<svg width="12" height="15" viewBox="0 0 12 15" fill="none" xmlns="http://www.w3.org/2000/svg">
<path d="M8.26465 8.24414C8.38314 8.24414 8.48112 8.28516 8.55859 8.36719C8.64062 8.44466 8.68164 8.54264 8.68164 8.66113C8.68164 8.77962 8.64062 8.87988 8.55859 8.96191C8.48112 9.04395 8.38314 9.08496 8.26465 9.08496H3.07617C2.95312 9.08496 2.85059 9.04395 2.76855 8.96191C2.68652 8.87988 2.64551 8.77962 2.64551 8.66113C2.64551 8.54264 2.68652 8.44466 2.76855 8.36719C2.85059 8.28516 2.95312 8.24414 3.07617 8.24414H8.26465ZM8.26465 10.6299C8.38314 10.6299 8.48112 10.6709 8.55859 10.7529C8.64062 10.835 8.68164 10.9375 8.68164 11.0605C8.68164 11.1745 8.64062 11.2725 8.55859 11.3545C8.48112 11.432 8.38314 11.4707 8.26465 11.4707H3.07617C2.95312 11.4707 2.85059 11.432 2.76855 11.3545C2.68652 11.2725 2.64551 11.1745 2.64551 11.0605C2.64551 10.9375 2.68652 10.835 2.76855 10.7529C2.85059 10.6709 2.95312 10.6299 3.07617 10.6299H8.26465ZM2.11914 14.6562C1.41276 14.6562 0.881836 14.4785 0.526367 14.123C0.175456 13.7676 0 13.2321 0 12.5166V2.14648C0 1.43555 0.175456 0.900065 0.526367 0.540039C0.881836 0.180013 1.41276 0 2.11914 0H5.36621C5.62142 0 5.84473 0.0182292 6.03613 0.0546875C6.2321 0.0865885 6.41211 0.150391 6.57617 0.246094C6.74023 0.33724 6.90885 0.47168 7.08203 0.649414L10.8486 4.48438C11.0309 4.67122 11.1676 4.84896 11.2588 5.01758C11.3545 5.18164 11.4183 5.36393 11.4502 5.56445C11.4821 5.76497 11.498 6.01335 11.498 6.30957V12.5166C11.498 13.2275 11.3203 13.7607 10.9648 14.1162C10.6139 14.4762 10.0853 14.6562 9.37891 14.6562H2.11914ZM2.16699 13.5557H9.32422C9.67969 13.5557 9.94629 13.4645 10.124 13.2822C10.3063 13.0999 10.3975 12.8379 10.3975 12.4961V6.35742H6.50098C6.07259 6.35742 5.7513 6.25033 5.53711 6.03613C5.32292 5.82194 5.21582 5.50065 5.21582 5.07227V1.10059H2.17383C1.81836 1.10059 1.54948 1.19401 1.36719 1.38086C1.18945 1.56771 1.10059 1.82975 1.10059 2.16699V12.4961C1.10059 12.8379 1.18945 13.0999 1.36719 13.2822C1.54948 13.4645 1.81608 13.5557 2.16699 13.5557ZM6.62402 5.3252H10.1855L6.24805 1.3125V4.94238C6.24805 5.0791 6.27539 5.17708 6.33008 5.23633C6.38932 5.29557 6.4873 5.3252 6.62402 5.3252Z" fill="#0A0A0A"/>
</svg>
